<svg viewBox="-3.4199998 -2.05832 6.84 6.11664" xmlns="http://www.w3.org/2000/svg">
<style>
.star { font: 0.05px sans-serif; fill: red; }
.fleet { font: 0.03px sans-serif; fill: white; }
</style>
<g fill="none" stroke="black" stroke-width="0.01">
<circle cx="-2.85" cy="1.6495" fill="#37BB00" r="0.05"/>
<circle cx="-1.1027" cy="1.1641" fill="#37BB00" r="0.05"/>
<circle cx="-1.2573" cy="3.1249" fill="#00A0DF" r="0.05"/>
<circle cx="-1.65" cy="1.6495" fill="#37BB00" r="0.05"/>
<circle cx="-0.75" cy="2.2495" fill="#FFBE0E" r="0.05"/>
<circle cx="-1.1473" cy="2.4631" fill="#00A0DF" r="0.05"/>
<circle cx="1.6854" cy="0.9211" fill="#0433FF" r="0.05"/>
<circle cx="-2.4354" cy="1.0789" fill="#37BB00" r="0.05"/>
<circle cx="-2.0706" cy="3.134" fill="#00A0DF" r="0.05"/>
<circle cx="1.5" cy="0.9505" fill="#0433FF" r="0.05"/>
<circle cx="-2.4927" cy="1.4732" fill="#37BB00" r="0.05"/>
<circle cx="-0.1854" cy="-0.2202" fill="#C11A00" r="0.05"/>
<circle cx="1.7427" cy="0.5268" fill="#0433FF" r="0.05"/>
<circle cx="0.1854" cy="-0.2202" fill="#C11A00" r="0.05"/>
<circle cx="1.8527" cy="0.8359" fill="#0433FF" r="0.05"/>
<circle cx="2.4354" cy="-0.3779" fill="#C11A00" r="0.05"/>
<circle cx="-1.2354" cy="2.0022" fill="#FFBE0E" r="0.05"/>
<circle cx="-1.0146" cy="3.3012" fill="#00A0DF" r="0.05"/>
<circle cx="-2.4927" cy="1.8259" fill="#37BB00" r="0.05"/>
<circle cx="0" cy="-0.2495" fill="#C11A00" r="0.05"/>
<circle cx="-2.25" cy="2.2495" fill="#37BB00" r="0.05"/>
<circle cx="-1.9854" cy="3.3012" fill="#00A0DF" r="0.05"/>
<circle cx="-2.4354" cy="2.2202" fill="#37BB00" r="0.05"/>
<circle cx="0.6" cy="0.3505" fill="#0433FF" r="0.05"/>
<circle cx="1.4073" cy="0.0652" fill="#0433FF" r="0.05"/>
<circle cx="2.0646" cy="-0.3779" fill="#C11A00" r="0.05"/>
<circle cx="-1.3146" cy="2.3779" fill="#00A0DF" r="0.05"/>
<circle cx="-2.0706" cy="2.7631" fill="#00A0DF" r="0.05"/>
<circle cx="-0.5706" cy="0.5359" fill="#0433FF" r="0.05"/>
<circle cx="-1.9854" cy="2.5959" fill="#00A0DF" r="0.05"/>
<circle cx="0.9294" cy="0.5359" fill="#0433FF" r="0.05"/>
<circle cx="1.7427" cy="0.1741" fill="#0433FF" r="0.05"/>
<circle cx="1.9854" cy="-0.0022" fill="#0433FF" r="0.05"/>
<circle cx="0.2427" cy="0.1741" fill="#C11A00" r="0.05"/>
<circle cx="-1.4073" cy="3.2339" fill="#00A0DF" r="0.05"/>
<circle cx="-1.8973" cy="2.1349" fill="#37BB00" r="0.05"/>
<circle cx="-1.6854" cy="3.5192" fill="#00A0DF" r="0.05"/>
<circle cx="-1.05" cy="1.6495" fill="#FFBE0E" r="0.05"/>
<circle cx="0.2427" cy="0.5268" fill="#0433FF" r="0.05"/>
<circle cx="-0.5706" cy="0.1651" fill="#0433FF" r="0.05"/>
<circle cx="-1.2573" cy="2.7722" fill="#00A0DF" r="0.05"/>
<circle cx="-0.5646" cy="1.0789" fill="#FFBE0E" r="0.05"/>
<circle cx="1.5927" cy="0.6358" fill="#0433FF" r="0.05"/>
<circle cx="-2.6027" cy="2.1349" fill="#37BB00" r="0.05"/>
<circle cx="-1.7427" cy="3.1249" fill="#00A0DF" r="0.05"/>
<circle cx="2.25" cy="-0.9486" fill="#C11A00" r="0.05"/>
<circle cx="1.3146" cy="0.9211" fill="#0433FF" r="0.05"/>
<circle cx="-0.6" cy="0.3505" fill="#0433FF" r="0.05"/>
<circle cx="2.8206" cy="-1.134" fill="#C11A00" r="0.05"/>
<circle cx="-1.7427" cy="2.7722" fill="#00A0DF" r="0.05"/>
<circle cx="1.1473" cy="-0.1349" fill="#0433FF" r="0.05"/>
<circle cx="-1.5927" cy="2.6632" fill="#00A0DF" r="0.05"/>
<circle cx="-0.3527" cy="-0.1349" fill="#C11A00" r="0.05"/>
<circle cx="-1.4073" cy="2.6632" fill="#00A0DF" r="0.05"/>
<circle cx="-0.5646" cy="2.2202" fill="#FFBE0E" r="0.05"/>
<circle cx="2.7354" cy="-0.5959" fill="#C11A00" r="0.05"/>
<circle cx="-0.0927" cy="0.6358" fill="#0433FF" r="0.05"/>
<circle cx="-1.6794" cy="1.8349" fill="#37BB00" r="0.05"/>
<circle cx="-0.1794" cy="1.8349" fill="#FFBE0E" r="0.05"/>
<circle cx="0" cy="0.9505" fill="#C11A00" r="0.05"/>
<circle cx="-2.7354" cy="1.2968" fill="#37BB00" r="0.05"/>
<circle cx="-0.75" cy="1.6495" fill="#FFBE0E" r="0.05"/>
<circle cx="-2.25" cy="1.0495" fill="#37BB00" r="0.05"/>
<circle cx="-1.3206" cy="1.4641" fill="#FFBE0E" r="0.05"/>
<circle cx="2.55" cy="-0.9486" fill="#C11A00" r="0.05"/>
<circle cx="-0.9927" cy="1.4732" fill="#FFBE0E" r="0.05"/>
<circle cx="-0.2646" cy="2.0022" fill="#FFBE0E" r="0.05"/>
<circle cx="-1.8527" cy="2.4631" fill="#00A0DF" r="0.05"/>
<circle cx="-2.1573" cy="1.9348" fill="#37BB00" r="0.05"/>
<circle cx="-0.2646" cy="1.2968" fill="#FFBE0E" r="0.05"/>
<circle cx="-1.5927" cy="3.2339" fill="#00A0DF" r="0.05"/>
<circle cx="1.8" cy="0.3505" fill="#0433FF" r="0.05"/>
<circle cx="0.5706" cy="0.1651" fill="#C11A00" r="0.05"/>
<circle cx="-1.5" cy="2.3486" fill="#00A0DF" r="0.05"/>
<circle cx="1.5" cy="-0.2495" fill="#0433FF" r="0.05"/>
<circle cx="-0.6573" cy="1.9348" fill="#FFBE0E" r="0.05"/>
<circle cx="2.1" cy="0.3505" fill="#0433FF" r="0.05"/>
<circle cx="0.4854" cy="0.7032" fill="#C11A00" r="0.05"/>
<circle cx="0.4854" cy="-0.0022" fill="#C11A00" r="0.05"/>
<circle cx="2.25" cy="-1.5486" fill="#C11A00" r="0.05"/>
<circle cx="1.1473" cy="0.8359" fill="#0433FF" r="0.05"/>
<circle cx="0.5706" cy="0.5359" fill="#C11A00" r="0.05"/>
<circle cx="-0.3" cy="0.3505" fill="#C11A00" r="0.05"/>
<circle cx="2.4927" cy="-1.1249" fill="#C11A00" r="0.05"/>
<circle cx="-2.0073" cy="1.4732" fill="#37BB00" r="0.05"/>
<circle cx="2.7354" cy="-1.3012" fill="#C11A00" r="0.05"/>
<circle cx="-2.1573" cy="1.3642" fill="#37BB00" r="0.05"/>
<circle cx="-0.9294" cy="2.7631" fill="#00A0DF" r="0.05"/>
<circle cx="-0.5073" cy="1.8259" fill="#FFBE0E" r="0.05"/>
<circle cx="1.0146" cy="-0.0022" fill="#0433FF" r="0.05"/>
<circle cx="-1.7646" cy="1.2968" fill="#37BB00" r="0.05"/>
<circle cx="0.9294" cy="0.1651" fill="#C11A00" r="0.05"/>
<circle cx="1.2573" cy="0.1741" fill="#0433FF" r="0.05"/>
<circle cx="-0.9354" cy="1.0789" fill="#FFBE0E" r="0.05"/>
<circle cx="-1.7646" cy="2.0022" fill="#37BB00" r="0.05"/>
<circle cx="-0.3973" cy="2.1349" fill="#FFBE0E" r="0.05"/>
<circle cx="-1.1027" cy="2.1349" fill="#00A0DF" r="0.05"/>
<circle cx="-1.3206" cy="1.8349" fill="#FFBE0E" r="0.05"/>
<circle cx="1.7646" cy="-0.5959" fill="#C11A00" r="0.05"/>
<circle cx="-1.6794" cy="1.4641" fill="#37BB00" r="0.05"/>
<circle cx="1.8973" cy="-0.4631" fill="#C11A00" r="0.05"/>
<circle cx="-1.8527" cy="3.434" fill="#00A0DF" r="0.05"/>
<circle cx="-2.0646" cy="1.0789" fill="#37BB00" r="0.05"/>
<circle cx="-0.8427" cy="1.9348" fill="#FFBE0E" r="0.05"/>
<circle cx="2.0706" cy="0.1651" fill="#0433FF" r="0.05"/>
<circle cx="-0.9354" cy="2.2202" fill="#FFBE0E" r="0.05"/>
<circle cx="-0.45" cy="1.6495" fill="#FFBE0E" r="0.05"/>
<circle cx="-1.1473" cy="3.434" fill="#00A0DF" r="0.05"/>
<circle cx="-0.5073" cy="1.4732" fill="#FFBE0E" r="0.05"/>
<circle cx="-2.1" cy="2.9486" fill="#00A0DF" r="0.05"/>
<circle cx="-2.6027" cy="1.1641" fill="#37BB00" r="0.05"/>
<circle cx="-0.1794" cy="1.4641" fill="#FFBE0E" r="0.05"/>
<circle cx="-2.55" cy="1.6495" fill="#37BB00" r="0.05"/>
<circle cx="-2.7354" cy="2.0022" fill="#37BB00" r="0.05"/>
<circle cx="2.8206" cy="-0.7631" fill="#C11A00" r="0.05"/>
<circle cx="0.3527" cy="0.8359" fill="#C11A00" r="0.05"/>
<circle cx="-2.3427" cy="1.3642" fill="#37BB00" r="0.05"/>
<circle cx="1.7646" cy="-1.3012" fill="#0433FF" r="0.05"/>
<circle cx="-2.0073" cy="1.8259" fill="#37BB00" r="0.05"/>
<circle cx="2.0646" cy="-1.5192" fill="#C11A00" r="0.05"/>
<circle cx="-1.8" cy="2.9486" fill="#00A0DF" r="0.05"/>
<circle cx="1.4073" cy="0.6358" fill="#0433FF" r="0.05"/>
<circle cx="2.4354" cy="-1.5192" fill="#C11A00" r="0.05"/>
<circle cx="2.6027" cy="-1.434" fill="#C11A00" r="0.05"/>
<circle cx="-0.75" cy="1.0495" fill="#37BB00" r="0.05"/>
<circle cx="-1.8973" cy="1.1641" fill="#37BB00" r="0.05"/>
<circle cx="-0.3527" cy="0.8359" fill="#FFBE0E" r="0.05"/>
<circle cx="-2.0646" cy="2.2202" fill="#37BB00" r="0.05"/>
<circle cx="2.0073" cy="-1.1249" fill="#C11A00" r="0.05"/>
<circle cx="1.0146" cy="0.7032" fill="#0433FF" r="0.05"/>
<circle cx="-1.2" cy="2.9486" fill="#00A0DF" r="0.05"/>
<circle cx="1.95" cy="-0.9486" fill="#C11A00" r="0.05"/>
<circle cx="1.8973" cy="-1.434" fill="#C11A00" r="0.05"/>
<circle cx="-0.15" cy="1.6495" fill="#FFBE0E" r="0.05"/>
<circle cx="-1.3146" cy="3.5192" fill="#00A0DF" r="0.05"/>
<circle cx="-0.8427" cy="1.3642" fill="#FFBE0E" r="0.05"/>
<circle cx="0.0927" cy="0.0652" fill="#C11A00" r="0.05"/>
<circle cx="-0.9" cy="2.9486" fill="#00A0DF" r="0.05"/>
<circle cx="1.2573" cy="0.5268" fill="#0433FF" r="0.05"/>
<circle cx="1.6794" cy="-0.7631" fill="#0433FF" r="0.05"/>
<circle cx="0.9" cy="0.3505" fill="#0433FF" r="0.05"/>
<circle cx="-1.2354" cy="1.2968" fill="#FFBE0E" r="0.05"/>
<circle cx="-0.9294" cy="3.134" fill="#00A0DF" r="0.05"/>
<circle cx="-1.5" cy="3.5486" fill="#00A0DF" r="0.05"/>
<circle cx="-0.2427" cy="0.1741" fill="#C11A00" r="0.05"/>
<circle cx="0.3" cy="0.3505" fill="#0433FF" r="0.05"/>
<circle cx="-1.0146" cy="2.5959" fill="#00A0DF" r="0.05"/>
<circle cx="2.0706" cy="0.5359" fill="#0433FF" r="0.05"/>
<circle cx="-0.9927" cy="1.8259" fill="#FFBE0E" r="0.05"/>
<circle cx="-0.3973" cy="1.1641" fill="#FFBE0E" r="0.05"/>
<circle cx="2.4927" cy="-0.7722" fill="#C11A00" r="0.05"/>
<circle cx="2.85" cy="-0.9486" fill="#C11A00" r="0.05"/>
<circle cx="0" cy="0.3505" fill="#0433FF" r="0.05"/>
<circle cx="1.65" cy="-0.9486" fill="#C11A00" r="0.05"/>
<circle cx="0.3527" cy="-0.1349" fill="#C11A00" r="0.05"/>
<circle cx="-2.8206" cy="1.8349" fill="#37BB00" r="0.05"/>
<circle cx="2.3427" cy="-1.2339" fill="#C11A00" r="0.05"/>
<circle cx="-1.6854" cy="2.3779" fill="#00A0DF" r="0.05"/>
<circle cx="-2.25" cy="1.6495" fill="#37BB00" r="0.05"/>
<circle cx="2.1573" cy="-0.6632" fill="#C11A00" r="0.05"/>
<circle cx="-0.1854" cy="0.9211" fill="#FFBE0E" r="0.05"/>
<circle cx="1.9854" cy="0.7032" fill="#0433FF" r="0.05"/>
<circle cx="2.6027" cy="-0.4631" fill="#C11A00" r="0.05"/>
<circle cx="1.3146" cy="-0.2202" fill="#C11A00" r="0.05"/>
<circle cx="-2.8206" cy="1.4641" fill="#37BB00" r="0.05"/>
<circle cx="2.0073" cy="-0.7722" fill="#C11A00" r="0.05"/>
<circle cx="-1.35" cy="1.6495" fill="#37BB00" r="0.05"/>
<circle cx="2.25" cy="-0.3486" fill="#C11A00" r="0.05"/>
<circle cx="0.1854" cy="0.9211" fill="#C11A00" r="0.05"/>
<circle cx="1.6854" cy="-0.2202" fill="#0433FF" r="0.05"/>
<circle cx="-0.0927" cy="0.0652" fill="#C11A00" r="0.05"/>
<circle cx="1.5" cy="0.3505" fill="#0433FF" r="0.05"/>
<circle cx="1.8527" cy="-0.1349" fill="#0433FF" r="0.05"/>
<circle cx="-1.5" cy="2.9486" fill="#00A0DF" r="0.05"/>
<circle cx="-0.4854" cy="0.7032" fill="#0433FF" r="0.05"/>
<circle cx="1.2" cy="0.3505" fill="#0433FF" r="0.05"/>
<circle cx="2.1573" cy="-1.2339" fill="#C11A00" r="0.05"/>
<circle cx="1.6794" cy="-1.134" fill="#C11A00" r="0.05"/>
<circle cx="1.5927" cy="0.0652" fill="#0433FF" r="0.05"/>
<circle cx="2.3427" cy="-0.6632" fill="#C11A00" r="0.05"/>
<circle cx="-2.3427" cy="1.9348" fill="#37BB00" r="0.05"/>
<circle cx="-1.95" cy="1.6495" fill="#37BB00" r="0.05"/>
<circle cx="-0.6573" cy="1.3642" fill="#FFBE0E" r="0.05"/>
<circle cx="0.0927" cy="0.6358" fill="#0433FF" r="0.05"/>
<circle cx="-0.4854" cy="-0.0022" fill="#C11A00" r="0.05"/>
<circle cx="-0.2427" cy="0.5268" fill="#0433FF" r="0.05"/>
</g>
<g fill="#0433FF">
<line stroke="#0433FF" stroke-width="0.01" x1="0.85" x2="0.975" y1="0.35048094" y2="0.35048094"/>
<line stroke="#0433FF" stroke-width="0.01" x1="0.975" x2="1.2" y1="0.35048094" y2="0.3505"/>
<polygon points="1 0.35048306 0.9625018 0.32882926 0.9624982 0.3721305" stroke="black" stroke-width="0.005"/>
<text class="fleet" text-anchor="middle" x="0.975" y="0.36298093">
1
</text>
<line stroke="#0433FF" stroke-width="0.01" x1="-0.01585094" x2="0" y1="0.35563123" y2="0.35048094"/>
<polygon points="0.02377641 0.34275553 -0.018578632 0.3337527 -0.0051977825 0.37493464" stroke="black" stroke-width="0.005"/>
<text class="fleet" text-anchor="middle" x="0" y="0.36298093">
891
</text>
<line stroke="#0433FF" stroke-width="0.01" x1="-0.2427051" x2="-0.25667205" y1="0.52681655" y2="0.5660725"/>
<line stroke="#0433FF" stroke-width="0.01" x1="-0.25667205" x2="-0.3527" y1="0.5660725" y2="0.8359"/>
<polygon points="-0.26505423 0.5896254 -0.23208356 0.5615552 -0.2728784 0.5470369" stroke="black" stroke-width="0.005"/>
<text class="fleet" text-anchor="middle" x="-0.25667205" y="0.5785725">
317
</text>
<line stroke="#0433FF" stroke-width="0.01" x1="1.5515028" x2="1.5643785" y1="0.50899035" y2="0.5486177"/>
<line stroke="#0433FF" stroke-width="0.01" x1="1.5643785" x2="1.5927" y1="0.5486177" y2="0.6358"/>
<polygon points="1.5721025 0.5723946 1.5811079 0.5300401 1.5399251 0.54341847" stroke="black" stroke-width="0.005"/>
<text class="fleet" text-anchor="middle" x="1.5643785" y="0.5611177">
1
</text>
<line stroke="#0433FF" stroke-width="0.01" x1="1.5" x2="1.4871243" y1="0.35048094" y2="0.3108536"/>
<line stroke="#0433FF" stroke-width="0.01" x1="1.4871243" x2="1.4073" y1="0.3108536" y2="0.0652"/>
<polygon points="1.4793984 0.28707737 1.4703965 0.32943264 1.5115781 0.3160508" stroke="black" stroke-width="0.005"/>
<text class="fleet" text-anchor="middle" x="1.4871243" y="0.3233536">
1
</text>
<line stroke="#0433FF" stroke-width="0.01" x1="-0.4854102" x2="-0.44434318" y1="0.7031521" y2="0.6961086"/>
<line stroke="#0433FF" stroke-width="0.01" x1="-0.44434318" x2="-0.0927" y1="0.6961086" y2="0.6358"/>
<polygon points="-0.41970295 0.69188267 -0.46032307 0.67688245 -0.45300353 0.7195606" stroke="black" stroke-width="0.005"/>
<text class="fleet" text-anchor="middle" x="-0.44434318" y="0.70860857">
1
</text>
<line stroke="#0433FF" stroke-width="0.01" x1="1.075" x2="0.95" y1="0.35048094" y2="0.35048094"/>
<line stroke="#0433FF" stroke-width="0.01" x1="0.95" x2="0.6" y1="0.35048094" y2="0.3505"/>
<polygon points="0.925 0.3504823 0.96250117 0.3721309 0.9624988 0.32882962" stroke="black" stroke-width="0.005"/>
<text class="fleet" text-anchor="middle" x="0.95" y="0.36298093">
115
</text>
<line stroke="#0433FF" stroke-width="0.01" x1="-0.07396157" x2="-0.0927051" y1="0.6357979" y2="0.6357979"/>
<polygon points="-0.1177051 0.6357979 -0.0802051 0.65744853 -0.080205105 0.6141473" stroke="black" stroke-width="0.005"/>
<text class="fleet" text-anchor="middle" x="-0.0927051" y="0.6482979">
102
</text>
<line stroke="#0433FF" stroke-width="0.01" x1="1.125" x2="1.0833334" y1="0.35048094" y2="0.35048094"/>
<line stroke="#0433FF" stroke-width="0.01" x1="1.0833334" x2="0.9" y1="0.35048094" y2="0.3505"/>
<polygon points="1.0583334 0.35048354 1.0958357 0.37213027 1.0958312 0.32882902" stroke="black" stroke-width="0.005"/>
<text class="fleet" text-anchor="middle" x="1.0833334" y="0.36298093">
113
</text>
</g>
<g fill="#FFBE0E">
<line stroke="#FFBE0E" stroke-width="0.01" x1="-0.8979231" x2="-0.9354102" y1="2.2201529" y2="2.2201529"/>
<polygon points="-0.9604102 2.2201529 -0.9229102 2.2418034 -0.9229102 2.1985023" stroke="black" stroke-width="0.005"/>
<text class="fleet" text-anchor="middle" x="-0.9354102" y="2.232653">
1
</text>
<line stroke="#FFBE0E" stroke-width="0.01" x1="-0.49220154" x2="-0.45918286" y1="1.2371314" y2="1.2117172"/>
<line stroke="#FFBE0E" stroke-width="0.01" x1="-0.45918286" x2="-0.3973" y1="1.2117172" y2="1.1641"/>
<polygon points="-0.4393696 1.1964715 -0.48229274 1.2021813 -0.45588624 1.236499" stroke="black" stroke-width="0.005"/>
<text class="fleet" text-anchor="middle" x="-0.45918286" y="1.2242173">
250
</text>
<line stroke="#FFBE0E" stroke-width="0.01" x1="-1.2245029" x2="-1.2354102" y1="1.9814433" y2="2.00219"/>
<polygon points="-1.2470437 2.0243185 -1.2104298 2.001201 -1.2487571 1.981051" stroke="black" stroke-width="0.005"/>
<text class="fleet" text-anchor="middle" x="-1.2354102" y="2.0146902">
1
</text>
<line stroke="#FFBE0E" stroke-width="0.01" x1="-1.2906153" x2="-1.3206339" y1="1.4846745" y2="1.4641088"/>
<polygon points="-1.341258 1.4499793 -1.3225584 1.4890347 -1.2980852 1.4533125" stroke="black" stroke-width="0.005"/>
<text class="fleet" text-anchor="middle" x="-1.3206339" y="1.4766089">
26
</text>
<line stroke="#FFBE0E" stroke-width="0.01" x1="-0.59291637" x2="-0.58004063" y1="1.1660653" y2="1.126438"/>
<line stroke="#FFBE0E" stroke-width="0.01" x1="-0.58004063" x2="-0.5646" y1="1.126438" y2="1.0789"/>
<polygon points="-0.57231766 1.1026608 -0.6044938 1.1316383 -0.56331044 1.1450149" stroke="black" stroke-width="0.005"/>
<text class="fleet" text-anchor="middle" x="-0.58004063" y="1.1389381">
246
</text>
<line stroke="#FFBE0E" stroke-width="0.01" x1="-1.0995877" x2="-1.1026711" y1="1.1636205" y2="1.1641089"/>
<polygon points="-1.1273633 1.1680199 -1.086938 1.1835374 -1.0937122 1.1407692" stroke="black" stroke-width="0.005"/>
<text class="fleet" text-anchor="middle" x="-1.1026711" y="1.1766089">
1
</text>
<line stroke="#FFBE0E" stroke-width="0.01" x1="-0.9859633" x2="-0.9927051" y1="1.4780817" y2="1.4731835"/>
<polygon points="-1.0129306 1.458489 -0.99531823 1.4980465 -0.9698665 1.4630151" stroke="black" stroke-width="0.005"/>
<text class="fleet" text-anchor="middle" x="-0.9927051" y="1.4856836">
1
</text>
<line stroke="#FFBE0E" stroke-width="0.01" x1="-0.9927051" x2="-0.9927051" y1="1.6815168" y2="1.7231835"/>
<line stroke="#FFBE0E" stroke-width="0.01" x1="-0.9927051" x2="-0.9927" y1="1.7231835" y2="1.8259"/>
<line stroke="#FFBE0E" stroke-width="0.01" x1="-0.9927" x2="-1.05" y1="1.8259" y2="1.6495"/>
<line stroke="#FFBE0E" stroke-width="0.01" x1="-1.05" x2="-0.9927" y1="1.6495" y2="1.4732"/>
<polygon points="-0.99270386 1.7481835 -0.9710551 1.7106824 -1.0143564 1.7106847" stroke="black" stroke-width="0.005"/>
<text class="fleet" text-anchor="middle" x="-0.9927051" y="1.7356836">
207
</text>
<line stroke="#FFBE0E" stroke-width="0.01" x1="-0.1793661" x2="-0.19828236" y1="1.8349292" y2="1.8720546"/>
<line stroke="#FFBE0E" stroke-width="0.01" x1="-0.19828236" x2="-0.2646" y1="1.8720546" y2="2.0022"/>
<line stroke="#FFBE0E" stroke-width="0.01" x1="-0.2646" x2="-0.3973" y1="2.0022" y2="2.1349"/>
<line stroke="#FFBE0E" stroke-width="0.01" x1="-0.3973" x2="-0.5646" y1="2.1349" y2="2.2202"/>
<line stroke="#FFBE0E" stroke-width="0.01" x1="-0.5646" x2="-0.1794" y1="2.2202" y2="1.8349"/>
<polygon points="-0.20963284 1.8943294 -0.17331658 1.870747 -0.21189767 1.8510873" stroke="black" stroke-width="0.005"/>
<text class="fleet" text-anchor="middle" x="-0.19828236" y="1.8845546">
12
</text>
<line stroke="#FFBE0E" stroke-width="0.01" x1="-0.45" x2="-0.47449106" y1="1.6495191" y2="1.6832281"/>
<line stroke="#FFBE0E" stroke-width="0.01" x1="-0.47449106" x2="-0.6573" y1="1.6832281" y2="1.9348"/>
<line stroke="#FFBE0E" stroke-width="0.01" x1="-0.6573" x2="-0.5073" y1="1.9348" y2="1.8259"/>
<line stroke="#FFBE0E" stroke-width="0.01" x1="-0.5073" x2="-0.45" y1="1.8259" y2="1.6495"/>
<polygon points="-0.48918733 1.7034523 -0.44962823 1.6858433 -0.48465762 1.6603887" stroke="black" stroke-width="0.005"/>
<text class="fleet" text-anchor="middle" x="-0.47449106" y="1.6957282">
15
</text>
<line stroke="#FFBE0E" stroke-width="0.01" x1="-0.20417006" x2="-0.1854102" y1="0.91155624" y2="0.92111486"/>
<line stroke="#FFBE0E" stroke-width="0.01" x1="-0.1854102" x2="-0.2646" y1="0.92111486" y2="1.2968"/>
<polygon points="-0.19056658 0.9455773 -0.1616469 0.9133492 -0.20401712 0.9044181" stroke="black" stroke-width="0.005"/>
<text class="fleet" text-anchor="middle" x="-0.1854102" y="0.93361485">
1
</text>
<line stroke="#FFBE0E" stroke-width="0.01" x1="-0.53483963" x2="-0.5103486" y1="1.7662908" y2="1.7325817"/>
<line stroke="#FFBE0E" stroke-width="0.01" x1="-0.5103486" x2="-0.45" y1="1.7325817" y2="1.6495"/>
<line stroke="#FFBE0E" stroke-width="0.01" x1="-0.45" x2="-0.2646" y1="1.6495" y2="1.2968"/>
<polygon points="-0.4956562 1.7123547 -0.5352119 1.7299712 -0.50017774 1.7554193" stroke="black" stroke-width="0.005"/>
<text class="fleet" text-anchor="middle" x="-0.5103486" y="1.7450818">
168
</text>
<line stroke="#FFBE0E" stroke-width="0.01" x1="-0.52245873" x2="-0.5072949" y1="1.4621663" y2="1.4731835"/>
<line stroke="#FFBE0E" stroke-width="0.01" x1="-0.5072949" x2="-0.6573" y1="1.4731835" y2="1.3642"/>
<line stroke="#FFBE0E" stroke-width="0.01" x1="-0.6573" x2="-0.8427" y1="1.3642" y2="1.3642"/>
<line stroke="#FFBE0E" stroke-width="0.01" x1="-0.8427" x2="-0.6573" y1="1.3642" y2="1.3642"/>
<line stroke="#FFBE0E" stroke-width="0.01" x1="-0.6573" x2="-0.5073" y1="1.3642" y2="1.4732"/>
<polygon points="-0.5275204 1.4584891 -0.50990796 1.4980466 -0.48445633 1.463015" stroke="black" stroke-width="0.005"/>
<text class="fleet" text-anchor="middle" x="-0.5072949" y="1.4856836">
8
</text>
<line stroke="#FFBE0E" stroke-width="0.01" x1="-0.7583333" x2="-0.75" y1="1.6495191" y2="1.6495191"/>
<polygon points="-0.725 1.6495191 -0.7625 1.6278684 -0.7625 1.6711698" stroke="black" stroke-width="0.005"/>
<text class="fleet" text-anchor="middle" x="-0.75" y="1.6620191">
374
</text>
<line stroke="#FFBE0E" stroke-width="0.01" x1="-0.35800663" x2="-0.35267115" y1="0.875105" y2="0.8358911"/>
<line stroke="#FFBE0E" stroke-width="0.01" x1="-0.35267115" x2="-0.3973" y1="0.8358911" y2="1.1641"/>
<polygon points="-0.35603958 0.8606632 -0.32953373 0.8264223 -0.37244016 0.820588" stroke="black" stroke-width="0.005"/>
<text class="fleet" text-anchor="middle" x="-0.35267115" y="0.8483911">
1
</text>
<line stroke="#FFBE0E" stroke-width="0.01" x1="-0.88145477" x2="-0.8477458" y1="1.5270638" y2="1.5025728"/>
<line stroke="#FFBE0E" stroke-width="0.01" x1="-0.8477458" x2="-0.6573" y1="1.5025728" y2="1.3642"/>
<line stroke="#FFBE0E" stroke-width="0.01" x1="-0.6573" x2="-0.5646" y1="1.3642" y2="1.0789"/>
<polygon points="-0.82752067 1.4878777 -0.8705846 1.4924048 -0.84513205 1.5274358" stroke="black" stroke-width="0.005"/>
<text class="fleet" text-anchor="middle" x="-0.8477458" y="1.5150728">
355
</text>
<line stroke="#FFBE0E" stroke-width="0.01" x1="-0.35800663" x2="-0.35267115" y1="0.875105" y2="0.8358911"/>
<line stroke="#FFBE0E" stroke-width="0.01" x1="-0.35267115" x2="-0.5646" y1="0.8358911" y2="1.0789"/>
<polygon points="-0.36910284 0.8547326 -0.32813814 0.8407007 -0.3607725 0.8122402" stroke="black" stroke-width="0.005"/>
<text class="fleet" text-anchor="middle" x="-0.35267115" y="0.8483911">
1
</text>
</g>
<g fill="#00A0DF">
<line stroke="#00A0DF" stroke-width="0.01" x1="-0.5015028" x2="-0.5072949" y1="1.4910096" y2="1.4731835"/>
<polygon points="-0.5150204 1.4494071 -0.5240231 1.4917622 -0.4828412 1.4783813" stroke="black" stroke-width="0.005"/>
<text class="fleet" text-anchor="middle" x="-0.5072949" y="1.4856836">
759
</text>
<line stroke="#00A0DF" stroke-width="0.01" x1="-1.4871243" x2="-1.4742485" y1="2.9881845" y2="3.0278118"/>
<line stroke="#00A0DF" stroke-width="0.01" x1="-1.4742485" x2="-1.4073" y1="3.0278118" y2="3.2339"/>
<polygon points="-1.4665245 3.0515885 -1.4575192 3.0092342 -1.4987019 3.0226126" stroke="black" stroke-width="0.005"/>
<text class="fleet" text-anchor="middle" x="-1.4742485" y="3.0403118">
1
</text>
<line stroke="#00A0DF" stroke-width="0.01" x1="-1.1159129" x2="-1.1026711" y1="2.1578944" y2="2.1349292"/>
<polygon points="-1.0901833 2.1132715 -1.1276711 2.1349432 -1.0901589 2.1565728" stroke="black" stroke-width="0.005"/>
<text class="fleet" text-anchor="middle" x="-1.1026711" y="2.1474292">
486
</text>
<line stroke="#00A0DF" stroke-width="0.01" x1="-1.2186677" x2="-1.2057921" y1="3.0060108" y2="2.9663832"/>
<line stroke="#00A0DF" stroke-width="0.01" x1="-1.2057921" x2="-1.2" y1="2.9663832" y2="2.9486"/>
<polygon points="-1.1980498 2.9426122 -1.2302494 2.9715638 -1.1890769 2.9849737" stroke="black" stroke-width="0.005"/>
<text class="fleet" text-anchor="middle" x="-1.2057921" y="2.9788833">
16
</text>
<line stroke="#00A0DF" stroke-width="0.01" x1="-1.4906282" x2="-1.5322949" y1="2.6632402" y2="2.6632402"/>
<line stroke="#00A0DF" stroke-width="0.01" x1="-1.5322949" x2="-1.5927" y1="2.6632402" y2="2.6632"/>
<polygon points="-1.5572948 2.6632235 -1.5198094 2.684899 -1.5197804 2.641598" stroke="black" stroke-width="0.005"/>
<text class="fleet" text-anchor="middle" x="-1.5322949" y="2.6757402">
1
</text>
<line stroke="#00A0DF" stroke-width="0.01" x1="-1.641578" x2="-1.6078689" y1="2.8456948" y2="2.8701859"/>
<line stroke="#00A0DF" stroke-width="0.01" x1="-1.6078689" x2="-1.5" y1="2.8701859" y2="2.9486"/>
<polygon points="-1.5876473 2.8848858 -1.6052493 2.8453236 -1.6307102 2.8803484" stroke="black" stroke-width="0.005"/>
<text class="fleet" text-anchor="middle" x="-1.6078689" y="2.882686">
26
</text>
</g>
<g fill="#C11A00">
<line stroke="#C11A00" stroke-width="0.01" x1="2.007295" x2="2.007295" y1="-0.77222157" y2="-0.77222157"/>
<line stroke="#C11A00" stroke-width="0.01" x1="2.007295" x2="2.1573" y1="-0.77222157" y2="-0.6632"/>
<line stroke="#C11A00" stroke-width="0.01" x1="2.1573" x2="2.0073" y1="-0.6632" y2="-0.7722"/>
<polygon points="2.027518 -0.7575237 2.009912 -0.7970842 1.9844546 -0.76205677" stroke="black" stroke-width="0.005"/>
<text class="fleet" text-anchor="middle" x="2.007295" y="-0.7597216">
1
</text>
<line stroke="#C11A00" stroke-width="0.01" x1="-0.07396157" x2="-0.0927051" y1="0.06516399" y2="0.06516399"/>
<line stroke="#C11A00" stroke-width="0.01" x1="-0.0927051" x2="-0.2427" y1="0.06516399" y2="0.1741"/>
<line stroke="#C11A00" stroke-width="0.01" x1="-0.2427" x2="-0.2427" y1="0.1741" y2="0.5268"/>
<polygon points="-0.112933196 0.07985495 -0.06986831 0.07533655 -0.0953138 0.04030047" stroke="black" stroke-width="0.005"/>
<text class="fleet" text-anchor="middle" x="-0.0927051" y="0.077663995">
453
</text>
<line stroke="#C11A00" stroke-width="0.01" x1="-0.29420793" x2="-0.3" y1="0.3683071" y2="0.35048094"/>
<polygon points="-0.30772546 0.32670453 -0.31672826 0.36905956 -0.2755463 0.35567874" stroke="black" stroke-width="0.005"/>
<text class="fleet" text-anchor="middle" x="-0.3" y="0.36298093">
160
</text>
<line stroke="#C11A00" stroke-width="0.01" x1="2.0477457" x2="2.007295" y1="-0.8016108" y2="-0.77222157"/>
<line stroke="#C11A00" stroke-width="0.01" x1="2.007295" x2="2.25" y1="-0.77222157" y2="-0.9486"/>
<line stroke="#C11A00" stroke-width="0.01" x1="2.25" x2="2.0073" y1="-0.9486" y2="-0.7722"/>
<polygon points="2.0275185 -0.7869185 1.9844551 -0.7823873 2.009911 -0.7473588" stroke="black" stroke-width="0.005"/>
<text class="fleet" text-anchor="middle" x="2.007295" y="-0.7597216">
1
</text>
<line stroke="#C11A00" stroke-width="0.01" x1="-0.03383204" x2="-0.02205743" y1="0.8356397" y2="0.875608"/>
<line stroke="#C11A00" stroke-width="0.01" x1="-0.02205743" x2="0" y1="0.875608" y2="0.9505"/>
<polygon points="-0.0149943195 0.89958954 -0.004820399 0.85750043 -0.04635758 0.8697341" stroke="black" stroke-width="0.005"/>
<text class="fleet" text-anchor="middle" x="-0.02205743" y="0.888108">
56
</text>
<line stroke="#C11A00" stroke-width="0.01" x1="0.4559474" x2="0.42648464" y1="0.7326149" y2="0.7620777"/>
<line stroke="#C11A00" stroke-width="0.01" x1="0.42648464" x2="0.3527" y1="0.7620777" y2="0.8359"/>
<polygon points="0.40881148 0.7797599 0.45063445 0.768542 0.420008 0.7379312" stroke="black" stroke-width="0.005"/>
<text class="fleet" text-anchor="middle" x="0.42648464" y="0.7745777">
76
</text>
<line stroke="#C11A00" stroke-width="0.01" x1="0" x2="-0.01287571" y1="0.35048094" y2="0.3901083"/>
<line stroke="#C11A00" stroke-width="0.01" x1="-0.01287571" x2="-0.1854" y1="0.3901083" y2="0.9211"/>
<polygon points="-0.020600917 0.41388476 0.011577932 0.38491026 -0.029604154 0.37152982" stroke="black" stroke-width="0.005"/>
<text class="fleet" text-anchor="middle" x="-0.01287571" y="0.40260828">
215
</text>
<line stroke="#C11A00" stroke-width="0.01" x1="1.5772543" x2="1.5927051" y1="0.11271682" y2="0.06516399"/>
<line stroke="#C11A00" stroke-width="0.01" x1="1.5927051" x2="2.0073" y1="0.06516399" y2="-0.7722"/>
<line stroke="#C11A00" stroke-width="0.01" x1="2.0073" x2="2.25" y1="-0.7722" y2="-0.9486"/>
<line stroke="#C11A00" stroke-width="0.01" x1="2.25" x2="2.0073" y1="-0.9486" y2="-0.7722"/>
<line stroke="#C11A00" stroke-width="0.01" x1="2.0073" x2="1.5927" y1="-0.7722" y2="0.0652"/>
<line stroke="#C11A00" stroke-width="0.01" x1="1.5927" x2="1.2" y1="0.0652" y2="0.3505"/>
<line stroke="#C11A00" stroke-width="0.01" x1="1.2" x2="0.6" y1="0.3505" y2="0.3505"/>
<line stroke="#C11A00" stroke-width="0.01" x1="0.6" x2="0" y1="0.3505" y2="0.3505"/>
<line stroke="#C11A00" stroke-width="0.01" x1="0" x2="-0.3" y1="0.3505" y2="0.3505"/>
<line stroke="#C11A00" stroke-width="0.01" x1="-0.3" x2="0" y1="0.3505" y2="0.3505"/>
<line stroke="#C11A00" stroke-width="0.01" x1="0" x2="0.6" y1="0.3505" y2="0.3505"/>
<line stroke="#C11A00" stroke-width="0.01" x1="0.6" x2="1.2" y1="0.3505" y2="0.3505"/>
<line stroke="#C11A00" stroke-width="0.01" x1="1.2" x2="1.5" y1="0.3505" y2="0.3505"/>
<line stroke="#C11A00" stroke-width="0.01" x1="1.5" x2="1.5" y1="0.3505" y2="0.3505"/>
<line stroke="#C11A00" stroke-width="0.01" x1="1.5" x2="1.5927" y1="0.3505" y2="0.0652"/>
<polygon points="1.6037979 0.04275974 1.567756 0.066759504 1.6065614 0.085972734" stroke="black" stroke-width="0.005"/>
<text class="fleet" text-anchor="middle" x="1.5927051" y="0.077663995">
1
</text>
<line stroke="#C11A00" stroke-width="0.01" x1="0.6" x2="0.475" y1="0.35048094" y2="0.35048094"/>
<line stroke="#C11A00" stroke-width="0.01" x1="0.475" x2="0" y1="0.35048094" y2="0.3505"/>
<line stroke="#C11A00" stroke-width="0.01" x1="0" x2="-0.3" y1="0.3505" y2="0.3505"/>
<line stroke="#C11A00" stroke-width="0.01" x1="-0.3" x2="0" y1="0.3505" y2="0.3505"/>
<line stroke="#C11A00" stroke-width="0.01" x1="0" x2="0.6" y1="0.3505" y2="0.3505"/>
<line stroke="#C11A00" stroke-width="0.01" x1="0.6" x2="1.2" y1="0.3505" y2="0.3505"/>
<line stroke="#C11A00" stroke-width="0.01" x1="1.2" x2="1.5927" y1="0.3505" y2="0.0652"/>
<line stroke="#C11A00" stroke-width="0.01" x1="1.5927" x2="2.0073" y1="0.0652" y2="-0.7722"/>
<line stroke="#C11A00" stroke-width="0.01" x1="2.0073" x2="1.5927" y1="-0.7722" y2="0.0652"/>
<line stroke="#C11A00" stroke-width="0.01" x1="1.5927" x2="1.2" y1="0.0652" y2="0.3505"/>
<line stroke="#C11A00" stroke-width="0.01" x1="1.2" x2="0.6" y1="0.3505" y2="0.3505"/>
<polygon points="0.45 0.35048196 0.48750088 0.37213108 0.48749912 0.3288298" stroke="black" stroke-width="0.005"/>
<text class="fleet" text-anchor="middle" x="0.475" y="0.36298093">
261
</text>
<line stroke="#C11A00" stroke-width="0.01" x1="1.5087211" x2="1.4767376" y1="-0.38224533" y2="-0.35554025"/>
<line stroke="#C11A00" stroke-width="0.01" x1="1.4767376" x2="1.3146" y1="-0.35554025" y2="-0.2202"/>
<line stroke="#C11A00" stroke-width="0.01" x1="1.3146" x2="1.2" y1="-0.2202" y2="0.3505"/>
<line stroke="#C11A00" stroke-width="0.01" x1="1.2" x2="0.6" y1="0.3505" y2="0.3505"/>
<line stroke="#C11A00" stroke-width="0.01" x1="0.6" x2="0" y1="0.3505" y2="0.3505"/>
<line stroke="#C11A00" stroke-width="0.01" x1="0" x2="0.0927" y1="0.3505" y2="0.6358"/>
<polygon points="1.4575453 -0.3395199 1.5002079 -0.34692934 1.4724598 -0.38017154" stroke="black" stroke-width="0.005"/>
<text class="fleet" text-anchor="middle" x="1.4767376" y="-0.34304026">
94
</text>
<line stroke="#C11A00" stroke-width="0.01" x1="-0.40067485" x2="-0.39415675" y1="0.53280765" y2="0.5739613"/>
<line stroke="#C11A00" stroke-width="0.01" x1="-0.39415675" x2="-0.3527" y1="0.5739613" y2="0.8359"/>
<polygon points="-0.3902487 0.598654 -0.37472633 0.5582305 -0.41749525 0.5649995" stroke="black" stroke-width="0.005"/>
<text class="fleet" text-anchor="middle" x="-0.39415675" y="0.5864613">
150
</text>
<line stroke="#C11A00" stroke-width="0.01" x1="1.518026" x2="1.5051503" y1="0.29500264" y2="0.33463"/>
<line stroke="#C11A00" stroke-width="0.01" x1="1.5051503" x2="1.5" y1="0.33463" y2="0.3505"/>
<line stroke="#C11A00" stroke-width="0.01" x1="1.5" x2="1.2" y1="0.3505" y2="0.3505"/>
<line stroke="#C11A00" stroke-width="0.01" x1="1.2" x2="0.6" y1="0.3505" y2="0.3505"/>
<line stroke="#C11A00" stroke-width="0.01" x1="0.6" x2="0" y1="0.3505" y2="0.3505"/>
<line stroke="#C11A00" stroke-width="0.01" x1="0" x2="-0.3" y1="0.3505" y2="0.3505"/>
<line stroke="#C11A00" stroke-width="0.01" x1="-0.3" x2="0" y1="0.3505" y2="0.3505"/>
<line stroke="#C11A00" stroke-width="0.01" x1="0" x2="0.6" y1="0.3505" y2="0.3505"/>
<line stroke="#C11A00" stroke-width="0.01" x1="0.6" x2="1.2" y1="0.3505" y2="0.3505"/>
<line stroke="#C11A00" stroke-width="0.01" x1="1.2" x2="1.5927" y1="0.3505" y2="0.0652"/>
<line stroke="#C11A00" stroke-width="0.01" x1="1.5927" x2="2.0073" y1="0.0652" y2="-0.7722"/>
<line stroke="#C11A00" stroke-width="0.01" x1="2.0073" x2="1.5927" y1="-0.7722" y2="0.0652"/>
<line stroke="#C11A00" stroke-width="0.01" x1="1.5927" x2="1.5" y1="0.0652" y2="0.3505"/>
<polygon points="1.4974332 0.35840914 1.5296022 0.32942364 1.4884155 0.31605726" stroke="black" stroke-width="0.005"/>
<text class="fleet" text-anchor="middle" x="1.5051503" y="0.34713">
93
</text>
<line stroke="#C11A00" stroke-width="0.01" x1="-0.1416328" x2="-0.1545085" y1="0.78638184" y2="0.8260092"/>
<line stroke="#C11A00" stroke-width="0.01" x1="-0.1545085" x2="-0.1854" y1="0.8260092" y2="0.9211"/>
<polygon points="-0.16223271 0.84978604 -0.13005508 0.82081014 -0.17123772 0.80743146" stroke="black" stroke-width="0.005"/>
<text class="fleet" text-anchor="middle" x="-0.1545085" y="0.8385092">
250
</text>
<line stroke="#C11A00" stroke-width="0.01" x1="0.03565231" x2="0" y1="0.93889683" y2="0.95048094"/>
<polygon points="-0.02377642 0.95820636 0.01857861 0.9672092 0.0051978077 0.92602724" stroke="black" stroke-width="0.005"/>
<text class="fleet" text-anchor="middle" x="0" y="0.9629809">
139
</text>
<line stroke="#C11A00" stroke-width="0.01" x1="2.007295" x2="2.007295" y1="-0.77222157" y2="-0.77222157"/>
<line stroke="#C11A00" stroke-width="0.01" x1="2.007295" x2="2.0073" y1="-0.77222157" y2="-1.1249"/>
<line stroke="#C11A00" stroke-width="0.01" x1="2.0073" x2="1.95" y1="-1.1249" y2="-0.9486"/>
<line stroke="#C11A00" stroke-width="0.01" x1="1.95" x2="2.0073" y1="-0.9486" y2="-0.7722"/>
<polygon points="2.0072951 -0.79722154 1.9856441 -0.7597219 2.0289454 -0.7597213" stroke="black" stroke-width="0.005"/>
<text class="fleet" text-anchor="middle" x="2.007295" y="-0.7597216">
1
</text>
<line stroke="#C11A00" stroke-width="0.01" x1="1.7121627" x2="1.7016773" y1="-0.3942572" y2="-0.35393143"/>
<line stroke="#C11A00" stroke-width="0.01" x1="1.7016773" x2="1.5927" y1="-0.35393143" y2="0.0652"/>
<line stroke="#C11A00" stroke-width="0.01" x1="1.5927" x2="1.5" y1="0.0652" y2="0.3505"/>
<line stroke="#C11A00" stroke-width="0.01" x1="1.5" x2="1.2" y1="0.3505" y2="0.3505"/>
<line stroke="#C11A00" stroke-width="0.01" x1="1.2" x2="0.6" y1="0.3505" y2="0.3505"/>
<line stroke="#C11A00" stroke-width="0.01" x1="0.6" x2="0.5706" y1="0.3505" y2="0.5359"/>
<polygon points="1.6953863 -0.3297359 1.7257768 -0.360581 1.6838689 -0.37147737" stroke="black" stroke-width="0.005"/>
<text class="fleet" text-anchor="middle" x="1.7016773" y="-0.34143144">
126
</text>
<line stroke="#C11A00" stroke-width="0.01" x1="1.5704584" x2="1.602442" y1="-0.43379366" y2="-0.46049872"/>
<line stroke="#C11A00" stroke-width="0.01" x1="1.602442" x2="1.7646" y1="-0.46049872" y2="-0.5959"/>
<line stroke="#C11A00" stroke-width="0.01" x1="1.7646" x2="2.0073" y1="-0.5959" y2="-0.7722"/>
<polygon points="1.6216319 -0.47652215 1.5789704 -0.46910587 1.6067238 -0.4358681" stroke="black" stroke-width="0.005"/>
<text class="fleet" text-anchor="middle" x="1.602442" y="-0.44799873">
1
</text>
</g>
<g fill="#E16200"/>
<g fill="#37BB00">
<line stroke="#37BB00" stroke-width="0.01" x1="-2.3833334" x2="-2.3416667" y1="1.6495191" y2="1.6495191"/>
<line stroke="#37BB00" stroke-width="0.01" x1="-2.3416667" x2="-2.25" y1="1.6495191" y2="1.6495"/>
<polygon points="-2.3166666 1.6495138 -2.3541713 1.627871 -2.3541622 1.6711724" stroke="black" stroke-width="0.005"/>
<text class="fleet" text-anchor="middle" x="-2.3416667" y="1.6620191">
17
</text>
<line stroke="#37BB00" stroke-width="0.01" x1="-2.1151638" x2="-2.0814548" y1="1.5515548" y2="1.5270638"/>
<line stroke="#37BB00" stroke-width="0.01" x1="-2.0814548" x2="-2.0073" y1="1.5270638" y2="1.4732"/>
<polygon points="-2.0612276 1.5123715 -2.1042922 1.5168929 -2.0788443 1.5519272" stroke="black" stroke-width="0.005"/>
<text class="fleet" text-anchor="middle" x="-2.0814548" y="1.5395639">
1
</text>
<line stroke="#37BB00" stroke-width="0.01" x1="-1.0863384" x2="-1.1026711" y1="1.1519119" y2="1.1641089"/>
<polygon points="-1.122702 1.1790676 -1.0797011 1.1739768 -1.1056104 1.1392822" stroke="black" stroke-width="0.005"/>
<text class="fleet" text-anchor="middle" x="-1.1026711" y="1.1766089">
2
</text>
<line stroke="#37BB00" stroke-width="0.01" x1="-0.36755908" x2="-0.35267115" y1="0.82100326" y2="0.8358911"/>
<polygon points="-0.33499345 0.85356873 -0.34620073 0.81174296 -0.37681928 0.8423617" stroke="black" stroke-width="0.005"/>
<text class="fleet" text-anchor="middle" x="-0.35267115" y="0.8483911">
159
</text>
<line stroke="#37BB00" stroke-width="0.01" x1="-1.695217" x2="-1.6793661" y1="1.4692591" y2="1.4641088"/>
<polygon points="-1.6555897 1.4563833 -1.6979448 1.4473807 -1.6845639 1.4885626" stroke="black" stroke-width="0.005"/>
<text class="fleet" text-anchor="middle" x="-1.6793661" y="1.4766089">
1
</text>
<line stroke="#37BB00" stroke-width="0.01" x1="-1.1249022" x2="-1.1026711" y1="1.1756736" y2="1.1641089"/>
<polygon points="-1.0804926 1.1525714 -1.1237521 1.1506704 -1.1037687 1.1890848" stroke="black" stroke-width="0.005"/>
<text class="fleet" text-anchor="middle" x="-1.1026711" y="1.1766089">
1
</text>
<line stroke="#37BB00" stroke-width="0.01" x1="-1.0839113" x2="-1.1026711" y1="1.1545502" y2="1.1641089"/>
<polygon points="-1.1249462 1.1754587 -1.0817044 1.1777248 -1.1013628 1.1391431" stroke="black" stroke-width="0.005"/>
<text class="fleet" text-anchor="middle" x="-1.1026711" y="1.1766089">
671
</text>
</g>
<g class="star">
<text text-anchor="middle" x="-2.85" y="1.5745">
Azimech
</text>
<text text-anchor="middle" x="-1.1027" y="1.0891">
Pure Pax
</text>
<text text-anchor="middle" x="-1.2573" y="3.0499">
Mira
</text>
<text text-anchor="middle" x="-1.65" y="1.5745">
Biham
</text>
<text text-anchor="middle" x="-0.75" y="2.1745">
Arkab
</text>
<text text-anchor="middle" x="-1.1473" y="2.3881">
Yed
</text>
<text text-anchor="middle" x="1.6854" y="0.84610003">
Keid
</text>
<text text-anchor="middle" x="-2.4354" y="1.0038999">
AlGiedi
</text>
<text text-anchor="middle" x="-2.0706" y="3.059">
Albali
</text>
<text text-anchor="middle" x="1.5" y="0.8755">
Kit
</text>
<text text-anchor="middle" x="-2.4927" y="1.3981999">
Propus
</text>
<text text-anchor="middle" x="-0.1854" y="-0.2952">
Jason Momoa
</text>
<text text-anchor="middle" x="1.7427" y="0.4518">
Kajam
</text>
<text text-anchor="middle" x="0.1854" y="-0.2952">
Baby
</text>
<text text-anchor="middle" x="1.8527" y="0.7609">
Alwaid
</text>
<text text-anchor="middle" x="2.4354" y="-0.4529">
Mansell
</text>
<text text-anchor="middle" x="-1.2354" y="1.9271998">
Cheleb
</text>
<text text-anchor="middle" x="-1.0146" y="3.2261999">
Ick
</text>
<text text-anchor="middle" x="-2.4927" y="1.7508999">
Tic
</text>
<text text-anchor="middle" x="0" y="-0.32450002">
Ramsey
</text>
<text text-anchor="middle" x="-2.25" y="2.1745">
Garnet
</text>
<text text-anchor="middle" x="-1.9854" y="3.2261999">
SteropeII
</text>
<text text-anchor="middle" x="-2.4354" y="2.1452">
Spy
</text>
<text text-anchor="middle" x="0.6" y="0.2755">
Alzir
</text>
<text text-anchor="middle" x="1.4073" y="-0.009800002">
Mebsuta
</text>
<text text-anchor="middle" x="2.0646" y="-0.4529">
Leclerc
</text>
<text text-anchor="middle" x="-1.3146" y="2.3028998">
Proxima
</text>
<text text-anchor="middle" x="-2.0706" y="2.6880999">
Kaus
</text>
<text text-anchor="middle" x="-0.5706" y="0.4609">
Pax
</text>
<text text-anchor="middle" x="-1.9854" y="2.5209">
Arc
</text>
<text text-anchor="middle" x="0.9294" y="0.4609">
Salm
</text>
<text text-anchor="middle" x="1.7427" y="0.09909999">
Vindemiatrix
</text>
<text text-anchor="middle" x="1.9854" y="-0.0772">
Aludra
</text>
<text text-anchor="middle" x="0.2427" y="0.09909999">
Han SeoulO
</text>
<text text-anchor="middle" x="-1.4073" y="3.1589">
Haldus
</text>
<text text-anchor="middle" x="-1.8973" y="2.0599">
Asellus
</text>
<text text-anchor="middle" x="-1.6854" y="3.4442">
Dnoces
</text>
<text text-anchor="middle" x="-1.05" y="1.5745">
Sasin
</text>
<text text-anchor="middle" x="0.2427" y="0.4518">
Tegmen
</text>
<text text-anchor="middle" x="-0.5706" y="0.09009999">
Elm
</text>
<text text-anchor="middle" x="-1.2573" y="2.6972">
Talitha
</text>
<text text-anchor="middle" x="-0.5646" y="1.0038999">
Regulus
</text>
<text text-anchor="middle" x="1.5927" y="0.5608">
Alphecca
</text>
<text text-anchor="middle" x="-2.6027" y="2.0599">
Mizar
</text>
<text text-anchor="middle" x="-1.7427" y="3.0499">
Caph
</text>
<text text-anchor="middle" x="2.25" y="-1.0236">
Alonso
</text>
<text text-anchor="middle" x="1.3146" y="0.84610003">
Mimosa
</text>
<text text-anchor="middle" x="-0.6" y="0.2755">
Ale
</text>
<text text-anchor="middle" x="2.8206" y="-1.209">
Tsunoda
</text>
<text text-anchor="middle" x="-1.7427" y="2.6972">
Mud
</text>
<text text-anchor="middle" x="1.1473" y="-0.2099">
Merope
</text>
<text text-anchor="middle" x="-1.5927" y="2.5881999">
Menchib
</text>
<text text-anchor="middle" x="-0.3527" y="-0.2099">
Racer X
</text>
<text text-anchor="middle" x="-1.4073" y="2.5881999">
Neshmet
</text>
<text text-anchor="middle" x="-0.5646" y="2.1452">
TienKuan
</text>
<text text-anchor="middle" x="2.7354" y="-0.6709">
Perez
</text>
<text text-anchor="middle" x="-0.0927" y="0.5608">
Elon Memorial
</text>
<text text-anchor="middle" x="-1.6794" y="1.7599">
Wasat
</text>
<text text-anchor="middle" x="-0.1794" y="1.7599">
Sulafat
</text>
<text text-anchor="middle" x="0" y="0.8755">
Mia
</text>
<text text-anchor="middle" x="-2.7354" y="1.2218">
Tag
</text>
<text text-anchor="middle" x="-0.75" y="1.5745">
Hassaleh
</text>
<text text-anchor="middle" x="-2.25" y="0.9745">
Chi
</text>
<text text-anchor="middle" x="-1.3206" y="1.3891">
Mirzam
</text>
<text text-anchor="middle" x="2.55" y="-1.0236">
Hamilton
</text>
<text text-anchor="middle" x="-0.9927" y="1.3981999">
Altais
</text>
<text text-anchor="middle" x="-0.2646" y="1.9271998">
Wazn
</text>
<text text-anchor="middle" x="-1.8527" y="2.3881">
Tejat
</text>
<text text-anchor="middle" x="-2.1573" y="1.8598">
Algieba
</text>
<text text-anchor="middle" x="-0.2646" y="1.2218">
Lanx
</text>
<text text-anchor="middle" x="-1.5927" y="3.1589">
Mekbuda
</text>
<text text-anchor="middle" x="1.8" y="0.2755">
Enif
</text>
<text text-anchor="middle" x="0.5706" y="0.09009999">
Diesel
</text>
<text text-anchor="middle" x="-1.5" y="2.2735999">
Aldhanab
</text>
<text text-anchor="middle" x="1.5" y="-0.32450002">
Theemin
</text>
<text text-anchor="middle" x="-0.6573" y="1.8598">
Imp
</text>
<text text-anchor="middle" x="2.1" y="0.2755">
Alamak
</text>
<text text-anchor="middle" x="0.4854" y="0.6282">
Hammond
</text>
<text text-anchor="middle" x="0.4854" y="-0.0772">
Pile
</text>
<text text-anchor="middle" x="2.25" y="-1.6236">
De Vries
</text>
<text text-anchor="middle" x="1.1473" y="0.7609">
Rukh
</text>
<text text-anchor="middle" x="0.5706" y="0.4609">
Clarkson
</text>
<text text-anchor="middle" x="-0.3" y="0.2755">
Tej
</text>
<text text-anchor="middle" x="2.4927" y="-1.1999">
Stewart
</text>
<text text-anchor="middle" x="-2.0073" y="1.3981999">
Denebola
</text>
<text text-anchor="middle" x="2.7354" y="-1.3762001">
Latifi
</text>
<text text-anchor="middle" x="-2.1573" y="1.2892">
Sky
</text>
<text text-anchor="middle" x="-0.9294" y="2.6880999">
Diphda
</text>
<text text-anchor="middle" x="-0.5073" y="1.7508999">
Zit
</text>
<text text-anchor="middle" x="1.0146" y="-0.0772">
Eltanin
</text>
<text text-anchor="middle" x="-1.7646" y="1.2218">
Alkalurops
</text>
<text text-anchor="middle" x="0.9294" y="0.09009999">
RIP Paul Walker
</text>
<text text-anchor="middle" x="1.2573" y="0.09909999">
Elnath
</text>
<text text-anchor="middle" x="-0.9354" y="1.0038999">
Mac
</text>
<text text-anchor="middle" x="-1.7646" y="1.9271998">
Syrma
</text>
<text text-anchor="middle" x="-0.3973" y="2.0599">
Merak
</text>
<text text-anchor="middle" x="-1.1027" y="2.0599">
Cox
</text>
<text text-anchor="middle" x="-1.3206" y="1.7599">
Becrux
</text>
<text text-anchor="middle" x="1.7646" y="-0.6709">
Adam Driver
</text>
<text text-anchor="middle" x="-1.6794" y="1.3891">
Errai
</text>
<text text-anchor="middle" x="1.8973" y="-0.5381">
Vettel
</text>
<text text-anchor="middle" x="-1.8527" y="3.359">
Minkar
</text>
<text text-anchor="middle" x="-2.0646" y="1.0038999">
Rotanev
</text>
<text text-anchor="middle" x="-0.8427" y="1.8598">
Marfark
</text>
<text text-anchor="middle" x="2.0706" y="0.09009999">
Sadira
</text>
<text text-anchor="middle" x="-0.9354" y="2.1452">
Gatria
</text>
<text text-anchor="middle" x="-0.45" y="1.5745">
Alnasl
</text>
<text text-anchor="middle" x="-1.1473" y="3.359">
Sheliak
</text>
<text text-anchor="middle" x="-0.5073" y="1.3981999">
Murzim
</text>
<text text-anchor="middle" x="-2.1" y="2.8736">
Pug
</text>
<text text-anchor="middle" x="-2.6027" y="1.0891">
Sarin
</text>
<text text-anchor="middle" x="-0.1794" y="1.3891">
Alfecca
</text>
<text text-anchor="middle" x="-2.55" y="1.5745">
Dabih
</text>
<text text-anchor="middle" x="-2.7354" y="1.9271998">
Marfik
</text>
<text text-anchor="middle" x="2.8206" y="-0.8381">
Jolyon
</text>
<text text-anchor="middle" x="0.3527" y="0.7609">
May
</text>
<text text-anchor="middle" x="-2.3427" y="1.2892">
Schedir
</text>
<text text-anchor="middle" x="1.7646" y="-1.3762001">
Earnhardt
</text>
<text text-anchor="middle" x="-2.0073" y="1.7508999">
Sham
</text>
<text text-anchor="middle" x="2.0646" y="-1.5942">
Norris
</text>
<text text-anchor="middle" x="-1.8" y="2.8736">
Rukbat
</text>
<text text-anchor="middle" x="1.4073" y="0.5608">
Decrux
</text>
<text text-anchor="middle" x="2.4354" y="-1.5942">
Johnson
</text>
<text text-anchor="middle" x="2.6027" y="-1.5090001">
Toretto
</text>
<text text-anchor="middle" x="-0.75" y="0.9745">
Menkent
</text>
<text text-anchor="middle" x="-1.8973" y="1.0891">
Segin
</text>
<text text-anchor="middle" x="-0.3527" y="0.7609">
Polaris
</text>
<text text-anchor="middle" x="-2.0646" y="2.1452">
Tab
</text>
<text text-anchor="middle" x="2.0073" y="-1.1999">
Sainz
</text>
<text text-anchor="middle" x="1.0146" y="0.6282">
Sargas
</text>
<text text-anchor="middle" x="-1.2" y="2.8736">
Mintaka
</text>
<text text-anchor="middle" x="1.95" y="-1.0236">
Labonte
</text>
<text text-anchor="middle" x="1.8973" y="-1.5090001">
Ocon
</text>
<text text-anchor="middle" x="-0.15" y="1.5745">
Alpheratz
</text>
<text text-anchor="middle" x="-1.3146" y="3.4442">
Media
</text>
<text text-anchor="middle" x="-0.8427" y="1.2892">
Rub
</text>
<text text-anchor="middle" x="0.0927" y="-0.009800002">
Gisele
</text>
<text text-anchor="middle" x="-0.9" y="2.8736">
Sun
</text>
<text text-anchor="middle" x="1.2573" y="0.4518">
Aladfar
</text>
<text text-anchor="middle" x="1.6794" y="-0.8381">
Danica Patrick
</text>
<text text-anchor="middle" x="0.9" y="0.2755">
Ras
</text>
<text text-anchor="middle" x="-1.2354" y="1.2218">
Dschubba
</text>
<text text-anchor="middle" x="-0.9294" y="3.059">
Bam
</text>
<text text-anchor="middle" x="-1.5" y="3.4736">
Alniyat
</text>
<text text-anchor="middle" x="-0.2427" y="0.09909999">
Hobbs
</text>
<text text-anchor="middle" x="0.3" y="0.2755">
Qui
</text>
<text text-anchor="middle" x="-1.0146" y="2.5209">
Yay
</text>
<text text-anchor="middle" x="2.0706" y="0.4609">
Adhara
</text>
<text text-anchor="middle" x="-0.9927" y="1.7508999">
Asp
</text>
<text text-anchor="middle" x="-0.3973" y="1.0891">
Dux
</text>
<text text-anchor="middle" x="2.4927" y="-0.8472">
Villeneuve
</text>
<text text-anchor="middle" x="2.85" y="-1.0236">
Prost
</text>
<text text-anchor="middle" x="0" y="0.2755">
Arided
</text>
<text text-anchor="middle" x="1.65" y="-1.0236">
Earnhardt Jr Jr
</text>
<text text-anchor="middle" x="0.3527" y="-0.2099">
Roman
</text>
<text text-anchor="middle" x="-2.8206" y="1.7599">
Sabik
</text>
<text text-anchor="middle" x="2.3427" y="-1.3089">
Petty
</text>
<text text-anchor="middle" x="-1.6854" y="2.3028998">
Alcor
</text>
<text text-anchor="middle" x="-2.25" y="1.5745">
Castor
</text>
<text text-anchor="middle" x="2.1573" y="-0.7382">
Senna
</text>
<text text-anchor="middle" x="-0.1854" y="0.84610003">
TseenKee
</text>
<text text-anchor="middle" x="1.9854" y="0.6282">
Fin
</text>
<text text-anchor="middle" x="2.6027" y="-0.5381">
Ricciardo
</text>
<text text-anchor="middle" x="1.3146" y="-0.2952">
Grosjean
</text>
<text text-anchor="middle" x="-2.8206" y="1.3891">
Zoo
</text>
<text text-anchor="middle" x="2.0073" y="-0.8472">
Schumacher
</text>
<text text-anchor="middle" x="-1.35" y="1.5745">
Sadalmelik
</text>
<text text-anchor="middle" x="2.25" y="-0.42360002">
Jerry
</text>
<text text-anchor="middle" x="0.1854" y="0.84610003">
Letty Ortiz
</text>
<text text-anchor="middle" x="1.6854" y="-0.2952">
Jaw
</text>
<text text-anchor="middle" x="-0.0927" y="-0.009800002">
Shaw
</text>
<text text-anchor="middle" x="1.5" y="0.2755">
Acamar
</text>
<text text-anchor="middle" x="1.8527" y="-0.2099">
Andretti
</text>
<text text-anchor="middle" x="-1.5" y="2.8736">
Almach
</text>
<text text-anchor="middle" x="-0.4854" y="0.6282">
Misam
</text>
<text text-anchor="middle" x="1.2" y="0.2755">
Alcyone
</text>
<text text-anchor="middle" x="2.1573" y="-1.3089">
Verstappen
</text>
<text text-anchor="middle" x="1.6794" y="-1.209">
Earnhardt Jr
</text>
<text text-anchor="middle" x="1.5927" y="-0.009800002">
Alya
</text>
<text text-anchor="middle" x="2.3427" y="-0.7382">
Gordon
</text>
<text text-anchor="middle" x="-2.3427" y="1.8598">
Askella
</text>
<text text-anchor="middle" x="-1.95" y="1.5745">
Ksora
</text>
<text text-anchor="middle" x="-0.6573" y="1.2892">
Menkib
</text>
<text text-anchor="middle" x="0.0927" y="0.5608">
Tenuerit
</text>
<text text-anchor="middle" x="-0.4854" y="-0.0772">
Speed Racer
</text>
<text text-anchor="middle" x="-0.2427" y="0.4518">
Terram
</text>
</g>
</svg>