<svg viewBox="-3.4199998 -2.05832 6.84 6.11664" xmlns="http://www.w3.org/2000/svg">
<style>
.star { font: 0.05px sans-serif; fill: red; }
.fleet { font: 0.03px sans-serif; fill: white; }
</style>
<g fill="none" stroke="black" stroke-width="0.01">
<circle cx="0.3527" cy="0.8359" fill="#C11A00" r="0.05"/>
<circle cx="-1.9854" cy="2.5959" fill="#00A0DF" r="0.05"/>
<circle cx="-1.5" cy="3.5486" fill="#00A0DF" r="0.05"/>
<circle cx="-0.6" cy="0.3505" fill="#FFBE0E" r="0.05"/>
<circle cx="2.0646" cy="-1.5192" fill="#C11A00" r="0.05"/>
<circle cx="0.5706" cy="0.5359" fill="#C11A00" r="0.05"/>
<circle cx="1.7646" cy="-0.5959" fill="#C11A00" r="0.05"/>
<circle cx="2.8206" cy="-0.7631" fill="#C11A00" r="0.05"/>
<circle cx="1.5" cy="-0.2495" fill="#0433FF" r="0.05"/>
<circle cx="-0.1794" cy="1.4641" fill="#FFBE0E" r="0.05"/>
<circle cx="2.4354" cy="-1.5192" fill="#C11A00" r="0.05"/>
<circle cx="1.6794" cy="-1.134" fill="#C11A00" r="0.05"/>
<circle cx="1.4073" cy="0.0652" fill="#0433FF" r="0.05"/>
<circle cx="0.9294" cy="0.5359" fill="#0433FF" r="0.05"/>
<circle cx="-0.2427" cy="0.5268" fill="#FFBE0E" r="0.05"/>
<circle cx="-1.2573" cy="2.7722" fill="#00A0DF" r="0.05"/>
<circle cx="0.9" cy="0.3505" fill="#0433FF" r="0.05"/>
<circle cx="-0.75" cy="2.2495" fill="#FFBE0E" r="0.05"/>
<circle cx="-0.9927" cy="1.4732" fill="#FFBE0E" r="0.05"/>
<circle cx="-1.1473" cy="2.4631" fill="#00A0DF" r="0.05"/>
<circle cx="-0.8427" cy="1.3642" fill="#FFBE0E" r="0.05"/>
<circle cx="2.4354" cy="-0.3779" fill="#C11A00" r="0.05"/>
<circle cx="-0.3973" cy="2.1349" fill="#FFBE0E" r="0.05"/>
<circle cx="-1.8" cy="2.9486" fill="#00A0DF" r="0.05"/>
<circle cx="-0.5706" cy="0.1651" fill="#FFBE0E" r="0.05"/>
<circle cx="1.3146" cy="0.9211" fill="#0433FF" r="0.05"/>
<circle cx="1.7427" cy="0.1741" fill="#0433FF" r="0.05"/>
<circle cx="2.85" cy="-0.9486" fill="#C11A00" r="0.05"/>
<circle cx="2.25" cy="-1.5486" fill="#C11A00" r="0.05"/>
<circle cx="-1.05" cy="1.6495" fill="#FFBE0E" r="0.05"/>
<circle cx="1.2" cy="0.3505" fill="#0433FF" r="0.05"/>
<circle cx="2.3427" cy="-1.2339" fill="#C11A00" r="0.05"/>
<circle cx="2.6027" cy="-0.4631" fill="#C11A00" r="0.05"/>
<circle cx="-1.8527" cy="2.4631" fill="#00A0DF" r="0.05"/>
<circle cx="2.1" cy="0.3505" fill="#0433FF" r="0.05"/>
<circle cx="0.0927" cy="0.0652" fill="#C11A00" r="0.05"/>
<circle cx="-2.7354" cy="1.2968" fill="#37BB00" r="0.05"/>
<circle cx="2.1573" cy="-1.2339" fill="#C11A00" r="0.05"/>
<circle cx="-2.0706" cy="3.134" fill="#00A0DF" r="0.05"/>
<circle cx="-0.6573" cy="1.3642" fill="#FFBE0E" r="0.05"/>
<circle cx="2.0073" cy="-1.1249" fill="#C11A00" r="0.05"/>
<circle cx="1.8527" cy="0.8359" fill="#0433FF" r="0.05"/>
<circle cx="-1.6794" cy="1.4641" fill="#37BB00" r="0.05"/>
<circle cx="1.5927" cy="0.6358" fill="#0433FF" r="0.05"/>
<circle cx="-1.2354" cy="1.2968" fill="#FFBE0E" r="0.05"/>
<circle cx="1.3146" cy="-0.2202" fill="#C11A00" r="0.05"/>
<circle cx="-1.6794" cy="1.8349" fill="#37BB00" r="0.05"/>
<circle cx="-1.8973" cy="1.1641" fill="#37BB00" r="0.05"/>
<circle cx="2.4927" cy="-0.7722" fill="#C11A00" r="0.05"/>
<circle cx="-0.9354" cy="2.2202" fill="#FFBE0E" r="0.05"/>
<circle cx="-1.6854" cy="3.5192" fill="#00A0DF" r="0.05"/>
<circle cx="-0.0927" cy="0.6358" fill="#00A0DF" r="0.05"/>
<circle cx="-2.0646" cy="2.2202" fill="#37BB00" r="0.05"/>
<circle cx="-2.25" cy="1.0495" fill="#37BB00" r="0.05"/>
<circle cx="1.4073" cy="0.6358" fill="#0433FF" r="0.05"/>
<circle cx="2.7354" cy="-0.5959" fill="#C11A00" r="0.05"/>
<circle cx="1.6854" cy="-0.2202" fill="#0433FF" r="0.05"/>
<circle cx="-0.2646" cy="1.2968" fill="#FFBE0E" r="0.05"/>
<circle cx="-0.3527" cy="0.8359" fill="#FFBE0E" r="0.05"/>
<circle cx="2.0073" cy="-0.7722" fill="#C11A00" r="0.05"/>
<circle cx="0.2427" cy="0.1741" fill="#C11A00" r="0.05"/>
<circle cx="1.6794" cy="-0.7631" fill="#0433FF" r="0.05"/>
<circle cx="-0.0927" cy="0.0652" fill="#C11A00" r="0.05"/>
<circle cx="-1.0146" cy="3.3012" fill="#00A0DF" r="0.05"/>
<circle cx="1.1473" cy="-0.1349" fill="#0433FF" r="0.05"/>
<circle cx="2.7354" cy="-1.3012" fill="#C11A00" r="0.05"/>
<circle cx="2.1573" cy="-0.6632" fill="#C11A00" r="0.05"/>
<circle cx="-1.5" cy="2.9486" fill="#00A0DF" r="0.05"/>
<circle cx="-0.75" cy="1.0495" fill="#37BB00" r="0.05"/>
<circle cx="1.2573" cy="0.1741" fill="#0433FF" r="0.05"/>
<circle cx="-2.55" cy="1.6495" fill="#37BB00" r="0.05"/>
<circle cx="1.5" cy="0.9505" fill="#0433FF" r="0.05"/>
<circle cx="2.4927" cy="-1.1249" fill="#C11A00" r="0.05"/>
<circle cx="1.6854" cy="0.9211" fill="#0433FF" r="0.05"/>
<circle cx="-0.9294" cy="3.134" fill="#00A0DF" r="0.05"/>
<circle cx="0.1854" cy="0.9211" fill="#FFBE0E" r="0.05"/>
<circle cx="2.8206" cy="-1.134" fill="#C11A00" r="0.05"/>
<circle cx="-0.3" cy="0.3505" fill="#0433FF" r="0.05"/>
<circle cx="-1.0146" cy="2.5959" fill="#00A0DF" r="0.05"/>
<circle cx="-1.7427" cy="2.7722" fill="#00A0DF" r="0.05"/>
<circle cx="-0.1794" cy="1.8349" fill="#FFBE0E" r="0.05"/>
<circle cx="-0.5706" cy="0.5359" fill="#37BB00" r="0.05"/>
<circle cx="-0.3973" cy="1.1641" fill="#FFBE0E" r="0.05"/>
<circle cx="0.9294" cy="0.1651" fill="#C11A00" r="0.05"/>
<circle cx="2.0706" cy="0.5359" fill="#0433FF" r="0.05"/>
<circle cx="1.8" cy="0.3505" fill="#0433FF" r="0.05"/>
<circle cx="0" cy="-0.2495" fill="#C11A00" r="0.05"/>
<circle cx="1.1473" cy="0.8359" fill="#0433FF" r="0.05"/>
<circle cx="-0.15" cy="1.6495" fill="#FFBE0E" r="0.05"/>
<circle cx="-1.8973" cy="2.1349" fill="#37BB00" r="0.05"/>
<circle cx="1.5927" cy="0.0652" fill="#0433FF" r="0.05"/>
<circle cx="2.3427" cy="-0.6632" fill="#C11A00" r="0.05"/>
<circle cx="-2.3427" cy="1.3642" fill="#37BB00" r="0.05"/>
<circle cx="-1.3146" cy="3.5192" fill="#00A0DF" r="0.05"/>
<circle cx="-2.85" cy="1.6495" fill="#37BB00" r="0.05"/>
<circle cx="-1.5927" cy="2.6632" fill="#00A0DF" r="0.05"/>
<circle cx="0.6" cy="0.3505" fill="#0433FF" r="0.05"/>
<circle cx="2.0646" cy="-0.3779" fill="#C11A00" r="0.05"/>
<circle cx="-1.65" cy="1.6495" fill="#37BB00" r="0.05"/>
<circle cx="-2.1" cy="2.9486" fill="#00A0DF" r="0.05"/>
<circle cx="-2.6027" cy="1.1641" fill="#37BB00" r="0.05"/>
<circle cx="-1.2" cy="2.9486" fill="#00A0DF" r="0.05"/>
<circle cx="-0.4854" cy="-0.0022" fill="#C11A00" r="0.05"/>
<circle cx="-2.8206" cy="1.8349" fill="#37BB00" r="0.05"/>
<circle cx="-0.75" cy="1.6495" fill="#FFBE0E" r="0.05"/>
<circle cx="0.3527" cy="-0.1349" fill="#E16200" r="0.05"/>
<circle cx="-2.0706" cy="2.7631" fill="#00A0DF" r="0.05"/>
<circle cx="-0.5073" cy="1.4732" fill="#FFBE0E" r="0.05"/>
<circle cx="-2.0073" cy="1.8259" fill="#37BB00" r="0.05"/>
<circle cx="1.7427" cy="0.5268" fill="#0433FF" r="0.05"/>
<circle cx="-2.7354" cy="2.0022" fill="#37BB00" r="0.05"/>
<circle cx="-0.9927" cy="1.8259" fill="#FFBE0E" r="0.05"/>
<circle cx="2.6027" cy="-1.434" fill="#C11A00" r="0.05"/>
<circle cx="-2.4354" cy="2.2202" fill="#37BB00" r="0.05"/>
<circle cx="2.25" cy="-0.9486" fill="#C11A00" r="0.05"/>
<circle cx="0.3" cy="0.3505" fill="#0433FF" r="0.05"/>
<circle cx="1.2573" cy="0.5268" fill="#0433FF" r="0.05"/>
<circle cx="0.4854" cy="0.7032" fill="#C11A00" r="0.05"/>
<circle cx="-2.4927" cy="1.8259" fill="#37BB00" r="0.05"/>
<circle cx="-1.95" cy="1.6495" fill="#37BB00" r="0.05"/>
<circle cx="0.2427" cy="0.5268" fill="#0433FF" r="0.05"/>
<circle cx="-1.4073" cy="3.2339" fill="#00A0DF" r="0.05"/>
<circle cx="-1.3206" cy="1.4641" fill="#FFBE0E" r="0.05"/>
<circle cx="1.0146" cy="0.7032" fill="#FFBE0E" r="0.05"/>
<circle cx="-1.1473" cy="3.434" fill="#00A0DF" r="0.05"/>
<circle cx="-1.5927" cy="3.2339" fill="#00A0DF" r="0.05"/>
<circle cx="2.25" cy="-0.3486" fill="#C11A00" r="0.05"/>
<circle cx="0.1854" cy="-0.2202" fill="#C11A00" r="0.05"/>
<circle cx="1.65" cy="-0.9486" fill="#C11A00" r="0.05"/>
<circle cx="-2.8206" cy="1.4641" fill="#37BB00" r="0.05"/>
<circle cx="-2.4927" cy="1.4732" fill="#37BB00" r="0.05"/>
<circle cx="-1.3206" cy="1.8349" fill="#FFBE0E" r="0.05"/>
<circle cx="1.9854" cy="-0.0022" fill="#0433FF" r="0.05"/>
<circle cx="-1.3146" cy="2.3779" fill="#00A0DF" r="0.05"/>
<circle cx="1.8527" cy="-0.1349" fill="#0433FF" r="0.05"/>
<circle cx="-1.7646" cy="1.2968" fill="#37BB00" r="0.05"/>
<circle cx="-1.2354" cy="2.0022" fill="#FFBE0E" r="0.05"/>
<circle cx="-1.1027" cy="1.1641" fill="#37BB00" r="0.05"/>
<circle cx="-0.9294" cy="2.7631" fill="#00A0DF" r="0.05"/>
<circle cx="-2.1573" cy="1.9348" fill="#37BB00" r="0.05"/>
<circle cx="-1.1027" cy="2.1349" fill="#00A0DF" r="0.05"/>
<circle cx="-1.4073" cy="2.6632" fill="#00A0DF" r="0.05"/>
<circle cx="-0.8427" cy="1.9348" fill="#FFBE0E" r="0.05"/>
<circle cx="1.7646" cy="-1.3012" fill="#0433FF" r="0.05"/>
<circle cx="-0.3527" cy="-0.1349" fill="#C11A00" r="0.05"/>
<circle cx="0.5706" cy="0.1651" fill="#C11A00" r="0.05"/>
<circle cx="-0.9354" cy="1.0789" fill="#FFBE0E" r="0.05"/>
<circle cx="-0.5073" cy="1.8259" fill="#FFBE0E" r="0.05"/>
<circle cx="2.0706" cy="0.1651" fill="#0433FF" r="0.05"/>
<circle cx="-2.25" cy="2.2495" fill="#37BB00" r="0.05"/>
<circle cx="-2.1573" cy="1.3642" fill="#37BB00" r="0.05"/>
<circle cx="-2.0073" cy="1.4732" fill="#37BB00" r="0.05"/>
<circle cx="-0.5646" cy="2.2202" fill="#FFBE0E" r="0.05"/>
<circle cx="-2.25" cy="1.6495" fill="#37BB00" r="0.05"/>
<circle cx="-0.1854" cy="0.9211" fill="#FFBE0E" r="0.05"/>
<circle cx="-0.2427" cy="0.1741" fill="#C11A00" r="0.05"/>
<circle cx="2.55" cy="-0.9486" fill="#C11A00" r="0.05"/>
<circle cx="-2.0646" cy="1.0789" fill="#37BB00" r="0.05"/>
<circle cx="-1.6854" cy="2.3779" fill="#00A0DF" r="0.05"/>
<circle cx="-2.3427" cy="1.9348" fill="#37BB00" r="0.05"/>
<circle cx="-0.1854" cy="-0.2202" fill="#C11A00" r="0.05"/>
<circle cx="-0.2646" cy="2.0022" fill="#FFBE0E" r="0.05"/>
<circle cx="-1.7427" cy="3.1249" fill="#00A0DF" r="0.05"/>
<circle cx="-0.45" cy="1.6495" fill="#FFBE0E" r="0.05"/>
<circle cx="-1.7646" cy="2.0022" fill="#37BB00" r="0.05"/>
<circle cx="-2.6027" cy="2.1349" fill="#37BB00" r="0.05"/>
<circle cx="1.0146" cy="-0.0022" fill="#0433FF" r="0.05"/>
<circle cx="1.8973" cy="-0.4631" fill="#C11A00" r="0.05"/>
<circle cx="0" cy="0.9505" fill="#FFBE0E" r="0.05"/>
<circle cx="-1.9854" cy="3.3012" fill="#00A0DF" r="0.05"/>
<circle cx="1.9854" cy="0.7032" fill="#0433FF" r="0.05"/>
<circle cx="-0.9" cy="2.9486" fill="#00A0DF" r="0.05"/>
<circle cx="1.95" cy="-0.9486" fill="#C11A00" r="0.05"/>
<circle cx="-0.6573" cy="1.9348" fill="#FFBE0E" r="0.05"/>
<circle cx="-0.4854" cy="0.7032" fill="#37BB00" r="0.05"/>
<circle cx="-1.35" cy="1.6495" fill="#37BB00" r="0.05"/>
<circle cx="-1.5" cy="2.3486" fill="#00A0DF" r="0.05"/>
<circle cx="0.0927" cy="0.6358" fill="#0433FF" r="0.05"/>
<circle cx="1.5" cy="0.3505" fill="#0433FF" r="0.05"/>
<circle cx="-2.4354" cy="1.0789" fill="#37BB00" r="0.05"/>
<circle cx="-1.2573" cy="3.1249" fill="#00A0DF" r="0.05"/>
<circle cx="0.4854" cy="-0.0022" fill="#C11A00" r="0.05"/>
<circle cx="-0.5646" cy="1.0789" fill="#FFBE0E" r="0.05"/>
<circle cx="1.8973" cy="-1.434" fill="#C11A00" r="0.05"/>
<circle cx="0" cy="0.3505" fill="#0433FF" r="0.05"/>
<circle cx="-1.8527" cy="3.434" fill="#00A0DF" r="0.05"/>
</g>
<g fill="#00A0DF">
<line stroke="#00A0DF" stroke-width="0.01" x1="-1.5669537" x2="-1.554078" y1="2.7424948" y2="2.7821224"/>
<line stroke="#00A0DF" stroke-width="0.01" x1="-1.554078" x2="-1.5" y1="2.7821224" y2="2.9486"/>
<polygon points="-1.5463543 2.8058994 -1.5373483 2.763545 -1.5785313 2.7769227" stroke="black" stroke-width="0.005"/>
<text class="fleet" text-anchor="middle" x="-1.554078" y="2.7946224">
7
</text>
<line stroke="#00A0DF" stroke-width="0.01" x1="-1.5404508" x2="-1.5067418" y1="2.919168" y2="2.943659"/>
<line stroke="#00A0DF" stroke-width="0.01" x1="-1.5067418" x2="-1.5" y1="2.943659" y2="2.9486"/>
<polygon points="-1.4865774 2.9584374 -1.5040256 2.918807 -1.5296223 2.9537327" stroke="black" stroke-width="0.005"/>
<text class="fleet" text-anchor="middle" x="-1.5067418" y="2.956159">
4
</text>
<line stroke="#00A0DF" stroke-width="0.01" x1="-1.708996" x2="-1.675287" y1="3.1004016" y2="3.0759106"/>
<line stroke="#00A0DF" stroke-width="0.01" x1="-1.675287" x2="-1.5" y1="3.0759106" y2="2.9486"/>
<polygon points="-1.6550592 3.0612192 -1.698124 3.0657384 -1.6726778 3.100774" stroke="black" stroke-width="0.005"/>
<text class="fleet" text-anchor="middle" x="-1.675287" y="3.0884106">
8
</text>
<line stroke="#00A0DF" stroke-width="0.01" x1="-1.3988729" x2="-1.3651638" y1="3.0220304" y2="3.0465214"/>
<line stroke="#00A0DF" stroke-width="0.01" x1="-1.3651638" x2="-1.2573" y1="3.0465214" y2="3.1249"/>
<polygon points="-1.3449394 3.0612173 -1.362549 3.0216587 -1.3880031 3.0566883" stroke="black" stroke-width="0.005"/>
<text class="fleet" text-anchor="middle" x="-1.3651638" y="3.0590215">
1
</text>
<line stroke="#00A0DF" stroke-width="0.01" x1="-1.3789684" x2="-1.391844" y1="2.57606" y2="2.6156874"/>
<line stroke="#00A0DF" stroke-width="0.01" x1="-1.391844" x2="-1.4073" y1="2.6156874" y2="2.6632"/>
<polygon points="-1.3995777 2.639461 -1.3673885 2.610498 -1.4085659 2.5971029" stroke="black" stroke-width="0.005"/>
<text class="fleet" text-anchor="middle" x="-1.391844" y="2.6281874">
199
</text>
</g>
<g fill="#FFBE0E">
<line stroke="#FFBE0E" stroke-width="0.01" x1="-1.0995877" x2="-1.1026711" y1="1.1636205" y2="1.1641089"/>
<polygon points="-1.1273633 1.1680199 -1.086938 1.1835374 -1.0937122 1.1407692" stroke="black" stroke-width="0.005"/>
<text class="fleet" text-anchor="middle" x="-1.1026711" y="1.1766089">
1
</text>
<line stroke="#FFBE0E" stroke-width="0.01" x1="-0.34047374" x2="-0.35267115" y1="0.8016087" y2="0.8358911"/>
<polygon points="-0.36105132 0.85944474 -0.32808304 0.8313718 -0.36887908 0.81685686" stroke="black" stroke-width="0.005"/>
<text class="fleet" text-anchor="middle" x="-0.35267115" y="0.8483911">
248
</text>
<line stroke="#FFBE0E" stroke-width="0.01" x1="0.22253548" x2="0.25966075" y1="-0.2012367" y2="-0.18232042"/>
<line stroke="#FFBE0E" stroke-width="0.01" x1="0.25966075" x2="0.3527" y1="-0.18232042" y2="-0.1349"/>
<polygon points="0.2819345 -0.17096789 0.25835544 -0.20728631 0.2386923 -0.16870704" stroke="black" stroke-width="0.005"/>
<text class="fleet" text-anchor="middle" x="0.25966075" y="-0.16982041">
44
</text>
<line stroke="#FFBE0E" stroke-width="0.01" x1="-1.0442079" x2="-1.05" y1="1.6673452" y2="1.6495191"/>
<polygon points="-1.0577253 1.6257427 -1.0667282 1.6680977 -1.0255463 1.6547168" stroke="black" stroke-width="0.005"/>
<text class="fleet" text-anchor="middle" x="-1.05" y="1.6620191">
13
</text>
<line stroke="#FFBE0E" stroke-width="0.01" x1="-0.82396156" x2="-0.8427051" y1="1.3642021" y2="1.3642021"/>
<polygon points="-0.86770505 1.3642021 -0.8302051 1.3858528 -0.8302051 1.3425515" stroke="black" stroke-width="0.005"/>
<text class="fleet" text-anchor="middle" x="-0.8427051" y="1.3767022">
27
</text>
<line stroke="#FFBE0E" stroke-width="0.01" x1="-1.2245029" x2="-1.2354102" y1="1.9814433" y2="2.00219"/>
<polygon points="-1.2470437 2.0243185 -1.2104298 2.001201 -1.2487571 1.981051" stroke="black" stroke-width="0.005"/>
<text class="fleet" text-anchor="middle" x="-1.2354102" y="2.0146902">
1
</text>
<line stroke="#FFBE0E" stroke-width="0.01" x1="-1.0442079" x2="-1.05" y1="1.6316929" y2="1.6495191"/>
<polygon points="-1.0577253 1.6732955 -1.0255463 1.6443212 -1.0667282 1.6309406" stroke="black" stroke-width="0.005"/>
<text class="fleet" text-anchor="middle" x="-1.05" y="1.6620191">
13
</text>
<line stroke="#FFBE0E" stroke-width="0.01" x1="-0.40952626" x2="-0.39732885" y1="1.1983913" y2="1.1641089"/>
<polygon points="-0.38894868 1.1405553 -0.42191696 1.1686282 -0.38112092 1.1831431" stroke="black" stroke-width="0.005"/>
<text class="fleet" text-anchor="middle" x="-0.39732885" y="1.1766089">
1
</text>
<line stroke="#FFBE0E" stroke-width="0.01" x1="-0.1854102" x2="-0.21279654" y1="0.92111486" y2="0.9525171"/>
<line stroke="#FFBE0E" stroke-width="0.01" x1="-0.21279654" x2="-0.3973" y1="0.9525171" y2="1.1641"/>
<polygon points="-0.22922727 0.9713594 -0.1882633 0.9573254 -0.22089906 0.9288665" stroke="black" stroke-width="0.005"/>
<text class="fleet" text-anchor="middle" x="-0.21279654" y="0.9650171">
148
</text>
<line stroke="#FFBE0E" stroke-width="0.01" x1="-0.69738275" x2="-0.6572949" y1="1.9395065" y2="1.934836"/>
<polygon points="-0.6324629 1.9319429 -0.6722165 1.9147774 -0.66720545 1.9577878" stroke="black" stroke-width="0.005"/>
<text class="fleet" text-anchor="middle" x="-0.6572949" y="1.9473361">
86
</text>
<line stroke="#FFBE0E" stroke-width="0.01" x1="0.9854102" x2="1.0145898" y1="0.7031521" y2="0.7031521"/>
<line stroke="#FFBE0E" stroke-width="0.01" x1="1.0145898" x2="0.9294" y1="0.7031521" y2="0.5359"/>
<line stroke="#FFBE0E" stroke-width="0.01" x1="0.9294" x2="0.9" y1="0.5359" y2="0.3505"/>
<polygon points="1.0032431 0.68087536 1.0009708 0.724117 1.0395553 0.704464" stroke="black" stroke-width="0.005"/>
<text class="fleet" text-anchor="middle" x="1.0145898" y="0.7156521">
20
</text>
<line stroke="#FFBE0E" stroke-width="0.01" x1="-0.8979231" x2="-0.9354102" y1="2.2201529" y2="2.2201529"/>
<polygon points="-0.9604102 2.2201529 -0.9229102 2.2418034 -0.9229102 2.1985023" stroke="black" stroke-width="0.005"/>
<text class="fleet" text-anchor="middle" x="-0.9354102" y="2.232653">
1
</text>
</g>
<g fill="#0433FF">
<line stroke="#0433FF" stroke-width="0.01" x1="-0.16854522" x2="-0.20225425" y1="0.4729362" y2="0.49742725"/>
<line stroke="#0433FF" stroke-width="0.01" x1="-0.20225425" x2="-0.2427" y1="0.49742725" y2="0.5268"/>
<polygon points="-0.22248273 0.5121177 -0.17941773 0.5076004 -0.20486231 0.47256365" stroke="black" stroke-width="0.005"/>
<text class="fleet" text-anchor="middle" x="-0.20225425" y="0.5099273">
50
</text>
<line stroke="#0433FF" stroke-width="0.01" x1="-0.00257514" x2="0" y1="0.35840642" y2="0.35048094"/>
<polygon points="0.0077254088 0.32670453 -0.024453687 0.35567877 0.01672828 0.36905956" stroke="black" stroke-width="0.005"/>
<text class="fleet" text-anchor="middle" x="0" y="0.36298093">
269
</text>
<line stroke="#0433FF" stroke-width="0.01" x1="-0.03862712" x2="-0.05150283" y1="0.469363" y2="0.50899035"/>
<line stroke="#0433FF" stroke-width="0.01" x1="-0.05150283" x2="-0.0927" y1="0.50899035" y2="0.6358"/>
<polygon points="-0.059227273 0.53276706 -0.027049357 0.5037915 -0.068231866 0.4904124" stroke="black" stroke-width="0.005"/>
<text class="fleet" text-anchor="middle" x="-0.05150283" y="0.52149034">
48
</text>
<line stroke="#0433FF" stroke-width="0.01" x1="1.7813323" x2="1.7942079" y1="0.40793446" y2="0.3683071"/>
<line stroke="#0433FF" stroke-width="0.01" x1="1.7942079" x2="1.8" y1="0.3683071" y2="0.3505"/>
<polygon points="1.8019408 0.34453312 1.7697526 0.3734973 1.8109304 0.38689095" stroke="black" stroke-width="0.005"/>
<text class="fleet" text-anchor="middle" x="1.7942079" y="0.3808071">
22
</text>
<line stroke="#0433FF" stroke-width="0.01" x1="0.10786893" x2="0.07415989" y1="0.42885232" y2="0.40436125"/>
<line stroke="#0433FF" stroke-width="0.01" x1="0.07415989" x2="0" y1="0.40436125" y2="0.3505"/>
<polygon points="0.053931996 0.38967 0.07155086 0.42922473 0.096996814 0.39418897" stroke="black" stroke-width="0.005"/>
<text class="fleet" text-anchor="middle" x="0.07415989" y="0.41686124">
56
</text>
<line stroke="#0433FF" stroke-width="0.01" x1="1.325" x2="1.45" y1="0.35048094" y2="0.35048094"/>
<line stroke="#0433FF" stroke-width="0.01" x1="1.45" x2="1.5" y1="0.35048094" y2="0.3505"/>
<polygon points="1.475 0.35049045 1.4375083 0.32882556 1.4374918 0.37212682" stroke="black" stroke-width="0.005"/>
<text class="fleet" text-anchor="middle" x="1.45" y="0.36298093">
3
</text>
<line stroke="#0433FF" stroke-width="0.01" x1="0.225" x2="0.1" y1="0.35048094" y2="0.35048094"/>
<line stroke="#0433FF" stroke-width="0.01" x1="0.1" x2="0" y1="0.35048094" y2="0.3505"/>
<polygon points="0.075 0.3504857 0.11250413 0.3721292 0.11249587 0.32882792" stroke="black" stroke-width="0.005"/>
<text class="fleet" text-anchor="middle" x="0.1" y="0.36298093">
251
</text>
<line stroke="#0433FF" stroke-width="0.01" x1="1.2724588" x2="1.2572949" y1="0.1631282" y2="0.17414537"/>
<polygon points="1.2370695 0.18883996 1.2801335 0.18431383 1.2546817 0.14928232" stroke="black" stroke-width="0.005"/>
<text class="fleet" text-anchor="middle" x="1.2572949" y="0.18664537">
52
</text>
<line stroke="#0433FF" stroke-width="0.01" x1="1.3651638" x2="1.3314548" y1="0.44844517" y2="0.4729362"/>
<line stroke="#0433FF" stroke-width="0.01" x1="1.3314548" x2="1.2573" y1="0.4729362" y2="0.5268"/>
<polygon points="1.3112277 0.48762855 1.3542923 0.4831072 1.3288443 0.44807288" stroke="black" stroke-width="0.005"/>
<text class="fleet" text-anchor="middle" x="1.3314548" y="0.4854362">
42
</text>
</g>
<g fill="#C11A00">
<line stroke="#C11A00" stroke-width="0.01" x1="0.1854102" x2="0.22253548" y1="-0.22015296" y2="-0.2012367"/>
<line stroke="#C11A00" stroke-width="0.01" x1="0.22253548" x2="0.3527" y1="-0.2012367" y2="-0.1349"/>
<polygon points="0.24480963 -0.18988496 0.22122929 -0.22620255 0.2015675 -0.18762258" stroke="black" stroke-width="0.005"/>
<text class="fleet" text-anchor="middle" x="0.22253548" y="-0.18873669">
144
</text>
<line stroke="#C11A00" stroke-width="0.01" x1="0.3155459" x2="0.2784206" y1="0.85480744" y2="0.8737237"/>
<line stroke="#C11A00" stroke-width="0.01" x1="0.2784206" x2="0.1854" y1="0.8737237" y2="0.9211"/>
<polygon points="0.2561435 0.88506967 0.29938504 0.8873432 0.27973324 0.84875816" stroke="black" stroke-width="0.005"/>
<text class="fleet" text-anchor="middle" x="0.2784206" y="0.8862237">
143
</text>
<line stroke="#C11A00" stroke-width="0.01" x1="2.0005531" x2="2.007295" y1="-0.7673234" y2="-0.77222157"/>
<polygon points="2.0275202 -0.7869162 1.9844563 -0.78238994 2.0099082 -0.7473585" stroke="black" stroke-width="0.005"/>
<text class="fleet" text-anchor="middle" x="2.007295" y="-0.7597216">
8
</text>
<line stroke="#C11A00" stroke-width="0.01" x1="1.8792006" x2="1.8454915" y1="-0.6791556" y2="-0.6546645"/>
<line stroke="#C11A00" stroke-width="0.01" x1="1.8454915" x2="1.7646" y1="-0.6546645" y2="-0.5959"/>
<line stroke="#C11A00" stroke-width="0.01" x1="1.7646" x2="2.25" y1="-0.5959" y2="-0.9486"/>
<polygon points="1.8252653 -0.63997096 1.8683296 -0.6444949 1.8428797 -0.6795277" stroke="black" stroke-width="0.005"/>
<text class="fleet" text-anchor="middle" x="1.8454915" y="-0.6421645">
263
</text>
<line stroke="#C11A00" stroke-width="0.01" x1="1.1945311" x2="1.2239939" y1="-0.10009429" y2="-0.12955707"/>
<line stroke="#C11A00" stroke-width="0.01" x1="1.2239939" x2="1.3146" y1="-0.12955707" y2="-0.2202"/>
<line stroke="#C11A00" stroke-width="0.01" x1="1.3146" x2="0.9294" y1="-0.2202" y2="0.1651"/>
<polygon points="1.241668 -0.14723833 1.1998445 -0.13602263 1.2304692 -0.10541024" stroke="black" stroke-width="0.005"/>
<text class="fleet" text-anchor="middle" x="1.2239939" y="-0.11705707">
1
</text>
<line stroke="#C11A00" stroke-width="0.01" x1="1.5087211" x2="1.4767376" y1="-0.38224533" y2="-0.35554025"/>
<line stroke="#C11A00" stroke-width="0.01" x1="1.4767376" x2="1.3146" y1="-0.35554025" y2="-0.2202"/>
<line stroke="#C11A00" stroke-width="0.01" x1="1.3146" x2="1.7646" y1="-0.2202" y2="-0.5959"/>
<polygon points="1.4575453 -0.3395199 1.5002079 -0.34692934 1.4724598 -0.38017154" stroke="black" stroke-width="0.005"/>
<text class="fleet" text-anchor="middle" x="1.4767376" y="-0.34304026">
215
</text>
<line stroke="#C11A00" stroke-width="0.01" x1="0.22754125" x2="0.2427051" y1="0.1631282" y2="0.17414537"/>
<polygon points="0.26293054 0.18883999 0.24531831 0.14928232 0.21986647 0.1843138" stroke="black" stroke-width="0.005"/>
<text class="fleet" text-anchor="middle" x="0.2427051" y="0.18664537">
436
</text>
<line stroke="#C11A00" stroke-width="0.01" x1="0.09528024" x2="0.0927051" y1="0.64372337" y2="0.6357979"/>
<polygon points="0.08497967 0.6120215 0.07597685 0.65437657 0.11715879 0.6409957" stroke="black" stroke-width="0.005"/>
<text class="fleet" text-anchor="middle" x="0.0927051" y="0.6482979">
56
</text>
</g>
<g fill="#37BB00">
<line stroke="#37BB00" stroke-width="0.01" x1="-0.49706414" x2="-0.4854102" y1="0.7184079" y2="0.7031521"/>
<polygon points="-0.47023404 0.6832855 -0.5102033 0.6999425 -0.47579327 0.7262284" stroke="black" stroke-width="0.005"/>
<text class="fleet" text-anchor="middle" x="-0.4854102" y="0.7156521">
1
</text>
<line stroke="#37BB00" stroke-width="0.01" x1="-2.0518632" x2="-2.0122359" y1="1.5851405" y2="1.5722648"/>
<line stroke="#37BB00" stroke-width="0.01" x1="-2.0122359" x2="-1.6794" y1="1.5722648" y2="1.4641"/>
<polygon points="-1.9884598 1.5645381 -2.0308154 1.5555376 -2.0174325 1.5967188" stroke="black" stroke-width="0.005"/>
<text class="fleet" text-anchor="middle" x="-2.0122359" y="1.5847648">
672
</text>
<line stroke="#37BB00" stroke-width="0.01" x1="-2.3241599" x2="-2.2904508" y1="1.7033994" y2="1.6789083"/>
<line stroke="#37BB00" stroke-width="0.01" x1="-2.2904508" x2="-2.25" y1="1.6789083" y2="1.6495"/>
<polygon points="-2.2702298 1.6642075 -2.3132925 1.668747 -2.2878299 1.7037706" stroke="black" stroke-width="0.005"/>
<text class="fleet" text-anchor="middle" x="-2.2904508" y="1.6914084">
70
</text>
<line stroke="#37BB00" stroke-width="0.01" x1="-0.62353206" x2="-0.59823847" y1="0.8839635" y2="0.8508524"/>
<line stroke="#37BB00" stroke-width="0.01" x1="-0.59823847" x2="-0.4854" y1="0.8508524" y2="0.7032"/>
<polygon points="-0.58305836 0.83098876 -0.62303096 0.84763783 -0.58862615 0.8739306" stroke="black" stroke-width="0.005"/>
<text class="fleet" text-anchor="middle" x="-0.59823847" y="0.86335236">
510
</text>
<line stroke="#37BB00" stroke-width="0.01" x1="-0.39876586" x2="-0.36439225" y1="0.41814503" y2="0.3945958"/>
<line stroke="#37BB00" stroke-width="0.01" x1="-0.36439225" x2="-0.3" y1="0.3945958" y2="0.3505"/>
<polygon points="-0.34376523 0.38047042 -0.3869387 0.38379496 -0.3624728 0.41952202" stroke="black" stroke-width="0.005"/>
<text class="fleet" text-anchor="middle" x="-0.36439225" y="0.4070958">
22
</text>
<line stroke="#37BB00" stroke-width="0.01" x1="-0.49706414" x2="-0.4854102" y1="0.7184079" y2="0.7031521"/>
<polygon points="-0.47023404 0.6832855 -0.5102033 0.6999425 -0.47579327 0.7262284" stroke="black" stroke-width="0.005"/>
<text class="fleet" text-anchor="middle" x="-0.4854102" y="0.7156521">
1
</text>
<line stroke="#37BB00" stroke-width="0.01" x1="-1.2554187" x2="-1.2365024" y1="1.4638927" y2="1.4267675"/>
<line stroke="#37BB00" stroke-width="0.01" x1="-1.2365024" x2="-1.1027" y1="1.4267675" y2="1.1641"/>
<polygon points="-1.2251549 1.4044912 -1.261468 1.4280784 -1.2228843 1.4477328" stroke="black" stroke-width="0.005"/>
<text class="fleet" text-anchor="middle" x="-1.2365024" y="1.4392675">
149
</text>
<line stroke="#37BB00" stroke-width="0.01" x1="-0.316865" x2="-0.28315595" y1="0.5806968" y2="0.5562058"/>
<line stroke="#37BB00" stroke-width="0.01" x1="-0.28315595" x2="0" y1="0.5562058" y2="0.3505"/>
<polygon points="-0.2629299 0.5415121 -0.30599415 0.54603636 -0.28054383 0.581069" stroke="black" stroke-width="0.005"/>
<text class="fleet" text-anchor="middle" x="-0.28315595" y="0.5687058">
649
</text>
</g>
<g fill="#E16200"/>
<g class="star">
<text text-anchor="middle" x="0.3527" y="0.7609">
May
</text>
<text text-anchor="middle" x="-1.9854" y="2.5209">
Arc
</text>
<text text-anchor="middle" x="-1.5" y="3.4736">
Alniyat
</text>
<text text-anchor="middle" x="-0.6" y="0.2755">
Ale
</text>
<text text-anchor="middle" x="2.0646" y="-1.5942">
Norris
</text>
<text text-anchor="middle" x="0.5706" y="0.4609">
Clarkson
</text>
<text text-anchor="middle" x="1.7646" y="-0.6709">
Adam Driver
</text>
<text text-anchor="middle" x="2.8206" y="-0.8381">
Jolyon
</text>
<text text-anchor="middle" x="1.5" y="-0.32450002">
Theemin
</text>
<text text-anchor="middle" x="-0.1794" y="1.3891">
Alfecca
</text>
<text text-anchor="middle" x="2.4354" y="-1.5942">
Johnson
</text>
<text text-anchor="middle" x="1.6794" y="-1.209">
Earnhardt Jr
</text>
<text text-anchor="middle" x="1.4073" y="-0.009800002">
Mebsuta
</text>
<text text-anchor="middle" x="0.9294" y="0.4609">
Salm
</text>
<text text-anchor="middle" x="-0.2427" y="0.4518">
Terram
</text>
<text text-anchor="middle" x="-1.2573" y="2.6972">
Talitha
</text>
<text text-anchor="middle" x="0.9" y="0.2755">
Ras
</text>
<text text-anchor="middle" x="-0.75" y="2.1745">
Arkab
</text>
<text text-anchor="middle" x="-0.9927" y="1.3981999">
Altais
</text>
<text text-anchor="middle" x="-1.1473" y="2.3881">
Yed
</text>
<text text-anchor="middle" x="-0.8427" y="1.2892">
Rub
</text>
<text text-anchor="middle" x="2.4354" y="-0.4529">
Mansell
</text>
<text text-anchor="middle" x="-0.3973" y="2.0599">
Merak
</text>
<text text-anchor="middle" x="-1.8" y="2.8736">
Rukbat
</text>
<text text-anchor="middle" x="-0.5706" y="0.09009999">
Elm
</text>
<text text-anchor="middle" x="1.3146" y="0.84610003">
Mimosa
</text>
<text text-anchor="middle" x="1.7427" y="0.09909999">
Vindemiatrix
</text>
<text text-anchor="middle" x="2.85" y="-1.0236">
Prost
</text>
<text text-anchor="middle" x="2.25" y="-1.6236">
De Vries
</text>
<text text-anchor="middle" x="-1.05" y="1.5745">
Sasin
</text>
<text text-anchor="middle" x="1.2" y="0.2755">
Alcyone
</text>
<text text-anchor="middle" x="2.3427" y="-1.3089">
Petty
</text>
<text text-anchor="middle" x="2.6027" y="-0.5381">
Ricciardo
</text>
<text text-anchor="middle" x="-1.8527" y="2.3881">
Tejat
</text>
<text text-anchor="middle" x="2.1" y="0.2755">
Alamak
</text>
<text text-anchor="middle" x="0.0927" y="-0.009800002">
Gisele
</text>
<text text-anchor="middle" x="-2.7354" y="1.2218">
Tag
</text>
<text text-anchor="middle" x="2.1573" y="-1.3089">
Verstappen
</text>
<text text-anchor="middle" x="-2.0706" y="3.059">
Albali
</text>
<text text-anchor="middle" x="-0.6573" y="1.2892">
Menkib
</text>
<text text-anchor="middle" x="2.0073" y="-1.1999">
Sainz
</text>
<text text-anchor="middle" x="1.8527" y="0.7609">
Alwaid
</text>
<text text-anchor="middle" x="-1.6794" y="1.3891">
Errai
</text>
<text text-anchor="middle" x="1.5927" y="0.5608">
Alphecca
</text>
<text text-anchor="middle" x="-1.2354" y="1.2218">
Dschubba
</text>
<text text-anchor="middle" x="1.3146" y="-0.2952">
Grosjean
</text>
<text text-anchor="middle" x="-1.6794" y="1.7599">
Wasat
</text>
<text text-anchor="middle" x="-1.8973" y="1.0891">
Segin
</text>
<text text-anchor="middle" x="2.4927" y="-0.8472">
Villeneuve
</text>
<text text-anchor="middle" x="-0.9354" y="2.1452">
Gatria
</text>
<text text-anchor="middle" x="-1.6854" y="3.4442">
Dnoces
</text>
<text text-anchor="middle" x="-0.0927" y="0.5608">
Elons Mistakes Mistake
</text>
<text text-anchor="middle" x="-2.0646" y="2.1452">
Tab
</text>
<text text-anchor="middle" x="-2.25" y="0.9745">
Chi
</text>
<text text-anchor="middle" x="1.4073" y="0.5608">
Decrux
</text>
<text text-anchor="middle" x="2.7354" y="-0.6709">
Perez
</text>
<text text-anchor="middle" x="1.6854" y="-0.2952">
Jaw
</text>
<text text-anchor="middle" x="-0.2646" y="1.2218">
Lanx
</text>
<text text-anchor="middle" x="-0.3527" y="0.7609">
Polaris
</text>
<text text-anchor="middle" x="2.0073" y="-0.8472">
Schumacher
</text>
<text text-anchor="middle" x="0.2427" y="0.09909999">
Han SeoulO
</text>
<text text-anchor="middle" x="1.6794" y="-0.8381">
Danica Patrick
</text>
<text text-anchor="middle" x="-0.0927" y="-0.009800002">
Shaw
</text>
<text text-anchor="middle" x="-1.0146" y="3.2261999">
Ick
</text>
<text text-anchor="middle" x="1.1473" y="-0.2099">
Merope
</text>
<text text-anchor="middle" x="2.7354" y="-1.3762001">
Latifi
</text>
<text text-anchor="middle" x="2.1573" y="-0.7382">
Senna
</text>
<text text-anchor="middle" x="-1.5" y="2.8736">
Almach
</text>
<text text-anchor="middle" x="-0.75" y="0.9745">
Menkent
</text>
<text text-anchor="middle" x="1.2573" y="0.09909999">
Elnath
</text>
<text text-anchor="middle" x="-2.55" y="1.5745">
Dabih
</text>
<text text-anchor="middle" x="1.5" y="0.8755">
Kit
</text>
<text text-anchor="middle" x="2.4927" y="-1.1999">
Stewart
</text>
<text text-anchor="middle" x="1.6854" y="0.84610003">
Keid
</text>
<text text-anchor="middle" x="-0.9294" y="3.059">
Bam
</text>
<text text-anchor="middle" x="0.1854" y="0.84610003">
Letty Ortiz
</text>
<text text-anchor="middle" x="2.8206" y="-1.209">
Tsunoda
</text>
<text text-anchor="middle" x="-0.3" y="0.2755">
Koi
</text>
<text text-anchor="middle" x="-1.0146" y="2.5209">
Yay
</text>
<text text-anchor="middle" x="-1.7427" y="2.6972">
Mud
</text>
<text text-anchor="middle" x="-0.1794" y="1.7599">
Sulafat
</text>
<text text-anchor="middle" x="-0.5706" y="0.4609">
Pax
</text>
<text text-anchor="middle" x="-0.3973" y="1.0891">
Dux
</text>
<text text-anchor="middle" x="0.9294" y="0.09009999">
RIP Paul Walker
</text>
<text text-anchor="middle" x="2.0706" y="0.4609">
Adhara
</text>
<text text-anchor="middle" x="1.8" y="0.2755">
Enif
</text>
<text text-anchor="middle" x="0" y="-0.32450002">
Ramsey
</text>
<text text-anchor="middle" x="1.1473" y="0.7609">
Rukh
</text>
<text text-anchor="middle" x="-0.15" y="1.5745">
Alpheratz
</text>
<text text-anchor="middle" x="-1.8973" y="2.0599">
Asellus
</text>
<text text-anchor="middle" x="1.5927" y="-0.009800002">
Alya
</text>
<text text-anchor="middle" x="2.3427" y="-0.7382">
Gordon
</text>
<text text-anchor="middle" x="-2.3427" y="1.2892">
Schedir
</text>
<text text-anchor="middle" x="-1.3146" y="3.4442">
Media
</text>
<text text-anchor="middle" x="-2.85" y="1.5745">
Azimech
</text>
<text text-anchor="middle" x="-1.5927" y="2.5881999">
Menchib
</text>
<text text-anchor="middle" x="0.6" y="0.2755">
Alzir
</text>
<text text-anchor="middle" x="2.0646" y="-0.4529">
Leclerc
</text>
<text text-anchor="middle" x="-1.65" y="1.5745">
Biham
</text>
<text text-anchor="middle" x="-2.1" y="2.8736">
Pug
</text>
<text text-anchor="middle" x="-2.6027" y="1.0891">
Sarin
</text>
<text text-anchor="middle" x="-1.2" y="2.8736">
Mintaka
</text>
<text text-anchor="middle" x="-0.4854" y="-0.0772">
Speed Racer
</text>
<text text-anchor="middle" x="-2.8206" y="1.7599">
Sabik
</text>
<text text-anchor="middle" x="-0.75" y="1.5745">
Hassaleh
</text>
<text text-anchor="middle" x="0.3527" y="-0.2099">
Avior
</text>
<text text-anchor="middle" x="-2.0706" y="2.6880999">
Kaus
</text>
<text text-anchor="middle" x="-0.5073" y="1.3981999">
Murzim
</text>
<text text-anchor="middle" x="-2.0073" y="1.7508999">
Sham
</text>
<text text-anchor="middle" x="1.7427" y="0.4518">
Kajam
</text>
<text text-anchor="middle" x="-2.7354" y="1.9271998">
Marfik
</text>
<text text-anchor="middle" x="-0.9927" y="1.7508999">
Asp
</text>
<text text-anchor="middle" x="2.6027" y="-1.5090001">
Toretto
</text>
<text text-anchor="middle" x="-2.4354" y="2.1452">
Spy
</text>
<text text-anchor="middle" x="2.25" y="-1.0236">
Alonso
</text>
<text text-anchor="middle" x="0.3" y="0.2755">
Qui
</text>
<text text-anchor="middle" x="1.2573" y="0.4518">
Aladfar
</text>
<text text-anchor="middle" x="0.4854" y="0.6282">
Hammond
</text>
<text text-anchor="middle" x="-2.4927" y="1.7508999">
Tic
</text>
<text text-anchor="middle" x="-1.95" y="1.5745">
Ksora
</text>
<text text-anchor="middle" x="0.2427" y="0.4518">
Tegmen
</text>
<text text-anchor="middle" x="-1.4073" y="3.1589">
Haldus
</text>
<text text-anchor="middle" x="-1.3206" y="1.3891">
Mirzam
</text>
<text text-anchor="middle" x="1.0146" y="0.6282">
Sargas
</text>
<text text-anchor="middle" x="-1.1473" y="3.359">
Sheliak
</text>
<text text-anchor="middle" x="-1.5927" y="3.1589">
Mekbuda
</text>
<text text-anchor="middle" x="2.25" y="-0.42360002">
Jerry
</text>
<text text-anchor="middle" x="0.1854" y="-0.2952">
Baby
</text>
<text text-anchor="middle" x="1.65" y="-1.0236">
Earnhardt Jr Jr
</text>
<text text-anchor="middle" x="-2.8206" y="1.3891">
Zoo
</text>
<text text-anchor="middle" x="-2.4927" y="1.3981999">
Propus
</text>
<text text-anchor="middle" x="-1.3206" y="1.7599">
Becrux
</text>
<text text-anchor="middle" x="1.9854" y="-0.0772">
Aludra
</text>
<text text-anchor="middle" x="-1.3146" y="2.3028998">
Proxima
</text>
<text text-anchor="middle" x="1.8527" y="-0.2099">
Andretti
</text>
<text text-anchor="middle" x="-1.7646" y="1.2218">
Alkalurops
</text>
<text text-anchor="middle" x="-1.2354" y="1.9271998">
Cheleb
</text>
<text text-anchor="middle" x="-1.1027" y="1.0891">
Pure Pax
</text>
<text text-anchor="middle" x="-0.9294" y="2.6880999">
Diphda
</text>
<text text-anchor="middle" x="-2.1573" y="1.8598">
Algieba
</text>
<text text-anchor="middle" x="-1.1027" y="2.0599">
Cox
</text>
<text text-anchor="middle" x="-1.4073" y="2.5881999">
Neshmet
</text>
<text text-anchor="middle" x="-0.8427" y="1.8598">
Marfark
</text>
<text text-anchor="middle" x="1.7646" y="-1.3762001">
Earnhardt
</text>
<text text-anchor="middle" x="-0.3527" y="-0.2099">
Racer X
</text>
<text text-anchor="middle" x="0.5706" y="0.09009999">
Diesel
</text>
<text text-anchor="middle" x="-0.9354" y="1.0038999">
Mac
</text>
<text text-anchor="middle" x="-0.5073" y="1.7508999">
Zit
</text>
<text text-anchor="middle" x="2.0706" y="0.09009999">
Sadira
</text>
<text text-anchor="middle" x="-2.25" y="2.1745">
Garnet
</text>
<text text-anchor="middle" x="-2.1573" y="1.2892">
Sky
</text>
<text text-anchor="middle" x="-2.0073" y="1.3981999">
Denebola
</text>
<text text-anchor="middle" x="-0.5646" y="2.1452">
TienKuan
</text>
<text text-anchor="middle" x="-2.25" y="1.5745">
Castor
</text>
<text text-anchor="middle" x="-0.1854" y="0.84610003">
TseenKee
</text>
<text text-anchor="middle" x="-0.2427" y="0.09909999">
Hobbs
</text>
<text text-anchor="middle" x="2.55" y="-1.0236">
Hamilton
</text>
<text text-anchor="middle" x="-2.0646" y="1.0038999">
Rotanev
</text>
<text text-anchor="middle" x="-1.6854" y="2.3028998">
Alcor
</text>
<text text-anchor="middle" x="-2.3427" y="1.8598">
Askella
</text>
<text text-anchor="middle" x="-0.1854" y="-0.2952">
Jason Momoa
</text>
<text text-anchor="middle" x="-0.2646" y="1.9271998">
Wazn
</text>
<text text-anchor="middle" x="-1.7427" y="3.0499">
Caph
</text>
<text text-anchor="middle" x="-0.45" y="1.5745">
Alnasl
</text>
<text text-anchor="middle" x="-1.7646" y="1.9271998">
Syrma
</text>
<text text-anchor="middle" x="-2.6027" y="2.0599">
Mizar
</text>
<text text-anchor="middle" x="1.0146" y="-0.0772">
Eltanin
</text>
<text text-anchor="middle" x="1.8973" y="-0.5381">
Vettel
</text>
<text text-anchor="middle" x="0" y="0.8755">
Korn
</text>
<text text-anchor="middle" x="-1.9854" y="3.2261999">
SteropeII
</text>
<text text-anchor="middle" x="1.9854" y="0.6282">
Fin
</text>
<text text-anchor="middle" x="-0.9" y="2.8736">
Sun
</text>
<text text-anchor="middle" x="1.95" y="-1.0236">
Labonte
</text>
<text text-anchor="middle" x="-0.6573" y="1.8598">
Imp
</text>
<text text-anchor="middle" x="-0.4854" y="0.6282">
Misam
</text>
<text text-anchor="middle" x="-1.35" y="1.5745">
Sadalmelik
</text>
<text text-anchor="middle" x="-1.5" y="2.2735999">
Aldhanab
</text>
<text text-anchor="middle" x="0.0927" y="0.5608">
Tenuerit
</text>
<text text-anchor="middle" x="1.5" y="0.2755">
Acamar
</text>
<text text-anchor="middle" x="-2.4354" y="1.0038999">
AlGiedi
</text>
<text text-anchor="middle" x="-1.2573" y="3.0499">
Mira
</text>
<text text-anchor="middle" x="0.4854" y="-0.0772">
Pile
</text>
<text text-anchor="middle" x="-0.5646" y="1.0038999">
Regulus
</text>
<text text-anchor="middle" x="1.8973" y="-1.5090001">
Ocon
</text>
<text text-anchor="middle" x="0" y="0.2755">
Arided
</text>
<text text-anchor="middle" x="-1.8527" y="3.359">
Minkar
</text>
</g>
</svg>