<svg viewBox="-3.4199998 -2.05832 6.84 6.11664" xmlns="http://www.w3.org/2000/svg">
<style>
.star { font: 0.05px sans-serif; fill: red; }
.fleet { font: 0.03px sans-serif; fill: white; }
</style>
<g fill="none" stroke="black" stroke-width="0.01">
<circle cx="-2.25" cy="1.0495" r="0.05"/>
<circle cx="-0.9927" cy="1.8259" fill="#FFBE0E" r="0.05"/>
<circle cx="2.6027" cy="-0.4631" fill="#C11A00" r="0.05"/>
<circle cx="-1.0146" cy="3.3012" fill="#00A0DF" r="0.05"/>
<circle cx="-2.0646" cy="2.2202" fill="#37BB00" r="0.05"/>
<circle cx="0.2427" cy="0.1741" fill="#E16200" r="0.05"/>
<circle cx="-0.9294" cy="2.7631" fill="#00A0DF" r="0.05"/>
<circle cx="1.6854" cy="-0.2202" fill="#0433FF" r="0.05"/>
<circle cx="-1.7427" cy="2.7722" fill="#00A0DF" r="0.05"/>
<circle cx="2.25" cy="-0.3486" fill="#C11A00" r="0.05"/>
<circle cx="-1.4073" cy="3.2339" fill="#00A0DF" r="0.05"/>
<circle cx="-2.4354" cy="2.2202" fill="#37BB00" r="0.05"/>
<circle cx="0.3527" cy="-0.1349" fill="#E16200" r="0.05"/>
<circle cx="-2.6027" cy="2.1349" r="0.05"/>
<circle cx="-2.4927" cy="1.4732" fill="#37BB00" r="0.05"/>
<circle cx="-2.0073" cy="1.4732" fill="#37BB00" r="0.05"/>
<circle cx="-1.7646" cy="2.0022" fill="#37BB00" r="0.05"/>
<circle cx="0.0927" cy="0.6358" fill="#E16200" r="0.05"/>
<circle cx="2.85" cy="-0.9486" fill="#C11A00" r="0.05"/>
<circle cx="2.55" cy="-0.9486" fill="#C11A00" r="0.05"/>
<circle cx="1.3146" cy="0.9211" fill="#0433FF" r="0.05"/>
<circle cx="1.4073" cy="0.0652" fill="#0433FF" r="0.05"/>
<circle cx="2.1573" cy="-0.6632" fill="#C11A00" r="0.05"/>
<circle cx="-1.8" cy="2.9486" fill="#00A0DF" r="0.05"/>
<circle cx="-0.75" cy="1.0495" fill="#FFBE0E" r="0.05"/>
<circle cx="1.8973" cy="-0.4631" fill="#C11A00" r="0.05"/>
<circle cx="-2.25" cy="1.6495" fill="#37BB00" r="0.05"/>
<circle cx="-1.1027" cy="2.1349" fill="#00A0DF" r="0.05"/>
<circle cx="1.1473" cy="-0.1349" fill="#0433FF" r="0.05"/>
<circle cx="-1.4073" cy="2.6632" fill="#00A0DF" r="0.05"/>
<circle cx="-0.5646" cy="2.2202" fill="#FFBE0E" r="0.05"/>
<circle cx="1.7646" cy="-0.5959" fill="#C11A00" r="0.05"/>
<circle cx="-1.2" cy="2.9486" fill="#00A0DF" r="0.05"/>
<circle cx="0.2427" cy="0.5268" fill="#E16200" r="0.05"/>
<circle cx="-2.0706" cy="3.134" fill="#00A0DF" r="0.05"/>
<circle cx="0.5706" cy="0.5359" fill="#E16200" r="0.05"/>
<circle cx="-0.0927" cy="0.6358" fill="#E16200" r="0.05"/>
<circle cx="2.1573" cy="-1.2339" fill="#C11A00" r="0.05"/>
<circle cx="-0.3973" cy="2.1349" fill="#FFBE0E" r="0.05"/>
<circle cx="-2.7354" cy="1.2968" fill="#37BB00" r="0.05"/>
<circle cx="2.25" cy="-1.5486" fill="#C11A00" r="0.05"/>
<circle cx="2.25" cy="-0.9486" fill="#C11A00" r="0.05"/>
<circle cx="-0.8427" cy="1.9348" fill="#FFBE0E" r="0.05"/>
<circle cx="-0.1854" cy="-0.2202" fill="#E16200" r="0.05"/>
<circle cx="-0.3527" cy="-0.1349" fill="#E16200" r="0.05"/>
<circle cx="0" cy="0.3505" fill="#E16200" r="0.05"/>
<circle cx="1.1473" cy="0.8359" fill="#0433FF" r="0.05"/>
<circle cx="1.5927" cy="0.0652" fill="#0433FF" r="0.05"/>
<circle cx="1.2573" cy="0.5268" fill="#0433FF" r="0.05"/>
<circle cx="-2.4927" cy="1.8259" fill="#37BB00" r="0.05"/>
<circle cx="1.6854" cy="0.9211" fill="#0433FF" r="0.05"/>
<circle cx="-1.8527" cy="3.434" fill="#00A0DF" r="0.05"/>
<circle cx="-0.4854" cy="0.7032" fill="#E16200" r="0.05"/>
<circle cx="-2.4354" cy="1.0789" fill="#37BB00" r="0.05"/>
<circle cx="-2.1573" cy="1.9348" fill="#37BB00" r="0.05"/>
<circle cx="1.9854" cy="-0.0022" fill="#0433FF" r="0.05"/>
<circle cx="-0.1794" cy="1.8349" fill="#FFBE0E" r="0.05"/>
<circle cx="2.0706" cy="0.5359" fill="#0433FF" r="0.05"/>
<circle cx="2.3427" cy="-1.2339" fill="#C11A00" r="0.05"/>
<circle cx="1.6794" cy="-1.134" fill="#C11A00" r="0.05"/>
<circle cx="-2.3427" cy="1.3642" fill="#37BB00" r="0.05"/>
<circle cx="-0.2646" cy="1.2968" fill="#FFBE0E" r="0.05"/>
<circle cx="0" cy="-0.2495" fill="#E16200" r="0.05"/>
<circle cx="2.0073" cy="-1.1249" fill="#C11A00" r="0.05"/>
<circle cx="1.5927" cy="0.6358" fill="#0433FF" r="0.05"/>
<circle cx="0.6" cy="0.3505" fill="#E16200" r="0.05"/>
<circle cx="-1.05" cy="1.6495" fill="#FFBE0E" r="0.05"/>
<circle cx="-1.7646" cy="1.2968" fill="#37BB00" r="0.05"/>
<circle cx="-0.3973" cy="1.1641" fill="#E16200" r="0.05"/>
<circle cx="-2.0073" cy="1.8259" fill="#37BB00" r="0.05"/>
<circle cx="1.2573" cy="0.1741" fill="#0433FF" r="0.05"/>
<circle cx="1.4073" cy="0.6358" fill="#0433FF" r="0.05"/>
<circle cx="-1.9854" cy="2.5959" fill="#00A0DF" r="0.05"/>
<circle cx="-1.2573" cy="3.1249" fill="#00A0DF" r="0.05"/>
<circle cx="0.4854" cy="0.7032" fill="#0433FF" r="0.05"/>
<circle cx="-2.6027" cy="1.1641" fill="#37BB00" r="0.05"/>
<circle cx="-0.1854" cy="0.9211" fill="#E16200" r="0.05"/>
<circle cx="1.8" cy="0.3505" fill="#0433FF" r="0.05"/>
<circle cx="-0.9" cy="2.9486" fill="#00A0DF" r="0.05"/>
<circle cx="-1.6854" cy="2.3779" fill="#00A0DF" r="0.05"/>
<circle cx="2.0646" cy="-0.3779" fill="#C11A00" r="0.05"/>
<circle cx="-0.5646" cy="1.0789" fill="#FFBE0E" r="0.05"/>
<circle cx="-1.3206" cy="1.4641" fill="#FFBE0E" r="0.05"/>
<circle cx="2.7354" cy="-1.3012" fill="#C11A00" r="0.05"/>
<circle cx="-1.3146" cy="2.3779" fill="#00A0DF" r="0.05"/>
<circle cx="-0.8427" cy="1.3642" fill="#FFBE0E" r="0.05"/>
<circle cx="0.3527" cy="0.8359" fill="#E16200" r="0.05"/>
<circle cx="1.95" cy="-0.9486" fill="#C11A00" r="0.05"/>
<circle cx="-2.1" cy="2.9486" fill="#00A0DF" r="0.05"/>
<circle cx="-1.3146" cy="3.5192" fill="#00A0DF" r="0.05"/>
<circle cx="-0.9354" cy="1.0789" fill="#FFBE0E" r="0.05"/>
<circle cx="-1.1473" cy="2.4631" fill="#00A0DF" r="0.05"/>
<circle cx="1.8527" cy="0.8359" fill="#0433FF" r="0.05"/>
<circle cx="2.4354" cy="-0.3779" fill="#C11A00" r="0.05"/>
<circle cx="-1.35" cy="1.6495" fill="#37BB00" r="0.05"/>
<circle cx="0.4854" cy="-0.0022" fill="#E16200" r="0.05"/>
<circle cx="-1.2354" cy="1.2968" fill="#FFBE0E" r="0.05"/>
<circle cx="0.5706" cy="0.1651" fill="#E16200" r="0.05"/>
<circle cx="2.3427" cy="-0.6632" fill="#C11A00" r="0.05"/>
<circle cx="-0.9294" cy="3.134" fill="#00A0DF" r="0.05"/>
<circle cx="0.3" cy="0.3505" fill="#E16200" r="0.05"/>
<circle cx="-0.3527" cy="0.8359" fill="#E16200" r="0.05"/>
<circle cx="-0.6573" cy="1.9348" fill="#FFBE0E" r="0.05"/>
<circle cx="-0.5073" cy="1.8259" fill="#FFBE0E" r="0.05"/>
<circle cx="0.9" cy="0.3505" fill="#0433FF" r="0.05"/>
<circle cx="0" cy="0.9505" fill="#E16200" r="0.05"/>
<circle cx="-2.55" cy="1.6495" fill="#37BB00" r="0.05"/>
<circle cx="-0.75" cy="1.6495" fill="#FFBE0E" r="0.05"/>
<circle cx="-1.8973" cy="2.1349" fill="#37BB00" r="0.05"/>
<circle cx="0.9294" cy="0.1651" fill="#0433FF" r="0.05"/>
<circle cx="-1.65" cy="1.6495" fill="#37BB00" r="0.05"/>
<circle cx="-1.5927" cy="3.2339" fill="#00A0DF" r="0.05"/>
<circle cx="1.5" cy="0.3505" fill="#0433FF" r="0.05"/>
<circle cx="0.1854" cy="0.9211" fill="#E16200" r="0.05"/>
<circle cx="-0.6" cy="0.3505" fill="#E16200" r="0.05"/>
<circle cx="-1.6794" cy="1.4641" fill="#37BB00" r="0.05"/>
<circle cx="1.2" cy="0.3505" fill="#0433FF" r="0.05"/>
<circle cx="0.9294" cy="0.5359" fill="#0433FF" r="0.05"/>
<circle cx="-0.6573" cy="1.3642" fill="#FFBE0E" r="0.05"/>
<circle cx="-0.2427" cy="0.5268" fill="#E16200" r="0.05"/>
<circle cx="-0.2646" cy="2.0022" fill="#FFBE0E" r="0.05"/>
<circle cx="2.0646" cy="-1.5192" fill="#C11A00" r="0.05"/>
<circle cx="2.4927" cy="-1.1249" fill="#C11A00" r="0.05"/>
<circle cx="-1.95" cy="1.6495" fill="#37BB00" r="0.05"/>
<circle cx="-1.8973" cy="1.1641" r="0.05"/>
<circle cx="-0.5706" cy="0.5359" fill="#E16200" r="0.05"/>
<circle cx="-1.0146" cy="2.5959" fill="#00A0DF" r="0.05"/>
<circle cx="1.5" cy="-0.2495" fill="#0433FF" r="0.05"/>
<circle cx="1.7427" cy="0.1741" fill="#0433FF" r="0.05"/>
<circle cx="-2.0706" cy="2.7631" fill="#00A0DF" r="0.05"/>
<circle cx="2.0706" cy="0.1651" fill="#0433FF" r="0.05"/>
<circle cx="-2.3427" cy="1.9348" fill="#37BB00" r="0.05"/>
<circle cx="-1.5" cy="3.5486" fill="#00A0DF" r="0.05"/>
<circle cx="-1.3206" cy="1.8349" fill="#FFBE0E" r="0.05"/>
<circle cx="-1.1027" cy="1.1641" fill="#FFBE0E" r="0.05"/>
<circle cx="2.6027" cy="-1.434" fill="#C11A00" r="0.05"/>
<circle cx="2.8206" cy="-0.7631" fill="#C11A00" r="0.05"/>
<circle cx="-0.1794" cy="1.4641" fill="#FFBE0E" r="0.05"/>
<circle cx="-2.8206" cy="1.8349" r="0.05"/>
<circle cx="0.1854" cy="-0.2202" fill="#E16200" r="0.05"/>
<circle cx="2.0073" cy="-0.7722" fill="#C11A00" r="0.05"/>
<circle cx="1.6794" cy="-0.7631" fill="#0433FF" r="0.05"/>
<circle cx="-2.0646" cy="1.0789" r="0.05"/>
<circle cx="-2.8206" cy="1.4641" fill="#37BB00" r="0.05"/>
<circle cx="-1.5927" cy="2.6632" fill="#00A0DF" r="0.05"/>
<circle cx="-0.75" cy="2.2495" fill="#FFBE0E" r="0.05"/>
<circle cx="1.0146" cy="-0.0022" fill="#0433FF" r="0.05"/>
<circle cx="-1.6854" cy="3.5192" fill="#00A0DF" r="0.05"/>
<circle cx="-1.5" cy="2.9486" fill="#00A0DF" r="0.05"/>
<circle cx="0.0927" cy="0.0652" fill="#E16200" r="0.05"/>
<circle cx="-0.2427" cy="0.1741" fill="#E16200" r="0.05"/>
<circle cx="1.5" cy="0.9505" fill="#0433FF" r="0.05"/>
<circle cx="2.4354" cy="-1.5192" fill="#C11A00" r="0.05"/>
<circle cx="1.7646" cy="-1.3012" fill="#C11A00" r="0.05"/>
<circle cx="-1.1473" cy="3.434" fill="#00A0DF" r="0.05"/>
<circle cx="-0.3" cy="0.3505" fill="#E16200" r="0.05"/>
<circle cx="-0.5706" cy="0.1651" fill="#E16200" r="0.05"/>
<circle cx="1.9854" cy="0.7032" fill="#0433FF" r="0.05"/>
<circle cx="-2.1573" cy="1.3642" fill="#37BB00" r="0.05"/>
<circle cx="-1.2573" cy="2.7722" fill="#00A0DF" r="0.05"/>
<circle cx="1.0146" cy="0.7032" fill="#0433FF" r="0.05"/>
<circle cx="2.8206" cy="-1.134" fill="#C11A00" r="0.05"/>
<circle cx="-0.45" cy="1.6495" fill="#FFBE0E" r="0.05"/>
<circle cx="-2.85" cy="1.6495" r="0.05"/>
<circle cx="1.8527" cy="-0.1349" fill="#0433FF" r="0.05"/>
<circle cx="-1.5" cy="2.3486" fill="#00A0DF" r="0.05"/>
<circle cx="-2.25" cy="2.2495" fill="#37BB00" r="0.05"/>
<circle cx="-0.4854" cy="-0.0022" fill="#E16200" r="0.05"/>
<circle cx="-1.6794" cy="1.8349" fill="#37BB00" r="0.05"/>
<circle cx="1.3146" cy="-0.2202" fill="#C11A00" r="0.05"/>
<circle cx="1.7427" cy="0.5268" fill="#0433FF" r="0.05"/>
<circle cx="-2.7354" cy="2.0022" r="0.05"/>
<circle cx="-1.2354" cy="2.0022" fill="#FFBE0E" r="0.05"/>
<circle cx="1.65" cy="-0.9486" fill="#C11A00" r="0.05"/>
<circle cx="-0.9354" cy="2.2202" fill="#FFBE0E" r="0.05"/>
<circle cx="-1.9854" cy="3.3012" fill="#00A0DF" r="0.05"/>
<circle cx="-0.9927" cy="1.4732" fill="#FFBE0E" r="0.05"/>
<circle cx="2.4927" cy="-0.7722" fill="#C11A00" r="0.05"/>
<circle cx="-1.8527" cy="2.4631" fill="#00A0DF" r="0.05"/>
<circle cx="2.7354" cy="-0.5959" fill="#C11A00" r="0.05"/>
<circle cx="-0.0927" cy="0.0652" fill="#E16200" r="0.05"/>
<circle cx="2.1" cy="0.3505" fill="#0433FF" r="0.05"/>
<circle cx="-1.7427" cy="3.1249" fill="#00A0DF" r="0.05"/>
<circle cx="1.8973" cy="-1.434" fill="#C11A00" r="0.05"/>
<circle cx="-0.15" cy="1.6495" fill="#FFBE0E" r="0.05"/>
<circle cx="-0.5073" cy="1.4732" fill="#FFBE0E" r="0.05"/>
</g>
<g fill="#00A0DF">
<line stroke="#00A0DF" stroke-width="0.01" x1="-1.4166666" x2="-1.375" y1="2.9485571" y2="2.9485571"/>
<line stroke="#00A0DF" stroke-width="0.01" x1="-1.375" x2="-1.2" y1="2.9485571" y2="2.9486"/>
<line stroke="#00A0DF" stroke-width="0.01" x1="-1.2" x2="-1.2573" y1="2.9486" y2="2.7722"/>
<polygon points="-1.35 2.9485633 -1.3874947 2.9269035 -1.3875053 2.9702048" stroke="black" stroke-width="0.005"/>
<text class="fleet" text-anchor="middle" x="-1.375" y="2.9610572">
492
</text>
<line stroke="#00A0DF" stroke-width="0.01" x1="-1.7041701" x2="-1.6854101" y1="2.387482" y2="2.3779233"/>
<polygon points="-1.6631349 2.3665736 -1.7063769 2.3643072 -1.6867186 2.402889" stroke="black" stroke-width="0.005"/>
<text class="fleet" text-anchor="middle" x="-1.6854101" y="2.3904233">
199
</text>
<line stroke="#00A0DF" stroke-width="0.01" x1="-1.1330143" x2="-1.1026711" y1="2.1512437" y2="2.1349292"/>
<polygon points="-1.0806521 2.1230903 -1.1239336 2.1217794 -1.1034279 2.1599178" stroke="black" stroke-width="0.005"/>
<text class="fleet" text-anchor="middle" x="-1.1026711" y="2.1474292">
125
</text>
<line stroke="#00A0DF" stroke-width="0.01" x1="-1.3285626" x2="-1.3040715" y1="2.7125938" y2="2.6788847"/>
<line stroke="#00A0DF" stroke-width="0.01" x1="-1.3040715" x2="-1.1473" y1="2.6788847" y2="2.4631"/>
<polygon points="-1.2893772 2.658659 -1.3289347 2.676272 -1.2939028 2.701723" stroke="black" stroke-width="0.005"/>
<text class="fleet" text-anchor="middle" x="-1.3040715" y="2.6913848">
1
</text>
<line stroke="#00A0DF" stroke-width="0.01" x1="-0.9260724" x2="-0.9293661" y1="2.7839425" y2="2.7631469"/>
<polygon points="-0.93327695 2.7384546 -0.9487948 2.77888 -0.9060266 2.7721062" stroke="black" stroke-width="0.005"/>
<text class="fleet" text-anchor="middle" x="-0.9293661" y="2.775647">
100
</text>
<line stroke="#00A0DF" stroke-width="0.01" x1="-1.5916667" x2="-1.55" y1="2.9485571" y2="2.9485571"/>
<line stroke="#00A0DF" stroke-width="0.01" x1="-1.55" x2="-1.5" y1="2.9485571" y2="2.9486"/>
<line stroke="#00A0DF" stroke-width="0.01" x1="-1.5" x2="-1.4073" y1="2.9486" y2="2.6632"/>
<line stroke="#00A0DF" stroke-width="0.01" x1="-1.4073" x2="-1.5" y1="2.6632" y2="2.9486"/>
<polygon points="-1.525 2.9485786 -1.5624814 2.9268959 -1.5625185 2.970197" stroke="black" stroke-width="0.005"/>
<text class="fleet" text-anchor="middle" x="-1.55" y="2.9610572">
101
</text>
<line stroke="#00A0DF" stroke-width="0.01" x1="-1.1419934" x2="-1.1473289" y1="2.423933" y2="2.463147"/>
<polygon points="-1.1506993 2.4879186 -1.1241907 2.45368 -1.1670966 2.4478421" stroke="black" stroke-width="0.005"/>
<text class="fleet" text-anchor="middle" x="-1.1473289" y="2.475647">
100
</text>
</g>
<g fill="#FFBE0E">
<line stroke="#FFBE0E" stroke-width="0.01" x1="-1.3232193" x2="-1.3206339" y1="1.8334738" y2="1.8349292"/>
<polygon points="-1.2988486 1.847193 -1.3209058 1.8099307 -1.3421472 1.847664" stroke="black" stroke-width="0.005"/>
<text class="fleet" text-anchor="middle" x="-1.3206339" y="1.8474293">
50
</text>
<line stroke="#FFBE0E" stroke-width="0.01" x1="-0.2713316" x2="-0.2645898" y1="1.3017461" y2="1.2968479"/>
<polygon points="-0.24436432 1.2821534 -0.2874284 1.2866795 -0.26197666 1.321711" stroke="black" stroke-width="0.005"/>
<text class="fleet" text-anchor="middle" x="-0.2645898" y="1.309348">
1
</text>
<line stroke="#FFBE0E" stroke-width="0.01" x1="-0.6895898" x2="-0.7312565" y1="2.2201529" y2="2.2201529"/>
<line stroke="#FFBE0E" stroke-width="0.01" x1="-0.7312565" x2="-0.9354" y1="2.2201529" y2="2.2202"/>
<polygon points="-0.75625646 2.2201586 -0.7187515 2.2418005 -0.7187615 2.1984994" stroke="black" stroke-width="0.005"/>
<text class="fleet" text-anchor="middle" x="-0.7312565" y="2.232653">
99
</text>
<line stroke="#FFBE0E" stroke-width="0.01" x1="-0.56716496" x2="-0.5645898" y1="1.0868106" y2="1.0788852"/>
<polygon points="-0.55686426 1.0551088 -0.5890435 1.0840828 -0.54786164 1.0974638" stroke="black" stroke-width="0.005"/>
<text class="fleet" text-anchor="middle" x="-0.5645898" y="1.0913852">
1
</text>
<line stroke="#FFBE0E" stroke-width="0.01" x1="-0.54437554" x2="-0.5645898" y1="1.0557067" y2="1.0788852"/>
<polygon points="-0.5810216 1.0977266 -0.5400568 1.0836949 -0.57269096 1.0552342" stroke="black" stroke-width="0.005"/>
<text class="fleet" text-anchor="middle" x="-0.5645898" y="1.0913852">
49
</text>
<line stroke="#FFBE0E" stroke-width="0.01" x1="-0.4944192" x2="-0.48154348" y1="1.7862272" y2="1.7465999"/>
<line stroke="#FFBE0E" stroke-width="0.01" x1="-0.48154348" x2="-0.45" y1="1.7465999" y2="1.6495"/>
<line stroke="#FFBE0E" stroke-width="0.01" x1="-0.45" x2="-0.2646" y1="1.6495" y2="1.2968"/>
<polygon points="-0.47381943 1.722823 -0.5059969 1.7517991 -0.46481416 1.7651776" stroke="black" stroke-width="0.005"/>
<text class="fleet" text-anchor="middle" x="-0.48154348" y="1.7591">
51
</text>
<line stroke="#FFBE0E" stroke-width="0.01" x1="-1.159308" x2="-1.2009587" y1="1.4685731" y2="1.4674206"/>
<line stroke="#FFBE0E" stroke-width="0.01" x1="-1.2009587" x2="-1.3206" y1="1.4674206" y2="1.4641"/>
<polygon points="-1.225949 1.466727 -1.1890643 1.4894097 -1.1878629 1.446125" stroke="black" stroke-width="0.005"/>
<text class="fleet" text-anchor="middle" x="-1.2009587" y="1.4799206">
75
</text>
<line stroke="#FFBE0E" stroke-width="0.01" x1="-0.96536815" x2="-0.9713598" y1="2.013985" y2="1.9727513"/>
<line stroke="#FFBE0E" stroke-width="0.01" x1="-0.9713598" x2="-0.9927" y1="1.9727513" y2="1.8259"/>
<polygon points="-0.97495496 1.9480112 -0.9909878 1.9882349 -0.94813657 1.9820077" stroke="black" stroke-width="0.005"/>
<text class="fleet" text-anchor="middle" x="-0.9713598" y="1.9852513">
1
</text>
<line stroke="#FFBE0E" stroke-width="0.01" x1="-1.1469461" x2="-1.1663352" y1="1.8339214" y2="1.8708019"/>
<line stroke="#FFBE0E" stroke-width="0.01" x1="-1.1663352" x2="-1.2354" y1="1.8708019" y2="2.0022"/>
<polygon points="-1.1779667 1.8929312 -1.1413549 1.8698105 -1.179684 1.8496641" stroke="black" stroke-width="0.005"/>
<text class="fleet" text-anchor="middle" x="-1.1663352" y="1.883302">
51
</text>
</g>
<g fill="#C11A00">
<line stroke="#C11A00" stroke-width="0.01" x1="2.1214373" x2="2.1459284" y1="-1.1845205" y2="-1.2182295"/>
<line stroke="#C11A00" stroke-width="0.01" x1="2.1459284" x2="2.1573" y1="-1.2182295" y2="-1.2339"/>
<line stroke="#C11A00" stroke-width="0.01" x1="2.1573" x2="2.25" y1="-1.2339" y2="-0.9486"/>
<polygon points="2.1606114 -1.2384633 2.121064 -1.2208287 2.1561098 -1.1953967" stroke="black" stroke-width="0.005"/>
<text class="fleet" text-anchor="middle" x="2.1459284" y="-1.2057295">
400
</text>
<line stroke="#C11A00" stroke-width="0.01" x1="1.6760724" x2="1.6793661" y1="-1.1131719" y2="-1.1339674"/>
<polygon points="1.683277 -1.1586596 1.6560266 -1.1250082 1.6987947 -1.1182343" stroke="black" stroke-width="0.005"/>
<text class="fleet" text-anchor="middle" x="1.6793661" y="-1.1214674">
1
</text>
<line stroke="#C11A00" stroke-width="0.01" x1="2.2680259" x2="2.2551503" y1="-1.0040355" y2="-0.9644081"/>
<line stroke="#C11A00" stroke-width="0.01" x1="2.2551503" x2="2.25" y1="-0.9644081" y2="-0.9486"/>
<polygon points="2.247406 -0.9406379 2.2796082 -0.9695864 2.238437 -0.98300004" stroke="black" stroke-width="0.005"/>
<text class="fleet" text-anchor="middle" x="2.2551503" y="-0.9519081">
100
</text>
<line stroke="#C11A00" stroke-width="0.01" x1="1.3176733" x2="1.3145899" y1="-0.21966457" y2="-0.22015296"/>
<line stroke="#C11A00" stroke-width="0.01" x1="1.3145899" x2="0.9294" y1="-0.22015296" y2="0.1651"/>
<polygon points="1.2969136 -0.20247383 1.3387386 -0.21368447 1.3081174 -0.24430057" stroke="black" stroke-width="0.005"/>
<text class="fleet" text-anchor="middle" x="1.3145899" y="-0.20765296">
100
</text>
<line stroke="#C11A00" stroke-width="0.01" x1="2.2666667" x2="2.25" y1="-0.94855714" y2="-0.94855714"/>
<polygon points="2.225 -0.94855714 2.2625 -0.9269065 2.2625 -0.97020775" stroke="black" stroke-width="0.005"/>
<text class="fleet" text-anchor="middle" x="2.25" y="-0.93605715">
392
</text>
<line stroke="#C11A00" stroke-width="0.01" x1="2.2707956" x2="2.25" y1="-0.35185084" y2="-0.34855717"/>
<polygon points="2.2253077 -0.34464636 2.265733 -0.3291285 2.2589593 -0.37189668" stroke="black" stroke-width="0.005"/>
<text class="fleet" text-anchor="middle" x="2.25" y="-0.3360572">
100
</text>
</g>
<g fill="#E16200">
<line stroke="#E16200" stroke-width="0.01" x1="-0.19490604" x2="-0.19171944" y1="0.7973149" y2="0.83885956"/>
<line stroke="#E16200" stroke-width="0.01" x1="-0.19171944" x2="-0.1854" y1="0.83885956" y2="0.9211"/>
<polygon points="-0.18980406 0.8637861 -0.17109014 0.82473755 -0.21426414 0.8280551" stroke="black" stroke-width="0.005"/>
<text class="fleet" text-anchor="middle" x="-0.19171944" y="0.85135955">
200
</text>
<line stroke="#E16200" stroke-width="0.01" x1="-0.16461472" x2="-0.1854102" y1="0.92440856" y2="0.92111486"/>
<polygon points="-0.21010241 0.91720396 -0.17645101 0.9444544 -0.16967717 0.90168625" stroke="black" stroke-width="0.005"/>
<text class="fleet" text-anchor="middle" x="-0.1854102" y="0.93361485">
100
</text>
<line stroke="#E16200" stroke-width="0.01" x1="-0.36755908" x2="-0.35267115" y1="0.82100326" y2="0.8358911"/>
<polygon points="-0.33499345 0.85356873 -0.34620073 0.81174296 -0.37681928 0.8423617" stroke="black" stroke-width="0.005"/>
<text class="fleet" text-anchor="middle" x="-0.35267115" y="0.8483911">
1
</text>
<line stroke="#E16200" stroke-width="0.01" x1="-0.10558081" x2="-0.11845651" y1="0.67542523" y2="0.7150526"/>
<line stroke="#E16200" stroke-width="0.01" x1="-0.11845651" x2="-0.1854" y1="0.7150526" y2="0.9211"/>
<polygon points="-0.12618138 0.7388292 -0.09400295 0.70985425 -0.13518523 0.6964744" stroke="black" stroke-width="0.005"/>
<text class="fleet" text-anchor="middle" x="-0.11845651" y="0.7275526">
104
</text>
<line stroke="#E16200" stroke-width="0.01" x1="0.49496883" x2="0.4854102" y1="0.01656966" y2="-0.0021902"/>
<polygon points="0.47406048 -0.024465369 0.47179425 0.018776566 0.510376 -0.000881793" stroke="black" stroke-width="0.005"/>
<text class="fleet" text-anchor="middle" x="0.4854102" y="0.0103098005">
1
</text>
<line stroke="#E16200" stroke-width="0.01" x1="-0.16461472" x2="-0.1854102" y1="0.92440856" y2="0.92111486"/>
<polygon points="-0.21010241 0.91720396 -0.17645101 0.9444544 -0.16967717 0.90168625" stroke="black" stroke-width="0.005"/>
<text class="fleet" text-anchor="middle" x="-0.1854102" y="0.93361485">
100
</text>
<line stroke="#E16200" stroke-width="0.01" x1="-0.39199337" x2="-0.39732885" y1="1.124895" y2="1.1641089"/>
<polygon points="-0.40069932 1.1888807 -0.37419066 1.1546419 -0.41709659 1.1488041" stroke="black" stroke-width="0.005"/>
<text class="fleet" text-anchor="middle" x="-0.39732885" y="1.1766089">
52
</text>
<line stroke="#E16200" stroke-width="0.01" x1="-0.09012996" x2="-0.0927051" y1="0.6278724" y2="0.6357979"/>
<line stroke="#E16200" stroke-width="0.01" x1="-0.0927051" x2="-0.1854" y1="0.6357979" y2="0.9211"/>
<polygon points="-0.10043012 0.65957445 -0.0682515 0.6305997 -0.10943369 0.61721957" stroke="black" stroke-width="0.005"/>
<text class="fleet" text-anchor="middle" x="-0.0927051" y="0.6482979">
454
</text>
</g>
<g fill="#0433FF">
<line stroke="#0433FF" stroke-width="0.01" x1="1.4902036" x2="1.5" y1="0.36396456" y2="0.35048094"/>
<polygon points="1.5146946 0.33025548 1.475137 0.3478678 1.5101684 0.37331957" stroke="black" stroke-width="0.005"/>
<text class="fleet" text-anchor="middle" x="1.5" y="0.36298093">
1
</text>
<line stroke="#0433FF" stroke-width="0.01" x1="1.6820288" x2="1.6483197" y1="0.21822926" y2="0.24272032"/>
<line stroke="#0433FF" stroke-width="0.01" x1="1.6483197" x2="1.5" y1="0.24272032" y2="0.3505"/>
<polygon points="1.6280955 0.25741667 1.6711593 0.2528868 1.6457044 0.2178575" stroke="black" stroke-width="0.005"/>
<text class="fleet" text-anchor="middle" x="1.6483197" y="0.25522032">
100
</text>
<line stroke="#0433FF" stroke-width="0.01" x1="1.5051503" x2="1.5" y1="0.33463" y2="0.35048094"/>
<polygon points="1.4922745 0.37425733 1.5244536 0.3452832 1.4832717 0.3319023" stroke="black" stroke-width="0.005"/>
<text class="fleet" text-anchor="middle" x="1.5" y="0.36298093">
50
</text>
<line stroke="#0433FF" stroke-width="0.01" x1="1.5097964" x2="1.5" y1="0.33699733" y2="0.35048094"/>
<polygon points="1.4853054 0.37070638 1.524863 0.3530941 1.4898316 0.32764232" stroke="black" stroke-width="0.005"/>
<text class="fleet" text-anchor="middle" x="1.5" y="0.36298093">
23
</text>
<line stroke="#0433FF" stroke-width="0.01" x1="0.4874154" x2="0.4854102" y1="0.70144635" y2="0.7031521"/>
<polygon points="0.46636808 0.7193508 0.5089598 0.71154374 0.48090282 0.6785618" stroke="black" stroke-width="0.005"/>
<text class="fleet" text-anchor="middle" x="0.4854102" y="0.7156521">
50
</text>
<line stroke="#0433FF" stroke-width="0.01" x1="1.4833333" x2="1.5" y1="0.35048094" y2="0.35048094"/>
<polygon points="1.525 0.35048094 1.4875 0.3288303 1.4875 0.3721316" stroke="black" stroke-width="0.005"/>
<text class="fleet" text-anchor="middle" x="1.5" y="0.36298093">
1
</text>
<line stroke="#0433FF" stroke-width="0.01" x1="1.5134836" x2="1.5" y1="0.34068453" y2="0.35048094"/>
<polygon points="1.4797746 0.36517555 1.5228386 0.36064938 1.4973868 0.32561788" stroke="black" stroke-width="0.005"/>
<text class="fleet" text-anchor="middle" x="1.5" y="0.36298093">
264
</text>
<line stroke="#0433FF" stroke-width="0.01" x1="1.3018632" x2="1.2622359" y1="0.4148595" y2="0.4277352"/>
<line stroke="#0433FF" stroke-width="0.01" x1="1.2622359" x2="0.9294" y1="0.4277352" y2="0.5359"/>
<line stroke="#0433FF" stroke-width="0.01" x1="0.9294" x2="0.4854" y1="0.5359" y2="0.7032"/>
<polygon points="1.2384598 0.4354619 1.2808154 0.44446248 1.2674323 0.40328124" stroke="black" stroke-width="0.005"/>
<text class="fleet" text-anchor="middle" x="1.2622359" y="0.4402352">
144
</text>
<line stroke="#0433FF" stroke-width="0.01" x1="0.8047882" x2="0.7730509" y1="0.43147296" y2="0.4584703"/>
<line stroke="#0433FF" stroke-width="0.01" x1="0.7730509" x2="0.4854" y1="0.4584703" y2="0.7032"/>
<polygon points="0.75400984 0.47467023 0.796601 0.4668604 0.76854193 0.4338803" stroke="black" stroke-width="0.005"/>
<text class="fleet" text-anchor="middle" x="0.7730509" y="0.4709703">
100
</text>
<line stroke="#0433FF" stroke-width="0.01" x1="1.0416666" x2="1" y1="0.35048094" y2="0.35048094"/>
<line stroke="#0433FF" stroke-width="0.01" x1="1" x2="0.9" y1="0.35048094" y2="0.3505"/>
<polygon points="0.975 0.3504857 1.0125041 0.3721292 1.0124959 0.32882792" stroke="black" stroke-width="0.005"/>
<text class="fleet" text-anchor="middle" x="1" y="0.36298093">
375
</text>
<line stroke="#0433FF" stroke-width="0.01" x1="1.7119566" x2="1.7184747" y1="-0.96891534" y2="-1.010069"/>
<line stroke="#0433FF" stroke-width="0.01" x1="1.7184747" x2="1.7646" y1="-1.010069" y2="-1.3012"/>
<polygon points="1.7223868 -1.0347611 1.6951348 -1.0011109 1.7379026 -0.99433506" stroke="black" stroke-width="0.005"/>
<text class="fleet" text-anchor="middle" x="1.7184747" y="-0.997569">
50
</text>
</g>
<g fill="#37BB00">
<line stroke="#37BB00" stroke-width="0.01" x1="-1.8529781" x2="-1.8824409" y1="1.2084595" y2="1.1789968"/>
<line stroke="#37BB00" stroke-width="0.01" x1="-1.8824409" x2="-1.8973" y1="1.1789968" y2="1.1641"/>
<line stroke="#37BB00" stroke-width="0.01" x1="-1.8973" x2="-2.0646" y1="1.1641" y2="1.0789"/>
<line stroke="#37BB00" stroke-width="0.01" x1="-2.0646" x2="-2.25" y1="1.0789" y2="1.0495"/>
<polygon points="-1.9000962 1.1612967 -1.888942 1.2031367 -1.8582846 1.1725569" stroke="black" stroke-width="0.005"/>
<text class="fleet" text-anchor="middle" x="-1.8824409" y="1.1914968">
1
</text>
<line stroke="#37BB00" stroke-width="0.01" x1="-2.546786" x2="-2.5839112" y1="2.1634042" y2="2.1444879"/>
<line stroke="#37BB00" stroke-width="0.01" x1="-2.5839112" x2="-2.6027" y1="2.1444879" y2="2.1349"/>
<line stroke="#37BB00" stroke-width="0.01" x1="-2.6027" x2="-2.7354" y1="2.1349" y2="2.0022"/>
<line stroke="#37BB00" stroke-width="0.01" x1="-2.7354" x2="-2.8206" y1="2.0022" y2="1.8349"/>
<line stroke="#37BB00" stroke-width="0.01" x1="-2.8206" x2="-2.85" y1="1.8349" y2="1.6495"/>
<polygon points="-2.6061795 2.1331246 -2.582618 2.1694543 -2.562936 2.1308846" stroke="black" stroke-width="0.005"/>
<text class="fleet" text-anchor="middle" x="-2.5839112" y="2.156988">
1
</text>
<line stroke="#37BB00" stroke-width="0.01" x1="-1.7794777" x2="-1.7645898" y1="2.0170782" y2="2.00219"/>
<polygon points="-1.7469122 1.9845123 -1.788738 1.9957198 -1.7581192 2.0263383" stroke="black" stroke-width="0.005"/>
<text class="fleet" text-anchor="middle" x="-1.7645898" y="2.0146902">
50
</text>
<line stroke="#37BB00" stroke-width="0.01" x1="-1.9533695" x2="-1.9125844" y1="1.4068309" y2="1.4153566"/>
<line stroke="#37BB00" stroke-width="0.01" x1="-1.9125844" x2="-1.6794" y1="1.4153566" y2="1.4641"/>
<polygon points="-1.8881134 1.4204719 -1.92039 1.3916065 -1.9292499 1.4339916" stroke="black" stroke-width="0.005"/>
<text class="fleet" text-anchor="middle" x="-1.9125844" y="1.4278567">
100
</text>
<line stroke="#37BB00" stroke-width="0.01" x1="-2.0224588" x2="-2.007295" y1="1.8368717" y2="1.8258547"/>
<polygon points="-1.9870694 1.8111601 -2.0301335 1.8156861 -2.0046818 1.8507177" stroke="black" stroke-width="0.005"/>
<text class="fleet" text-anchor="middle" x="-2.007295" y="1.8383547">
100
</text>
<line stroke="#37BB00" stroke-width="0.01" x1="-1.2554187" x2="-1.2365024" y1="1.4638927" y2="1.4267675"/>
<line stroke="#37BB00" stroke-width="0.01" x1="-1.2365024" x2="-1.1027" y1="1.4267675" y2="1.1641"/>
<polygon points="-1.2251549 1.4044912 -1.261468 1.4280784 -1.2228843 1.4477328" stroke="black" stroke-width="0.005"/>
<text class="fleet" text-anchor="middle" x="-1.2365024" y="1.4392675">
75
</text>
<line stroke="#37BB00" stroke-width="0.01" x1="-1.6532937" x2="-1.65" y1="1.6287236" y2="1.6495191"/>
<polygon points="-1.6460891 1.6742113 -1.6305714 1.633786 -1.6733395 1.64056" stroke="black" stroke-width="0.005"/>
<text class="fleet" text-anchor="middle" x="-1.65" y="1.6620191">
80
</text>
<line stroke="#37BB00" stroke-width="0.01" x1="-1.9583334" x2="-1.95" y1="1.6495191" y2="1.6495191"/>
<polygon points="-1.9250001 1.6495191 -1.9625001 1.6278684 -1.9625001 1.6711698" stroke="black" stroke-width="0.005"/>
<text class="fleet" text-anchor="middle" x="-1.95" y="1.6620191">
170
</text>
<line stroke="#37BB00" stroke-width="0.01" x1="-2.0224588" x2="-2.007295" y1="1.4621663" y2="1.4731835"/>
<polygon points="-1.9870695 1.4878781 -2.0046816 1.4483205 -2.0301335 1.483352" stroke="black" stroke-width="0.005"/>
<text class="fleet" text-anchor="middle" x="-2.007295" y="1.4856836">
101
</text>
</g>
<g class="star">
<text text-anchor="middle" x="-2.25" y="0.9745">
Chi
</text>
<text text-anchor="middle" x="-0.9927" y="1.7508999">
Asp
</text>
<text text-anchor="middle" x="2.6027" y="-0.5381">
Ricciardo
</text>
<text text-anchor="middle" x="-1.0146" y="3.2261999">
Ick
</text>
<text text-anchor="middle" x="-2.0646" y="2.1452">
Tab
</text>
<text text-anchor="middle" x="0.2427" y="0.09909999">
Alioth
</text>
<text text-anchor="middle" x="-0.9294" y="2.6880999">
Diphda
</text>
<text text-anchor="middle" x="1.6854" y="-0.2952">
Jaw
</text>
<text text-anchor="middle" x="-1.7427" y="2.6972">
Mud
</text>
<text text-anchor="middle" x="2.25" y="-0.42360002">
Jerry
</text>
<text text-anchor="middle" x="-1.4073" y="3.1589">
Haldus
</text>
<text text-anchor="middle" x="-2.4354" y="2.1452">
Spy
</text>
<text text-anchor="middle" x="0.3527" y="-0.2099">
Avior
</text>
<text text-anchor="middle" x="-2.6027" y="2.0599">
Mizar
</text>
<text text-anchor="middle" x="-2.4927" y="1.3981999">
Propus
</text>
<text text-anchor="middle" x="-2.0073" y="1.3981999">
Denebola
</text>
<text text-anchor="middle" x="-1.7646" y="1.9271998">
Syrma
</text>
<text text-anchor="middle" x="0.0927" y="0.5608">
Brachium
</text>
<text text-anchor="middle" x="2.85" y="-1.0236">
Prost
</text>
<text text-anchor="middle" x="2.55" y="-1.0236">
Hamilton
</text>
<text text-anchor="middle" x="1.3146" y="0.84610003">
Mimosa
</text>
<text text-anchor="middle" x="1.4073" y="-0.009800002">
Mebsuta
</text>
<text text-anchor="middle" x="2.1573" y="-0.7382">
Senna
</text>
<text text-anchor="middle" x="-1.8" y="2.8736">
Rukbat
</text>
<text text-anchor="middle" x="-0.75" y="0.9745">
Menkent
</text>
<text text-anchor="middle" x="1.8973" y="-0.5381">
Vettel
</text>
<text text-anchor="middle" x="-2.25" y="1.5745">
Castor
</text>
<text text-anchor="middle" x="-1.1027" y="2.0599">
Cox
</text>
<text text-anchor="middle" x="1.1473" y="-0.2099">
Merope
</text>
<text text-anchor="middle" x="-1.4073" y="2.5881999">
Neshmet
</text>
<text text-anchor="middle" x="-0.5646" y="2.1452">
TienKuan
</text>
<text text-anchor="middle" x="1.7646" y="-0.6709">
Adam Driver
</text>
<text text-anchor="middle" x="-1.2" y="2.8736">
Mintaka
</text>
<text text-anchor="middle" x="0.2427" y="0.4518">
Tegmen
</text>
<text text-anchor="middle" x="-2.0706" y="3.059">
Albali
</text>
<text text-anchor="middle" x="0.5706" y="0.4609">
Maasym
</text>
<text text-anchor="middle" x="-0.0927" y="0.5608">
Wow
</text>
<text text-anchor="middle" x="2.1573" y="-1.3089">
Verstappen
</text>
<text text-anchor="middle" x="-0.3973" y="2.0599">
Merak
</text>
<text text-anchor="middle" x="-2.7354" y="1.2218">
Tag
</text>
<text text-anchor="middle" x="2.25" y="-1.6236">
De Vries
</text>
<text text-anchor="middle" x="2.25" y="-1.0236">
Alonso
</text>
<text text-anchor="middle" x="-0.8427" y="1.8598">
Marfark
</text>
<text text-anchor="middle" x="-0.1854" y="-0.2952">
Praecipua
</text>
<text text-anchor="middle" x="-0.3527" y="-0.2099">
Alkes
</text>
<text text-anchor="middle" x="0" y="0.2755">
Arided
</text>
<text text-anchor="middle" x="1.1473" y="0.7609">
Rukh
</text>
<text text-anchor="middle" x="1.5927" y="-0.009800002">
Alya
</text>
<text text-anchor="middle" x="1.2573" y="0.4518">
Aladfar
</text>
<text text-anchor="middle" x="-2.4927" y="1.7508999">
Tic
</text>
<text text-anchor="middle" x="1.6854" y="0.84610003">
Keid
</text>
<text text-anchor="middle" x="-1.8527" y="3.359">
Minkar
</text>
<text text-anchor="middle" x="-0.4854" y="0.6282">
Misam
</text>
<text text-anchor="middle" x="-2.4354" y="1.0038999">
AlGiedi
</text>
<text text-anchor="middle" x="-2.1573" y="1.8598">
Algieba
</text>
<text text-anchor="middle" x="1.9854" y="-0.0772">
Aludra
</text>
<text text-anchor="middle" x="-0.1794" y="1.7599">
Sulafat
</text>
<text text-anchor="middle" x="2.0706" y="0.4609">
Adhara
</text>
<text text-anchor="middle" x="2.3427" y="-1.3089">
Petty
</text>
<text text-anchor="middle" x="1.6794" y="-1.209">
Earnhardt Jr
</text>
<text text-anchor="middle" x="-2.3427" y="1.2892">
Schedir
</text>
<text text-anchor="middle" x="-0.2646" y="1.2218">
Lanx
</text>
<text text-anchor="middle" x="0" y="-0.32450002">
Kaf
</text>
<text text-anchor="middle" x="2.0073" y="-1.1999">
Sainz
</text>
<text text-anchor="middle" x="1.5927" y="0.5608">
Alphecca
</text>
<text text-anchor="middle" x="0.6" y="0.2755">
Alzir
</text>
<text text-anchor="middle" x="-1.05" y="1.5745">
Sasin
</text>
<text text-anchor="middle" x="-1.7646" y="1.2218">
Alkalurops
</text>
<text text-anchor="middle" x="-0.3973" y="1.0891">
Dux
</text>
<text text-anchor="middle" x="-2.0073" y="1.7508999">
Sham
</text>
<text text-anchor="middle" x="1.2573" y="0.09909999">
Elnath
</text>
<text text-anchor="middle" x="1.4073" y="0.5608">
Decrux
</text>
<text text-anchor="middle" x="-1.9854" y="2.5209">
Arc
</text>
<text text-anchor="middle" x="-1.2573" y="3.0499">
Mira
</text>
<text text-anchor="middle" x="0.4854" y="0.6282">
Regor
</text>
<text text-anchor="middle" x="-2.6027" y="1.0891">
Sarin
</text>
<text text-anchor="middle" x="-0.1854" y="0.84610003">
TseenKee
</text>
<text text-anchor="middle" x="1.8" y="0.2755">
Enif
</text>
<text text-anchor="middle" x="-0.9" y="2.8736">
Sun
</text>
<text text-anchor="middle" x="-1.6854" y="2.3028998">
Alcor
</text>
<text text-anchor="middle" x="2.0646" y="-0.4529">
Leclerc
</text>
<text text-anchor="middle" x="-0.5646" y="1.0038999">
Regulus
</text>
<text text-anchor="middle" x="-1.3206" y="1.3891">
Mirzam
</text>
<text text-anchor="middle" x="2.7354" y="-1.3762001">
Latifi
</text>
<text text-anchor="middle" x="-1.3146" y="2.3028998">
Proxima
</text>
<text text-anchor="middle" x="-0.8427" y="1.2892">
Rub
</text>
<text text-anchor="middle" x="0.3527" y="0.7609">
Sadr
</text>
<text text-anchor="middle" x="1.95" y="-1.0236">
Labonte
</text>
<text text-anchor="middle" x="-2.1" y="2.8736">
Pug
</text>
<text text-anchor="middle" x="-1.3146" y="3.4442">
Media
</text>
<text text-anchor="middle" x="-0.9354" y="1.0038999">
Mac
</text>
<text text-anchor="middle" x="-1.1473" y="2.3881">
Yed
</text>
<text text-anchor="middle" x="1.8527" y="0.7609">
Alwaid
</text>
<text text-anchor="middle" x="2.4354" y="-0.4529">
Mansell
</text>
<text text-anchor="middle" x="-1.35" y="1.5745">
Sadalmelik
</text>
<text text-anchor="middle" x="0.4854" y="-0.0772">
Paw
</text>
<text text-anchor="middle" x="-1.2354" y="1.2218">
Dschubba
</text>
<text text-anchor="middle" x="0.5706" y="0.09009999">
Markab
</text>
<text text-anchor="middle" x="2.3427" y="-0.7382">
Gordon
</text>
<text text-anchor="middle" x="-0.9294" y="3.059">
Bam
</text>
<text text-anchor="middle" x="0.3" y="0.2755">
Ruchbah
</text>
<text text-anchor="middle" x="-0.3527" y="0.7609">
Polaris
</text>
<text text-anchor="middle" x="-0.6573" y="1.8598">
Imp
</text>
<text text-anchor="middle" x="-0.5073" y="1.7508999">
Zit
</text>
<text text-anchor="middle" x="0.9" y="0.2755">
Ras
</text>
<text text-anchor="middle" x="0" y="0.8755">
Korn
</text>
<text text-anchor="middle" x="-2.55" y="1.5745">
Dabih
</text>
<text text-anchor="middle" x="-0.75" y="1.5745">
Hassaleh
</text>
<text text-anchor="middle" x="-1.8973" y="2.0599">
Asellus
</text>
<text text-anchor="middle" x="0.9294" y="0.09009999">
Dheneb
</text>
<text text-anchor="middle" x="-1.65" y="1.5745">
Biham
</text>
<text text-anchor="middle" x="-1.5927" y="3.1589">
Mekbuda
</text>
<text text-anchor="middle" x="1.5" y="0.2755">
Acamar
</text>
<text text-anchor="middle" x="0.1854" y="0.84610003">
Pleione
</text>
<text text-anchor="middle" x="-0.6" y="0.2755">
Ale
</text>
<text text-anchor="middle" x="-1.6794" y="1.3891">
Errai
</text>
<text text-anchor="middle" x="1.2" y="0.2755">
Alcyone
</text>
<text text-anchor="middle" x="0.9294" y="0.4609">
Salm
</text>
<text text-anchor="middle" x="-0.6573" y="1.2892">
Menkib
</text>
<text text-anchor="middle" x="-0.2427" y="0.4518">
Menkalinan
</text>
<text text-anchor="middle" x="-0.2646" y="1.9271998">
Wazn
</text>
<text text-anchor="middle" x="2.0646" y="-1.5942">
Norris
</text>
<text text-anchor="middle" x="2.4927" y="-1.1999">
Stewart
</text>
<text text-anchor="middle" x="-1.95" y="1.5745">
Ksora
</text>
<text text-anchor="middle" x="-1.8973" y="1.0891">
Segin
</text>
<text text-anchor="middle" x="-0.5706" y="0.4609">
Pax
</text>
<text text-anchor="middle" x="-1.0146" y="2.5209">
Yay
</text>
<text text-anchor="middle" x="1.5" y="-0.32450002">
Theemin
</text>
<text text-anchor="middle" x="1.7427" y="0.09909999">
Vindemiatrix
</text>
<text text-anchor="middle" x="-2.0706" y="2.6880999">
Kaus
</text>
<text text-anchor="middle" x="2.0706" y="0.09009999">
Sadira
</text>
<text text-anchor="middle" x="-2.3427" y="1.8598">
Askella
</text>
<text text-anchor="middle" x="-1.5" y="3.4736">
Alniyat
</text>
<text text-anchor="middle" x="-1.3206" y="1.7599">
Becrux
</text>
<text text-anchor="middle" x="-1.1027" y="1.0891">
Pure Pax
</text>
<text text-anchor="middle" x="2.6027" y="-1.5090001">
Tony Hawk
</text>
<text text-anchor="middle" x="2.8206" y="-0.8381">
Jolyon
</text>
<text text-anchor="middle" x="-0.1794" y="1.3891">
Alfecca
</text>
<text text-anchor="middle" x="-2.8206" y="1.7599">
Sabik
</text>
<text text-anchor="middle" x="0.1854" y="-0.2952">
Arneb
</text>
<text text-anchor="middle" x="2.0073" y="-0.8472">
Schumacher
</text>
<text text-anchor="middle" x="1.6794" y="-0.8381">
Danica Patrick
</text>
<text text-anchor="middle" x="-2.0646" y="1.0038999">
Rotanev
</text>
<text text-anchor="middle" x="-2.8206" y="1.3891">
Zoo
</text>
<text text-anchor="middle" x="-1.5927" y="2.5881999">
Menchib
</text>
<text text-anchor="middle" x="-0.75" y="2.1745">
Arkab
</text>
<text text-anchor="middle" x="1.0146" y="-0.0772">
Eltanin
</text>
<text text-anchor="middle" x="-1.6854" y="3.4442">
Dnoces
</text>
<text text-anchor="middle" x="-1.5" y="2.8736">
Almach
</text>
<text text-anchor="middle" x="0.0927" y="-0.009800002">
Kleeia
</text>
<text text-anchor="middle" x="-0.2427" y="0.09909999">
Etamin
</text>
<text text-anchor="middle" x="1.5" y="0.8755">
Kit
</text>
<text text-anchor="middle" x="2.4354" y="-1.5942">
Johnson
</text>
<text text-anchor="middle" x="1.7646" y="-1.3762001">
Earnhardt
</text>
<text text-anchor="middle" x="-1.1473" y="3.359">
Sheliak
</text>
<text text-anchor="middle" x="-0.3" y="0.2755">
Koi
</text>
<text text-anchor="middle" x="-0.5706" y="0.09009999">
Elm
</text>
<text text-anchor="middle" x="1.9854" y="0.6282">
Fin
</text>
<text text-anchor="middle" x="-2.1573" y="1.2892">
Sky
</text>
<text text-anchor="middle" x="-1.2573" y="2.6972">
Talitha
</text>
<text text-anchor="middle" x="1.0146" y="0.6282">
Sargas
</text>
<text text-anchor="middle" x="2.8206" y="-1.209">
Tsunoda
</text>
<text text-anchor="middle" x="-0.45" y="1.5745">
Alnasl
</text>
<text text-anchor="middle" x="-2.85" y="1.5745">
Azimech
</text>
<text text-anchor="middle" x="1.8527" y="-0.2099">
Andretti
</text>
<text text-anchor="middle" x="-1.5" y="2.2735999">
Aldhanab
</text>
<text text-anchor="middle" x="-2.25" y="2.1745">
Garnet
</text>
<text text-anchor="middle" x="-0.4854" y="-0.0772">
Pherkad
</text>
<text text-anchor="middle" x="-1.6794" y="1.7599">
Wasat
</text>
<text text-anchor="middle" x="1.3146" y="-0.2952">
Grosjean
</text>
<text text-anchor="middle" x="1.7427" y="0.4518">
Kajam
</text>
<text text-anchor="middle" x="-2.7354" y="1.9271998">
Marfik
</text>
<text text-anchor="middle" x="-1.2354" y="1.9271998">
Cheleb
</text>
<text text-anchor="middle" x="1.65" y="-1.0236">
Earnhardt Jr Jr
</text>
<text text-anchor="middle" x="-0.9354" y="2.1452">
Gatria
</text>
<text text-anchor="middle" x="-1.9854" y="3.2261999">
SteropeII
</text>
<text text-anchor="middle" x="-0.9927" y="1.3981999">
Altais
</text>
<text text-anchor="middle" x="2.4927" y="-0.8472">
Villeneuve
</text>
<text text-anchor="middle" x="-1.8527" y="2.3881">
Tejat
</text>
<text text-anchor="middle" x="2.7354" y="-0.6709">
Perez
</text>
<text text-anchor="middle" x="-0.0927" y="-0.009800002">
Naos
</text>
<text text-anchor="middle" x="2.1" y="0.2755">
Alamak
</text>
<text text-anchor="middle" x="-1.7427" y="3.0499">
Caph
</text>
<text text-anchor="middle" x="1.8973" y="-1.5090001">
Ocon
</text>
<text text-anchor="middle" x="-0.15" y="1.5745">
Alpheratz
</text>
<text text-anchor="middle" x="-0.5073" y="1.3981999">
Murzim
</text>
</g>
</svg>