<svg viewBox="-3.4199998 -2.05832 6.84 6.11664" xmlns="http://www.w3.org/2000/svg">
<style>
.star { font: 0.05px sans-serif; fill: red; }
.fleet { font: 0.03px sans-serif; fill: white; }
</style>
<g fill="none" stroke="black" stroke-width="0.01">
<circle cx="-0.3973" cy="2.1349" fill="#FFBE0E" r="0.05"/>
<circle cx="0" cy="0.3505" fill="#0433FF" r="0.05"/>
<circle cx="0.5706" cy="0.5359" fill="#C11A00" r="0.05"/>
<circle cx="0.1854" cy="-0.2202" fill="#C11A00" r="0.05"/>
<circle cx="-1.2354" cy="1.2968" fill="#FFBE0E" r="0.05"/>
<circle cx="1.5" cy="-0.2495" fill="#0433FF" r="0.05"/>
<circle cx="2.6027" cy="-0.4631" fill="#C11A00" r="0.05"/>
<circle cx="2.8206" cy="-0.7631" fill="#C11A00" r="0.05"/>
<circle cx="1.8973" cy="-0.4631" fill="#C11A00" r="0.05"/>
<circle cx="2.1573" cy="-1.2339" fill="#C11A00" r="0.05"/>
<circle cx="1.8" cy="0.3505" fill="#0433FF" r="0.05"/>
<circle cx="-1.6854" cy="3.5192" fill="#00A0DF" r="0.05"/>
<circle cx="-0.3527" cy="0.8359" fill="#FFBE0E" r="0.05"/>
<circle cx="0.0927" cy="0.0652" fill="#C11A00" r="0.05"/>
<circle cx="1.6794" cy="-1.134" fill="#C11A00" r="0.05"/>
<circle cx="1.7427" cy="0.1741" fill="#0433FF" r="0.05"/>
<circle cx="-1.1473" cy="3.434" fill="#00A0DF" r="0.05"/>
<circle cx="-1.9854" cy="3.3012" fill="#00A0DF" r="0.05"/>
<circle cx="-2.1573" cy="1.3642" fill="#37BB00" r="0.05"/>
<circle cx="-0.6573" cy="1.3642" fill="#FFBE0E" r="0.05"/>
<circle cx="0.4854" cy="-0.0022" fill="#C11A00" r="0.05"/>
<circle cx="2.4354" cy="-0.3779" fill="#C11A00" r="0.05"/>
<circle cx="0.3527" cy="-0.1349" fill="#C11A00" r="0.05"/>
<circle cx="-0.5706" cy="0.5359" fill="#37BB00" r="0.05"/>
<circle cx="2.0646" cy="-1.5192" fill="#C11A00" r="0.05"/>
<circle cx="-0.75" cy="1.0495" fill="#37BB00" r="0.05"/>
<circle cx="-2.4927" cy="1.8259" fill="#37BB00" r="0.05"/>
<circle cx="-0.5646" cy="2.2202" fill="#FFBE0E" r="0.05"/>
<circle cx="-1.5927" cy="3.2339" fill="#00A0DF" r="0.05"/>
<circle cx="1.9854" cy="0.7032" fill="#0433FF" r="0.05"/>
<circle cx="1.2573" cy="0.1741" fill="#0433FF" r="0.05"/>
<circle cx="0.3527" cy="0.8359" fill="#C11A00" r="0.05"/>
<circle cx="0.2427" cy="0.1741" fill="#C11A00" r="0.05"/>
<circle cx="0.9" cy="0.3505" fill="#0433FF" r="0.05"/>
<circle cx="1.9854" cy="-0.0022" fill="#0433FF" r="0.05"/>
<circle cx="1.1473" cy="-0.1349" fill="#0433FF" r="0.05"/>
<circle cx="2.0073" cy="-1.1249" fill="#C11A00" r="0.05"/>
<circle cx="-1.95" cy="1.6495" fill="#37BB00" r="0.05"/>
<circle cx="-2.8206" cy="1.4641" fill="#37BB00" r="0.05"/>
<circle cx="-2.0706" cy="2.7631" fill="#00A0DF" r="0.05"/>
<circle cx="-2.25" cy="2.2495" fill="#37BB00" r="0.05"/>
<circle cx="-1.5" cy="2.3486" fill="#00A0DF" r="0.05"/>
<circle cx="0.9294" cy="0.5359" fill="#0433FF" r="0.05"/>
<circle cx="1.7646" cy="-0.5959" fill="#C11A00" r="0.05"/>
<circle cx="0.9294" cy="0.1651" fill="#C11A00" r="0.05"/>
<circle cx="-1.5927" cy="2.6632" fill="#00A0DF" r="0.05"/>
<circle cx="-2.6027" cy="2.1349" fill="#37BB00" r="0.05"/>
<circle cx="-1.8" cy="2.9486" fill="#00A0DF" r="0.05"/>
<circle cx="-1.8527" cy="3.434" fill="#00A0DF" r="0.05"/>
<circle cx="-0.5073" cy="1.4732" fill="#FFBE0E" r="0.05"/>
<circle cx="-0.5646" cy="1.0789" fill="#FFBE0E" r="0.05"/>
<circle cx="-0.1854" cy="-0.2202" fill="#C11A00" r="0.05"/>
<circle cx="2.0706" cy="0.5359" fill="#0433FF" r="0.05"/>
<circle cx="2.55" cy="-0.9486" fill="#C11A00" r="0.05"/>
<circle cx="-0.1854" cy="0.9211" fill="#FFBE0E" r="0.05"/>
<circle cx="-1.7427" cy="3.1249" fill="#00A0DF" r="0.05"/>
<circle cx="-1.3206" cy="1.4641" fill="#FFBE0E" r="0.05"/>
<circle cx="-1.2573" cy="3.1249" fill="#00A0DF" r="0.05"/>
<circle cx="-1.4073" cy="2.6632" fill="#00A0DF" r="0.05"/>
<circle cx="2.25" cy="-0.3486" fill="#C11A00" r="0.05"/>
<circle cx="-0.9294" cy="3.134" fill="#00A0DF" r="0.05"/>
<circle cx="-1.2" cy="2.9486" fill="#00A0DF" r="0.05"/>
<circle cx="2.4354" cy="-1.5192" fill="#C11A00" r="0.05"/>
<circle cx="-1.0146" cy="2.5959" fill="#00A0DF" r="0.05"/>
<circle cx="-1.8973" cy="1.1641" fill="#37BB00" r="0.05"/>
<circle cx="0.1854" cy="0.9211" fill="#C11A00" r="0.05"/>
<circle cx="-1.3146" cy="3.5192" fill="#00A0DF" r="0.05"/>
<circle cx="-0.45" cy="1.6495" fill="#FFBE0E" r="0.05"/>
<circle cx="-0.2646" cy="2.0022" fill="#FFBE0E" r="0.05"/>
<circle cx="2.25" cy="-1.5486" fill="#C11A00" r="0.05"/>
<circle cx="1.5" cy="0.9505" fill="#0433FF" r="0.05"/>
<circle cx="1.4073" cy="0.6358" fill="#0433FF" r="0.05"/>
<circle cx="2.4927" cy="-0.7722" fill="#C11A00" r="0.05"/>
<circle cx="-2.3427" cy="1.3642" fill="#37BB00" r="0.05"/>
<circle cx="-2.4927" cy="1.4732" fill="#37BB00" r="0.05"/>
<circle cx="2.25" cy="-0.9486" fill="#C11A00" r="0.05"/>
<circle cx="-0.75" cy="1.6495" fill="#FFBE0E" r="0.05"/>
<circle cx="-0.2427" cy="0.1741" fill="#C11A00" r="0.05"/>
<circle cx="-0.3973" cy="1.1641" fill="#FFBE0E" r="0.05"/>
<circle cx="-2.7354" cy="2.0022" fill="#37BB00" r="0.05"/>
<circle cx="-1.2573" cy="2.7722" fill="#00A0DF" r="0.05"/>
<circle cx="-1.6794" cy="1.4641" fill="#37BB00" r="0.05"/>
<circle cx="2.4927" cy="-1.1249" fill="#C11A00" r="0.05"/>
<circle cx="-0.3" cy="0.3505" fill="#C11A00" r="0.05"/>
<circle cx="0.0927" cy="0.6358" fill="#0433FF" r="0.05"/>
<circle cx="-2.25" cy="1.6495" fill="#37BB00" r="0.05"/>
<circle cx="2.0073" cy="-0.7722" fill="#C11A00" r="0.05"/>
<circle cx="1.7646" cy="-1.3012" fill="#0433FF" r="0.05"/>
<circle cx="1.8973" cy="-1.434" fill="#C11A00" r="0.05"/>
<circle cx="1.3146" cy="-0.2202" fill="#C11A00" r="0.05"/>
<circle cx="-2.4354" cy="2.2202" fill="#37BB00" r="0.05"/>
<circle cx="-2.1" cy="2.9486" fill="#00A0DF" r="0.05"/>
<circle cx="-1.35" cy="1.6495" fill="#37BB00" r="0.05"/>
<circle cx="2.3427" cy="-0.6632" fill="#C11A00" r="0.05"/>
<circle cx="2.7354" cy="-1.3012" fill="#C11A00" r="0.05"/>
<circle cx="1.0146" cy="0.7032" fill="#0433FF" r="0.05"/>
<circle cx="-2.0073" cy="1.4732" fill="#37BB00" r="0.05"/>
<circle cx="-0.9" cy="2.9486" fill="#00A0DF" r="0.05"/>
<circle cx="-1.1473" cy="2.4631" fill="#00A0DF" r="0.05"/>
<circle cx="2.3427" cy="-1.2339" fill="#C11A00" r="0.05"/>
<circle cx="1.65" cy="-0.9486" fill="#C11A00" r="0.05"/>
<circle cx="2.1573" cy="-0.6632" fill="#C11A00" r="0.05"/>
<circle cx="1.2573" cy="0.5268" fill="#0433FF" r="0.05"/>
<circle cx="-1.1027" cy="1.1641" fill="#37BB00" r="0.05"/>
<circle cx="1.6794" cy="-0.7631" fill="#0433FF" r="0.05"/>
<circle cx="-1.6794" cy="1.8349" fill="#37BB00" r="0.05"/>
<circle cx="-1.65" cy="1.6495" fill="#37BB00" r="0.05"/>
<circle cx="2.0646" cy="-0.3779" fill="#C11A00" r="0.05"/>
<circle cx="1.0146" cy="-0.0022" fill="#0433FF" r="0.05"/>
<circle cx="-0.8427" cy="1.3642" fill="#FFBE0E" r="0.05"/>
<circle cx="-0.9294" cy="2.7631" fill="#00A0DF" r="0.05"/>
<circle cx="-0.5073" cy="1.8259" fill="#FFBE0E" r="0.05"/>
<circle cx="-1.0146" cy="3.3012" fill="#00A0DF" r="0.05"/>
<circle cx="2.1" cy="0.3505" fill="#0433FF" r="0.05"/>
<circle cx="1.6854" cy="0.9211" fill="#0433FF" r="0.05"/>
<circle cx="-1.2354" cy="2.0022" fill="#FFBE0E" r="0.05"/>
<circle cx="1.5" cy="0.3505" fill="#0433FF" r="0.05"/>
<circle cx="-1.05" cy="1.6495" fill="#FFBE0E" r="0.05"/>
<circle cx="1.3146" cy="0.9211" fill="#0433FF" r="0.05"/>
<circle cx="-0.0927" cy="0.6358" fill="#0433FF" r="0.05"/>
<circle cx="0.6" cy="0.3505" fill="#0433FF" r="0.05"/>
<circle cx="0.4854" cy="0.7032" fill="#C11A00" r="0.05"/>
<circle cx="0.2427" cy="0.5268" fill="#0433FF" r="0.05"/>
<circle cx="-2.0073" cy="1.8259" fill="#37BB00" r="0.05"/>
<circle cx="-0.1794" cy="1.8349" fill="#FFBE0E" r="0.05"/>
<circle cx="1.1473" cy="0.8359" fill="#0433FF" r="0.05"/>
<circle cx="1.5927" cy="0.6358" fill="#0433FF" r="0.05"/>
<circle cx="-2.6027" cy="1.1641" fill="#37BB00" r="0.05"/>
<circle cx="0.3" cy="0.3505" fill="#0433FF" r="0.05"/>
<circle cx="-1.3206" cy="1.8349" fill="#FFBE0E" r="0.05"/>
<circle cx="-1.8973" cy="2.1349" fill="#37BB00" r="0.05"/>
<circle cx="-2.3427" cy="1.9348" fill="#37BB00" r="0.05"/>
<circle cx="-1.1027" cy="2.1349" fill="#00A0DF" r="0.05"/>
<circle cx="-0.6" cy="0.3505" fill="#0433FF" r="0.05"/>
<circle cx="0" cy="-0.2495" fill="#C11A00" r="0.05"/>
<circle cx="-1.5" cy="3.5486" fill="#00A0DF" r="0.05"/>
<circle cx="-1.5" cy="2.9486" fill="#00A0DF" r="0.05"/>
<circle cx="-0.9354" cy="2.2202" fill="#FFBE0E" r="0.05"/>
<circle cx="1.5927" cy="0.0652" fill="#0433FF" r="0.05"/>
<circle cx="-2.0646" cy="2.2202" fill="#37BB00" r="0.05"/>
<circle cx="-1.7646" cy="1.2968" fill="#37BB00" r="0.05"/>
<circle cx="-1.7646" cy="2.0022" fill="#37BB00" r="0.05"/>
<circle cx="1.6854" cy="-0.2202" fill="#0433FF" r="0.05"/>
<circle cx="-2.55" cy="1.6495" fill="#37BB00" r="0.05"/>
<circle cx="-0.1794" cy="1.4641" fill="#FFBE0E" r="0.05"/>
<circle cx="1.8527" cy="-0.1349" fill="#0433FF" r="0.05"/>
<circle cx="2.85" cy="-0.9486" fill="#C11A00" r="0.05"/>
<circle cx="-0.9927" cy="1.4732" fill="#FFBE0E" r="0.05"/>
<circle cx="-2.7354" cy="1.2968" fill="#37BB00" r="0.05"/>
<circle cx="-0.0927" cy="0.0652" fill="#C11A00" r="0.05"/>
<circle cx="2.0706" cy="0.1651" fill="#0433FF" r="0.05"/>
<circle cx="-2.1573" cy="1.9348" fill="#37BB00" r="0.05"/>
<circle cx="-2.85" cy="1.6495" fill="#37BB00" r="0.05"/>
<circle cx="-0.6573" cy="1.9348" fill="#FFBE0E" r="0.05"/>
<circle cx="-2.8206" cy="1.8349" fill="#37BB00" r="0.05"/>
<circle cx="-0.9927" cy="1.8259" fill="#FFBE0E" r="0.05"/>
<circle cx="2.7354" cy="-0.5959" fill="#C11A00" r="0.05"/>
<circle cx="-0.15" cy="1.6495" fill="#FFBE0E" r="0.05"/>
<circle cx="1.95" cy="-0.9486" fill="#C11A00" r="0.05"/>
<circle cx="-0.2427" cy="0.5268" fill="#0433FF" r="0.05"/>
<circle cx="-2.0646" cy="1.0789" fill="#37BB00" r="0.05"/>
<circle cx="-0.75" cy="2.2495" fill="#FFBE0E" r="0.05"/>
<circle cx="1.8527" cy="0.8359" fill="#0433FF" r="0.05"/>
<circle cx="1.2" cy="0.3505" fill="#0433FF" r="0.05"/>
<circle cx="-0.5706" cy="0.1651" fill="#0433FF" r="0.05"/>
<circle cx="-1.7427" cy="2.7722" fill="#00A0DF" r="0.05"/>
<circle cx="2.6027" cy="-1.434" fill="#C11A00" r="0.05"/>
<circle cx="-1.9854" cy="2.5959" fill="#00A0DF" r="0.05"/>
<circle cx="-1.8527" cy="2.4631" fill="#00A0DF" r="0.05"/>
<circle cx="-1.4073" cy="3.2339" fill="#00A0DF" r="0.05"/>
<circle cx="-0.9354" cy="1.0789" fill="#FFBE0E" r="0.05"/>
<circle cx="0.5706" cy="0.1651" fill="#C11A00" r="0.05"/>
<circle cx="-0.4854" cy="0.7032" fill="#37BB00" r="0.05"/>
<circle cx="-0.8427" cy="1.9348" fill="#FFBE0E" r="0.05"/>
<circle cx="1.7427" cy="0.5268" fill="#0433FF" r="0.05"/>
<circle cx="1.4073" cy="0.0652" fill="#0433FF" r="0.05"/>
<circle cx="-2.4354" cy="1.0789" fill="#37BB00" r="0.05"/>
<circle cx="-0.4854" cy="-0.0022" fill="#C11A00" r="0.05"/>
<circle cx="2.8206" cy="-1.134" fill="#C11A00" r="0.05"/>
<circle cx="-2.25" cy="1.0495" fill="#37BB00" r="0.05"/>
<circle cx="-0.3527" cy="-0.1349" fill="#C11A00" r="0.05"/>
<circle cx="-2.0706" cy="3.134" fill="#00A0DF" r="0.05"/>
<circle cx="-0.2646" cy="1.2968" fill="#FFBE0E" r="0.05"/>
<circle cx="-1.6854" cy="2.3779" fill="#00A0DF" r="0.05"/>
<circle cx="-1.3146" cy="2.3779" fill="#00A0DF" r="0.05"/>
<circle cx="0" cy="0.9505" fill="#C11A00" r="0.05"/>
</g>
<g fill="#00A0DF">
<line stroke="#00A0DF" stroke-width="0.01" x1="-0.5015028" x2="-0.5072949" y1="1.4910096" y2="1.4731835"/>
<polygon points="-0.5150204 1.4494071 -0.5240231 1.4917622 -0.4828412 1.4783813" stroke="black" stroke-width="0.005"/>
<text class="fleet" text-anchor="middle" x="-0.5072949" y="1.4856836">
759
</text>
<line stroke="#00A0DF" stroke-width="0.01" x1="-1.5927051" x2="-1.5798293" y1="2.6632402" y2="2.7028675"/>
<line stroke="#00A0DF" stroke-width="0.01" x1="-1.5798293" x2="-1.5" y1="2.7028675" y2="2.9486"/>
<polygon points="-1.5721052 2.7266443 -1.5631001 2.6842897 -1.6042827 2.6976686" stroke="black" stroke-width="0.005"/>
<text class="fleet" text-anchor="middle" x="-1.5798293" y="2.7153676">
14
</text>
<line stroke="#00A0DF" stroke-width="0.01" x1="-1.5404508" x2="-1.5067418" y1="2.919168" y2="2.943659"/>
<line stroke="#00A0DF" stroke-width="0.01" x1="-1.5067418" x2="-1.5" y1="2.943659" y2="2.9486"/>
<polygon points="-1.4865774 2.9584374 -1.5040256 2.918807 -1.5296223 2.9537327" stroke="black" stroke-width="0.005"/>
<text class="fleet" text-anchor="middle" x="-1.5067418" y="2.956159">
26
</text>
<line stroke="#00A0DF" stroke-width="0.01" x1="-1.4489616" x2="-1.4906282" y1="3.233874" y2="3.233874"/>
<line stroke="#00A0DF" stroke-width="0.01" x1="-1.4906282" x2="-1.5927" y1="3.233874" y2="3.2339"/>
<polygon points="-1.5156282 3.2338805 -1.4781227 3.2555215 -1.4781338 3.2122202" stroke="black" stroke-width="0.005"/>
<text class="fleet" text-anchor="middle" x="-1.4906282" y="3.2463741">
8
</text>
<line stroke="#00A0DF" stroke-width="0.01" x1="-1.291004" x2="-1.324713" y1="2.7967126" y2="2.8212037"/>
<line stroke="#00A0DF" stroke-width="0.01" x1="-1.324713" x2="-1.5" y1="2.8212037" y2="2.9486"/>
<polygon points="-1.344936 2.8359015 -1.3018727 2.8313684 -1.3273302 2.7963412" stroke="black" stroke-width="0.005"/>
<text class="fleet" text-anchor="middle" x="-1.324713" y="2.8337038">
46
</text>
<line stroke="#00A0DF" stroke-width="0.01" x1="-1.3032299" x2="-1.2824169" y1="2.4827595" y2="2.4466634"/>
<line stroke="#00A0DF" stroke-width="0.01" x1="-1.2824169" x2="-1.1027" y1="2.4466634" y2="2.1349"/>
<polygon points="-1.2699316 2.4250042 -1.3074169 2.4466803 -1.2699023 2.4683056" stroke="black" stroke-width="0.005"/>
<text class="fleet" text-anchor="middle" x="-1.2824169" y="2.4591634">
486
</text>
</g>
<g fill="#0433FF">
<line stroke="#0433FF" stroke-width="0.01" x1="0.1" x2="0" y1="0.35048094" y2="0.35048094"/>
<polygon points="-0.025 0.35048094 0.012500003 0.3721316 0.0124999955 0.3288303" stroke="black" stroke-width="0.005"/>
<text class="fleet" text-anchor="middle" x="0" y="0.36298093">
71
</text>
<line stroke="#0433FF" stroke-width="0.01" x1="-0.07396157" x2="-0.0927051" y1="0.6357979" y2="0.6357979"/>
<polygon points="-0.1177051 0.6357979 -0.0802051 0.65744853 -0.080205105 0.6141473" stroke="black" stroke-width="0.005"/>
<text class="fleet" text-anchor="middle" x="-0.0927051" y="0.6482979">
97
</text>
<line stroke="#0433FF" stroke-width="0.01" x1="1.25" x2="1.2" y1="0.35048094" y2="0.35048094"/>
<polygon points="1.1750001 0.35048094 1.2125001 0.3721316 1.2125001 0.3288303" stroke="black" stroke-width="0.005"/>
<text class="fleet" text-anchor="middle" x="1.2" y="0.36298093">
159
</text>
<line stroke="#0433FF" stroke-width="0.01" x1="0.1" x2="0" y1="0.35048094" y2="0.35048094"/>
<polygon points="-0.025 0.35048094 0.012500003 0.3721316 0.0124999955 0.3288303" stroke="black" stroke-width="0.005"/>
<text class="fleet" text-anchor="middle" x="0" y="0.36298093">
752
</text>
<line stroke="#0433FF" stroke-width="0.01" x1="0.5" x2="0.6" y1="0.35048094" y2="0.35048094"/>
<polygon points="0.625 0.35048094 0.58750004 0.3288303 0.58750004 0.3721316" stroke="black" stroke-width="0.005"/>
<text class="fleet" text-anchor="middle" x="0.6" y="0.36298093">
1
</text>
<line stroke="#0433FF" stroke-width="0.01" x1="1.2" x2="1.2128757" y1="0.35048094" y2="0.3901083"/>
<line stroke="#0433FF" stroke-width="0.01" x1="1.2128757" x2="1.2573" y1="0.3901083" y2="0.5268"/>
<polygon points="1.2206028 0.41388416 1.2296027 0.3715285 1.1884217 0.3849122" stroke="black" stroke-width="0.005"/>
<text class="fleet" text-anchor="middle" x="1.2128757" y="0.40260828">
1
</text>
<line stroke="#0433FF" stroke-width="0.01" x1="-0.5934819" x2="-0.5869638" y1="0.39163464" y2="0.4327883"/>
<line stroke="#0433FF" stroke-width="0.01" x1="-0.5869638" x2="-0.5706" y1="0.4327883" y2="0.5359"/>
<polygon points="-0.5830453 0.45747933 -0.56754 0.41704932 -0.610306 0.4238363" stroke="black" stroke-width="0.005"/>
<text class="fleet" text-anchor="middle" x="-0.5869638" y="0.4452883">
36
</text>
<line stroke="#0433FF" stroke-width="0.01" x1="1.7484971" x2="1.7427051" y1="0.19197153" y2="0.17414537"/>
<polygon points="1.7349797 0.15036894 1.7259768 0.19272396 1.7671587 0.17934322" stroke="black" stroke-width="0.005"/>
<text class="fleet" text-anchor="middle" x="1.7427051" y="0.18664537">
49
</text>
</g>
<g fill="#E16200"/>
<g fill="#37BB00">
<line stroke="#37BB00" stroke-width="0.01" x1="-1.1988308" x2="-1.1618665" y1="1.2141316" y2="1.1949027"/>
<line stroke="#37BB00" stroke-width="0.01" x1="-1.1618665" x2="-1.1027" y1="1.1949027" y2="1.1641"/>
<polygon points="-1.1396917 1.1833582 -1.1829518 1.1814709 -1.1629562 1.2198789" stroke="black" stroke-width="0.005"/>
<text class="fleet" text-anchor="middle" x="-1.1618665" y="1.2074027">
1
</text>
<line stroke="#37BB00" stroke-width="0.01" x1="-2.1598701" x2="-2.157295" y1="1.3721275" y2="1.3642021"/>
<polygon points="-2.1495695 1.3404257 -2.1817486 1.3693998 -2.1405668 1.3827808" stroke="black" stroke-width="0.005"/>
<text class="fleet" text-anchor="middle" x="-2.157295" y="1.3767022">
11
</text>
<line stroke="#37BB00" stroke-width="0.01" x1="-0.5855649" x2="-0.6189498" y1="0.7779454" y2="0.8028765"/>
<line stroke="#37BB00" stroke-width="0.01" x1="-0.6189498" x2="-1.1027" y1="0.8028765" y2="1.1641"/>
<polygon points="-0.6389813 0.8178343 -0.5959801 0.81274533 -0.62188786 0.7780497" stroke="black" stroke-width="0.005"/>
<text class="fleet" text-anchor="middle" x="-0.6189498" y="0.81537646">
1
</text>
<line stroke="#37BB00" stroke-width="0.01" x1="-2.7354102" x2="-2.7354102" y1="1.2968479" y2="1.2968479"/>
<line stroke="#37BB00" stroke-width="0.01" x1="-2.7354102" x2="-2.8206" y1="1.2968479" y2="1.4641"/>
<line stroke="#37BB00" stroke-width="0.01" x1="-2.8206" x2="-2.55" y1="1.4641" y2="1.6495"/>
<line stroke="#37BB00" stroke-width="0.01" x1="-2.55" x2="-2.25" y1="1.6495" y2="1.6495"/>
<line stroke="#37BB00" stroke-width="0.01" x1="-2.25" x2="-2.4927" y1="1.6495" y2="1.4732"/>
<line stroke="#37BB00" stroke-width="0.01" x1="-2.4927" x2="-2.7354" y1="1.4732" y2="1.2968"/>
<polygon points="-2.7467568 1.3191247 -2.7104447 1.295536 -2.7490292 1.2758831" stroke="black" stroke-width="0.005"/>
<text class="fleet" text-anchor="middle" x="-2.7354102" y="1.309348">
4
</text>
<line stroke="#37BB00" stroke-width="0.01" x1="-1.695217" x2="-1.6793661" y1="1.4692591" y2="1.4641088"/>
<polygon points="-1.6555897 1.4563833 -1.6979448 1.4473807 -1.6845639 1.4885626" stroke="black" stroke-width="0.005"/>
<text class="fleet" text-anchor="middle" x="-1.6793661" y="1.4766089">
1
</text>
<line stroke="#37BB00" stroke-width="0.01" x1="-0.49706414" x2="-0.4854102" y1="0.7184079" y2="0.7031521"/>
<polygon points="-0.47023404 0.6832855 -0.5102033 0.6999425 -0.47579327 0.7262284" stroke="black" stroke-width="0.005"/>
<text class="fleet" text-anchor="middle" x="-0.4854102" y="0.7156521">
1
</text>
<line stroke="#37BB00" stroke-width="0.01" x1="-0.93935484" x2="-0.9354102" y1="1.0809277" y2="1.0788852"/>
<polygon points="-0.9132098 1.0673898 -0.95646566 1.0654068 -0.9365551 1.103859" stroke="black" stroke-width="0.005"/>
<text class="fleet" text-anchor="middle" x="-0.9354102" y="1.0913852">
671
</text>
</g>
<g fill="#FFBE0E">
<line stroke="#FFBE0E" stroke-width="0.01" x1="-0.9859633" x2="-0.9927051" y1="1.4780817" y2="1.4731835"/>
<polygon points="-1.0129306 1.458489 -0.99531823 1.4980465 -0.9698665 1.4630151" stroke="black" stroke-width="0.005"/>
<text class="fleet" text-anchor="middle" x="-0.9927051" y="1.4856836">
1
</text>
<line stroke="#FFBE0E" stroke-width="0.01" x1="-1.2906153" x2="-1.3206339" y1="1.4846745" y2="1.4641088"/>
<polygon points="-1.341258 1.4499793 -1.3225584 1.4890347 -1.2980852 1.4533125" stroke="black" stroke-width="0.005"/>
<text class="fleet" text-anchor="middle" x="-1.3206339" y="1.4766089">
26
</text>
<line stroke="#FFBE0E" stroke-width="0.01" x1="-0.3771146" x2="-0.39732885" y1="1.1409304" y2="1.1641089"/>
<polygon points="-0.41376066 1.1829503 -0.37279588 1.1689186 -0.40543005 1.1404579" stroke="black" stroke-width="0.005"/>
<text class="fleet" text-anchor="middle" x="-0.39732885" y="1.1766089">
148
</text>
<line stroke="#FFBE0E" stroke-width="0.01" x1="-0.54100394" x2="-0.574713" y1="1.4486924" y2="1.4242014"/>
<line stroke="#FFBE0E" stroke-width="0.01" x1="-0.574713" x2="-0.6573" y1="1.4242014" y2="1.3642"/>
<line stroke="#FFBE0E" stroke-width="0.01" x1="-0.6573" x2="-0.8427" y1="1.3642" y2="1.3642"/>
<line stroke="#FFBE0E" stroke-width="0.01" x1="-0.8427" x2="-0.6573" y1="1.3642" y2="1.3642"/>
<line stroke="#FFBE0E" stroke-width="0.01" x1="-0.6573" x2="-0.5073" y1="1.3642" y2="1.4732"/>
<polygon points="-0.5949386 1.409507 -0.5773259 1.4490645 -0.5518745 1.4140327" stroke="black" stroke-width="0.005"/>
<text class="fleet" text-anchor="middle" x="-0.574713" y="1.4367014">
368
</text>
<line stroke="#FFBE0E" stroke-width="0.01" x1="-0.925" x2="-0.8833333" y1="1.6495191" y2="1.6495191"/>
<line stroke="#FFBE0E" stroke-width="0.01" x1="-0.8833333" x2="-0.75" y1="1.6495191" y2="1.6495"/>
<polygon points="-0.85833335 1.6495155 -0.8958364 1.6278702 -0.8958302 1.6711715" stroke="black" stroke-width="0.005"/>
<text class="fleet" text-anchor="middle" x="-0.8833333" y="1.6620191">
1
</text>
<line stroke="#FFBE0E" stroke-width="0.01" x1="-0.8979231" x2="-0.9354102" y1="2.2201529" y2="2.2201529"/>
<polygon points="-0.9604102 2.2201529 -0.9229102 2.2418034 -0.9229102 2.1985023" stroke="black" stroke-width="0.005"/>
<text class="fleet" text-anchor="middle" x="-0.9354102" y="2.232653">
1
</text>
<line stroke="#FFBE0E" stroke-width="0.01" x1="-0.4344541" x2="-0.4715794" y1="2.1538455" y2="2.1727617"/>
<line stroke="#FFBE0E" stroke-width="0.01" x1="-0.4715794" x2="-0.5646" y1="2.1727617" y2="2.2202"/>
<line stroke="#FFBE0E" stroke-width="0.01" x1="-0.5646" x2="-0.1794" y1="2.2202" y2="1.8349"/>
<line stroke="#FFBE0E" stroke-width="0.01" x1="-0.1794" x2="-0.2646" y1="1.8349" y2="2.0022"/>
<line stroke="#FFBE0E" stroke-width="0.01" x1="-0.2646" x2="-0.3973" y1="2.0022" y2="2.1349"/>
<polygon points="-0.4938505 2.1841195 -0.45060775 2.1863701 -0.47027996 2.1477954" stroke="black" stroke-width="0.005"/>
<text class="fleet" text-anchor="middle" x="-0.4715794" y="2.1852617">
44
</text>
<line stroke="#FFBE0E" stroke-width="0.01" x1="-0.9927051" x2="-0.9927051" y1="1.7231835" y2="1.7648501"/>
<line stroke="#FFBE0E" stroke-width="0.01" x1="-0.9927051" x2="-0.9927" y1="1.7648501" y2="1.8259"/>
<line stroke="#FFBE0E" stroke-width="0.01" x1="-0.9927" x2="-1.05" y1="1.8259" y2="1.6495"/>
<line stroke="#FFBE0E" stroke-width="0.01" x1="-1.05" x2="-0.9927" y1="1.6495" y2="1.4732"/>
<polygon points="-0.992703 1.7898501 -0.9710555 1.7523483 -1.0143569 1.752352" stroke="black" stroke-width="0.005"/>
<text class="fleet" text-anchor="middle" x="-0.9927051" y="1.7773502">
49
</text>
<line stroke="#FFBE0E" stroke-width="0.01" x1="-1.0995877" x2="-1.1026711" y1="1.1636205" y2="1.1641089"/>
<polygon points="-1.1273633 1.1680199 -1.086938 1.1835374 -1.0937122 1.1407692" stroke="black" stroke-width="0.005"/>
<text class="fleet" text-anchor="middle" x="-1.1026711" y="1.1766089">
1
</text>
<line stroke="#FFBE0E" stroke-width="0.01" x1="-1.2245029" x2="-1.2354102" y1="1.9814433" y2="2.00219"/>
<polygon points="-1.2470437 2.0243185 -1.2104298 2.001201 -1.2487571 1.981051" stroke="black" stroke-width="0.005"/>
<text class="fleet" text-anchor="middle" x="-1.2354102" y="2.0146902">
1
</text>
<line stroke="#FFBE0E" stroke-width="0.01" x1="-0.47449106" x2="-0.4989821" y1="1.6832281" y2="1.7169372"/>
<line stroke="#FFBE0E" stroke-width="0.01" x1="-0.4989821" x2="-0.6573" y1="1.7169372" y2="1.9348"/>
<line stroke="#FFBE0E" stroke-width="0.01" x1="-0.6573" x2="-0.5073" y1="1.9348" y2="1.8259"/>
<line stroke="#FFBE0E" stroke-width="0.01" x1="-0.5073" x2="-0.45" y1="1.8259" y2="1.6495"/>
<polygon points="-0.5136786 1.7371613 -0.4741193 1.7195528 -0.50914836 1.6940976" stroke="black" stroke-width="0.005"/>
<text class="fleet" text-anchor="middle" x="-0.4989821" y="1.7294372">
64
</text>
<line stroke="#FFBE0E" stroke-width="0.01" x1="-0.35800663" x2="-0.35267115" y1="0.875105" y2="0.8358911"/>
<polygon points="-0.34930068 0.8111194 -0.37580934 0.84535813 -0.33290341 0.85119593" stroke="black" stroke-width="0.005"/>
<text class="fleet" text-anchor="middle" x="-0.35267115" y="0.8483911">
124
</text>
<line stroke="#FFBE0E" stroke-width="0.01" x1="-0.20417006" x2="-0.1854102" y1="0.91155624" y2="0.92111486"/>
<polygon points="-0.16313504 0.9324646 -0.18671861 0.8961491 -0.20637695 0.9347308" stroke="black" stroke-width="0.005"/>
<text class="fleet" text-anchor="middle" x="-0.1854102" y="0.93361485">
125
</text>
</g>
<g fill="#C11A00">
<line stroke="#C11A00" stroke-width="0.01" x1="1.4745077" x2="1.5064913" y1="-0.35367838" y2="-0.3803835"/>
<line stroke="#C11A00" stroke-width="0.01" x1="1.5064913" x2="1.7646" y1="-0.3803835" y2="-0.5959"/>
<line stroke="#C11A00" stroke-width="0.01" x1="1.7646" x2="1.3146" y1="-0.5959" y2="-0.2202"/>
<polygon points="1.5256813 -0.39640677 1.4830197 -0.38899082 1.510773 -0.35575286" stroke="black" stroke-width="0.005"/>
<text class="fleet" text-anchor="middle" x="1.5064913" y="-0.3678835">
1
</text>
<line stroke="#C11A00" stroke-width="0.01" x1="1.4047197" x2="1.4175955" y1="0.05723852" y2="0.09686588"/>
<line stroke="#C11A00" stroke-width="0.01" x1="1.4175955" x2="1.5" y1="0.09686588" y2="0.3505"/>
<polygon points="1.4253204 0.12064246 1.4343241 0.078287624 1.393142 0.091667555" stroke="black" stroke-width="0.005"/>
<text class="fleet" text-anchor="middle" x="1.4175955" y="0.10936588">
261
</text>
<line stroke="#C11A00" stroke-width="0.01" x1="0.41371107" x2="0.40719295" y1="0.45050028" y2="0.49165398"/>
<line stroke="#C11A00" stroke-width="0.01" x1="0.40719295" x2="0.3527" y1="0.49165398" y2="0.8359"/>
<line stroke="#C11A00" stroke-width="0.01" x1="0.3527" x2="0" y1="0.8359" y2="0.9505"/>
<polygon points="0.4032842 0.5163465 0.43053168 0.48269278 0.38776293 0.47592264" stroke="black" stroke-width="0.005"/>
<text class="fleet" text-anchor="middle" x="0.40719295" y="0.50415397">
100
</text>
<line stroke="#C11A00" stroke-width="0.01" x1="0.16854522" x2="0.20225425" y1="0.8280257" y2="0.8035346"/>
<line stroke="#C11A00" stroke-width="0.01" x1="0.20225425" x2="0.5706" y1="0.8035346" y2="0.5359"/>
<polygon points="0.22247927 0.7888394 0.17941533 0.79336685 0.20486817 0.8283976" stroke="black" stroke-width="0.005"/>
<text class="fleet" text-anchor="middle" x="0.20225425" y="0.8160346">
1
</text>
<line stroke="#C11A00" stroke-width="0.01" x1="-0.10186323" x2="-0.06223587" y1="0.2861024" y2="0.2732267"/>
<line stroke="#C11A00" stroke-width="0.01" x1="-0.06223587" x2="0.2427" y1="0.2732267" y2="0.1741"/>
<polygon points="-0.038460534 0.26549795 -0.08081683 0.25650105 -0.06743025 0.29768112" stroke="black" stroke-width="0.005"/>
<text class="fleet" text-anchor="middle" x="-0.06223587" y="0.2857267">
1
</text>
<line stroke="#C11A00" stroke-width="0.01" x1="1.7764372" x2="1.7554501" y1="-0.37627444" y2="-0.34027925"/>
<line stroke="#C11A00" stroke-width="0.01" x1="1.7554501" x2="1.6854" y1="-0.34027925" y2="-0.2202"/>
<line stroke="#C11A00" stroke-width="0.01" x1="1.6854" x2="1.5" y1="-0.2202" y2="0.3505"/>
<line stroke="#C11A00" stroke-width="0.01" x1="1.5" x2="1.2" y1="0.3505" y2="0.3505"/>
<line stroke="#C11A00" stroke-width="0.01" x1="1.2" x2="0.6" y1="0.3505" y2="0.3505"/>
<line stroke="#C11A00" stroke-width="0.01" x1="0.6" x2="0" y1="0.3505" y2="0.3505"/>
<polygon points="1.7428528 -0.31868508 1.7804499 -0.34016675 1.7430477 -0.36198592" stroke="black" stroke-width="0.005"/>
<text class="fleet" text-anchor="middle" x="1.7554501" y="-0.32777926">
93
</text>
<line stroke="#C11A00" stroke-width="0.01" x1="0.00674181" x2="0" y1="0.34558275" y2="0.35048094"/>
<polygon points="-0.020225454 0.36517555 0.022838619 0.3606494 -0.0026131694 0.32561788" stroke="black" stroke-width="0.005"/>
<text class="fleet" text-anchor="middle" x="0" y="0.36298093">
250
</text>
<line stroke="#C11A00" stroke-width="0.01" x1="-0.17669648" x2="-0.20118754" y1="0.43596345" y2="0.4696725"/>
<line stroke="#C11A00" stroke-width="0.01" x1="-0.20118754" x2="-0.2427" y1="0.4696725" y2="0.5268"/>
<polygon points="-0.21588378 0.48989677 -0.1763247 0.47228768 -0.21135415 0.44683307" stroke="black" stroke-width="0.005"/>
<text class="fleet" text-anchor="middle" x="-0.20118754" y="0.4821725">
99
</text>
<line stroke="#C11A00" stroke-width="0.01" x1="0.8930571" x2="0.85674816" y1="0.18551017" y2="0.2059496"/>
<line stroke="#C11A00" stroke-width="0.01" x1="0.85674816" x2="0.6" y1="0.2059496" y2="0.3505"/>
<polygon points="0.8349635 0.21821448 0.8782622 0.21868326 0.8570188 0.18095107" stroke="black" stroke-width="0.005"/>
<text class="fleet" text-anchor="middle" x="0.85674816" y="0.21844961">
215
</text>
<line stroke="#C11A00" stroke-width="0.01" x1="-0.07396157" x2="-0.0927051" y1="0.6357979" y2="0.6357979"/>
<polygon points="-0.1177051 0.6357979 -0.0802051 0.65744853 -0.080205105 0.6141473" stroke="black" stroke-width="0.005"/>
<text class="fleet" text-anchor="middle" x="-0.0927051" y="0.6482979">
56
</text>
<line stroke="#C11A00" stroke-width="0.01" x1="2.0477457" x2="2.007295" y1="-0.8016108" y2="-0.77222157"/>
<line stroke="#C11A00" stroke-width="0.01" x1="2.007295" x2="2.25" y1="-0.77222157" y2="-0.9486"/>
<line stroke="#C11A00" stroke-width="0.01" x1="2.25" x2="2.0073" y1="-0.9486" y2="-0.7722"/>
<polygon points="2.0275185 -0.7869185 1.9844551 -0.7823873 2.009911 -0.7473588" stroke="black" stroke-width="0.005"/>
<text class="fleet" text-anchor="middle" x="2.007295" y="-0.7597216">
1
</text>
<line stroke="#C11A00" stroke-width="0.01" x1="-0.35267115" x2="-0.38213393" y1="-0.13492925" y2="-0.10546647"/>
<line stroke="#C11A00" stroke-width="0.01" x1="-0.38213393" x2="-0.4854" y1="-0.10546647" y2="-0.0022"/>
<line stroke="#C11A00" stroke-width="0.01" x1="-0.4854" x2="-0.3527" y1="-0.0022" y2="0.8359"/>
<polygon points="-0.39981157 -0.08778877 -0.35798576 -0.09899604 -0.38860446 -0.1296146" stroke="black" stroke-width="0.005"/>
<text class="fleet" text-anchor="middle" x="-0.38213393" y="-0.09296647">
100
</text>
<line stroke="#C11A00" stroke-width="0.01" x1="1.8657169" x2="1.899426" y1="-0.66935915" y2="-0.6938502"/>
<line stroke="#C11A00" stroke-width="0.01" x1="1.899426" x2="2.0073" y1="-0.6938502" y2="-0.7722"/>
<line stroke="#C11A00" stroke-width="0.01" x1="2.0073" x2="1.7646" y1="-0.7722" y2="-0.5959"/>
<polygon points="1.9196537 -0.70854175 1.876589 -0.7040221 1.9020354 -0.6689868" stroke="black" stroke-width="0.005"/>
<text class="fleet" text-anchor="middle" x="1.899426" y="-0.68135023">
1
</text>
<line stroke="#C11A00" stroke-width="0.01" x1="1.1699814" x2="1.2" y1="0.32991531" y2="0.35048094"/>
<polygon points="1.2206242 0.36461046 1.2019244 0.32555512 1.1774515 0.36127725" stroke="black" stroke-width="0.005"/>
<text class="fleet" text-anchor="middle" x="1.2" y="0.36298093">
1
</text>
<line stroke="#C11A00" stroke-width="0.01" x1="1.6046718" x2="1.5726883" y1="-0.4623606" y2="-0.4356555"/>
<line stroke="#C11A00" stroke-width="0.01" x1="1.5726883" x2="1.3146" y1="-0.4356555" y2="-0.2202"/>
<line stroke="#C11A00" stroke-width="0.01" x1="1.3146" x2="1.7646" y1="-0.2202" y2="-0.5959"/>
<polygon points="1.5534968 -0.41963413 1.596159 -0.42704582 1.5684092 -0.46028656" stroke="black" stroke-width="0.005"/>
<text class="fleet" text-anchor="middle" x="1.5726883" y="-0.42315552">
216
</text>
</g>
<g class="star">
<text text-anchor="middle" x="-0.3973" y="2.0599">
Merak
</text>
<text text-anchor="middle" x="0" y="0.2755">
Arided
</text>
<text text-anchor="middle" x="0.5706" y="0.4609">
Clarkson
</text>
<text text-anchor="middle" x="0.1854" y="-0.2952">
Baby
</text>
<text text-anchor="middle" x="-1.2354" y="1.2218">
Dschubba
</text>
<text text-anchor="middle" x="1.5" y="-0.32450002">
Theemin
</text>
<text text-anchor="middle" x="2.6027" y="-0.5381">
Ricciardo
</text>
<text text-anchor="middle" x="2.8206" y="-0.8381">
Jolyon
</text>
<text text-anchor="middle" x="1.8973" y="-0.5381">
Vettel
</text>
<text text-anchor="middle" x="2.1573" y="-1.3089">
Verstappen
</text>
<text text-anchor="middle" x="1.8" y="0.2755">
Enif
</text>
<text text-anchor="middle" x="-1.6854" y="3.4442">
Dnoces
</text>
<text text-anchor="middle" x="-0.3527" y="0.7609">
Polaris
</text>
<text text-anchor="middle" x="0.0927" y="-0.009800002">
Gisele
</text>
<text text-anchor="middle" x="1.6794" y="-1.209">
Earnhardt Jr
</text>
<text text-anchor="middle" x="1.7427" y="0.09909999">
Vindemiatrix
</text>
<text text-anchor="middle" x="-1.1473" y="3.359">
Sheliak
</text>
<text text-anchor="middle" x="-1.9854" y="3.2261999">
SteropeII
</text>
<text text-anchor="middle" x="-2.1573" y="1.2892">
Sky
</text>
<text text-anchor="middle" x="-0.6573" y="1.2892">
Menkib
</text>
<text text-anchor="middle" x="0.4854" y="-0.0772">
Pile
</text>
<text text-anchor="middle" x="2.4354" y="-0.4529">
Mansell
</text>
<text text-anchor="middle" x="0.3527" y="-0.2099">
Roman
</text>
<text text-anchor="middle" x="-0.5706" y="0.4609">
Pax
</text>
<text text-anchor="middle" x="2.0646" y="-1.5942">
Norris
</text>
<text text-anchor="middle" x="-0.75" y="0.9745">
Menkent
</text>
<text text-anchor="middle" x="-2.4927" y="1.7508999">
Tic
</text>
<text text-anchor="middle" x="-0.5646" y="2.1452">
TienKuan
</text>
<text text-anchor="middle" x="-1.5927" y="3.1589">
Mekbuda
</text>
<text text-anchor="middle" x="1.9854" y="0.6282">
Fin
</text>
<text text-anchor="middle" x="1.2573" y="0.09909999">
Elnath
</text>
<text text-anchor="middle" x="0.3527" y="0.7609">
May
</text>
<text text-anchor="middle" x="0.2427" y="0.09909999">
Han SeoulO
</text>
<text text-anchor="middle" x="0.9" y="0.2755">
Ras
</text>
<text text-anchor="middle" x="1.9854" y="-0.0772">
Aludra
</text>
<text text-anchor="middle" x="1.1473" y="-0.2099">
Merope
</text>
<text text-anchor="middle" x="2.0073" y="-1.1999">
Sainz
</text>
<text text-anchor="middle" x="-1.95" y="1.5745">
Ksora
</text>
<text text-anchor="middle" x="-2.8206" y="1.3891">
Zoo
</text>
<text text-anchor="middle" x="-2.0706" y="2.6880999">
Kaus
</text>
<text text-anchor="middle" x="-2.25" y="2.1745">
Garnet
</text>
<text text-anchor="middle" x="-1.5" y="2.2735999">
Aldhanab
</text>
<text text-anchor="middle" x="0.9294" y="0.4609">
Salm
</text>
<text text-anchor="middle" x="1.7646" y="-0.6709">
Adam Driver
</text>
<text text-anchor="middle" x="0.9294" y="0.09009999">
RIP Paul Walker
</text>
<text text-anchor="middle" x="-1.5927" y="2.5881999">
Menchib
</text>
<text text-anchor="middle" x="-2.6027" y="2.0599">
Mizar
</text>
<text text-anchor="middle" x="-1.8" y="2.8736">
Rukbat
</text>
<text text-anchor="middle" x="-1.8527" y="3.359">
Minkar
</text>
<text text-anchor="middle" x="-0.5073" y="1.3981999">
Murzim
</text>
<text text-anchor="middle" x="-0.5646" y="1.0038999">
Regulus
</text>
<text text-anchor="middle" x="-0.1854" y="-0.2952">
Jason Momoa
</text>
<text text-anchor="middle" x="2.0706" y="0.4609">
Adhara
</text>
<text text-anchor="middle" x="2.55" y="-1.0236">
Hamilton
</text>
<text text-anchor="middle" x="-0.1854" y="0.84610003">
TseenKee
</text>
<text text-anchor="middle" x="-1.7427" y="3.0499">
Caph
</text>
<text text-anchor="middle" x="-1.3206" y="1.3891">
Mirzam
</text>
<text text-anchor="middle" x="-1.2573" y="3.0499">
Mira
</text>
<text text-anchor="middle" x="-1.4073" y="2.5881999">
Neshmet
</text>
<text text-anchor="middle" x="2.25" y="-0.42360002">
Jerry
</text>
<text text-anchor="middle" x="-0.9294" y="3.059">
Bam
</text>
<text text-anchor="middle" x="-1.2" y="2.8736">
Mintaka
</text>
<text text-anchor="middle" x="2.4354" y="-1.5942">
Johnson
</text>
<text text-anchor="middle" x="-1.0146" y="2.5209">
Yay
</text>
<text text-anchor="middle" x="-1.8973" y="1.0891">
Segin
</text>
<text text-anchor="middle" x="0.1854" y="0.84610003">
Letty Ortiz
</text>
<text text-anchor="middle" x="-1.3146" y="3.4442">
Media
</text>
<text text-anchor="middle" x="-0.45" y="1.5745">
Alnasl
</text>
<text text-anchor="middle" x="-0.2646" y="1.9271998">
Wazn
</text>
<text text-anchor="middle" x="2.25" y="-1.6236">
De Vries
</text>
<text text-anchor="middle" x="1.5" y="0.8755">
Kit
</text>
<text text-anchor="middle" x="1.4073" y="0.5608">
Decrux
</text>
<text text-anchor="middle" x="2.4927" y="-0.8472">
Villeneuve
</text>
<text text-anchor="middle" x="-2.3427" y="1.2892">
Schedir
</text>
<text text-anchor="middle" x="-2.4927" y="1.3981999">
Propus
</text>
<text text-anchor="middle" x="2.25" y="-1.0236">
Alonso
</text>
<text text-anchor="middle" x="-0.75" y="1.5745">
Hassaleh
</text>
<text text-anchor="middle" x="-0.2427" y="0.09909999">
Hobbs
</text>
<text text-anchor="middle" x="-0.3973" y="1.0891">
Dux
</text>
<text text-anchor="middle" x="-2.7354" y="1.9271998">
Marfik
</text>
<text text-anchor="middle" x="-1.2573" y="2.6972">
Talitha
</text>
<text text-anchor="middle" x="-1.6794" y="1.3891">
Errai
</text>
<text text-anchor="middle" x="2.4927" y="-1.1999">
Stewart
</text>
<text text-anchor="middle" x="-0.3" y="0.2755">
Tej
</text>
<text text-anchor="middle" x="0.0927" y="0.5608">
Tenuerit
</text>
<text text-anchor="middle" x="-2.25" y="1.5745">
Castor
</text>
<text text-anchor="middle" x="2.0073" y="-0.8472">
Schumacher
</text>
<text text-anchor="middle" x="1.7646" y="-1.3762001">
Earnhardt
</text>
<text text-anchor="middle" x="1.8973" y="-1.5090001">
Ocon
</text>
<text text-anchor="middle" x="1.3146" y="-0.2952">
Grosjean
</text>
<text text-anchor="middle" x="-2.4354" y="2.1452">
Spy
</text>
<text text-anchor="middle" x="-2.1" y="2.8736">
Pug
</text>
<text text-anchor="middle" x="-1.35" y="1.5745">
Sadalmelik
</text>
<text text-anchor="middle" x="2.3427" y="-0.7382">
Gordon
</text>
<text text-anchor="middle" x="2.7354" y="-1.3762001">
Latifi
</text>
<text text-anchor="middle" x="1.0146" y="0.6282">
Sargas
</text>
<text text-anchor="middle" x="-2.0073" y="1.3981999">
Denebola
</text>
<text text-anchor="middle" x="-0.9" y="2.8736">
Sun
</text>
<text text-anchor="middle" x="-1.1473" y="2.3881">
Yed
</text>
<text text-anchor="middle" x="2.3427" y="-1.3089">
Petty
</text>
<text text-anchor="middle" x="1.65" y="-1.0236">
Earnhardt Jr Jr
</text>
<text text-anchor="middle" x="2.1573" y="-0.7382">
Senna
</text>
<text text-anchor="middle" x="1.2573" y="0.4518">
Aladfar
</text>
<text text-anchor="middle" x="-1.1027" y="1.0891">
Pure Pax
</text>
<text text-anchor="middle" x="1.6794" y="-0.8381">
Danica Patrick
</text>
<text text-anchor="middle" x="-1.6794" y="1.7599">
Wasat
</text>
<text text-anchor="middle" x="-1.65" y="1.5745">
Biham
</text>
<text text-anchor="middle" x="2.0646" y="-0.4529">
Leclerc
</text>
<text text-anchor="middle" x="1.0146" y="-0.0772">
Eltanin
</text>
<text text-anchor="middle" x="-0.8427" y="1.2892">
Rub
</text>
<text text-anchor="middle" x="-0.9294" y="2.6880999">
Diphda
</text>
<text text-anchor="middle" x="-0.5073" y="1.7508999">
Zit
</text>
<text text-anchor="middle" x="-1.0146" y="3.2261999">
Ick
</text>
<text text-anchor="middle" x="2.1" y="0.2755">
Alamak
</text>
<text text-anchor="middle" x="1.6854" y="0.84610003">
Keid
</text>
<text text-anchor="middle" x="-1.2354" y="1.9271998">
Cheleb
</text>
<text text-anchor="middle" x="1.5" y="0.2755">
Acamar
</text>
<text text-anchor="middle" x="-1.05" y="1.5745">
Sasin
</text>
<text text-anchor="middle" x="1.3146" y="0.84610003">
Mimosa
</text>
<text text-anchor="middle" x="-0.0927" y="0.5608">
Elons Mistakes Mistake
</text>
<text text-anchor="middle" x="0.6" y="0.2755">
Alzir
</text>
<text text-anchor="middle" x="0.4854" y="0.6282">
Hammond
</text>
<text text-anchor="middle" x="0.2427" y="0.4518">
Tegmen
</text>
<text text-anchor="middle" x="-2.0073" y="1.7508999">
Sham
</text>
<text text-anchor="middle" x="-0.1794" y="1.7599">
Sulafat
</text>
<text text-anchor="middle" x="1.1473" y="0.7609">
Rukh
</text>
<text text-anchor="middle" x="1.5927" y="0.5608">
Alphecca
</text>
<text text-anchor="middle" x="-2.6027" y="1.0891">
Sarin
</text>
<text text-anchor="middle" x="0.3" y="0.2755">
Qui
</text>
<text text-anchor="middle" x="-1.3206" y="1.7599">
Becrux
</text>
<text text-anchor="middle" x="-1.8973" y="2.0599">
Asellus
</text>
<text text-anchor="middle" x="-2.3427" y="1.8598">
Askella
</text>
<text text-anchor="middle" x="-1.1027" y="2.0599">
Cox
</text>
<text text-anchor="middle" x="-0.6" y="0.2755">
Ale
</text>
<text text-anchor="middle" x="0" y="-0.32450002">
Ramsey
</text>
<text text-anchor="middle" x="-1.5" y="3.4736">
Alniyat
</text>
<text text-anchor="middle" x="-1.5" y="2.8736">
Almach
</text>
<text text-anchor="middle" x="-0.9354" y="2.1452">
Gatria
</text>
<text text-anchor="middle" x="1.5927" y="-0.009800002">
Alya
</text>
<text text-anchor="middle" x="-2.0646" y="2.1452">
Tab
</text>
<text text-anchor="middle" x="-1.7646" y="1.2218">
Alkalurops
</text>
<text text-anchor="middle" x="-1.7646" y="1.9271998">
Syrma
</text>
<text text-anchor="middle" x="1.6854" y="-0.2952">
Jaw
</text>
<text text-anchor="middle" x="-2.55" y="1.5745">
Dabih
</text>
<text text-anchor="middle" x="-0.1794" y="1.3891">
Alfecca
</text>
<text text-anchor="middle" x="1.8527" y="-0.2099">
Andretti
</text>
<text text-anchor="middle" x="2.85" y="-1.0236">
Prost
</text>
<text text-anchor="middle" x="-0.9927" y="1.3981999">
Altais
</text>
<text text-anchor="middle" x="-2.7354" y="1.2218">
Tag
</text>
<text text-anchor="middle" x="-0.0927" y="-0.009800002">
Shaw
</text>
<text text-anchor="middle" x="2.0706" y="0.09009999">
Sadira
</text>
<text text-anchor="middle" x="-2.1573" y="1.8598">
Algieba
</text>
<text text-anchor="middle" x="-2.85" y="1.5745">
Azimech
</text>
<text text-anchor="middle" x="-0.6573" y="1.8598">
Imp
</text>
<text text-anchor="middle" x="-2.8206" y="1.7599">
Sabik
</text>
<text text-anchor="middle" x="-0.9927" y="1.7508999">
Asp
</text>
<text text-anchor="middle" x="2.7354" y="-0.6709">
Perez
</text>
<text text-anchor="middle" x="-0.15" y="1.5745">
Alpheratz
</text>
<text text-anchor="middle" x="1.95" y="-1.0236">
Labonte
</text>
<text text-anchor="middle" x="-0.2427" y="0.4518">
Terram
</text>
<text text-anchor="middle" x="-2.0646" y="1.0038999">
Rotanev
</text>
<text text-anchor="middle" x="-0.75" y="2.1745">
Arkab
</text>
<text text-anchor="middle" x="1.8527" y="0.7609">
Alwaid
</text>
<text text-anchor="middle" x="1.2" y="0.2755">
Alcyone
</text>
<text text-anchor="middle" x="-0.5706" y="0.09009999">
Elm
</text>
<text text-anchor="middle" x="-1.7427" y="2.6972">
Mud
</text>
<text text-anchor="middle" x="2.6027" y="-1.5090001">
Toretto
</text>
<text text-anchor="middle" x="-1.9854" y="2.5209">
Arc
</text>
<text text-anchor="middle" x="-1.8527" y="2.3881">
Tejat
</text>
<text text-anchor="middle" x="-1.4073" y="3.1589">
Haldus
</text>
<text text-anchor="middle" x="-0.9354" y="1.0038999">
Mac
</text>
<text text-anchor="middle" x="0.5706" y="0.09009999">
Diesel
</text>
<text text-anchor="middle" x="-0.4854" y="0.6282">
Misam
</text>
<text text-anchor="middle" x="-0.8427" y="1.8598">
Marfark
</text>
<text text-anchor="middle" x="1.7427" y="0.4518">
Kajam
</text>
<text text-anchor="middle" x="1.4073" y="-0.009800002">
Mebsuta
</text>
<text text-anchor="middle" x="-2.4354" y="1.0038999">
AlGiedi
</text>
<text text-anchor="middle" x="-0.4854" y="-0.0772">
Speed Racer
</text>
<text text-anchor="middle" x="2.8206" y="-1.209">
Tsunoda
</text>
<text text-anchor="middle" x="-2.25" y="0.9745">
Chi
</text>
<text text-anchor="middle" x="-0.3527" y="-0.2099">
Racer X
</text>
<text text-anchor="middle" x="-2.0706" y="3.059">
Albali
</text>
<text text-anchor="middle" x="-0.2646" y="1.2218">
Lanx
</text>
<text text-anchor="middle" x="-1.6854" y="2.3028998">
Alcor
</text>
<text text-anchor="middle" x="-1.3146" y="2.3028998">
Proxima
</text>
<text text-anchor="middle" x="0" y="0.8755">
Mia
</text>
</g>
</svg>