<svg viewBox="-3.4199998 -2.05832 6.84 6.11664" xmlns="http://www.w3.org/2000/svg">
<style>
.star { font: 0.05px sans-serif; fill: red; }
.fleet { font: 0.03px sans-serif; fill: white; }
</style>
<g fill="none" stroke="black" stroke-width="0.01">
<circle cx="-1.8527" cy="3.434" fill="#00A0DF" r="0.05"/>
<circle cx="-0.3973" cy="2.1349" fill="#FFBE0E" r="0.05"/>
<circle cx="-1.8973" cy="2.1349" fill="#37BB00" r="0.05"/>
<circle cx="-1.7427" cy="3.1249" fill="#00A0DF" r="0.05"/>
<circle cx="-0.1794" cy="1.4641" fill="#FFBE0E" r="0.05"/>
<circle cx="-0.75" cy="2.2495" fill="#FFBE0E" r="0.05"/>
<circle cx="-1.95" cy="1.6495" fill="#37BB00" r="0.05"/>
<circle cx="1.6794" cy="-0.7631" fill="#0433FF" r="0.05"/>
<circle cx="1.4073" cy="0.6358" fill="#0433FF" r="0.05"/>
<circle cx="-1.2573" cy="2.7722" fill="#00A0DF" r="0.05"/>
<circle cx="0.4854" cy="0.7032" fill="#0433FF" r="0.05"/>
<circle cx="-2.0073" cy="1.8259" fill="#37BB00" r="0.05"/>
<circle cx="2.25" cy="-1.5486" fill="#C11A00" r="0.05"/>
<circle cx="-2.0073" cy="1.4732" fill="#37BB00" r="0.05"/>
<circle cx="-2.4927" cy="1.8259" fill="#37BB00" r="0.05"/>
<circle cx="1.6854" cy="-0.2202" fill="#0433FF" r="0.05"/>
<circle cx="2.1573" cy="-1.2339" fill="#C11A00" r="0.05"/>
<circle cx="-0.1854" cy="0.9211" fill="#E16200" r="0.05"/>
<circle cx="-1.4073" cy="3.2339" fill="#00A0DF" r="0.05"/>
<circle cx="-2.0646" cy="2.2202" fill="#37BB00" r="0.05"/>
<circle cx="0.3" cy="0.3505" fill="#E16200" r="0.05"/>
<circle cx="-1.6794" cy="1.4641" fill="#37BB00" r="0.05"/>
<circle cx="-0.9294" cy="3.134" fill="#00A0DF" r="0.05"/>
<circle cx="1.8527" cy="-0.1349" fill="#0433FF" r="0.05"/>
<circle cx="-0.8427" cy="1.3642" fill="#FFBE0E" r="0.05"/>
<circle cx="-1.5" cy="3.5486" fill="#00A0DF" r="0.05"/>
<circle cx="2.6027" cy="-1.434" fill="#C11A00" r="0.05"/>
<circle cx="2.4927" cy="-1.1249" fill="#C11A00" r="0.05"/>
<circle cx="-0.0927" cy="0.0652" fill="#E16200" r="0.05"/>
<circle cx="2.0073" cy="-0.7722" fill="#C11A00" r="0.05"/>
<circle cx="-1.35" cy="1.6495" fill="#37BB00" r="0.05"/>
<circle cx="-0.2646" cy="1.2968" fill="#FFBE0E" r="0.05"/>
<circle cx="2.25" cy="-0.3486" fill="#C11A00" r="0.05"/>
<circle cx="2.55" cy="-0.9486" fill="#C11A00" r="0.05"/>
<circle cx="2.4927" cy="-0.7722" fill="#C11A00" r="0.05"/>
<circle cx="-1.8527" cy="2.4631" fill="#00A0DF" r="0.05"/>
<circle cx="-1.2354" cy="1.2968" fill="#FFBE0E" r="0.05"/>
<circle cx="2.0706" cy="0.1651" fill="#0433FF" r="0.05"/>
<circle cx="-1.3206" cy="1.4641" fill="#FFBE0E" r="0.05"/>
<circle cx="0.2427" cy="0.1741" fill="#E16200" r="0.05"/>
<circle cx="-2.6027" cy="1.1641" fill="#37BB00" r="0.05"/>
<circle cx="-1.5" cy="2.9486" fill="#00A0DF" r="0.05"/>
<circle cx="-1.3146" cy="2.3779" fill="#00A0DF" r="0.05"/>
<circle cx="-2.3427" cy="1.9348" fill="#37BB00" r="0.05"/>
<circle cx="-2.7354" cy="1.2968" fill="#37BB00" r="0.05"/>
<circle cx="1.9854" cy="0.7032" fill="#0433FF" r="0.05"/>
<circle cx="2.4354" cy="-1.5192" fill="#C11A00" r="0.05"/>
<circle cx="0.5706" cy="0.1651" fill="#E16200" r="0.05"/>
<circle cx="-1.9854" cy="2.5959" fill="#00A0DF" r="0.05"/>
<circle cx="-1.3206" cy="1.8349" fill="#FFBE0E" r="0.05"/>
<circle cx="-0.9927" cy="1.8259" fill="#FFBE0E" r="0.05"/>
<circle cx="-1.6854" cy="2.3779" fill="#00A0DF" r="0.05"/>
<circle cx="2.7354" cy="-1.3012" fill="#C11A00" r="0.05"/>
<circle cx="-0.3" cy="0.3505" fill="#E16200" r="0.05"/>
<circle cx="-1.2" cy="2.9486" fill="#00A0DF" r="0.05"/>
<circle cx="1.8" cy="0.3505" fill="#0433FF" r="0.05"/>
<circle cx="2.1" cy="0.3505" fill="#0433FF" r="0.05"/>
<circle cx="1.0146" cy="-0.0022" fill="#0433FF" r="0.05"/>
<circle cx="-0.6" cy="0.3505" fill="#E16200" r="0.05"/>
<circle cx="-1.6794" cy="1.8349" fill="#37BB00" r="0.05"/>
<circle cx="-1.8" cy="2.9486" fill="#00A0DF" r="0.05"/>
<circle cx="-0.5073" cy="1.8259" fill="#FFBE0E" r="0.05"/>
<circle cx="1.8973" cy="-0.4631" fill="#C11A00" r="0.05"/>
<circle cx="-2.25" cy="2.2495" fill="#37BB00" r="0.05"/>
<circle cx="-0.9" cy="2.9486" fill="#00A0DF" r="0.05"/>
<circle cx="0.0927" cy="0.0652" fill="#E16200" r="0.05"/>
<circle cx="2.4354" cy="-0.3779" fill="#C11A00" r="0.05"/>
<circle cx="-2.0646" cy="1.0789" fill="#37BB00" r="0.05"/>
<circle cx="-2.8206" cy="1.8349" fill="#37BB00" r="0.05"/>
<circle cx="0" cy="0.3505" fill="#E16200" r="0.05"/>
<circle cx="1.2" cy="0.3505" fill="#0433FF" r="0.05"/>
<circle cx="-2.25" cy="1.6495" fill="#37BB00" r="0.05"/>
<circle cx="-1.05" cy="1.6495" fill="#FFBE0E" r="0.05"/>
<circle cx="-2.1573" cy="1.3642" fill="#37BB00" r="0.05"/>
<circle cx="-1.1027" cy="2.1349" fill="#00A0DF" r="0.05"/>
<circle cx="-0.75" cy="1.0495" fill="#37BB00" r="0.05"/>
<circle cx="-2.0706" cy="3.134" fill="#00A0DF" r="0.05"/>
<circle cx="-0.5706" cy="0.1651" fill="#E16200" r="0.05"/>
<circle cx="-0.2427" cy="0.1741" fill="#E16200" r="0.05"/>
<circle cx="-1.2354" cy="2.0022" fill="#FFBE0E" r="0.05"/>
<circle cx="2.1573" cy="-0.6632" fill="#C11A00" r="0.05"/>
<circle cx="-1.1473" cy="2.4631" fill="#00A0DF" r="0.05"/>
<circle cx="0.3527" cy="-0.1349" fill="#E16200" r="0.05"/>
<circle cx="-1.7646" cy="1.2968" fill="#37BB00" r="0.05"/>
<circle cx="0.4854" cy="-0.0022" fill="#E16200" r="0.05"/>
<circle cx="1.5" cy="0.3505" fill="#0433FF" r="0.05"/>
<circle cx="1.5927" cy="0.6358" fill="#0433FF" r="0.05"/>
<circle cx="0.9294" cy="0.5359" fill="#0433FF" r="0.05"/>
<circle cx="1.65" cy="-0.9486" fill="#C11A00" r="0.05"/>
<circle cx="-2.3427" cy="1.3642" fill="#37BB00" r="0.05"/>
<circle cx="-2.4354" cy="2.2202" fill="#37BB00" r="0.05"/>
<circle cx="1.6794" cy="-1.134" fill="#C11A00" r="0.05"/>
<circle cx="-0.2646" cy="2.0022" fill="#FFBE0E" r="0.05"/>
<circle cx="-0.9927" cy="1.4732" fill="#FFBE0E" r="0.05"/>
<circle cx="-0.1794" cy="1.8349" fill="#FFBE0E" r="0.05"/>
<circle cx="-0.5646" cy="1.0789" fill="#FFBE0E" r="0.05"/>
<circle cx="1.8973" cy="-1.434" fill="#C11A00" r="0.05"/>
<circle cx="2.25" cy="-0.9486" fill="#C11A00" r="0.05"/>
<circle cx="-1.2573" cy="3.1249" fill="#00A0DF" r="0.05"/>
<circle cx="-1.6854" cy="3.5192" fill="#00A0DF" r="0.05"/>
<circle cx="1.7427" cy="0.5268" fill="#0433FF" r="0.05"/>
<circle cx="2.0646" cy="-1.5192" fill="#C11A00" r="0.05"/>
<circle cx="-2.55" cy="1.6495" fill="#37BB00" r="0.05"/>
<circle cx="-0.9354" cy="1.0789" fill="#FFBE0E" r="0.05"/>
<circle cx="-0.4854" cy="-0.0022" fill="#E16200" r="0.05"/>
<circle cx="0.1854" cy="0.9211" fill="#E16200" r="0.05"/>
<circle cx="1.2573" cy="0.1741" fill="#0433FF" r="0.05"/>
<circle cx="1.5" cy="0.9505" fill="#0433FF" r="0.05"/>
<circle cx="1.95" cy="-0.9486" fill="#C11A00" r="0.05"/>
<circle cx="2.3427" cy="-0.6632" fill="#C11A00" r="0.05"/>
<circle cx="-0.9354" cy="2.2202" fill="#FFBE0E" r="0.05"/>
<circle cx="-1.7427" cy="2.7722" fill="#00A0DF" r="0.05"/>
<circle cx="1.6854" cy="0.9211" fill="#0433FF" r="0.05"/>
<circle cx="-1.5927" cy="2.6632" fill="#00A0DF" r="0.05"/>
<circle cx="-0.0927" cy="0.6358" fill="#E16200" r="0.05"/>
<circle cx="-1.5" cy="2.3486" fill="#00A0DF" r="0.05"/>
<circle cx="1.1473" cy="-0.1349" fill="#0433FF" r="0.05"/>
<circle cx="-0.3527" cy="0.8359" fill="#E16200" r="0.05"/>
<circle cx="1.5927" cy="0.0652" fill="#0433FF" r="0.05"/>
<circle cx="-2.4354" cy="1.0789" fill="#37BB00" r="0.05"/>
<circle cx="-1.9854" cy="3.3012" fill="#00A0DF" r="0.05"/>
<circle cx="-0.45" cy="1.6495" fill="#FFBE0E" r="0.05"/>
<circle cx="-0.3527" cy="-0.1349" fill="#E16200" r="0.05"/>
<circle cx="-1.65" cy="1.6495" fill="#37BB00" r="0.05"/>
<circle cx="1.4073" cy="0.0652" fill="#0433FF" r="0.05"/>
<circle cx="-0.15" cy="1.6495" fill="#FFBE0E" r="0.05"/>
<circle cx="2.0706" cy="0.5359" fill="#0433FF" r="0.05"/>
<circle cx="-0.5073" cy="1.4732" fill="#FFBE0E" r="0.05"/>
<circle cx="1.3146" cy="0.9211" fill="#0433FF" r="0.05"/>
<circle cx="-2.8206" cy="1.4641" fill="#37BB00" r="0.05"/>
<circle cx="-1.1473" cy="3.434" fill="#00A0DF" r="0.05"/>
<circle cx="-0.9294" cy="2.7631" fill="#00A0DF" r="0.05"/>
<circle cx="-0.8427" cy="1.9348" fill="#FFBE0E" r="0.05"/>
<circle cx="-2.7354" cy="2.0022" fill="#37BB00" r="0.05"/>
<circle cx="-2.1" cy="2.9486" fill="#00A0DF" r="0.05"/>
<circle cx="2.6027" cy="-0.4631" fill="#C11A00" r="0.05"/>
<circle cx="0.6" cy="0.3505" fill="#E16200" r="0.05"/>
<circle cx="0.3527" cy="0.8359" fill="#E16200" r="0.05"/>
<circle cx="-1.1027" cy="1.1641" fill="#37BB00" r="0.05"/>
<circle cx="0.0927" cy="0.6358" fill="#E16200" r="0.05"/>
<circle cx="1.5" cy="-0.2495" fill="#0433FF" r="0.05"/>
<circle cx="-0.1854" cy="-0.2202" fill="#E16200" r="0.05"/>
<circle cx="-0.6573" cy="1.9348" fill="#FFBE0E" r="0.05"/>
<circle cx="2.0646" cy="-0.3779" fill="#C11A00" r="0.05"/>
<circle cx="2.3427" cy="-1.2339" fill="#C11A00" r="0.05"/>
<circle cx="-0.2427" cy="0.5268" fill="#E16200" r="0.05"/>
<circle cx="1.7646" cy="-1.3012" fill="#0433FF" r="0.05"/>
<circle cx="-0.3973" cy="1.1641" fill="#E16200" r="0.05"/>
<circle cx="1.7427" cy="0.1741" fill="#0433FF" r="0.05"/>
<circle cx="0" cy="0.9505" fill="#0433FF" r="0.05"/>
<circle cx="1.7646" cy="-0.5959" fill="#C11A00" r="0.05"/>
<circle cx="2.0073" cy="-1.1249" fill="#C11A00" r="0.05"/>
<circle cx="1.8527" cy="0.8359" fill="#0433FF" r="0.05"/>
<circle cx="-1.8973" cy="1.1641" fill="#37BB00" r="0.05"/>
<circle cx="-0.4854" cy="0.7032" fill="#E16200" r="0.05"/>
<circle cx="-2.6027" cy="2.1349" fill="#37BB00" r="0.05"/>
<circle cx="-2.0706" cy="2.7631" fill="#00A0DF" r="0.05"/>
<circle cx="-2.25" cy="1.0495" fill="#37BB00" r="0.05"/>
<circle cx="1.2573" cy="0.5268" fill="#0433FF" r="0.05"/>
<circle cx="-1.7646" cy="2.0022" fill="#37BB00" r="0.05"/>
<circle cx="0.9294" cy="0.1651" fill="#C11A00" r="0.05"/>
<circle cx="1.1473" cy="0.8359" fill="#0433FF" r="0.05"/>
<circle cx="0.5706" cy="0.5359" fill="#E16200" r="0.05"/>
<circle cx="-0.5706" cy="0.5359" fill="#E16200" r="0.05"/>
<circle cx="1.9854" cy="-0.0022" fill="#0433FF" r="0.05"/>
<circle cx="-1.3146" cy="3.5192" fill="#00A0DF" r="0.05"/>
<circle cx="-1.5927" cy="3.2339" fill="#00A0DF" r="0.05"/>
<circle cx="-1.4073" cy="2.6632" fill="#00A0DF" r="0.05"/>
<circle cx="-2.1573" cy="1.9348" fill="#37BB00" r="0.05"/>
<circle cx="2.85" cy="-0.9486" fill="#C11A00" r="0.05"/>
<circle cx="0.2427" cy="0.5268" fill="#E16200" r="0.05"/>
<circle cx="1.3146" cy="-0.2202" fill="#C11A00" r="0.05"/>
<circle cx="0.9" cy="0.3505" fill="#0433FF" r="0.05"/>
<circle cx="-0.75" cy="1.6495" fill="#FFBE0E" r="0.05"/>
<circle cx="2.8206" cy="-0.7631" fill="#C11A00" r="0.05"/>
<circle cx="0.1854" cy="-0.2202" fill="#E16200" r="0.05"/>
<circle cx="0" cy="-0.2495" fill="#E16200" r="0.05"/>
<circle cx="-2.4927" cy="1.4732" fill="#37BB00" r="0.05"/>
<circle cx="2.7354" cy="-0.5959" fill="#C11A00" r="0.05"/>
<circle cx="2.8206" cy="-1.134" fill="#C11A00" r="0.05"/>
<circle cx="1.0146" cy="0.7032" fill="#0433FF" r="0.05"/>
<circle cx="-1.0146" cy="2.5959" fill="#00A0DF" r="0.05"/>
<circle cx="-0.5646" cy="2.2202" fill="#FFBE0E" r="0.05"/>
<circle cx="-1.0146" cy="3.3012" fill="#00A0DF" r="0.05"/>
<circle cx="-0.6573" cy="1.3642" fill="#FFBE0E" r="0.05"/>
<circle cx="-2.85" cy="1.6495" fill="#37BB00" r="0.05"/>
</g>
<g fill="#C11A00">
<line stroke="#C11A00" stroke-width="0.01" x1="2.0814548" x2="2.0477457" y1="-0.8261019" y2="-0.8016108"/>
<line stroke="#C11A00" stroke-width="0.01" x1="2.0477457" x2="1.7646" y1="-0.8016108" y2="-0.5959"/>
<line stroke="#C11A00" stroke-width="0.01" x1="1.7646" x2="2.25" y1="-0.5959" y2="-0.9486"/>
<polygon points="2.02752 -0.7869165 2.0705843 -0.7914421 2.0451329 -0.8264739" stroke="black" stroke-width="0.005"/>
<text class="fleet" text-anchor="middle" x="2.0477457" y="-0.78911084">
46
</text>
<line stroke="#C11A00" stroke-width="0.01" x1="2.2707956" x2="2.25" y1="-0.35185084" y2="-0.34855717"/>
<line stroke="#C11A00" stroke-width="0.01" x1="2.25" x2="1.7646" y1="-0.34855717" y2="-0.5959"/>
<line stroke="#C11A00" stroke-width="0.01" x1="1.7646" x2="2.25" y1="-0.5959" y2="-0.9486"/>
<polygon points="2.2277253 -0.35990763 2.2513077 -0.32359138 2.2709672 -0.36217248" stroke="black" stroke-width="0.005"/>
<text class="fleet" text-anchor="middle" x="2.25" y="-0.3360572">
100
</text>
<line stroke="#C11A00" stroke-width="0.01" x1="0.72103274" x2="0.6793661" y1="0.16507076" y2="0.16507076"/>
<line stroke="#C11A00" stroke-width="0.01" x1="0.6793661" x2="0.5706" y1="0.16507076" y2="0.1651"/>
<polygon points="0.65436614 0.16507748 0.69187194 0.18671803 0.69186026 0.14341676" stroke="black" stroke-width="0.005"/>
<text class="fleet" text-anchor="middle" x="0.6793661" y="0.17757076">
100
</text>
<line stroke="#C11A00" stroke-width="0.01" x1="1.8775029" x2="1.9171302" y1="-1.0695888" y2="-1.0567131"/>
<line stroke="#C11A00" stroke-width="0.01" x1="1.9171302" x2="2.25" y1="-1.0567131" y2="-0.9486"/>
<polygon points="1.9409076 -1.0489905 1.9119296 -1.0811661 1.8985536 -1.0399827" stroke="black" stroke-width="0.005"/>
<text class="fleet" text-anchor="middle" x="1.9171302" y="-1.044213">
1
</text>
<line stroke="#C11A00" stroke-width="0.01" x1="1.9805984" x2="1.9561074" y1="-0.5777577" y2="-0.54404867"/>
<line stroke="#C11A00" stroke-width="0.01" x1="1.9561074" x2="1.8973" y1="-0.54404867" y2="-0.4631"/>
<line stroke="#C11A00" stroke-width="0.01" x1="1.8973" x2="1.3146" y1="-0.4631" y2="-0.2202"/>
<line stroke="#C11A00" stroke-width="0.01" x1="1.3146" x2="0.9294" y1="-0.2202" y2="0.1651"/>
<polygon points="1.9414136 -0.5238226 1.9809705 -0.54143655 1.945938 -0.56688684" stroke="black" stroke-width="0.005"/>
<text class="fleet" text-anchor="middle" x="1.9561074" y="-0.5315487">
545
</text>
<line stroke="#C11A00" stroke-width="0.01" x1="1.7006227" x2="1.6686391" y1="-0.5424758" y2="-0.51577073"/>
<line stroke="#C11A00" stroke-width="0.01" x1="1.6686391" x2="1.3146" y1="-0.51577073" y2="-0.2202"/>
<line stroke="#C11A00" stroke-width="0.01" x1="1.3146" x2="1.7646" y1="-0.2202" y2="-0.5959"/>
<polygon points="1.6494479 -0.49974892 1.69211 -0.5071616 1.6643593 -0.5404017" stroke="black" stroke-width="0.005"/>
<text class="fleet" text-anchor="middle" x="1.6686391" y="-0.50327075">
604
</text>
</g>
<g fill="#FFBE0E">
<line stroke="#FFBE0E" stroke-width="0.01" x1="-1.2245029" x2="-1.2354102" y1="1.9814433" y2="2.00219"/>
<polygon points="-1.2470437 2.0243185 -1.2104298 2.001201 -1.2487571 1.981051" stroke="black" stroke-width="0.005"/>
<text class="fleet" text-anchor="middle" x="-1.2354102" y="2.0146902">
51
</text>
<line stroke="#FFBE0E" stroke-width="0.01" x1="-0.56716496" x2="-0.5645898" y1="1.0868106" y2="1.0788852"/>
<polygon points="-0.55686426 1.0551088 -0.5890435 1.0840828 -0.54786164 1.0974638" stroke="black" stroke-width="0.005"/>
<text class="fleet" text-anchor="middle" x="-0.5645898" y="1.0913852">
273
</text>
<line stroke="#FFBE0E" stroke-width="0.01" x1="-1.2449688" x2="-1.2354102" y1="1.9834304" y2="2.00219"/>
<polygon points="-1.2240604 2.0244653 -1.2217942 1.9812233 -1.260376 2.0008817" stroke="black" stroke-width="0.005"/>
<text class="fleet" text-anchor="middle" x="-1.2354102" y="2.0146902">
74
</text>
<line stroke="#FFBE0E" stroke-width="0.01" x1="-0.9893346" x2="-0.9927051" y1="1.8490503" y2="1.8258547"/>
<polygon points="-0.99630004 1.8011144 -1.0123333 1.841338 -0.969482 1.8351114" stroke="black" stroke-width="0.005"/>
<text class="fleet" text-anchor="middle" x="-0.9927051" y="1.8383547">
1
</text>
<line stroke="#FFBE0E" stroke-width="0.01" x1="-0.8979231" x2="-0.9354102" y1="2.2201529" y2="2.2201529"/>
<polygon points="-0.9604102 2.2201529 -0.9229102 2.2418034 -0.9229102 2.1985023" stroke="black" stroke-width="0.005"/>
<text class="fleet" text-anchor="middle" x="-0.9354102" y="2.232653">
123
</text>
<line stroke="#FFBE0E" stroke-width="0.01" x1="-0.56716496" x2="-0.5645898" y1="1.0868106" y2="1.0788852"/>
<polygon points="-0.55686426 1.0551088 -0.5890435 1.0840828 -0.54786164 1.0974638" stroke="black" stroke-width="0.005"/>
<text class="fleet" text-anchor="middle" x="-0.5645898" y="1.0913852">
1
</text>
<line stroke="#FFBE0E" stroke-width="0.01" x1="-0.2713316" x2="-0.2645898" y1="1.3017461" y2="1.2968479"/>
<polygon points="-0.24436432 1.2821534 -0.2874284 1.2866795 -0.26197666 1.321711" stroke="black" stroke-width="0.005"/>
<text class="fleet" text-anchor="middle" x="-0.2645898" y="1.309348">
1
</text>
<line stroke="#FFBE0E" stroke-width="0.01" x1="-0.7703582" x2="-0.8115119" y1="1.1114757" y2="1.1179937"/>
<line stroke="#FFBE0E" stroke-width="0.01" x1="-0.8115119" x2="-1.1027" y1="1.1179937" y2="1.1641"/>
<polygon points="-0.83620423 1.1219034 -0.7957797 1.137423 -0.8025516 1.0946546" stroke="black" stroke-width="0.005"/>
<text class="fleet" text-anchor="middle" x="-0.8115119" y="1.1304938">
1
</text>
<line stroke="#FFBE0E" stroke-width="0.01" x1="-0.27549708" x2="-0.2645898" y1="1.3175948" y2="1.2968479"/>
<polygon points="-0.25295624 1.2747197 -0.2895702 1.2978371 -0.2512429 1.3179871" stroke="black" stroke-width="0.005"/>
<text class="fleet" text-anchor="middle" x="-0.2645898" y="1.309348">
201
</text>
</g>
<g fill="#E16200">
<line stroke="#E16200" stroke-width="0.01" x1="-0.18283506" x2="-0.1854102" y1="0.9131894" y2="0.92111486"/>
<polygon points="-0.19313565 0.9448913 -0.1609565 0.9159171 -0.20213845 0.9025362" stroke="black" stroke-width="0.005"/>
<text class="fleet" text-anchor="middle" x="-0.1854102" y="0.93361485">
104
</text>
<line stroke="#E16200" stroke-width="0.01" x1="0.05103843" x2="0.00937176" y1="0.06516399" y2="0.06516399"/>
<line stroke="#E16200" stroke-width="0.01" x1="0.00937176" x2="-0.0927" y1="0.06516399" y2="0.0652"/>
<line stroke="#E16200" stroke-width="0.01" x1="-0.0927" x2="0" y1="0.0652" y2="0.3505"/>
<line stroke="#E16200" stroke-width="0.01" x1="0" x2="0.0927" y1="0.3505" y2="0.0652"/>
<line stroke="#E16200" stroke-width="0.01" x1="0.0927" x2="0.0927" y1="0.0652" y2="0.0652"/>
<polygon points="-0.015628237 0.065172814 0.021879401 0.08681022 0.021864116 0.043508947" stroke="black" stroke-width="0.005"/>
<text class="fleet" text-anchor="middle" x="0.00937176" y="0.077663995">
5
</text>
<line stroke="#E16200" stroke-width="0.01" x1="-0.13133222" x2="-0.14420792" y1="0.75468" y2="0.7943073"/>
<line stroke="#E16200" stroke-width="0.01" x1="-0.14420792" x2="-0.1854" y1="0.7943073" y2="0.9211"/>
<polygon points="-0.15193243 0.818084 -0.11975443 0.7891086 -0.1609369 0.7757293" stroke="black" stroke-width="0.005"/>
<text class="fleet" text-anchor="middle" x="-0.14420792" y="0.8068073">
105
</text>
<line stroke="#E16200" stroke-width="0.01" x1="-0.04045085" x2="-0.00674181" y1="0.32109168" y2="0.34558275"/>
<line stroke="#E16200" stroke-width="0.01" x1="-0.00674181" x2="0" y1="0.34558275" y2="0.3505"/>
<line stroke="#E16200" stroke-width="0.01" x1="0" x2="-0.3" y1="0.3505" y2="0.3505"/>
<line stroke="#E16200" stroke-width="0.01" x1="-0.3" x2="-0.2427" y1="0.3505" y2="0.1741"/>
<polygon points="0.013456481 0.36031467 -0.004082756 0.32072458 -0.029599158 0.35570905" stroke="black" stroke-width="0.005"/>
<text class="fleet" text-anchor="middle" x="-0.00674181" y="0.35808274">
9
</text>
<line stroke="#E16200" stroke-width="0.01" x1="-0.16461472" x2="-0.1854102" y1="0.92440856" y2="0.92111486"/>
<polygon points="-0.21010241 0.91720396 -0.17645101 0.9444544 -0.16967717 0.90168625" stroke="black" stroke-width="0.005"/>
<text class="fleet" text-anchor="middle" x="-0.1854102" y="0.93361485">
100
</text>
<line stroke="#E16200" stroke-width="0.01" x1="-0.14157797" x2="-0.10786893" y1="0.45334336" y2="0.42885232"/>
<line stroke="#E16200" stroke-width="0.01" x1="-0.10786893" x2="0" y1="0.42885232" y2="0.3505"/>
<line stroke="#E16200" stroke-width="0.01" x1="0" x2="-0.0927" y1="0.3505" y2="0.6358"/>
<line stroke="#E16200" stroke-width="0.01" x1="-0.0927" x2="-0.2427" y1="0.6358" y2="0.5268"/>
<polygon points="-0.08764181 0.41416 -0.1307064 0.41868126 -0.10525859 0.45371568" stroke="black" stroke-width="0.005"/>
<text class="fleet" text-anchor="middle" x="-0.10786893" y="0.4413523">
4
</text>
<line stroke="#E16200" stroke-width="0.01" x1="0.14157797" x2="0.10786893" y1="0.6002897" y2="0.6247807"/>
<line stroke="#E16200" stroke-width="0.01" x1="0.10786893" x2="0.0927" y1="0.6247807" y2="0.6358"/>
<line stroke="#E16200" stroke-width="0.01" x1="0.0927" x2="0" y1="0.6358" y2="0.3505"/>
<line stroke="#E16200" stroke-width="0.01" x1="0" x2="0.2427" y1="0.3505" y2="0.5268"/>
<polygon points="0.0876425 0.639474 0.13070688 0.6349507 0.105257414 0.5999175" stroke="black" stroke-width="0.005"/>
<text class="fleet" text-anchor="middle" x="0.10786893" y="0.6372807">
159
</text>
<line stroke="#E16200" stroke-width="0.01" x1="0.10112712" x2="0.13483617" y1="0.2770078" y2="0.25251675"/>
<line stroke="#E16200" stroke-width="0.01" x1="0.13483617" x2="0.2427" y1="0.25251675" y2="0.1741"/>
<line stroke="#E16200" stroke-width="0.01" x1="0.2427" x2="0.3" y1="0.1741" y2="0.3505"/>
<line stroke="#E16200" stroke-width="0.01" x1="0.3" x2="0" y1="0.3505" y2="0.3505"/>
<polygon points="0.1550572 0.2378161 0.111994505 0.24235514 0.13745679 0.277379" stroke="black" stroke-width="0.005"/>
<text class="fleet" text-anchor="middle" x="0.13483617" y="0.26501673">
67
</text>
<line stroke="#E16200" stroke-width="0.01" x1="-0.18853283" x2="-0.1854102" y1="0.8804042" y2="0.92111486"/>
<polygon points="-0.18349825 0.94604164 -0.16477896 0.90699565 -0.20795341 0.9103073" stroke="black" stroke-width="0.005"/>
<text class="fleet" text-anchor="middle" x="-0.1854102" y="0.93361485">
200
</text>
<line stroke="#E16200" stroke-width="0.01" x1="-0.39199337" x2="-0.39732885" y1="1.124895" y2="1.1641089"/>
<polygon points="-0.40069932 1.1888807 -0.37419066 1.1546419 -0.41709659 1.1488041" stroke="black" stroke-width="0.005"/>
<text class="fleet" text-anchor="middle" x="-0.39732885" y="1.1766089">
52
</text>
<line stroke="#E16200" stroke-width="0.01" x1="-0.18283506" x2="-0.1854102" y1="0.9131894" y2="0.92111486"/>
<polygon points="-0.19313565 0.9448913 -0.1609565 0.9159171 -0.20213845 0.9025362" stroke="black" stroke-width="0.005"/>
<text class="fleet" text-anchor="middle" x="-0.1854102" y="0.93361485">
454
</text>
</g>
<g fill="#00A0DF">
<line stroke="#00A0DF" stroke-width="0.01" x1="-1.2515029" x2="-1.2572949" y1="2.7900476" y2="2.7722216"/>
<polygon points="-1.2650203 2.748445 -1.2740232 2.7908 -1.2328413 2.7774193" stroke="black" stroke-width="0.005"/>
<text class="fleet" text-anchor="middle" x="-1.2572949" y="2.7847216">
599
</text>
<line stroke="#00A0DF" stroke-width="0.01" x1="-1.3784596" x2="-1.4072949" y1="2.641046" y2="2.6632402"/>
<polygon points="-1.4271061 2.6784887 -1.3841838 2.672773 -1.4105948 2.638459" stroke="black" stroke-width="0.005"/>
<text class="fleet" text-anchor="middle" x="-1.4072949" y="2.6757402">
147
</text>
<line stroke="#00A0DF" stroke-width="0.01" x1="-1.4484972" x2="-1.4356215" y1="2.7900476" y2="2.7504203"/>
<line stroke="#00A0DF" stroke-width="0.01" x1="-1.4356215" x2="-1.4073" y1="2.7504203" y2="2.6632"/>
<line stroke="#00A0DF" stroke-width="0.01" x1="-1.4073" x2="-1.5" y1="2.6632" y2="2.9486"/>
<line stroke="#00A0DF" stroke-width="0.01" x1="-1.5" x2="-1.5" y1="2.9486" y2="2.9486"/>
<polygon points="-1.4279006 2.7266424 -1.4600742 2.7556226 -1.4188898 2.7689958" stroke="black" stroke-width="0.005"/>
<text class="fleet" text-anchor="middle" x="-1.4356215" y="2.7629204">
128
</text>
<line stroke="#00A0DF" stroke-width="0.01" x1="-1.9826286" x2="-1.9854102" y1="2.5944686" y2="2.595886"/>
<polygon points="-2.0076852 2.6072364 -1.9644431 2.6095014 -1.9841025 2.5709202" stroke="black" stroke-width="0.005"/>
<text class="fleet" text-anchor="middle" x="-1.9854102" y="2.608386">
100
</text>
<line stroke="#00A0DF" stroke-width="0.01" x1="-1.1571252" x2="-1.1473289" y1="2.4766307" y2="2.463147"/>
<polygon points="-1.1326344 2.4429214 -1.172192 2.4605339 -1.1371603 2.4859855" stroke="black" stroke-width="0.005"/>
<text class="fleet" text-anchor="middle" x="-1.1473289" y="2.475647">
100
</text>
<line stroke="#00A0DF" stroke-width="0.01" x1="-1.1330143" x2="-1.1026711" y1="2.1512437" y2="2.1349292"/>
<polygon points="-1.0806521 2.1230903 -1.1239336 2.1217794 -1.1034279 2.1599178" stroke="black" stroke-width="0.005"/>
<text class="fleet" text-anchor="middle" x="-1.1026711" y="2.1474292">
125
</text>
<line stroke="#00A0DF" stroke-width="0.01" x1="-0.9260724" x2="-0.9293661" y1="2.7839425" y2="2.7631469"/>
<polygon points="-0.93327695 2.7384546 -0.9487948 2.77888 -0.9060266 2.7721062" stroke="black" stroke-width="0.005"/>
<text class="fleet" text-anchor="middle" x="-0.9293661" y="2.775647">
100
</text>
</g>
<g fill="#0433FF">
<line stroke="#0433FF" stroke-width="0.01" x1="1.5051503" x2="1.5" y1="0.33463" y2="0.35048094"/>
<polygon points="1.4922745 0.37425733 1.5244536 0.3452832 1.4832717 0.3319023" stroke="black" stroke-width="0.005"/>
<text class="fleet" text-anchor="middle" x="1.5" y="0.36298093">
1
</text>
<line stroke="#0433FF" stroke-width="0.01" x1="1.1275029" x2="1.1671302" y1="0.4715126" y2="0.4586369"/>
<line stroke="#0433FF" stroke-width="0.01" x1="1.1671302" x2="1.5" y1="0.4586369" y2="0.3505"/>
<polygon points="1.190907 0.4509127 1.1485524 0.4419077 1.1619312 0.48309034" stroke="black" stroke-width="0.005"/>
<text class="fleet" text-anchor="middle" x="1.1671302" y="0.4711369">
1
</text>
<line stroke="#0433FF" stroke-width="0.01" x1="1.0482482" x2="1.0878755" y1="0.49726403" y2="0.48438832"/>
<line stroke="#0433FF" stroke-width="0.01" x1="1.0878755" x2="1.5" y1="0.48438832" y2="0.3505"/>
<polygon points="1.1116523 0.4766639 1.0692976 0.4676593 1.0826766 0.5088418" stroke="black" stroke-width="0.005"/>
<text class="fleet" text-anchor="middle" x="1.0878755" y="0.4968883">
1
</text>
<line stroke="#0433FF" stroke-width="0.01" x1="0.18562636" x2="0.22275163" y1="0.8558996" y2="0.8369833"/>
<line stroke="#0433FF" stroke-width="0.01" x1="0.22275163" x2="0.4854" y1="0.8369833" y2="0.7032"/>
<polygon points="0.24502826 0.82563645 0.20178662 0.8233647 0.22144002 0.8619489" stroke="black" stroke-width="0.005"/>
<text class="fleet" text-anchor="middle" x="0.22275163" y="0.8494833">
1
</text>
<line stroke="#0433FF" stroke-width="0.01" x1="0.07703221" x2="0.03990693" y1="0.9112311" y2="0.93014735"/>
<line stroke="#0433FF" stroke-width="0.01" x1="0.03990693" x2="0" y1="0.93014735" y2="0.9505"/>
<polygon points="0.017636074 0.94150555 0.060878858 0.9437554 0.041205857 0.9051811" stroke="black" stroke-width="0.005"/>
<text class="fleet" text-anchor="middle" x="0.03990693" y="0.94264734">
100
</text>
<line stroke="#0433FF" stroke-width="0.01" x1="1.4356215" x2="1.4227457" y1="0.15234417" y2="0.11271682"/>
<line stroke="#0433FF" stroke-width="0.01" x1="1.4227457" x2="1.4073" y1="0.11271682" y2="0.0652"/>
<polygon points="1.4150174 0.088941365 1.4060198 0.13129753 1.4472001 0.11791155" stroke="black" stroke-width="0.005"/>
<text class="fleet" text-anchor="middle" x="1.4227457" y="0.12521681">
46
</text>
<line stroke="#0433FF" stroke-width="0.01" x1="1.0640991" x2="1.0244718" y1="0.49211374" y2="0.50498945"/>
<line stroke="#0433FF" stroke-width="0.01" x1="1.0244718" x2="0.9294" y1="0.50498945" y2="0.5359"/>
<polygon points="1.0006968 0.5127194 1.0430535 0.5217142 1.0296649 0.48053476" stroke="black" stroke-width="0.005"/>
<text class="fleet" text-anchor="middle" x="1.0244718" y="0.51748943">
46
</text>
<line stroke="#0433FF" stroke-width="0.01" x1="0.8513836" x2="0.8123924" y1="0.56527114" y2="0.5799611"/>
<line stroke="#0433FF" stroke-width="0.01" x1="0.8123924" x2="0.4854" y1="0.5799611" y2="0.7032"/>
<polygon points="0.7889987 0.5887779 0.8317248 0.59581226 0.8164537 0.5552932" stroke="black" stroke-width="0.005"/>
<text class="fleet" text-anchor="middle" x="0.8123924" y="0.5924611">
587
</text>
<line stroke="#0433FF" stroke-width="0.01" x1="0.26265857" x2="0.22553329" y1="0.81664973" y2="0.835566"/>
<line stroke="#0433FF" stroke-width="0.01" x1="0.22553329" x2="0" y1="0.835566" y2="0.9505"/>
<polygon points="0.20325889 0.8469173 0.24650097 0.8491805 0.22684 0.81060016" stroke="black" stroke-width="0.005"/>
<text class="fleet" text-anchor="middle" x="0.22553329" y="0.848066">
375
</text>
<line stroke="#0433FF" stroke-width="0.01" x1="0.56339264" x2="0.60238385" y1="0.6737721" y2="0.6590821"/>
<line stroke="#0433FF" stroke-width="0.01" x1="0.60238385" x2="0.9294" y1="0.6590821" y2="0.5359"/>
<polygon points="0.6257791 0.65026945 0.58305424 0.6432276 0.5983182 0.6837493" stroke="black" stroke-width="0.005"/>
<text class="fleet" text-anchor="middle" x="0.60238385" y="0.6715821">
1
</text>
<line stroke="#0433FF" stroke-width="0.01" x1="1.665629" x2="1.651892" y1="-0.7238099" y2="-0.68447286"/>
<line stroke="#0433FF" stroke-width="0.01" x1="1.651892" x2="1.5" y1="-0.68447286" y2="-0.2495"/>
<polygon points="1.64365 -0.6608705 1.6764531 -0.6891363 1.6355727 -0.70341176" stroke="black" stroke-width="0.005"/>
<text class="fleet" text-anchor="middle" x="1.651892" y="-0.6719729">
50
</text>
</g>
<g fill="#37BB00">
<line stroke="#37BB00" stroke-width="0.01" x1="-2.2912023" x2="-2.2783265" y1="1.5227115" y2="1.5623388"/>
<line stroke="#37BB00" stroke-width="0.01" x1="-2.2783265" x2="-2.1573" y1="1.5623388" y2="1.9348"/>
<polygon points="-2.2706008 1.5861151 -2.2615986 1.54376 -2.3027804 1.5571414" stroke="black" stroke-width="0.005"/>
<text class="fleet" text-anchor="middle" x="-2.2783265" y="1.5748389">
100
</text>
<line stroke="#37BB00" stroke-width="0.01" x1="-1.6532937" x2="-1.65" y1="1.6287236" y2="1.6495191"/>
<polygon points="-1.6460891 1.6742113 -1.6305714 1.633786 -1.6733395 1.64056" stroke="black" stroke-width="0.005"/>
<text class="fleet" text-anchor="middle" x="-1.65" y="1.6620191">
80
</text>
<line stroke="#37BB00" stroke-width="0.01" x1="-1.9583334" x2="-1.95" y1="1.6495191" y2="1.6495191"/>
<polygon points="-1.9250001 1.6495191 -1.9625001 1.6278684 -1.9625001 1.6711698" stroke="black" stroke-width="0.005"/>
<text class="fleet" text-anchor="middle" x="-1.95" y="1.6620191">
170
</text>
<line stroke="#37BB00" stroke-width="0.01" x1="-2.0224588" x2="-2.007295" y1="1.4621663" y2="1.4731835"/>
<polygon points="-1.9870695 1.4878781 -2.0046816 1.4483205 -2.0301335 1.483352" stroke="black" stroke-width="0.005"/>
<text class="fleet" text-anchor="middle" x="-2.007295" y="1.4856836">
101
</text>
<line stroke="#37BB00" stroke-width="0.01" x1="-1.708659" x2="-1.6793661" y1="1.4579854" y2="1.4641088"/>
<polygon points="-1.6548951 1.4692242 -1.6871716 1.4403585 -1.6960317 1.4827436" stroke="black" stroke-width="0.005"/>
<text class="fleet" text-anchor="middle" x="-1.6793661" y="1.4766089">
100
</text>
<line stroke="#37BB00" stroke-width="0.01" x1="-1.7794777" x2="-1.7645898" y1="2.0170782" y2="2.00219"/>
<polygon points="-1.7469122 1.9845123 -1.788738 1.9957198 -1.7581192 2.0263383" stroke="black" stroke-width="0.005"/>
<text class="fleet" text-anchor="middle" x="-1.7645898" y="2.0146902">
50
</text>
<line stroke="#37BB00" stroke-width="0.01" x1="-0.78565234" x2="-0.75" y1="1.0611032" y2="1.0495191"/>
<polygon points="-0.7262236 1.0417936 -0.76857865 1.0327908 -0.75519776 1.0739727" stroke="black" stroke-width="0.005"/>
<text class="fleet" text-anchor="middle" x="-0.75" y="1.0620191">
75
</text>
<line stroke="#37BB00" stroke-width="0.01" x1="-2.6416667" x2="-2.6" y1="1.6495191" y2="1.6495191"/>
<line stroke="#37BB00" stroke-width="0.01" x1="-2.6" x2="-2.25" y1="1.6495191" y2="1.6495"/>
<polygon points="-2.5749998 1.6495178 -2.6125011 1.6278691 -2.6124988 1.6711704" stroke="black" stroke-width="0.005"/>
<text class="fleet" text-anchor="middle" x="-2.6" y="1.6620191">
1
</text>
<line stroke="#37BB00" stroke-width="0.01" x1="-2.0678363" x2="-2.0683" y1="2.5118015" y2="2.5534656"/>
<line stroke="#37BB00" stroke-width="0.01" x1="-2.0683" x2="-2.0706" y1="2.5534656" y2="2.7631"/>
<polygon points="-2.0685742 2.578464 -2.0465136 2.541204 -2.0898123 2.5407288" stroke="black" stroke-width="0.005"/>
<text class="fleet" text-anchor="middle" x="-2.0683" y="2.5659657">
100
</text>
</g>
<g class="star">
<text text-anchor="middle" x="-1.8527" y="3.359">
Minkar
</text>
<text text-anchor="middle" x="-0.3973" y="2.0599">
Merak
</text>
<text text-anchor="middle" x="-1.8973" y="2.0599">
Asellus
</text>
<text text-anchor="middle" x="-1.7427" y="3.0499">
Caph
</text>
<text text-anchor="middle" x="-0.1794" y="1.3891">
Alfecca
</text>
<text text-anchor="middle" x="-0.75" y="2.1745">
Arkab
</text>
<text text-anchor="middle" x="-1.95" y="1.5745">
Ksora
</text>
<text text-anchor="middle" x="1.6794" y="-0.8381">
Danica Patrick
</text>
<text text-anchor="middle" x="1.4073" y="0.5608">
Decrux
</text>
<text text-anchor="middle" x="-1.2573" y="2.6972">
Talitha
</text>
<text text-anchor="middle" x="0.4854" y="0.6282">
Regor
</text>
<text text-anchor="middle" x="-2.0073" y="1.7508999">
Sham
</text>
<text text-anchor="middle" x="2.25" y="-1.6236">
De Vries
</text>
<text text-anchor="middle" x="-2.0073" y="1.3981999">
Denebola
</text>
<text text-anchor="middle" x="-2.4927" y="1.7508999">
Tic
</text>
<text text-anchor="middle" x="1.6854" y="-0.2952">
Jaw
</text>
<text text-anchor="middle" x="2.1573" y="-1.3089">
Verstappen
</text>
<text text-anchor="middle" x="-0.1854" y="0.84610003">
TseenKee
</text>
<text text-anchor="middle" x="-1.4073" y="3.1589">
Haldus
</text>
<text text-anchor="middle" x="-2.0646" y="2.1452">
Tab
</text>
<text text-anchor="middle" x="0.3" y="0.2755">
Ruchbah
</text>
<text text-anchor="middle" x="-1.6794" y="1.3891">
Errai
</text>
<text text-anchor="middle" x="-0.9294" y="3.059">
Bam
</text>
<text text-anchor="middle" x="1.8527" y="-0.2099">
Andretti
</text>
<text text-anchor="middle" x="-0.8427" y="1.2892">
Rub
</text>
<text text-anchor="middle" x="-1.5" y="3.4736">
Alniyat
</text>
<text text-anchor="middle" x="2.6027" y="-1.5090001">
Toretto
</text>
<text text-anchor="middle" x="2.4927" y="-1.1999">
Stewart
</text>
<text text-anchor="middle" x="-0.0927" y="-0.009800002">
Naos
</text>
<text text-anchor="middle" x="2.0073" y="-0.8472">
Schumacher
</text>
<text text-anchor="middle" x="-1.35" y="1.5745">
Sadalmelik
</text>
<text text-anchor="middle" x="-0.2646" y="1.2218">
Lanx
</text>
<text text-anchor="middle" x="2.25" y="-0.42360002">
Jerry
</text>
<text text-anchor="middle" x="2.55" y="-1.0236">
Hamilton
</text>
<text text-anchor="middle" x="2.4927" y="-0.8472">
Villeneuve
</text>
<text text-anchor="middle" x="-1.8527" y="2.3881">
Tejat
</text>
<text text-anchor="middle" x="-1.2354" y="1.2218">
Dschubba
</text>
<text text-anchor="middle" x="2.0706" y="0.09009999">
Sadira
</text>
<text text-anchor="middle" x="-1.3206" y="1.3891">
Mirzam
</text>
<text text-anchor="middle" x="0.2427" y="0.09909999">
Alioth
</text>
<text text-anchor="middle" x="-2.6027" y="1.0891">
Sarin
</text>
<text text-anchor="middle" x="-1.5" y="2.8736">
Almach
</text>
<text text-anchor="middle" x="-1.3146" y="2.3028998">
Proxima
</text>
<text text-anchor="middle" x="-2.3427" y="1.8598">
Askella
</text>
<text text-anchor="middle" x="-2.7354" y="1.2218">
Tag
</text>
<text text-anchor="middle" x="1.9854" y="0.6282">
Fin
</text>
<text text-anchor="middle" x="2.4354" y="-1.5942">
Johnson
</text>
<text text-anchor="middle" x="0.5706" y="0.09009999">
Markab
</text>
<text text-anchor="middle" x="-1.9854" y="2.5209">
Arc
</text>
<text text-anchor="middle" x="-1.3206" y="1.7599">
Becrux
</text>
<text text-anchor="middle" x="-0.9927" y="1.7508999">
Asp
</text>
<text text-anchor="middle" x="-1.6854" y="2.3028998">
Alcor
</text>
<text text-anchor="middle" x="2.7354" y="-1.3762001">
Latifi
</text>
<text text-anchor="middle" x="-0.3" y="0.2755">
Koi
</text>
<text text-anchor="middle" x="-1.2" y="2.8736">
Mintaka
</text>
<text text-anchor="middle" x="1.8" y="0.2755">
Enif
</text>
<text text-anchor="middle" x="2.1" y="0.2755">
Alamak
</text>
<text text-anchor="middle" x="1.0146" y="-0.0772">
Eltanin
</text>
<text text-anchor="middle" x="-0.6" y="0.2755">
Ale
</text>
<text text-anchor="middle" x="-1.6794" y="1.7599">
Wasat
</text>
<text text-anchor="middle" x="-1.8" y="2.8736">
Rukbat
</text>
<text text-anchor="middle" x="-0.5073" y="1.7508999">
Zit
</text>
<text text-anchor="middle" x="1.8973" y="-0.5381">
Vettel
</text>
<text text-anchor="middle" x="-2.25" y="2.1745">
Garnet
</text>
<text text-anchor="middle" x="-0.9" y="2.8736">
Sun
</text>
<text text-anchor="middle" x="0.0927" y="-0.009800002">
Kleeia
</text>
<text text-anchor="middle" x="2.4354" y="-0.4529">
Mansell
</text>
<text text-anchor="middle" x="-2.0646" y="1.0038999">
Rotanev
</text>
<text text-anchor="middle" x="-2.8206" y="1.7599">
Sabik
</text>
<text text-anchor="middle" x="0" y="0.2755">
Arided
</text>
<text text-anchor="middle" x="1.2" y="0.2755">
Alcyone
</text>
<text text-anchor="middle" x="-2.25" y="1.5745">
Castor
</text>
<text text-anchor="middle" x="-1.05" y="1.5745">
Sasin
</text>
<text text-anchor="middle" x="-2.1573" y="1.2892">
Sky
</text>
<text text-anchor="middle" x="-1.1027" y="2.0599">
Cox
</text>
<text text-anchor="middle" x="-0.75" y="0.9745">
Menkent
</text>
<text text-anchor="middle" x="-2.0706" y="3.059">
Albali
</text>
<text text-anchor="middle" x="-0.5706" y="0.09009999">
Elm
</text>
<text text-anchor="middle" x="-0.2427" y="0.09909999">
Etamin
</text>
<text text-anchor="middle" x="-1.2354" y="1.9271998">
Cheleb
</text>
<text text-anchor="middle" x="2.1573" y="-0.7382">
Senna
</text>
<text text-anchor="middle" x="-1.1473" y="2.3881">
Yed
</text>
<text text-anchor="middle" x="0.3527" y="-0.2099">
Avior
</text>
<text text-anchor="middle" x="-1.7646" y="1.2218">
Alkalurops
</text>
<text text-anchor="middle" x="0.4854" y="-0.0772">
Paw
</text>
<text text-anchor="middle" x="1.5" y="0.2755">
Acamar
</text>
<text text-anchor="middle" x="1.5927" y="0.5608">
Alphecca
</text>
<text text-anchor="middle" x="0.9294" y="0.4609">
Salm
</text>
<text text-anchor="middle" x="1.65" y="-1.0236">
Earnhardt Jr Jr
</text>
<text text-anchor="middle" x="-2.3427" y="1.2892">
Schedir
</text>
<text text-anchor="middle" x="-2.4354" y="2.1452">
Spy
</text>
<text text-anchor="middle" x="1.6794" y="-1.209">
Earnhardt Jr
</text>
<text text-anchor="middle" x="-0.2646" y="1.9271998">
Wazn
</text>
<text text-anchor="middle" x="-0.9927" y="1.3981999">
Altais
</text>
<text text-anchor="middle" x="-0.1794" y="1.7599">
Sulafat
</text>
<text text-anchor="middle" x="-0.5646" y="1.0038999">
Regulus
</text>
<text text-anchor="middle" x="1.8973" y="-1.5090001">
Ocon
</text>
<text text-anchor="middle" x="2.25" y="-1.0236">
Alonso
</text>
<text text-anchor="middle" x="-1.2573" y="3.0499">
Mira
</text>
<text text-anchor="middle" x="-1.6854" y="3.4442">
Dnoces
</text>
<text text-anchor="middle" x="1.7427" y="0.4518">
Kajam
</text>
<text text-anchor="middle" x="2.0646" y="-1.5942">
Norris
</text>
<text text-anchor="middle" x="-2.55" y="1.5745">
Dabih
</text>
<text text-anchor="middle" x="-0.9354" y="1.0038999">
Mac
</text>
<text text-anchor="middle" x="-0.4854" y="-0.0772">
Pherkad
</text>
<text text-anchor="middle" x="0.1854" y="0.84610003">
Pleione
</text>
<text text-anchor="middle" x="1.2573" y="0.09909999">
Elnath
</text>
<text text-anchor="middle" x="1.5" y="0.8755">
Kit
</text>
<text text-anchor="middle" x="1.95" y="-1.0236">
Labonte
</text>
<text text-anchor="middle" x="2.3427" y="-0.7382">
Gordon
</text>
<text text-anchor="middle" x="-0.9354" y="2.1452">
Gatria
</text>
<text text-anchor="middle" x="-1.7427" y="2.6972">
Mud
</text>
<text text-anchor="middle" x="1.6854" y="0.84610003">
Keid
</text>
<text text-anchor="middle" x="-1.5927" y="2.5881999">
Menchib
</text>
<text text-anchor="middle" x="-0.0927" y="0.5608">
Wow
</text>
<text text-anchor="middle" x="-1.5" y="2.2735999">
Aldhanab
</text>
<text text-anchor="middle" x="1.1473" y="-0.2099">
Merope
</text>
<text text-anchor="middle" x="-0.3527" y="0.7609">
Polaris
</text>
<text text-anchor="middle" x="1.5927" y="-0.009800002">
Alya
</text>
<text text-anchor="middle" x="-2.4354" y="1.0038999">
AlGiedi
</text>
<text text-anchor="middle" x="-1.9854" y="3.2261999">
SteropeII
</text>
<text text-anchor="middle" x="-0.45" y="1.5745">
Alnasl
</text>
<text text-anchor="middle" x="-0.3527" y="-0.2099">
Alkes
</text>
<text text-anchor="middle" x="-1.65" y="1.5745">
Biham
</text>
<text text-anchor="middle" x="1.4073" y="-0.009800002">
Mebsuta
</text>
<text text-anchor="middle" x="-0.15" y="1.5745">
Alpheratz
</text>
<text text-anchor="middle" x="2.0706" y="0.4609">
Adhara
</text>
<text text-anchor="middle" x="-0.5073" y="1.3981999">
Murzim
</text>
<text text-anchor="middle" x="1.3146" y="0.84610003">
Mimosa
</text>
<text text-anchor="middle" x="-2.8206" y="1.3891">
Zoo
</text>
<text text-anchor="middle" x="-1.1473" y="3.359">
Sheliak
</text>
<text text-anchor="middle" x="-0.9294" y="2.6880999">
Diphda
</text>
<text text-anchor="middle" x="-0.8427" y="1.8598">
Marfark
</text>
<text text-anchor="middle" x="-2.7354" y="1.9271998">
Marfik
</text>
<text text-anchor="middle" x="-2.1" y="2.8736">
Pug
</text>
<text text-anchor="middle" x="2.6027" y="-0.5381">
Ricciardo
</text>
<text text-anchor="middle" x="0.6" y="0.2755">
Alzir
</text>
<text text-anchor="middle" x="0.3527" y="0.7609">
Sadr
</text>
<text text-anchor="middle" x="-1.1027" y="1.0891">
Pure Pax
</text>
<text text-anchor="middle" x="0.0927" y="0.5608">
Brachium
</text>
<text text-anchor="middle" x="1.5" y="-0.32450002">
Theemin
</text>
<text text-anchor="middle" x="-0.1854" y="-0.2952">
Praecipua
</text>
<text text-anchor="middle" x="-0.6573" y="1.8598">
Imp
</text>
<text text-anchor="middle" x="2.0646" y="-0.4529">
Leclerc
</text>
<text text-anchor="middle" x="2.3427" y="-1.3089">
Petty
</text>
<text text-anchor="middle" x="-0.2427" y="0.4518">
Menkalinan
</text>
<text text-anchor="middle" x="1.7646" y="-1.3762001">
Earnhardt
</text>
<text text-anchor="middle" x="-0.3973" y="1.0891">
Dux
</text>
<text text-anchor="middle" x="1.7427" y="0.09909999">
Vindemiatrix
</text>
<text text-anchor="middle" x="0" y="0.8755">
Korn
</text>
<text text-anchor="middle" x="1.7646" y="-0.6709">
Adam Driver
</text>
<text text-anchor="middle" x="2.0073" y="-1.1999">
Sainz
</text>
<text text-anchor="middle" x="1.8527" y="0.7609">
Alwaid
</text>
<text text-anchor="middle" x="-1.8973" y="1.0891">
Segin
</text>
<text text-anchor="middle" x="-0.4854" y="0.6282">
Misam
</text>
<text text-anchor="middle" x="-2.6027" y="2.0599">
Mizar
</text>
<text text-anchor="middle" x="-2.0706" y="2.6880999">
Kaus
</text>
<text text-anchor="middle" x="-2.25" y="0.9745">
Chi
</text>
<text text-anchor="middle" x="1.2573" y="0.4518">
Aladfar
</text>
<text text-anchor="middle" x="-1.7646" y="1.9271998">
Syrma
</text>
<text text-anchor="middle" x="0.9294" y="0.09009999">
RIP Paul Walker
</text>
<text text-anchor="middle" x="1.1473" y="0.7609">
Rukh
</text>
<text text-anchor="middle" x="0.5706" y="0.4609">
Maasym
</text>
<text text-anchor="middle" x="-0.5706" y="0.4609">
Pax
</text>
<text text-anchor="middle" x="1.9854" y="-0.0772">
Aludra
</text>
<text text-anchor="middle" x="-1.3146" y="3.4442">
Media
</text>
<text text-anchor="middle" x="-1.5927" y="3.1589">
Mekbuda
</text>
<text text-anchor="middle" x="-1.4073" y="2.5881999">
Neshmet
</text>
<text text-anchor="middle" x="-2.1573" y="1.8598">
Algieba
</text>
<text text-anchor="middle" x="2.85" y="-1.0236">
Prost
</text>
<text text-anchor="middle" x="0.2427" y="0.4518">
Tegmen
</text>
<text text-anchor="middle" x="1.3146" y="-0.2952">
Grosjean
</text>
<text text-anchor="middle" x="0.9" y="0.2755">
Ras
</text>
<text text-anchor="middle" x="-0.75" y="1.5745">
Hassaleh
</text>
<text text-anchor="middle" x="2.8206" y="-0.8381">
Jolyon
</text>
<text text-anchor="middle" x="0.1854" y="-0.2952">
Arneb
</text>
<text text-anchor="middle" x="0" y="-0.32450002">
Kaf
</text>
<text text-anchor="middle" x="-2.4927" y="1.3981999">
Propus
</text>
<text text-anchor="middle" x="2.7354" y="-0.6709">
Perez
</text>
<text text-anchor="middle" x="2.8206" y="-1.209">
Tsunoda
</text>
<text text-anchor="middle" x="1.0146" y="0.6282">
Sargas
</text>
<text text-anchor="middle" x="-1.0146" y="2.5209">
Yay
</text>
<text text-anchor="middle" x="-0.5646" y="2.1452">
TienKuan
</text>
<text text-anchor="middle" x="-1.0146" y="3.2261999">
Ick
</text>
<text text-anchor="middle" x="-0.6573" y="1.2892">
Menkib
</text>
<text text-anchor="middle" x="-2.85" y="1.5745">
Azimech
</text>
</g>
</svg>