<svg viewBox="-3.4199998 -2.05832 6.84 6.11664" xmlns="http://www.w3.org/2000/svg">
<style>
.star { font: 0.05px sans-serif; fill: red; }
.fleet { font: 0.03px sans-serif; fill: white; }
</style>
<g fill="none" stroke="black" stroke-width="0.01">
<circle cx="-1.2354" cy="2.0022" fill="#FFBE0E" r="0.05"/>
<circle cx="-2.0706" cy="3.134" fill="#00A0DF" r="0.05"/>
<circle cx="-1.9854" cy="3.3012" fill="#00A0DF" r="0.05"/>
<circle cx="-2.0646" cy="1.0789" fill="#37BB00" r="0.05"/>
<circle cx="2.8206" cy="-0.7631" fill="#C11A00" r="0.05"/>
<circle cx="-2.0073" cy="1.8259" fill="#37BB00" r="0.05"/>
<circle cx="1.1473" cy="0.8359" fill="#0433FF" r="0.05"/>
<circle cx="-2.25" cy="1.0495" fill="#37BB00" r="0.05"/>
<circle cx="-0.6573" cy="1.9348" fill="#FFBE0E" r="0.05"/>
<circle cx="1.6794" cy="-0.7631" fill="#0433FF" r="0.05"/>
<circle cx="-1.6794" cy="1.4641" fill="#37BB00" r="0.05"/>
<circle cx="-1.6794" cy="1.8349" fill="#37BB00" r="0.05"/>
<circle cx="-2.4927" cy="1.8259" fill="#37BB00" r="0.05"/>
<circle cx="-1.8527" cy="3.434" fill="#00A0DF" r="0.05"/>
<circle cx="0" cy="-0.2495" fill="#E16200" r="0.05"/>
<circle cx="-1.0146" cy="2.5959" fill="#00A0DF" r="0.05"/>
<circle cx="1.7427" cy="0.5268" fill="#0433FF" r="0.05"/>
<circle cx="0.1854" cy="0.9211" fill="#E16200" r="0.05"/>
<circle cx="-0.0927" cy="0.0652" fill="#E16200" r="0.05"/>
<circle cx="-0.4854" cy="-0.0022" fill="#E16200" r="0.05"/>
<circle cx="-2.1573" cy="1.3642" fill="#37BB00" r="0.05"/>
<circle cx="-0.45" cy="1.6495" fill="#FFBE0E" r="0.05"/>
<circle cx="2.0646" cy="-1.5192" fill="#C11A00" r="0.05"/>
<circle cx="-1.5" cy="2.3486" fill="#00A0DF" r="0.05"/>
<circle cx="1.6794" cy="-1.134" fill="#C11A00" r="0.05"/>
<circle cx="-1.65" cy="1.6495" fill="#37BB00" r="0.05"/>
<circle cx="-0.5706" cy="0.5359" fill="#E16200" r="0.05"/>
<circle cx="-1.0146" cy="3.3012" fill="#00A0DF" r="0.05"/>
<circle cx="-1.3146" cy="3.5192" fill="#00A0DF" r="0.05"/>
<circle cx="-0.5706" cy="0.1651" fill="#E16200" r="0.05"/>
<circle cx="1.1473" cy="-0.1349" fill="#0433FF" r="0.05"/>
<circle cx="0.9294" cy="0.5359" fill="#0433FF" r="0.05"/>
<circle cx="2.0073" cy="-1.1249" fill="#C11A00" r="0.05"/>
<circle cx="-0.2646" cy="2.0022" fill="#FFBE0E" r="0.05"/>
<circle cx="1.95" cy="-0.9486" fill="#C11A00" r="0.05"/>
<circle cx="-0.9294" cy="3.134" fill="#00A0DF" r="0.05"/>
<circle cx="0.9294" cy="0.1651" fill="#C11A00" r="0.05"/>
<circle cx="1.5" cy="0.9505" fill="#0433FF" r="0.05"/>
<circle cx="-0.5073" cy="1.8259" fill="#FFBE0E" r="0.05"/>
<circle cx="-1.4073" cy="2.6632" fill="#00A0DF" r="0.05"/>
<circle cx="0.9" cy="0.3505" fill="#0433FF" r="0.05"/>
<circle cx="-1.3206" cy="1.8349" fill="#FFBE0E" r="0.05"/>
<circle cx="-0.1794" cy="1.4641" fill="#FFBE0E" r="0.05"/>
<circle cx="-0.3973" cy="1.1641" fill="#E16200" r="0.05"/>
<circle cx="-1.5" cy="2.9486" fill="#00A0DF" r="0.05"/>
<circle cx="-1.7646" cy="1.2968" fill="#37BB00" r="0.05"/>
<circle cx="2.0706" cy="0.1651" fill="#0433FF" r="0.05"/>
<circle cx="1.4073" cy="0.0652" fill="#0433FF" r="0.05"/>
<circle cx="0.4854" cy="-0.0022" fill="#E16200" r="0.05"/>
<circle cx="-2.85" cy="1.6495" fill="#37BB00" r="0.05"/>
<circle cx="0" cy="0.3505" fill="#E16200" r="0.05"/>
<circle cx="-2.1573" cy="1.9348" fill="#37BB00" r="0.05"/>
<circle cx="-0.5073" cy="1.4732" fill="#FFBE0E" r="0.05"/>
<circle cx="1.8973" cy="-1.434" fill="#C11A00" r="0.05"/>
<circle cx="-1.1473" cy="3.434" fill="#00A0DF" r="0.05"/>
<circle cx="1.0146" cy="0.7032" fill="#0433FF" r="0.05"/>
<circle cx="-1.5" cy="3.5486" fill="#00A0DF" r="0.05"/>
<circle cx="-1.6854" cy="2.3779" fill="#00A0DF" r="0.05"/>
<circle cx="2.1573" cy="-1.2339" fill="#C11A00" r="0.05"/>
<circle cx="-0.15" cy="1.6495" fill="#FFBE0E" r="0.05"/>
<circle cx="1.7646" cy="-0.5959" fill="#C11A00" r="0.05"/>
<circle cx="-0.0927" cy="0.6358" fill="#E16200" r="0.05"/>
<circle cx="2.4927" cy="-1.1249" fill="#C11A00" r="0.05"/>
<circle cx="-1.3146" cy="2.3779" fill="#00A0DF" r="0.05"/>
<circle cx="2.1" cy="0.3505" fill="#0433FF" r="0.05"/>
<circle cx="-1.2354" cy="1.2968" fill="#FFBE0E" r="0.05"/>
<circle cx="0.0927" cy="0.0652" fill="#E16200" r="0.05"/>
<circle cx="-0.6573" cy="1.3642" fill="#FFBE0E" r="0.05"/>
<circle cx="-1.1027" cy="2.1349" fill="#00A0DF" r="0.05"/>
<circle cx="1.0146" cy="-0.0022" fill="#0433FF" r="0.05"/>
<circle cx="1.5927" cy="0.0652" fill="#0433FF" r="0.05"/>
<circle cx="-1.3206" cy="1.4641" fill="#FFBE0E" r="0.05"/>
<circle cx="-1.7427" cy="3.1249" fill="#00A0DF" r="0.05"/>
<circle cx="-1.2573" cy="3.1249" fill="#00A0DF" r="0.05"/>
<circle cx="-0.4854" cy="0.7032" fill="#E16200" r="0.05"/>
<circle cx="-2.6027" cy="1.1641" fill="#37BB00" r="0.05"/>
<circle cx="1.8527" cy="-0.1349" fill="#0433FF" r="0.05"/>
<circle cx="-2.1" cy="2.9486" fill="#00A0DF" r="0.05"/>
<circle cx="2.55" cy="-0.9486" fill="#C11A00" r="0.05"/>
<circle cx="-0.2427" cy="0.5268" fill="#E16200" r="0.05"/>
<circle cx="-0.6" cy="0.3505" fill="#E16200" r="0.05"/>
<circle cx="1.2573" cy="0.5268" fill="#0433FF" r="0.05"/>
<circle cx="-0.9927" cy="1.8259" fill="#FFBE0E" r="0.05"/>
<circle cx="-0.9354" cy="1.0789" fill="#FFBE0E" r="0.05"/>
<circle cx="-2.8206" cy="1.4641" fill="#37BB00" r="0.05"/>
<circle cx="1.8" cy="0.3505" fill="#0433FF" r="0.05"/>
<circle cx="-2.4354" cy="2.2202" fill="#37BB00" r="0.05"/>
<circle cx="2.7354" cy="-0.5959" fill="#C11A00" r="0.05"/>
<circle cx="-2.4354" cy="1.0789" fill="#37BB00" r="0.05"/>
<circle cx="1.6854" cy="0.9211" fill="#0433FF" r="0.05"/>
<circle cx="1.7427" cy="0.1741" fill="#0433FF" r="0.05"/>
<circle cx="1.3146" cy="-0.2202" fill="#C11A00" r="0.05"/>
<circle cx="-0.9294" cy="2.7631" fill="#00A0DF" r="0.05"/>
<circle cx="-0.2427" cy="0.1741" fill="#E16200" r="0.05"/>
<circle cx="-2.25" cy="2.2495" fill="#37BB00" r="0.05"/>
<circle cx="-0.3527" cy="-0.1349" fill="#E16200" r="0.05"/>
<circle cx="-1.1027" cy="1.1641" fill="#37BB00" r="0.05"/>
<circle cx="-0.3527" cy="0.8359" fill="#E16200" r="0.05"/>
<circle cx="2.7354" cy="-1.3012" fill="#C11A00" r="0.05"/>
<circle cx="-2.0073" cy="1.4732" fill="#37BB00" r="0.05"/>
<circle cx="-2.0646" cy="2.2202" fill="#37BB00" r="0.05"/>
<circle cx="2.1573" cy="-0.6632" fill="#C11A00" r="0.05"/>
<circle cx="1.8527" cy="0.8359" fill="#0433FF" r="0.05"/>
<circle cx="-0.5646" cy="1.0789" fill="#FFBE0E" r="0.05"/>
<circle cx="-0.8427" cy="1.9348" fill="#FFBE0E" r="0.05"/>
<circle cx="-0.1854" cy="-0.2202" fill="#E16200" r="0.05"/>
<circle cx="-1.5927" cy="3.2339" fill="#00A0DF" r="0.05"/>
<circle cx="2.6027" cy="-0.4631" fill="#C11A00" r="0.05"/>
<circle cx="-1.8527" cy="2.4631" fill="#00A0DF" r="0.05"/>
<circle cx="1.5927" cy="0.6358" fill="#0433FF" r="0.05"/>
<circle cx="-0.1794" cy="1.8349" fill="#FFBE0E" r="0.05"/>
<circle cx="-2.25" cy="1.6495" fill="#37BB00" r="0.05"/>
<circle cx="-2.7354" cy="2.0022" fill="#37BB00" r="0.05"/>
<circle cx="2.3427" cy="-1.2339" fill="#C11A00" r="0.05"/>
<circle cx="-2.6027" cy="2.1349" fill="#37BB00" r="0.05"/>
<circle cx="-0.1854" cy="0.9211" fill="#E16200" r="0.05"/>
<circle cx="-0.75" cy="2.2495" fill="#FFBE0E" r="0.05"/>
<circle cx="2.25" cy="-0.9486" fill="#C11A00" r="0.05"/>
<circle cx="1.4073" cy="0.6358" fill="#0433FF" r="0.05"/>
<circle cx="0.3" cy="0.3505" fill="#E16200" r="0.05"/>
<circle cx="1.8973" cy="-0.4631" fill="#C11A00" r="0.05"/>
<circle cx="1.65" cy="-0.9486" fill="#C11A00" r="0.05"/>
<circle cx="-1.5927" cy="2.6632" fill="#00A0DF" r="0.05"/>
<circle cx="1.6854" cy="-0.2202" fill="#0433FF" r="0.05"/>
<circle cx="-2.3427" cy="1.9348" fill="#37BB00" r="0.05"/>
<circle cx="-1.2573" cy="2.7722" fill="#00A0DF" r="0.05"/>
<circle cx="-0.5646" cy="2.2202" fill="#FFBE0E" r="0.05"/>
<circle cx="0.5706" cy="0.1651" fill="#C11A00" r="0.05"/>
<circle cx="1.2573" cy="0.1741" fill="#0433FF" r="0.05"/>
<circle cx="-1.4073" cy="3.2339" fill="#00A0DF" r="0.05"/>
<circle cx="-1.2" cy="2.9486" fill="#00A0DF" r="0.05"/>
<circle cx="-2.8206" cy="1.8349" fill="#37BB00" r="0.05"/>
<circle cx="0" cy="0.9505" fill="#0433FF" r="0.05"/>
<circle cx="0.5706" cy="0.5359" fill="#E16200" r="0.05"/>
<circle cx="1.7646" cy="-1.3012" fill="#0433FF" r="0.05"/>
<circle cx="2.4927" cy="-0.7722" fill="#C11A00" r="0.05"/>
<circle cx="-0.3" cy="0.3505" fill="#E16200" r="0.05"/>
<circle cx="2.8206" cy="-1.134" fill="#C11A00" r="0.05"/>
<circle cx="0.4854" cy="0.7032" fill="#0433FF" r="0.05"/>
<circle cx="0.2427" cy="0.1741" fill="#E16200" r="0.05"/>
<circle cx="1.9854" cy="0.7032" fill="#0433FF" r="0.05"/>
<circle cx="2.25" cy="-0.3486" fill="#C11A00" r="0.05"/>
<circle cx="0.1854" cy="-0.2202" fill="#E16200" r="0.05"/>
<circle cx="-1.9854" cy="2.5959" fill="#00A0DF" r="0.05"/>
<circle cx="-0.75" cy="1.0495" fill="#37BB00" r="0.05"/>
<circle cx="-2.7354" cy="1.2968" fill="#37BB00" r="0.05"/>
<circle cx="-2.4927" cy="1.4732" fill="#37BB00" r="0.05"/>
<circle cx="-0.9" cy="2.9486" fill="#00A0DF" r="0.05"/>
<circle cx="2.0073" cy="-0.7722" fill="#C11A00" r="0.05"/>
<circle cx="2.4354" cy="-0.3779" fill="#C11A00" r="0.05"/>
<circle cx="-1.6854" cy="3.5192" fill="#00A0DF" r="0.05"/>
<circle cx="1.5" cy="-0.2495" fill="#0433FF" r="0.05"/>
<circle cx="-1.8973" cy="1.1641" fill="#37BB00" r="0.05"/>
<circle cx="-1.05" cy="1.6495" fill="#FFBE0E" r="0.05"/>
<circle cx="-0.9354" cy="2.2202" fill="#FFBE0E" r="0.05"/>
<circle cx="-1.8" cy="2.9486" fill="#00A0DF" r="0.05"/>
<circle cx="-2.55" cy="1.6495" fill="#37BB00" r="0.05"/>
<circle cx="2.25" cy="-1.5486" fill="#C11A00" r="0.05"/>
<circle cx="2.6027" cy="-1.434" fill="#C11A00" r="0.05"/>
<circle cx="2.0646" cy="-0.3779" fill="#C11A00" r="0.05"/>
<circle cx="-1.1473" cy="2.4631" fill="#00A0DF" r="0.05"/>
<circle cx="-1.95" cy="1.6495" fill="#37BB00" r="0.05"/>
<circle cx="2.3427" cy="-0.6632" fill="#C11A00" r="0.05"/>
<circle cx="1.3146" cy="0.9211" fill="#0433FF" r="0.05"/>
<circle cx="2.4354" cy="-1.5192" fill="#C11A00" r="0.05"/>
<circle cx="1.9854" cy="-0.0022" fill="#0433FF" r="0.05"/>
<circle cx="0.2427" cy="0.5268" fill="#E16200" r="0.05"/>
<circle cx="-0.75" cy="1.6495" fill="#FFBE0E" r="0.05"/>
<circle cx="-0.3973" cy="2.1349" fill="#FFBE0E" r="0.05"/>
<circle cx="1.2" cy="0.3505" fill="#0433FF" r="0.05"/>
<circle cx="-0.9927" cy="1.4732" fill="#FFBE0E" r="0.05"/>
<circle cx="0.3527" cy="0.8359" fill="#E16200" r="0.05"/>
<circle cx="0.0927" cy="0.6358" fill="#E16200" r="0.05"/>
<circle cx="-2.3427" cy="1.3642" fill="#37BB00" r="0.05"/>
<circle cx="0.3527" cy="-0.1349" fill="#E16200" r="0.05"/>
<circle cx="1.5" cy="0.3505" fill="#0433FF" r="0.05"/>
<circle cx="-1.7427" cy="2.7722" fill="#00A0DF" r="0.05"/>
<circle cx="2.85" cy="-0.9486" fill="#C11A00" r="0.05"/>
<circle cx="-0.2646" cy="1.2968" fill="#FFBE0E" r="0.05"/>
<circle cx="-2.0706" cy="2.7631" fill="#37BB00" r="0.05"/>
<circle cx="-1.8973" cy="2.1349" fill="#37BB00" r="0.05"/>
<circle cx="-1.7646" cy="2.0022" fill="#37BB00" r="0.05"/>
<circle cx="-1.35" cy="1.6495" fill="#37BB00" r="0.05"/>
<circle cx="2.0706" cy="0.5359" fill="#0433FF" r="0.05"/>
<circle cx="-0.8427" cy="1.3642" fill="#FFBE0E" r="0.05"/>
<circle cx="0.6" cy="0.3505" fill="#E16200" r="0.05"/>
</g>
<g fill="#E16200">
<line stroke="#E16200" stroke-width="0.01" x1="0.04120227" x2="0.02832656" y1="0.47728848" y2="0.43766114"/>
<line stroke="#E16200" stroke-width="0.01" x1="0.02832656" x2="0" y1="0.43766114" y2="0.3505"/>
<line stroke="#E16200" stroke-width="0.01" x1="0" x2="0.2427" y1="0.3505" y2="0.5268"/>
<line stroke="#E16200" stroke-width="0.01" x1="0.2427" x2="0.0927" y1="0.5268" y2="0.6358"/>
<polygon points="0.020599606 0.41388524 0.01159949 0.45624083 0.052780584 0.44285735" stroke="black" stroke-width="0.005"/>
<text class="fleet" text-anchor="middle" x="0.02832656" y="0.45016113">
1
</text>
<line stroke="#E16200" stroke-width="0.01" x1="-0.06695368" x2="-0.05407797" y1="0.1444187" y2="0.18404606"/>
<line stroke="#E16200" stroke-width="0.01" x1="-0.05407797" x2="0" y1="0.18404606" y2="0.3505"/>
<line stroke="#E16200" stroke-width="0.01" x1="0" x2="0.0927" y1="0.3505" y2="0.0652"/>
<line stroke="#E16200" stroke-width="0.01" x1="0.0927" x2="0.0927" y1="0.0652" y2="0.0652"/>
<line stroke="#E16200" stroke-width="0.01" x1="0.0927" x2="-0.0927" y1="0.0652" y2="0.0652"/>
<polygon points="-0.046353348 0.20782274 -0.037349083 0.16546799 -0.07853149 0.17884746" stroke="black" stroke-width="0.005"/>
<text class="fleet" text-anchor="middle" x="-0.05407797" y="0.19654606">
10
</text>
<line stroke="#E16200" stroke-width="0.01" x1="0.2555808" x2="0.26845652" y1="0.21377273" y2="0.2534001"/>
<line stroke="#E16200" stroke-width="0.01" x1="0.26845652" x2="0.3" y1="0.2534001" y2="0.3505"/>
<line stroke="#E16200" stroke-width="0.01" x1="0.3" x2="0" y1="0.3505" y2="0.3505"/>
<line stroke="#E16200" stroke-width="0.01" x1="0" x2="0.2427" y1="0.3505" y2="0.1741"/>
<polygon points="0.27618057 0.27717695 0.28518584 0.23482242 0.24400312 0.24820091" stroke="black" stroke-width="0.005"/>
<text class="fleet" text-anchor="middle" x="0.26845652" y="0.26590008">
72
</text>
<line stroke="#E16200" stroke-width="0.01" x1="-0.39199337" x2="-0.39732885" y1="1.124895" y2="1.1641089"/>
<polygon points="-0.40069932 1.1888807 -0.37419066 1.1546419 -0.41709659 1.1488041" stroke="black" stroke-width="0.005"/>
<text class="fleet" text-anchor="middle" x="-0.39732885" y="1.1766089">
52
</text>
<line stroke="#E16200" stroke-width="0.01" x1="-0.18283506" x2="-0.1854102" y1="0.9131894" y2="0.92111486"/>
<polygon points="-0.19313565 0.9448913 -0.1609565 0.9159171 -0.20213845 0.9025362" stroke="black" stroke-width="0.005"/>
<text class="fleet" text-anchor="middle" x="-0.1854102" y="0.93361485">
104
</text>
<line stroke="#E16200" stroke-width="0.01" x1="-0.01287571" x2="-0.02575142" y1="0.3901083" y2="0.42973566"/>
<line stroke="#E16200" stroke-width="0.01" x1="-0.02575142" x2="-0.0927" y1="0.42973566" y2="0.6358"/>
<line stroke="#E16200" stroke-width="0.01" x1="-0.0927" x2="-0.2427" y1="0.6358" y2="0.5268"/>
<polygon points="-0.033476237 0.45351228 -0.0012978632 0.42453724 -0.042480163 0.41115746" stroke="black" stroke-width="0.005"/>
<text class="fleet" text-anchor="middle" x="-0.02575142" y="0.44223565">
72
</text>
<line stroke="#E16200" stroke-width="0.01" x1="-0.18853283" x2="-0.1854102" y1="0.8804042" y2="0.92111486"/>
<polygon points="-0.18349825 0.94604164 -0.16477896 0.90699565 -0.20795341 0.9103073" stroke="black" stroke-width="0.005"/>
<text class="fleet" text-anchor="middle" x="-0.1854102" y="0.93361485">
200
</text>
<line stroke="#E16200" stroke-width="0.01" x1="-0.16461472" x2="-0.1854102" y1="0.92440856" y2="0.92111486"/>
<polygon points="-0.21010241 0.91720396 -0.17645101 0.9444544 -0.16967717 0.90168625" stroke="black" stroke-width="0.005"/>
<text class="fleet" text-anchor="middle" x="-0.1854102" y="0.93361485">
100
</text>
<line stroke="#E16200" stroke-width="0.01" x1="-0.16666667" x2="-0.20833333" y1="0.35048094" y2="0.35048094"/>
<line stroke="#E16200" stroke-width="0.01" x1="-0.20833333" x2="-0.3" y1="0.35048094" y2="0.3505"/>
<line stroke="#E16200" stroke-width="0.01" x1="-0.3" x2="-0.2427" y1="0.3505" y2="0.1741"/>
<line stroke="#E16200" stroke-width="0.01" x1="-0.2427" x2="0" y1="0.1741" y2="0.3505"/>
<polygon points="-0.23333333 0.35048613 -0.19582883 0.37212896 -0.19583784 0.3288277" stroke="black" stroke-width="0.005"/>
<text class="fleet" text-anchor="middle" x="-0.20833333" y="0.36298093">
1
</text>
<line stroke="#E16200" stroke-width="0.01" x1="-0.1725345" x2="-0.15965877" y1="0.8814875" y2="0.8418602"/>
<line stroke="#E16200" stroke-width="0.01" x1="-0.15965877" x2="-0.0927" y1="0.8418602" y2="0.6358"/>
<polygon points="-0.15193275 0.81808394 -0.1841126 0.84705734 -0.14293097 0.86043924" stroke="black" stroke-width="0.005"/>
<text class="fleet" text-anchor="middle" x="-0.15965877" y="0.85436016">
1
</text>
<line stroke="#E16200" stroke-width="0.01" x1="-0.18283506" x2="-0.1854102" y1="0.9131894" y2="0.92111486"/>
<polygon points="-0.19313565 0.9448913 -0.1609565 0.9159171 -0.20213845 0.9025362" stroke="black" stroke-width="0.005"/>
<text class="fleet" text-anchor="middle" x="-0.1854102" y="0.93361485">
454
</text>
</g>
<g fill="#C11A00">
<line stroke="#C11A00" stroke-width="0.01" x1="2.0643737" x2="2.0272484" y1="-0.4431385" y2="-0.4620548"/>
<line stroke="#C11A00" stroke-width="0.01" x1="2.0272484" x2="1.7646" y1="-0.4620548" y2="-0.5959"/>
<line stroke="#C11A00" stroke-width="0.01" x1="1.7646" x2="2.25" y1="-0.5959" y2="-0.9486"/>
<polygon points="2.004974 -0.47340584 2.0285554 -0.43708897 2.0482159 -0.47566953" stroke="black" stroke-width="0.005"/>
<text class="fleet" text-anchor="middle" x="2.0272484" y="-0.4495548">
100
</text>
<line stroke="#C11A00" stroke-width="0.01" x1="0.5328014" x2="0.5138851" y1="0.09082021" y2="0.05369494"/>
<line stroke="#C11A00" stroke-width="0.01" x1="0.5138851" x2="0.4854" y1="0.05369494" y2="-0.0022"/>
<polygon points="0.5025337 0.03142062 0.50027066 0.074662715 0.5388509 0.05500149" stroke="black" stroke-width="0.005"/>
<text class="fleet" text-anchor="middle" x="0.5138851" y="0.066194944">
100
</text>
<line stroke="#C11A00" stroke-width="0.01" x1="1.8792006" x2="1.8454915" y1="-0.6791556" y2="-0.6546645"/>
<line stroke="#C11A00" stroke-width="0.01" x1="1.8454915" x2="1.7646" y1="-0.6546645" y2="-0.5959"/>
<line stroke="#C11A00" stroke-width="0.01" x1="1.7646" x2="2.25" y1="-0.5959" y2="-0.9486"/>
<polygon points="1.8252653 -0.63997096 1.8683296 -0.6444949 1.8428797 -0.6795277" stroke="black" stroke-width="0.005"/>
<text class="fleet" text-anchor="middle" x="1.8454915" y="-0.6421645">
46
</text>
<line stroke="#C11A00" stroke-width="0.01" x1="2.115267" x2="2.1548944" y1="-0.99233454" y2="-0.97945887"/>
<line stroke="#C11A00" stroke-width="0.01" x1="2.1548944" x2="2.25" y1="-0.97945887" y2="-0.9486"/>
<polygon points="2.178674 -0.9717431 2.1496866 -1.0039104 2.1363225 -0.962723" stroke="black" stroke-width="0.005"/>
<text class="fleet" text-anchor="middle" x="2.1548944" y="-0.9669589">
1
</text>
<line stroke="#C11A00" stroke-width="0.01" x1="1.5087211" x2="1.4767376" y1="-0.38224533" y2="-0.35554025"/>
<line stroke="#C11A00" stroke-width="0.01" x1="1.4767376" x2="1.3146" y1="-0.35554025" y2="-0.2202"/>
<line stroke="#C11A00" stroke-width="0.01" x1="1.3146" x2="1.7646" y1="-0.2202" y2="-0.5959"/>
<polygon points="1.4575453 -0.3395199 1.5002079 -0.34692934 1.4724598 -0.38017154" stroke="black" stroke-width="0.005"/>
<text class="fleet" text-anchor="middle" x="1.4767376" y="-0.34304026">
604
</text>
<line stroke="#C11A00" stroke-width="0.01" x1="1.8204145" x2="1.7819573" y1="-0.43107477" y2="-0.41503865"/>
<line stroke="#C11A00" stroke-width="0.01" x1="1.7819573" x2="1.3146" y1="-0.41503865" y2="-0.2202"/>
<line stroke="#C11A00" stroke-width="0.01" x1="1.3146" x2="0.9294" y1="-0.2202" y2="0.1651"/>
<polygon points="1.7588822 -0.40541878 1.8018259 -0.399865 1.7851638 -0.43983215" stroke="black" stroke-width="0.005"/>
<text class="fleet" text-anchor="middle" x="1.7819573" y="-0.40253866">
599
</text>
</g>
<g fill="#00A0DF">
<line stroke="#00A0DF" stroke-width="0.01" x1="-1.2515029" x2="-1.2572949" y1="2.7900476" y2="2.7722216"/>
<polygon points="-1.2650203 2.748445 -1.2740232 2.7908 -1.2328413 2.7774193" stroke="black" stroke-width="0.005"/>
<text class="fleet" text-anchor="middle" x="-1.2572949" y="2.7847216">
599
</text>
<line stroke="#00A0DF" stroke-width="0.01" x1="-0.9260724" x2="-0.9293661" y1="2.7839425" y2="2.7631469"/>
<polygon points="-0.93327695 2.7384546 -0.9487948 2.77888 -0.9060266 2.7721062" stroke="black" stroke-width="0.005"/>
<text class="fleet" text-anchor="middle" x="-0.9293661" y="2.775647">
100
</text>
<line stroke="#00A0DF" stroke-width="0.01" x1="-1.1571252" x2="-1.1473289" y1="2.4766307" y2="2.463147"/>
<polygon points="-1.1326344 2.4429214 -1.172192 2.4605339 -1.1371603 2.4859855" stroke="black" stroke-width="0.005"/>
<text class="fleet" text-anchor="middle" x="-1.1473289" y="2.475647">
100
</text>
<line stroke="#00A0DF" stroke-width="0.01" x1="-1.9826286" x2="-1.9854102" y1="2.5944686" y2="2.595886"/>
<polygon points="-2.0076852 2.6072364 -1.9644431 2.6095014 -1.9841025 2.5709202" stroke="black" stroke-width="0.005"/>
<text class="fleet" text-anchor="middle" x="-1.9854102" y="2.608386">
100
</text>
<line stroke="#00A0DF" stroke-width="0.01" x1="-1.1330143" x2="-1.1026711" y1="2.1512437" y2="2.1349292"/>
<polygon points="-1.0806521 2.1230903 -1.1239336 2.1217794 -1.1034279 2.1599178" stroke="black" stroke-width="0.005"/>
<text class="fleet" text-anchor="middle" x="-1.1026711" y="2.1474292">
125
</text>
<line stroke="#00A0DF" stroke-width="0.01" x1="-1.4330463" x2="-1.445922" y1="2.7424948" y2="2.7821224"/>
<line stroke="#00A0DF" stroke-width="0.01" x1="-1.445922" x2="-1.5" y1="2.7821224" y2="2.9486"/>
<polygon points="-1.4536456 2.8058994 -1.4214687 2.7769227 -1.4626517 2.763545" stroke="black" stroke-width="0.005"/>
<text class="fleet" text-anchor="middle" x="-1.445922" y="2.7946224">
1
</text>
<line stroke="#00A0DF" stroke-width="0.01" x1="-1.3784596" x2="-1.4072949" y1="2.641046" y2="2.6632402"/>
<polygon points="-1.4271061 2.6784887 -1.3841838 2.672773 -1.4105948 2.638459" stroke="black" stroke-width="0.005"/>
<text class="fleet" text-anchor="middle" x="-1.4072949" y="2.6757402">
147
</text>
</g>
<g fill="#37BB00">
<line stroke="#37BB00" stroke-width="0.01" x1="-0.78565234" x2="-0.75" y1="1.0611032" y2="1.0495191"/>
<polygon points="-0.7262236 1.0417936 -0.76857865 1.0327908 -0.75519776 1.0739727" stroke="black" stroke-width="0.005"/>
<text class="fleet" text-anchor="middle" x="-0.75" y="1.0620191">
75
</text>
<line stroke="#37BB00" stroke-width="0.01" x1="-1.9583334" x2="-1.95" y1="1.6495191" y2="1.6495191"/>
<polygon points="-1.9250001 1.6495191 -1.9625001 1.6278684 -1.9625001 1.6711698" stroke="black" stroke-width="0.005"/>
<text class="fleet" text-anchor="middle" x="-1.95" y="1.6620191">
170
</text>
<line stroke="#37BB00" stroke-width="0.01" x1="-1.6532937" x2="-1.65" y1="1.6287236" y2="1.6495191"/>
<polygon points="-1.6460891 1.6742113 -1.6305714 1.633786 -1.6733395 1.64056" stroke="black" stroke-width="0.005"/>
<text class="fleet" text-anchor="middle" x="-1.65" y="1.6620191">
80
</text>
<line stroke="#37BB00" stroke-width="0.01" x1="-2.0224588" x2="-2.007295" y1="1.4621663" y2="1.4731835"/>
<polygon points="-1.9870695 1.4878781 -2.0046816 1.4483205 -2.0301335 1.483352" stroke="black" stroke-width="0.005"/>
<text class="fleet" text-anchor="middle" x="-2.007295" y="1.4856836">
101
</text>
<line stroke="#37BB00" stroke-width="0.01" x1="-1.708659" x2="-1.6793661" y1="1.4579854" y2="1.4641088"/>
<polygon points="-1.6548951 1.4692242 -1.6871716 1.4403585 -1.6960317 1.4827436" stroke="black" stroke-width="0.005"/>
<text class="fleet" text-anchor="middle" x="-1.6793661" y="1.4766089">
100
</text>
<line stroke="#37BB00" stroke-width="0.01" x1="-2.3916667" x2="-2.35" y1="1.6495191" y2="1.6495191"/>
<line stroke="#37BB00" stroke-width="0.01" x1="-2.35" x2="-2.25" y1="1.6495191" y2="1.6495"/>
<polygon points="-2.3249998 1.6495143 -2.362504 1.6278708 -2.3624957 1.6711721" stroke="black" stroke-width="0.005"/>
<text class="fleet" text-anchor="middle" x="-2.35" y="1.6620191">
1
</text>
<line stroke="#37BB00" stroke-width="0.01" x1="-1.7794777" x2="-1.7645898" y1="2.0170782" y2="2.00219"/>
<polygon points="-1.7469122 1.9845123 -1.788738 1.9957198 -1.7581192 2.0263383" stroke="black" stroke-width="0.005"/>
<text class="fleet" text-anchor="middle" x="-1.7645898" y="2.0146902">
50
</text>
<line stroke="#37BB00" stroke-width="0.01" x1="-2.0706189" x2="-2.070634" y1="2.761786" y2="2.7631469"/>
<polygon points="-2.0709097 2.7881453 -2.0488467 2.7508867 -2.0921452 2.7504086" stroke="black" stroke-width="0.005"/>
<text class="fleet" text-anchor="middle" x="-2.070634" y="2.775647">
100
</text>
<line stroke="#37BB00" stroke-width="0.01" x1="-2.213948" x2="-2.2010722" y1="1.7604756" y2="1.800103"/>
<line stroke="#37BB00" stroke-width="0.01" x1="-2.2010722" x2="-2.1573" y1="1.800103" y2="1.9348"/>
<polygon points="-2.1933458 1.823879 -2.1843448 1.7815236 -2.225526 1.7949063" stroke="black" stroke-width="0.005"/>
<text class="fleet" text-anchor="middle" x="-2.2010722" y="1.812603">
100
</text>
</g>
<g fill="#FFBE0E">
<line stroke="#FFBE0E" stroke-width="0.01" x1="-0.2713316" x2="-0.2645898" y1="1.3017461" y2="1.2968479"/>
<polygon points="-0.24436432 1.2821534 -0.2874284 1.2866795 -0.26197666 1.321711" stroke="black" stroke-width="0.005"/>
<text class="fleet" text-anchor="middle" x="-0.2645898" y="1.309348">
1
</text>
<line stroke="#FFBE0E" stroke-width="0.01" x1="-0.56716496" x2="-0.5645898" y1="1.0868106" y2="1.0788852"/>
<polygon points="-0.55686426 1.0551088 -0.5890435 1.0840828 -0.54786164 1.0974638" stroke="black" stroke-width="0.005"/>
<text class="fleet" text-anchor="middle" x="-0.5645898" y="1.0913852">
1
</text>
<line stroke="#FFBE0E" stroke-width="0.01" x1="-0.27549708" x2="-0.2645898" y1="1.3175948" y2="1.2968479"/>
<polygon points="-0.25295624 1.2747197 -0.2895702 1.2978371 -0.2512429 1.3179871" stroke="black" stroke-width="0.005"/>
<text class="fleet" text-anchor="middle" x="-0.2645898" y="1.309348">
201
</text>
<line stroke="#FFBE0E" stroke-width="0.01" x1="-0.8979231" x2="-0.9354102" y1="2.2201529" y2="2.2201529"/>
<polygon points="-0.9604102 2.2201529 -0.9229102 2.2418034 -0.9229102 2.1985023" stroke="black" stroke-width="0.005"/>
<text class="fleet" text-anchor="middle" x="-0.9354102" y="2.232653">
123
</text>
<line stroke="#FFBE0E" stroke-width="0.01" x1="-0.56716496" x2="-0.5645898" y1="1.0868106" y2="1.0788852"/>
<polygon points="-0.55686426 1.0551088 -0.5890435 1.0840828 -0.54786164 1.0974638" stroke="black" stroke-width="0.005"/>
<text class="fleet" text-anchor="middle" x="-0.5645898" y="1.0913852">
273
</text>
<line stroke="#FFBE0E" stroke-width="0.01" x1="-1.0172803" x2="-1.058434" y1="1.1505842" y2="1.1571023"/>
<line stroke="#FFBE0E" stroke-width="0.01" x1="-1.058434" x2="-1.1027" y1="1.1571023" y2="1.1641"/>
<polygon points="-1.0831274 1.161006 -1.0427067 1.1765356 -1.0494679 1.1337655" stroke="black" stroke-width="0.005"/>
<text class="fleet" text-anchor="middle" x="-1.058434" y="1.1696024">
1
</text>
<line stroke="#FFBE0E" stroke-width="0.01" x1="-1.2449688" x2="-1.2354102" y1="1.9834304" y2="2.00219"/>
<polygon points="-1.2240604 2.0244653 -1.2217942 1.9812233 -1.260376 2.0008817" stroke="black" stroke-width="0.005"/>
<text class="fleet" text-anchor="middle" x="-1.2354102" y="2.0146902">
74
</text>
<line stroke="#FFBE0E" stroke-width="0.01" x1="-0.9893346" x2="-0.9927051" y1="1.8490503" y2="1.8258547"/>
<polygon points="-0.99630004 1.8011144 -1.0123333 1.841338 -0.969482 1.8351114" stroke="black" stroke-width="0.005"/>
<text class="fleet" text-anchor="middle" x="-0.9927051" y="1.8383547">
1
</text>
<line stroke="#FFBE0E" stroke-width="0.01" x1="-1.2245029" x2="-1.2354102" y1="1.9814433" y2="2.00219"/>
<polygon points="-1.2470437 2.0243185 -1.2104298 2.001201 -1.2487571 1.981051" stroke="black" stroke-width="0.005"/>
<text class="fleet" text-anchor="middle" x="-1.2354102" y="2.0146902">
51
</text>
<line stroke="#FFBE0E" stroke-width="0.01" x1="-0.75" x2="-0.75" y1="1.6495191" y2="1.6495191"/>
<line stroke="#FFBE0E" stroke-width="0.01" x1="-0.75" x2="-0.5073" y1="1.6495191" y2="1.4732"/>
<line stroke="#FFBE0E" stroke-width="0.01" x1="-0.5073" x2="-0.2646" y1="1.4732" y2="1.2968"/>
<polygon points="-0.72977406 1.6348251 -0.7728383 1.6393499 -0.74738765 1.6743822" stroke="black" stroke-width="0.005"/>
<text class="fleet" text-anchor="middle" x="-0.75" y="1.6620191">
314
</text>
</g>
<g fill="#0433FF">
<line stroke="#0433FF" stroke-width="0.01" x1="0.40837798" x2="0.44550326" y1="0.74240196" y2="0.7234857"/>
<line stroke="#0433FF" stroke-width="0.01" x1="0.44550326" x2="0.4854" y1="0.7234857" y2="0.7032"/>
<polygon points="0.46778807 0.71215487 0.42454806 0.7098519 0.44417366 0.74845034" stroke="black" stroke-width="0.005"/>
<text class="fleet" text-anchor="middle" x="0.44550326" y="0.7359857">
1
</text>
<line stroke="#0433FF" stroke-width="0.01" x1="0.79734" x2="0.8363312" y1="0.58563215" y2="0.57094216"/>
<line stroke="#0433FF" stroke-width="0.01" x1="0.8363312" x2="0.9294" y1="0.57094216" y2="0.5359"/>
<polygon points="0.85972774 0.56213295 0.8170039 0.5550848 0.832262 0.5956088" stroke="black" stroke-width="0.005"/>
<text class="fleet" text-anchor="middle" x="0.8363312" y="0.58344215">
1
</text>
<line stroke="#0433FF" stroke-width="0.01" x1="1.3061677" x2="1.2724588" y1="0.13863716" y2="0.1631282"/>
<line stroke="#0433FF" stroke-width="0.01" x1="1.2724588" x2="1.2573" y1="0.1631282" y2="0.1741"/>
<polygon points="1.2522069 0.17778635 1.295279 0.17333776 1.2698904 0.13826048" stroke="black" stroke-width="0.005"/>
<text class="fleet" text-anchor="middle" x="1.2724588" y="0.1756282">
51
</text>
<line stroke="#0433FF" stroke-width="0.01" x1="1.365267" x2="1.4048944" y1="0.39425835" y2="0.38138264"/>
<line stroke="#0433FF" stroke-width="0.01" x1="1.4048944" x2="1.5" y1="0.38138264" y2="0.3505"/>
<polygon points="1.4286722 0.37366152 1.3863188 0.36465102 1.3996922 0.4058354" stroke="black" stroke-width="0.005"/>
<text class="fleet" text-anchor="middle" x="1.4048944" y="0.39388263">
1
</text>
<line stroke="#0433FF" stroke-width="0.01" x1="1.5832067" x2="1.5694697" y1="-0.48778754" y2="-0.44845048"/>
<line stroke="#0433FF" stroke-width="0.01" x1="1.5694697" x2="1.5" y1="-0.44845048" y2="-0.2495"/>
<polygon points="1.5612282 -0.424848 1.5940309 -0.45311433 1.55315 -0.46738908" stroke="black" stroke-width="0.005"/>
<text class="fleet" text-anchor="middle" x="1.5694697" y="-0.4359505">
50
</text>
<line stroke="#0433FF" stroke-width="0.01" x1="0.61743635" x2="0.57844514" y1="0.6534111" y2="0.6681011"/>
<line stroke="#0433FF" stroke-width="0.01" x1="0.57844514" x2="0.4854" y1="0.6681011" y2="0.7032"/>
<polygon points="0.55505407 0.67692477 0.5977822 0.6839465 0.58249915 0.64343196" stroke="black" stroke-width="0.005"/>
<text class="fleet" text-anchor="middle" x="0.57844514" y="0.68060106">
587
</text>
<line stroke="#0433FF" stroke-width="0.01" x1="0.03990693" x2="0.00278166" y1="0.93014735" y2="0.9490636"/>
<line stroke="#0433FF" stroke-width="0.01" x1="0.00278166" x2="0" y1="0.9490636" y2="0.9505"/>
<polygon points="-0.019431522 0.9605342 0.023822078 0.9625655 0.00395442 0.9240911" stroke="black" stroke-width="0.005"/>
<text class="fleet" text-anchor="middle" x="0.00278166" y="0.9615636">
375
</text>
<line stroke="#0433FF" stroke-width="0.01" x1="1.3018632" x2="1.2622359" y1="0.4148595" y2="0.4277352"/>
<line stroke="#0433FF" stroke-width="0.01" x1="1.2622359" x2="0.9294" y1="0.4277352" y2="0.5359"/>
<polygon points="1.2384598 0.4354619 1.2808154 0.44446248 1.2674323 0.40328124" stroke="black" stroke-width="0.005"/>
<text class="fleet" text-anchor="middle" x="1.2622359" y="0.4402352">
46
</text>
<line stroke="#0433FF" stroke-width="0.01" x1="0.11137582" x2="0.14850108" y1="0.89373213" y2="0.8748159"/>
<line stroke="#0433FF" stroke-width="0.01" x1="0.14850108" x2="0.4854" y1="0.8748159" y2="0.7032"/>
<polygon points="0.17077738 0.86346835 0.12753569 0.8611978 0.14719018 0.89978147" stroke="black" stroke-width="0.005"/>
<text class="fleet" text-anchor="middle" x="0.14850108" y="0.88731587">
1
</text>
<line stroke="#0433FF" stroke-width="0.01" x1="0.945217" x2="0.9293661" y1="0.53074086" y2="0.5358911"/>
<polygon points="0.9055897 0.54361653 0.9479447 0.5526194 0.93456393 0.5114374" stroke="black" stroke-width="0.005"/>
<text class="fleet" text-anchor="middle" x="0.9293661" y="0.5483911">
46
</text>
<line stroke="#0433FF" stroke-width="0.01" x1="1.2860123" x2="1.3256396" y1="0.42000976" y2="0.40713406"/>
<line stroke="#0433FF" stroke-width="0.01" x1="1.3256396" x2="1.5" y1="0.40713406" y2="0.3505"/>
<polygon points="1.3494167 0.399411 1.3070626 0.39040396 1.3204393 0.43158722" stroke="black" stroke-width="0.005"/>
<text class="fleet" text-anchor="middle" x="1.3256396" y="0.41963404">
1
</text>
</g>
<g class="star">
<text text-anchor="middle" x="-1.2354" y="1.9271998">
Cheleb
</text>
<text text-anchor="middle" x="-2.0706" y="3.059">
Albali
</text>
<text text-anchor="middle" x="-1.9854" y="3.2261999">
SteropeII
</text>
<text text-anchor="middle" x="-2.0646" y="1.0038999">
Rotanev
</text>
<text text-anchor="middle" x="2.8206" y="-0.8381">
Jolyon
</text>
<text text-anchor="middle" x="-2.0073" y="1.7508999">
Sham
</text>
<text text-anchor="middle" x="1.1473" y="0.7609">
Rukh
</text>
<text text-anchor="middle" x="-2.25" y="0.9745">
Chi
</text>
<text text-anchor="middle" x="-0.6573" y="1.8598">
Imp
</text>
<text text-anchor="middle" x="1.6794" y="-0.8381">
Danica Patrick
</text>
<text text-anchor="middle" x="-1.6794" y="1.3891">
Errai
</text>
<text text-anchor="middle" x="-1.6794" y="1.7599">
Wasat
</text>
<text text-anchor="middle" x="-2.4927" y="1.7508999">
Tic
</text>
<text text-anchor="middle" x="-1.8527" y="3.359">
Minkar
</text>
<text text-anchor="middle" x="0" y="-0.32450002">
Kaf
</text>
<text text-anchor="middle" x="-1.0146" y="2.5209">
Yay
</text>
<text text-anchor="middle" x="1.7427" y="0.4518">
Kajam
</text>
<text text-anchor="middle" x="0.1854" y="0.84610003">
Pleione
</text>
<text text-anchor="middle" x="-0.0927" y="-0.009800002">
Naos
</text>
<text text-anchor="middle" x="-0.4854" y="-0.0772">
Pherkad
</text>
<text text-anchor="middle" x="-2.1573" y="1.2892">
Sky
</text>
<text text-anchor="middle" x="-0.45" y="1.5745">
Alnasl
</text>
<text text-anchor="middle" x="2.0646" y="-1.5942">
Norris
</text>
<text text-anchor="middle" x="-1.5" y="2.2735999">
Aldhanab
</text>
<text text-anchor="middle" x="1.6794" y="-1.209">
Earnhardt Jr
</text>
<text text-anchor="middle" x="-1.65" y="1.5745">
Biham
</text>
<text text-anchor="middle" x="-0.5706" y="0.4609">
Pax
</text>
<text text-anchor="middle" x="-1.0146" y="3.2261999">
Ick
</text>
<text text-anchor="middle" x="-1.3146" y="3.4442">
Media
</text>
<text text-anchor="middle" x="-0.5706" y="0.09009999">
Elm
</text>
<text text-anchor="middle" x="1.1473" y="-0.2099">
Merope
</text>
<text text-anchor="middle" x="0.9294" y="0.4609">
Salm
</text>
<text text-anchor="middle" x="2.0073" y="-1.1999">
Sainz
</text>
<text text-anchor="middle" x="-0.2646" y="1.9271998">
Wazn
</text>
<text text-anchor="middle" x="1.95" y="-1.0236">
Labonte
</text>
<text text-anchor="middle" x="-0.9294" y="3.059">
Bam
</text>
<text text-anchor="middle" x="0.9294" y="0.09009999">
RIP Paul Walker
</text>
<text text-anchor="middle" x="1.5" y="0.8755">
Kit
</text>
<text text-anchor="middle" x="-0.5073" y="1.7508999">
Zit
</text>
<text text-anchor="middle" x="-1.4073" y="2.5881999">
Neshmet
</text>
<text text-anchor="middle" x="0.9" y="0.2755">
Ras
</text>
<text text-anchor="middle" x="-1.3206" y="1.7599">
Becrux
</text>
<text text-anchor="middle" x="-0.1794" y="1.3891">
Alfecca
</text>
<text text-anchor="middle" x="-0.3973" y="1.0891">
Dux
</text>
<text text-anchor="middle" x="-1.5" y="2.8736">
Almach
</text>
<text text-anchor="middle" x="-1.7646" y="1.2218">
Alkalurops
</text>
<text text-anchor="middle" x="2.0706" y="0.09009999">
Sadira
</text>
<text text-anchor="middle" x="1.4073" y="-0.009800002">
Mebsuta
</text>
<text text-anchor="middle" x="0.4854" y="-0.0772">
Paw
</text>
<text text-anchor="middle" x="-2.85" y="1.5745">
Azimech
</text>
<text text-anchor="middle" x="0" y="0.2755">
Arided
</text>
<text text-anchor="middle" x="-2.1573" y="1.8598">
Algieba
</text>
<text text-anchor="middle" x="-0.5073" y="1.3981999">
Murzim
</text>
<text text-anchor="middle" x="1.8973" y="-1.5090001">
Ocon
</text>
<text text-anchor="middle" x="-1.1473" y="3.359">
Sheliak
</text>
<text text-anchor="middle" x="1.0146" y="0.6282">
Sargas
</text>
<text text-anchor="middle" x="-1.5" y="3.4736">
Alniyat
</text>
<text text-anchor="middle" x="-1.6854" y="2.3028998">
Alcor
</text>
<text text-anchor="middle" x="2.1573" y="-1.3089">
Verstappen
</text>
<text text-anchor="middle" x="-0.15" y="1.5745">
Alpheratz
</text>
<text text-anchor="middle" x="1.7646" y="-0.6709">
Adam Driver
</text>
<text text-anchor="middle" x="-0.0927" y="0.5608">
Wow
</text>
<text text-anchor="middle" x="2.4927" y="-1.1999">
Stewart
</text>
<text text-anchor="middle" x="-1.3146" y="2.3028998">
Proxima
</text>
<text text-anchor="middle" x="2.1" y="0.2755">
Alamak
</text>
<text text-anchor="middle" x="-1.2354" y="1.2218">
Dschubba
</text>
<text text-anchor="middle" x="0.0927" y="-0.009800002">
Kleeia
</text>
<text text-anchor="middle" x="-0.6573" y="1.2892">
Menkib
</text>
<text text-anchor="middle" x="-1.1027" y="2.0599">
Cox
</text>
<text text-anchor="middle" x="1.0146" y="-0.0772">
Eltanin
</text>
<text text-anchor="middle" x="1.5927" y="-0.009800002">
Alya
</text>
<text text-anchor="middle" x="-1.3206" y="1.3891">
Mirzam
</text>
<text text-anchor="middle" x="-1.7427" y="3.0499">
Caph
</text>
<text text-anchor="middle" x="-1.2573" y="3.0499">
Mira
</text>
<text text-anchor="middle" x="-0.4854" y="0.6282">
Misam
</text>
<text text-anchor="middle" x="-2.6027" y="1.0891">
Sarin
</text>
<text text-anchor="middle" x="1.8527" y="-0.2099">
Andretti
</text>
<text text-anchor="middle" x="-2.1" y="2.8736">
Pug
</text>
<text text-anchor="middle" x="2.55" y="-1.0236">
Hamilton
</text>
<text text-anchor="middle" x="-0.2427" y="0.4518">
Menkalinan
</text>
<text text-anchor="middle" x="-0.6" y="0.2755">
Ale
</text>
<text text-anchor="middle" x="1.2573" y="0.4518">
Aladfar
</text>
<text text-anchor="middle" x="-0.9927" y="1.7508999">
Asp
</text>
<text text-anchor="middle" x="-0.9354" y="1.0038999">
Mac
</text>
<text text-anchor="middle" x="-2.8206" y="1.3891">
Zoo
</text>
<text text-anchor="middle" x="1.8" y="0.2755">
Enif
</text>
<text text-anchor="middle" x="-2.4354" y="2.1452">
Spy
</text>
<text text-anchor="middle" x="2.7354" y="-0.6709">
Perez
</text>
<text text-anchor="middle" x="-2.4354" y="1.0038999">
AlGiedi
</text>
<text text-anchor="middle" x="1.6854" y="0.84610003">
Keid
</text>
<text text-anchor="middle" x="1.7427" y="0.09909999">
Vindemiatrix
</text>
<text text-anchor="middle" x="1.3146" y="-0.2952">
Grosjean
</text>
<text text-anchor="middle" x="-0.9294" y="2.6880999">
Diphda
</text>
<text text-anchor="middle" x="-0.2427" y="0.09909999">
Etamin
</text>
<text text-anchor="middle" x="-2.25" y="2.1745">
Garnet
</text>
<text text-anchor="middle" x="-0.3527" y="-0.2099">
Alkes
</text>
<text text-anchor="middle" x="-1.1027" y="1.0891">
Pure Pax
</text>
<text text-anchor="middle" x="-0.3527" y="0.7609">
Polaris
</text>
<text text-anchor="middle" x="2.7354" y="-1.3762001">
Latifi
</text>
<text text-anchor="middle" x="-2.0073" y="1.3981999">
Denebola
</text>
<text text-anchor="middle" x="-2.0646" y="2.1452">
Tab
</text>
<text text-anchor="middle" x="2.1573" y="-0.7382">
Senna
</text>
<text text-anchor="middle" x="1.8527" y="0.7609">
Alwaid
</text>
<text text-anchor="middle" x="-0.5646" y="1.0038999">
Regulus
</text>
<text text-anchor="middle" x="-0.8427" y="1.8598">
Marfark
</text>
<text text-anchor="middle" x="-0.1854" y="-0.2952">
Praecipua
</text>
<text text-anchor="middle" x="-1.5927" y="3.1589">
Mekbuda
</text>
<text text-anchor="middle" x="2.6027" y="-0.5381">
Ricciardo
</text>
<text text-anchor="middle" x="-1.8527" y="2.3881">
Tejat
</text>
<text text-anchor="middle" x="1.5927" y="0.5608">
Alphecca
</text>
<text text-anchor="middle" x="-0.1794" y="1.7599">
Sulafat
</text>
<text text-anchor="middle" x="-2.25" y="1.5745">
Castor
</text>
<text text-anchor="middle" x="-2.7354" y="1.9271998">
Marfik
</text>
<text text-anchor="middle" x="2.3427" y="-1.3089">
Petty
</text>
<text text-anchor="middle" x="-2.6027" y="2.0599">
Mizar
</text>
<text text-anchor="middle" x="-0.1854" y="0.84610003">
TseenKee
</text>
<text text-anchor="middle" x="-0.75" y="2.1745">
Arkab
</text>
<text text-anchor="middle" x="2.25" y="-1.0236">
Alonso
</text>
<text text-anchor="middle" x="1.4073" y="0.5608">
Decrux
</text>
<text text-anchor="middle" x="0.3" y="0.2755">
Ruchbah
</text>
<text text-anchor="middle" x="1.8973" y="-0.5381">
Vettel
</text>
<text text-anchor="middle" x="1.65" y="-1.0236">
Earnhardt Jr Jr
</text>
<text text-anchor="middle" x="-1.5927" y="2.5881999">
Menchib
</text>
<text text-anchor="middle" x="1.6854" y="-0.2952">
Jaw
</text>
<text text-anchor="middle" x="-2.3427" y="1.8598">
Askella
</text>
<text text-anchor="middle" x="-1.2573" y="2.6972">
Talitha
</text>
<text text-anchor="middle" x="-0.5646" y="2.1452">
TienKuan
</text>
<text text-anchor="middle" x="0.5706" y="0.09009999">
Diesel
</text>
<text text-anchor="middle" x="1.2573" y="0.09909999">
Elnath
</text>
<text text-anchor="middle" x="-1.4073" y="3.1589">
Haldus
</text>
<text text-anchor="middle" x="-1.2" y="2.8736">
Mintaka
</text>
<text text-anchor="middle" x="-2.8206" y="1.7599">
Sabik
</text>
<text text-anchor="middle" x="0" y="0.8755">
Korn
</text>
<text text-anchor="middle" x="0.5706" y="0.4609">
Maasym
</text>
<text text-anchor="middle" x="1.7646" y="-1.3762001">
Earnhardt
</text>
<text text-anchor="middle" x="2.4927" y="-0.8472">
Villeneuve
</text>
<text text-anchor="middle" x="-0.3" y="0.2755">
Koi
</text>
<text text-anchor="middle" x="2.8206" y="-1.209">
Tsunoda
</text>
<text text-anchor="middle" x="0.4854" y="0.6282">
Regor
</text>
<text text-anchor="middle" x="0.2427" y="0.09909999">
Alioth
</text>
<text text-anchor="middle" x="1.9854" y="0.6282">
Fin
</text>
<text text-anchor="middle" x="2.25" y="-0.42360002">
Jerry
</text>
<text text-anchor="middle" x="0.1854" y="-0.2952">
Arneb
</text>
<text text-anchor="middle" x="-1.9854" y="2.5209">
Arc
</text>
<text text-anchor="middle" x="-0.75" y="0.9745">
Menkent
</text>
<text text-anchor="middle" x="-2.7354" y="1.2218">
Tag
</text>
<text text-anchor="middle" x="-2.4927" y="1.3981999">
Propus
</text>
<text text-anchor="middle" x="-0.9" y="2.8736">
Sun
</text>
<text text-anchor="middle" x="2.0073" y="-0.8472">
Schumacher
</text>
<text text-anchor="middle" x="2.4354" y="-0.4529">
Mansell
</text>
<text text-anchor="middle" x="-1.6854" y="3.4442">
Dnoces
</text>
<text text-anchor="middle" x="1.5" y="-0.32450002">
Theemin
</text>
<text text-anchor="middle" x="-1.8973" y="1.0891">
Segin
</text>
<text text-anchor="middle" x="-1.05" y="1.5745">
Sasin
</text>
<text text-anchor="middle" x="-0.9354" y="2.1452">
Gatria
</text>
<text text-anchor="middle" x="-1.8" y="2.8736">
Rukbat
</text>
<text text-anchor="middle" x="-2.55" y="1.5745">
Dabih
</text>
<text text-anchor="middle" x="2.25" y="-1.6236">
De Vries
</text>
<text text-anchor="middle" x="2.6027" y="-1.5090001">
Toretto
</text>
<text text-anchor="middle" x="2.0646" y="-0.4529">
Leclerc
</text>
<text text-anchor="middle" x="-1.1473" y="2.3881">
Yed
</text>
<text text-anchor="middle" x="-1.95" y="1.5745">
Ksora
</text>
<text text-anchor="middle" x="2.3427" y="-0.7382">
Gordon
</text>
<text text-anchor="middle" x="1.3146" y="0.84610003">
Mimosa
</text>
<text text-anchor="middle" x="2.4354" y="-1.5942">
Johnson
</text>
<text text-anchor="middle" x="1.9854" y="-0.0772">
Aludra
</text>
<text text-anchor="middle" x="0.2427" y="0.4518">
Tegmen
</text>
<text text-anchor="middle" x="-0.75" y="1.5745">
Hassaleh
</text>
<text text-anchor="middle" x="-0.3973" y="2.0599">
Merak
</text>
<text text-anchor="middle" x="1.2" y="0.2755">
Alcyone
</text>
<text text-anchor="middle" x="-0.9927" y="1.3981999">
Altais
</text>
<text text-anchor="middle" x="0.3527" y="0.7609">
Sadr
</text>
<text text-anchor="middle" x="0.0927" y="0.5608">
Brachium
</text>
<text text-anchor="middle" x="-2.3427" y="1.2892">
Schedir
</text>
<text text-anchor="middle" x="0.3527" y="-0.2099">
Avior
</text>
<text text-anchor="middle" x="1.5" y="0.2755">
Acamar
</text>
<text text-anchor="middle" x="-1.7427" y="2.6972">
Mud
</text>
<text text-anchor="middle" x="2.85" y="-1.0236">
Prost
</text>
<text text-anchor="middle" x="-0.2646" y="1.2218">
Lanx
</text>
<text text-anchor="middle" x="-2.0706" y="2.6880999">
Kaus
</text>
<text text-anchor="middle" x="-1.8973" y="2.0599">
Asellus
</text>
<text text-anchor="middle" x="-1.7646" y="1.9271998">
Syrma
</text>
<text text-anchor="middle" x="-1.35" y="1.5745">
Sadalmelik
</text>
<text text-anchor="middle" x="2.0706" y="0.4609">
Adhara
</text>
<text text-anchor="middle" x="-0.8427" y="1.2892">
Rub
</text>
<text text-anchor="middle" x="0.6" y="0.2755">
Alzir
</text>
</g>
</svg>