<svg viewBox="-3.4199998 -2.05832 6.84 6.11664" xmlns="http://www.w3.org/2000/svg">
<style>
.star { font: 0.05px sans-serif; fill: red; }
.fleet { font: 0.03px sans-serif; fill: white; }
</style>
<g fill="none" stroke="black" stroke-width="0.01">
<circle cx="1.1473" cy="0.8359" fill="#0433FF" r="0.05"/>
<circle cx="-1.3206" cy="1.8349" fill="#FFBE0E" r="0.05"/>
<circle cx="1.6794" cy="-1.134" fill="#C11A00" r="0.05"/>
<circle cx="0" cy="0.9505" fill="#0433FF" r="0.05"/>
<circle cx="-2.1573" cy="1.9348" fill="#37BB00" r="0.05"/>
<circle cx="-2.85" cy="1.6495" fill="#37BB00" r="0.05"/>
<circle cx="-1.8527" cy="2.4631" fill="#00A0DF" r="0.05"/>
<circle cx="-2.8206" cy="1.8349" fill="#37BB00" r="0.05"/>
<circle cx="1.5" cy="0.9505" fill="#0433FF" r="0.05"/>
<circle cx="-2.6027" cy="2.1349" fill="#37BB00" r="0.05"/>
<circle cx="1.8" cy="0.3505" fill="#0433FF" r="0.05"/>
<circle cx="-0.5706" cy="0.1651" fill="#E16200" r="0.05"/>
<circle cx="1.8973" cy="-0.4631" fill="#C11A00" r="0.05"/>
<circle cx="0.3527" cy="0.8359" fill="#E16200" r="0.05"/>
<circle cx="-1.0146" cy="3.3012" fill="#00A0DF" r="0.05"/>
<circle cx="2.25" cy="-1.5486" fill="#C11A00" r="0.05"/>
<circle cx="0.3" cy="0.3505" fill="#E16200" r="0.05"/>
<circle cx="0.2427" cy="0.1741" fill="#E16200" r="0.05"/>
<circle cx="-1.95" cy="1.6495" fill="#37BB00" r="0.05"/>
<circle cx="0.1854" cy="-0.2202" fill="#E16200" r="0.05"/>
<circle cx="1.0146" cy="0.7032" fill="#0433FF" r="0.05"/>
<circle cx="1.4073" cy="0.6358" fill="#0433FF" r="0.05"/>
<circle cx="2.55" cy="-0.9486" fill="#C11A00" r="0.05"/>
<circle cx="0.5706" cy="0.5359" fill="#C11A00" r="0.05"/>
<circle cx="-0.9294" cy="2.7631" fill="#00A0DF" r="0.05"/>
<circle cx="-1.2573" cy="2.7722" fill="#00A0DF" r="0.05"/>
<circle cx="2.7354" cy="-1.3012" fill="#C11A00" r="0.05"/>
<circle cx="1.9854" cy="-0.0022" fill="#0433FF" r="0.05"/>
<circle cx="-1.5927" cy="2.6632" fill="#00A0DF" r="0.05"/>
<circle cx="-2.25" cy="2.2495" fill="#37BB00" r="0.05"/>
<circle cx="0.2427" cy="0.5268" fill="#E16200" r="0.05"/>
<circle cx="1.6854" cy="0.9211" fill="#0433FF" r="0.05"/>
<circle cx="-2.4354" cy="2.2202" fill="#37BB00" r="0.05"/>
<circle cx="1.8973" cy="-1.434" fill="#C11A00" r="0.05"/>
<circle cx="2.6027" cy="-0.4631" fill="#C11A00" r="0.05"/>
<circle cx="-0.4854" cy="-0.0022" fill="#E16200" r="0.05"/>
<circle cx="2.4927" cy="-1.1249" fill="#C11A00" r="0.05"/>
<circle cx="-1.3146" cy="2.3779" fill="#00A0DF" r="0.05"/>
<circle cx="-1.3146" cy="3.5192" fill="#00A0DF" r="0.05"/>
<circle cx="1.1473" cy="-0.1349" fill="#0433FF" r="0.05"/>
<circle cx="-2.25" cy="1.0495" fill="#37BB00" r="0.05"/>
<circle cx="0.9294" cy="0.5359" fill="#0433FF" r="0.05"/>
<circle cx="-1.65" cy="1.6495" fill="#37BB00" r="0.05"/>
<circle cx="-2.3427" cy="1.3642" fill="#37BB00" r="0.05"/>
<circle cx="-2.1" cy="2.9486" fill="#00A0DF" r="0.05"/>
<circle cx="0.9294" cy="0.1651" fill="#C11A00" r="0.05"/>
<circle cx="-1.7646" cy="1.2968" fill="#37BB00" r="0.05"/>
<circle cx="0.1854" cy="0.9211" fill="#E16200" r="0.05"/>
<circle cx="1.5927" cy="0.0652" fill="#0433FF" r="0.05"/>
<circle cx="-0.1794" cy="1.4641" fill="#FFBE0E" r="0.05"/>
<circle cx="1.7646" cy="-0.5959" fill="#C11A00" r="0.05"/>
<circle cx="2.8206" cy="-0.7631" fill="#C11A00" r="0.05"/>
<circle cx="-1.6854" cy="2.3779" fill="#00A0DF" r="0.05"/>
<circle cx="-0.8427" cy="1.3642" fill="#FFBE0E" r="0.05"/>
<circle cx="1.2573" cy="0.5268" fill="#0433FF" r="0.05"/>
<circle cx="-0.1854" cy="0.9211" fill="#E16200" r="0.05"/>
<circle cx="0.9" cy="0.3505" fill="#0433FF" r="0.05"/>
<circle cx="2.4927" cy="-0.7722" fill="#C11A00" r="0.05"/>
<circle cx="-0.75" cy="1.6495" fill="#FFBE0E" r="0.05"/>
<circle cx="-2.0646" cy="2.2202" fill="#37BB00" r="0.05"/>
<circle cx="-1.05" cy="1.6495" fill="#FFBE0E" r="0.05"/>
<circle cx="-1.8" cy="2.9486" fill="#00A0DF" r="0.05"/>
<circle cx="-2.6027" cy="1.1641" fill="#37BB00" r="0.05"/>
<circle cx="1.7427" cy="0.1741" fill="#0433FF" r="0.05"/>
<circle cx="-2.0646" cy="1.0789" fill="#37BB00" r="0.05"/>
<circle cx="-1.7427" cy="2.7722" fill="#00A0DF" r="0.05"/>
<circle cx="-0.9354" cy="1.0789" fill="#FFBE0E" r="0.05"/>
<circle cx="1.5927" cy="0.6358" fill="#0433FF" r="0.05"/>
<circle cx="-2.1573" cy="1.3642" fill="#37BB00" r="0.05"/>
<circle cx="-0.5646" cy="1.0789" fill="#FFBE0E" r="0.05"/>
<circle cx="-2.4927" cy="1.4732" fill="#37BB00" r="0.05"/>
<circle cx="-1.7427" cy="3.1249" fill="#00A0DF" r="0.05"/>
<circle cx="-0.2646" cy="1.2968" fill="#FFBE0E" r="0.05"/>
<circle cx="-1.1473" cy="3.434" fill="#00A0DF" r="0.05"/>
<circle cx="-1.2354" cy="1.2968" fill="#FFBE0E" r="0.05"/>
<circle cx="-1.1473" cy="2.4631" fill="#00A0DF" r="0.05"/>
<circle cx="-0.3527" cy="-0.1349" fill="#E16200" r="0.05"/>
<circle cx="-1.6794" cy="1.8349" fill="#37BB00" r="0.05"/>
<circle cx="-2.0706" cy="3.134" fill="#00A0DF" r="0.05"/>
<circle cx="-1.1027" cy="1.1641" fill="#37BB00" r="0.05"/>
<circle cx="1.3146" cy="-0.2202" fill="#C11A00" r="0.05"/>
<circle cx="-1.6854" cy="3.5192" fill="#00A0DF" r="0.05"/>
<circle cx="-0.9927" cy="1.4732" fill="#FFBE0E" r="0.05"/>
<circle cx="2.0646" cy="-1.5192" fill="#C11A00" r="0.05"/>
<circle cx="-0.6573" cy="1.9348" fill="#FFBE0E" r="0.05"/>
<circle cx="0" cy="-0.2495" fill="#E16200" r="0.05"/>
<circle cx="-1.2" cy="2.9486" fill="#00A0DF" r="0.05"/>
<circle cx="-1.5" cy="3.5486" fill="#00A0DF" r="0.05"/>
<circle cx="-0.0927" cy="0.6358" fill="#E16200" r="0.05"/>
<circle cx="1.6794" cy="-0.7631" fill="#0433FF" r="0.05"/>
<circle cx="2.6027" cy="-1.434" fill="#C11A00" r="0.05"/>
<circle cx="-2.4927" cy="1.8259" fill="#37BB00" r="0.05"/>
<circle cx="2.25" cy="-0.3486" fill="#C11A00" r="0.05"/>
<circle cx="-0.5706" cy="0.5359" fill="#E16200" r="0.05"/>
<circle cx="2.7354" cy="-0.5959" fill="#C11A00" r="0.05"/>
<circle cx="1.8527" cy="-0.1349" fill="#0433FF" r="0.05"/>
<circle cx="-1.4073" cy="2.6632" fill="#00A0DF" r="0.05"/>
<circle cx="-0.9294" cy="3.134" fill="#00A0DF" r="0.05"/>
<circle cx="2.0706" cy="0.5359" fill="#0433FF" r="0.05"/>
<circle cx="-2.0073" cy="1.4732" fill="#37BB00" r="0.05"/>
<circle cx="1.8527" cy="0.8359" fill="#0433FF" r="0.05"/>
<circle cx="-0.3" cy="0.3505" fill="#E16200" r="0.05"/>
<circle cx="-1.8973" cy="2.1349" fill="#37BB00" r="0.05"/>
<circle cx="-0.3527" cy="0.8359" fill="#E16200" r="0.05"/>
<circle cx="2.4354" cy="-1.5192" fill="#C11A00" r="0.05"/>
<circle cx="0.0927" cy="0.6358" fill="#E16200" r="0.05"/>
<circle cx="1.4073" cy="0.0652" fill="#0433FF" r="0.05"/>
<circle cx="0.4854" cy="-0.0022" fill="#C11A00" r="0.05"/>
<circle cx="-0.9" cy="2.9486" fill="#00A0DF" r="0.05"/>
<circle cx="2.25" cy="-0.9486" fill="#C11A00" r="0.05"/>
<circle cx="-0.15" cy="1.6495" fill="#FFBE0E" r="0.05"/>
<circle cx="-0.9927" cy="1.8259" fill="#FFBE0E" r="0.05"/>
<circle cx="-0.2427" cy="0.5268" fill="#E16200" r="0.05"/>
<circle cx="1.5" cy="0.3505" fill="#0433FF" r="0.05"/>
<circle cx="0.4854" cy="0.7032" fill="#0433FF" r="0.05"/>
<circle cx="2.3427" cy="-1.2339" fill="#C11A00" r="0.05"/>
<circle cx="-2.55" cy="1.6495" fill="#37BB00" r="0.05"/>
<circle cx="-0.75" cy="2.2495" fill="#FFBE0E" r="0.05"/>
<circle cx="-0.1854" cy="-0.2202" fill="#E16200" r="0.05"/>
<circle cx="1.7427" cy="0.5268" fill="#0433FF" r="0.05"/>
<circle cx="-0.6573" cy="1.3642" fill="#FFBE0E" r="0.05"/>
<circle cx="-1.2573" cy="3.1249" fill="#00A0DF" r="0.05"/>
<circle cx="-1.6794" cy="1.4641" fill="#37BB00" r="0.05"/>
<circle cx="2.8206" cy="-1.134" fill="#C11A00" r="0.05"/>
<circle cx="1.7646" cy="-1.3012" fill="#0433FF" r="0.05"/>
<circle cx="-2.3427" cy="1.9348" fill="#37BB00" r="0.05"/>
<circle cx="-1.8973" cy="1.1641" fill="#37BB00" r="0.05"/>
<circle cx="1.2" cy="0.3505" fill="#0433FF" r="0.05"/>
<circle cx="1.3146" cy="0.9211" fill="#0433FF" r="0.05"/>
<circle cx="0.6" cy="0.3505" fill="#E16200" r="0.05"/>
<circle cx="1.65" cy="-0.9486" fill="#C11A00" r="0.05"/>
<circle cx="2.3427" cy="-0.6632" fill="#C11A00" r="0.05"/>
<circle cx="2.85" cy="-0.9486" fill="#C11A00" r="0.05"/>
<circle cx="1.6854" cy="-0.2202" fill="#0433FF" r="0.05"/>
<circle cx="-0.8427" cy="1.9348" fill="#FFBE0E" r="0.05"/>
<circle cx="0.3527" cy="-0.1349" fill="#E16200" r="0.05"/>
<circle cx="-0.1794" cy="1.8349" fill="#FFBE0E" r="0.05"/>
<circle cx="2.0073" cy="-1.1249" fill="#C11A00" r="0.05"/>
<circle cx="2.0073" cy="-0.7722" fill="#C11A00" r="0.05"/>
<circle cx="-1.5" cy="2.3486" fill="#00A0DF" r="0.05"/>
<circle cx="-0.9354" cy="2.2202" fill="#FFBE0E" r="0.05"/>
<circle cx="-1.0146" cy="2.5959" fill="#00A0DF" r="0.05"/>
<circle cx="1.95" cy="-0.9486" fill="#C11A00" r="0.05"/>
<circle cx="-0.2646" cy="2.0022" fill="#FFBE0E" r="0.05"/>
<circle cx="-1.3206" cy="1.4641" fill="#FFBE0E" r="0.05"/>
<circle cx="-1.2354" cy="2.0022" fill="#FFBE0E" r="0.05"/>
<circle cx="1.5" cy="-0.2495" fill="#0433FF" r="0.05"/>
<circle cx="0.0927" cy="0.0652" fill="#E16200" r="0.05"/>
<circle cx="-2.7354" cy="2.0022" fill="#37BB00" r="0.05"/>
<circle cx="-1.9854" cy="2.5959" fill="#00A0DF" r="0.05"/>
<circle cx="-0.4854" cy="0.7032" fill="#E16200" r="0.05"/>
<circle cx="0" cy="0.3505" fill="#E16200" r="0.05"/>
<circle cx="-1.5" cy="2.9486" fill="#00A0DF" r="0.05"/>
<circle cx="-0.5073" cy="1.8259" fill="#FFBE0E" r="0.05"/>
<circle cx="-0.3973" cy="2.1349" fill="#FFBE0E" r="0.05"/>
<circle cx="-1.8527" cy="3.434" fill="#00A0DF" r="0.05"/>
<circle cx="1.2573" cy="0.1741" fill="#0433FF" r="0.05"/>
<circle cx="-1.9854" cy="3.3012" fill="#00A0DF" r="0.05"/>
<circle cx="-0.75" cy="1.0495" fill="#37BB00" r="0.05"/>
<circle cx="-1.4073" cy="3.2339" fill="#00A0DF" r="0.05"/>
<circle cx="-0.2427" cy="0.1741" fill="#E16200" r="0.05"/>
<circle cx="2.1573" cy="-1.2339" fill="#C11A00" r="0.05"/>
<circle cx="-0.45" cy="1.6495" fill="#FFBE0E" r="0.05"/>
<circle cx="2.1573" cy="-0.6632" fill="#C11A00" r="0.05"/>
<circle cx="2.0646" cy="-0.3779" fill="#C11A00" r="0.05"/>
<circle cx="2.1" cy="0.3505" fill="#0433FF" r="0.05"/>
<circle cx="-0.3973" cy="1.1641" fill="#E16200" r="0.05"/>
<circle cx="-2.25" cy="1.6495" fill="#37BB00" r="0.05"/>
<circle cx="1.0146" cy="-0.0022" fill="#0433FF" r="0.05"/>
<circle cx="0.5706" cy="0.1651" fill="#C11A00" r="0.05"/>
<circle cx="-1.7646" cy="2.0022" fill="#37BB00" r="0.05"/>
<circle cx="-1.35" cy="1.6495" fill="#37BB00" r="0.05"/>
<circle cx="2.0706" cy="0.1651" fill="#0433FF" r="0.05"/>
<circle cx="-2.0073" cy="1.8259" fill="#37BB00" r="0.05"/>
<circle cx="1.9854" cy="0.7032" fill="#0433FF" r="0.05"/>
<circle cx="-2.0706" cy="2.7631" fill="#00A0DF" r="0.05"/>
<circle cx="-2.8206" cy="1.4641" fill="#37BB00" r="0.05"/>
<circle cx="-0.0927" cy="0.0652" fill="#E16200" r="0.05"/>
<circle cx="-0.5073" cy="1.4732" fill="#FFBE0E" r="0.05"/>
<circle cx="-1.1027" cy="2.1349" fill="#00A0DF" r="0.05"/>
<circle cx="2.4354" cy="-0.3779" fill="#C11A00" r="0.05"/>
<circle cx="-2.7354" cy="1.2968" fill="#37BB00" r="0.05"/>
<circle cx="-2.4354" cy="1.0789" fill="#37BB00" r="0.05"/>
<circle cx="-1.5927" cy="3.2339" fill="#00A0DF" r="0.05"/>
<circle cx="-0.6" cy="0.3505" fill="#E16200" r="0.05"/>
<circle cx="-0.5646" cy="2.2202" fill="#FFBE0E" r="0.05"/>
</g>
<g fill="#37BB00">
<line stroke="#37BB00" stroke-width="0.01" x1="-1.1797535" x2="-1.1608373" y1="1.3153917" y2="1.2782663"/>
<line stroke="#37BB00" stroke-width="0.01" x1="-1.1608373" x2="-1.1027" y1="1.2782663" y2="1.1641"/>
<polygon points="-1.1494927 1.2559885 -1.1858027 1.2795805 -1.1472164 1.2992299" stroke="black" stroke-width="0.005"/>
<text class="fleet" text-anchor="middle" x="-1.1608373" y="1.2907664">
105
</text>
<line stroke="#37BB00" stroke-width="0.01" x1="-1.4916667" x2="-1.45" y1="1.6495191" y2="1.6495191"/>
<line stroke="#37BB00" stroke-width="0.01" x1="-1.45" x2="-1.35" y1="1.6495191" y2="1.6495"/>
<polygon points="-1.4250001 1.6495143 -1.4625041 1.6278708 -1.4624959 1.6711721" stroke="black" stroke-width="0.005"/>
<text class="fleet" text-anchor="middle" x="-1.45" y="1.6620191">
170
</text>
<line stroke="#37BB00" stroke-width="0.01" x1="-1.904425" x2="-1.8973289" y1="2.1606524" y2="2.1349292"/>
<polygon points="-1.8906806 2.1108294 -1.921524 2.1412215 -1.879782 2.1527367" stroke="black" stroke-width="0.005"/>
<text class="fleet" text-anchor="middle" x="-1.8973289" y="2.1474292">
149
</text>
<line stroke="#37BB00" stroke-width="0.01" x1="-2.162445" x2="-2.157295" y1="1.9189851" y2="1.934836"/>
<polygon points="-2.1495697 1.9586126 -2.1405666 1.9162576 -2.1817486 1.929638" stroke="black" stroke-width="0.005"/>
<text class="fleet" text-anchor="middle" x="-2.157295" y="1.9473361">
100
</text>
<line stroke="#37BB00" stroke-width="0.01" x1="-1.7794777" x2="-1.7645898" y1="2.0170782" y2="2.00219"/>
<polygon points="-1.7469122 1.9845123 -1.788738 1.9957198 -1.7581192 2.0263383" stroke="black" stroke-width="0.005"/>
<text class="fleet" text-anchor="middle" x="-1.7645898" y="2.0146902">
50
</text>
<line stroke="#37BB00" stroke-width="0.01" x1="-2.0224588" x2="-2.007295" y1="1.4621663" y2="1.4731835"/>
<polygon points="-1.9870695 1.4878781 -2.0046816 1.4483205 -2.0301335 1.483352" stroke="black" stroke-width="0.005"/>
<text class="fleet" text-anchor="middle" x="-2.007295" y="1.4856836">
101
</text>
<line stroke="#37BB00" stroke-width="0.01" x1="-0.78565234" x2="-0.75" y1="1.0611032" y2="1.0495191"/>
<polygon points="-0.7262236 1.0417936 -0.76857865 1.0327908 -0.75519776 1.0739727" stroke="black" stroke-width="0.005"/>
<text class="fleet" text-anchor="middle" x="-0.75" y="1.0620191">
75
</text>
<line stroke="#37BB00" stroke-width="0.01" x1="-1.695217" x2="-1.6793661" y1="1.4692591" y2="1.4641088"/>
<polygon points="-1.6555897 1.4563833 -1.6979448 1.4473807 -1.6845639 1.4885626" stroke="black" stroke-width="0.005"/>
<text class="fleet" text-anchor="middle" x="-1.6793661" y="1.4766089">
376
</text>
<line stroke="#37BB00" stroke-width="0.01" x1="-1.2727593" x2="-1.235795" y1="1.2525897" y2="1.2333606"/>
<line stroke="#37BB00" stroke-width="0.01" x1="-1.235795" x2="-1.1027" y1="1.2333606" y2="1.1641"/>
<polygon points="-1.213618 1.2218201 -1.2568779 1.2199252 -1.2368891 1.2583367" stroke="black" stroke-width="0.005"/>
<text class="fleet" text-anchor="middle" x="-1.235795" y="1.2458607">
100
</text>
</g>
<g fill="#00A0DF">
<line stroke="#00A0DF" stroke-width="0.01" x1="-0.9177681" x2="-0.8807875" y1="2.0389414" y2="2.019744"/>
<line stroke="#00A0DF" stroke-width="0.01" x1="-0.8807875" x2="-0.5073" y1="2.019744" y2="1.8259"/>
<polygon points="-0.8585981 2.0082273 -0.9018558 2.0062857 -0.8819086 2.0447187" stroke="black" stroke-width="0.005"/>
<text class="fleet" text-anchor="middle" x="-0.8807875" y="2.032244">
125
</text>
<line stroke="#00A0DF" stroke-width="0.01" x1="-0.81319124" x2="-0.7899563" y1="2.5902128" y2="2.5556262"/>
<line stroke="#00A0DF" stroke-width="0.01" x1="-0.7899563" x2="-0.5646" y1="2.5556262" y2="2.2202"/>
<polygon points="-0.7760144 2.5348747 -0.8148985 2.553928 -0.77895594 2.578076" stroke="black" stroke-width="0.005"/>
<text class="fleet" text-anchor="middle" x="-0.7899563" y="2.5681262">
100
</text>
<line stroke="#00A0DF" stroke-width="0.01" x1="-1.3161697" x2="-1.2857947" y1="2.577676" y2="2.5491548"/>
<line stroke="#00A0DF" stroke-width="0.01" x1="-1.2857947" x2="-0.9354" y1="2.5491548" y2="2.2202"/>
<polygon points="-1.2675682 2.5320435 -1.3097267 2.5419257 -1.2800891 2.573495" stroke="black" stroke-width="0.005"/>
<text class="fleet" text-anchor="middle" x="-1.2857947" y="2.5616548">
1
</text>
<line stroke="#00A0DF" stroke-width="0.01" x1="-1.0056522" x2="-0.9773168" y1="2.3104038" y2="2.279855"/>
<line stroke="#00A0DF" stroke-width="0.01" x1="-0.9773168" x2="-0.6573" y1="2.279855" y2="1.9348"/>
<polygon points="-0.96031666 2.261525 -1.0016912 2.2742975 -0.96994245 2.3037426" stroke="black" stroke-width="0.005"/>
<text class="fleet" text-anchor="middle" x="-0.9773168" y="2.292355">
100
</text>
<line stroke="#00A0DF" stroke-width="0.01" x1="-1.4489616" x2="-1.4906282" y1="2.6632402" y2="2.6632402"/>
<line stroke="#00A0DF" stroke-width="0.01" x1="-1.4906282" x2="-1.5927" y1="2.6632402" y2="2.6632"/>
<polygon points="-1.5156282 2.6632304 -1.4781368 2.6848958 -1.4781197 2.6415944" stroke="black" stroke-width="0.005"/>
<text class="fleet" text-anchor="middle" x="-1.4906282" y="2.6757402">
1
</text>
<line stroke="#00A0DF" stroke-width="0.01" x1="-1.1874602" x2="-1.1734931" y1="2.5759416" y2="2.5366855"/>
<line stroke="#00A0DF" stroke-width="0.01" x1="-1.1734931" x2="-1.1473" y1="2.5366855" y2="2.4631"/>
<polygon points="-1.1651095 2.513133 -1.198082 2.5412014 -1.157288 2.555722" stroke="black" stroke-width="0.005"/>
<text class="fleet" text-anchor="middle" x="-1.1734931" y="2.5491855">
607
</text>
<line stroke="#00A0DF" stroke-width="0.01" x1="-1.4072949" x2="-1.4072949" y1="2.6632402" y2="2.6632402"/>
<line stroke="#00A0DF" stroke-width="0.01" x1="-1.4072949" x2="-0.9354" y1="2.6632402" y2="2.2202"/>
<polygon points="-1.3890687 2.6461287 -1.4312271 2.6560118 -1.4015888 2.6875803" stroke="black" stroke-width="0.005"/>
<text class="fleet" text-anchor="middle" x="-1.4072949" y="2.6757402">
413
</text>
<line stroke="#00A0DF" stroke-width="0.01" x1="-1.92332" x2="-1.8938572" y1="2.615833" y2="2.5863702"/>
<line stroke="#00A0DF" stroke-width="0.01" x1="-1.8938572" x2="-1.6854" y1="2.5863702" y2="2.3779"/>
<polygon points="-1.8761802 2.568692 -1.9180056 2.5799005 -1.887386 2.6105182" stroke="black" stroke-width="0.005"/>
<text class="fleet" text-anchor="middle" x="-1.8938572" y="2.5988703">
100
</text>
</g>
<g fill="#C11A00">
<line stroke="#C11A00" stroke-width="0.01" x1="1.8792006" x2="1.8454915" y1="-0.6791556" y2="-0.6546645"/>
<line stroke="#C11A00" stroke-width="0.01" x1="1.8454915" x2="1.7646" y1="-0.6546645" y2="-0.5959"/>
<polygon points="1.8252653 -0.63997096 1.8683296 -0.6444949 1.8428797 -0.6795277" stroke="black" stroke-width="0.005"/>
<text class="fleet" text-anchor="middle" x="1.8454915" y="-0.6421645">
143
</text>
<line stroke="#C11A00" stroke-width="0.01" x1="2.2365165" x2="2.25" y1="-0.93876076" y2="-0.94855714"/>
<line stroke="#C11A00" stroke-width="0.01" x1="2.25" x2="1.7646" y1="-0.94855714" y2="-0.5959"/>
<line stroke="#C11A00" stroke-width="0.01" x1="1.7646" x2="2.25" y1="-0.5959" y2="-0.9486"/>
<polygon points="2.2297745 -0.9338627 2.2728386 -0.9383885 2.247387 -0.9734202" stroke="black" stroke-width="0.005"/>
<text class="fleet" text-anchor="middle" x="2.25" y="-0.93605715">
106
</text>
<line stroke="#C11A00" stroke-width="0.01" x1="1.6664093" x2="1.6983927" y1="-0.5139089" y2="-0.540614"/>
<line stroke="#C11A00" stroke-width="0.01" x1="1.6983927" x2="1.7646" y1="-0.540614" y2="-0.5959"/>
<line stroke="#C11A00" stroke-width="0.01" x1="1.7646" x2="1.3146" y1="-0.5959" y2="-0.2202"/>
<polygon points="1.7175821 -0.556638 1.6749209 -0.5492205 1.7026752 -0.5159835" stroke="black" stroke-width="0.005"/>
<text class="fleet" text-anchor="middle" x="1.6983927" y="-0.528114">
1
</text>
<line stroke="#C11A00" stroke-width="0.01" x1="1.1967387" x2="1.1672759" y1="-0.10230183" y2="-0.07283905"/>
<line stroke="#C11A00" stroke-width="0.01" x1="1.1672759" x2="0.9294" y1="-0.07283905" y2="0.1651"/>
<polygon points="1.1496006 -0.055159032 1.191425 -0.06637178 1.1608022 -0.09698634" stroke="black" stroke-width="0.005"/>
<text class="fleet" text-anchor="middle" x="1.1672759" y="-0.060339052">
1202
</text>
<line stroke="#C11A00" stroke-width="0.01" x1="0.57014555" x2="0.5706339" y1="0.53280765" y2="0.5358911"/>
<polygon points="0.5745445 0.56058335 0.5900627 0.5201583 0.54729444 0.5269317" stroke="black" stroke-width="0.005"/>
<text class="fleet" text-anchor="middle" x="0.5706339" y="0.5483911">
100
</text>
<line stroke="#C11A00" stroke-width="0.01" x1="2.0679712" x2="2.1016803" y1="-0.81630546" y2="-0.84079653"/>
<line stroke="#C11A00" stroke-width="0.01" x1="2.1016803" x2="2.25" y1="-0.84079653" y2="-0.9486"/>
<polygon points="2.121903 -0.855495 2.0788398 -0.8509606 2.104298 -0.815934" stroke="black" stroke-width="0.005"/>
<text class="fleet" text-anchor="middle" x="2.1016803" y="-0.82829654">
1
</text>
</g>
<g fill="#FFBE0E">
<line stroke="#FFBE0E" stroke-width="0.01" x1="-0.9893346" x2="-0.9927051" y1="1.8490503" y2="1.8258547"/>
<polygon points="-0.99630004 1.8011144 -1.0123333 1.841338 -0.969482 1.8351114" stroke="black" stroke-width="0.005"/>
<text class="fleet" text-anchor="middle" x="-0.9927051" y="1.8383547">
1
</text>
<line stroke="#FFBE0E" stroke-width="0.01" x1="-0.2713316" x2="-0.2645898" y1="1.3017461" y2="1.2968479"/>
<polygon points="-0.24436432 1.2821534 -0.2874284 1.2866795 -0.26197666 1.321711" stroke="black" stroke-width="0.005"/>
<text class="fleet" text-anchor="middle" x="-0.2645898" y="1.309348">
66
</text>
<line stroke="#FFBE0E" stroke-width="0.01" x1="-0.27549708" x2="-0.2645898" y1="1.3175948" y2="1.2968479"/>
<line stroke="#FFBE0E" stroke-width="0.01" x1="-0.2645898" x2="-0.75" y1="1.2968479" y2="1.6495"/>
<polygon points="-0.28481558 1.311542 -0.2417514 1.307017 -0.26720238 1.2719848" stroke="black" stroke-width="0.005"/>
<text class="fleet" text-anchor="middle" x="-0.2645898" y="1.309348">
1
</text>
<line stroke="#FFBE0E" stroke-width="0.01" x1="-0.56716496" x2="-0.5645898" y1="1.0868106" y2="1.0788852"/>
<line stroke="#FFBE0E" stroke-width="0.01" x1="-0.5645898" x2="-0.3973" y1="1.0788852" y2="1.1641"/>
<polygon points="-0.54231334 1.0902325 -0.565901 1.0539196 -0.585555 1.0925035" stroke="black" stroke-width="0.005"/>
<text class="fleet" text-anchor="middle" x="-0.5645898" y="1.0913852">
100
</text>
<line stroke="#FFBE0E" stroke-width="0.01" x1="-1.0995877" x2="-1.1026711" y1="1.1636205" y2="1.1641089"/>
<polygon points="-1.1273633 1.1680199 -1.086938 1.1835374 -1.0937122 1.1407692" stroke="black" stroke-width="0.005"/>
<text class="fleet" text-anchor="middle" x="-1.1026711" y="1.1766089">
1
</text>
<line stroke="#FFBE0E" stroke-width="0.01" x1="-0.8979231" x2="-0.9354102" y1="2.2201529" y2="2.2201529"/>
<polygon points="-0.9604102 2.2201529 -0.9229102 2.2418034 -0.9229102 2.1985023" stroke="black" stroke-width="0.005"/>
<text class="fleet" text-anchor="middle" x="-0.9354102" y="2.232653">
123
</text>
<line stroke="#FFBE0E" stroke-width="0.01" x1="-1.2245029" x2="-1.2354102" y1="1.9814433" y2="2.00219"/>
<polygon points="-1.2470437 2.0243185 -1.2104298 2.001201 -1.2487571 1.981051" stroke="black" stroke-width="0.005"/>
<text class="fleet" text-anchor="middle" x="-1.2354102" y="2.0146902">
51
</text>
<line stroke="#FFBE0E" stroke-width="0.01" x1="-1.2449688" x2="-1.2354102" y1="1.9834304" y2="2.00219"/>
<polygon points="-1.2240604 2.0244653 -1.2217942 1.9812233 -1.260376 2.0008817" stroke="black" stroke-width="0.005"/>
<text class="fleet" text-anchor="middle" x="-1.2354102" y="2.0146902">
74
</text>
<line stroke="#FFBE0E" stroke-width="0.01" x1="-0.56716496" x2="-0.5645898" y1="1.0868106" y2="1.0788852"/>
<line stroke="#FFBE0E" stroke-width="0.01" x1="-0.5645898" x2="-0.6573" y1="1.0788852" y2="1.3642"/>
<polygon points="-0.57231563 1.1026615 -0.54013604 1.0736878 -0.5813177 1.0603063" stroke="black" stroke-width="0.005"/>
<text class="fleet" text-anchor="middle" x="-0.5645898" y="1.0913852">
75
</text>
<line stroke="#FFBE0E" stroke-width="0.01" x1="-0.2713316" x2="-0.2645898" y1="1.3017461" y2="1.2968479"/>
<line stroke="#FFBE0E" stroke-width="0.01" x1="-0.2645898" x2="-0.5073" y1="1.2968479" y2="1.4732"/>
<polygon points="-0.28481472 1.3115432 -0.2417508 1.3070155 -0.26720387 1.2719849" stroke="black" stroke-width="0.005"/>
<text class="fleet" text-anchor="middle" x="-0.2645898" y="1.309348">
450
</text>
</g>
<g fill="#0433FF">
<line stroke="#0433FF" stroke-width="0.01" x1="0.75834876" x2="0.79734" y1="0.6003221" y2="0.58563215"/>
<line stroke="#0433FF" stroke-width="0.01" x1="0.79734" x2="0.9294" y1="0.58563215" y2="0.5359"/>
<polygon points="0.820736 0.5768215 0.77801174 0.56977594 0.7932722 0.610299" stroke="black" stroke-width="0.005"/>
<text class="fleet" text-anchor="middle" x="0.79734" y="0.59813213">
1
</text>
<line stroke="#0433FF" stroke-width="0.01" x1="0.50046265" x2="0.4854102" y1="0.69748104" y2="0.7031521"/>
<polygon points="0.4620155 0.7119662 0.5047408 0.71900547 0.48947436 0.6784847" stroke="black" stroke-width="0.005"/>
<text class="fleet" text-anchor="middle" x="0.4854102" y="0.7156521">
46
</text>
<line stroke="#0433FF" stroke-width="0.01" x1="0.9143136" x2="0.9293661" y1="0.5415622" y2="0.5358911"/>
<polygon points="0.9527608 0.5270771 0.91003555 0.5200377 0.92530197 0.56055856" stroke="black" stroke-width="0.005"/>
<text class="fleet" text-anchor="middle" x="0.9293661" y="0.5483911">
1
</text>
<line stroke="#0433FF" stroke-width="0.01" x1="0.70957637" x2="0.67783904" y1="0.512465" y2="0.5394623"/>
<line stroke="#0433FF" stroke-width="0.01" x1="0.67783904" x2="0.4854" y1="0.5394623" y2="0.7032"/>
<polygon points="0.6587986 0.555663 0.70138943 0.5478515 0.67332906 0.5148725" stroke="black" stroke-width="0.005"/>
<text class="fleet" text-anchor="middle" x="0.67783904" y="0.5519623">
57
</text>
<line stroke="#0433FF" stroke-width="0.01" x1="1.365267" x2="1.4048944" y1="0.39425835" y2="0.38138264"/>
<line stroke="#0433FF" stroke-width="0.01" x1="1.4048944" x2="1.5" y1="0.38138264" y2="0.3505"/>
<polygon points="1.4286722 0.37366152 1.3863188 0.36465102 1.3996922 0.4058354" stroke="black" stroke-width="0.005"/>
<text class="fleet" text-anchor="middle" x="1.4048944" y="0.39388263">
1
</text>
<line stroke="#0433FF" stroke-width="0.01" x1="0.945217" x2="0.9293661" y1="0.53074086" y2="0.5358911"/>
<polygon points="0.9055897 0.54361653 0.9479447 0.5526194 0.93456393 0.5114374" stroke="black" stroke-width="0.005"/>
<text class="fleet" text-anchor="middle" x="0.9293661" y="0.5483911">
72
</text>
<line stroke="#0433FF" stroke-width="0.01" x1="1.5" x2="1.5" y1="0.20881428" y2="0.25048095"/>
<line stroke="#0433FF" stroke-width="0.01" x1="1.5" x2="1.5" y1="0.25048095" y2="0.3505"/>
<polygon points="1.5 0.27548096 1.5216507 0.23798095 1.4783493 0.23798095" stroke="black" stroke-width="0.005"/>
<text class="fleet" text-anchor="middle" x="1.5" y="0.26298094">
50
</text>
<line stroke="#0433FF" stroke-width="0.01" x1="0.00278166" x2="0" y1="0.9490636" y2="0.95048094"/>
<polygon points="-0.022275124 0.9618308 0.020966815 0.96409684 0.001308306 0.9255152" stroke="black" stroke-width="0.005"/>
<text class="fleet" text-anchor="middle" x="0" y="0.9629809">
1
</text>
<line stroke="#0433FF" stroke-width="0.01" x1="0.00278166" x2="0" y1="0.9490636" y2="0.95048094"/>
<polygon points="-0.022275124 0.9618308 0.020966815 0.96409684 0.001308306 0.9255152" stroke="black" stroke-width="0.005"/>
<text class="fleet" text-anchor="middle" x="0" y="0.9629809">
1252
</text>
<line stroke="#0433FF" stroke-width="0.01" x1="1.2724588" x2="1.2572949" y1="0.1631282" y2="0.17414537"/>
<polygon points="1.2370695 0.18883996 1.2801335 0.18431383 1.2546817 0.14928232" stroke="black" stroke-width="0.005"/>
<text class="fleet" text-anchor="middle" x="1.2572949" y="0.18664537">
10
</text>
<line stroke="#0433FF" stroke-width="0.01" x1="0.73441" x2="0.6954188" y1="0.6093411" y2="0.6240311"/>
<line stroke="#0433FF" stroke-width="0.01" x1="0.6954188" x2="0.4854" y1="0.6240311" y2="0.7032"/>
<polygon points="0.6720257 0.6328494 0.7147522 0.639881 0.69947845 0.59936297" stroke="black" stroke-width="0.005"/>
<text class="fleet" text-anchor="middle" x="0.6954188" y="0.6365311">
46
</text>
</g>
<g fill="#E16200">
<line stroke="#E16200" stroke-width="0.01" x1="-0.0322949" x2="-0.07396157" y1="0.06516399" y2="0.06516399"/>
<line stroke="#E16200" stroke-width="0.01" x1="-0.07396157" x2="-0.0927" y1="0.06516399" y2="0.0652"/>
<line stroke="#E16200" stroke-width="0.01" x1="-0.0927" x2="0" y1="0.0652" y2="0.3505"/>
<line stroke="#E16200" stroke-width="0.01" x1="0" x2="0.0927" y1="0.3505" y2="0.0652"/>
<line stroke="#E16200" stroke-width="0.01" x1="0.0927" x2="0.0927" y1="0.0652" y2="0.0652"/>
<polygon points="-0.098961525 0.06521203 -0.061419986 0.08679056 -0.0615032 0.043489374" stroke="black" stroke-width="0.005"/>
<text class="fleet" text-anchor="middle" x="-0.07396157" y="0.077663995">
6
</text>
<line stroke="#E16200" stroke-width="0.01" x1="-0.29034555" x2="-0.3113326" y1="1.1010908" y2="1.137086"/>
<line stroke="#E16200" stroke-width="0.01" x1="-0.3113326" x2="-0.5073" y1="1.137086" y2="1.4732"/>
<polygon points="-0.32392463 1.1586833 -0.28633285 1.1371924 -0.32374036 1.1153824" stroke="black" stroke-width="0.005"/>
<text class="fleet" text-anchor="middle" x="-0.3113326" y="1.1495861">
454
</text>
<line stroke="#E16200" stroke-width="0.01" x1="-0.18283506" x2="-0.1854102" y1="0.9131894" y2="0.92111486"/>
<polygon points="-0.19313565 0.9448913 -0.1609565 0.9159171 -0.20213845 0.9025362" stroke="black" stroke-width="0.005"/>
<text class="fleet" text-anchor="middle" x="-0.1854102" y="0.93361485">
104
</text>
<line stroke="#E16200" stroke-width="0.01" x1="0.20225425" x2="0.23596328" y1="0.20353463" y2="0.17904358"/>
<line stroke="#E16200" stroke-width="0.01" x1="0.23596328" x2="0.2427" y1="0.17904358" y2="0.1741"/>
<line stroke="#E16200" stroke-width="0.01" x1="0.2427" x2="0.3" y1="0.1741" y2="0.3505"/>
<line stroke="#E16200" stroke-width="0.01" x1="0.3" x2="0" y1="0.3505" y2="0.3505"/>
<polygon points="0.25611866 0.16425301 0.21307659 0.16898379 0.2386946 0.20389393" stroke="black" stroke-width="0.005"/>
<text class="fleet" text-anchor="middle" x="0.23596328" y="0.19154358">
146
</text>
<line stroke="#E16200" stroke-width="0.01" x1="-0.04166667" x2="-0.08333333" y1="0.35048094" y2="0.35048094"/>
<line stroke="#E16200" stroke-width="0.01" x1="-0.08333333" x2="-0.3" y1="0.35048094" y2="0.3505"/>
<line stroke="#E16200" stroke-width="0.01" x1="-0.3" x2="-0.2427" y1="0.3505" y2="0.1741"/>
<line stroke="#E16200" stroke-width="0.01" x1="-0.2427" x2="0" y1="0.1741" y2="0.3505"/>
<polygon points="-0.10833333 0.35048315 -0.07083142 0.37213048 -0.07083524 0.3288292" stroke="black" stroke-width="0.005"/>
<text class="fleet" text-anchor="middle" x="-0.08333333" y="0.36298093">
1
</text>
<line stroke="#E16200" stroke-width="0.01" x1="0.07982939" x2="0.06695368" y1="0.59617054" y2="0.5565432"/>
<line stroke="#E16200" stroke-width="0.01" x1="0.06695368" x2="0" y1="0.5565432" y2="0.3505"/>
<line stroke="#E16200" stroke-width="0.01" x1="0" x2="0.2427" y1="0.3505" y2="0.5268"/>
<line stroke="#E16200" stroke-width="0.01" x1="0.2427" x2="0.0927" y1="0.5268" y2="0.6358"/>
<polygon points="0.059227612 0.53276694 0.05022592 0.57512224 0.091407515 0.5617403" stroke="black" stroke-width="0.005"/>
<text class="fleet" text-anchor="middle" x="0.06695368" y="0.56904316">
1
</text>
<line stroke="#E16200" stroke-width="0.01" x1="-0.14678307" x2="-0.13390736" y1="0.8022328" y2="0.7626054"/>
<line stroke="#E16200" stroke-width="0.01" x1="-0.13390736" x2="-0.0927" y1="0.7626054" y2="0.6358"/>
<polygon points="-0.12618096 0.7388293 -0.15836127 0.76780224 -0.117179856 0.78118473" stroke="black" stroke-width="0.005"/>
<text class="fleet" text-anchor="middle" x="-0.13390736" y="0.7751054">
1
</text>
<line stroke="#E16200" stroke-width="0.01" x1="-0.18853283" x2="-0.1854102" y1="0.8804042" y2="0.92111486"/>
<polygon points="-0.18349825 0.94604164 -0.16477896 0.90699565 -0.20795341 0.9103073" stroke="black" stroke-width="0.005"/>
<text class="fleet" text-anchor="middle" x="-0.1854102" y="0.93361485">
200
</text>
<line stroke="#E16200" stroke-width="0.01" x1="-0.07415989" x2="-0.04045085" y1="0.40436125" y2="0.3798702"/>
<line stroke="#E16200" stroke-width="0.01" x1="-0.04045085" x2="0" y1="0.3798702" y2="0.3505"/>
<line stroke="#E16200" stroke-width="0.01" x1="0" x2="-0.0927" y1="0.3505" y2="0.6358"/>
<line stroke="#E16200" stroke-width="0.01" x1="-0.0927" x2="-0.2427" y1="0.6358" y2="0.5268"/>
<line stroke="#E16200" stroke-width="0.01" x1="-0.2427" x2="-0.2427" y1="0.5268" y2="0.5268"/>
<polygon points="-0.020220898 0.3651818 -0.06328635 0.36969477 -0.037845295 0.40473405" stroke="black" stroke-width="0.005"/>
<text class="fleet" text-anchor="middle" x="-0.04045085" y="0.3923702">
7
</text>
<line stroke="#E16200" stroke-width="0.01" x1="-0.5624222" x2="-0.59544086" y1="1.2911795" y2="1.3165936"/>
<line stroke="#E16200" stroke-width="0.01" x1="-0.59544086" x2="-0.6573" y1="1.3165936" y2="1.3642"/>
<polygon points="-0.615253 1.3318409 -0.5723303 1.3261278 -0.5987393 1.2918122" stroke="black" stroke-width="0.005"/>
<text class="fleet" text-anchor="middle" x="-0.59544086" y="1.3290937">
52
</text>
<line stroke="#E16200" stroke-width="0.01" x1="0.0927051" x2="0.0927051" y1="0.6357979" y2="0.6357979"/>
<line stroke="#E16200" stroke-width="0.01" x1="0.0927051" x2="-0.1854" y1="0.6357979" y2="0.9211"/>
<line stroke="#E16200" stroke-width="0.01" x1="-0.1854" x2="0.0927" y1="0.9211" y2="0.6358"/>
<polygon points="0.07525467 0.65369993 0.11693393 0.6419594 0.0859267 0.6117344" stroke="black" stroke-width="0.005"/>
<text class="fleet" text-anchor="middle" x="0.0927051" y="0.6482979">
215
</text>
<line stroke="#E16200" stroke-width="0.01" x1="-0.16461472" x2="-0.1854102" y1="0.92440856" y2="0.92111486"/>
<polygon points="-0.21010241 0.91720396 -0.17645101 0.9444544 -0.16967717 0.90168625" stroke="black" stroke-width="0.005"/>
<text class="fleet" text-anchor="middle" x="-0.1854102" y="0.93361485">
100
</text>
</g>
<g class="star">
<text text-anchor="middle" x="1.1473" y="0.7609">
Rukh
</text>
<text text-anchor="middle" x="-1.3206" y="1.7599">
Becrux
</text>
<text text-anchor="middle" x="1.6794" y="-1.209">
Earnhardt Jr
</text>
<text text-anchor="middle" x="0" y="0.8755">
Korn
</text>
<text text-anchor="middle" x="-2.1573" y="1.8598">
Algieba
</text>
<text text-anchor="middle" x="-2.85" y="1.5745">
Azimech
</text>
<text text-anchor="middle" x="-1.8527" y="2.3881">
Tejat
</text>
<text text-anchor="middle" x="-2.8206" y="1.7599">
Sabik
</text>
<text text-anchor="middle" x="1.5" y="0.8755">
Kit
</text>
<text text-anchor="middle" x="-2.6027" y="2.0599">
Mizar
</text>
<text text-anchor="middle" x="1.8" y="0.2755">
Enif
</text>
<text text-anchor="middle" x="-0.5706" y="0.09009999">
Elm
</text>
<text text-anchor="middle" x="1.8973" y="-0.5381">
Vettel
</text>
<text text-anchor="middle" x="0.3527" y="0.7609">
Sadr
</text>
<text text-anchor="middle" x="-1.0146" y="3.2261999">
Ick
</text>
<text text-anchor="middle" x="2.25" y="-1.6236">
De Vries
</text>
<text text-anchor="middle" x="0.3" y="0.2755">
Ruchbah
</text>
<text text-anchor="middle" x="0.2427" y="0.09909999">
Alioth
</text>
<text text-anchor="middle" x="-1.95" y="1.5745">
Ksora
</text>
<text text-anchor="middle" x="0.1854" y="-0.2952">
Arneb
</text>
<text text-anchor="middle" x="1.0146" y="0.6282">
Sargas
</text>
<text text-anchor="middle" x="1.4073" y="0.5608">
Decrux
</text>
<text text-anchor="middle" x="2.55" y="-1.0236">
Hamilton
</text>
<text text-anchor="middle" x="0.5706" y="0.4609">
Maasym
</text>
<text text-anchor="middle" x="-0.9294" y="2.6880999">
Diphda
</text>
<text text-anchor="middle" x="-1.2573" y="2.6972">
Talitha
</text>
<text text-anchor="middle" x="2.7354" y="-1.3762001">
Latifi
</text>
<text text-anchor="middle" x="1.9854" y="-0.0772">
Aludra
</text>
<text text-anchor="middle" x="-1.5927" y="2.5881999">
Menchib
</text>
<text text-anchor="middle" x="-2.25" y="2.1745">
Garnet
</text>
<text text-anchor="middle" x="0.2427" y="0.4518">
Tegmen
</text>
<text text-anchor="middle" x="1.6854" y="0.84610003">
Keid
</text>
<text text-anchor="middle" x="-2.4354" y="2.1452">
Spy
</text>
<text text-anchor="middle" x="1.8973" y="-1.5090001">
Ocon
</text>
<text text-anchor="middle" x="2.6027" y="-0.5381">
Ricciardo
</text>
<text text-anchor="middle" x="-0.4854" y="-0.0772">
Pherkad
</text>
<text text-anchor="middle" x="2.4927" y="-1.1999">
Stewart
</text>
<text text-anchor="middle" x="-1.3146" y="2.3028998">
Proxima
</text>
<text text-anchor="middle" x="-1.3146" y="3.4442">
Media
</text>
<text text-anchor="middle" x="1.1473" y="-0.2099">
Merope
</text>
<text text-anchor="middle" x="-2.25" y="0.9745">
Chi
</text>
<text text-anchor="middle" x="0.9294" y="0.4609">
Salm
</text>
<text text-anchor="middle" x="-1.65" y="1.5745">
Biham
</text>
<text text-anchor="middle" x="-2.3427" y="1.2892">
Schedir
</text>
<text text-anchor="middle" x="-2.1" y="2.8736">
Pug
</text>
<text text-anchor="middle" x="0.9294" y="0.09009999">
RIP Paul Walker
</text>
<text text-anchor="middle" x="-1.7646" y="1.2218">
Alkalurops
</text>
<text text-anchor="middle" x="0.1854" y="0.84610003">
Pleione
</text>
<text text-anchor="middle" x="1.5927" y="-0.009800002">
Alya
</text>
<text text-anchor="middle" x="-0.1794" y="1.3891">
Alfecca
</text>
<text text-anchor="middle" x="1.7646" y="-0.6709">
Adam Driver
</text>
<text text-anchor="middle" x="2.8206" y="-0.8381">
Jolyon
</text>
<text text-anchor="middle" x="-1.6854" y="2.3028998">
Alcor
</text>
<text text-anchor="middle" x="-0.8427" y="1.2892">
Rub
</text>
<text text-anchor="middle" x="1.2573" y="0.4518">
Aladfar
</text>
<text text-anchor="middle" x="-0.1854" y="0.84610003">
TseenKee
</text>
<text text-anchor="middle" x="0.9" y="0.2755">
Ras
</text>
<text text-anchor="middle" x="2.4927" y="-0.8472">
Villeneuve
</text>
<text text-anchor="middle" x="-0.75" y="1.5745">
Hassaleh
</text>
<text text-anchor="middle" x="-2.0646" y="2.1452">
Tab
</text>
<text text-anchor="middle" x="-1.05" y="1.5745">
Sasin
</text>
<text text-anchor="middle" x="-1.8" y="2.8736">
Rukbat
</text>
<text text-anchor="middle" x="-2.6027" y="1.0891">
Sarin
</text>
<text text-anchor="middle" x="1.7427" y="0.09909999">
Vindemiatrix
</text>
<text text-anchor="middle" x="-2.0646" y="1.0038999">
Rotanev
</text>
<text text-anchor="middle" x="-1.7427" y="2.6972">
Mud
</text>
<text text-anchor="middle" x="-0.9354" y="1.0038999">
Mac
</text>
<text text-anchor="middle" x="1.5927" y="0.5608">
Alphecca
</text>
<text text-anchor="middle" x="-2.1573" y="1.2892">
Sky
</text>
<text text-anchor="middle" x="-0.5646" y="1.0038999">
Regulus
</text>
<text text-anchor="middle" x="-2.4927" y="1.3981999">
Propus
</text>
<text text-anchor="middle" x="-1.7427" y="3.0499">
Caph
</text>
<text text-anchor="middle" x="-0.2646" y="1.2218">
Lanx
</text>
<text text-anchor="middle" x="-1.1473" y="3.359">
Sheliak
</text>
<text text-anchor="middle" x="-1.2354" y="1.2218">
Dschubba
</text>
<text text-anchor="middle" x="-1.1473" y="2.3881">
Yed
</text>
<text text-anchor="middle" x="-0.3527" y="-0.2099">
Alkes
</text>
<text text-anchor="middle" x="-1.6794" y="1.7599">
Wasat
</text>
<text text-anchor="middle" x="-2.0706" y="3.059">
Albali
</text>
<text text-anchor="middle" x="-1.1027" y="1.0891">
Pure Pax
</text>
<text text-anchor="middle" x="1.3146" y="-0.2952">
Grosjean
</text>
<text text-anchor="middle" x="-1.6854" y="3.4442">
Dnoces
</text>
<text text-anchor="middle" x="-0.9927" y="1.3981999">
Altais
</text>
<text text-anchor="middle" x="2.0646" y="-1.5942">
Norris
</text>
<text text-anchor="middle" x="-0.6573" y="1.8598">
Imp
</text>
<text text-anchor="middle" x="0" y="-0.32450002">
Kaf
</text>
<text text-anchor="middle" x="-1.2" y="2.8736">
Mintaka
</text>
<text text-anchor="middle" x="-1.5" y="3.4736">
Alniyat
</text>
<text text-anchor="middle" x="-0.0927" y="0.5608">
Wow
</text>
<text text-anchor="middle" x="1.6794" y="-0.8381">
Danica Patrick
</text>
<text text-anchor="middle" x="2.6027" y="-1.5090001">
Toretto
</text>
<text text-anchor="middle" x="-2.4927" y="1.7508999">
Tic
</text>
<text text-anchor="middle" x="2.25" y="-0.42360002">
Jerry
</text>
<text text-anchor="middle" x="-0.5706" y="0.4609">
Pax
</text>
<text text-anchor="middle" x="2.7354" y="-0.6709">
Perez
</text>
<text text-anchor="middle" x="1.8527" y="-0.2099">
Andretti
</text>
<text text-anchor="middle" x="-1.4073" y="2.5881999">
Neshmet
</text>
<text text-anchor="middle" x="-0.9294" y="3.059">
Bam
</text>
<text text-anchor="middle" x="2.0706" y="0.4609">
Adhara
</text>
<text text-anchor="middle" x="-2.0073" y="1.3981999">
Denebola
</text>
<text text-anchor="middle" x="1.8527" y="0.7609">
Alwaid
</text>
<text text-anchor="middle" x="-0.3" y="0.2755">
Koi
</text>
<text text-anchor="middle" x="-1.8973" y="2.0599">
Asellus
</text>
<text text-anchor="middle" x="-0.3527" y="0.7609">
Polaris
</text>
<text text-anchor="middle" x="2.4354" y="-1.5942">
Johnson
</text>
<text text-anchor="middle" x="0.0927" y="0.5608">
Brachium
</text>
<text text-anchor="middle" x="1.4073" y="-0.009800002">
Mebsuta
</text>
<text text-anchor="middle" x="0.4854" y="-0.0772">
Paw
</text>
<text text-anchor="middle" x="-0.9" y="2.8736">
Sun
</text>
<text text-anchor="middle" x="2.25" y="-1.0236">
Alonso
</text>
<text text-anchor="middle" x="-0.15" y="1.5745">
Alpheratz
</text>
<text text-anchor="middle" x="-0.9927" y="1.7508999">
Asp
</text>
<text text-anchor="middle" x="-0.2427" y="0.4518">
Menkalinan
</text>
<text text-anchor="middle" x="1.5" y="0.2755">
Acamar
</text>
<text text-anchor="middle" x="0.4854" y="0.6282">
Regor
</text>
<text text-anchor="middle" x="2.3427" y="-1.3089">
Petty
</text>
<text text-anchor="middle" x="-2.55" y="1.5745">
Dabih
</text>
<text text-anchor="middle" x="-0.75" y="2.1745">
Arkab
</text>
<text text-anchor="middle" x="-0.1854" y="-0.2952">
Praecipua
</text>
<text text-anchor="middle" x="1.7427" y="0.4518">
Kajam
</text>
<text text-anchor="middle" x="-0.6573" y="1.2892">
Menkib
</text>
<text text-anchor="middle" x="-1.2573" y="3.0499">
Mira
</text>
<text text-anchor="middle" x="-1.6794" y="1.3891">
Errai
</text>
<text text-anchor="middle" x="2.8206" y="-1.209">
Tsunoda
</text>
<text text-anchor="middle" x="1.7646" y="-1.3762001">
Earnhardt
</text>
<text text-anchor="middle" x="-2.3427" y="1.8598">
Askella
</text>
<text text-anchor="middle" x="-1.8973" y="1.0891">
Segin
</text>
<text text-anchor="middle" x="1.2" y="0.2755">
Alcyone
</text>
<text text-anchor="middle" x="1.3146" y="0.84610003">
Mimosa
</text>
<text text-anchor="middle" x="0.6" y="0.2755">
Alzir
</text>
<text text-anchor="middle" x="1.65" y="-1.0236">
Earnhardt Jr Jr
</text>
<text text-anchor="middle" x="2.3427" y="-0.7382">
Gordon
</text>
<text text-anchor="middle" x="2.85" y="-1.0236">
Prost
</text>
<text text-anchor="middle" x="1.6854" y="-0.2952">
Jaw
</text>
<text text-anchor="middle" x="-0.8427" y="1.8598">
Marfark
</text>
<text text-anchor="middle" x="0.3527" y="-0.2099">
Avior
</text>
<text text-anchor="middle" x="-0.1794" y="1.7599">
Sulafat
</text>
<text text-anchor="middle" x="2.0073" y="-1.1999">
Sainz
</text>
<text text-anchor="middle" x="2.0073" y="-0.8472">
Schumacher
</text>
<text text-anchor="middle" x="-1.5" y="2.2735999">
Aldhanab
</text>
<text text-anchor="middle" x="-0.9354" y="2.1452">
Gatria
</text>
<text text-anchor="middle" x="-1.0146" y="2.5209">
Yay
</text>
<text text-anchor="middle" x="1.95" y="-1.0236">
Labonte
</text>
<text text-anchor="middle" x="-0.2646" y="1.9271998">
Wazn
</text>
<text text-anchor="middle" x="-1.3206" y="1.3891">
Mirzam
</text>
<text text-anchor="middle" x="-1.2354" y="1.9271998">
Cheleb
</text>
<text text-anchor="middle" x="1.5" y="-0.32450002">
Theemin
</text>
<text text-anchor="middle" x="0.0927" y="-0.009800002">
Kleeia
</text>
<text text-anchor="middle" x="-2.7354" y="1.9271998">
Marfik
</text>
<text text-anchor="middle" x="-1.9854" y="2.5209">
Arc
</text>
<text text-anchor="middle" x="-0.4854" y="0.6282">
Misam
</text>
<text text-anchor="middle" x="0" y="0.2755">
Arided
</text>
<text text-anchor="middle" x="-1.5" y="2.8736">
Almach
</text>
<text text-anchor="middle" x="-0.5073" y="1.7508999">
Zit
</text>
<text text-anchor="middle" x="-0.3973" y="2.0599">
Merak
</text>
<text text-anchor="middle" x="-1.8527" y="3.359">
Minkar
</text>
<text text-anchor="middle" x="1.2573" y="0.09909999">
Elnath
</text>
<text text-anchor="middle" x="-1.9854" y="3.2261999">
SteropeII
</text>
<text text-anchor="middle" x="-0.75" y="0.9745">
Menkent
</text>
<text text-anchor="middle" x="-1.4073" y="3.1589">
Haldus
</text>
<text text-anchor="middle" x="-0.2427" y="0.09909999">
Etamin
</text>
<text text-anchor="middle" x="2.1573" y="-1.3089">
Verstappen
</text>
<text text-anchor="middle" x="-0.45" y="1.5745">
Alnasl
</text>
<text text-anchor="middle" x="2.1573" y="-0.7382">
Senna
</text>
<text text-anchor="middle" x="2.0646" y="-0.4529">
Leclerc
</text>
<text text-anchor="middle" x="2.1" y="0.2755">
Alamak
</text>
<text text-anchor="middle" x="-0.3973" y="1.0891">
Dux
</text>
<text text-anchor="middle" x="-2.25" y="1.5745">
Castor
</text>
<text text-anchor="middle" x="1.0146" y="-0.0772">
Eltanin
</text>
<text text-anchor="middle" x="0.5706" y="0.09009999">
Diesel
</text>
<text text-anchor="middle" x="-1.7646" y="1.9271998">
Syrma
</text>
<text text-anchor="middle" x="-1.35" y="1.5745">
Sadalmelik
</text>
<text text-anchor="middle" x="2.0706" y="0.09009999">
Sadira
</text>
<text text-anchor="middle" x="-2.0073" y="1.7508999">
Sham
</text>
<text text-anchor="middle" x="1.9854" y="0.6282">
Fin
</text>
<text text-anchor="middle" x="-2.0706" y="2.6880999">
Kaus
</text>
<text text-anchor="middle" x="-2.8206" y="1.3891">
Zoo
</text>
<text text-anchor="middle" x="-0.0927" y="-0.009800002">
Naos
</text>
<text text-anchor="middle" x="-0.5073" y="1.3981999">
Murzim
</text>
<text text-anchor="middle" x="-1.1027" y="2.0599">
Cox
</text>
<text text-anchor="middle" x="2.4354" y="-0.4529">
Mansell
</text>
<text text-anchor="middle" x="-2.7354" y="1.2218">
Tag
</text>
<text text-anchor="middle" x="-2.4354" y="1.0038999">
AlGiedi
</text>
<text text-anchor="middle" x="-1.5927" y="3.1589">
Mekbuda
</text>
<text text-anchor="middle" x="-0.6" y="0.2755">
Ale
</text>
<text text-anchor="middle" x="-0.5646" y="2.1452">
TienKuan
</text>
</g>
</svg>