<svg viewBox="-3.4199998 -2.05832 6.84 6.11664" xmlns="http://www.w3.org/2000/svg">
<style>
.star { font: 0.05px sans-serif; fill: red; }
.fleet { font: 0.03px sans-serif; fill: white; }
</style>
<g fill="none" stroke="black" stroke-width="0.01">
<circle cx="-1.2" cy="2.9486" fill="#00A0DF" r="0.05"/>
<circle cx="-2.4354" cy="1.0789" fill="#37BB00" r="0.05"/>
<circle cx="-1.8527" cy="3.434" fill="#00A0DF" r="0.05"/>
<circle cx="0.6" cy="0.3505" fill="#E16200" r="0.05"/>
<circle cx="-2.0646" cy="1.0789" fill="#37BB00" r="0.05"/>
<circle cx="-1.2573" cy="2.7722" fill="#00A0DF" r="0.05"/>
<circle cx="-1.9854" cy="3.3012" fill="#00A0DF" r="0.05"/>
<circle cx="0.4854" cy="0.7032" fill="#0433FF" r="0.05"/>
<circle cx="-0.8427" cy="1.3642" fill="#FFBE0E" r="0.05"/>
<circle cx="-2.8206" cy="1.8349" fill="#37BB00" r="0.05"/>
<circle cx="-0.3" cy="0.3505" fill="#E16200" r="0.05"/>
<circle cx="0.4854" cy="-0.0022" fill="#E16200" r="0.05"/>
<circle cx="0.9" cy="0.3505" fill="#0433FF" r="0.05"/>
<circle cx="-1.95" cy="1.6495" fill="#37BB00" r="0.05"/>
<circle cx="-2.0646" cy="2.2202" fill="#37BB00" r="0.05"/>
<circle cx="2.4354" cy="-0.3779" fill="#C11A00" r="0.05"/>
<circle cx="1.5927" cy="0.0652" fill="#0433FF" r="0.05"/>
<circle cx="1.2" cy="0.3505" fill="#0433FF" r="0.05"/>
<circle cx="-0.75" cy="1.0495" fill="#FFBE0E" r="0.05"/>
<circle cx="-2.25" cy="1.6495" fill="#37BB00" r="0.05"/>
<circle cx="-2.55" cy="1.6495" fill="#37BB00" r="0.05"/>
<circle cx="2.7354" cy="-1.3012" fill="#C11A00" r="0.05"/>
<circle cx="0.2427" cy="0.1741" fill="#E16200" r="0.05"/>
<circle cx="-0.8427" cy="1.9348" fill="#FFBE0E" r="0.05"/>
<circle cx="-1.65" cy="1.6495" fill="#37BB00" r="0.05"/>
<circle cx="-1.4073" cy="2.6632" fill="#00A0DF" r="0.05"/>
<circle cx="-1.5" cy="3.5486" fill="#00A0DF" r="0.05"/>
<circle cx="0.2427" cy="0.5268" fill="#E16200" r="0.05"/>
<circle cx="-0.5646" cy="2.2202" fill="#FFBE0E" r="0.05"/>
<circle cx="-0.4854" cy="0.7032" fill="#E16200" r="0.05"/>
<circle cx="1.9854" cy="0.7032" fill="#0433FF" r="0.05"/>
<circle cx="1.5" cy="-0.2495" fill="#0433FF" r="0.05"/>
<circle cx="0" cy="0.9505" fill="#E16200" r="0.05"/>
<circle cx="-0.0927" cy="0.6358" fill="#E16200" r="0.05"/>
<circle cx="2.3427" cy="-1.2339" fill="#C11A00" r="0.05"/>
<circle cx="1.65" cy="-0.9486" fill="#C11A00" r="0.05"/>
<circle cx="-1.6854" cy="3.5192" fill="#00A0DF" r="0.05"/>
<circle cx="-0.9294" cy="3.134" fill="#00A0DF" r="0.05"/>
<circle cx="-0.6573" cy="1.3642" fill="#FFBE0E" r="0.05"/>
<circle cx="2.55" cy="-0.9486" fill="#C11A00" r="0.05"/>
<circle cx="1.4073" cy="0.6358" fill="#0433FF" r="0.05"/>
<circle cx="-2.85" cy="1.6495" r="0.05"/>
<circle cx="1.4073" cy="0.0652" fill="#0433FF" r="0.05"/>
<circle cx="-1.3146" cy="3.5192" fill="#00A0DF" r="0.05"/>
<circle cx="-0.1854" cy="-0.2202" fill="#E16200" r="0.05"/>
<circle cx="2.0646" cy="-0.3779" fill="#C11A00" r="0.05"/>
<circle cx="-0.0927" cy="0.0652" fill="#E16200" r="0.05"/>
<circle cx="-0.2646" cy="1.2968" fill="#FFBE0E" r="0.05"/>
<circle cx="-1.6794" cy="1.8349" fill="#37BB00" r="0.05"/>
<circle cx="-0.4854" cy="-0.0022" fill="#E16200" r="0.05"/>
<circle cx="-0.5646" cy="1.0789" fill="#FFBE0E" r="0.05"/>
<circle cx="-2.4354" cy="2.2202" fill="#37BB00" r="0.05"/>
<circle cx="-1.0146" cy="3.3012" fill="#00A0DF" r="0.05"/>
<circle cx="-1.7646" cy="1.2968" fill="#37BB00" r="0.05"/>
<circle cx="-1.7427" cy="3.1249" fill="#00A0DF" r="0.05"/>
<circle cx="-1.3206" cy="1.8349" fill="#FFBE0E" r="0.05"/>
<circle cx="1.1473" cy="0.8359" fill="#0433FF" r="0.05"/>
<circle cx="-2.25" cy="2.2495" fill="#37BB00" r="0.05"/>
<circle cx="-2.3427" cy="1.3642" fill="#37BB00" r="0.05"/>
<circle cx="1.8" cy="0.3505" fill="#0433FF" r="0.05"/>
<circle cx="2.8206" cy="-0.7631" fill="#C11A00" r="0.05"/>
<circle cx="-0.5073" cy="1.4732" fill="#FFBE0E" r="0.05"/>
<circle cx="-0.5706" cy="0.5359" fill="#E16200" r="0.05"/>
<circle cx="-1.6794" cy="1.4641" fill="#37BB00" r="0.05"/>
<circle cx="2.4927" cy="-1.1249" fill="#C11A00" r="0.05"/>
<circle cx="0" cy="-0.2495" fill="#E16200" r="0.05"/>
<circle cx="-1.1473" cy="2.4631" fill="#00A0DF" r="0.05"/>
<circle cx="2.0706" cy="0.1651" fill="#0433FF" r="0.05"/>
<circle cx="1.7427" cy="0.1741" fill="#0433FF" r="0.05"/>
<circle cx="-1.8973" cy="1.1641" fill="#37BB00" r="0.05"/>
<circle cx="0.0927" cy="0.6358" fill="#E16200" r="0.05"/>
<circle cx="0" cy="0.3505" fill="#E16200" r="0.05"/>
<circle cx="-2.8206" cy="1.4641" fill="#37BB00" r="0.05"/>
<circle cx="-0.75" cy="2.2495" fill="#FFBE0E" r="0.05"/>
<circle cx="2.0073" cy="-0.7722" fill="#C11A00" r="0.05"/>
<circle cx="0.5706" cy="0.5359" fill="#E16200" r="0.05"/>
<circle cx="-2.1573" cy="1.3642" fill="#37BB00" r="0.05"/>
<circle cx="1.8973" cy="-0.4631" fill="#C11A00" r="0.05"/>
<circle cx="-1.5927" cy="2.6632" fill="#00A0DF" r="0.05"/>
<circle cx="-0.9927" cy="1.4732" fill="#FFBE0E" r="0.05"/>
<circle cx="-1.3206" cy="1.4641" fill="#FFBE0E" r="0.05"/>
<circle cx="1.6854" cy="-0.2202" fill="#0433FF" r="0.05"/>
<circle cx="-2.1" cy="2.9486" fill="#00A0DF" r="0.05"/>
<circle cx="-0.9354" cy="2.2202" fill="#FFBE0E" r="0.05"/>
<circle cx="-0.9294" cy="2.7631" fill="#00A0DF" r="0.05"/>
<circle cx="-1.1473" cy="3.434" fill="#00A0DF" r="0.05"/>
<circle cx="-0.9" cy="2.9486" fill="#00A0DF" r="0.05"/>
<circle cx="-1.2573" cy="3.1249" fill="#00A0DF" r="0.05"/>
<circle cx="1.2573" cy="0.1741" fill="#0433FF" r="0.05"/>
<circle cx="-1.6854" cy="2.3779" fill="#00A0DF" r="0.05"/>
<circle cx="2.0646" cy="-1.5192" fill="#C11A00" r="0.05"/>
<circle cx="2.0706" cy="0.5359" fill="#0433FF" r="0.05"/>
<circle cx="0.1854" cy="0.9211" fill="#E16200" r="0.05"/>
<circle cx="-2.0073" cy="1.4732" fill="#37BB00" r="0.05"/>
<circle cx="2.4927" cy="-0.7722" fill="#C11A00" r="0.05"/>
<circle cx="-0.3527" cy="-0.1349" fill="#E16200" r="0.05"/>
<circle cx="-0.1794" cy="1.4641" fill="#FFBE0E" r="0.05"/>
<circle cx="-1.9854" cy="2.5959" fill="#00A0DF" r="0.05"/>
<circle cx="-0.45" cy="1.6495" fill="#FFBE0E" r="0.05"/>
<circle cx="-0.9927" cy="1.8259" fill="#FFBE0E" r="0.05"/>
<circle cx="1.6854" cy="0.9211" fill="#0433FF" r="0.05"/>
<circle cx="0.1854" cy="-0.2202" fill="#E16200" r="0.05"/>
<circle cx="-0.6" cy="0.3505" fill="#E16200" r="0.05"/>
<circle cx="1.8527" cy="0.8359" fill="#0433FF" r="0.05"/>
<circle cx="-2.4927" cy="1.8259" fill="#37BB00" r="0.05"/>
<circle cx="-2.3427" cy="1.9348" fill="#37BB00" r="0.05"/>
<circle cx="-0.3973" cy="1.1641" fill="#E16200" r="0.05"/>
<circle cx="-2.6027" cy="1.1641" fill="#37BB00" r="0.05"/>
<circle cx="2.85" cy="-0.9486" fill="#C11A00" r="0.05"/>
<circle cx="-0.2427" cy="0.5268" fill="#E16200" r="0.05"/>
<circle cx="-1.05" cy="1.6495" fill="#FFBE0E" r="0.05"/>
<circle cx="-1.2354" cy="1.2968" fill="#FFBE0E" r="0.05"/>
<circle cx="0.0927" cy="0.0652" fill="#E16200" r="0.05"/>
<circle cx="2.25" cy="-0.9486" fill="#C11A00" r="0.05"/>
<circle cx="1.5" cy="0.9505" fill="#0433FF" r="0.05"/>
<circle cx="0.5706" cy="0.1651" fill="#E16200" r="0.05"/>
<circle cx="1.2573" cy="0.5268" fill="#0433FF" r="0.05"/>
<circle cx="0.3527" cy="0.8359" fill="#E16200" r="0.05"/>
<circle cx="-2.4927" cy="1.4732" fill="#37BB00" r="0.05"/>
<circle cx="2.4354" cy="-1.5192" fill="#C11A00" r="0.05"/>
<circle cx="2.8206" cy="-1.134" fill="#C11A00" r="0.05"/>
<circle cx="2.3427" cy="-0.6632" fill="#C11A00" r="0.05"/>
<circle cx="1.7427" cy="0.5268" fill="#0433FF" r="0.05"/>
<circle cx="0.3527" cy="-0.1349" fill="#E16200" r="0.05"/>
<circle cx="-1.5" cy="2.9486" fill="#00A0DF" r="0.05"/>
<circle cx="-0.6573" cy="1.9348" fill="#FFBE0E" r="0.05"/>
<circle cx="1.7646" cy="-0.5959" fill="#C11A00" r="0.05"/>
<circle cx="-0.75" cy="1.6495" fill="#FFBE0E" r="0.05"/>
<circle cx="1.5" cy="0.3505" fill="#0433FF" r="0.05"/>
<circle cx="-1.2354" cy="2.0022" fill="#FFBE0E" r="0.05"/>
<circle cx="-1.0146" cy="2.5959" fill="#00A0DF" r="0.05"/>
<circle cx="-1.8" cy="2.9486" fill="#00A0DF" r="0.05"/>
<circle cx="-0.5073" cy="1.8259" fill="#FFBE0E" r="0.05"/>
<circle cx="2.1573" cy="-0.6632" fill="#C11A00" r="0.05"/>
<circle cx="1.0146" cy="-0.0022" fill="#0433FF" r="0.05"/>
<circle cx="-0.1854" cy="0.9211" fill="#E16200" r="0.05"/>
<circle cx="2.0073" cy="-1.1249" fill="#C11A00" r="0.05"/>
<circle cx="-0.9354" cy="1.0789" fill="#FFBE0E" r="0.05"/>
<circle cx="-2.7354" cy="1.2968" fill="#37BB00" r="0.05"/>
<circle cx="2.1573" cy="-1.2339" fill="#C11A00" r="0.05"/>
<circle cx="-2.0073" cy="1.8259" fill="#37BB00" r="0.05"/>
<circle cx="-2.0706" cy="3.134" fill="#00A0DF" r="0.05"/>
<circle cx="-1.7427" cy="2.7722" fill="#00A0DF" r="0.05"/>
<circle cx="-0.1794" cy="1.8349" fill="#FFBE0E" r="0.05"/>
<circle cx="-1.35" cy="1.6495" fill="#37BB00" r="0.05"/>
<circle cx="-1.1027" cy="2.1349" fill="#00A0DF" r="0.05"/>
<circle cx="-2.25" cy="1.0495" fill="#37BB00" r="0.05"/>
<circle cx="-2.0706" cy="2.7631" fill="#00A0DF" r="0.05"/>
<circle cx="-2.7354" cy="2.0022" fill="#37BB00" r="0.05"/>
<circle cx="-0.2427" cy="0.1741" fill="#E16200" r="0.05"/>
<circle cx="1.1473" cy="-0.1349" fill="#0433FF" r="0.05"/>
<circle cx="1.6794" cy="-1.134" fill="#C11A00" r="0.05"/>
<circle cx="-1.7646" cy="2.0022" fill="#37BB00" r="0.05"/>
<circle cx="-0.5706" cy="0.1651" fill="#E16200" r="0.05"/>
<circle cx="-0.2646" cy="2.0022" fill="#FFBE0E" r="0.05"/>
<circle cx="2.25" cy="-1.5486" fill="#C11A00" r="0.05"/>
<circle cx="1.8973" cy="-1.434" fill="#C11A00" r="0.05"/>
<circle cx="0.3" cy="0.3505" fill="#E16200" r="0.05"/>
<circle cx="1.3146" cy="0.9211" fill="#0433FF" r="0.05"/>
<circle cx="1.9854" cy="-0.0022" fill="#0433FF" r="0.05"/>
<circle cx="-2.1573" cy="1.9348" fill="#37BB00" r="0.05"/>
<circle cx="2.6027" cy="-1.434" fill="#C11A00" r="0.05"/>
<circle cx="-1.8527" cy="2.4631" fill="#00A0DF" r="0.05"/>
<circle cx="0.9294" cy="0.5359" fill="#0433FF" r="0.05"/>
<circle cx="2.25" cy="-0.3486" fill="#C11A00" r="0.05"/>
<circle cx="0.9294" cy="0.1651" fill="#0433FF" r="0.05"/>
<circle cx="1.6794" cy="-0.7631" fill="#0433FF" r="0.05"/>
<circle cx="-2.6027" cy="2.1349" fill="#37BB00" r="0.05"/>
<circle cx="2.6027" cy="-0.4631" fill="#C11A00" r="0.05"/>
<circle cx="1.8527" cy="-0.1349" fill="#0433FF" r="0.05"/>
<circle cx="-1.4073" cy="3.2339" fill="#00A0DF" r="0.05"/>
<circle cx="-1.1027" cy="1.1641" fill="#37BB00" r="0.05"/>
<circle cx="2.1" cy="0.3505" fill="#0433FF" r="0.05"/>
<circle cx="1.5927" cy="0.6358" fill="#0433FF" r="0.05"/>
<circle cx="1.95" cy="-0.9486" fill="#C11A00" r="0.05"/>
<circle cx="1.0146" cy="0.7032" fill="#0433FF" r="0.05"/>
<circle cx="2.7354" cy="-0.5959" fill="#C11A00" r="0.05"/>
<circle cx="-0.15" cy="1.6495" fill="#FFBE0E" r="0.05"/>
<circle cx="-0.3973" cy="2.1349" fill="#FFBE0E" r="0.05"/>
<circle cx="-1.8973" cy="2.1349" fill="#37BB00" r="0.05"/>
<circle cx="-1.5927" cy="3.2339" fill="#00A0DF" r="0.05"/>
<circle cx="1.3146" cy="-0.2202" fill="#C11A00" r="0.05"/>
<circle cx="1.7646" cy="-1.3012" fill="#0433FF" r="0.05"/>
<circle cx="-1.5" cy="2.3486" fill="#00A0DF" r="0.05"/>
<circle cx="-0.3527" cy="0.8359" fill="#E16200" r="0.05"/>
<circle cx="-1.3146" cy="2.3779" fill="#00A0DF" r="0.05"/>
</g>
<g fill="#C11A00">
<line stroke="#C11A00" stroke-width="0.01" x1="1.6760724" x2="1.6793661" y1="-1.1131719" y2="-1.1339674"/>
<polygon points="1.683277 -1.1586596 1.6560266 -1.1250082 1.6987947 -1.1182343" stroke="black" stroke-width="0.005"/>
<text class="fleet" text-anchor="middle" x="1.6793661" y="-1.1214674">
1
</text>
<line stroke="#C11A00" stroke-width="0.01" x1="2.0814548" x2="2.0477457" y1="-0.8261019" y2="-0.8016108"/>
<line stroke="#C11A00" stroke-width="0.01" x1="2.0477457" x2="1.7646" y1="-0.8016108" y2="-0.5959"/>
<line stroke="#C11A00" stroke-width="0.01" x1="1.7646" x2="1.3146" y1="-0.5959" y2="-0.2202"/>
<polygon points="2.02752 -0.7869165 2.0705843 -0.7914421 2.0451329 -0.8264739" stroke="black" stroke-width="0.005"/>
<text class="fleet" text-anchor="middle" x="2.0477457" y="-0.78911084">
559
</text>
<line stroke="#C11A00" stroke-width="0.01" x1="2.2474248" x2="2.25" y1="-0.95648265" y2="-0.94855714"/>
<line stroke="#C11A00" stroke-width="0.01" x1="2.25" x2="1.8973" y1="-0.94855714" y2="-0.4631"/>
<line stroke="#C11A00" stroke-width="0.01" x1="1.8973" x2="1.3146" y1="-0.4631" y2="-0.2202"/>
<line stroke="#C11A00" stroke-width="0.01" x1="1.3146" x2="0.9294" y1="-0.2202" y2="0.1651"/>
<polygon points="2.2353055 -0.9283316 2.274863 -0.94594413 2.2398314 -0.9713957" stroke="black" stroke-width="0.005"/>
<text class="fleet" text-anchor="middle" x="2.25" y="-0.93605715">
545
</text>
<line stroke="#C11A00" stroke-width="0.01" x1="0.9904992" x2="0.9610364" y1="0.10393765" y2="0.13340043"/>
<line stroke="#C11A00" stroke-width="0.01" x1="0.9610364" x2="0.9294" y1="0.13340043" y2="0.1651"/>
<polygon points="0.94337636 0.15109573 0.985191 0.13984679 0.9545418 0.10925875" stroke="black" stroke-width="0.005"/>
<text class="fleet" text-anchor="middle" x="0.9610364" y="0.14590043">
100
</text>
<line stroke="#C11A00" stroke-width="0.01" x1="2.2666667" x2="2.25" y1="-0.94855714" y2="-0.94855714"/>
<polygon points="2.225 -0.94855714 2.2625 -0.9269065 2.2625 -0.97020775" stroke="black" stroke-width="0.005"/>
<text class="fleet" text-anchor="middle" x="2.25" y="-0.93605715">
1
</text>
<line stroke="#C11A00" stroke-width="0.01" x1="2.2707956" x2="2.25" y1="-0.35185084" y2="-0.34855717"/>
<polygon points="2.2253077 -0.34464636 2.265733 -0.3291285 2.2589593 -0.37189668" stroke="black" stroke-width="0.005"/>
<text class="fleet" text-anchor="middle" x="2.25" y="-0.3360572">
100
</text>
</g>
<g fill="#00A0DF">
<line stroke="#00A0DF" stroke-width="0.01" x1="-1.2515029" x2="-1.2572949" y1="2.7900476" y2="2.7722216"/>
<polygon points="-1.2650203 2.748445 -1.2740232 2.7908 -1.2328413 2.7774193" stroke="black" stroke-width="0.005"/>
<text class="fleet" text-anchor="middle" x="-1.2572949" y="2.7847216">
599
</text>
<line stroke="#00A0DF" stroke-width="0.01" x1="-1.4201707" x2="-1.4330463" y1="2.7028675" y2="2.7424948"/>
<line stroke="#00A0DF" stroke-width="0.01" x1="-1.4330463" x2="-1.5" y1="2.7424948" y2="2.9486"/>
<line stroke="#00A0DF" stroke-width="0.01" x1="-1.5" x2="-1.5" y1="2.9486" y2="2.9486"/>
<line stroke="#00A0DF" stroke-width="0.01" x1="-1.5" x2="-1.4073" y1="2.9486" y2="2.6632"/>
<polygon points="-1.4407703 2.7662716 -1.4085929 2.7372956 -1.4497757 2.7239172" stroke="black" stroke-width="0.005"/>
<text class="fleet" text-anchor="middle" x="-1.4330463" y="2.7549949">
1
</text>
<line stroke="#00A0DF" stroke-width="0.01" x1="-1.1330143" x2="-1.1026711" y1="2.1512437" y2="2.1349292"/>
<polygon points="-1.0806521 2.1230903 -1.1239336 2.1217794 -1.1034279 2.1599178" stroke="black" stroke-width="0.005"/>
<text class="fleet" text-anchor="middle" x="-1.1026711" y="2.1474292">
125
</text>
<line stroke="#00A0DF" stroke-width="0.01" x1="-1.1571252" x2="-1.1473289" y1="2.4766307" y2="2.463147"/>
<polygon points="-1.1326344 2.4429214 -1.172192 2.4605339 -1.1371603 2.4859855" stroke="black" stroke-width="0.005"/>
<text class="fleet" text-anchor="middle" x="-1.1473289" y="2.475647">
100
</text>
<line stroke="#00A0DF" stroke-width="0.01" x1="-1.6856264" x2="-1.7227516" y1="2.4431386" y2="2.4620547"/>
<line stroke="#00A0DF" stroke-width="0.01" x1="-1.7227516" x2="-1.9854" y1="2.4620547" y2="2.5959"/>
<polygon points="-1.7450261 2.4734058 -1.701784 2.4756694 -1.7214447 2.437089" stroke="black" stroke-width="0.005"/>
<text class="fleet" text-anchor="middle" x="-1.7227516" y="2.4745548">
100
</text>
<line stroke="#00A0DF" stroke-width="0.01" x1="-1.3124222" x2="-1.3454409" y1="2.5902176" y2="2.6156318"/>
<line stroke="#00A0DF" stroke-width="0.01" x1="-1.3454409" x2="-1.4073" y1="2.6156318" y2="2.6632"/>
<polygon points="-1.3652589 2.6308713 -1.3223339 2.625175 -1.3487297 2.5908492" stroke="black" stroke-width="0.005"/>
<text class="fleet" text-anchor="middle" x="-1.3454409" y="2.6281319">
1
</text>
<line stroke="#00A0DF" stroke-width="0.01" x1="-0.9260724" x2="-0.9293661" y1="2.7839425" y2="2.7631469"/>
<polygon points="-0.93327695 2.7384546 -0.9487948 2.77888 -0.9060266 2.7721062" stroke="black" stroke-width="0.005"/>
<text class="fleet" text-anchor="middle" x="-0.9293661" y="2.775647">
100
</text>
</g>
<g fill="#37BB00">
<line stroke="#37BB00" stroke-width="0.01" x1="-1.1040884" x2="-1.1026711" y1="1.1668905" y2="1.1641089"/>
<polygon points="-1.0913216 1.1418337 -1.1276369 1.1654176 -1.089055 1.1850755" stroke="black" stroke-width="0.005"/>
<text class="fleet" text-anchor="middle" x="-1.1026711" y="1.1766089">
75
</text>
<line stroke="#37BB00" stroke-width="0.01" x1="-1.9583334" x2="-1.95" y1="1.6495191" y2="1.6495191"/>
<polygon points="-1.9250001 1.6495191 -1.9625001 1.6278684 -1.9625001 1.6711698" stroke="black" stroke-width="0.005"/>
<text class="fleet" text-anchor="middle" x="-1.95" y="1.6620191">
170
</text>
<line stroke="#37BB00" stroke-width="0.01" x1="-2.0224588" x2="-2.007295" y1="1.4621663" y2="1.4731835"/>
<polygon points="-1.9870695 1.4878781 -2.0046816 1.4483205 -2.0301335 1.483352" stroke="black" stroke-width="0.005"/>
<text class="fleet" text-anchor="middle" x="-2.007295" y="1.4856836">
101
</text>
<line stroke="#37BB00" stroke-width="0.01" x1="-2.820634" x2="-2.827152" y1="1.8349292" y2="1.7937756"/>
<line stroke="#37BB00" stroke-width="0.01" x1="-2.827152" x2="-2.85" y1="1.7937756" y2="1.6495"/>
<polygon points="-2.8310623 1.7690833 -2.846581 1.8095082 -2.8038127 1.8027352" stroke="black" stroke-width="0.005"/>
<text class="fleet" text-anchor="middle" x="-2.827152" y="1.8062756">
1
</text>
<line stroke="#37BB00" stroke-width="0.01" x1="-1.7794777" x2="-1.7645898" y1="2.0170782" y2="2.00219"/>
<polygon points="-1.7469122 1.9845123 -1.788738 1.9957198 -1.7581192 2.0263383" stroke="black" stroke-width="0.005"/>
<text class="fleet" text-anchor="middle" x="-1.7645898" y="2.0146902">
50
</text>
<line stroke="#37BB00" stroke-width="0.01" x1="-2.25" x2="-2.2617745" y1="1.0495191" y2="1.0894874"/>
<line stroke="#37BB00" stroke-width="0.01" x1="-2.2617745" x2="-2.3427" y1="1.0894874" y2="1.3642"/>
<line stroke="#37BB00" stroke-width="0.01" x1="-2.3427" x2="-2.1573" y1="1.3642" y2="1.9348"/>
<polygon points="-2.268839 1.1134685 -2.237474 1.0836148 -2.2790105 1.071379" stroke="black" stroke-width="0.005"/>
<text class="fleet" text-anchor="middle" x="-2.2617745" y="1.1019875">
1
</text>
<line stroke="#37BB00" stroke-width="0.01" x1="-2.037253" x2="-2.0432444" y1="2.0320227" y2="2.0732565"/>
<line stroke="#37BB00" stroke-width="0.01" x1="-2.0432444" x2="-2.0646" y1="2.0732565" y2="2.2202"/>
<polygon points="-2.04684 2.0979965 -2.020021 2.0640004 -2.0628722 2.0577726" stroke="black" stroke-width="0.005"/>
<text class="fleet" text-anchor="middle" x="-2.0432444" y="2.0857565">
100
</text>
<line stroke="#37BB00" stroke-width="0.01" x1="-1.6532937" x2="-1.65" y1="1.6287236" y2="1.6495191"/>
<polygon points="-1.6460891 1.6742113 -1.6305714 1.633786 -1.6733395 1.64056" stroke="black" stroke-width="0.005"/>
<text class="fleet" text-anchor="middle" x="-1.65" y="1.6620191">
80
</text>
<line stroke="#37BB00" stroke-width="0.01" x1="-1.708659" x2="-1.6793661" y1="1.4579854" y2="1.4641088"/>
<polygon points="-1.6548951 1.4692242 -1.6871716 1.4403585 -1.6960317 1.4827436" stroke="black" stroke-width="0.005"/>
<text class="fleet" text-anchor="middle" x="-1.6793661" y="1.4766089">
100
</text>
</g>
<g fill="#0433FF">
<line stroke="#0433FF" stroke-width="0.01" x1="0.4874154" x2="0.4854102" y1="0.70144635" y2="0.7031521"/>
<polygon points="0.46636808 0.7193508 0.5089598 0.71154374 0.48090282 0.6785618" stroke="black" stroke-width="0.005"/>
<text class="fleet" text-anchor="middle" x="0.4854102" y="0.7156521">
100
</text>
<line stroke="#0433FF" stroke-width="0.01" x1="1.5051503" x2="1.5" y1="0.33463" y2="0.35048094"/>
<polygon points="1.4922745 0.37425733 1.5244536 0.3452832 1.4832717 0.3319023" stroke="black" stroke-width="0.005"/>
<text class="fleet" text-anchor="middle" x="1.5" y="0.36298093">
1
</text>
<line stroke="#0433FF" stroke-width="0.01" x1="0.8513836" x2="0.8123924" y1="0.56527114" y2="0.5799611"/>
<line stroke="#0433FF" stroke-width="0.01" x1="0.8123924" x2="0.4854" y1="0.5799611" y2="0.7032"/>
<polygon points="0.7889987 0.5887779 0.8317248 0.59581226 0.8164537 0.5552932" stroke="black" stroke-width="0.005"/>
<text class="fleet" text-anchor="middle" x="0.8123924" y="0.5924611">
144
</text>
<line stroke="#0433FF" stroke-width="0.01" x1="1.4833333" x2="1.5" y1="0.35048094" y2="0.35048094"/>
<polygon points="1.525 0.35048094 1.4875 0.3288303 1.4875 0.3721316" stroke="black" stroke-width="0.005"/>
<text class="fleet" text-anchor="middle" x="1.5" y="0.36298093">
1
</text>
<line stroke="#0433FF" stroke-width="0.01" x1="0.07703221" x2="0.03990693" y1="0.9112311" y2="0.93014735"/>
<line stroke="#0433FF" stroke-width="0.01" x1="0.03990693" x2="0" y1="0.93014735" y2="0.9505"/>
<polygon points="0.017636074 0.94150555 0.060878858 0.9437554 0.041205857 0.9051811" stroke="black" stroke-width="0.005"/>
<text class="fleet" text-anchor="middle" x="0.03990693" y="0.94264734">
50
</text>
<line stroke="#0433FF" stroke-width="0.01" x1="0.6461018" x2="0.6143645" y1="0.56645966" y2="0.593457"/>
<line stroke="#0433FF" stroke-width="0.01" x1="0.6143645" x2="0.4854" y1="0.593457" y2="0.7032"/>
<polygon points="0.595325 0.6096587 0.6379154 0.6018448 0.6098531 0.5688674" stroke="black" stroke-width="0.005"/>
<text class="fleet" text-anchor="middle" x="0.6143645" y="0.605957">
375
</text>
<line stroke="#0433FF" stroke-width="0.01" x1="1.1733414" x2="1.1453569" y1="0.26675642" y2="0.29762676"/>
<line stroke="#0433FF" stroke-width="0.01" x1="1.1453569" x2="0.9294" y1="0.29762676" y2="0.5359"/>
<polygon points="1.1285679 0.3161506 1.1697935 0.30290446 1.1377093 0.27382523" stroke="black" stroke-width="0.005"/>
<text class="fleet" text-anchor="middle" x="1.1453569" y="0.31012675">
101
</text>
<line stroke="#0433FF" stroke-width="0.01" x1="1.7450355" x2="1.7385174" y1="-1.1777673" y2="-1.1366136"/>
<line stroke="#0433FF" stroke-width="0.01" x1="1.7385174" x2="1.6794" y1="-1.1366136" y2="-0.7631"/>
<polygon points="1.7346092 -1.111921 1.761856 -1.1455753 1.719087 -1.1523445" stroke="black" stroke-width="0.005"/>
<text class="fleet" text-anchor="middle" x="1.7385174" y="-1.1241136">
50
</text>
<line stroke="#0433FF" stroke-width="0.01" x1="1.0640991" x2="1.0244718" y1="0.49211374" y2="0.50498945"/>
<line stroke="#0433FF" stroke-width="0.01" x1="1.0244718" x2="0.9294" y1="0.50498945" y2="0.5359"/>
<polygon points="1.0006968 0.5127194 1.0430535 0.5217142 1.0296649 0.48053476" stroke="black" stroke-width="0.005"/>
<text class="fleet" text-anchor="middle" x="1.0244718" y="0.51748943">
343
</text>
<line stroke="#0433FF" stroke-width="0.01" x1="1.3018632" x2="1.2622359" y1="0.4148595" y2="0.4277352"/>
<line stroke="#0433FF" stroke-width="0.01" x1="1.2622359" x2="0.9294" y1="0.4277352" y2="0.5359"/>
<polygon points="1.2384598 0.4354619 1.2808154 0.44446248 1.2674323 0.40328124" stroke="black" stroke-width="0.005"/>
<text class="fleet" text-anchor="middle" x="1.2622359" y="0.4402352">
145
</text>
<line stroke="#0433FF" stroke-width="0.01" x1="1.4902036" x2="1.5" y1="0.36396456" y2="0.35048094"/>
<polygon points="1.5146946 0.33025548 1.475137 0.3478678 1.5101684 0.37331957" stroke="black" stroke-width="0.005"/>
<text class="fleet" text-anchor="middle" x="1.5" y="0.36298093">
1
</text>
</g>
<g fill="#E16200">
<line stroke="#E16200" stroke-width="0.01" x1="-0.39199337" x2="-0.39732885" y1="1.124895" y2="1.1641089"/>
<polygon points="-0.40069932 1.1888807 -0.37419066 1.1546419 -0.41709659 1.1488041" stroke="black" stroke-width="0.005"/>
<text class="fleet" text-anchor="middle" x="-0.39732885" y="1.1766089">
52
</text>
<line stroke="#E16200" stroke-width="0.01" x1="-0.18283506" x2="-0.1854102" y1="0.9131894" y2="0.92111486"/>
<polygon points="-0.19313565 0.9448913 -0.1609565 0.9159171 -0.20213845 0.9025362" stroke="black" stroke-width="0.005"/>
<text class="fleet" text-anchor="middle" x="-0.1854102" y="0.93361485">
454
</text>
<line stroke="#E16200" stroke-width="0.01" x1="0.3" x2="0.3" y1="0.35048094" y2="0.35048094"/>
<line stroke="#E16200" stroke-width="0.01" x1="0.3" x2="0" y1="0.35048094" y2="0.3505"/>
<line stroke="#E16200" stroke-width="0.01" x1="0" x2="0.2427" y1="0.3505" y2="0.1741"/>
<line stroke="#E16200" stroke-width="0.01" x1="0.2427" x2="0.3" y1="0.1741" y2="0.3505"/>
<polygon points="0.275 0.35048252 0.3125014 0.37213078 0.31249863 0.3288295" stroke="black" stroke-width="0.005"/>
<text class="fleet" text-anchor="middle" x="0.3" y="0.36298093">
7
</text>
<line stroke="#E16200" stroke-width="0.01" x1="-0.18283506" x2="-0.1854102" y1="0.9131894" y2="0.92111486"/>
<polygon points="-0.19313565 0.9448913 -0.1609565 0.9159171 -0.20213845 0.9025362" stroke="black" stroke-width="0.005"/>
<text class="fleet" text-anchor="middle" x="-0.1854102" y="0.93361485">
104
</text>
<line stroke="#E16200" stroke-width="0.01" x1="-0.18853283" x2="-0.1854102" y1="0.8804042" y2="0.92111486"/>
<polygon points="-0.18349825 0.94604164 -0.16477896 0.90699565 -0.20795341 0.9103073" stroke="black" stroke-width="0.005"/>
<text class="fleet" text-anchor="middle" x="-0.1854102" y="0.93361485">
200
</text>
<line stroke="#E16200" stroke-width="0.01" x1="0.49496883" x2="0.4854102" y1="0.01656966" y2="-0.0021902"/>
<line stroke="#E16200" stroke-width="0.01" x1="0.4854102" x2="0.0927" y1="-0.0021902" y2="0.0652"/>
<line stroke="#E16200" stroke-width="0.01" x1="0.0927" x2="-0.0927" y1="0.0652" y2="0.0652"/>
<line stroke="#E16200" stroke-width="0.01" x1="-0.0927" x2="0" y1="0.0652" y2="0.3505"/>
<line stroke="#E16200" stroke-width="0.01" x1="0" x2="0.0927" y1="0.3505" y2="0.0652"/>
<polygon points="0.46077037 0.0020380674 0.50139195 0.017034391 0.49406835 -0.025643064" stroke="black" stroke-width="0.005"/>
<text class="fleet" text-anchor="middle" x="0.4854102" y="0.0103098005">
1
</text>
<line stroke="#E16200" stroke-width="0.01" x1="-0.16461472" x2="-0.1854102" y1="0.92440856" y2="0.92111486"/>
<polygon points="-0.21010241 0.91720396 -0.17645101 0.9444544 -0.16967717 0.90168625" stroke="black" stroke-width="0.005"/>
<text class="fleet" text-anchor="middle" x="-0.1854102" y="0.93361485">
100
</text>
<line stroke="#E16200" stroke-width="0.01" x1="-0.16461472" x2="-0.1854102" y1="0.92440856" y2="0.92111486"/>
<polygon points="-0.21010241 0.91720396 -0.17645101 0.9444544 -0.16967717 0.90168625" stroke="black" stroke-width="0.005"/>
<text class="fleet" text-anchor="middle" x="-0.1854102" y="0.93361485">
100
</text>
<line stroke="#E16200" stroke-width="0.01" x1="-0.36755908" x2="-0.35267115" y1="0.82100326" y2="0.8358911"/>
<polygon points="-0.33499345 0.85356873 -0.34620073 0.81174296 -0.37681928 0.8423617" stroke="black" stroke-width="0.005"/>
<text class="fleet" text-anchor="middle" x="-0.35267115" y="0.8483911">
1
</text>
<line stroke="#E16200" stroke-width="0.01" x1="-0.3" x2="-0.3" y1="0.35048094" y2="0.35048094"/>
<line stroke="#E16200" stroke-width="0.01" x1="-0.3" x2="-0.2427" y1="0.35048094" y2="0.1741"/>
<line stroke="#E16200" stroke-width="0.01" x1="-0.2427" x2="0" y1="0.1741" y2="0.3505"/>
<line stroke="#E16200" stroke-width="0.01" x1="0" x2="-0.3" y1="0.3505" y2="0.3505"/>
<polygon points="-0.29227576 0.32670414 -0.32445344 0.35567993 -0.2832708 0.36905873" stroke="black" stroke-width="0.005"/>
<text class="fleet" text-anchor="middle" x="-0.3" y="0.36298093">
7
</text>
<line stroke="#E16200" stroke-width="0.01" x1="0" x2="0" y1="0.35048094" y2="0.35048094"/>
<line stroke="#E16200" stroke-width="0.01" x1="0" x2="0.2427" y1="0.35048094" y2="0.5268"/>
<line stroke="#E16200" stroke-width="0.01" x1="0.2427" x2="0.0927" y1="0.5268" y2="0.6358"/>
<line stroke="#E16200" stroke-width="0.01" x1="0.0927" x2="0" y1="0.6358" y2="0.3505"/>
<polygon points="0.020225935 0.3651749 0.002612347 0.3256178 -0.022838283 0.36065015" stroke="black" stroke-width="0.005"/>
<text class="fleet" text-anchor="middle" x="0" y="0.36298093">
150
</text>
</g>
<g fill="#FFBE0E">
<line stroke="#FFBE0E" stroke-width="0.01" x1="-0.2713316" x2="-0.2645898" y1="1.3017461" y2="1.2968479"/>
<polygon points="-0.24436432 1.2821534 -0.2874284 1.2866795 -0.26197666 1.321711" stroke="black" stroke-width="0.005"/>
<text class="fleet" text-anchor="middle" x="-0.2645898" y="1.309348">
1
</text>
<line stroke="#FFBE0E" stroke-width="0.01" x1="-0.8979231" x2="-0.9354102" y1="2.2201529" y2="2.2201529"/>
<polygon points="-0.9604102 2.2201529 -0.9229102 2.2418034 -0.9229102 2.1985023" stroke="black" stroke-width="0.005"/>
<text class="fleet" text-anchor="middle" x="-0.9354102" y="2.232653">
123
</text>
<line stroke="#FFBE0E" stroke-width="0.01" x1="-1.2245029" x2="-1.2354102" y1="1.9814433" y2="2.00219"/>
<polygon points="-1.2470437 2.0243185 -1.2104298 2.001201 -1.2487571 1.981051" stroke="black" stroke-width="0.005"/>
<text class="fleet" text-anchor="middle" x="-1.2354102" y="2.0146902">
51
</text>
<line stroke="#FFBE0E" stroke-width="0.01" x1="-0.56716496" x2="-0.5645898" y1="1.0868106" y2="1.0788852"/>
<polygon points="-0.55686426 1.0551088 -0.5890435 1.0840828 -0.54786164 1.0974638" stroke="black" stroke-width="0.005"/>
<text class="fleet" text-anchor="middle" x="-0.5645898" y="1.0913852">
1
</text>
<line stroke="#FFBE0E" stroke-width="0.01" x1="-1.3206339" x2="-1.3206339" y1="1.6724422" y2="1.7141088"/>
<line stroke="#FFBE0E" stroke-width="0.01" x1="-1.3206339" x2="-1.3206" y1="1.7141088" y2="1.8349"/>
<line stroke="#FFBE0E" stroke-width="0.01" x1="-1.3206" x2="-1.2354" y1="1.8349" y2="2.0022"/>
<polygon points="-1.3206269 1.7391088 -1.2989868 1.7016027 -1.342288 1.7016149" stroke="black" stroke-width="0.005"/>
<text class="fleet" text-anchor="middle" x="-1.3206339" y="1.7266089">
74
</text>
<line stroke="#FFBE0E" stroke-width="0.01" x1="-0.68562144" x2="-0.67274576" y1="1.4513823" y2="1.411755"/>
<line stroke="#FFBE0E" stroke-width="0.01" x1="-0.67274576" x2="-0.6573" y1="1.411755" y2="1.3642"/>
<line stroke="#FFBE0E" stroke-width="0.01" x1="-0.6573" x2="-0.5646" y1="1.3642" y2="1.0789"/>
<polygon points="-0.66502297 1.3879777 -0.69719887 1.4169555 -0.65601546 1.4303317" stroke="black" stroke-width="0.005"/>
<text class="fleet" text-anchor="middle" x="-0.67274576" y="1.424255">
200
</text>
<line stroke="#FFBE0E" stroke-width="0.01" x1="-0.9893346" x2="-0.9927051" y1="1.8490503" y2="1.8258547"/>
<polygon points="-0.99630004 1.8011144 -1.0123333 1.841338 -0.969482 1.8351114" stroke="black" stroke-width="0.005"/>
<text class="fleet" text-anchor="middle" x="-0.9927051" y="1.8383547">
51
</text>
<line stroke="#FFBE0E" stroke-width="0.01" x1="-1.3232193" x2="-1.3206339" y1="1.8334738" y2="1.8349292"/>
<polygon points="-1.2988486 1.847193 -1.3209058 1.8099307 -1.3421472 1.847664" stroke="black" stroke-width="0.005"/>
<text class="fleet" text-anchor="middle" x="-1.3206339" y="1.8474293">
50
</text>
<line stroke="#FFBE0E" stroke-width="0.01" x1="-0.2948863" x2="-0.27549708" y1="1.3544753" y2="1.3175948"/>
<line stroke="#FFBE0E" stroke-width="0.01" x1="-0.27549708" x2="-0.2646" y1="1.3175948" y2="1.2968"/>
<polygon points="-0.26389307 1.2954509 -0.30047616 1.3186173 -0.262122 1.338716" stroke="black" stroke-width="0.005"/>
<text class="fleet" text-anchor="middle" x="-0.27549708" y="1.3300948">
151
</text>
<line stroke="#FFBE0E" stroke-width="0.01" x1="-0.54437554" x2="-0.5645898" y1="1.0557067" y2="1.0788852"/>
<polygon points="-0.5810216 1.0977266 -0.5400568 1.0836949 -0.57269096 1.0552342" stroke="black" stroke-width="0.005"/>
<text class="fleet" text-anchor="middle" x="-0.5645898" y="1.0913852">
49
</text>
</g>
<g class="star">
<text text-anchor="middle" x="-1.2" y="2.8736">
Mintaka
</text>
<text text-anchor="middle" x="-2.4354" y="1.0038999">
AlGiedi
</text>
<text text-anchor="middle" x="-1.8527" y="3.359">
Minkar
</text>
<text text-anchor="middle" x="0.6" y="0.2755">
Alzir
</text>
<text text-anchor="middle" x="-2.0646" y="1.0038999">
Rotanev
</text>
<text text-anchor="middle" x="-1.2573" y="2.6972">
Talitha
</text>
<text text-anchor="middle" x="-1.9854" y="3.2261999">
SteropeII
</text>
<text text-anchor="middle" x="0.4854" y="0.6282">
Regor
</text>
<text text-anchor="middle" x="-0.8427" y="1.2892">
Rub
</text>
<text text-anchor="middle" x="-2.8206" y="1.7599">
Sabik
</text>
<text text-anchor="middle" x="-0.3" y="0.2755">
Koi
</text>
<text text-anchor="middle" x="0.4854" y="-0.0772">
Paw
</text>
<text text-anchor="middle" x="0.9" y="0.2755">
Ras
</text>
<text text-anchor="middle" x="-1.95" y="1.5745">
Ksora
</text>
<text text-anchor="middle" x="-2.0646" y="2.1452">
Tab
</text>
<text text-anchor="middle" x="2.4354" y="-0.4529">
Mansell
</text>
<text text-anchor="middle" x="1.5927" y="-0.009800002">
Alya
</text>
<text text-anchor="middle" x="1.2" y="0.2755">
Alcyone
</text>
<text text-anchor="middle" x="-0.75" y="0.9745">
Menkent
</text>
<text text-anchor="middle" x="-2.25" y="1.5745">
Castor
</text>
<text text-anchor="middle" x="-2.55" y="1.5745">
Dabih
</text>
<text text-anchor="middle" x="2.7354" y="-1.3762001">
Latifi
</text>
<text text-anchor="middle" x="0.2427" y="0.09909999">
Alioth
</text>
<text text-anchor="middle" x="-0.8427" y="1.8598">
Marfark
</text>
<text text-anchor="middle" x="-1.65" y="1.5745">
Biham
</text>
<text text-anchor="middle" x="-1.4073" y="2.5881999">
Neshmet
</text>
<text text-anchor="middle" x="-1.5" y="3.4736">
Alniyat
</text>
<text text-anchor="middle" x="0.2427" y="0.4518">
Tegmen
</text>
<text text-anchor="middle" x="-0.5646" y="2.1452">
TienKuan
</text>
<text text-anchor="middle" x="-0.4854" y="0.6282">
Misam
</text>
<text text-anchor="middle" x="1.9854" y="0.6282">
Fin
</text>
<text text-anchor="middle" x="1.5" y="-0.32450002">
Theemin
</text>
<text text-anchor="middle" x="0" y="0.8755">
Korn
</text>
<text text-anchor="middle" x="-0.0927" y="0.5608">
Wow
</text>
<text text-anchor="middle" x="2.3427" y="-1.3089">
Petty
</text>
<text text-anchor="middle" x="1.65" y="-1.0236">
Earnhardt Jr Jr
</text>
<text text-anchor="middle" x="-1.6854" y="3.4442">
Dnoces
</text>
<text text-anchor="middle" x="-0.9294" y="3.059">
Bam
</text>
<text text-anchor="middle" x="-0.6573" y="1.2892">
Menkib
</text>
<text text-anchor="middle" x="2.55" y="-1.0236">
Hamilton
</text>
<text text-anchor="middle" x="1.4073" y="0.5608">
Decrux
</text>
<text text-anchor="middle" x="-2.85" y="1.5745">
Azimech
</text>
<text text-anchor="middle" x="1.4073" y="-0.009800002">
Mebsuta
</text>
<text text-anchor="middle" x="-1.3146" y="3.4442">
Media
</text>
<text text-anchor="middle" x="-0.1854" y="-0.2952">
Praecipua
</text>
<text text-anchor="middle" x="2.0646" y="-0.4529">
Leclerc
</text>
<text text-anchor="middle" x="-0.0927" y="-0.009800002">
Naos
</text>
<text text-anchor="middle" x="-0.2646" y="1.2218">
Lanx
</text>
<text text-anchor="middle" x="-1.6794" y="1.7599">
Wasat
</text>
<text text-anchor="middle" x="-0.4854" y="-0.0772">
Pherkad
</text>
<text text-anchor="middle" x="-0.5646" y="1.0038999">
Regulus
</text>
<text text-anchor="middle" x="-2.4354" y="2.1452">
Spy
</text>
<text text-anchor="middle" x="-1.0146" y="3.2261999">
Ick
</text>
<text text-anchor="middle" x="-1.7646" y="1.2218">
Alkalurops
</text>
<text text-anchor="middle" x="-1.7427" y="3.0499">
Caph
</text>
<text text-anchor="middle" x="-1.3206" y="1.7599">
Becrux
</text>
<text text-anchor="middle" x="1.1473" y="0.7609">
Rukh
</text>
<text text-anchor="middle" x="-2.25" y="2.1745">
Garnet
</text>
<text text-anchor="middle" x="-2.3427" y="1.2892">
Schedir
</text>
<text text-anchor="middle" x="1.8" y="0.2755">
Enif
</text>
<text text-anchor="middle" x="2.8206" y="-0.8381">
Jolyon
</text>
<text text-anchor="middle" x="-0.5073" y="1.3981999">
Murzim
</text>
<text text-anchor="middle" x="-0.5706" y="0.4609">
Pax
</text>
<text text-anchor="middle" x="-1.6794" y="1.3891">
Errai
</text>
<text text-anchor="middle" x="2.4927" y="-1.1999">
Stewart
</text>
<text text-anchor="middle" x="0" y="-0.32450002">
Kaf
</text>
<text text-anchor="middle" x="-1.1473" y="2.3881">
Yed
</text>
<text text-anchor="middle" x="2.0706" y="0.09009999">
Sadira
</text>
<text text-anchor="middle" x="1.7427" y="0.09909999">
Vindemiatrix
</text>
<text text-anchor="middle" x="-1.8973" y="1.0891">
Segin
</text>
<text text-anchor="middle" x="0.0927" y="0.5608">
Brachium
</text>
<text text-anchor="middle" x="0" y="0.2755">
Arided
</text>
<text text-anchor="middle" x="-2.8206" y="1.3891">
Zoo
</text>
<text text-anchor="middle" x="-0.75" y="2.1745">
Arkab
</text>
<text text-anchor="middle" x="2.0073" y="-0.8472">
Schumacher
</text>
<text text-anchor="middle" x="0.5706" y="0.4609">
Maasym
</text>
<text text-anchor="middle" x="-2.1573" y="1.2892">
Sky
</text>
<text text-anchor="middle" x="1.8973" y="-0.5381">
Vettel
</text>
<text text-anchor="middle" x="-1.5927" y="2.5881999">
Menchib
</text>
<text text-anchor="middle" x="-0.9927" y="1.3981999">
Altais
</text>
<text text-anchor="middle" x="-1.3206" y="1.3891">
Mirzam
</text>
<text text-anchor="middle" x="1.6854" y="-0.2952">
Jaw
</text>
<text text-anchor="middle" x="-2.1" y="2.8736">
Pug
</text>
<text text-anchor="middle" x="-0.9354" y="2.1452">
Gatria
</text>
<text text-anchor="middle" x="-0.9294" y="2.6880999">
Diphda
</text>
<text text-anchor="middle" x="-1.1473" y="3.359">
Sheliak
</text>
<text text-anchor="middle" x="-0.9" y="2.8736">
Sun
</text>
<text text-anchor="middle" x="-1.2573" y="3.0499">
Mira
</text>
<text text-anchor="middle" x="1.2573" y="0.09909999">
Elnath
</text>
<text text-anchor="middle" x="-1.6854" y="2.3028998">
Alcor
</text>
<text text-anchor="middle" x="2.0646" y="-1.5942">
Norris
</text>
<text text-anchor="middle" x="2.0706" y="0.4609">
Adhara
</text>
<text text-anchor="middle" x="0.1854" y="0.84610003">
Pleione
</text>
<text text-anchor="middle" x="-2.0073" y="1.3981999">
Denebola
</text>
<text text-anchor="middle" x="2.4927" y="-0.8472">
Villeneuve
</text>
<text text-anchor="middle" x="-0.3527" y="-0.2099">
Alkes
</text>
<text text-anchor="middle" x="-0.1794" y="1.3891">
Alfecca
</text>
<text text-anchor="middle" x="-1.9854" y="2.5209">
Arc
</text>
<text text-anchor="middle" x="-0.45" y="1.5745">
Alnasl
</text>
<text text-anchor="middle" x="-0.9927" y="1.7508999">
Asp
</text>
<text text-anchor="middle" x="1.6854" y="0.84610003">
Keid
</text>
<text text-anchor="middle" x="0.1854" y="-0.2952">
Arneb
</text>
<text text-anchor="middle" x="-0.6" y="0.2755">
Ale
</text>
<text text-anchor="middle" x="1.8527" y="0.7609">
Alwaid
</text>
<text text-anchor="middle" x="-2.4927" y="1.7508999">
Tic
</text>
<text text-anchor="middle" x="-2.3427" y="1.8598">
Askella
</text>
<text text-anchor="middle" x="-0.3973" y="1.0891">
Dux
</text>
<text text-anchor="middle" x="-2.6027" y="1.0891">
Sarin
</text>
<text text-anchor="middle" x="2.85" y="-1.0236">
Prost
</text>
<text text-anchor="middle" x="-0.2427" y="0.4518">
Menkalinan
</text>
<text text-anchor="middle" x="-1.05" y="1.5745">
Sasin
</text>
<text text-anchor="middle" x="-1.2354" y="1.2218">
Dschubba
</text>
<text text-anchor="middle" x="0.0927" y="-0.009800002">
Kleeia
</text>
<text text-anchor="middle" x="2.25" y="-1.0236">
Alonso
</text>
<text text-anchor="middle" x="1.5" y="0.8755">
Kit
</text>
<text text-anchor="middle" x="0.5706" y="0.09009999">
Markab
</text>
<text text-anchor="middle" x="1.2573" y="0.4518">
Aladfar
</text>
<text text-anchor="middle" x="0.3527" y="0.7609">
Sadr
</text>
<text text-anchor="middle" x="-2.4927" y="1.3981999">
Propus
</text>
<text text-anchor="middle" x="2.4354" y="-1.5942">
Johnson
</text>
<text text-anchor="middle" x="2.8206" y="-1.209">
Tsunoda
</text>
<text text-anchor="middle" x="2.3427" y="-0.7382">
Gordon
</text>
<text text-anchor="middle" x="1.7427" y="0.4518">
Kajam
</text>
<text text-anchor="middle" x="0.3527" y="-0.2099">
Avior
</text>
<text text-anchor="middle" x="-1.5" y="2.8736">
Almach
</text>
<text text-anchor="middle" x="-0.6573" y="1.8598">
Imp
</text>
<text text-anchor="middle" x="1.7646" y="-0.6709">
Adam Driver
</text>
<text text-anchor="middle" x="-0.75" y="1.5745">
Hassaleh
</text>
<text text-anchor="middle" x="1.5" y="0.2755">
Acamar
</text>
<text text-anchor="middle" x="-1.2354" y="1.9271998">
Cheleb
</text>
<text text-anchor="middle" x="-1.0146" y="2.5209">
Yay
</text>
<text text-anchor="middle" x="-1.8" y="2.8736">
Rukbat
</text>
<text text-anchor="middle" x="-0.5073" y="1.7508999">
Zit
</text>
<text text-anchor="middle" x="2.1573" y="-0.7382">
Senna
</text>
<text text-anchor="middle" x="1.0146" y="-0.0772">
Eltanin
</text>
<text text-anchor="middle" x="-0.1854" y="0.84610003">
TseenKee
</text>
<text text-anchor="middle" x="2.0073" y="-1.1999">
Sainz
</text>
<text text-anchor="middle" x="-0.9354" y="1.0038999">
Mac
</text>
<text text-anchor="middle" x="-2.7354" y="1.2218">
Tag
</text>
<text text-anchor="middle" x="2.1573" y="-1.3089">
Verstappen
</text>
<text text-anchor="middle" x="-2.0073" y="1.7508999">
Sham
</text>
<text text-anchor="middle" x="-2.0706" y="3.059">
Albali
</text>
<text text-anchor="middle" x="-1.7427" y="2.6972">
Mud
</text>
<text text-anchor="middle" x="-0.1794" y="1.7599">
Sulafat
</text>
<text text-anchor="middle" x="-1.35" y="1.5745">
Sadalmelik
</text>
<text text-anchor="middle" x="-1.1027" y="2.0599">
Cox
</text>
<text text-anchor="middle" x="-2.25" y="0.9745">
Chi
</text>
<text text-anchor="middle" x="-2.0706" y="2.6880999">
Kaus
</text>
<text text-anchor="middle" x="-2.7354" y="1.9271998">
Marfik
</text>
<text text-anchor="middle" x="-0.2427" y="0.09909999">
Etamin
</text>
<text text-anchor="middle" x="1.1473" y="-0.2099">
Merope
</text>
<text text-anchor="middle" x="1.6794" y="-1.209">
Earnhardt Jr
</text>
<text text-anchor="middle" x="-1.7646" y="1.9271998">
Syrma
</text>
<text text-anchor="middle" x="-0.5706" y="0.09009999">
Elm
</text>
<text text-anchor="middle" x="-0.2646" y="1.9271998">
Wazn
</text>
<text text-anchor="middle" x="2.25" y="-1.6236">
De Vries
</text>
<text text-anchor="middle" x="1.8973" y="-1.5090001">
Ocon
</text>
<text text-anchor="middle" x="0.3" y="0.2755">
Ruchbah
</text>
<text text-anchor="middle" x="1.3146" y="0.84610003">
Mimosa
</text>
<text text-anchor="middle" x="1.9854" y="-0.0772">
Aludra
</text>
<text text-anchor="middle" x="-2.1573" y="1.8598">
Algieba
</text>
<text text-anchor="middle" x="2.6027" y="-1.5090001">
Toretto
</text>
<text text-anchor="middle" x="-1.8527" y="2.3881">
Tejat
</text>
<text text-anchor="middle" x="0.9294" y="0.4609">
Salm
</text>
<text text-anchor="middle" x="2.25" y="-0.42360002">
Jerry
</text>
<text text-anchor="middle" x="0.9294" y="0.09009999">
Dheneb
</text>
<text text-anchor="middle" x="1.6794" y="-0.8381">
Danica Patrick
</text>
<text text-anchor="middle" x="-2.6027" y="2.0599">
Mizar
</text>
<text text-anchor="middle" x="2.6027" y="-0.5381">
Ricciardo
</text>
<text text-anchor="middle" x="1.8527" y="-0.2099">
Andretti
</text>
<text text-anchor="middle" x="-1.4073" y="3.1589">
Haldus
</text>
<text text-anchor="middle" x="-1.1027" y="1.0891">
Pure Pax
</text>
<text text-anchor="middle" x="2.1" y="0.2755">
Alamak
</text>
<text text-anchor="middle" x="1.5927" y="0.5608">
Alphecca
</text>
<text text-anchor="middle" x="1.95" y="-1.0236">
Labonte
</text>
<text text-anchor="middle" x="1.0146" y="0.6282">
Sargas
</text>
<text text-anchor="middle" x="2.7354" y="-0.6709">
Perez
</text>
<text text-anchor="middle" x="-0.15" y="1.5745">
Alpheratz
</text>
<text text-anchor="middle" x="-0.3973" y="2.0599">
Merak
</text>
<text text-anchor="middle" x="-1.8973" y="2.0599">
Asellus
</text>
<text text-anchor="middle" x="-1.5927" y="3.1589">
Mekbuda
</text>
<text text-anchor="middle" x="1.3146" y="-0.2952">
Grosjean
</text>
<text text-anchor="middle" x="1.7646" y="-1.3762001">
Earnhardt
</text>
<text text-anchor="middle" x="-1.5" y="2.2735999">
Aldhanab
</text>
<text text-anchor="middle" x="-0.3527" y="0.7609">
Polaris
</text>
<text text-anchor="middle" x="-1.3146" y="2.3028998">
Proxima
</text>
</g>
</svg>