<svg viewBox="-3.4199998 -2.05832 6.84 6.11664" xmlns="http://www.w3.org/2000/svg">
<style>
.star { font: 0.05px sans-serif; fill: red; }
.fleet { font: 0.03px sans-serif; fill: white; }
</style>
<g fill="none" stroke="black" stroke-width="0.01">
<circle cx="1.6854" cy="-0.2202" fill="#0433FF" r="0.05"/>
<circle cx="0.9294" cy="0.1651" fill="#C11A00" r="0.05"/>
<circle cx="0.0927" cy="0.0652" fill="#E16200" r="0.05"/>
<circle cx="-1.6854" cy="2.3779" fill="#00A0DF" r="0.05"/>
<circle cx="-0.3527" cy="-0.1349" fill="#E16200" r="0.05"/>
<circle cx="1.4073" cy="0.0652" fill="#0433FF" r="0.05"/>
<circle cx="1.1473" cy="-0.1349" fill="#0433FF" r="0.05"/>
<circle cx="1.3146" cy="0.9211" fill="#0433FF" r="0.05"/>
<circle cx="-2.8206" cy="1.4641" fill="#37BB00" r="0.05"/>
<circle cx="-0.75" cy="2.2495" fill="#FFBE0E" r="0.05"/>
<circle cx="1.8527" cy="-0.1349" fill="#0433FF" r="0.05"/>
<circle cx="-2.1573" cy="1.9348" fill="#37BB00" r="0.05"/>
<circle cx="-0.8427" cy="1.3642" fill="#FFBE0E" r="0.05"/>
<circle cx="-1.1027" cy="1.1641" fill="#37BB00" r="0.05"/>
<circle cx="-1.05" cy="1.6495" fill="#FFBE0E" r="0.05"/>
<circle cx="-1.7646" cy="1.2968" fill="#37BB00" r="0.05"/>
<circle cx="0.1854" cy="0.9211" fill="#E16200" r="0.05"/>
<circle cx="-0.1854" cy="0.9211" fill="#E16200" r="0.05"/>
<circle cx="-0.6573" cy="1.9348" fill="#FFBE0E" r="0.05"/>
<circle cx="-1.8527" cy="3.434" fill="#00A0DF" r="0.05"/>
<circle cx="-2.3427" cy="1.3642" fill="#37BB00" r="0.05"/>
<circle cx="-1.65" cy="1.6495" fill="#37BB00" r="0.05"/>
<circle cx="-1.7646" cy="2.0022" fill="#37BB00" r="0.05"/>
<circle cx="-2.8206" cy="1.8349" fill="#37BB00" r="0.05"/>
<circle cx="1.5927" cy="0.6358" fill="#0433FF" r="0.05"/>
<circle cx="-0.3" cy="0.3505" fill="#E16200" r="0.05"/>
<circle cx="1.8527" cy="0.8359" fill="#0433FF" r="0.05"/>
<circle cx="1.7427" cy="0.5268" fill="#0433FF" r="0.05"/>
<circle cx="-0.2427" cy="0.5268" fill="#E16200" r="0.05"/>
<circle cx="1.5927" cy="0.0652" fill="#0433FF" r="0.05"/>
<circle cx="1.2573" cy="0.1741" fill="#0433FF" r="0.05"/>
<circle cx="-0.15" cy="1.6495" fill="#FFBE0E" r="0.05"/>
<circle cx="2.0646" cy="-0.3779" fill="#C11A00" r="0.05"/>
<circle cx="-0.45" cy="1.6495" fill="#FFBE0E" r="0.05"/>
<circle cx="1.2" cy="0.3505" fill="#0433FF" r="0.05"/>
<circle cx="2.85" cy="-0.9486" fill="#C11A00" r="0.05"/>
<circle cx="-1.6794" cy="1.4641" fill="#37BB00" r="0.05"/>
<circle cx="-1.3146" cy="3.5192" fill="#00A0DF" r="0.05"/>
<circle cx="-1.8973" cy="1.1641" fill="#37BB00" r="0.05"/>
<circle cx="-2.0646" cy="2.2202" fill="#37BB00" r="0.05"/>
<circle cx="-1.1473" cy="3.434" fill="#00A0DF" r="0.05"/>
<circle cx="2.1573" cy="-1.2339" fill="#C11A00" r="0.05"/>
<circle cx="-0.1794" cy="1.4641" fill="#FFBE0E" r="0.05"/>
<circle cx="1.3146" cy="-0.2202" fill="#C11A00" r="0.05"/>
<circle cx="1.5" cy="0.9505" fill="#0433FF" r="0.05"/>
<circle cx="-0.0927" cy="0.6358" fill="#E16200" r="0.05"/>
<circle cx="-0.9927" cy="1.4732" fill="#FFBE0E" r="0.05"/>
<circle cx="-2.25" cy="1.0495" fill="#37BB00" r="0.05"/>
<circle cx="-2.0646" cy="1.0789" fill="#37BB00" r="0.05"/>
<circle cx="-0.9354" cy="2.2202" fill="#FFBE0E" r="0.05"/>
<circle cx="-1.8527" cy="2.4631" fill="#00A0DF" r="0.05"/>
<circle cx="-2.25" cy="1.6495" fill="#37BB00" r="0.05"/>
<circle cx="0.5706" cy="0.1651" fill="#C11A00" r="0.05"/>
<circle cx="-0.4854" cy="-0.0022" fill="#E16200" r="0.05"/>
<circle cx="1.7427" cy="0.1741" fill="#0433FF" r="0.05"/>
<circle cx="1.7646" cy="-1.3012" fill="#0433FF" r="0.05"/>
<circle cx="0.9294" cy="0.5359" fill="#0433FF" r="0.05"/>
<circle cx="-0.3973" cy="1.1641" fill="#FFBE0E" r="0.05"/>
<circle cx="1.8973" cy="-0.4631" fill="#C11A00" r="0.05"/>
<circle cx="0.3527" cy="-0.1349" fill="#E16200" r="0.05"/>
<circle cx="-2.6027" cy="1.1641" fill="#37BB00" r="0.05"/>
<circle cx="2.4927" cy="-0.7722" fill="#C11A00" r="0.05"/>
<circle cx="-1.0146" cy="3.3012" fill="#00A0DF" r="0.05"/>
<circle cx="-1.2354" cy="1.2968" fill="#FFBE0E" r="0.05"/>
<circle cx="-1.3146" cy="2.3779" fill="#00A0DF" r="0.05"/>
<circle cx="-2.4354" cy="2.2202" fill="#37BB00" r="0.05"/>
<circle cx="-0.0927" cy="0.0652" fill="#E16200" r="0.05"/>
<circle cx="1.5" cy="-0.2495" fill="#0433FF" r="0.05"/>
<circle cx="2.25" cy="-0.3486" fill="#C11A00" r="0.05"/>
<circle cx="2.4354" cy="-0.3779" fill="#C11A00" r="0.05"/>
<circle cx="-0.9294" cy="2.7631" fill="#00A0DF" r="0.05"/>
<circle cx="-2.0073" cy="1.8259" fill="#37BB00" r="0.05"/>
<circle cx="2.1" cy="0.3505" fill="#0433FF" r="0.05"/>
<circle cx="-1.2573" cy="3.1249" fill="#00A0DF" r="0.05"/>
<circle cx="1.0146" cy="-0.0022" fill="#0433FF" r="0.05"/>
<circle cx="-0.5706" cy="0.5359" fill="#E16200" r="0.05"/>
<circle cx="1.7646" cy="-0.5959" fill="#C11A00" r="0.05"/>
<circle cx="0.2427" cy="0.5268" fill="#E16200" r="0.05"/>
<circle cx="-0.6573" cy="1.3642" fill="#E16200" r="0.05"/>
<circle cx="-1.95" cy="1.6495" fill="#37BB00" r="0.05"/>
<circle cx="-1.5927" cy="3.2339" fill="#00A0DF" r="0.05"/>
<circle cx="-0.3527" cy="0.8359" fill="#E16200" r="0.05"/>
<circle cx="-1.1473" cy="2.4631" fill="#00A0DF" r="0.05"/>
<circle cx="2.6027" cy="-0.4631" fill="#C11A00" r="0.05"/>
<circle cx="1.8" cy="0.3505" fill="#0433FF" r="0.05"/>
<circle cx="-2.85" cy="1.6495" fill="#37BB00" r="0.05"/>
<circle cx="-1.2354" cy="2.0022" fill="#FFBE0E" r="0.05"/>
<circle cx="-1.8973" cy="2.1349" fill="#37BB00" r="0.05"/>
<circle cx="0.4854" cy="0.7032" fill="#0433FF" r="0.05"/>
<circle cx="-2.25" cy="2.2495" fill="#37BB00" r="0.05"/>
<circle cx="1.5" cy="0.3505" fill="#0433FF" r="0.05"/>
<circle cx="-1.3206" cy="1.4641" fill="#FFBE0E" r="0.05"/>
<circle cx="2.55" cy="-0.9486" fill="#C11A00" r="0.05"/>
<circle cx="-1.3206" cy="1.8349" fill="#FFBE0E" r="0.05"/>
<circle cx="2.8206" cy="-1.134" fill="#C11A00" r="0.05"/>
<circle cx="-0.3973" cy="2.1349" fill="#FFBE0E" r="0.05"/>
<circle cx="-0.75" cy="1.6495" fill="#FFBE0E" r="0.05"/>
<circle cx="-2.55" cy="1.6495" fill="#37BB00" r="0.05"/>
<circle cx="-1.1027" cy="2.1349" fill="#00A0DF" r="0.05"/>
<circle cx="2.25" cy="-0.9486" fill="#C11A00" r="0.05"/>
<circle cx="-1.9854" cy="2.5959" fill="#00A0DF" r="0.05"/>
<circle cx="2.8206" cy="-0.7631" fill="#C11A00" r="0.05"/>
<circle cx="0.0927" cy="0.6358" fill="#E16200" r="0.05"/>
<circle cx="-2.0706" cy="3.134" fill="#00A0DF" r="0.05"/>
<circle cx="-1.9854" cy="3.3012" fill="#00A0DF" r="0.05"/>
<circle cx="1.6854" cy="0.9211" fill="#0433FF" r="0.05"/>
<circle cx="2.7354" cy="-1.3012" fill="#C11A00" r="0.05"/>
<circle cx="-0.9354" cy="1.0789" fill="#FFBE0E" r="0.05"/>
<circle cx="-0.2427" cy="0.1741" fill="#E16200" r="0.05"/>
<circle cx="-0.5073" cy="1.8259" fill="#FFBE0E" r="0.05"/>
<circle cx="-1.5" cy="3.5486" fill="#00A0DF" r="0.05"/>
<circle cx="-2.1573" cy="1.3642" fill="#37BB00" r="0.05"/>
<circle cx="2.1573" cy="-0.6632" fill="#C11A00" r="0.05"/>
<circle cx="-1.5927" cy="2.6632" fill="#00A0DF" r="0.05"/>
<circle cx="-1.5" cy="2.3486" fill="#00A0DF" r="0.05"/>
<circle cx="1.6794" cy="-0.7631" fill="#0433FF" r="0.05"/>
<circle cx="-1.4073" cy="3.2339" fill="#00A0DF" r="0.05"/>
<circle cx="2.0073" cy="-0.7722" fill="#C11A00" r="0.05"/>
<circle cx="0.6" cy="0.3505" fill="#E16200" r="0.05"/>
<circle cx="1.2573" cy="0.5268" fill="#0433FF" r="0.05"/>
<circle cx="-1.2573" cy="2.7722" fill="#00A0DF" r="0.05"/>
<circle cx="-1.2" cy="2.9486" fill="#00A0DF" r="0.05"/>
<circle cx="2.0706" cy="0.5359" fill="#0433FF" r="0.05"/>
<circle cx="-0.5646" cy="2.2202" fill="#FFBE0E" r="0.05"/>
<circle cx="-2.4927" cy="1.8259" fill="#37BB00" r="0.05"/>
<circle cx="-0.5646" cy="1.0789" fill="#FFBE0E" r="0.05"/>
<circle cx="-1.7427" cy="2.7722" fill="#00A0DF" r="0.05"/>
<circle cx="-0.8427" cy="1.9348" fill="#FFBE0E" r="0.05"/>
<circle cx="0.5706" cy="0.5359" fill="#C11A00" r="0.05"/>
<circle cx="-0.9" cy="2.9486" fill="#00A0DF" r="0.05"/>
<circle cx="0.1854" cy="-0.2202" fill="#E16200" r="0.05"/>
<circle cx="0" cy="0.9505" fill="#0433FF" r="0.05"/>
<circle cx="2.3427" cy="-0.6632" fill="#C11A00" r="0.05"/>
<circle cx="2.4354" cy="-1.5192" fill="#C11A00" r="0.05"/>
<circle cx="1.4073" cy="0.6358" fill="#0433FF" r="0.05"/>
<circle cx="-2.0073" cy="1.4732" fill="#37BB00" r="0.05"/>
<circle cx="-2.7354" cy="1.2968" fill="#37BB00" r="0.05"/>
<circle cx="-1.5" cy="2.9486" fill="#00A0DF" r="0.05"/>
<circle cx="-2.7354" cy="2.0022" fill="#37BB00" r="0.05"/>
<circle cx="-0.9927" cy="1.8259" fill="#FFBE0E" r="0.05"/>
<circle cx="1.6794" cy="-1.134" fill="#C11A00" r="0.05"/>
<circle cx="1.9854" cy="-0.0022" fill="#0433FF" r="0.05"/>
<circle cx="-0.5706" cy="0.1651" fill="#E16200" r="0.05"/>
<circle cx="-2.4927" cy="1.4732" fill="#37BB00" r="0.05"/>
<circle cx="-2.3427" cy="1.9348" fill="#37BB00" r="0.05"/>
<circle cx="1.95" cy="-0.9486" fill="#C11A00" r="0.05"/>
<circle cx="-1.8" cy="2.9486" fill="#00A0DF" r="0.05"/>
<circle cx="0.3527" cy="0.8359" fill="#E16200" r="0.05"/>
<circle cx="-0.5073" cy="1.4732" fill="#FFBE0E" r="0.05"/>
<circle cx="2.25" cy="-1.5486" fill="#C11A00" r="0.05"/>
<circle cx="-2.0706" cy="2.7631" fill="#00A0DF" r="0.05"/>
<circle cx="2.0706" cy="0.1651" fill="#0433FF" r="0.05"/>
<circle cx="0" cy="-0.2495" fill="#E16200" r="0.05"/>
<circle cx="-1.6854" cy="3.5192" fill="#00A0DF" r="0.05"/>
<circle cx="-0.9294" cy="3.134" fill="#00A0DF" r="0.05"/>
<circle cx="1.8973" cy="-1.434" fill="#C11A00" r="0.05"/>
<circle cx="1.65" cy="-0.9486" fill="#C11A00" r="0.05"/>
<circle cx="2.6027" cy="-1.434" fill="#C11A00" r="0.05"/>
<circle cx="-2.4354" cy="1.0789" fill="#37BB00" r="0.05"/>
<circle cx="2.3427" cy="-1.2339" fill="#C11A00" r="0.05"/>
<circle cx="-0.75" cy="1.0495" fill="#37BB00" r="0.05"/>
<circle cx="1.1473" cy="0.8359" fill="#0433FF" r="0.05"/>
<circle cx="0.9" cy="0.3505" fill="#0433FF" r="0.05"/>
<circle cx="2.7354" cy="-0.5959" fill="#C11A00" r="0.05"/>
<circle cx="-0.2646" cy="1.2968" fill="#FFBE0E" r="0.05"/>
<circle cx="0" cy="0.3505" fill="#E16200" r="0.05"/>
<circle cx="0.2427" cy="0.1741" fill="#E16200" r="0.05"/>
<circle cx="2.4927" cy="-1.1249" fill="#C11A00" r="0.05"/>
<circle cx="1.0146" cy="0.7032" fill="#0433FF" r="0.05"/>
<circle cx="-2.6027" cy="2.1349" fill="#37BB00" r="0.05"/>
<circle cx="-1.6794" cy="1.8349" fill="#37BB00" r="0.05"/>
<circle cx="-0.2646" cy="2.0022" fill="#FFBE0E" r="0.05"/>
<circle cx="-2.1" cy="2.9486" fill="#00A0DF" r="0.05"/>
<circle cx="-0.1854" cy="-0.2202" fill="#E16200" r="0.05"/>
<circle cx="1.9854" cy="0.7032" fill="#0433FF" r="0.05"/>
<circle cx="0.4854" cy="-0.0022" fill="#C11A00" r="0.05"/>
<circle cx="-0.4854" cy="0.7032" fill="#E16200" r="0.05"/>
<circle cx="-1.0146" cy="2.5959" fill="#00A0DF" r="0.05"/>
<circle cx="2.0646" cy="-1.5192" fill="#C11A00" r="0.05"/>
<circle cx="2.0073" cy="-1.1249" fill="#C11A00" r="0.05"/>
<circle cx="-1.35" cy="1.6495" fill="#37BB00" r="0.05"/>
<circle cx="-1.7427" cy="3.1249" fill="#00A0DF" r="0.05"/>
<circle cx="-0.1794" cy="1.8349" fill="#FFBE0E" r="0.05"/>
<circle cx="0.3" cy="0.3505" fill="#E16200" r="0.05"/>
<circle cx="-0.6" cy="0.3505" fill="#E16200" r="0.05"/>
<circle cx="-1.4073" cy="2.6632" fill="#00A0DF" r="0.05"/>
</g>
<g fill="#37BB00">
<line stroke="#37BB00" stroke-width="0.01" x1="-1.064664" x2="-1.0266569" y1="1.1811843" y2="1.1982596"/>
<line stroke="#37BB00" stroke-width="0.01" x1="-1.0266569" x2="-0.6573" y1="1.1982596" y2="1.3642"/>
<polygon points="-1.0038526 1.2085048 -1.0291864 1.1733879 -1.0469316 1.2128861" stroke="black" stroke-width="0.005"/>
<text class="fleet" text-anchor="middle" x="-1.0266569" y="1.2107596">
105
</text>
<line stroke="#37BB00" stroke-width="0.01" x1="-0.78565234" x2="-0.75" y1="1.0611032" y2="1.0495191"/>
<polygon points="-0.7262236 1.0417936 -0.76857865 1.0327908 -0.75519776 1.0739727" stroke="black" stroke-width="0.005"/>
<text class="fleet" text-anchor="middle" x="-0.75" y="1.0620191">
75
</text>
<line stroke="#37BB00" stroke-width="0.01" x1="-1.4945449" x2="-1.4575806" y1="1.3679638" y2="1.3487347"/>
<line stroke="#37BB00" stroke-width="0.01" x1="-1.4575806" x2="-1.1027" y1="1.3487347" y2="1.1641"/>
<polygon points="-1.4354026 1.3371961 -1.4786623 1.3352973 -1.4586768 1.3737106" stroke="black" stroke-width="0.005"/>
<text class="fleet" text-anchor="middle" x="-1.4575806" y="1.3612348">
376
</text>
<line stroke="#37BB00" stroke-width="0.01" x1="-1.904425" x2="-1.8973289" y1="2.1606524" y2="2.1349292"/>
<polygon points="-1.8906806 2.1108294 -1.921524 2.1412215 -1.879782 2.1527367" stroke="black" stroke-width="0.005"/>
<text class="fleet" text-anchor="middle" x="-1.8973289" y="2.1474292">
149
</text>
<line stroke="#37BB00" stroke-width="0.01" x1="-1.0630438" x2="-1.0234164" y1="1.1512332" y2="1.1383574"/>
<line stroke="#37BB00" stroke-width="0.01" x1="-1.0234164" x2="-0.75" y1="1.1383574" y2="1.0495"/>
<polygon points="-0.99964046 1.1306305 -1.0419961 1.1216303 -1.0286126 1.1628114" stroke="black" stroke-width="0.005"/>
<text class="fleet" text-anchor="middle" x="-1.0234164" y="1.1508574">
100
</text>
<line stroke="#37BB00" stroke-width="0.01" x1="-2.1758401" x2="-2.2095492" y1="1.5956388" y2="1.6201298"/>
<line stroke="#37BB00" stroke-width="0.01" x1="-2.2095492" x2="-2.25" y1="1.6201298" y2="1.6495"/>
<polygon points="-2.2297792 1.6348182 -2.1867137 1.6303053 -2.2121546 1.595266" stroke="black" stroke-width="0.005"/>
<text class="fleet" text-anchor="middle" x="-2.2095492" y="1.6326299">
101
</text>
<line stroke="#37BB00" stroke-width="0.01" x1="-2.342705" x2="-2.3298295" y1="1.934836" y2="1.8952086"/>
<line stroke="#37BB00" stroke-width="0.01" x1="-2.3298295" x2="-2.25" y1="1.8952086" y2="1.6495"/>
<polygon points="-2.3221045 1.8714321 -2.354283 1.900407 -2.3131008 1.9137869" stroke="black" stroke-width="0.005"/>
<text class="fleet" text-anchor="middle" x="-2.3298295" y="1.9077086">
200
</text>
<line stroke="#37BB00" stroke-width="0.01" x1="-1.7794777" x2="-1.7645898" y1="2.0170782" y2="2.00219"/>
<polygon points="-1.7469122 1.9845123 -1.788738 1.9957198 -1.7581192 2.0263383" stroke="black" stroke-width="0.005"/>
<text class="fleet" text-anchor="middle" x="-1.7645898" y="2.0146902">
50
</text>
<line stroke="#37BB00" stroke-width="0.01" x1="-1.2666667" x2="-1.225" y1="1.6495191" y2="1.6495191"/>
<line stroke="#37BB00" stroke-width="0.01" x1="-1.225" x2="-0.75" y1="1.6495191" y2="1.6495"/>
<polygon points="-1.2 1.6495181 -1.2375009 1.627869 -1.2374991 1.6711702" stroke="black" stroke-width="0.005"/>
<text class="fleet" text-anchor="middle" x="-1.225" y="1.6620191">
170
</text>
</g>
<g fill="#C11A00">
<line stroke="#C11A00" stroke-width="0.01" x1="0.42332" x2="0.3938572" y1="0.68320507" y2="0.7126678"/>
<line stroke="#C11A00" stroke-width="0.01" x1="0.3938572" x2="0.1854" y1="0.7126678" y2="0.9211"/>
<polygon points="0.37617847 0.7303444 0.41800496 0.71913975 0.38738817 0.6885193" stroke="black" stroke-width="0.005"/>
<text class="fleet" text-anchor="middle" x="0.3938572" y="0.7251678">
100
</text>
<line stroke="#C11A00" stroke-width="0.01" x1="2.2365165" x2="2.25" y1="-0.93876076" y2="-0.94855714"/>
<line stroke="#C11A00" stroke-width="0.01" x1="2.25" x2="1.8973" y1="-0.94855714" y2="-0.4631"/>
<polygon points="2.2353055 -0.9283316 2.274863 -0.94594413 2.2398314 -0.9713957" stroke="black" stroke-width="0.005"/>
<text class="fleet" text-anchor="middle" x="2.25" y="-0.93605715">
54
</text>
<line stroke="#C11A00" stroke-width="0.01" x1="1.7006227" x2="1.6686391" y1="-0.5424758" y2="-0.51577073"/>
<line stroke="#C11A00" stroke-width="0.01" x1="1.6686391" x2="1.3146" y1="-0.51577073" y2="-0.2202"/>
<line stroke="#C11A00" stroke-width="0.01" x1="1.3146" x2="1.7646" y1="-0.2202" y2="-0.5959"/>
<polygon points="1.6494479 -0.49974892 1.69211 -0.5071616 1.6643593 -0.5404017" stroke="black" stroke-width="0.005"/>
<text class="fleet" text-anchor="middle" x="1.6686391" y="-0.50327075">
1
</text>
<line stroke="#C11A00" stroke-width="0.01" x1="2.0814548" x2="2.0477457" y1="-0.8261019" y2="-0.8016108"/>
<line stroke="#C11A00" stroke-width="0.01" x1="2.0477457" x2="1.7646" y1="-0.8016108" y2="-0.5959"/>
<line stroke="#C11A00" stroke-width="0.01" x1="1.7646" x2="2.25" y1="-0.5959" y2="-0.9486"/>
<polygon points="2.02752 -0.7869165 2.0705843 -0.7914421 2.0451329 -0.8264739" stroke="black" stroke-width="0.005"/>
<text class="fleet" text-anchor="middle" x="2.0477457" y="-0.78911084">
106
</text>
<line stroke="#C11A00" stroke-width="0.01" x1="1.019962" x2="0.9904992" y1="0.07447486" y2="0.10393765"/>
<line stroke="#C11A00" stroke-width="0.01" x1="0.9904992" x2="0.9294" y1="0.10393765" y2="0.1651"/>
<polygon points="0.97283065 0.12162445 1.0146507 0.11039564 0.98401624 0.07979285" stroke="black" stroke-width="0.005"/>
<text class="fleet" text-anchor="middle" x="0.9904992" y="0.11643765">
1202
</text>
<line stroke="#C11A00" stroke-width="0.01" x1="1.7780734" x2="1.7645898" y1="-0.60568243" y2="-0.595886"/>
<line stroke="#C11A00" stroke-width="0.01" x1="1.7645898" x2="1.3146" y1="-0.595886" y2="-0.2202"/>
<line stroke="#C11A00" stroke-width="0.01" x1="1.3146" x2="0.9294" y1="-0.2202" y2="0.1651"/>
<polygon points="1.7453989 -0.5798639 1.7880608 -0.5872772 1.7603097 -0.6205169" stroke="black" stroke-width="0.005"/>
<text class="fleet" text-anchor="middle" x="1.7645898" y="-0.583386">
287
</text>
</g>
<g fill="#E16200">
<line stroke="#E16200" stroke-width="0.01" x1="0.00257514" x2="0" y1="0.35840642" y2="0.35048094"/>
<line stroke="#E16200" stroke-width="0.01" x1="0" x2="0.2427" y1="0.35048094" y2="0.5268"/>
<line stroke="#E16200" stroke-width="0.01" x1="0.2427" x2="0.0927" y1="0.5268" y2="0.6358"/>
<line stroke="#E16200" stroke-width="0.01" x1="0.0927" x2="0" y1="0.6358" y2="0.3505"/>
<polygon points="0.020225935 0.3651749 0.002612347 0.3256178 -0.022838283 0.36065015" stroke="black" stroke-width="0.005"/>
<text class="fleet" text-anchor="middle" x="0" y="0.36298093">
31
</text>
<line stroke="#E16200" stroke-width="0.01" x1="0.29420793" x2="0.3" y1="0.3326548" y2="0.35048094"/>
<line stroke="#E16200" stroke-width="0.01" x1="0.3" x2="0" y1="0.35048094" y2="0.3505"/>
<polygon points="0.275 0.35048252 0.3125014 0.37213078 0.31249863 0.3288295" stroke="black" stroke-width="0.005"/>
<text class="fleet" text-anchor="middle" x="0.3" y="0.36298093">
161
</text>
<line stroke="#E16200" stroke-width="0.01" x1="-0.052714" x2="-0.08179782" y1="0.78498256" y2="0.8148195"/>
<line stroke="#E16200" stroke-width="0.01" x1="-0.08179782" x2="-0.1854" y1="0.8148195" y2="0.9211"/>
<polygon points="-0.099248484 0.8327213 -0.05756908 0.8209813 -0.088575915 0.7907559" stroke="black" stroke-width="0.005"/>
<text class="fleet" text-anchor="middle" x="-0.08179782" y="0.8273195">
215
</text>
<line stroke="#E16200" stroke-width="0.01" x1="-0.7822949" x2="-0.82396156" y1="1.3642021" y2="1.3642021"/>
<line stroke="#E16200" stroke-width="0.01" x1="-0.82396156" x2="-0.8427" y1="1.3642021" y2="1.3642"/>
<polygon points="-0.84896153 1.3641993 -0.811464 1.3858542 -0.81145906 1.3425529" stroke="black" stroke-width="0.005"/>
<text class="fleet" text-anchor="middle" x="-0.82396156" y="1.3767022">
47
</text>
<line stroke="#E16200" stroke-width="0.01" x1="-0.18283506" x2="-0.1854102" y1="0.9131894" y2="0.92111486"/>
<polygon points="-0.19313565 0.9448913 -0.1609565 0.9159171 -0.20213845 0.9025362" stroke="black" stroke-width="0.005"/>
<text class="fleet" text-anchor="middle" x="-0.1854102" y="0.93361485">
104
</text>
<line stroke="#E16200" stroke-width="0.01" x1="-0.41626796" x2="-0.43725502" y1="1.317062" y2="1.3530571"/>
<line stroke="#E16200" stroke-width="0.01" x1="-0.43725502" x2="-0.5073" y1="1.3530571" y2="1.4732"/>
<polygon points="-0.44984666 1.3746547 -0.41225526 1.3531631 -0.44966316 1.3313538" stroke="black" stroke-width="0.005"/>
<text class="fleet" text-anchor="middle" x="-0.43725502" y="1.3655572">
454
</text>
<line stroke="#E16200" stroke-width="0.01" x1="-0.29166666" x2="-0.3" y1="0.35048094" y2="0.35048094"/>
<line stroke="#E16200" stroke-width="0.01" x1="-0.3" x2="-0.2427" y1="0.35048094" y2="0.1741"/>
<line stroke="#E16200" stroke-width="0.01" x1="-0.2427" x2="0" y1="0.1741" y2="0.3505"/>
<line stroke="#E16200" stroke-width="0.01" x1="0" x2="-0.3" y1="0.3505" y2="0.3505"/>
<polygon points="-0.29227576 0.32670414 -0.32445344 0.35567993 -0.2832708 0.36905873" stroke="black" stroke-width="0.005"/>
<text class="fleet" text-anchor="middle" x="-0.3" y="0.36298093">
7
</text>
<line stroke="#E16200" stroke-width="0.01" x1="-0.10558081" x2="-0.11845651" y1="0.67542523" y2="0.7150526"/>
<line stroke="#E16200" stroke-width="0.01" x1="-0.11845651" x2="-0.1854" y1="0.7150526" y2="0.9211"/>
<polygon points="-0.12618138 0.7388292 -0.09400295 0.70985425 -0.13518523 0.6964744" stroke="black" stroke-width="0.005"/>
<text class="fleet" text-anchor="middle" x="-0.11845651" y="0.7275526">
5
</text>
<line stroke="#E16200" stroke-width="0.01" x1="-0.16461472" x2="-0.1854102" y1="0.92440856" y2="0.92111486"/>
<polygon points="-0.21010241 0.91720396 -0.17645101 0.9444544 -0.16967717 0.90168625" stroke="black" stroke-width="0.005"/>
<text class="fleet" text-anchor="middle" x="-0.1854102" y="0.93361485">
100
</text>
<line stroke="#E16200" stroke-width="0.01" x1="-0.04120227" x2="-0.02832656" y1="0.2236734" y2="0.26330078"/>
<line stroke="#E16200" stroke-width="0.01" x1="-0.02832656" x2="0" y1="0.26330078" y2="0.3505"/>
<line stroke="#E16200" stroke-width="0.01" x1="0" x2="0.0927" y1="0.3505" y2="0.0652"/>
<line stroke="#E16200" stroke-width="0.01" x1="0.0927" x2="0.0927" y1="0.0652" y2="0.0652"/>
<line stroke="#E16200" stroke-width="0.01" x1="0.0927" x2="-0.0927" y1="0.0652" y2="0.0652"/>
<polygon points="-0.02060266 0.2870777 -0.011597106 0.24472323 -0.05277992 0.25810143" stroke="black" stroke-width="0.005"/>
<text class="fleet" text-anchor="middle" x="-0.02832656" y="0.27580076">
11
</text>
<line stroke="#E16200" stroke-width="0.01" x1="-0.18853283" x2="-0.1854102" y1="0.8804042" y2="0.92111486"/>
<polygon points="-0.18349825 0.94604164 -0.16477896 0.90699565 -0.20795341 0.9103073" stroke="black" stroke-width="0.005"/>
<text class="fleet" text-anchor="middle" x="-0.1854102" y="0.93361485">
200
</text>
<line stroke="#E16200" stroke-width="0.01" x1="-0.03862712" x2="-0.05150283" y1="0.469363" y2="0.50899035"/>
<line stroke="#E16200" stroke-width="0.01" x1="-0.05150283" x2="-0.0927" y1="0.50899035" y2="0.6358"/>
<polygon points="-0.059227273 0.53276706 -0.027049357 0.5037915 -0.068231866 0.4904124" stroke="black" stroke-width="0.005"/>
<text class="fleet" text-anchor="middle" x="-0.05150283" y="0.52149034">
86
</text>
</g>
<g fill="#0433FF">
<line stroke="#0433FF" stroke-width="0.01" x1="0.9689934" x2="1.0086209" y1="0.52301544" y2="0.5101397"/>
<line stroke="#0433FF" stroke-width="0.01" x1="1.0086209" x2="1.5" y1="0.5101397" y2="0.3505"/>
<polygon points="1.0323975 0.5024151 0.9900428 0.4934108 1.0034223 0.5345932" stroke="black" stroke-width="0.005"/>
<text class="fleet" text-anchor="middle" x="1.0086209" y="0.5226397">
1
</text>
<line stroke="#0433FF" stroke-width="0.01" x1="0" x2="0" y1="0.95048094" y2="0.90881425"/>
<line stroke="#0433FF" stroke-width="0.01" x1="0" x2="0" y1="0.90881425" y2="0.3505"/>
<polygon points="-0.0000000021855695 0.8838143 -0.021650631 0.92131424 0.02165064 0.92131424" stroke="black" stroke-width="0.005"/>
<text class="fleet" text-anchor="middle" x="0" y="0.92131424">
1200
</text>
<line stroke="#0433FF" stroke-width="0.01" x1="0.316865" x2="0.28315595" y1="0.5806968" y2="0.5562058"/>
<line stroke="#0433FF" stroke-width="0.01" x1="0.28315595" x2="0.2427" y1="0.5562058" y2="0.5268"/>
<polygon points="0.26293358 0.54150695 0.28053758 0.58106834 0.3059967 0.54604214" stroke="black" stroke-width="0.005"/>
<text class="fleet" text-anchor="middle" x="0.28315595" y="0.5687058">
46
</text>
<line stroke="#0433FF" stroke-width="0.01" x1="0.5191527" x2="0.4874154" y1="0.674449" y2="0.70144635"/>
<line stroke="#0433FF" stroke-width="0.01" x1="0.4874154" x2="0.4854" y1="0.70144635" y2="0.7032"/>
<polygon points="0.46855533 0.71785665 0.5110572 0.70957446 0.48263368 0.6769079" stroke="black" stroke-width="0.005"/>
<text class="fleet" text-anchor="middle" x="0.4874154" y="0.71394634">
57
</text>
<line stroke="#0433FF" stroke-width="0.01" x1="1.1275029" x2="1.1671302" y1="0.4715126" y2="0.4586369"/>
<line stroke="#0433FF" stroke-width="0.01" x1="1.1671302" x2="1.5" y1="0.4586369" y2="0.3505"/>
<polygon points="1.190907 0.4509127 1.1485524 0.4419077 1.1619312 0.48309034" stroke="black" stroke-width="0.005"/>
<text class="fleet" text-anchor="middle" x="1.1671302" y="0.4711369">
1
</text>
<line stroke="#0433FF" stroke-width="0.01" x1="-0.05887306" x2="-0.07064767" y1="0.75063914" y2="0.7106708"/>
<line stroke="#0433FF" stroke-width="0.01" x1="-0.07064767" x2="-0.0927" y1="0.7106708" y2="0.6358"/>
<polygon points="-0.07771111 0.68668944 -0.087884456 0.72877866 -0.04634744 0.7165444" stroke="black" stroke-width="0.005"/>
<text class="fleet" text-anchor="middle" x="-0.07064767" y="0.7231708">
53
</text>
<line stroke="#0433FF" stroke-width="0.01" x1="0.50046265" x2="0.4854102" y1="0.69748104" y2="0.7031521"/>
<polygon points="0.4620155 0.7119662 0.5047408 0.71900547 0.48947436 0.6784847" stroke="black" stroke-width="0.005"/>
<text class="fleet" text-anchor="middle" x="0.4854102" y="0.7156521">
46
</text>
<line stroke="#0433FF" stroke-width="0.01" x1="0.7478213" x2="0.71151227" y1="0.43369403" y2="0.41325462"/>
<line stroke="#0433FF" stroke-width="0.01" x1="0.71151227" x2="0.6" y1="0.41325462" y2="0.3505"/>
<polygon points="0.6897253 0.4009938 0.7117876 0.4382531 0.73302394 0.40051696" stroke="black" stroke-width="0.005"/>
<text class="fleet" text-anchor="middle" x="0.71151227" y="0.4257546">
72
</text>
<line stroke="#0433FF" stroke-width="0.01" x1="1.4207453" x2="1.3811179" y1="0.37623236" y2="0.38910806"/>
<line stroke="#0433FF" stroke-width="0.01" x1="1.3811179" x2="0.9294" y1="0.38910806" y2="0.5359"/>
<polygon points="1.3573419 0.39683443 1.3996972 0.40583557 1.3863147 0.36465415" stroke="black" stroke-width="0.005"/>
<text class="fleet" text-anchor="middle" x="1.3811179" y="0.40160805">
207
</text>
<line stroke="#0433FF" stroke-width="0.01" x1="1.4841491" x2="1.5" y1="0.35563123" y2="0.35048094"/>
<polygon points="1.5237764 0.3427555 1.4814214 0.3337527 1.4948022 0.37493464" stroke="black" stroke-width="0.005"/>
<text class="fleet" text-anchor="middle" x="1.5" y="0.36298093">
1
</text>
<line stroke="#0433FF" stroke-width="0.01" x1="1.2" x2="1.2128757" y1="0.35048094" y2="0.3901083"/>
<line stroke="#0433FF" stroke-width="0.01" x1="1.2128757" x2="1.2573" y1="0.3901083" y2="0.5268"/>
<polygon points="1.2206028 0.41388416 1.2296027 0.3715285 1.1884217 0.3849122" stroke="black" stroke-width="0.005"/>
<text class="fleet" text-anchor="middle" x="1.2128757" y="0.40260828">
1
</text>
</g>
<g fill="#00A0DF">
<line stroke="#00A0DF" stroke-width="0.01" x1="-0.8356401" x2="-0.80730474" y1="2.127112" y2="2.0965633"/>
<line stroke="#00A0DF" stroke-width="0.01" x1="-0.80730474" x2="-0.6573" y1="2.0965633" y2="1.9348"/>
<polygon points="-0.79030585 2.078232 -0.8316796 2.0910075 -0.7999287 2.1204505" stroke="black" stroke-width="0.005"/>
<text class="fleet" text-anchor="middle" x="-0.80730474" y="2.1090634">
100
</text>
<line stroke="#00A0DF" stroke-width="0.01" x1="-1.0848899" x2="-1.0640768" y1="2.3548586" y2="2.3187625"/>
<line stroke="#00A0DF" stroke-width="0.01" x1="-1.0640768" x2="-0.8427" y1="2.3187625" y2="1.9348"/>
<polygon points="-1.0515896 2.2971046 -1.0890768 2.3187773 -1.0515639 2.3404057" stroke="black" stroke-width="0.005"/>
<text class="fleet" text-anchor="middle" x="-1.0640768" y="2.3312626">
607
</text>
<line stroke="#00A0DF" stroke-width="0.01" x1="-1.2554197" x2="-1.2250446" y1="2.5206335" y2="2.4921122"/>
<line stroke="#00A0DF" stroke-width="0.01" x1="-1.2250446" x2="-0.9354" y1="2.4921122" y2="2.2202"/>
<polygon points="-1.2068179 2.4750013 -1.2489765 2.4848828 -1.2193395 2.5164526" stroke="black" stroke-width="0.005"/>
<text class="fleet" text-anchor="middle" x="-1.2250446" y="2.5046122">
413
</text>
<line stroke="#00A0DF" stroke-width="0.01" x1="-1.5669537" x2="-1.554078" y1="2.7424948" y2="2.7821224"/>
<line stroke="#00A0DF" stroke-width="0.01" x1="-1.554078" x2="-1.5" y1="2.7821224" y2="2.9486"/>
<polygon points="-1.5463543 2.8058994 -1.5373483 2.763545 -1.5785313 2.7769227" stroke="black" stroke-width="0.005"/>
<text class="fleet" text-anchor="middle" x="-1.554078" y="2.7946224">
3
</text>
<line stroke="#00A0DF" stroke-width="0.01" x1="-1.7465433" x2="-1.7170805" y1="2.4390564" y2="2.4095936"/>
<line stroke="#00A0DF" stroke-width="0.01" x1="-1.7170805" x2="-1.6854" y1="2.4095936" y2="2.3779"/>
<polygon points="-1.6994065 2.3919122 -1.74123 2.4031281 -1.7106049 2.4337404" stroke="black" stroke-width="0.005"/>
<text class="fleet" text-anchor="middle" x="-1.7170805" y="2.4220936">
100
</text>
<line stroke="#00A0DF" stroke-width="0.01" x1="-1.1339195" x2="-1.1035445" y1="2.406548" y2="2.3780267"/>
<line stroke="#00A0DF" stroke-width="0.01" x1="-1.1035445" x2="-0.9354" y1="2.3780267" y2="2.2202"/>
<polygon points="-1.0853164 2.360917 -1.1274759 2.3707955 -1.0978411 2.4023676" stroke="black" stroke-width="0.005"/>
<text class="fleet" text-anchor="middle" x="-1.1035445" y="2.3905268">
1
</text>
<line stroke="#00A0DF" stroke-width="0.01" x1="-0.67378145" x2="-0.6505465" y1="2.382692" y2="2.3481052"/>
<line stroke="#00A0DF" stroke-width="0.01" x1="-0.6505465" x2="-0.5646" y1="2.3481052" y2="2.2202"/>
<polygon points="-0.6366031 2.3273547 -0.6754886 2.346405 -0.63954777 2.3705556" stroke="black" stroke-width="0.005"/>
<text class="fleet" text-anchor="middle" x="-0.6505465" y="2.3606052">
100
</text>
<line stroke="#00A0DF" stroke-width="0.01" x1="-0.6958845" x2="-0.6589039" y1="1.9237561" y2="1.9045587"/>
<line stroke="#00A0DF" stroke-width="0.01" x1="-0.6589039" x2="-0.5073" y1="1.9045587" y2="1.8259"/>
<polygon points="-0.63671297 1.8930451 -0.67997044 1.8910975 -0.6600283 1.9295334" stroke="black" stroke-width="0.005"/>
<text class="fleet" text-anchor="middle" x="-0.6589039" y="1.9170587">
125
</text>
</g>
<g fill="#FFBE0E">
<line stroke="#FFBE0E" stroke-width="0.01" x1="-0.8979231" x2="-0.9354102" y1="2.2201529" y2="2.2201529"/>
<polygon points="-0.9604102 2.2201529 -0.9229102 2.2418034 -0.9229102 2.1985023" stroke="black" stroke-width="0.005"/>
<text class="fleet" text-anchor="middle" x="-0.9354102" y="2.232653">
123
</text>
<line stroke="#FFBE0E" stroke-width="0.01" x1="-0.433135" x2="-0.46684405" y1="1.4193032" y2="1.4437943"/>
<line stroke="#FFBE0E" stroke-width="0.01" x1="-0.46684405" x2="-0.5073" y1="1.4437943" y2="1.4732"/>
<polygon points="-0.48706645 1.458493 -0.4440033 1.4539579 -0.4694624 1.4189317" stroke="black" stroke-width="0.005"/>
<text class="fleet" text-anchor="middle" x="-0.46684405" y="1.4562943">
450
</text>
<line stroke="#FFBE0E" stroke-width="0.01" x1="-0.41608873" x2="-0.39732885" y1="1.1545502" y2="1.1641089"/>
<polygon points="-0.3750537 1.1754587 -0.3986372 1.1391431 -0.41829562 1.1777248" stroke="black" stroke-width="0.005"/>
<text class="fleet" text-anchor="middle" x="-0.39732885" y="1.1766089">
100
</text>
<line stroke="#FFBE0E" stroke-width="0.01" x1="-1.2449688" x2="-1.2354102" y1="1.9834304" y2="2.00219"/>
<polygon points="-1.2240604 2.0244653 -1.2217942 1.9812233 -1.260376 2.0008817" stroke="black" stroke-width="0.005"/>
<text class="fleet" text-anchor="middle" x="-1.2354102" y="2.0146902">
74
</text>
<line stroke="#FFBE0E" stroke-width="0.01" x1="-0.2713316" x2="-0.2645898" y1="1.3017461" y2="1.2968479"/>
<polygon points="-0.24436432 1.2821534 -0.2874284 1.2866795 -0.26197666 1.321711" stroke="black" stroke-width="0.005"/>
<text class="fleet" text-anchor="middle" x="-0.2645898" y="1.309348">
66
</text>
<line stroke="#FFBE0E" stroke-width="0.01" x1="-1.2245029" x2="-1.2354102" y1="1.9814433" y2="2.00219"/>
<polygon points="-1.2470437 2.0243185 -1.2104298 2.001201 -1.2487571 1.981051" stroke="black" stroke-width="0.005"/>
<text class="fleet" text-anchor="middle" x="-1.2354102" y="2.0146902">
51
</text>
<line stroke="#FFBE0E" stroke-width="0.01" x1="-0.75" x2="-0.75" y1="1.6495191" y2="1.6495191"/>
<line stroke="#FFBE0E" stroke-width="0.01" x1="-0.75" x2="-0.5073" y1="1.6495191" y2="1.4732"/>
<polygon points="-0.72977406 1.6348251 -0.7728383 1.6393499 -0.74738765 1.6743822" stroke="black" stroke-width="0.005"/>
<text class="fleet" text-anchor="middle" x="-0.75" y="1.6620191">
150
</text>
<line stroke="#FFBE0E" stroke-width="0.01" x1="-0.75" x2="-0.75" y1="1.6495191" y2="1.6495191"/>
<line stroke="#FFBE0E" stroke-width="0.01" x1="-0.75" x2="-0.9927" y1="1.6495191" y2="1.4732"/>
<polygon points="-0.77022594 1.6348251 -0.75261235 1.6743822 -0.7271617 1.6393498" stroke="black" stroke-width="0.005"/>
<text class="fleet" text-anchor="middle" x="-0.75" y="1.6620191">
50
</text>
<line stroke="#FFBE0E" stroke-width="0.01" x1="-0.62896836" x2="-0.64184403" y1="1.2770219" y2="1.3166493"/>
<line stroke="#FFBE0E" stroke-width="0.01" x1="-0.64184403" x2="-0.6573" y1="1.3166493" y2="1.3642"/>
<polygon points="-0.6495721 1.3404249 -0.6173898 1.3114542 -0.65857023 1.2980689" stroke="black" stroke-width="0.005"/>
<text class="fleet" text-anchor="middle" x="-0.64184403" y="1.3291494">
75
</text>
<line stroke="#FFBE0E" stroke-width="0.01" x1="-1.0995877" x2="-1.1026711" y1="1.1636205" y2="1.1641089"/>
<polygon points="-1.1273633 1.1680199 -1.086938 1.1835374 -1.0937122 1.1407692" stroke="black" stroke-width="0.005"/>
<text class="fleet" text-anchor="middle" x="-1.1026711" y="1.1766089">
1
</text>
<line stroke="#FFBE0E" stroke-width="0.01" x1="-0.433135" x2="-0.46684405" y1="1.4193032" y2="1.4437943"/>
<line stroke="#FFBE0E" stroke-width="0.01" x1="-0.46684405" x2="-0.75" y1="1.4437943" y2="1.6495"/>
<polygon points="-0.4870701 1.458488 -0.44400585 1.4539636 -0.46945617 1.4189311" stroke="black" stroke-width="0.005"/>
<text class="fleet" text-anchor="middle" x="-0.46684405" y="1.4562943">
1
</text>
<line stroke="#FFBE0E" stroke-width="0.01" x1="-0.9893346" x2="-0.9927051" y1="1.8490503" y2="1.8258547"/>
<polygon points="-0.99630004 1.8011144 -1.0123333 1.841338 -0.969482 1.8351114" stroke="black" stroke-width="0.005"/>
<text class="fleet" text-anchor="middle" x="-0.9927051" y="1.8383547">
1
</text>
</g>
<g class="star">
<text text-anchor="middle" x="1.6854" y="-0.2952">
Jaw
</text>
<text text-anchor="middle" x="0.9294" y="0.09009999">
RIP Paul Walker
</text>
<text text-anchor="middle" x="0.0927" y="-0.009800002">
Kleeia
</text>
<text text-anchor="middle" x="-1.6854" y="2.3028998">
Alcor
</text>
<text text-anchor="middle" x="-0.3527" y="-0.2099">
Alkes
</text>
<text text-anchor="middle" x="1.4073" y="-0.009800002">
Mebsuta
</text>
<text text-anchor="middle" x="1.1473" y="-0.2099">
Merope
</text>
<text text-anchor="middle" x="1.3146" y="0.84610003">
Mimosa
</text>
<text text-anchor="middle" x="-2.8206" y="1.3891">
Zoo
</text>
<text text-anchor="middle" x="-0.75" y="2.1745">
Arkab
</text>
<text text-anchor="middle" x="1.8527" y="-0.2099">
Andretti
</text>
<text text-anchor="middle" x="-2.1573" y="1.8598">
Algieba
</text>
<text text-anchor="middle" x="-0.8427" y="1.2892">
Rub
</text>
<text text-anchor="middle" x="-1.1027" y="1.0891">
Pure Pax
</text>
<text text-anchor="middle" x="-1.05" y="1.5745">
Sasin
</text>
<text text-anchor="middle" x="-1.7646" y="1.2218">
Alkalurops
</text>
<text text-anchor="middle" x="0.1854" y="0.84610003">
Pleione
</text>
<text text-anchor="middle" x="-0.1854" y="0.84610003">
TseenKee
</text>
<text text-anchor="middle" x="-0.6573" y="1.8598">
Imp
</text>
<text text-anchor="middle" x="-1.8527" y="3.359">
Minkar
</text>
<text text-anchor="middle" x="-2.3427" y="1.2892">
Schedir
</text>
<text text-anchor="middle" x="-1.65" y="1.5745">
Biham
</text>
<text text-anchor="middle" x="-1.7646" y="1.9271998">
Syrma
</text>
<text text-anchor="middle" x="-2.8206" y="1.7599">
Sabik
</text>
<text text-anchor="middle" x="1.5927" y="0.5608">
Alphecca
</text>
<text text-anchor="middle" x="-0.3" y="0.2755">
Koi
</text>
<text text-anchor="middle" x="1.8527" y="0.7609">
Alwaid
</text>
<text text-anchor="middle" x="1.7427" y="0.4518">
Kajam
</text>
<text text-anchor="middle" x="-0.2427" y="0.4518">
Menkalinan
</text>
<text text-anchor="middle" x="1.5927" y="-0.009800002">
Alya
</text>
<text text-anchor="middle" x="1.2573" y="0.09909999">
Elnath
</text>
<text text-anchor="middle" x="-0.15" y="1.5745">
Alpheratz
</text>
<text text-anchor="middle" x="2.0646" y="-0.4529">
Leclerc
</text>
<text text-anchor="middle" x="-0.45" y="1.5745">
Alnasl
</text>
<text text-anchor="middle" x="1.2" y="0.2755">
Alcyone
</text>
<text text-anchor="middle" x="2.85" y="-1.0236">
Prost
</text>
<text text-anchor="middle" x="-1.6794" y="1.3891">
Errai
</text>
<text text-anchor="middle" x="-1.3146" y="3.4442">
Media
</text>
<text text-anchor="middle" x="-1.8973" y="1.0891">
Segin
</text>
<text text-anchor="middle" x="-2.0646" y="2.1452">
Tab
</text>
<text text-anchor="middle" x="-1.1473" y="3.359">
Sheliak
</text>
<text text-anchor="middle" x="2.1573" y="-1.3089">
Verstappen
</text>
<text text-anchor="middle" x="-0.1794" y="1.3891">
Alfecca
</text>
<text text-anchor="middle" x="1.3146" y="-0.2952">
Grosjean
</text>
<text text-anchor="middle" x="1.5" y="0.8755">
Kit
</text>
<text text-anchor="middle" x="-0.0927" y="0.5608">
Wow
</text>
<text text-anchor="middle" x="-0.9927" y="1.3981999">
Altais
</text>
<text text-anchor="middle" x="-2.25" y="0.9745">
Chi
</text>
<text text-anchor="middle" x="-2.0646" y="1.0038999">
Rotanev
</text>
<text text-anchor="middle" x="-0.9354" y="2.1452">
Gatria
</text>
<text text-anchor="middle" x="-1.8527" y="2.3881">
Tejat
</text>
<text text-anchor="middle" x="-2.25" y="1.5745">
Castor
</text>
<text text-anchor="middle" x="0.5706" y="0.09009999">
Diesel
</text>
<text text-anchor="middle" x="-0.4854" y="-0.0772">
Pherkad
</text>
<text text-anchor="middle" x="1.7427" y="0.09909999">
Vindemiatrix
</text>
<text text-anchor="middle" x="1.7646" y="-1.3762001">
Earnhardt
</text>
<text text-anchor="middle" x="0.9294" y="0.4609">
Salm
</text>
<text text-anchor="middle" x="-0.3973" y="1.0891">
Dux
</text>
<text text-anchor="middle" x="1.8973" y="-0.5381">
Vettel
</text>
<text text-anchor="middle" x="0.3527" y="-0.2099">
Avior
</text>
<text text-anchor="middle" x="-2.6027" y="1.0891">
Sarin
</text>
<text text-anchor="middle" x="2.4927" y="-0.8472">
Villeneuve
</text>
<text text-anchor="middle" x="-1.0146" y="3.2261999">
Ick
</text>
<text text-anchor="middle" x="-1.2354" y="1.2218">
Dschubba
</text>
<text text-anchor="middle" x="-1.3146" y="2.3028998">
Proxima
</text>
<text text-anchor="middle" x="-2.4354" y="2.1452">
Spy
</text>
<text text-anchor="middle" x="-0.0927" y="-0.009800002">
Naos
</text>
<text text-anchor="middle" x="1.5" y="-0.32450002">
Theemin
</text>
<text text-anchor="middle" x="2.25" y="-0.42360002">
Jerry
</text>
<text text-anchor="middle" x="2.4354" y="-0.4529">
Mansell
</text>
<text text-anchor="middle" x="-0.9294" y="2.6880999">
Diphda
</text>
<text text-anchor="middle" x="-2.0073" y="1.7508999">
Sham
</text>
<text text-anchor="middle" x="2.1" y="0.2755">
Alamak
</text>
<text text-anchor="middle" x="-1.2573" y="3.0499">
Mira
</text>
<text text-anchor="middle" x="1.0146" y="-0.0772">
Eltanin
</text>
<text text-anchor="middle" x="-0.5706" y="0.4609">
Pax
</text>
<text text-anchor="middle" x="1.7646" y="-0.6709">
Adam Driver
</text>
<text text-anchor="middle" x="0.2427" y="0.4518">
Tegmen
</text>
<text text-anchor="middle" x="-0.6573" y="1.2892">
Menkib
</text>
<text text-anchor="middle" x="-1.95" y="1.5745">
Ksora
</text>
<text text-anchor="middle" x="-1.5927" y="3.1589">
Mekbuda
</text>
<text text-anchor="middle" x="-0.3527" y="0.7609">
Polaris
</text>
<text text-anchor="middle" x="-1.1473" y="2.3881">
Yed
</text>
<text text-anchor="middle" x="2.6027" y="-0.5381">
Ricciardo
</text>
<text text-anchor="middle" x="1.8" y="0.2755">
Enif
</text>
<text text-anchor="middle" x="-2.85" y="1.5745">
Azimech
</text>
<text text-anchor="middle" x="-1.2354" y="1.9271998">
Cheleb
</text>
<text text-anchor="middle" x="-1.8973" y="2.0599">
Asellus
</text>
<text text-anchor="middle" x="0.4854" y="0.6282">
Regor
</text>
<text text-anchor="middle" x="-2.25" y="2.1745">
Garnet
</text>
<text text-anchor="middle" x="1.5" y="0.2755">
Acamar
</text>
<text text-anchor="middle" x="-1.3206" y="1.3891">
Mirzam
</text>
<text text-anchor="middle" x="2.55" y="-1.0236">
Hamilton
</text>
<text text-anchor="middle" x="-1.3206" y="1.7599">
Becrux
</text>
<text text-anchor="middle" x="2.8206" y="-1.209">
Tsunoda
</text>
<text text-anchor="middle" x="-0.3973" y="2.0599">
Merak
</text>
<text text-anchor="middle" x="-0.75" y="1.5745">
Hassaleh
</text>
<text text-anchor="middle" x="-2.55" y="1.5745">
Dabih
</text>
<text text-anchor="middle" x="-1.1027" y="2.0599">
Cox
</text>
<text text-anchor="middle" x="2.25" y="-1.0236">
Alonso
</text>
<text text-anchor="middle" x="-1.9854" y="2.5209">
Arc
</text>
<text text-anchor="middle" x="2.8206" y="-0.8381">
Jolyon
</text>
<text text-anchor="middle" x="0.0927" y="0.5608">
Brachium
</text>
<text text-anchor="middle" x="-2.0706" y="3.059">
Albali
</text>
<text text-anchor="middle" x="-1.9854" y="3.2261999">
SteropeII
</text>
<text text-anchor="middle" x="1.6854" y="0.84610003">
Keid
</text>
<text text-anchor="middle" x="2.7354" y="-1.3762001">
Latifi
</text>
<text text-anchor="middle" x="-0.9354" y="1.0038999">
Mac
</text>
<text text-anchor="middle" x="-0.2427" y="0.09909999">
Etamin
</text>
<text text-anchor="middle" x="-0.5073" y="1.7508999">
Zit
</text>
<text text-anchor="middle" x="-1.5" y="3.4736">
Alniyat
</text>
<text text-anchor="middle" x="-2.1573" y="1.2892">
Sky
</text>
<text text-anchor="middle" x="2.1573" y="-0.7382">
Senna
</text>
<text text-anchor="middle" x="-1.5927" y="2.5881999">
Menchib
</text>
<text text-anchor="middle" x="-1.5" y="2.2735999">
Aldhanab
</text>
<text text-anchor="middle" x="1.6794" y="-0.8381">
Danica Patrick
</text>
<text text-anchor="middle" x="-1.4073" y="3.1589">
Haldus
</text>
<text text-anchor="middle" x="2.0073" y="-0.8472">
Schumacher
</text>
<text text-anchor="middle" x="0.6" y="0.2755">
Alzir
</text>
<text text-anchor="middle" x="1.2573" y="0.4518">
Aladfar
</text>
<text text-anchor="middle" x="-1.2573" y="2.6972">
Talitha
</text>
<text text-anchor="middle" x="-1.2" y="2.8736">
Mintaka
</text>
<text text-anchor="middle" x="2.0706" y="0.4609">
Adhara
</text>
<text text-anchor="middle" x="-0.5646" y="2.1452">
TienKuan
</text>
<text text-anchor="middle" x="-2.4927" y="1.7508999">
Tic
</text>
<text text-anchor="middle" x="-0.5646" y="1.0038999">
Regulus
</text>
<text text-anchor="middle" x="-1.7427" y="2.6972">
Mud
</text>
<text text-anchor="middle" x="-0.8427" y="1.8598">
Marfark
</text>
<text text-anchor="middle" x="0.5706" y="0.4609">
Baby
</text>
<text text-anchor="middle" x="-0.9" y="2.8736">
Sun
</text>
<text text-anchor="middle" x="0.1854" y="-0.2952">
Arneb
</text>
<text text-anchor="middle" x="0" y="0.8755">
Korn
</text>
<text text-anchor="middle" x="2.3427" y="-0.7382">
Gordon
</text>
<text text-anchor="middle" x="2.4354" y="-1.5942">
Johnson
</text>
<text text-anchor="middle" x="1.4073" y="0.5608">
Decrux
</text>
<text text-anchor="middle" x="-2.0073" y="1.3981999">
Denebola
</text>
<text text-anchor="middle" x="-2.7354" y="1.2218">
Tag
</text>
<text text-anchor="middle" x="-1.5" y="2.8736">
Almach
</text>
<text text-anchor="middle" x="-2.7354" y="1.9271998">
Marfik
</text>
<text text-anchor="middle" x="-0.9927" y="1.7508999">
Asp
</text>
<text text-anchor="middle" x="1.6794" y="-1.209">
Earnhardt Jr
</text>
<text text-anchor="middle" x="1.9854" y="-0.0772">
Aludra
</text>
<text text-anchor="middle" x="-0.5706" y="0.09009999">
Elm
</text>
<text text-anchor="middle" x="-2.4927" y="1.3981999">
Propus
</text>
<text text-anchor="middle" x="-2.3427" y="1.8598">
Askella
</text>
<text text-anchor="middle" x="1.95" y="-1.0236">
Labonte
</text>
<text text-anchor="middle" x="-1.8" y="2.8736">
Rukbat
</text>
<text text-anchor="middle" x="0.3527" y="0.7609">
Sadr
</text>
<text text-anchor="middle" x="-0.5073" y="1.3981999">
Murzim
</text>
<text text-anchor="middle" x="2.25" y="-1.6236">
De Vries
</text>
<text text-anchor="middle" x="-2.0706" y="2.6880999">
Kaus
</text>
<text text-anchor="middle" x="2.0706" y="0.09009999">
Sadira
</text>
<text text-anchor="middle" x="0" y="-0.32450002">
Kaf
</text>
<text text-anchor="middle" x="-1.6854" y="3.4442">
Dnoces
</text>
<text text-anchor="middle" x="-0.9294" y="3.059">
Bam
</text>
<text text-anchor="middle" x="1.8973" y="-1.5090001">
Ocon
</text>
<text text-anchor="middle" x="1.65" y="-1.0236">
Earnhardt Jr Jr
</text>
<text text-anchor="middle" x="2.6027" y="-1.5090001">
Toretto
</text>
<text text-anchor="middle" x="-2.4354" y="1.0038999">
AlGiedi
</text>
<text text-anchor="middle" x="2.3427" y="-1.3089">
Petty
</text>
<text text-anchor="middle" x="-0.75" y="0.9745">
Menkent
</text>
<text text-anchor="middle" x="1.1473" y="0.7609">
Rukh
</text>
<text text-anchor="middle" x="0.9" y="0.2755">
Ras
</text>
<text text-anchor="middle" x="2.7354" y="-0.6709">
Perez
</text>
<text text-anchor="middle" x="-0.2646" y="1.2218">
Lanx
</text>
<text text-anchor="middle" x="0" y="0.2755">
Arided
</text>
<text text-anchor="middle" x="0.2427" y="0.09909999">
Alioth
</text>
<text text-anchor="middle" x="2.4927" y="-1.1999">
Stewart
</text>
<text text-anchor="middle" x="1.0146" y="0.6282">
Sargas
</text>
<text text-anchor="middle" x="-2.6027" y="2.0599">
Mizar
</text>
<text text-anchor="middle" x="-1.6794" y="1.7599">
Wasat
</text>
<text text-anchor="middle" x="-0.2646" y="1.9271998">
Wazn
</text>
<text text-anchor="middle" x="-2.1" y="2.8736">
Pug
</text>
<text text-anchor="middle" x="-0.1854" y="-0.2952">
Praecipua
</text>
<text text-anchor="middle" x="1.9854" y="0.6282">
Fin
</text>
<text text-anchor="middle" x="0.4854" y="-0.0772">
Pile
</text>
<text text-anchor="middle" x="-0.4854" y="0.6282">
Misam
</text>
<text text-anchor="middle" x="-1.0146" y="2.5209">
Yay
</text>
<text text-anchor="middle" x="2.0646" y="-1.5942">
Norris
</text>
<text text-anchor="middle" x="2.0073" y="-1.1999">
Sainz
</text>
<text text-anchor="middle" x="-1.35" y="1.5745">
Sadalmelik
</text>
<text text-anchor="middle" x="-1.7427" y="3.0499">
Caph
</text>
<text text-anchor="middle" x="-0.1794" y="1.7599">
Sulafat
</text>
<text text-anchor="middle" x="0.3" y="0.2755">
Ruchbah
</text>
<text text-anchor="middle" x="-0.6" y="0.2755">
Ale
</text>
<text text-anchor="middle" x="-1.4073" y="2.5881999">
Neshmet
</text>
</g>
</svg>