<svg viewBox="-3.4199998 -2.05832 6.84 6.11664" xmlns="http://www.w3.org/2000/svg">
<style>
.star { font: 0.05px sans-serif; fill: red; }
.fleet { font: 0.03px sans-serif; fill: white; }
</style>
<g fill="none" stroke="black" stroke-width="0.01">
<circle cx="-0.6" cy="0.3505" fill="#E16200" r="0.05"/>
<circle cx="0.4854" cy="0.7032" fill="#0433FF" r="0.05"/>
<circle cx="0.2427" cy="0.1741" fill="#E16200" r="0.05"/>
<circle cx="0" cy="0.3505" fill="#E16200" r="0.05"/>
<circle cx="1.2" cy="0.3505" fill="#0433FF" r="0.05"/>
<circle cx="-0.5073" cy="1.8259" fill="#FFBE0E" r="0.05"/>
<circle cx="-0.1854" cy="-0.2202" fill="#E16200" r="0.05"/>
<circle cx="2.7354" cy="-0.5959" fill="#C11A00" r="0.05"/>
<circle cx="-1.9854" cy="2.5959" fill="#00A0DF" r="0.05"/>
<circle cx="-0.5073" cy="1.4732" fill="#FFBE0E" r="0.05"/>
<circle cx="-1.2573" cy="3.1249" fill="#00A0DF" r="0.05"/>
<circle cx="-0.6573" cy="1.9348" fill="#FFBE0E" r="0.05"/>
<circle cx="-0.3527" cy="-0.1349" fill="#E16200" r="0.05"/>
<circle cx="-0.0927" cy="0.0652" fill="#E16200" r="0.05"/>
<circle cx="1.0146" cy="-0.0022" fill="#0433FF" r="0.05"/>
<circle cx="-0.2646" cy="1.2968" fill="#FFBE0E" r="0.05"/>
<circle cx="-1.5" cy="3.5486" fill="#00A0DF" r="0.05"/>
<circle cx="-0.15" cy="1.6495" fill="#FFBE0E" r="0.05"/>
<circle cx="-1.0146" cy="2.5959" fill="#00A0DF" r="0.05"/>
<circle cx="1.2573" cy="0.5268" fill="#0433FF" r="0.05"/>
<circle cx="-0.2427" cy="0.1741" fill="#E16200" r="0.05"/>
<circle cx="1.4073" cy="0.0652" fill="#0433FF" r="0.05"/>
<circle cx="2.6027" cy="-0.4631" fill="#C11A00" r="0.05"/>
<circle cx="-0.0927" cy="0.6358" fill="#E16200" r="0.05"/>
<circle cx="-2.0706" cy="2.7631" fill="#00A0DF" r="0.05"/>
<circle cx="2.4354" cy="-0.3779" fill="#C11A00" r="0.05"/>
<circle cx="-2.3427" cy="1.3642" fill="#37BB00" r="0.05"/>
<circle cx="-1.5" cy="2.9486" fill="#00A0DF" r="0.05"/>
<circle cx="-1.4073" cy="3.2339" fill="#00A0DF" r="0.05"/>
<circle cx="-0.9927" cy="1.8259" fill="#FFBE0E" r="0.05"/>
<circle cx="-2.6027" cy="1.1641" fill="#37BB00" r="0.05"/>
<circle cx="1.8527" cy="-0.1349" fill="#0433FF" r="0.05"/>
<circle cx="-0.75" cy="1.0495" fill="#37BB00" r="0.05"/>
<circle cx="-1.2" cy="2.9486" fill="#00A0DF" r="0.05"/>
<circle cx="-0.3527" cy="0.8359" fill="#E16200" r="0.05"/>
<circle cx="-1.1027" cy="2.1349" fill="#00A0DF" r="0.05"/>
<circle cx="-0.6573" cy="1.3642" fill="#FFBE0E" r="0.05"/>
<circle cx="-1.0146" cy="3.3012" fill="#00A0DF" r="0.05"/>
<circle cx="-0.5706" cy="0.5359" fill="#E16200" r="0.05"/>
<circle cx="-2.6027" cy="2.1349" fill="#37BB00" r="0.05"/>
<circle cx="-1.5" cy="2.3486" fill="#00A0DF" r="0.05"/>
<circle cx="1.7646" cy="-1.3012" fill="#0433FF" r="0.05"/>
<circle cx="2.6027" cy="-1.434" fill="#C11A00" r="0.05"/>
<circle cx="0.5706" cy="0.5359" fill="#C11A00" r="0.05"/>
<circle cx="2.4927" cy="-0.7722" fill="#C11A00" r="0.05"/>
<circle cx="1.5" cy="-0.2495" fill="#0433FF" r="0.05"/>
<circle cx="0" cy="-0.2495" fill="#E16200" r="0.05"/>
<circle cx="1.8527" cy="0.8359" fill="#0433FF" r="0.05"/>
<circle cx="-1.05" cy="1.6495" fill="#FFBE0E" r="0.05"/>
<circle cx="-0.5706" cy="0.1651" fill="#E16200" r="0.05"/>
<circle cx="-0.8427" cy="1.3642" fill="#E16200" r="0.05"/>
<circle cx="-1.2354" cy="1.2968" fill="#FFBE0E" r="0.05"/>
<circle cx="0" cy="0.9505" fill="#0433FF" r="0.05"/>
<circle cx="-1.9854" cy="3.3012" fill="#00A0DF" r="0.05"/>
<circle cx="-2.25" cy="1.0495" fill="#37BB00" r="0.05"/>
<circle cx="2.25" cy="-1.5486" fill="#C11A00" r="0.05"/>
<circle cx="1.7427" cy="0.1741" fill="#0433FF" r="0.05"/>
<circle cx="-2.1573" cy="1.9348" fill="#37BB00" r="0.05"/>
<circle cx="0.9294" cy="0.1651" fill="#C11A00" r="0.05"/>
<circle cx="-1.7427" cy="3.1249" fill="#00A0DF" r="0.05"/>
<circle cx="-0.8427" cy="1.9348" fill="#FFBE0E" r="0.05"/>
<circle cx="-2.4354" cy="2.2202" fill="#37BB00" r="0.05"/>
<circle cx="-0.2646" cy="2.0022" fill="#FFBE0E" r="0.05"/>
<circle cx="1.4073" cy="0.6358" fill="#0433FF" r="0.05"/>
<circle cx="2.0073" cy="-0.7722" fill="#C11A00" r="0.05"/>
<circle cx="-0.75" cy="2.2495" fill="#FFBE0E" r="0.05"/>
<circle cx="1.9854" cy="0.7032" fill="#0433FF" r="0.05"/>
<circle cx="1.8" cy="0.3505" fill="#0433FF" r="0.05"/>
<circle cx="1.8973" cy="-1.434" fill="#C11A00" r="0.05"/>
<circle cx="-0.9" cy="2.9486" fill="#00A0DF" r="0.05"/>
<circle cx="1.65" cy="-0.9486" fill="#C11A00" r="0.05"/>
<circle cx="-0.5646" cy="1.0789" fill="#FFBE0E" r="0.05"/>
<circle cx="2.4927" cy="-1.1249" fill="#C11A00" r="0.05"/>
<circle cx="-1.7646" cy="1.2968" fill="#37BB00" r="0.05"/>
<circle cx="-0.9927" cy="1.4732" fill="#E16200" r="0.05"/>
<circle cx="-1.3146" cy="2.3779" fill="#00A0DF" r="0.05"/>
<circle cx="-0.1854" cy="0.9211" fill="#E16200" r="0.05"/>
<circle cx="-1.1473" cy="3.434" fill="#00A0DF" r="0.05"/>
<circle cx="2.3427" cy="-0.6632" fill="#C11A00" r="0.05"/>
<circle cx="-2.0646" cy="2.2202" fill="#37BB00" r="0.05"/>
<circle cx="1.3146" cy="-0.2202" fill="#C11A00" r="0.05"/>
<circle cx="-1.8973" cy="2.1349" fill="#37BB00" r="0.05"/>
<circle cx="-2.8206" cy="1.8349" fill="#37BB00" r="0.05"/>
<circle cx="0.3527" cy="-0.1349" fill="#E16200" r="0.05"/>
<circle cx="0.9294" cy="0.5359" fill="#0433FF" r="0.05"/>
<circle cx="-2.0646" cy="1.0789" fill="#37BB00" r="0.05"/>
<circle cx="0.0927" cy="0.0652" fill="#E16200" r="0.05"/>
<circle cx="2.25" cy="-0.3486" fill="#C11A00" r="0.05"/>
<circle cx="-0.9294" cy="3.134" fill="#00A0DF" r="0.05"/>
<circle cx="1.8973" cy="-0.4631" fill="#C11A00" r="0.05"/>
<circle cx="-2.0073" cy="1.4732" fill="#37BB00" r="0.05"/>
<circle cx="0.1854" cy="0.9211" fill="#E16200" r="0.05"/>
<circle cx="-1.35" cy="1.6495" fill="#37BB00" r="0.05"/>
<circle cx="-2.55" cy="1.6495" fill="#37BB00" r="0.05"/>
<circle cx="1.6854" cy="-0.2202" fill="#0433FF" r="0.05"/>
<circle cx="-1.5927" cy="3.2339" fill="#00A0DF" r="0.05"/>
<circle cx="-0.4854" cy="0.7032" fill="#E16200" r="0.05"/>
<circle cx="2.3427" cy="-1.2339" fill="#C11A00" r="0.05"/>
<circle cx="-2.25" cy="2.2495" fill="#37BB00" r="0.05"/>
<circle cx="0.0927" cy="0.6358" fill="#E16200" r="0.05"/>
<circle cx="1.1473" cy="-0.1349" fill="#0433FF" r="0.05"/>
<circle cx="2.1" cy="0.3505" fill="#0433FF" r="0.05"/>
<circle cx="-2.7354" cy="1.2968" fill="#37BB00" r="0.05"/>
<circle cx="-2.4927" cy="1.4732" fill="#37BB00" r="0.05"/>
<circle cx="2.8206" cy="-0.7631" fill="#C11A00" r="0.05"/>
<circle cx="-1.3206" cy="1.4641" fill="#FFBE0E" r="0.05"/>
<circle cx="-1.8527" cy="2.4631" fill="#00A0DF" r="0.05"/>
<circle cx="-1.1473" cy="2.4631" fill="#00A0DF" r="0.05"/>
<circle cx="2.8206" cy="-1.134" fill="#C11A00" r="0.05"/>
<circle cx="-0.3973" cy="1.1641" fill="#FFBE0E" r="0.05"/>
<circle cx="2.0646" cy="-1.5192" fill="#C11A00" r="0.05"/>
<circle cx="1.9854" cy="-0.0022" fill="#0433FF" r="0.05"/>
<circle cx="-1.3146" cy="3.5192" fill="#00A0DF" r="0.05"/>
<circle cx="-1.1027" cy="1.1641" fill="#37BB00" r="0.05"/>
<circle cx="1.7427" cy="0.5268" fill="#0433FF" r="0.05"/>
<circle cx="-2.85" cy="1.6495" fill="#37BB00" r="0.05"/>
<circle cx="-0.75" cy="1.6495" fill="#FFBE0E" r="0.05"/>
<circle cx="-0.3" cy="0.3505" fill="#E16200" r="0.05"/>
<circle cx="-1.6854" cy="3.5192" fill="#00A0DF" r="0.05"/>
<circle cx="1.5" cy="0.9505" fill="#0433FF" r="0.05"/>
<circle cx="-0.9354" cy="2.2202" fill="#FFBE0E" r="0.05"/>
<circle cx="-1.8527" cy="3.434" fill="#00A0DF" r="0.05"/>
<circle cx="0.6" cy="0.3505" fill="#0433FF" r="0.05"/>
<circle cx="-2.4354" cy="1.0789" fill="#37BB00" r="0.05"/>
<circle cx="-2.8206" cy="1.4641" fill="#37BB00" r="0.05"/>
<circle cx="-1.6794" cy="1.4641" fill="#37BB00" r="0.05"/>
<circle cx="-2.3427" cy="1.9348" fill="#37BB00" r="0.05"/>
<circle cx="1.5927" cy="0.6358" fill="#0433FF" r="0.05"/>
<circle cx="-0.45" cy="1.6495" fill="#FFBE0E" r="0.05"/>
<circle cx="-0.4854" cy="-0.0022" fill="#E16200" r="0.05"/>
<circle cx="2.0706" cy="0.5359" fill="#0433FF" r="0.05"/>
<circle cx="-1.7646" cy="2.0022" fill="#37BB00" r="0.05"/>
<circle cx="1.6794" cy="-1.134" fill="#C11A00" r="0.05"/>
<circle cx="2.1573" cy="-1.2339" fill="#C11A00" r="0.05"/>
<circle cx="-0.9294" cy="2.7631" fill="#00A0DF" r="0.05"/>
<circle cx="-1.7427" cy="2.7722" fill="#00A0DF" r="0.05"/>
<circle cx="-1.95" cy="1.6495" fill="#37BB00" r="0.05"/>
<circle cx="-2.25" cy="1.6495" fill="#37BB00" r="0.05"/>
<circle cx="2.25" cy="-0.9486" fill="#C11A00" r="0.05"/>
<circle cx="2.4354" cy="-1.5192" fill="#C11A00" r="0.05"/>
<circle cx="1.7646" cy="-0.5959" fill="#C11A00" r="0.05"/>
<circle cx="-1.3206" cy="1.8349" fill="#FFBE0E" r="0.05"/>
<circle cx="-1.5927" cy="2.6632" fill="#00A0DF" r="0.05"/>
<circle cx="-1.6854" cy="2.3779" fill="#00A0DF" r="0.05"/>
<circle cx="2.0073" cy="-1.1249" fill="#C11A00" r="0.05"/>
<circle cx="0.3527" cy="0.8359" fill="#E16200" r="0.05"/>
<circle cx="0.1854" cy="-0.2202" fill="#E16200" r="0.05"/>
<circle cx="1.5927" cy="0.0652" fill="#0433FF" r="0.05"/>
<circle cx="2.1573" cy="-0.6632" fill="#C11A00" r="0.05"/>
<circle cx="1.1473" cy="0.8359" fill="#0433FF" r="0.05"/>
<circle cx="0.5706" cy="0.1651" fill="#C11A00" r="0.05"/>
<circle cx="-1.8" cy="2.9486" fill="#00A0DF" r="0.05"/>
<circle cx="-2.1573" cy="1.3642" fill="#37BB00" r="0.05"/>
<circle cx="-1.65" cy="1.6495" fill="#37BB00" r="0.05"/>
<circle cx="-2.4927" cy="1.8259" fill="#37BB00" r="0.05"/>
<circle cx="-0.9354" cy="1.0789" fill="#FFBE0E" r="0.05"/>
<circle cx="-1.4073" cy="2.6632" fill="#00A0DF" r="0.05"/>
<circle cx="-1.2573" cy="2.7722" fill="#00A0DF" r="0.05"/>
<circle cx="-0.1794" cy="1.8349" fill="#FFBE0E" r="0.05"/>
<circle cx="2.55" cy="-0.9486" fill="#C11A00" r="0.05"/>
<circle cx="-0.5646" cy="2.2202" fill="#FFBE0E" r="0.05"/>
<circle cx="-2.1" cy="2.9486" fill="#00A0DF" r="0.05"/>
<circle cx="-0.1794" cy="1.4641" fill="#FFBE0E" r="0.05"/>
<circle cx="0.4854" cy="-0.0022" fill="#C11A00" r="0.05"/>
<circle cx="1.6854" cy="0.9211" fill="#0433FF" r="0.05"/>
<circle cx="-0.2427" cy="0.5268" fill="#E16200" r="0.05"/>
<circle cx="1.6794" cy="-0.7631" fill="#0433FF" r="0.05"/>
<circle cx="2.0706" cy="0.1651" fill="#0433FF" r="0.05"/>
<circle cx="2.85" cy="-0.9486" fill="#C11A00" r="0.05"/>
<circle cx="2.0646" cy="-0.3779" fill="#C11A00" r="0.05"/>
<circle cx="-0.3973" cy="2.1349" fill="#FFBE0E" r="0.05"/>
<circle cx="-2.7354" cy="2.0022" fill="#37BB00" r="0.05"/>
<circle cx="0.9" cy="0.3505" fill="#0433FF" r="0.05"/>
<circle cx="0.2427" cy="0.5268" fill="#0433FF" r="0.05"/>
<circle cx="-1.8973" cy="1.1641" fill="#37BB00" r="0.05"/>
<circle cx="-1.6794" cy="1.8349" fill="#37BB00" r="0.05"/>
<circle cx="1.3146" cy="0.9211" fill="#0433FF" r="0.05"/>
<circle cx="-1.2354" cy="2.0022" fill="#FFBE0E" r="0.05"/>
<circle cx="2.7354" cy="-1.3012" fill="#C11A00" r="0.05"/>
<circle cx="1.5" cy="0.3505" fill="#0433FF" r="0.05"/>
<circle cx="0.3" cy="0.3505" fill="#E16200" r="0.05"/>
<circle cx="-2.0706" cy="3.134" fill="#00A0DF" r="0.05"/>
<circle cx="1.0146" cy="0.7032" fill="#0433FF" r="0.05"/>
<circle cx="1.95" cy="-0.9486" fill="#C11A00" r="0.05"/>
<circle cx="1.2573" cy="0.1741" fill="#0433FF" r="0.05"/>
<circle cx="-2.0073" cy="1.8259" fill="#37BB00" r="0.05"/>
</g>
<g fill="#37BB00">
<line stroke="#37BB00" stroke-width="0.01" x1="-0.8366212" x2="-0.7986141" y1="1.2836366" y2="1.300712"/>
<line stroke="#37BB00" stroke-width="0.01" x1="-0.7986141" x2="-0.6573" y1="1.300712" y2="1.3642"/>
<polygon points="-0.7758098 1.3109572 -0.8011436 1.2758403 -0.81888884 1.3153385" stroke="black" stroke-width="0.005"/>
<text class="fleet" text-anchor="middle" x="-0.7986141" y="1.313212">
105
</text>
<line stroke="#37BB00" stroke-width="0.01" x1="-0.6813147" x2="-0.6675777" y1="0.85283375" y2="0.8134967"/>
<line stroke="#37BB00" stroke-width="0.01" x1="-0.6675777" x2="-0.5706" y1="0.8134967" y2="0.5359"/>
<polygon points="-0.65933263 0.7898955 -0.6921395 0.81815696 -0.6512609 0.83243775" stroke="black" stroke-width="0.005"/>
<text class="fleet" text-anchor="middle" x="-0.6675777" y="0.8259967">
75
</text>
<line stroke="#37BB00" stroke-width="0.01" x1="-2.125" x2="-2.0833333" y1="1.6495191" y2="1.6495191"/>
<line stroke="#37BB00" stroke-width="0.01" x1="-2.0833333" x2="-1.65" y1="1.6495191" y2="1.6495"/>
<polygon points="-2.0583332 1.649518 -2.0958343 1.627869 -2.0958323 1.6711702" stroke="black" stroke-width="0.005"/>
<text class="fleet" text-anchor="middle" x="-2.0833333" y="1.6620191">
510
</text>
<line stroke="#37BB00" stroke-width="0.01" x1="-2.265451" x2="-2.2525752" y1="1.6970719" y2="1.6574445"/>
<line stroke="#37BB00" stroke-width="0.01" x1="-2.2525752" x2="-2.25" y1="1.6574445" y2="1.6495"/>
<polygon points="-2.2448664 1.6336627 -2.2770252 1.6626594 -2.235834 1.6760113" stroke="black" stroke-width="0.005"/>
<text class="fleet" text-anchor="middle" x="-2.2525752" y="1.6699445">
200
</text>
<line stroke="#37BB00" stroke-width="0.01" x1="-1.7414625" x2="-1.7102892" y1="1.9966959" y2="1.9690492"/>
<line stroke="#37BB00" stroke-width="0.01" x1="-1.7102892" x2="-1.35" y1="1.9690492" y2="1.6495"/>
<polygon points="-1.6915858 1.9524606 -1.7340071 1.9611459 -1.7052748 1.9935411" stroke="black" stroke-width="0.005"/>
<text class="fleet" text-anchor="middle" x="-1.7102892" y="1.9815493">
149
</text>
<line stroke="#37BB00" stroke-width="0.01" x1="-1.7794777" x2="-1.7645898" y1="2.0170782" y2="2.00219"/>
<polygon points="-1.7469122 1.9845123 -1.788738 1.9957198 -1.7581192 2.0263383" stroke="black" stroke-width="0.005"/>
<text class="fleet" text-anchor="middle" x="-1.7645898" y="2.0146902">
50
</text>
<line stroke="#37BB00" stroke-width="0.01" x1="-0.82527965" x2="-0.78565234" y1="1.0739789" y2="1.0611032"/>
<line stroke="#37BB00" stroke-width="0.01" x1="-0.78565234" x2="-0.75" y1="1.0611032" y2="1.0495"/>
<polygon points="-0.7618797 1.0533663 -0.80423903 1.044384 -0.7908383 1.0855595" stroke="black" stroke-width="0.005"/>
<text class="fleet" text-anchor="middle" x="-0.78565234" y="1.0736033">
100
</text>
<line stroke="#37BB00" stroke-width="0.01" x1="-1.0166667" x2="-0.975" y1="1.6495191" y2="1.6495191"/>
<line stroke="#37BB00" stroke-width="0.01" x1="-0.975" x2="-0.75" y1="1.6495191" y2="1.6495"/>
<polygon points="-0.95000005 1.6495169 -0.98750186 1.6278695 -0.98749816 1.6711708" stroke="black" stroke-width="0.005"/>
<text class="fleet" text-anchor="middle" x="-0.975" y="1.6620191">
170
</text>
<line stroke="#37BB00" stroke-width="0.01" x1="-1.2727593" x2="-1.235795" y1="1.2525897" y2="1.2333606"/>
<line stroke="#37BB00" stroke-width="0.01" x1="-1.235795" x2="-1.1027" y1="1.2333606" y2="1.1641"/>
<polygon points="-1.213618 1.2218201 -1.2568779 1.2199252 -1.2368891 1.2583367" stroke="black" stroke-width="0.005"/>
<text class="fleet" text-anchor="middle" x="-1.235795" y="1.2458607">
376
</text>
</g>
<g fill="#E16200">
<line stroke="#E16200" stroke-width="0.01" x1="-0.4854102" x2="-0.4854102" y1="0.7031521" y2="0.7031521"/>
<line stroke="#E16200" stroke-width="0.01" x1="-0.4854102" x2="-0.5706" y1="0.7031521" y2="0.5359"/>
<polygon points="-0.49675685 0.68087536 -0.49902913 0.724117 -0.46044466 0.704464" stroke="black" stroke-width="0.005"/>
<text class="fleet" text-anchor="middle" x="-0.4854102" y="0.7156521">
99
</text>
<line stroke="#E16200" stroke-width="0.01" x1="-0.1725345" x2="-0.15965877" y1="0.8814875" y2="0.8418602"/>
<line stroke="#E16200" stroke-width="0.01" x1="-0.15965877" x2="-0.0927" y1="0.8418602" y2="0.6358"/>
<polygon points="-0.15193275 0.81808394 -0.1841126 0.84705734 -0.14293097 0.86043924" stroke="black" stroke-width="0.005"/>
<text class="fleet" text-anchor="middle" x="-0.15965877" y="0.85436016">
1
</text>
<line stroke="#E16200" stroke-width="0.01" x1="-0.18283506" x2="-0.1854102" y1="0.9131894" y2="0.92111486"/>
<polygon points="-0.19313565 0.9448913 -0.1609565 0.9159171 -0.20213845 0.9025362" stroke="black" stroke-width="0.005"/>
<text class="fleet" text-anchor="middle" x="-0.1854102" y="0.93361485">
1
</text>
<line stroke="#E16200" stroke-width="0.01" x1="0.02575142" x2="0.03862712" y1="0.27122623" y2="0.23159888"/>
<line stroke="#E16200" stroke-width="0.01" x1="0.03862712" x2="0.0927" y1="0.23159888" y2="0.0652"/>
<line stroke="#E16200" stroke-width="0.01" x1="0.0927" x2="0.0927" y1="0.0652" y2="0.0652"/>
<line stroke="#E16200" stroke-width="0.01" x1="0.0927" x2="-0.0927" y1="0.0652" y2="0.0652"/>
<line stroke="#E16200" stroke-width="0.01" x1="-0.0927" x2="0" y1="0.0652" y2="0.3505"/>
<polygon points="0.046353396 0.20782274 0.014173247 0.23679581 0.05535473 0.2501781" stroke="black" stroke-width="0.005"/>
<text class="fleet" text-anchor="middle" x="0.03862712" y="0.24409889">
1
</text>
<line stroke="#E16200" stroke-width="0.01" x1="-0.2427051" x2="-0.20899606" y1="0.17414537" y2="0.19863641"/>
<line stroke="#E16200" stroke-width="0.01" x1="-0.20899606" x2="0" y1="0.19863641" y2="0.3505"/>
<line stroke="#E16200" stroke-width="0.01" x1="0" x2="-0.3" y1="0.3505" y2="0.3505"/>
<line stroke="#E16200" stroke-width="0.01" x1="-0.3" x2="-0.2427" y1="0.3505" y2="0.1741"/>
<polygon points="-0.18877152 0.21333225 -0.20638137 0.17377353 -0.2318353 0.20880347" stroke="black" stroke-width="0.005"/>
<text class="fleet" text-anchor="middle" x="-0.20899606" y="0.21113642">
12
</text>
<line stroke="#E16200" stroke-width="0.01" x1="-0.09012996" x2="-0.0927051" y1="0.6278724" y2="0.6357979"/>
<polygon points="-0.100430496 0.65957433 -0.068251416 0.6306001 -0.10943339 0.6172193" stroke="black" stroke-width="0.005"/>
<text class="fleet" text-anchor="middle" x="-0.0927051" y="0.6482979">
1
</text>
<line stroke="#E16200" stroke-width="0.01" x1="0.16854522" x2="0.20225425" y1="0.4729362" y2="0.49742725"/>
<line stroke="#E16200" stroke-width="0.01" x1="0.20225425" x2="0.2427" y1="0.49742725" y2="0.5268"/>
<line stroke="#E16200" stroke-width="0.01" x1="0.2427" x2="0.0927" y1="0.5268" y2="0.6358"/>
<line stroke="#E16200" stroke-width="0.01" x1="0.0927" x2="0" y1="0.6358" y2="0.3505"/>
<polygon points="0.22248273 0.5121177 0.2048623 0.47256365 0.17941773 0.5076004" stroke="black" stroke-width="0.005"/>
<text class="fleet" text-anchor="middle" x="0.20225425" y="0.5099273">
31
</text>
<line stroke="#E16200" stroke-width="0.01" x1="-0.97754127" x2="-0.9927051" y1="1.4621663" y2="1.4731835"/>
<polygon points="-1.0129305 1.4878782 -0.96986645 1.483352 -0.99531835 1.4483205" stroke="black" stroke-width="0.005"/>
<text class="fleet" text-anchor="middle" x="-0.9927051" y="1.4856836">
38
</text>
<line stroke="#E16200" stroke-width="0.01" x1="-0.18283506" x2="-0.1854102" y1="0.9131894" y2="0.92111486"/>
<polygon points="-0.19313565 0.9448913 -0.1609565 0.9159171 -0.20213845 0.9025362" stroke="black" stroke-width="0.005"/>
<text class="fleet" text-anchor="middle" x="-0.1854102" y="0.93361485">
1
</text>
<line stroke="#E16200" stroke-width="0.01" x1="-0.12103166" x2="-0.10815595" y1="0.72297806" y2="0.68335074"/>
<line stroke="#E16200" stroke-width="0.01" x1="-0.10815595" x2="-0.0927" y1="0.68335074" y2="0.6358"/>
<polygon points="-0.10042791 0.65957516 -0.13261022 0.6885458 -0.091429725 0.7019312" stroke="black" stroke-width="0.005"/>
<text class="fleet" text-anchor="middle" x="-0.10815595" y="0.69585073">
581
</text>
<line stroke="#E16200" stroke-width="0.01" x1="0.09166667" x2="0.05" y1="0.35048094" y2="0.35048094"/>
<line stroke="#E16200" stroke-width="0.01" x1="0.05" x2="0" y1="0.35048094" y2="0.3505"/>
<polygon points="0.025000002 0.35049048 0.062508255 0.37212682 0.06249175 0.32882553" stroke="black" stroke-width="0.005"/>
<text class="fleet" text-anchor="middle" x="0.05" y="0.36298093">
161
</text>
<line stroke="#E16200" stroke-width="0.01" x1="-0.18853283" x2="-0.1854102" y1="0.8804042" y2="0.92111486"/>
<polygon points="-0.18349825 0.94604164 -0.16477896 0.90699565 -0.20795341 0.9103073" stroke="black" stroke-width="0.005"/>
<text class="fleet" text-anchor="middle" x="-0.1854102" y="0.93361485">
1
</text>
</g>
<g fill="#C11A00">
<line stroke="#C11A00" stroke-width="0.01" x1="0.9293661" x2="0.9293661" y1="0.16507076" y2="0.16507076"/>
<line stroke="#C11A00" stroke-width="0.01" x1="0.9293661" x2="0.3" y1="0.16507076" y2="0.3505"/>
<line stroke="#C11A00" stroke-width="0.01" x1="0.3" x2="0.2427" y1="0.3505" y2="0.1741"/>
<polygon points="0.9053853 0.17213619 0.9474754 0.18230604 0.93523765 0.14077005" stroke="black" stroke-width="0.005"/>
<text class="fleet" text-anchor="middle" x="0.9293661" y="0.17757076">
902
</text>
<line stroke="#C11A00" stroke-width="0.01" x1="1.5087211" x2="1.4767376" y1="-0.38224533" y2="-0.35554025"/>
<line stroke="#C11A00" stroke-width="0.01" x1="1.4767376" x2="1.3146" y1="-0.35554025" y2="-0.2202"/>
<line stroke="#C11A00" stroke-width="0.01" x1="1.3146" x2="1.7646" y1="-0.2202" y2="-0.5959"/>
<polygon points="1.4575453 -0.3395199 1.5002079 -0.34692934 1.4724598 -0.38017154" stroke="black" stroke-width="0.005"/>
<text class="fleet" text-anchor="middle" x="1.4767376" y="-0.34304026">
1
</text>
<line stroke="#C11A00" stroke-width="0.01" x1="1.8792006" x2="1.8454915" y1="-0.6791556" y2="-0.6546645"/>
<line stroke="#C11A00" stroke-width="0.01" x1="1.8454915" x2="1.7646" y1="-0.6546645" y2="-0.5959"/>
<line stroke="#C11A00" stroke-width="0.01" x1="1.7646" x2="2.25" y1="-0.5959" y2="-0.9486"/>
<polygon points="1.8252653 -0.63997096 1.8683296 -0.6444949 1.8428797 -0.6795277" stroke="black" stroke-width="0.005"/>
<text class="fleet" text-anchor="middle" x="1.8454915" y="-0.6421645">
106
</text>
<line stroke="#C11A00" stroke-width="0.01" x1="0.2465433" x2="0.21708052" y1="0.8599818" y2="0.88944453"/>
<line stroke="#C11A00" stroke-width="0.01" x1="0.21708052" x2="0.1854" y1="0.88944453" y2="0.9211"/>
<polygon points="0.19939587 0.9071152 0.2412261 0.89592457 0.21061958 0.86529386" stroke="black" stroke-width="0.005"/>
<text class="fleet" text-anchor="middle" x="0.21708052" y="0.9019445">
100
</text>
<line stroke="#C11A00" stroke-width="0.01" x1="1.6046718" x2="1.5726883" y1="-0.4623606" y2="-0.4356555"/>
<line stroke="#C11A00" stroke-width="0.01" x1="1.5726883" x2="1.3146" y1="-0.4356555" y2="-0.2202"/>
<line stroke="#C11A00" stroke-width="0.01" x1="1.3146" x2="0.9294" y1="-0.2202" y2="0.1651"/>
<polygon points="1.5534968 -0.41963413 1.596159 -0.42704582 1.5684092 -0.46028656" stroke="black" stroke-width="0.005"/>
<text class="fleet" text-anchor="middle" x="1.5726883" y="-0.42315552">
287
</text>
<line stroke="#C11A00" stroke-width="0.01" x1="0.84603274" x2="0.8043661" y1="0.16507076" y2="0.16507076"/>
<line stroke="#C11A00" stroke-width="0.01" x1="0.8043661" x2="0.5706" y1="0.16507076" y2="0.1651"/>
<polygon points="0.77936614 0.16507389 0.81686884 0.18671982 0.8168634 0.14341855" stroke="black" stroke-width="0.005"/>
<text class="fleet" text-anchor="middle" x="0.8043661" y="0.17757076">
300
</text>
<line stroke="#C11A00" stroke-width="0.01" x1="2.1275446" x2="2.1030538" y1="-0.78001195" y2="-0.7463029"/>
<line stroke="#C11A00" stroke-width="0.01" x1="2.1030538" x2="1.8973" y1="-0.7463029" y2="-0.4631"/>
<polygon points="2.0883594 -0.7260773 2.1279168 -0.74369 2.092885 -0.76914144" stroke="black" stroke-width="0.005"/>
<text class="fleet" text-anchor="middle" x="2.1030538" y="-0.7338029">
54
</text>
</g>
<g fill="#FFBE0E">
<line stroke="#FFBE0E" stroke-width="0.01" x1="-1.0995877" x2="-1.1026711" y1="1.1636205" y2="1.1641089"/>
<polygon points="-1.1273633 1.1680199 -1.086938 1.1835374 -1.0937122 1.1407692" stroke="black" stroke-width="0.005"/>
<text class="fleet" text-anchor="middle" x="-1.1026711" y="1.1766089">
1
</text>
<line stroke="#FFBE0E" stroke-width="0.01" x1="-0.9185452" x2="-0.95225424" y1="1.5270638" y2="1.5025728"/>
<line stroke="#FFBE0E" stroke-width="0.01" x1="-0.95225424" x2="-0.9927" y1="1.5025728" y2="1.4732"/>
<polygon points="-0.9724827 1.4878823 -0.9548623 1.5274364 -0.9294177 1.4923997" stroke="black" stroke-width="0.005"/>
<text class="fleet" text-anchor="middle" x="-0.95225424" y="1.5150728">
50
</text>
<line stroke="#FFBE0E" stroke-width="0.01" x1="-0.5005531" x2="-0.5072949" y1="1.4682853" y2="1.4731835"/>
<line stroke="#FFBE0E" stroke-width="0.01" x1="-0.5072949" x2="-0.3973" y1="1.4731835" y2="1.1641"/>
<polygon points="-0.498913 1.4496305 -0.53188336 1.4777011 -0.49108836 1.492219" stroke="black" stroke-width="0.005"/>
<text class="fleet" text-anchor="middle" x="-0.5072949" y="1.4856836">
153
</text>
<line stroke="#FFBE0E" stroke-width="0.01" x1="-0.8979231" x2="-0.9354102" y1="2.2201529" y2="2.2201529"/>
<polygon points="-0.9604102 2.2201529 -0.9229102 2.2418034 -0.9229102 2.1985023" stroke="black" stroke-width="0.005"/>
<text class="fleet" text-anchor="middle" x="-0.9354102" y="2.232653">
123
</text>
<line stroke="#FFBE0E" stroke-width="0.01" x1="-0.5814548" x2="-0.54774576" y1="1.5270638" y2="1.5025728"/>
<line stroke="#FFBE0E" stroke-width="0.01" x1="-0.54774576" x2="-0.5073" y1="1.5025728" y2="1.4732"/>
<polygon points="-0.5275173 1.4878823 -0.57058233 1.4923997 -0.54513764 1.5274364" stroke="black" stroke-width="0.005"/>
<text class="fleet" text-anchor="middle" x="-0.54774576" y="1.5150728">
150
</text>
<line stroke="#FFBE0E" stroke-width="0.01" x1="-0.63538927" x2="-0.6690983" y1="1.5662495" y2="1.5907406"/>
<line stroke="#FFBE0E" stroke-width="0.01" x1="-0.6690983" x2="-0.75" y1="1.5907406" y2="1.6495"/>
<polygon points="-0.689326 1.605432 -0.6462613 1.6009125 -0.6717077 1.5658771" stroke="black" stroke-width="0.005"/>
<text class="fleet" text-anchor="middle" x="-0.6690983" y="1.6032406">
1
</text>
<line stroke="#FFBE0E" stroke-width="0.01" x1="-0.41608873" x2="-0.39732885" y1="1.1545502" y2="1.1641089"/>
<line stroke="#FFBE0E" stroke-width="0.01" x1="-0.39732885" x2="-0.3527" y1="1.1641089" y2="0.8359"/>
<polygon points="-0.39396042 1.1393368 -0.42046627 1.1735778 -0.37755984 1.179412" stroke="black" stroke-width="0.005"/>
<text class="fleet" text-anchor="middle" x="-0.39732885" y="1.1766089">
100
</text>
<line stroke="#FFBE0E" stroke-width="0.01" x1="-0.9893346" x2="-0.9927051" y1="1.8490503" y2="1.8258547"/>
<polygon points="-0.99630004 1.8011144 -1.0123333 1.841338 -0.969482 1.8351114" stroke="black" stroke-width="0.005"/>
<text class="fleet" text-anchor="middle" x="-0.9927051" y="1.8383547">
1
</text>
<line stroke="#FFBE0E" stroke-width="0.01" x1="-0.65471977" x2="-0.6572949" y1="1.3562766" y2="1.3642021"/>
<line stroke="#FFBE0E" stroke-width="0.01" x1="-0.6572949" x2="-0.8427" y1="1.3642021" y2="1.3642"/>
<polygon points="-0.6822949 1.3642019 -0.6447952 1.3858529 -0.6447947 1.3425517" stroke="black" stroke-width="0.005"/>
<text class="fleet" text-anchor="middle" x="-0.6572949" y="1.3767022">
30
</text>
<line stroke="#FFBE0E" stroke-width="0.01" x1="-1.2449688" x2="-1.2354102" y1="1.9834304" y2="2.00219"/>
<polygon points="-1.2240604 2.0244653 -1.2217942 1.9812233 -1.260376 2.0008817" stroke="black" stroke-width="0.005"/>
<text class="fleet" text-anchor="middle" x="-1.2354102" y="2.0146902">
74
</text>
<line stroke="#FFBE0E" stroke-width="0.01" x1="-0.2713316" x2="-0.2645898" y1="1.3017461" y2="1.2968479"/>
<polygon points="-0.24436432 1.2821534 -0.2874284 1.2866795 -0.26197666 1.321711" stroke="black" stroke-width="0.005"/>
<text class="fleet" text-anchor="middle" x="-0.2645898" y="1.309348">
66
</text>
<line stroke="#FFBE0E" stroke-width="0.01" x1="-0.5645898" x2="-0.5645898" y1="1.0788852" y2="1.0788852"/>
<line stroke="#FFBE0E" stroke-width="0.01" x1="-0.5645898" x2="-0.3527" y1="1.0788852" y2="0.8359"/>
<polygon points="-0.54815894 1.0600431 -0.589123 1.0740768 -0.55648744 1.1025358" stroke="black" stroke-width="0.005"/>
<text class="fleet" text-anchor="middle" x="-0.5645898" y="1.0913852">
99
</text>
<line stroke="#FFBE0E" stroke-width="0.01" x1="-1.2245029" x2="-1.2354102" y1="1.9814433" y2="2.00219"/>
<polygon points="-1.2470437 2.0243185 -1.2104298 2.001201 -1.2487571 1.981051" stroke="black" stroke-width="0.005"/>
<text class="fleet" text-anchor="middle" x="-1.2354102" y="2.0146902">
51
</text>
</g>
<g fill="#00A0DF">
<line stroke="#00A0DF" stroke-width="0.01" x1="-0.5808416" x2="-0.5645898" y1="2.2443447" y2="2.2201529"/>
<polygon points="-0.5506488 2.1994007 -0.58953214 2.2184556 -0.55358845 2.242602" stroke="black" stroke-width="0.005"/>
<text class="fleet" text-anchor="middle" x="-0.5645898" y="2.232653">
100
</text>
<line stroke="#00A0DF" stroke-width="0.01" x1="-1.0731695" x2="-1.0427943" y1="2.3495052" y2="2.320984"/>
<line stroke="#00A0DF" stroke-width="0.01" x1="-1.0427943" x2="-0.9354" y1="2.320984" y2="2.2202"/>
<polygon points="-1.0245645 2.3038762 -1.066725 2.3137503 -1.0370935 2.3453252" stroke="black" stroke-width="0.005"/>
<text class="fleet" text-anchor="middle" x="-1.0427943" y="2.333484">
413
</text>
<line stroke="#00A0DF" stroke-width="0.01" x1="-0.665628" x2="-0.6572949" y1="1.94382" y2="1.934836"/>
<polygon points="-0.6402937 1.9165069 -0.68166906 1.9292771 -0.649922 1.9587241" stroke="black" stroke-width="0.005"/>
<text class="fleet" text-anchor="middle" x="-0.6572949" y="1.9473361">
100
</text>
<line stroke="#00A0DF" stroke-width="0.01" x1="-0.5109815" x2="-0.5072949" y1="1.8277684" y2="1.8258547"/>
<polygon points="-0.48510647 1.8143362 -0.52836436 1.8123982 -0.50841385 1.8508296" stroke="black" stroke-width="0.005"/>
<text class="fleet" text-anchor="middle" x="-0.5072949" y="1.8383547">
125
</text>
<line stroke="#00A0DF" stroke-width="0.01" x1="-0.96001184" x2="-0.93919885" y1="2.1382818" y2="2.1021857"/>
<line stroke="#00A0DF" stroke-width="0.01" x1="-0.93919885" x2="-0.8427" y1="2.1021857" y2="1.9348"/>
<polygon points="-0.9267126 2.080527 -0.9641988 2.1022015 -0.92668515 2.1238284" stroke="black" stroke-width="0.005"/>
<text class="fleet" text-anchor="middle" x="-0.93919885" y="2.1146858">
607
</text>
<line stroke="#00A0DF" stroke-width="0.01" x1="-1.6876178" x2="-1.6854101" y1="2.3801308" y2="2.3779233"/>
<polygon points="-1.667732 2.360246 -1.7095581 2.371452 -1.6789403 2.4020715" stroke="black" stroke-width="0.005"/>
<text class="fleet" text-anchor="middle" x="-1.6854101" y="2.3904233">
100
</text>
<line stroke="#00A0DF" stroke-width="0.01" x1="-0.9516693" x2="-0.9354102" y1="2.2354198" y2="2.2201529"/>
<polygon points="-0.9171852 2.20304 -0.95934284 2.212926 -0.9297025 2.2444925" stroke="black" stroke-width="0.005"/>
<text class="fleet" text-anchor="middle" x="-0.9354102" y="2.232653">
1
</text>
<line stroke="#00A0DF" stroke-width="0.01" x1="-1.5" x2="-1.4871243" y1="2.9485571" y2="2.9089298"/>
<line stroke="#00A0DF" stroke-width="0.01" x1="-1.4871243" x2="-1.4073" y1="2.9089298" y2="2.6632"/>
<polygon points="-1.4794005 2.8851528 -1.5115776 2.9141293 -1.4703948 2.9275074" stroke="black" stroke-width="0.005"/>
<text class="fleet" text-anchor="middle" x="-1.4871243" y="2.9214299">
175
</text>
</g>
<g fill="#0433FF">
<line stroke="#0433FF" stroke-width="0.01" x1="0.14157797" x2="0.10786893" y1="0.6002897" y2="0.6247807"/>
<line stroke="#0433FF" stroke-width="0.01" x1="0.10786893" x2="0.0927" y1="0.6247807" y2="0.6358"/>
<polygon points="0.0876425 0.639474 0.13070688 0.6349507 0.105257414 0.5999175" stroke="black" stroke-width="0.005"/>
<text class="fleet" text-anchor="middle" x="0.10786893" y="0.6372807">
34
</text>
<line stroke="#0433FF" stroke-width="0.01" x1="0" x2="0" y1="0.70048094" y2="0.65881425"/>
<line stroke="#0433FF" stroke-width="0.01" x1="0" x2="0" y1="0.65881425" y2="0.3505"/>
<polygon points="-0.0000000021855695 0.6338143 -0.021650631 0.67131424 0.02165064 0.67131424" stroke="black" stroke-width="0.005"/>
<text class="fleet" text-anchor="middle" x="0" y="0.67131424">
1200
</text>
<line stroke="#0433FF" stroke-width="0.01" x1="1.2067575" x2="1.246385" y1="0.4457612" y2="0.43288547"/>
<line stroke="#0433FF" stroke-width="0.01" x1="1.246385" x2="1.5" y1="0.43288547" y2="0.3505"/>
<polygon points="1.2701619 0.42516166 1.2278075 0.41615593 1.2411855 0.4573388" stroke="black" stroke-width="0.005"/>
<text class="fleet" text-anchor="middle" x="1.246385" y="0.44538546">
1
</text>
<line stroke="#0433FF" stroke-width="0.01" x1="1.365267" x2="1.4048944" y1="0.39425835" y2="0.38138264"/>
<line stroke="#0433FF" stroke-width="0.01" x1="1.4048944" x2="1.5" y1="0.38138264" y2="0.3505"/>
<polygon points="1.4286722 0.37366152 1.3863188 0.36465102 1.3996922 0.4058354" stroke="black" stroke-width="0.005"/>
<text class="fleet" text-anchor="middle" x="1.4048944" y="0.39388263">
1
</text>
<line stroke="#0433FF" stroke-width="0.01" x1="0.50046265" x2="0.4854102" y1="0.69748104" y2="0.7031521"/>
<polygon points="0.4620155 0.7119662 0.5047408 0.71900547 0.48947436 0.6784847" stroke="black" stroke-width="0.005"/>
<text class="fleet" text-anchor="middle" x="0.4854102" y="0.7156521">
46
</text>
<line stroke="#0433FF" stroke-width="0.01" x1="1.1829811" x2="1.1433538" y1="0.45348662" y2="0.46636233"/>
<line stroke="#0433FF" stroke-width="0.01" x1="1.1433538" x2="0.9294" y1="0.46636233" y2="0.5359"/>
<polygon points="1.119578 0.47408974 1.1619339 0.48308903 1.1485496 0.4419082" stroke="black" stroke-width="0.005"/>
<text class="fleet" text-anchor="middle" x="1.1433538" y="0.47886232">
207
</text>
<line stroke="#0433FF" stroke-width="0.01" x1="0.6025854" x2="0.6" y1="0.35193634" y2="0.35048094"/>
<polygon points="0.5782147 0.33821714 0.60027194 0.37547946 0.6215134 0.3377462" stroke="black" stroke-width="0.005"/>
<text class="fleet" text-anchor="middle" x="0.6" y="0.36298093">
72
</text>
<line stroke="#0433FF" stroke-width="0.01" x1="1.291004" x2="1.324713" y1="0.55130756" y2="0.57579863"/>
<line stroke="#0433FF" stroke-width="0.01" x1="1.324713" x2="1.4073" y1="0.57579863" y2="0.6358"/>
<polygon points="1.3449386 0.590493 1.3273259 0.55093557 1.3018745 0.58596736" stroke="black" stroke-width="0.005"/>
<text class="fleet" text-anchor="middle" x="1.324713" y="0.5882986">
9
</text>
<line stroke="#0433FF" stroke-width="0.01" x1="1.2916666" x2="1.25" y1="0.35048094" y2="0.35048094"/>
<line stroke="#0433FF" stroke-width="0.01" x1="1.25" x2="0.9" y1="0.35048094" y2="0.3505"/>
<polygon points="1.225 0.3504823 1.2625012 0.3721309 1.2624989 0.32882962" stroke="black" stroke-width="0.005"/>
<text class="fleet" text-anchor="middle" x="1.25" y="0.36298093">
1
</text>
<line stroke="#0433FF" stroke-width="0.01" x1="0.4874154" x2="0.4854102" y1="0.70144635" y2="0.7031521"/>
<polygon points="0.46636808 0.7193508 0.5089598 0.71154374 0.48090282 0.6785618" stroke="black" stroke-width="0.005"/>
<text class="fleet" text-anchor="middle" x="0.4854102" y="0.7156521">
57
</text>
</g>
<g class="star">
<text text-anchor="middle" x="-0.6" y="0.2755">
Ale
</text>
<text text-anchor="middle" x="0.4854" y="0.6282">
Regor
</text>
<text text-anchor="middle" x="0.2427" y="0.09909999">
Alioth
</text>
<text text-anchor="middle" x="0" y="0.2755">
Arided
</text>
<text text-anchor="middle" x="1.2" y="0.2755">
Alcyone
</text>
<text text-anchor="middle" x="-0.5073" y="1.7508999">
Zit
</text>
<text text-anchor="middle" x="-0.1854" y="-0.2952">
Praecipua
</text>
<text text-anchor="middle" x="2.7354" y="-0.6709">
Perez
</text>
<text text-anchor="middle" x="-1.9854" y="2.5209">
Arc
</text>
<text text-anchor="middle" x="-0.5073" y="1.3981999">
Murzim
</text>
<text text-anchor="middle" x="-1.2573" y="3.0499">
Mira
</text>
<text text-anchor="middle" x="-0.6573" y="1.8598">
Imp
</text>
<text text-anchor="middle" x="-0.3527" y="-0.2099">
Alkes
</text>
<text text-anchor="middle" x="-0.0927" y="-0.009800002">
Naos
</text>
<text text-anchor="middle" x="1.0146" y="-0.0772">
Eltanin
</text>
<text text-anchor="middle" x="-0.2646" y="1.2218">
Lanx
</text>
<text text-anchor="middle" x="-1.5" y="3.4736">
Alniyat
</text>
<text text-anchor="middle" x="-0.15" y="1.5745">
Alpheratz
</text>
<text text-anchor="middle" x="-1.0146" y="2.5209">
Yay
</text>
<text text-anchor="middle" x="1.2573" y="0.4518">
Aladfar
</text>
<text text-anchor="middle" x="-0.2427" y="0.09909999">
Etamin
</text>
<text text-anchor="middle" x="1.4073" y="-0.009800002">
Mebsuta
</text>
<text text-anchor="middle" x="2.6027" y="-0.5381">
Ricciardo
</text>
<text text-anchor="middle" x="-0.0927" y="0.5608">
Wow
</text>
<text text-anchor="middle" x="-2.0706" y="2.6880999">
Kaus
</text>
<text text-anchor="middle" x="2.4354" y="-0.4529">
Mansell
</text>
<text text-anchor="middle" x="-2.3427" y="1.2892">
Schedir
</text>
<text text-anchor="middle" x="-1.5" y="2.8736">
Almach
</text>
<text text-anchor="middle" x="-1.4073" y="3.1589">
Haldus
</text>
<text text-anchor="middle" x="-0.9927" y="1.7508999">
Asp
</text>
<text text-anchor="middle" x="-2.6027" y="1.0891">
Sarin
</text>
<text text-anchor="middle" x="1.8527" y="-0.2099">
Andretti
</text>
<text text-anchor="middle" x="-0.75" y="0.9745">
Menkent
</text>
<text text-anchor="middle" x="-1.2" y="2.8736">
Mintaka
</text>
<text text-anchor="middle" x="-0.3527" y="0.7609">
Polaris
</text>
<text text-anchor="middle" x="-1.1027" y="2.0599">
Cox
</text>
<text text-anchor="middle" x="-0.6573" y="1.2892">
Menkib
</text>
<text text-anchor="middle" x="-1.0146" y="3.2261999">
Ick
</text>
<text text-anchor="middle" x="-0.5706" y="0.4609">
Pax
</text>
<text text-anchor="middle" x="-2.6027" y="2.0599">
Mizar
</text>
<text text-anchor="middle" x="-1.5" y="2.2735999">
Aldhanab
</text>
<text text-anchor="middle" x="1.7646" y="-1.3762001">
Earnhardt
</text>
<text text-anchor="middle" x="2.6027" y="-1.5090001">
Toretto
</text>
<text text-anchor="middle" x="0.5706" y="0.4609">
Baby
</text>
<text text-anchor="middle" x="2.4927" y="-0.8472">
Villeneuve
</text>
<text text-anchor="middle" x="1.5" y="-0.32450002">
Theemin
</text>
<text text-anchor="middle" x="0" y="-0.32450002">
Kaf
</text>
<text text-anchor="middle" x="1.8527" y="0.7609">
Alwaid
</text>
<text text-anchor="middle" x="-1.05" y="1.5745">
Sasin
</text>
<text text-anchor="middle" x="-0.5706" y="0.09009999">
Elm
</text>
<text text-anchor="middle" x="-0.8427" y="1.2892">
Rub
</text>
<text text-anchor="middle" x="-1.2354" y="1.2218">
Dschubba
</text>
<text text-anchor="middle" x="0" y="0.8755">
Korn
</text>
<text text-anchor="middle" x="-1.9854" y="3.2261999">
SteropeII
</text>
<text text-anchor="middle" x="-2.25" y="0.9745">
Chi
</text>
<text text-anchor="middle" x="2.25" y="-1.6236">
De Vries
</text>
<text text-anchor="middle" x="1.7427" y="0.09909999">
Vindemiatrix
</text>
<text text-anchor="middle" x="-2.1573" y="1.8598">
Algieba
</text>
<text text-anchor="middle" x="0.9294" y="0.09009999">
RIP Paul Walker
</text>
<text text-anchor="middle" x="-1.7427" y="3.0499">
Caph
</text>
<text text-anchor="middle" x="-0.8427" y="1.8598">
Marfark
</text>
<text text-anchor="middle" x="-2.4354" y="2.1452">
Spy
</text>
<text text-anchor="middle" x="-0.2646" y="1.9271998">
Wazn
</text>
<text text-anchor="middle" x="1.4073" y="0.5608">
Decrux
</text>
<text text-anchor="middle" x="2.0073" y="-0.8472">
Schumacher
</text>
<text text-anchor="middle" x="-0.75" y="2.1745">
Arkab
</text>
<text text-anchor="middle" x="1.9854" y="0.6282">
Fin
</text>
<text text-anchor="middle" x="1.8" y="0.2755">
Enif
</text>
<text text-anchor="middle" x="1.8973" y="-1.5090001">
Ocon
</text>
<text text-anchor="middle" x="-0.9" y="2.8736">
Sun
</text>
<text text-anchor="middle" x="1.65" y="-1.0236">
Earnhardt Jr Jr
</text>
<text text-anchor="middle" x="-0.5646" y="1.0038999">
Regulus
</text>
<text text-anchor="middle" x="2.4927" y="-1.1999">
Stewart
</text>
<text text-anchor="middle" x="-1.7646" y="1.2218">
Alkalurops
</text>
<text text-anchor="middle" x="-0.9927" y="1.3981999">
Altais
</text>
<text text-anchor="middle" x="-1.3146" y="2.3028998">
Proxima
</text>
<text text-anchor="middle" x="-0.1854" y="0.84610003">
TseenKee
</text>
<text text-anchor="middle" x="-1.1473" y="3.359">
Sheliak
</text>
<text text-anchor="middle" x="2.3427" y="-0.7382">
Gordon
</text>
<text text-anchor="middle" x="-2.0646" y="2.1452">
Tab
</text>
<text text-anchor="middle" x="1.3146" y="-0.2952">
Grosjean
</text>
<text text-anchor="middle" x="-1.8973" y="2.0599">
Asellus
</text>
<text text-anchor="middle" x="-2.8206" y="1.7599">
Sabik
</text>
<text text-anchor="middle" x="0.3527" y="-0.2099">
Avior
</text>
<text text-anchor="middle" x="0.9294" y="0.4609">
Salm
</text>
<text text-anchor="middle" x="-2.0646" y="1.0038999">
Rotanev
</text>
<text text-anchor="middle" x="0.0927" y="-0.009800002">
Kleeia
</text>
<text text-anchor="middle" x="2.25" y="-0.42360002">
Jerry
</text>
<text text-anchor="middle" x="-0.9294" y="3.059">
Bam
</text>
<text text-anchor="middle" x="1.8973" y="-0.5381">
Vettel
</text>
<text text-anchor="middle" x="-2.0073" y="1.3981999">
Denebola
</text>
<text text-anchor="middle" x="0.1854" y="0.84610003">
Pleione
</text>
<text text-anchor="middle" x="-1.35" y="1.5745">
Sadalmelik
</text>
<text text-anchor="middle" x="-2.55" y="1.5745">
Dabih
</text>
<text text-anchor="middle" x="1.6854" y="-0.2952">
Jaw
</text>
<text text-anchor="middle" x="-1.5927" y="3.1589">
Mekbuda
</text>
<text text-anchor="middle" x="-0.4854" y="0.6282">
Misam
</text>
<text text-anchor="middle" x="2.3427" y="-1.3089">
Petty
</text>
<text text-anchor="middle" x="-2.25" y="2.1745">
Garnet
</text>
<text text-anchor="middle" x="0.0927" y="0.5608">
Brachium
</text>
<text text-anchor="middle" x="1.1473" y="-0.2099">
Merope
</text>
<text text-anchor="middle" x="2.1" y="0.2755">
Alamak
</text>
<text text-anchor="middle" x="-2.7354" y="1.2218">
Tag
</text>
<text text-anchor="middle" x="-2.4927" y="1.3981999">
Propus
</text>
<text text-anchor="middle" x="2.8206" y="-0.8381">
Jolyon
</text>
<text text-anchor="middle" x="-1.3206" y="1.3891">
Mirzam
</text>
<text text-anchor="middle" x="-1.8527" y="2.3881">
Tejat
</text>
<text text-anchor="middle" x="-1.1473" y="2.3881">
Yed
</text>
<text text-anchor="middle" x="2.8206" y="-1.209">
Tsunoda
</text>
<text text-anchor="middle" x="-0.3973" y="1.0891">
Dux
</text>
<text text-anchor="middle" x="2.0646" y="-1.5942">
Norris
</text>
<text text-anchor="middle" x="1.9854" y="-0.0772">
Aludra
</text>
<text text-anchor="middle" x="-1.3146" y="3.4442">
Media
</text>
<text text-anchor="middle" x="-1.1027" y="1.0891">
Pure Pax
</text>
<text text-anchor="middle" x="1.7427" y="0.4518">
Kajam
</text>
<text text-anchor="middle" x="-2.85" y="1.5745">
Azimech
</text>
<text text-anchor="middle" x="-0.75" y="1.5745">
Hassaleh
</text>
<text text-anchor="middle" x="-0.3" y="0.2755">
Koi
</text>
<text text-anchor="middle" x="-1.6854" y="3.4442">
Dnoces
</text>
<text text-anchor="middle" x="1.5" y="0.8755">
Kit
</text>
<text text-anchor="middle" x="-0.9354" y="2.1452">
Gatria
</text>
<text text-anchor="middle" x="-1.8527" y="3.359">
Minkar
</text>
<text text-anchor="middle" x="0.6" y="0.2755">
Alzir
</text>
<text text-anchor="middle" x="-2.4354" y="1.0038999">
AlGiedi
</text>
<text text-anchor="middle" x="-2.8206" y="1.3891">
Zoo
</text>
<text text-anchor="middle" x="-1.6794" y="1.3891">
Errai
</text>
<text text-anchor="middle" x="-2.3427" y="1.8598">
Askella
</text>
<text text-anchor="middle" x="1.5927" y="0.5608">
Alphecca
</text>
<text text-anchor="middle" x="-0.45" y="1.5745">
Alnasl
</text>
<text text-anchor="middle" x="-0.4854" y="-0.0772">
Pherkad
</text>
<text text-anchor="middle" x="2.0706" y="0.4609">
Adhara
</text>
<text text-anchor="middle" x="-1.7646" y="1.9271998">
Syrma
</text>
<text text-anchor="middle" x="1.6794" y="-1.209">
Earnhardt Jr
</text>
<text text-anchor="middle" x="2.1573" y="-1.3089">
Verstappen
</text>
<text text-anchor="middle" x="-0.9294" y="2.6880999">
Diphda
</text>
<text text-anchor="middle" x="-1.7427" y="2.6972">
Mud
</text>
<text text-anchor="middle" x="-1.95" y="1.5745">
Ksora
</text>
<text text-anchor="middle" x="-2.25" y="1.5745">
Castor
</text>
<text text-anchor="middle" x="2.25" y="-1.0236">
Alonso
</text>
<text text-anchor="middle" x="2.4354" y="-1.5942">
Johnson
</text>
<text text-anchor="middle" x="1.7646" y="-0.6709">
Adam Driver
</text>
<text text-anchor="middle" x="-1.3206" y="1.7599">
Becrux
</text>
<text text-anchor="middle" x="-1.5927" y="2.5881999">
Menchib
</text>
<text text-anchor="middle" x="-1.6854" y="2.3028998">
Alcor
</text>
<text text-anchor="middle" x="2.0073" y="-1.1999">
Sainz
</text>
<text text-anchor="middle" x="0.3527" y="0.7609">
Sadr
</text>
<text text-anchor="middle" x="0.1854" y="-0.2952">
Arneb
</text>
<text text-anchor="middle" x="1.5927" y="-0.009800002">
Alya
</text>
<text text-anchor="middle" x="2.1573" y="-0.7382">
Senna
</text>
<text text-anchor="middle" x="1.1473" y="0.7609">
Rukh
</text>
<text text-anchor="middle" x="0.5706" y="0.09009999">
Diesel
</text>
<text text-anchor="middle" x="-1.8" y="2.8736">
Rukbat
</text>
<text text-anchor="middle" x="-2.1573" y="1.2892">
Sky
</text>
<text text-anchor="middle" x="-1.65" y="1.5745">
Biham
</text>
<text text-anchor="middle" x="-2.4927" y="1.7508999">
Tic
</text>
<text text-anchor="middle" x="-0.9354" y="1.0038999">
Mac
</text>
<text text-anchor="middle" x="-1.4073" y="2.5881999">
Neshmet
</text>
<text text-anchor="middle" x="-1.2573" y="2.6972">
Talitha
</text>
<text text-anchor="middle" x="-0.1794" y="1.7599">
Sulafat
</text>
<text text-anchor="middle" x="2.55" y="-1.0236">
Hamilton
</text>
<text text-anchor="middle" x="-0.5646" y="2.1452">
TienKuan
</text>
<text text-anchor="middle" x="-2.1" y="2.8736">
Pug
</text>
<text text-anchor="middle" x="-0.1794" y="1.3891">
Alfecca
</text>
<text text-anchor="middle" x="0.4854" y="-0.0772">
Pile
</text>
<text text-anchor="middle" x="1.6854" y="0.84610003">
Keid
</text>
<text text-anchor="middle" x="-0.2427" y="0.4518">
Menkalinan
</text>
<text text-anchor="middle" x="1.6794" y="-0.8381">
Danica Patrick
</text>
<text text-anchor="middle" x="2.0706" y="0.09009999">
Sadira
</text>
<text text-anchor="middle" x="2.85" y="-1.0236">
Prost
</text>
<text text-anchor="middle" x="2.0646" y="-0.4529">
Leclerc
</text>
<text text-anchor="middle" x="-0.3973" y="2.0599">
Merak
</text>
<text text-anchor="middle" x="-2.7354" y="1.9271998">
Marfik
</text>
<text text-anchor="middle" x="0.9" y="0.2755">
Ras
</text>
<text text-anchor="middle" x="0.2427" y="0.4518">
Tegmen
</text>
<text text-anchor="middle" x="-1.8973" y="1.0891">
Segin
</text>
<text text-anchor="middle" x="-1.6794" y="1.7599">
Wasat
</text>
<text text-anchor="middle" x="1.3146" y="0.84610003">
Mimosa
</text>
<text text-anchor="middle" x="-1.2354" y="1.9271998">
Cheleb
</text>
<text text-anchor="middle" x="2.7354" y="-1.3762001">
Latifi
</text>
<text text-anchor="middle" x="1.5" y="0.2755">
Acamar
</text>
<text text-anchor="middle" x="0.3" y="0.2755">
Ruchbah
</text>
<text text-anchor="middle" x="-2.0706" y="3.059">
Albali
</text>
<text text-anchor="middle" x="1.0146" y="0.6282">
Sargas
</text>
<text text-anchor="middle" x="1.95" y="-1.0236">
Labonte
</text>
<text text-anchor="middle" x="1.2573" y="0.09909999">
Elnath
</text>
<text text-anchor="middle" x="-2.0073" y="1.7508999">
Sham
</text>
</g>
</svg>