<svg viewBox="-3.4199998 -2.05832 6.84 6.11664" xmlns="http://www.w3.org/2000/svg">
<style>
.star { font: 0.05px sans-serif; fill: red; }
.fleet { font: 0.03px sans-serif; fill: white; }
</style>
<g fill="none" stroke="black" stroke-width="0.01">
<circle cx="-1.4073" cy="2.6632" fill="#00A0DF" r="0.05"/>
<circle cx="-0.3973" cy="2.1349" fill="#FFBE0E" r="0.05"/>
<circle cx="-2.4927" cy="1.4732" fill="#37BB00" r="0.05"/>
<circle cx="2.4927" cy="-0.7722" fill="#C11A00" r="0.05"/>
<circle cx="1.5927" cy="0.0652" fill="#0433FF" r="0.05"/>
<circle cx="1.7646" cy="-0.5959" fill="#C11A00" r="0.05"/>
<circle cx="2.7354" cy="-1.3012" fill="#C11A00" r="0.05"/>
<circle cx="-0.9294" cy="2.7631" r="0.05"/>
<circle cx="1.9854" cy="-0.0022" fill="#0433FF" r="0.05"/>
<circle cx="2.55" cy="-0.9486" fill="#C11A00" r="0.05"/>
<circle cx="0.9294" cy="0.1651" fill="#0433FF" r="0.05"/>
<circle cx="0.2427" cy="0.5268" fill="#E16200" r="0.05"/>
<circle cx="-2.4354" cy="1.0789" fill="#37BB00" r="0.05"/>
<circle cx="-1.8527" cy="2.4631" fill="#00A0DF" r="0.05"/>
<circle cx="2.8206" cy="-1.134" fill="#C11A00" r="0.05"/>
<circle cx="2.3427" cy="-1.2339" fill="#C11A00" r="0.05"/>
<circle cx="-0.75" cy="1.6495" fill="#FFBE0E" r="0.05"/>
<circle cx="-2.0073" cy="1.8259" fill="#37BB00" r="0.05"/>
<circle cx="-0.8427" cy="1.3642" fill="#FFBE0E" r="0.05"/>
<circle cx="2.4927" cy="-1.1249" fill="#C11A00" r="0.05"/>
<circle cx="1.5" cy="0.9505" fill="#0433FF" r="0.05"/>
<circle cx="-0.5073" cy="1.4732" fill="#FFBE0E" r="0.05"/>
<circle cx="1.1473" cy="-0.1349" fill="#0433FF" r="0.05"/>
<circle cx="-2.85" cy="1.6495" r="0.05"/>
<circle cx="1.0146" cy="-0.0022" fill="#0433FF" r="0.05"/>
<circle cx="0.6" cy="0.3505" fill="#E16200" r="0.05"/>
<circle cx="-1.5927" cy="3.2339" fill="#00A0DF" r="0.05"/>
<circle cx="-0.6573" cy="1.3642" fill="#FFBE0E" r="0.05"/>
<circle cx="-0.5646" cy="1.0789" fill="#FFBE0E" r="0.05"/>
<circle cx="-1.7427" cy="3.1249" fill="#00A0DF" r="0.05"/>
<circle cx="1.3146" cy="0.9211" fill="#0433FF" r="0.05"/>
<circle cx="-1.6854" cy="2.3779" fill="#00A0DF" r="0.05"/>
<circle cx="2.25" cy="-1.5486" fill="#C11A00" r="0.05"/>
<circle cx="1.65" cy="-0.9486" fill="#C11A00" r="0.05"/>
<circle cx="-1.95" cy="1.6495" fill="#37BB00" r="0.05"/>
<circle cx="-1.9854" cy="2.5959" fill="#00A0DF" r="0.05"/>
<circle cx="2.4354" cy="-0.3779" fill="#C11A00" r="0.05"/>
<circle cx="1.8973" cy="-0.4631" fill="#C11A00" r="0.05"/>
<circle cx="-1.8" cy="2.9486" fill="#00A0DF" r="0.05"/>
<circle cx="-1.0146" cy="3.3012" fill="#00A0DF" r="0.05"/>
<circle cx="2.0706" cy="0.1651" fill="#0433FF" r="0.05"/>
<circle cx="-1.2354" cy="1.2968" fill="#FFBE0E" r="0.05"/>
<circle cx="1.8973" cy="-1.434" fill="#C11A00" r="0.05"/>
<circle cx="-1.7646" cy="1.2968" r="0.05"/>
<circle cx="1.4073" cy="0.6358" fill="#0433FF" r="0.05"/>
<circle cx="-2.3427" cy="1.3642" fill="#37BB00" r="0.05"/>
<circle cx="-1.2" cy="2.9486" fill="#00A0DF" r="0.05"/>
<circle cx="-2.25" cy="1.0495" r="0.05"/>
<circle cx="-1.9854" cy="3.3012" fill="#00A0DF" r="0.05"/>
<circle cx="2.0646" cy="-0.3779" fill="#C11A00" r="0.05"/>
<circle cx="2.3427" cy="-0.6632" fill="#C11A00" r="0.05"/>
<circle cx="-0.0927" cy="0.6358" fill="#E16200" r="0.05"/>
<circle cx="-2.4354" cy="2.2202" r="0.05"/>
<circle cx="0.4854" cy="-0.0022" fill="#E16200" r="0.05"/>
<circle cx="2.85" cy="-0.9486" fill="#C11A00" r="0.05"/>
<circle cx="-0.9927" cy="1.4732" fill="#FFBE0E" r="0.05"/>
<circle cx="0.0927" cy="0.6358" fill="#E16200" r="0.05"/>
<circle cx="1.4073" cy="0.0652" fill="#0433FF" r="0.05"/>
<circle cx="-2.55" cy="1.6495" fill="#37BB00" r="0.05"/>
<circle cx="-0.75" cy="2.2495" fill="#FFBE0E" r="0.05"/>
<circle cx="-0.5706" cy="0.1651" fill="#E16200" r="0.05"/>
<circle cx="1.8527" cy="0.8359" fill="#0433FF" r="0.05"/>
<circle cx="0.4854" cy="0.7032" fill="#0433FF" r="0.05"/>
<circle cx="-2.1573" cy="1.9348" fill="#37BB00" r="0.05"/>
<circle cx="-0.8427" cy="1.9348" fill="#FFBE0E" r="0.05"/>
<circle cx="0.1854" cy="0.9211" fill="#E16200" r="0.05"/>
<circle cx="0" cy="-0.2495" fill="#E16200" r="0.05"/>
<circle cx="-0.9354" cy="1.0789" fill="#FFBE0E" r="0.05"/>
<circle cx="-0.2646" cy="1.2968" fill="#FFBE0E" r="0.05"/>
<circle cx="-2.0706" cy="3.134" fill="#00A0DF" r="0.05"/>
<circle cx="0.1854" cy="-0.2202" fill="#E16200" r="0.05"/>
<circle cx="-2.6027" cy="2.1349" r="0.05"/>
<circle cx="-1.8527" cy="3.434" fill="#00A0DF" r="0.05"/>
<circle cx="-0.3527" cy="0.8359" fill="#E16200" r="0.05"/>
<circle cx="-1.1473" cy="2.4631" fill="#00A0DF" r="0.05"/>
<circle cx="1.7427" cy="0.1741" fill="#0433FF" r="0.05"/>
<circle cx="-0.9294" cy="3.134" fill="#00A0DF" r="0.05"/>
<circle cx="-0.3527" cy="-0.1349" fill="#E16200" r="0.05"/>
<circle cx="1.1473" cy="0.8359" fill="#0433FF" r="0.05"/>
<circle cx="-1.1027" cy="2.1349" fill="#00A0DF" r="0.05"/>
<circle cx="-0.1794" cy="1.4641" fill="#FFBE0E" r="0.05"/>
<circle cx="-0.15" cy="1.6495" fill="#FFBE0E" r="0.05"/>
<circle cx="2.25" cy="-0.3486" fill="#C11A00" r="0.05"/>
<circle cx="-1.5" cy="2.9486" fill="#00A0DF" r="0.05"/>
<circle cx="-1.1473" cy="3.434" fill="#00A0DF" r="0.05"/>
<circle cx="1.5" cy="-0.2495" fill="#0433FF" r="0.05"/>
<circle cx="1.5" cy="0.3505" fill="#0433FF" r="0.05"/>
<circle cx="-1.2354" cy="2.0022" fill="#FFBE0E" r="0.05"/>
<circle cx="-2.0706" cy="2.7631" fill="#00A0DF" r="0.05"/>
<circle cx="-0.4854" cy="0.7032" fill="#E16200" r="0.05"/>
<circle cx="-1.1027" cy="1.1641" fill="#FFBE0E" r="0.05"/>
<circle cx="0.9294" cy="0.5359" fill="#0433FF" r="0.05"/>
<circle cx="1.9854" cy="0.7032" fill="#0433FF" r="0.05"/>
<circle cx="-2.0646" cy="2.2202" fill="#37BB00" r="0.05"/>
<circle cx="-2.25" cy="2.2495" fill="#37BB00" r="0.05"/>
<circle cx="-1.4073" cy="3.2339" fill="#00A0DF" r="0.05"/>
<circle cx="-1.3146" cy="2.3779" fill="#00A0DF" r="0.05"/>
<circle cx="1.6794" cy="-0.7631" fill="#0433FF" r="0.05"/>
<circle cx="-1.65" cy="1.6495" fill="#37BB00" r="0.05"/>
<circle cx="-2.1" cy="2.9486" fill="#00A0DF" r="0.05"/>
<circle cx="-0.6573" cy="1.9348" fill="#FFBE0E" r="0.05"/>
<circle cx="-1.7427" cy="2.7722" fill="#00A0DF" r="0.05"/>
<circle cx="0.0927" cy="0.0652" fill="#E16200" r="0.05"/>
<circle cx="0.3527" cy="-0.1349" fill="#E16200" r="0.05"/>
<circle cx="-0.5073" cy="1.8259" fill="#FFBE0E" r="0.05"/>
<circle cx="-0.5646" cy="2.2202" fill="#FFBE0E" r="0.05"/>
<circle cx="-1.6794" cy="1.4641" fill="#37BB00" r="0.05"/>
<circle cx="1.8527" cy="-0.1349" fill="#0433FF" r="0.05"/>
<circle cx="0.3" cy="0.3505" fill="#E16200" r="0.05"/>
<circle cx="-2.1573" cy="1.3642" fill="#37BB00" r="0.05"/>
<circle cx="2.8206" cy="-0.7631" fill="#C11A00" r="0.05"/>
<circle cx="2.0073" cy="-1.1249" fill="#C11A00" r="0.05"/>
<circle cx="-2.8206" cy="1.8349" r="0.05"/>
<circle cx="2.1573" cy="-1.2339" fill="#C11A00" r="0.05"/>
<circle cx="2.4354" cy="-1.5192" fill="#C11A00" r="0.05"/>
<circle cx="-0.1854" cy="0.9211" fill="#E16200" r="0.05"/>
<circle cx="-0.6" cy="0.3505" fill="#E16200" r="0.05"/>
<circle cx="-0.9927" cy="1.8259" fill="#FFBE0E" r="0.05"/>
<circle cx="2.25" cy="-0.9486" fill="#C11A00" r="0.05"/>
<circle cx="1.6854" cy="0.9211" fill="#0433FF" r="0.05"/>
<circle cx="-2.0646" cy="1.0789" r="0.05"/>
<circle cx="-1.0146" cy="2.5959" fill="#00A0DF" r="0.05"/>
<circle cx="0.5706" cy="0.5359" fill="#E16200" r="0.05"/>
<circle cx="2.1" cy="0.3505" fill="#0433FF" r="0.05"/>
<circle cx="1.2" cy="0.3505" fill="#0433FF" r="0.05"/>
<circle cx="-0.3" cy="0.3505" fill="#E16200" r="0.05"/>
<circle cx="-1.35" cy="1.6495" fill="#37BB00" r="0.05"/>
<circle cx="-1.7646" cy="2.0022" fill="#37BB00" r="0.05"/>
<circle cx="2.0646" cy="-1.5192" fill="#C11A00" r="0.05"/>
<circle cx="-2.4927" cy="1.8259" fill="#37BB00" r="0.05"/>
<circle cx="-1.5" cy="2.3486" fill="#00A0DF" r="0.05"/>
<circle cx="-1.6794" cy="1.8349" fill="#37BB00" r="0.05"/>
<circle cx="-0.9" cy="2.9486" r="0.05"/>
<circle cx="-0.1794" cy="1.8349" fill="#FFBE0E" r="0.05"/>
<circle cx="1.5927" cy="0.6358" fill="#0433FF" r="0.05"/>
<circle cx="-2.7354" cy="2.0022" r="0.05"/>
<circle cx="-0.75" cy="1.0495" fill="#FFBE0E" r="0.05"/>
<circle cx="-0.45" cy="1.6495" fill="#FFBE0E" r="0.05"/>
<circle cx="0.3527" cy="0.8359" fill="#E16200" r="0.05"/>
<circle cx="-1.3206" cy="1.4641" fill="#FFBE0E" r="0.05"/>
<circle cx="0.2427" cy="0.1741" fill="#E16200" r="0.05"/>
<circle cx="0.9" cy="0.3505" fill="#0433FF" r="0.05"/>
<circle cx="-1.5" cy="3.5486" fill="#00A0DF" r="0.05"/>
<circle cx="-1.05" cy="1.6495" fill="#FFBE0E" r="0.05"/>
<circle cx="-0.4854" cy="-0.0022" fill="#E16200" r="0.05"/>
<circle cx="-2.7354" cy="1.2968" fill="#37BB00" r="0.05"/>
<circle cx="1.7427" cy="0.5268" fill="#0433FF" r="0.05"/>
<circle cx="-0.0927" cy="0.0652" fill="#E16200" r="0.05"/>
<circle cx="2.1573" cy="-0.6632" fill="#C11A00" r="0.05"/>
<circle cx="-2.25" cy="1.6495" fill="#37BB00" r="0.05"/>
<circle cx="-1.8973" cy="2.1349" fill="#37BB00" r="0.05"/>
<circle cx="-1.3146" cy="3.5192" fill="#00A0DF" r="0.05"/>
<circle cx="1.3146" cy="-0.2202" fill="#C11A00" r="0.05"/>
<circle cx="1.95" cy="-0.9486" fill="#C11A00" r="0.05"/>
<circle cx="1.6794" cy="-1.134" r="0.05"/>
<circle cx="1.2573" cy="0.5268" fill="#0433FF" r="0.05"/>
<circle cx="1.7646" cy="-1.3012" fill="#C11A00" r="0.05"/>
<circle cx="-2.3427" cy="1.9348" fill="#37BB00" r="0.05"/>
<circle cx="-1.6854" cy="3.5192" fill="#00A0DF" r="0.05"/>
<circle cx="-1.2573" cy="3.1249" fill="#00A0DF" r="0.05"/>
<circle cx="-1.2573" cy="2.7722" fill="#00A0DF" r="0.05"/>
<circle cx="2.7354" cy="-0.5959" fill="#C11A00" r="0.05"/>
<circle cx="2.6027" cy="-1.434" fill="#C11A00" r="0.05"/>
<circle cx="1.0146" cy="0.7032" fill="#0433FF" r="0.05"/>
<circle cx="0" cy="0.3505" fill="#E16200" r="0.05"/>
<circle cx="-0.9354" cy="2.2202" fill="#FFBE0E" r="0.05"/>
<circle cx="-0.3973" cy="1.1641" fill="#E16200" r="0.05"/>
<circle cx="-0.2427" cy="0.5268" fill="#E16200" r="0.05"/>
<circle cx="-0.1854" cy="-0.2202" fill="#E16200" r="0.05"/>
<circle cx="-0.2427" cy="0.1741" fill="#E16200" r="0.05"/>
<circle cx="-1.3206" cy="1.8349" fill="#FFBE0E" r="0.05"/>
<circle cx="0.5706" cy="0.1651" fill="#E16200" r="0.05"/>
<circle cx="2.0073" cy="-0.7722" fill="#C11A00" r="0.05"/>
<circle cx="1.2573" cy="0.1741" fill="#0433FF" r="0.05"/>
<circle cx="-1.8973" cy="1.1641" r="0.05"/>
<circle cx="-2.8206" cy="1.4641" fill="#37BB00" r="0.05"/>
<circle cx="2.6027" cy="-0.4631" fill="#C11A00" r="0.05"/>
<circle cx="1.8" cy="0.3505" fill="#0433FF" r="0.05"/>
<circle cx="-0.5706" cy="0.5359" fill="#E16200" r="0.05"/>
<circle cx="2.0706" cy="0.5359" fill="#0433FF" r="0.05"/>
<circle cx="0" cy="0.9505" fill="#E16200" r="0.05"/>
<circle cx="-2.0073" cy="1.4732" fill="#37BB00" r="0.05"/>
<circle cx="-1.5927" cy="2.6632" fill="#00A0DF" r="0.05"/>
<circle cx="-2.6027" cy="1.1641" fill="#37BB00" r="0.05"/>
<circle cx="-0.2646" cy="2.0022" fill="#FFBE0E" r="0.05"/>
<circle cx="1.6854" cy="-0.2202" fill="#0433FF" r="0.05"/>
</g>
<g fill="#37BB00">
<line stroke="#37BB00" stroke-width="0.01" x1="-2.0224588" x2="-2.007295" y1="1.4621663" y2="1.4731835"/>
<polygon points="-1.9870695 1.4878781 -2.0046816 1.4483205 -2.0301335 1.483352" stroke="black" stroke-width="0.005"/>
<text class="fleet" text-anchor="middle" x="-2.007295" y="1.4856836">
101
</text>
<line stroke="#37BB00" stroke-width="0.01" x1="-1.7794777" x2="-1.7645898" y1="2.0170782" y2="2.00219"/>
<polygon points="-1.7469122 1.9845123 -1.788738 1.9957198 -1.7581192 2.0263383" stroke="black" stroke-width="0.005"/>
<text class="fleet" text-anchor="middle" x="-1.7645898" y="2.0146902">
50
</text>
<line stroke="#37BB00" stroke-width="0.01" x1="-1.9583334" x2="-1.95" y1="1.6495191" y2="1.6495191"/>
<polygon points="-1.9250001 1.6495191 -1.9625001 1.6278684 -1.9625001 1.6711698" stroke="black" stroke-width="0.005"/>
<text class="fleet" text-anchor="middle" x="-1.95" y="1.6620191">
170
</text>
<line stroke="#37BB00" stroke-width="0.01" x1="-1.6532937" x2="-1.65" y1="1.6287236" y2="1.6495191"/>
<polygon points="-1.6460891 1.6742113 -1.6305714 1.633786 -1.6733395 1.64056" stroke="black" stroke-width="0.005"/>
<text class="fleet" text-anchor="middle" x="-1.65" y="1.6620191">
80
</text>
<line stroke="#37BB00" stroke-width="0.01" x1="-2.0224588" x2="-2.007295" y1="1.8368717" y2="1.8258547"/>
<polygon points="-1.9870694 1.8111601 -2.0301335 1.8156861 -2.0046818 1.8507177" stroke="black" stroke-width="0.005"/>
<text class="fleet" text-anchor="middle" x="-2.007295" y="1.8383547">
100
</text>
<line stroke="#37BB00" stroke-width="0.01" x1="-1.3666667" x2="-1.35" y1="1.6495191" y2="1.6495191"/>
<polygon points="-1.325 1.6495191 -1.3625001 1.6278684 -1.3625001 1.6711698" stroke="black" stroke-width="0.005"/>
<text class="fleet" text-anchor="middle" x="-1.35" y="1.6620191">
100
</text>
<line stroke="#37BB00" stroke-width="0.01" x1="-2.3323073" x2="-2.373461" y1="2.2364829" y2="2.2299647"/>
<line stroke="#37BB00" stroke-width="0.01" x1="-2.373461" x2="-2.4354" y1="2.2299647" y2="2.2202"/>
<polygon points="-2.398156 2.2260716 -2.364485 2.2532978 -2.3577418 2.2105248" stroke="black" stroke-width="0.005"/>
<text class="fleet" text-anchor="middle" x="-2.373461" y="2.2424648">
1
</text>
<line stroke="#37BB00" stroke-width="0.01" x1="-1.7510653" x2="-1.7575833" y1="1.3822387" y2="1.3410851"/>
<line stroke="#37BB00" stroke-width="0.01" x1="-1.7575833" x2="-1.7646" y1="1.3410851" y2="1.2968"/>
<polygon points="-1.7614956 1.3163931 -1.7770109 1.3568193 -1.7342432 1.3500428" stroke="black" stroke-width="0.005"/>
<text class="fleet" text-anchor="middle" x="-1.7575833" y="1.3535851">
1
</text>
<line stroke="#37BB00" stroke-width="0.01" x1="-2.1756864" x2="-2.157295" y1="1.3701779" y2="1.3642021"/>
<line stroke="#37BB00" stroke-width="0.01" x1="-2.157295" x2="-1.6794" y1="1.3642021" y2="1.4641"/>
<polygon points="-2.132824 1.3693175 -2.1651006 1.340452 -2.1739604 1.382837" stroke="black" stroke-width="0.005"/>
<text class="fleet" text-anchor="middle" x="-2.157295" y="1.3767022">
100
</text>
</g>
<g fill="#0433FF">
<line stroke="#0433FF" stroke-width="0.01" x1="1.8842831" x2="1.850574" y1="0.07128295" y2="0.095774"/>
<line stroke="#0433FF" stroke-width="0.01" x1="1.850574" x2="1.5" y1="0.095774" y2="0.3505"/>
<polygon points="1.8303491 0.11046935 1.873413 0.1059416 1.8479599 0.07091105" stroke="black" stroke-width="0.005"/>
<text class="fleet" text-anchor="middle" x="1.850574" y="0.108274005">
100
</text>
<line stroke="#0433FF" stroke-width="0.01" x1="1.6785817" x2="1.6793661" y1="-0.76090086" y2="-0.76314694"/>
<polygon points="1.6876086 -0.78674906 1.6548048 -0.7584841 1.6956849 -0.7442076" stroke="black" stroke-width="0.005"/>
<text class="fleet" text-anchor="middle" x="1.6793661" y="-0.75064695">
50
</text>
<line stroke="#0433FF" stroke-width="0.01" x1="1.4948497" x2="1.5" y1="0.36633188" y2="0.35048094"/>
<polygon points="1.5077255 0.32670456 1.4755462 0.35567868 1.5167283 0.3690596" stroke="black" stroke-width="0.005"/>
<text class="fleet" text-anchor="middle" x="1.5" y="0.36298093">
50
</text>
<line stroke="#0433FF" stroke-width="0.01" x1="1.5832696" x2="1.5587785" y1="0.23587021" y2="0.26957926"/>
<line stroke="#0433FF" stroke-width="0.01" x1="1.5587785" x2="1.5" y1="0.26957926" y2="0.3505"/>
<polygon points="1.5440861 0.28980634 1.5836419 0.27218968 1.5486076 0.24674177" stroke="black" stroke-width="0.005"/>
<text class="fleet" text-anchor="middle" x="1.5587785" y="0.28207925">
1
</text>
<line stroke="#0433FF" stroke-width="0.01" x1="1.5437775" x2="1.5309017" y1="0.21574794" y2="0.2553753"/>
<line stroke="#0433FF" stroke-width="0.01" x1="1.5309017" x2="1.5" y1="0.2553753" y2="0.3505"/>
<polygon points="1.5231776 0.27915215 1.5553551 0.25017604 1.5141723 0.23679768" stroke="black" stroke-width="0.005"/>
<text class="fleet" text-anchor="middle" x="1.5309017" y="0.26787528">
50
</text>
<line stroke="#0433FF" stroke-width="0.01" x1="1.4902036" x2="1.5" y1="0.36396456" y2="0.35048094"/>
<polygon points="1.5146946 0.33025548 1.475137 0.3478678 1.5101684 0.37331957" stroke="black" stroke-width="0.005"/>
<text class="fleet" text-anchor="middle" x="1.5" y="0.36298093">
50
</text>
<line stroke="#0433FF" stroke-width="0.01" x1="0.4874154" x2="0.4854102" y1="0.70144635" y2="0.7031521"/>
<polygon points="0.46636808 0.7193508 0.5089598 0.71154374 0.48090282 0.6785618" stroke="black" stroke-width="0.005"/>
<text class="fleet" text-anchor="middle" x="0.4854102" y="0.7156521">
50
</text>
<line stroke="#0433FF" stroke-width="0.01" x1="1.6820288" x2="1.6483197" y1="0.21822926" y2="0.24272032"/>
<line stroke="#0433FF" stroke-width="0.01" x1="1.6483197" x2="1.5" y1="0.24272032" y2="0.3505"/>
<polygon points="1.6280955 0.25741667 1.6711593 0.2528868 1.6457044 0.2178575" stroke="black" stroke-width="0.005"/>
<text class="fleet" text-anchor="middle" x="1.6483197" y="0.25522032">
249
</text>
<line stroke="#0433FF" stroke-width="0.01" x1="1.4833333" x2="1.5" y1="0.35048094" y2="0.35048094"/>
<polygon points="1.525 0.35048094 1.4875 0.3288303 1.4875 0.3721316" stroke="black" stroke-width="0.005"/>
<text class="fleet" text-anchor="middle" x="1.5" y="0.36298093">
23
</text>
<line stroke="#0433FF" stroke-width="0.01" x1="1.2916666" x2="1.25" y1="0.35048094" y2="0.35048094"/>
<line stroke="#0433FF" stroke-width="0.01" x1="1.25" x2="0.9" y1="0.35048094" y2="0.3505"/>
<polygon points="1.225 0.3504823 1.2625012 0.3721309 1.2624989 0.32882962" stroke="black" stroke-width="0.005"/>
<text class="fleet" text-anchor="middle" x="1.25" y="0.36298093">
375
</text>
<line stroke="#0433FF" stroke-width="0.01" x1="0.9916667" x2="0.95" y1="0.35048094" y2="0.35048094"/>
<line stroke="#0433FF" stroke-width="0.01" x1="0.95" x2="0.9" y1="0.35048094" y2="0.3505"/>
<polygon points="0.925 0.35049048 0.96250826 0.37212682 0.96249175 0.32882553" stroke="black" stroke-width="0.005"/>
<text class="fleet" text-anchor="middle" x="0.95" y="0.36298093">
100
</text>
</g>
<g fill="#C11A00">
<line stroke="#C11A00" stroke-width="0.01" x1="2.3452802" x2="2.3324046" y1="-1.2417996" y2="-1.2021723"/>
<line stroke="#C11A00" stroke-width="0.01" x1="2.3324046" x2="2.25" y1="-1.2021723" y2="-0.9486"/>
<polygon points="2.324678 -1.1783962 2.3568585 -1.2073689 2.3156772 -1.2207518" stroke="black" stroke-width="0.005"/>
<text class="fleet" text-anchor="middle" x="2.3324046" y="-1.1896722">
100
</text>
<line stroke="#C11A00" stroke-width="0.01" x1="1.974491" x2="1.9989821" y1="-0.9822662" y2="-1.0159752"/>
<line stroke="#C11A00" stroke-width="0.01" x1="1.9989821" x2="2.1573" y1="-1.0159752" y2="-1.2339"/>
<line stroke="#C11A00" stroke-width="0.01" x1="2.1573" x2="2.25" y1="-1.2339" y2="-0.9486"/>
<polygon points="2.013676 -1.0362012 1.974119 -1.0185875 2.0091515 -0.993137" stroke="black" stroke-width="0.005"/>
<text class="fleet" text-anchor="middle" x="1.9989821" y="-1.0034752">
400
</text>
<line stroke="#C11A00" stroke-width="0.01" x1="1.3176733" x2="1.3145899" y1="-0.21966457" y2="-0.22015296"/>
<polygon points="1.2898977 -0.22406392 1.323549 -0.19681342 1.330323 -0.23958156" stroke="black" stroke-width="0.005"/>
<text class="fleet" text-anchor="middle" x="1.3145899" y="-0.20765296">
100
</text>
<line stroke="#C11A00" stroke-width="0.01" x1="1.6695544" x2="1.6760724" y1="-1.0720181" y2="-1.1131719"/>
<line stroke="#C11A00" stroke-width="0.01" x1="1.6760724" x2="1.6794" y1="-1.1131719" y2="-1.134"/>
<polygon points="1.6800165 -1.1378589 1.6527208 -1.1042442 1.6954798 -1.0974128" stroke="black" stroke-width="0.005"/>
<text class="fleet" text-anchor="middle" x="1.6760724" y="-1.1006719">
1
</text>
<line stroke="#C11A00" stroke-width="0.01" x1="2.3916667" x2="2.35" y1="-0.94855714" y2="-0.94855714"/>
<line stroke="#C11A00" stroke-width="0.01" x1="2.35" x2="2.25" y1="-0.94855714" y2="-0.9486"/>
<polygon points="2.3249998 -0.94856787 2.3624907 -0.92690116 2.3625093 -0.97020245" stroke="black" stroke-width="0.005"/>
<text class="fleet" text-anchor="middle" x="2.35" y="-0.93605715">
100
</text>
<line stroke="#C11A00" stroke-width="0.01" x1="2.2707956" x2="2.25" y1="-0.35185084" y2="-0.34855717"/>
<polygon points="2.2253077 -0.34464636 2.265733 -0.3291285 2.2589593 -0.37189668" stroke="black" stroke-width="0.005"/>
<text class="fleet" text-anchor="middle" x="2.25" y="-0.3360572">
100
</text>
</g>
<g fill="#E16200">
<line stroke="#E16200" stroke-width="0.01" x1="0.03565231" x2="0" y1="0.93889683" y2="0.95048094"/>
<polygon points="-0.02377642 0.95820636 0.01857861 0.9672092 0.0051978077 0.92602724" stroke="black" stroke-width="0.005"/>
<text class="fleet" text-anchor="middle" x="0" y="0.9629809">
100
</text>
<line stroke="#E16200" stroke-width="0.01" x1="-0.01287571" x2="-0.02575142" y1="0.3901083" y2="0.42973566"/>
<line stroke="#E16200" stroke-width="0.01" x1="-0.02575142" x2="-0.0927" y1="0.42973566" y2="0.6358"/>
<line stroke="#E16200" stroke-width="0.01" x1="-0.0927" x2="-0.1854" y1="0.6358" y2="0.9211"/>
<polygon points="-0.033476237 0.45351228 -0.0012978632 0.42453724 -0.042480163 0.41115746" stroke="black" stroke-width="0.005"/>
<text class="fleet" text-anchor="middle" x="-0.02575142" y="0.44223565">
454
</text>
<line stroke="#E16200" stroke-width="0.01" x1="-0.16461472" x2="-0.1854102" y1="0.92440856" y2="0.92111486"/>
<polygon points="-0.21010241 0.91720396 -0.17645101 0.9444544 -0.16967717 0.90168625" stroke="black" stroke-width="0.005"/>
<text class="fleet" text-anchor="middle" x="-0.1854102" y="0.93361485">
100
</text>
<line stroke="#E16200" stroke-width="0.01" x1="-0.39199337" x2="-0.39732885" y1="1.124895" y2="1.1641089"/>
<polygon points="-0.40069932 1.1888807 -0.37419066 1.1546419 -0.41709659 1.1488041" stroke="black" stroke-width="0.005"/>
<text class="fleet" text-anchor="middle" x="-0.39732885" y="1.1766089">
52
</text>
<line stroke="#E16200" stroke-width="0.01" x1="0.49496883" x2="0.4854102" y1="0.01656966" y2="-0.0021902"/>
<polygon points="0.47406048 -0.024465369 0.47179425 0.018776566 0.510376 -0.000881793" stroke="black" stroke-width="0.005"/>
<text class="fleet" text-anchor="middle" x="0.4854102" y="0.0103098005">
1
</text>
<line stroke="#E16200" stroke-width="0.01" x1="-0.36755908" x2="-0.35267115" y1="0.82100326" y2="0.8358911"/>
<polygon points="-0.33499345 0.85356873 -0.34620073 0.81174296 -0.37681928 0.8423617" stroke="black" stroke-width="0.005"/>
<text class="fleet" text-anchor="middle" x="-0.35267115" y="0.8483911">
1
</text>
<line stroke="#E16200" stroke-width="0.01" x1="0.02228563" x2="-0.00220542" y1="0.47752675" y2="0.5112358"/>
<line stroke="#E16200" stroke-width="0.01" x1="-0.00220542" x2="-0.0927" y1="0.5112358" y2="0.6358"/>
<line stroke="#E16200" stroke-width="0.01" x1="-0.0927" x2="-0.1854" y1="0.6358" y2="0.9211"/>
<polygon points="-0.016899345 0.5314617 0.022657719 0.5138481 -0.012374639 0.48839748" stroke="black" stroke-width="0.005"/>
<text class="fleet" text-anchor="middle" x="-0.00220542" y="0.52373576">
100
</text>
<line stroke="#E16200" stroke-width="0.01" x1="-0.21402566" x2="-0.21083906" y1="0.54804707" y2="0.58959174"/>
<line stroke="#E16200" stroke-width="0.01" x1="-0.21083906" x2="-0.1854" y1="0.58959174" y2="0.9211"/>
<polygon points="-0.20892625 0.61451846 -0.1902083 0.5754718 -0.23338264 0.57878494" stroke="black" stroke-width="0.005"/>
<text class="fleet" text-anchor="middle" x="-0.21083906" y="0.6020917">
200
</text>
</g>
<g fill="#00A0DF">
<line stroke="#00A0DF" stroke-width="0.01" x1="-1.4167304" x2="-1.4412215" y1="2.8339465" y2="2.8676555"/>
<line stroke="#00A0DF" stroke-width="0.01" x1="-1.4412215" x2="-1.5" y1="2.8676555" y2="2.9486"/>
<line stroke="#00A0DF" stroke-width="0.01" x1="-1.5" x2="-1.2" y1="2.9486" y2="2.9486"/>
<line stroke="#00A0DF" stroke-width="0.01" x1="-1.2" x2="-1.2573" y1="2.9486" y2="2.7722"/>
<polygon points="-1.455911 2.8878846 -1.4163578 2.8702624 -1.4513956 2.8448195" stroke="black" stroke-width="0.005"/>
<text class="fleet" text-anchor="middle" x="-1.4412215" y="2.8801556">
1
</text>
<line stroke="#00A0DF" stroke-width="0.01" x1="-0.9098118" x2="-0.90329367" y1="3.0105064" y2="2.9693527"/>
<line stroke="#00A0DF" stroke-width="0.01" x1="-0.90329367" x2="-0.9" y1="2.9693527" y2="2.9486"/>
<line stroke="#00A0DF" stroke-width="0.01" x1="-0.9" x2="-0.9294" y1="2.9486" y2="2.7631"/>
<polygon points="-0.8993749 2.9446619 -0.92663604 2.9783044 -0.88387007 2.985092" stroke="black" stroke-width="0.005"/>
<text class="fleet" text-anchor="middle" x="-0.90329367" y="2.9818528">
100
</text>
<line stroke="#00A0DF" stroke-width="0.01" x1="-1.8032283" x2="-1.8" y1="2.9188056" y2="2.9485571"/>
<line stroke="#00A0DF" stroke-width="0.01" x1="-1.8" x2="-1.5" y1="2.9485571" y2="2.9486"/>
<polygon points="-1.775 2.9485607 -1.8124969 2.9269047 -1.8125031 2.970206" stroke="black" stroke-width="0.005"/>
<text class="fleet" text-anchor="middle" x="-1.8" y="2.9610572">
101
</text>
<line stroke="#00A0DF" stroke-width="0.01" x1="-1.3165072" x2="-1.2798086" y1="2.2499003" y2="2.230169"/>
<line stroke="#00A0DF" stroke-width="0.01" x1="-1.2798086" x2="-1.1027" y1="2.230169" y2="2.1349"/>
<polygon points="-1.2577919 2.2183259 -1.3010736 2.2170236 -1.2805606 2.2551577" stroke="black" stroke-width="0.005"/>
<text class="fleet" text-anchor="middle" x="-1.2798086" y="2.242669">
100
</text>
<line stroke="#00A0DF" stroke-width="0.01" x1="-1.7784206" x2="-1.7412953" y1="2.4253144" y2="2.406398"/>
<line stroke="#00A0DF" stroke-width="0.01" x1="-1.7412953" x2="-1.6854" y1="2.406398" y2="2.3779"/>
<polygon points="-1.7190231 2.3950427 -1.7622656 2.3927875 -1.7425973 2.431364" stroke="black" stroke-width="0.005"/>
<text class="fleet" text-anchor="middle" x="-1.7412953" y="2.418898">
199
</text>
<line stroke="#00A0DF" stroke-width="0.01" x1="-1.1307584" x2="-1.1363759" y1="2.3413606" y2="2.3826468"/>
<line stroke="#00A0DF" stroke-width="0.01" x1="-1.1363759" x2="-1.1473" y1="2.3826468" y2="2.4631"/>
<polygon points="-1.1397396 2.4074194 -1.1132402 2.3731735 -1.1561478 2.3673475" stroke="black" stroke-width="0.005"/>
<text class="fleet" text-anchor="middle" x="-1.1363759" y="2.3951468">
1
</text>
<line stroke="#00A0DF" stroke-width="0.01" x1="-1.4755089" x2="-1.4510179" y1="2.914848" y2="2.881139"/>
<line stroke="#00A0DF" stroke-width="0.01" x1="-1.4510179" x2="-1.1473" y1="2.881139" y2="2.4631"/>
<polygon points="-1.4363234 2.8609135 -1.475881 2.878526 -1.4408492 2.9039776" stroke="black" stroke-width="0.005"/>
<text class="fleet" text-anchor="middle" x="-1.4510179" y="2.893639">
1
</text>
</g>
<g fill="#FFBE0E">
<line stroke="#FFBE0E" stroke-width="0.01" x1="-0.9438322" x2="-0.97754127" y1="1.4376752" y2="1.4621663"/>
<line stroke="#FFBE0E" stroke-width="0.01" x1="-0.97754127" x2="-0.9927" y1="1.4621663" y2="1.4732"/>
<line stroke="#FFBE0E" stroke-width="0.01" x1="-0.9927" x2="-1.3206" y1="1.4732" y2="1.4641"/>
<polygon points="-0.99775386 1.4768785 -0.9546938 1.4723148 -0.98017615 1.4373056" stroke="black" stroke-width="0.005"/>
<text class="fleet" text-anchor="middle" x="-0.97754127" y="1.4746664">
75
</text>
<line stroke="#FFBE0E" stroke-width="0.01" x1="-0.5034567" x2="-0.53291947" y1="2.15902" y2="2.1884825"/>
<line stroke="#FFBE0E" stroke-width="0.01" x1="-0.53291947" x2="-0.5646" y1="2.1884825" y2="2.2202"/>
<line stroke="#FFBE0E" stroke-width="0.01" x1="-0.5646" x2="-0.9354" y1="2.2202" y2="2.2202"/>
<polygon points="-0.5505868 2.2061706 -0.50876755 2.194939 -0.53940403 2.164338" stroke="black" stroke-width="0.005"/>
<text class="fleet" text-anchor="middle" x="-0.53291947" y="2.2009826">
50
</text>
<line stroke="#FFBE0E" stroke-width="0.01" x1="-0.53463185" x2="-0.5286402" y1="2.013985" y2="1.9727513"/>
<line stroke="#FFBE0E" stroke-width="0.01" x1="-0.5286402" x2="-0.5073" y1="1.9727513" y2="1.8259"/>
<line stroke="#FFBE0E" stroke-width="0.01" x1="-0.5073" x2="-0.45" y1="1.8259" y2="1.6495"/>
<line stroke="#FFBE0E" stroke-width="0.01" x1="-0.45" x2="-0.2646" y1="1.6495" y2="1.2968"/>
<polygon points="-0.52504504 1.9480112 -0.5518634 1.9820077 -0.5090122 1.9882349" stroke="black" stroke-width="0.005"/>
<text class="fleet" text-anchor="middle" x="-0.5286402" y="1.9852513">
1
</text>
<line stroke="#FFBE0E" stroke-width="0.01" x1="-0.54437554" x2="-0.5645898" y1="1.0557067" y2="1.0788852"/>
<polygon points="-0.5810216 1.0977266 -0.5400568 1.0836949 -0.57269096 1.0552342" stroke="black" stroke-width="0.005"/>
<text class="fleet" text-anchor="middle" x="-0.5645898" y="1.0913852">
49
</text>
<line stroke="#FFBE0E" stroke-width="0.01" x1="-1.0800186" x2="-1.05" y1="1.6289535" y2="1.6495191"/>
<line stroke="#FFBE0E" stroke-width="0.01" x1="-1.05" x2="-1.2354" y1="1.6495191" y2="2.0022"/>
<polygon points="-1.0616328 1.6716478 -1.0250195 1.648529 -1.0633476 1.6283804" stroke="black" stroke-width="0.005"/>
<text class="fleet" text-anchor="middle" x="-1.05" y="1.6620191">
51
</text>
<line stroke="#FFBE0E" stroke-width="0.01" x1="-0.56716496" x2="-0.5645898" y1="1.0868106" y2="1.0788852"/>
<polygon points="-0.55686426 1.0551088 -0.5890435 1.0840828 -0.54786164 1.0974638" stroke="black" stroke-width="0.005"/>
<text class="fleet" text-anchor="middle" x="-0.5645898" y="1.0913852">
1
</text>
<line stroke="#FFBE0E" stroke-width="0.01" x1="-1.3232193" x2="-1.3206339" y1="1.8334738" y2="1.8349292"/>
<polygon points="-1.2988486 1.847193 -1.3209058 1.8099307 -1.3421472 1.847664" stroke="black" stroke-width="0.005"/>
<text class="fleet" text-anchor="middle" x="-1.3206339" y="1.8474293">
50
</text>
<line stroke="#FFBE0E" stroke-width="0.01" x1="-0.2713316" x2="-0.2645898" y1="1.3017461" y2="1.2968479"/>
<polygon points="-0.24436432 1.2821534 -0.2874284 1.2866795 -0.26197666 1.321711" stroke="black" stroke-width="0.005"/>
<text class="fleet" text-anchor="middle" x="-0.2645898" y="1.309348">
1
</text>
<line stroke="#FFBE0E" stroke-width="0.01" x1="-0.91461474" x2="-0.9354102" y1="2.2234466" y2="2.2201529"/>
<line stroke="#FFBE0E" stroke-width="0.01" x1="-0.9354102" x2="-0.9927" y1="2.2201529" y2="1.8259"/>
<polygon points="-0.93900526 2.1954126 -0.9550383 2.2356362 -0.91218704 2.2294095" stroke="black" stroke-width="0.005"/>
<text class="fleet" text-anchor="middle" x="-0.9354102" y="2.232653">
1
</text>
</g>
<g class="star">
<text text-anchor="middle" x="-1.4073" y="2.5881999">
Neshmet
</text>
<text text-anchor="middle" x="-0.3973" y="2.0599">
Merak
</text>
<text text-anchor="middle" x="-2.4927" y="1.3981999">
Propus
</text>
<text text-anchor="middle" x="2.4927" y="-0.8472">
Villeneuve
</text>
<text text-anchor="middle" x="1.5927" y="-0.009800002">
Alya
</text>
<text text-anchor="middle" x="1.7646" y="-0.6709">
Adam Driver
</text>
<text text-anchor="middle" x="2.7354" y="-1.3762001">
Latifi
</text>
<text text-anchor="middle" x="-0.9294" y="2.6880999">
Diphda
</text>
<text text-anchor="middle" x="1.9854" y="-0.0772">
Aludra
</text>
<text text-anchor="middle" x="2.55" y="-1.0236">
Hamilton
</text>
<text text-anchor="middle" x="0.9294" y="0.09009999">
Dheneb
</text>
<text text-anchor="middle" x="0.2427" y="0.4518">
Tegmen
</text>
<text text-anchor="middle" x="-2.4354" y="1.0038999">
AlGiedi
</text>
<text text-anchor="middle" x="-1.8527" y="2.3881">
Tejat
</text>
<text text-anchor="middle" x="2.8206" y="-1.209">
Tsunoda
</text>
<text text-anchor="middle" x="2.3427" y="-1.3089">
Petty
</text>
<text text-anchor="middle" x="-0.75" y="1.5745">
Hassaleh
</text>
<text text-anchor="middle" x="-2.0073" y="1.7508999">
Sham
</text>
<text text-anchor="middle" x="-0.8427" y="1.2892">
Rub
</text>
<text text-anchor="middle" x="2.4927" y="-1.1999">
Stewart
</text>
<text text-anchor="middle" x="1.5" y="0.8755">
Kit
</text>
<text text-anchor="middle" x="-0.5073" y="1.3981999">
Murzim
</text>
<text text-anchor="middle" x="1.1473" y="-0.2099">
Merope
</text>
<text text-anchor="middle" x="-2.85" y="1.5745">
Azimech
</text>
<text text-anchor="middle" x="1.0146" y="-0.0772">
Eltanin
</text>
<text text-anchor="middle" x="0.6" y="0.2755">
Alzir
</text>
<text text-anchor="middle" x="-1.5927" y="3.1589">
Mekbuda
</text>
<text text-anchor="middle" x="-0.6573" y="1.2892">
Menkib
</text>
<text text-anchor="middle" x="-0.5646" y="1.0038999">
Regulus
</text>
<text text-anchor="middle" x="-1.7427" y="3.0499">
Caph
</text>
<text text-anchor="middle" x="1.3146" y="0.84610003">
Mimosa
</text>
<text text-anchor="middle" x="-1.6854" y="2.3028998">
Alcor
</text>
<text text-anchor="middle" x="2.25" y="-1.6236">
De Vries
</text>
<text text-anchor="middle" x="1.65" y="-1.0236">
Earnhardt Jr Jr
</text>
<text text-anchor="middle" x="-1.95" y="1.5745">
Ksora
</text>
<text text-anchor="middle" x="-1.9854" y="2.5209">
Arc
</text>
<text text-anchor="middle" x="2.4354" y="-0.4529">
Mansell
</text>
<text text-anchor="middle" x="1.8973" y="-0.5381">
Vettel
</text>
<text text-anchor="middle" x="-1.8" y="2.8736">
Rukbat
</text>
<text text-anchor="middle" x="-1.0146" y="3.2261999">
Ick
</text>
<text text-anchor="middle" x="2.0706" y="0.09009999">
Sadira
</text>
<text text-anchor="middle" x="-1.2354" y="1.2218">
Dschubba
</text>
<text text-anchor="middle" x="1.8973" y="-1.5090001">
Ocon
</text>
<text text-anchor="middle" x="-1.7646" y="1.2218">
Alkalurops
</text>
<text text-anchor="middle" x="1.4073" y="0.5608">
Decrux
</text>
<text text-anchor="middle" x="-2.3427" y="1.2892">
Schedir
</text>
<text text-anchor="middle" x="-1.2" y="2.8736">
Mintaka
</text>
<text text-anchor="middle" x="-2.25" y="0.9745">
Chi
</text>
<text text-anchor="middle" x="-1.9854" y="3.2261999">
SteropeII
</text>
<text text-anchor="middle" x="2.0646" y="-0.4529">
Leclerc
</text>
<text text-anchor="middle" x="2.3427" y="-0.7382">
Gordon
</text>
<text text-anchor="middle" x="-0.0927" y="0.5608">
Wow
</text>
<text text-anchor="middle" x="-2.4354" y="2.1452">
Spy
</text>
<text text-anchor="middle" x="0.4854" y="-0.0772">
Paw
</text>
<text text-anchor="middle" x="2.85" y="-1.0236">
Prost
</text>
<text text-anchor="middle" x="-0.9927" y="1.3981999">
Altais
</text>
<text text-anchor="middle" x="0.0927" y="0.5608">
Brachium
</text>
<text text-anchor="middle" x="1.4073" y="-0.009800002">
Mebsuta
</text>
<text text-anchor="middle" x="-2.55" y="1.5745">
Dabih
</text>
<text text-anchor="middle" x="-0.75" y="2.1745">
Arkab
</text>
<text text-anchor="middle" x="-0.5706" y="0.09009999">
Elm
</text>
<text text-anchor="middle" x="1.8527" y="0.7609">
Alwaid
</text>
<text text-anchor="middle" x="0.4854" y="0.6282">
Regor
</text>
<text text-anchor="middle" x="-2.1573" y="1.8598">
Algieba
</text>
<text text-anchor="middle" x="-0.8427" y="1.8598">
Marfark
</text>
<text text-anchor="middle" x="0.1854" y="0.84610003">
Pleione
</text>
<text text-anchor="middle" x="0" y="-0.32450002">
Kaf
</text>
<text text-anchor="middle" x="-0.9354" y="1.0038999">
Mac
</text>
<text text-anchor="middle" x="-0.2646" y="1.2218">
Lanx
</text>
<text text-anchor="middle" x="-2.0706" y="3.059">
Albali
</text>
<text text-anchor="middle" x="0.1854" y="-0.2952">
Arneb
</text>
<text text-anchor="middle" x="-2.6027" y="2.0599">
Mizar
</text>
<text text-anchor="middle" x="-1.8527" y="3.359">
Minkar
</text>
<text text-anchor="middle" x="-0.3527" y="0.7609">
Polaris
</text>
<text text-anchor="middle" x="-1.1473" y="2.3881">
Yed
</text>
<text text-anchor="middle" x="1.7427" y="0.09909999">
Vindemiatrix
</text>
<text text-anchor="middle" x="-0.9294" y="3.059">
Bam
</text>
<text text-anchor="middle" x="-0.3527" y="-0.2099">
Alkes
</text>
<text text-anchor="middle" x="1.1473" y="0.7609">
Rukh
</text>
<text text-anchor="middle" x="-1.1027" y="2.0599">
Cox
</text>
<text text-anchor="middle" x="-0.1794" y="1.3891">
Alfecca
</text>
<text text-anchor="middle" x="-0.15" y="1.5745">
Alpheratz
</text>
<text text-anchor="middle" x="2.25" y="-0.42360002">
Toliman
</text>
<text text-anchor="middle" x="-1.5" y="2.8736">
Almach
</text>
<text text-anchor="middle" x="-1.1473" y="3.359">
Sheliak
</text>
<text text-anchor="middle" x="1.5" y="-0.32450002">
Theemin
</text>
<text text-anchor="middle" x="1.5" y="0.2755">
Acamar
</text>
<text text-anchor="middle" x="-1.2354" y="1.9271998">
Cheleb
</text>
<text text-anchor="middle" x="-2.0706" y="2.6880999">
Kaus
</text>
<text text-anchor="middle" x="-0.4854" y="0.6282">
Misam
</text>
<text text-anchor="middle" x="-1.1027" y="1.0891">
Pure Pax
</text>
<text text-anchor="middle" x="0.9294" y="0.4609">
Salm
</text>
<text text-anchor="middle" x="1.9854" y="0.6282">
Fin
</text>
<text text-anchor="middle" x="-2.0646" y="2.1452">
Tab
</text>
<text text-anchor="middle" x="-2.25" y="2.1745">
Garnet
</text>
<text text-anchor="middle" x="-1.4073" y="3.1589">
Haldus
</text>
<text text-anchor="middle" x="-1.3146" y="2.3028998">
Proxima
</text>
<text text-anchor="middle" x="1.6794" y="-0.8381">
Danica Patrick
</text>
<text text-anchor="middle" x="-1.65" y="1.5745">
Biham
</text>
<text text-anchor="middle" x="-2.1" y="2.8736">
Pug
</text>
<text text-anchor="middle" x="-0.6573" y="1.8598">
Imp
</text>
<text text-anchor="middle" x="-1.7427" y="2.6972">
Mud
</text>
<text text-anchor="middle" x="0.0927" y="-0.009800002">
Kleeia
</text>
<text text-anchor="middle" x="0.3527" y="-0.2099">
Avior
</text>
<text text-anchor="middle" x="-0.5073" y="1.7508999">
Zit
</text>
<text text-anchor="middle" x="-0.5646" y="2.1452">
TienKuan
</text>
<text text-anchor="middle" x="-1.6794" y="1.3891">
Errai
</text>
<text text-anchor="middle" x="1.8527" y="-0.2099">
Andretti
</text>
<text text-anchor="middle" x="0.3" y="0.2755">
Ruchbah
</text>
<text text-anchor="middle" x="-2.1573" y="1.2892">
Sky
</text>
<text text-anchor="middle" x="2.8206" y="-0.8381">
Jolyon
</text>
<text text-anchor="middle" x="2.0073" y="-1.1999">
Sainz
</text>
<text text-anchor="middle" x="-2.8206" y="1.7599">
Sabik
</text>
<text text-anchor="middle" x="2.1573" y="-1.3089">
Verstappen
</text>
<text text-anchor="middle" x="2.4354" y="-1.5942">
Johnson
</text>
<text text-anchor="middle" x="-0.1854" y="0.84610003">
TseenKee
</text>
<text text-anchor="middle" x="-0.6" y="0.2755">
Ale
</text>
<text text-anchor="middle" x="-0.9927" y="1.7508999">
Asp
</text>
<text text-anchor="middle" x="2.25" y="-1.0236">
Alonso
</text>
<text text-anchor="middle" x="1.6854" y="0.84610003">
Keid
</text>
<text text-anchor="middle" x="-2.0646" y="1.0038999">
Rotanev
</text>
<text text-anchor="middle" x="-1.0146" y="2.5209">
Yay
</text>
<text text-anchor="middle" x="0.5706" y="0.4609">
Maasym
</text>
<text text-anchor="middle" x="2.1" y="0.2755">
Alamak
</text>
<text text-anchor="middle" x="1.2" y="0.2755">
Alcyone
</text>
<text text-anchor="middle" x="-0.3" y="0.2755">
Koi
</text>
<text text-anchor="middle" x="-1.35" y="1.5745">
Sadalmelik
</text>
<text text-anchor="middle" x="-1.7646" y="1.9271998">
Syrma
</text>
<text text-anchor="middle" x="2.0646" y="-1.5942">
Norris
</text>
<text text-anchor="middle" x="-2.4927" y="1.7508999">
Tic
</text>
<text text-anchor="middle" x="-1.5" y="2.2735999">
Aldhanab
</text>
<text text-anchor="middle" x="-1.6794" y="1.7599">
Wasat
</text>
<text text-anchor="middle" x="-0.9" y="2.8736">
Sun
</text>
<text text-anchor="middle" x="-0.1794" y="1.7599">
Sulafat
</text>
<text text-anchor="middle" x="1.5927" y="0.5608">
Alphecca
</text>
<text text-anchor="middle" x="-2.7354" y="1.9271998">
Marfik
</text>
<text text-anchor="middle" x="-0.75" y="0.9745">
Menkent
</text>
<text text-anchor="middle" x="-0.45" y="1.5745">
Alnasl
</text>
<text text-anchor="middle" x="0.3527" y="0.7609">
Sadr
</text>
<text text-anchor="middle" x="-1.3206" y="1.3891">
Mirzam
</text>
<text text-anchor="middle" x="0.2427" y="0.09909999">
Alioth
</text>
<text text-anchor="middle" x="0.9" y="0.2755">
Ras
</text>
<text text-anchor="middle" x="-1.5" y="3.4736">
Alniyat
</text>
<text text-anchor="middle" x="-1.05" y="1.5745">
Sasin
</text>
<text text-anchor="middle" x="-0.4854" y="-0.0772">
Pherkad
</text>
<text text-anchor="middle" x="-2.7354" y="1.2218">
Tag
</text>
<text text-anchor="middle" x="1.7427" y="0.4518">
Kajam
</text>
<text text-anchor="middle" x="-0.0927" y="-0.009800002">
Naos
</text>
<text text-anchor="middle" x="2.1573" y="-0.7382">
Senna
</text>
<text text-anchor="middle" x="-2.25" y="1.5745">
Castor
</text>
<text text-anchor="middle" x="-1.8973" y="2.0599">
Asellus
</text>
<text text-anchor="middle" x="-1.3146" y="3.4442">
Media
</text>
<text text-anchor="middle" x="1.3146" y="-0.2952">
Grosjean
</text>
<text text-anchor="middle" x="1.95" y="-1.0236">
Labonte
</text>
<text text-anchor="middle" x="1.6794" y="-1.209">
Izar
</text>
<text text-anchor="middle" x="1.2573" y="0.4518">
Aladfar
</text>
<text text-anchor="middle" x="1.7646" y="-1.3762001">
Earnhardt
</text>
<text text-anchor="middle" x="-2.3427" y="1.8598">
Askella
</text>
<text text-anchor="middle" x="-1.6854" y="3.4442">
Dnoces
</text>
<text text-anchor="middle" x="-1.2573" y="3.0499">
Mira
</text>
<text text-anchor="middle" x="-1.2573" y="2.6972">
Talitha
</text>
<text text-anchor="middle" x="2.7354" y="-0.6709">
Perez
</text>
<text text-anchor="middle" x="2.6027" y="-1.5090001">
Tony Hawk
</text>
<text text-anchor="middle" x="1.0146" y="0.6282">
Sargas
</text>
<text text-anchor="middle" x="0" y="0.2755">
Arided
</text>
<text text-anchor="middle" x="-0.9354" y="2.1452">
Gatria
</text>
<text text-anchor="middle" x="-0.3973" y="1.0891">
Dux
</text>
<text text-anchor="middle" x="-0.2427" y="0.4518">
Menkalinan
</text>
<text text-anchor="middle" x="-0.1854" y="-0.2952">
Praecipua
</text>
<text text-anchor="middle" x="-0.2427" y="0.09909999">
Etamin
</text>
<text text-anchor="middle" x="-1.3206" y="1.7599">
Becrux
</text>
<text text-anchor="middle" x="0.5706" y="0.09009999">
Markab
</text>
<text text-anchor="middle" x="2.0073" y="-0.8472">
Schumacher
</text>
<text text-anchor="middle" x="1.2573" y="0.09909999">
Elnath
</text>
<text text-anchor="middle" x="-1.8973" y="1.0891">
Segin
</text>
<text text-anchor="middle" x="-2.8206" y="1.3891">
Zoo
</text>
<text text-anchor="middle" x="2.6027" y="-0.5381">
Ricciardo
</text>
<text text-anchor="middle" x="1.8" y="0.2755">
Enif
</text>
<text text-anchor="middle" x="-0.5706" y="0.4609">
Pax
</text>
<text text-anchor="middle" x="2.0706" y="0.4609">
Adhara
</text>
<text text-anchor="middle" x="0" y="0.8755">
Korn
</text>
<text text-anchor="middle" x="-2.0073" y="1.3981999">
Denebola
</text>
<text text-anchor="middle" x="-1.5927" y="2.5881999">
Menchib
</text>
<text text-anchor="middle" x="-2.6027" y="1.0891">
Sarin
</text>
<text text-anchor="middle" x="-0.2646" y="1.9271998">
Wazn
</text>
<text text-anchor="middle" x="1.6854" y="-0.2952">
Jaw
</text>
</g>
</svg>