<svg viewBox="-3.4199998 -2.05832 6.84 6.11664" xmlns="http://www.w3.org/2000/svg">
<style>
.star { font: 0.05px sans-serif; fill: red; }
.fleet { font: 0.03px sans-serif; fill: white; }
</style>
<g fill="none" stroke="black" stroke-width="0.01">
<circle cx="2.25" cy="-0.3486" fill="#C11A00" r="0.05"/>
<circle cx="-1.0146" cy="2.5959" fill="#00A0DF" r="0.05"/>
<circle cx="-1.6854" cy="2.3779" fill="#00A0DF" r="0.05"/>
<circle cx="0.5706" cy="0.5359" fill="#C11A00" r="0.05"/>
<circle cx="-2.4927" cy="1.4732" fill="#37BB00" r="0.05"/>
<circle cx="-1.5" cy="3.5486" fill="#00A0DF" r="0.05"/>
<circle cx="-1.8" cy="2.9486" fill="#00A0DF" r="0.05"/>
<circle cx="-2.0073" cy="1.4732" fill="#37BB00" r="0.05"/>
<circle cx="-0.6" cy="0.3505" fill="#0433FF" r="0.05"/>
<circle cx="1.1473" cy="-0.1349" fill="#0433FF" r="0.05"/>
<circle cx="-0.5706" cy="0.1651" fill="#0433FF" r="0.05"/>
<circle cx="2.25" cy="-0.9486" fill="#C11A00" r="0.05"/>
<circle cx="-2.0646" cy="2.2202" fill="#37BB00" r="0.05"/>
<circle cx="-0.75" cy="2.2495" fill="#FFBE0E" r="0.05"/>
<circle cx="0.2427" cy="0.5268" fill="#0433FF" r="0.05"/>
<circle cx="-0.3527" cy="0.8359" fill="#FFBE0E" r="0.05"/>
<circle cx="-1.2" cy="2.9486" fill="#00A0DF" r="0.05"/>
<circle cx="-1.2354" cy="1.2968" fill="#FFBE0E" r="0.05"/>
<circle cx="0.3527" cy="0.8359" fill="#C11A00" r="0.05"/>
<circle cx="-1.8527" cy="2.4631" fill="#00A0DF" r="0.05"/>
<circle cx="0.9" cy="0.3505" fill="#0433FF" r="0.05"/>
<circle cx="-0.0927" cy="0.0652" fill="#C11A00" r="0.05"/>
<circle cx="-2.1573" cy="1.3642" fill="#37BB00" r="0.05"/>
<circle cx="-1.2354" cy="2.0022" fill="#FFBE0E" r="0.05"/>
<circle cx="-2.8206" cy="1.4641" fill="#37BB00" r="0.05"/>
<circle cx="2.6027" cy="-1.434" fill="#C11A00" r="0.05"/>
<circle cx="-0.5073" cy="1.8259" fill="#FFBE0E" r="0.05"/>
<circle cx="1.6854" cy="-0.2202" fill="#0433FF" r="0.05"/>
<circle cx="1.3146" cy="0.9211" fill="#0433FF" r="0.05"/>
<circle cx="-0.3527" cy="-0.1349" fill="#C11A00" r="0.05"/>
<circle cx="-1.8527" cy="3.434" fill="#00A0DF" r="0.05"/>
<circle cx="-1.65" cy="1.6495" fill="#37BB00" r="0.05"/>
<circle cx="1.9854" cy="0.7032" fill="#0433FF" r="0.05"/>
<circle cx="2.1573" cy="-0.6632" fill="#C11A00" r="0.05"/>
<circle cx="2.25" cy="-1.5486" fill="#C11A00" r="0.05"/>
<circle cx="-0.6573" cy="1.3642" fill="#FFBE0E" r="0.05"/>
<circle cx="1.7646" cy="-0.5959" fill="#C11A00" r="0.05"/>
<circle cx="-1.35" cy="1.6495" fill="#37BB00" r="0.05"/>
<circle cx="-1.7427" cy="2.7722" fill="#00A0DF" r="0.05"/>
<circle cx="1.9854" cy="-0.0022" fill="#0433FF" r="0.05"/>
<circle cx="-0.9294" cy="2.7631" fill="#00A0DF" r="0.05"/>
<circle cx="1.8973" cy="-1.434" fill="#C11A00" r="0.05"/>
<circle cx="-0.3973" cy="2.1349" fill="#FFBE0E" r="0.05"/>
<circle cx="-2.6027" cy="2.1349" fill="#37BB00" r="0.05"/>
<circle cx="2.8206" cy="-1.134" fill="#C11A00" r="0.05"/>
<circle cx="0.4854" cy="-0.0022" fill="#C11A00" r="0.05"/>
<circle cx="-1.8973" cy="2.1349" fill="#37BB00" r="0.05"/>
<circle cx="-1.7646" cy="1.2968" fill="#37BB00" r="0.05"/>
<circle cx="1.5" cy="0.3505" fill="#0433FF" r="0.05"/>
<circle cx="-2.25" cy="1.0495" fill="#37BB00" r="0.05"/>
<circle cx="-0.9354" cy="1.0789" fill="#FFBE0E" r="0.05"/>
<circle cx="2.6027" cy="-0.4631" fill="#C11A00" r="0.05"/>
<circle cx="2.4927" cy="-1.1249" fill="#C11A00" r="0.05"/>
<circle cx="0.3527" cy="-0.1349" fill="#C11A00" r="0.05"/>
<circle cx="0.0927" cy="0.6358" fill="#0433FF" r="0.05"/>
<circle cx="-1.2573" cy="2.7722" fill="#00A0DF" r="0.05"/>
<circle cx="-0.1794" cy="1.8349" fill="#FFBE0E" r="0.05"/>
<circle cx="1.8973" cy="-0.4631" fill="#C11A00" r="0.05"/>
<circle cx="2.4354" cy="-0.3779" fill="#C11A00" r="0.05"/>
<circle cx="-0.9927" cy="1.4732" fill="#FFBE0E" r="0.05"/>
<circle cx="-2.25" cy="2.2495" fill="#37BB00" r="0.05"/>
<circle cx="-0.9927" cy="1.8259" fill="#FFBE0E" r="0.05"/>
<circle cx="0.1854" cy="-0.2202" fill="#C11A00" r="0.05"/>
<circle cx="-0.5646" cy="2.2202" fill="#FFBE0E" r="0.05"/>
<circle cx="-1.7427" cy="3.1249" fill="#00A0DF" r="0.05"/>
<circle cx="-0.9354" cy="2.2202" fill="#FFBE0E" r="0.05"/>
<circle cx="-0.2646" cy="1.2968" fill="#FFBE0E" r="0.05"/>
<circle cx="-1.6794" cy="1.4641" fill="#37BB00" r="0.05"/>
<circle cx="-0.5646" cy="1.0789" fill="#FFBE0E" r="0.05"/>
<circle cx="-2.3427" cy="1.3642" fill="#37BB00" r="0.05"/>
<circle cx="0" cy="0.9505" fill="#C11A00" r="0.05"/>
<circle cx="-0.4854" cy="0.7032" fill="#37BB00" r="0.05"/>
<circle cx="-2.0706" cy="3.134" fill="#00A0DF" r="0.05"/>
<circle cx="-2.3427" cy="1.9348" fill="#37BB00" r="0.05"/>
<circle cx="1.3146" cy="-0.2202" fill="#C11A00" r="0.05"/>
<circle cx="-0.1854" cy="-0.2202" fill="#C11A00" r="0.05"/>
<circle cx="1.8527" cy="-0.1349" fill="#0433FF" r="0.05"/>
<circle cx="-1.5" cy="2.3486" fill="#00A0DF" r="0.05"/>
<circle cx="1.7427" cy="0.5268" fill="#0433FF" r="0.05"/>
<circle cx="-2.7354" cy="2.0022" fill="#37BB00" r="0.05"/>
<circle cx="0.2427" cy="0.1741" fill="#C11A00" r="0.05"/>
<circle cx="-0.4854" cy="-0.0022" fill="#C11A00" r="0.05"/>
<circle cx="-2.0646" cy="1.0789" fill="#37BB00" r="0.05"/>
<circle cx="1.2" cy="0.3505" fill="#0433FF" r="0.05"/>
<circle cx="-0.0927" cy="0.6358" fill="#0433FF" r="0.05"/>
<circle cx="-1.1473" cy="3.434" fill="#00A0DF" r="0.05"/>
<circle cx="-1.9854" cy="2.5959" fill="#00A0DF" r="0.05"/>
<circle cx="-1.7646" cy="2.0022" fill="#37BB00" r="0.05"/>
<circle cx="-0.3" cy="0.3505" fill="#C11A00" r="0.05"/>
<circle cx="-1.6794" cy="1.8349" fill="#37BB00" r="0.05"/>
<circle cx="1.5" cy="-0.2495" fill="#0433FF" r="0.05"/>
<circle cx="2.0073" cy="-0.7722" fill="#C11A00" r="0.05"/>
<circle cx="-0.1854" cy="0.9211" fill="#FFBE0E" r="0.05"/>
<circle cx="2.4354" cy="-1.5192" fill="#C11A00" r="0.05"/>
<circle cx="-0.2427" cy="0.1741" fill="#C11A00" r="0.05"/>
<circle cx="0.0927" cy="0.0652" fill="#C11A00" r="0.05"/>
<circle cx="-2.25" cy="1.6495" fill="#37BB00" r="0.05"/>
<circle cx="-0.9" cy="2.9486" fill="#00A0DF" r="0.05"/>
<circle cx="2.8206" cy="-0.7631" fill="#C11A00" r="0.05"/>
<circle cx="2.0706" cy="0.5359" fill="#0433FF" r="0.05"/>
<circle cx="1.1473" cy="0.8359" fill="#0433FF" r="0.05"/>
<circle cx="-0.8427" cy="1.3642" fill="#FFBE0E" r="0.05"/>
<circle cx="-1.3146" cy="3.5192" fill="#00A0DF" r="0.05"/>
<circle cx="-1.1027" cy="1.1641" fill="#37BB00" r="0.05"/>
<circle cx="2.4927" cy="-0.7722" fill="#C11A00" r="0.05"/>
<circle cx="-1.3206" cy="1.8349" fill="#FFBE0E" r="0.05"/>
<circle cx="-1.4073" cy="2.6632" fill="#00A0DF" r="0.05"/>
<circle cx="1.0146" cy="-0.0022" fill="#0433FF" r="0.05"/>
<circle cx="0" cy="-0.2495" fill="#C11A00" r="0.05"/>
<circle cx="-2.6027" cy="1.1641" fill="#37BB00" r="0.05"/>
<circle cx="-1.8973" cy="1.1641" fill="#37BB00" r="0.05"/>
<circle cx="1.2573" cy="0.1741" fill="#0433FF" r="0.05"/>
<circle cx="1.6794" cy="-0.7631" fill="#0433FF" r="0.05"/>
<circle cx="2.0706" cy="0.1651" fill="#0433FF" r="0.05"/>
<circle cx="-2.4927" cy="1.8259" fill="#37BB00" r="0.05"/>
<circle cx="-2.8206" cy="1.8349" fill="#37BB00" r="0.05"/>
<circle cx="-2.1573" cy="1.9348" fill="#37BB00" r="0.05"/>
<circle cx="-1.6854" cy="3.5192" fill="#00A0DF" r="0.05"/>
<circle cx="-0.5073" cy="1.4732" fill="#FFBE0E" r="0.05"/>
<circle cx="1.8" cy="0.3505" fill="#0433FF" r="0.05"/>
<circle cx="-1.1473" cy="2.4631" fill="#00A0DF" r="0.05"/>
<circle cx="-1.0146" cy="3.3012" fill="#00A0DF" r="0.05"/>
<circle cx="-2.0706" cy="2.7631" fill="#00A0DF" r="0.05"/>
<circle cx="-1.9854" cy="3.3012" fill="#00A0DF" r="0.05"/>
<circle cx="-1.5927" cy="2.6632" fill="#00A0DF" r="0.05"/>
<circle cx="2.55" cy="-0.9486" fill="#C11A00" r="0.05"/>
<circle cx="0.1854" cy="0.9211" fill="#C11A00" r="0.05"/>
<circle cx="1.5927" cy="0.0652" fill="#0433FF" r="0.05"/>
<circle cx="1.2573" cy="0.5268" fill="#0433FF" r="0.05"/>
<circle cx="2.7354" cy="-1.3012" fill="#C11A00" r="0.05"/>
<circle cx="1.7427" cy="0.1741" fill="#0433FF" r="0.05"/>
<circle cx="2.3427" cy="-0.6632" fill="#C11A00" r="0.05"/>
<circle cx="1.4073" cy="0.6358" fill="#0433FF" r="0.05"/>
<circle cx="1.95" cy="-0.9486" fill="#C11A00" r="0.05"/>
<circle cx="0" cy="0.3505" fill="#0433FF" r="0.05"/>
<circle cx="1.6854" cy="0.9211" fill="#0433FF" r="0.05"/>
<circle cx="2.0073" cy="-1.1249" fill="#C11A00" r="0.05"/>
<circle cx="0.9294" cy="0.1651" fill="#C11A00" r="0.05"/>
<circle cx="-1.4073" cy="3.2339" fill="#00A0DF" r="0.05"/>
<circle cx="-2.85" cy="1.6495" fill="#37BB00" r="0.05"/>
<circle cx="-2.4354" cy="1.0789" fill="#37BB00" r="0.05"/>
<circle cx="-2.1" cy="2.9486" fill="#00A0DF" r="0.05"/>
<circle cx="-2.0073" cy="1.8259" fill="#37BB00" r="0.05"/>
<circle cx="1.5927" cy="0.6358" fill="#0433FF" r="0.05"/>
<circle cx="1.4073" cy="0.0652" fill="#0433FF" r="0.05"/>
<circle cx="-0.5706" cy="0.5359" fill="#0433FF" r="0.05"/>
<circle cx="0.4854" cy="0.7032" fill="#C11A00" r="0.05"/>
<circle cx="1.5" cy="0.9505" fill="#0433FF" r="0.05"/>
<circle cx="2.85" cy="-0.9486" fill="#C11A00" r="0.05"/>
<circle cx="-0.6573" cy="1.9348" fill="#FFBE0E" r="0.05"/>
<circle cx="-1.05" cy="1.6495" fill="#FFBE0E" r="0.05"/>
<circle cx="-2.4354" cy="2.2202" fill="#37BB00" r="0.05"/>
<circle cx="-0.2646" cy="2.0022" fill="#FFBE0E" r="0.05"/>
<circle cx="-0.9294" cy="3.134" fill="#00A0DF" r="0.05"/>
<circle cx="1.0146" cy="0.7032" fill="#0433FF" r="0.05"/>
<circle cx="2.0646" cy="-0.3779" fill="#C11A00" r="0.05"/>
<circle cx="0.3" cy="0.3505" fill="#0433FF" r="0.05"/>
<circle cx="-1.5927" cy="3.2339" fill="#00A0DF" r="0.05"/>
<circle cx="-1.5" cy="2.9486" fill="#00A0DF" r="0.05"/>
<circle cx="2.3427" cy="-1.2339" fill="#C11A00" r="0.05"/>
<circle cx="2.0646" cy="-1.5192" fill="#C11A00" r="0.05"/>
<circle cx="1.7646" cy="-1.3012" fill="#0433FF" r="0.05"/>
<circle cx="-0.3973" cy="1.1641" fill="#FFBE0E" r="0.05"/>
<circle cx="0.9294" cy="0.5359" fill="#0433FF" r="0.05"/>
<circle cx="-0.1794" cy="1.4641" fill="#FFBE0E" r="0.05"/>
<circle cx="-0.75" cy="1.6495" fill="#FFBE0E" r="0.05"/>
<circle cx="2.1" cy="0.3505" fill="#0433FF" r="0.05"/>
<circle cx="2.7354" cy="-0.5959" fill="#C11A00" r="0.05"/>
<circle cx="-0.8427" cy="1.9348" fill="#FFBE0E" r="0.05"/>
<circle cx="-0.45" cy="1.6495" fill="#FFBE0E" r="0.05"/>
<circle cx="-1.1027" cy="2.1349" fill="#00A0DF" r="0.05"/>
<circle cx="-0.2427" cy="0.5268" fill="#0433FF" r="0.05"/>
<circle cx="2.1573" cy="-1.2339" fill="#C11A00" r="0.05"/>
<circle cx="-1.3146" cy="2.3779" fill="#00A0DF" r="0.05"/>
<circle cx="0.5706" cy="0.1651" fill="#C11A00" r="0.05"/>
<circle cx="0.6" cy="0.3505" fill="#0433FF" r="0.05"/>
<circle cx="-2.55" cy="1.6495" fill="#37BB00" r="0.05"/>
<circle cx="-0.75" cy="1.0495" fill="#37BB00" r="0.05"/>
<circle cx="-0.15" cy="1.6495" fill="#FFBE0E" r="0.05"/>
<circle cx="1.6794" cy="-1.134" fill="#C11A00" r="0.05"/>
<circle cx="1.65" cy="-0.9486" fill="#C11A00" r="0.05"/>
<circle cx="-1.3206" cy="1.4641" fill="#FFBE0E" r="0.05"/>
<circle cx="-1.2573" cy="3.1249" fill="#00A0DF" r="0.05"/>
<circle cx="1.8527" cy="0.8359" fill="#0433FF" r="0.05"/>
<circle cx="-2.7354" cy="1.2968" fill="#37BB00" r="0.05"/>
<circle cx="-1.95" cy="1.6495" fill="#37BB00" r="0.05"/>
</g>
<g fill="#37BB00">
<line stroke="#37BB00" stroke-width="0.01" x1="-2.342705" x2="-2.3298295" y1="1.3642021" y2="1.4038295"/>
<line stroke="#37BB00" stroke-width="0.01" x1="-2.3298295" x2="-2.25" y1="1.4038295" y2="1.6495"/>
<polygon points="-2.3221035 1.4276057 -2.3131015 1.3852504 -2.3542833 1.3986323" stroke="black" stroke-width="0.005"/>
<text class="fleet" text-anchor="middle" x="-2.3298295" y="1.4163295">
16
</text>
<line stroke="#37BB00" stroke-width="0.01" x1="-2.820634" x2="-2.7862604" y1="1.4641088" y2="1.487658"/>
<line stroke="#37BB00" stroke-width="0.01" x1="-2.7862604" x2="-2.55" y1="1.487658" y2="1.6495"/>
<polygon points="-2.7656355 1.5017865 -2.7843373 1.4627321 -2.8088083 1.4984555" stroke="black" stroke-width="0.005"/>
<text class="fleet" text-anchor="middle" x="-2.7862604" y="1.5001581">
9
</text>
<line stroke="#37BB00" stroke-width="0.01" x1="-0.49706414" x2="-0.4854102" y1="0.7184079" y2="0.7031521"/>
<polygon points="-0.47023404 0.6832855 -0.5102033 0.6999425 -0.47579327 0.7262284" stroke="black" stroke-width="0.005"/>
<text class="fleet" text-anchor="middle" x="-0.4854102" y="0.7156521">
1
</text>
<line stroke="#37BB00" stroke-width="0.01" x1="-1.1249022" x2="-1.1026711" y1="1.1756736" y2="1.1641089"/>
<polygon points="-1.0804926 1.1525714 -1.1237521 1.1506704 -1.1037687 1.1890848" stroke="black" stroke-width="0.005"/>
<text class="fleet" text-anchor="middle" x="-1.1026711" y="1.1766089">
1
</text>
<line stroke="#37BB00" stroke-width="0.01" x1="-1.695217" x2="-1.6793661" y1="1.4692591" y2="1.4641088"/>
<polygon points="-1.6555897 1.4563833 -1.6979448 1.4473807 -1.6845639 1.4885626" stroke="black" stroke-width="0.005"/>
<text class="fleet" text-anchor="middle" x="-1.6793661" y="1.4766089">
1
</text>
<line stroke="#37BB00" stroke-width="0.01" x1="-0.7858743" x2="-0.81925917" y1="0.927532" y2="0.9524631"/>
<line stroke="#37BB00" stroke-width="0.01" x1="-0.81925917" x2="-1.1027" y1="0.9524631" y2="1.1641"/>
<polygon points="-0.83929116 0.9674204 -0.7962898 0.96233267 -0.8221966 0.92763627" stroke="black" stroke-width="0.005"/>
<text class="fleet" text-anchor="middle" x="-0.81925917" y="0.9649631">
1
</text>
<line stroke="#37BB00" stroke-width="0.01" x1="-1.0839113" x2="-1.1026711" y1="1.1545502" y2="1.1641089"/>
<polygon points="-1.1249462 1.1754587 -1.0817044 1.1777248 -1.1013628 1.1391431" stroke="black" stroke-width="0.005"/>
<text class="fleet" text-anchor="middle" x="-1.1026711" y="1.1766089">
671
</text>
</g>
<g fill="#FFBE0E">
<line stroke="#FFBE0E" stroke-width="0.01" x1="-0.6214374" x2="-0.64592844" y1="1.8854823" y2="1.9191914"/>
<line stroke="#FFBE0E" stroke-width="0.01" x1="-0.64592844" x2="-0.6573" y1="1.9191914" y2="1.9348"/>
<line stroke="#FFBE0E" stroke-width="0.01" x1="-0.6573" x2="-0.5073" y1="1.9348" y2="1.8259"/>
<line stroke="#FFBE0E" stroke-width="0.01" x1="-0.5073" x2="-0.45" y1="1.8259" y2="1.6495"/>
<polygon points="-0.6606495 1.9393976 -0.62106884 1.9218371 -0.656067 1.8963394" stroke="black" stroke-width="0.005"/>
<text class="fleet" text-anchor="middle" x="-0.64592844" y="1.9316914">
64
</text>
<line stroke="#FFBE0E" stroke-width="0.01" x1="-0.35800663" x2="-0.35267115" y1="0.875105" y2="0.8358911"/>
<polygon points="-0.34930068 0.8111194 -0.37580934 0.84535813 -0.33290341 0.85119593" stroke="black" stroke-width="0.005"/>
<text class="fleet" text-anchor="middle" x="-0.35267115" y="0.8483911">
124
</text>
<line stroke="#FFBE0E" stroke-width="0.01" x1="-0.8979231" x2="-0.9354102" y1="2.2201529" y2="2.2201529"/>
<polygon points="-0.9604102 2.2201529 -0.9229102 2.2418034 -0.9229102 2.1985023" stroke="black" stroke-width="0.005"/>
<text class="fleet" text-anchor="middle" x="-0.9354102" y="2.232653">
1
</text>
<line stroke="#FFBE0E" stroke-width="0.01" x1="-1.0313323" x2="-1.0442079" y1="1.7069726" y2="1.6673452"/>
<line stroke="#FFBE0E" stroke-width="0.01" x1="-1.0442079" x2="-1.05" y1="1.6673452" y2="1.6495"/>
<line stroke="#FFBE0E" stroke-width="0.01" x1="-1.05" x2="-0.9927" y1="1.6495" y2="1.4732"/>
<line stroke="#FFBE0E" stroke-width="0.01" x1="-0.9927" x2="-0.9927" y1="1.4732" y2="1.8259"/>
<polygon points="-1.0519259 1.6435664 -1.060942 1.6859186 -1.0197558 1.6725507" stroke="black" stroke-width="0.005"/>
<text class="fleet" text-anchor="middle" x="-1.0442079" y="1.6798452">
101
</text>
<line stroke="#FFBE0E" stroke-width="0.01" x1="-1.2245029" x2="-1.2354102" y1="1.9814433" y2="2.00219"/>
<polygon points="-1.2470437 2.0243185 -1.2104298 2.001201 -1.2487571 1.981051" stroke="black" stroke-width="0.005"/>
<text class="fleet" text-anchor="middle" x="-1.2354102" y="2.0146902">
1
</text>
<line stroke="#FFBE0E" stroke-width="0.01" x1="-0.3771146" x2="-0.39732885" y1="1.1409304" y2="1.1641089"/>
<line stroke="#FFBE0E" stroke-width="0.01" x1="-0.39732885" x2="-0.3527" y1="1.1641089" y2="0.8359"/>
<polygon points="-0.39396042 1.1393368 -0.42046627 1.1735778 -0.37755984 1.179412" stroke="black" stroke-width="0.005"/>
<text class="fleet" text-anchor="middle" x="-0.39732885" y="1.1766089">
50
</text>
<line stroke="#FFBE0E" stroke-width="0.01" x1="-0.74062824" x2="-0.7822949" y1="1.3642021" y2="1.3642021"/>
<line stroke="#FFBE0E" stroke-width="0.01" x1="-0.7822949" x2="-0.8427" y1="1.3642021" y2="1.3642"/>
<line stroke="#FFBE0E" stroke-width="0.01" x1="-0.8427" x2="-0.6573" y1="1.3642" y2="1.3642"/>
<line stroke="#FFBE0E" stroke-width="0.01" x1="-0.6573" x2="-0.5073" y1="1.3642" y2="1.4732"/>
<line stroke="#FFBE0E" stroke-width="0.01" x1="-0.5073" x2="-0.6573" y1="1.4732" y2="1.3642"/>
<polygon points="-0.8072949 1.3642013 -0.7697957 1.3858532 -0.76979417 1.342552" stroke="black" stroke-width="0.005"/>
<text class="fleet" text-anchor="middle" x="-0.7822949" y="1.3767022">
1
</text>
<line stroke="#FFBE0E" stroke-width="0.01" x1="-1.0995877" x2="-1.1026711" y1="1.1636205" y2="1.1641089"/>
<polygon points="-1.1273633 1.1680199 -1.086938 1.1835374 -1.0937122 1.1407692" stroke="black" stroke-width="0.005"/>
<text class="fleet" text-anchor="middle" x="-1.1026711" y="1.1766089">
1
</text>
<line stroke="#FFBE0E" stroke-width="0.01" x1="-0.9859633" x2="-0.9927051" y1="1.4780817" y2="1.4731835"/>
<polygon points="-1.0129306 1.458489 -0.99531823 1.4980465 -0.9698665 1.4630151" stroke="black" stroke-width="0.005"/>
<text class="fleet" text-anchor="middle" x="-0.9927051" y="1.4856836">
1
</text>
<line stroke="#FFBE0E" stroke-width="0.01" x1="-0.20417006" x2="-0.1854102" y1="0.91155624" y2="0.92111486"/>
<polygon points="-0.16313504 0.9324646 -0.18671861 0.8961491 -0.20637695 0.9347308" stroke="black" stroke-width="0.005"/>
<text class="fleet" text-anchor="middle" x="-0.1854102" y="0.93361485">
1
</text>
<line stroke="#FFBE0E" stroke-width="0.01" x1="-0.5056642" x2="-0.47620147" y1="2.1612275" y2="2.1317647"/>
<line stroke="#FFBE0E" stroke-width="0.01" x1="-0.47620147" x2="-0.1794" y1="2.1317647" y2="1.8349"/>
<line stroke="#FFBE0E" stroke-width="0.01" x1="-0.1794" x2="-0.2646" y1="1.8349" y2="2.0022"/>
<line stroke="#FFBE0E" stroke-width="0.01" x1="-0.2646" x2="-0.3973" y1="2.0022" y2="2.1349"/>
<line stroke="#FFBE0E" stroke-width="0.01" x1="-0.3973" x2="-0.5646" y1="2.1349" y2="2.2202"/>
<polygon points="-0.4585257 2.1140852 -0.5003503 2.1252968 -0.46972844 2.1559122" stroke="black" stroke-width="0.005"/>
<text class="fleet" text-anchor="middle" x="-0.47620147" y="2.1442647">
1
</text>
<line stroke="#FFBE0E" stroke-width="0.01" x1="-1.2906153" x2="-1.3206339" y1="1.4846745" y2="1.4641088"/>
<polygon points="-1.341258 1.4499793 -1.3225584 1.4890347 -1.2980852 1.4533125" stroke="black" stroke-width="0.005"/>
<text class="fleet" text-anchor="middle" x="-1.3206339" y="1.4766089">
26
</text>
<line stroke="#FFBE0E" stroke-width="0.01" x1="-0.7583333" x2="-0.75" y1="1.6495191" y2="1.6495191"/>
<polygon points="-0.725 1.6495191 -0.7625 1.6278684 -0.7625 1.6711698" stroke="black" stroke-width="0.005"/>
<text class="fleet" text-anchor="middle" x="-0.75" y="1.6620191">
374
</text>
</g>
<g fill="#00A0DF">
<line stroke="#00A0DF" stroke-width="0.01" x1="-1.6666666" x2="-1.7083334" y1="2.9485571" y2="2.9485571"/>
<line stroke="#00A0DF" stroke-width="0.01" x1="-1.7083334" x2="-1.8" y1="2.9485571" y2="2.9486"/>
<polygon points="-1.7333333 2.9485688 -1.6958232 2.970202 -1.6958435 2.9269006" stroke="black" stroke-width="0.005"/>
<text class="fleet" text-anchor="middle" x="-1.7083334" y="2.9610572">
1
</text>
<line stroke="#00A0DF" stroke-width="0.01" x1="-1.6601232" x2="-1.6938323" y1="3.184892" y2="3.1604009"/>
<line stroke="#00A0DF" stroke-width="0.01" x1="-1.6938323" x2="-1.7427" y1="3.1604009" y2="3.1249"/>
<polygon points="-1.7140584 3.1457071 -1.6964443 3.185264 -1.6709942 3.1502314" stroke="black" stroke-width="0.005"/>
<text class="fleet" text-anchor="middle" x="-1.6938323" y="3.172901">
16
</text>
<line stroke="#00A0DF" stroke-width="0.01" x1="-1.4932582" x2="-1.5" y1="2.943659" y2="2.9485571"/>
<polygon points="-1.5202255 2.9632516 -1.4771614 2.9587257 -1.502613 2.9236941" stroke="black" stroke-width="0.005"/>
<text class="fleet" text-anchor="middle" x="-1.5" y="2.9610572">
1
</text>
<line stroke="#00A0DF" stroke-width="0.01" x1="-1.5154508" x2="-1.5025752" y1="2.9010043" y2="2.9406316"/>
<line stroke="#00A0DF" stroke-width="0.01" x1="-1.5025752" x2="-1.5" y1="2.9406316" y2="2.9486"/>
<polygon points="-1.4948874 2.9644203 -1.4858176 2.9220796 -1.5270206 2.9353952" stroke="black" stroke-width="0.005"/>
<text class="fleet" text-anchor="middle" x="-1.5025752" y="2.9531317">
14
</text>
<line stroke="#00A0DF" stroke-width="0.01" x1="-0.5015028" x2="-0.5072949" y1="1.4910096" y2="1.4731835"/>
<polygon points="-0.5150204 1.4494071 -0.5240231 1.4917622 -0.4828412 1.4783813" stroke="black" stroke-width="0.005"/>
<text class="fleet" text-anchor="middle" x="-0.5072949" y="1.4856836">
759
</text>
<line stroke="#00A0DF" stroke-width="0.01" x1="-1.1783519" x2="-1.1575389" y1="2.266183" y2="2.2300868"/>
<line stroke="#00A0DF" stroke-width="0.01" x1="-1.1575389" x2="-1.1027" y1="2.2300868" y2="2.1349"/>
<polygon points="-1.1450589 2.2084246 -1.1825389 2.23011 -1.1450189 2.251726" stroke="black" stroke-width="0.005"/>
<text class="fleet" text-anchor="middle" x="-1.1575389" y="2.2425869">
486
</text>
</g>
<g fill="#0433FF">
<line stroke="#0433FF" stroke-width="0.01" x1="0.6" x2="0.725" y1="0.35048094" y2="0.35048094"/>
<line stroke="#0433FF" stroke-width="0.01" x1="0.725" x2="1.2" y1="0.35048094" y2="0.3505"/>
<polygon points="0.75 0.35048196 0.7125009 0.32882982 0.71249914 0.37213108" stroke="black" stroke-width="0.005"/>
<text class="fleet" text-anchor="middle" x="0.725" y="0.36298093">
1
</text>
<line stroke="#0433FF" stroke-width="0.01" x1="1.291004" x2="1.324713" y1="0.55130756" y2="0.57579863"/>
<line stroke="#0433FF" stroke-width="0.01" x1="1.324713" x2="1.4073" y1="0.57579863" y2="0.6358"/>
<polygon points="1.3449386 0.590493 1.3273259 0.55093557 1.3018745 0.58596736" stroke="black" stroke-width="0.005"/>
<text class="fleet" text-anchor="middle" x="1.324713" y="0.5882986">
13
</text>
<line stroke="#0433FF" stroke-width="0.01" x1="1.5927051" x2="1.5798293" y1="0.06516399" y2="0.10479135"/>
<line stroke="#0433FF" stroke-width="0.01" x1="1.5798293" x2="1.5" y1="0.10479135" y2="0.3505"/>
<polygon points="1.5721045 0.12856793 1.6042829 0.09959299 1.5631006 0.08621312" stroke="black" stroke-width="0.005"/>
<text class="fleet" text-anchor="middle" x="1.5798293" y="0.11729135">
61
</text>
<line stroke="#0433FF" stroke-width="0.01" x1="-0.16854522" x2="-0.20225425" y1="0.4729362" y2="0.49742725"/>
<line stroke="#0433FF" stroke-width="0.01" x1="-0.20225425" x2="-0.2427" y1="0.49742725" y2="0.5268"/>
<polygon points="-0.22248273 0.5121177 -0.17941773 0.5076004 -0.20486231 0.47256365" stroke="black" stroke-width="0.005"/>
<text class="fleet" text-anchor="middle" x="-0.20225425" y="0.5099273">
300
</text>
<line stroke="#0433FF" stroke-width="0.01" x1="-0.07396157" x2="-0.0927051" y1="0.6357979" y2="0.6357979"/>
<polygon points="-0.1177051 0.6357979 -0.0802051 0.65744853 -0.080205105 0.6141473" stroke="black" stroke-width="0.005"/>
<text class="fleet" text-anchor="middle" x="-0.0927051" y="0.6482979">
97
</text>
<line stroke="#0433FF" stroke-width="0.01" x1="0.6" x2="0.475" y1="0.35048094" y2="0.35048094"/>
<line stroke="#0433FF" stroke-width="0.01" x1="0.475" x2="0" y1="0.35048094" y2="0.3505"/>
<polygon points="0.45 0.35048196 0.48750088 0.37213108 0.48749912 0.3288298" stroke="black" stroke-width="0.005"/>
<text class="fleet" text-anchor="middle" x="0.475" y="0.36298093">
159
</text>
<line stroke="#0433FF" stroke-width="0.01" x1="-0.4913792" x2="-0.45175186" y1="0.5101397" y2="0.49726403"/>
<line stroke="#0433FF" stroke-width="0.01" x1="-0.45175186" x2="0" y1="0.49726403" y2="0.3505"/>
<polygon points="-0.42797515 0.4895395 -0.47032985 0.48053506 -0.45695058 0.52171755" stroke="black" stroke-width="0.005"/>
<text class="fleet" text-anchor="middle" x="-0.45175186" y="0.509764">
1
</text>
<line stroke="#0433FF" stroke-width="0.01" x1="1.2" x2="1.325" y1="0.35048094" y2="0.35048094"/>
<line stroke="#0433FF" stroke-width="0.01" x1="1.325" x2="1.5" y1="0.35048094" y2="0.3505"/>
<polygon points="1.35 0.35048366 1.3125024 0.32882896 1.3124977 0.37213022" stroke="black" stroke-width="0.005"/>
<text class="fleet" text-anchor="middle" x="1.325" y="0.36298093">
3
</text>
</g>
<g fill="#E16200"/>
<g fill="#C11A00">
<line stroke="#C11A00" stroke-width="0.01" x1="-0.22567858" x2="-0.2427051" y1="0.50338155" y2="0.52681655"/>
<polygon points="-0.25739974 0.54704195 -0.21784206 0.52942973 -0.25287354 0.5039779" stroke="black" stroke-width="0.005"/>
<text class="fleet" text-anchor="middle" x="-0.2427051" y="0.53931653">
99
</text>
<line stroke="#C11A00" stroke-width="0.01" x1="1.4127704" x2="1.3807868" y1="-0.30213007" y2="-0.275425"/>
<line stroke="#C11A00" stroke-width="0.01" x1="1.3807868" x2="1.3146" y1="-0.275425" y2="-0.2202"/>
<line stroke="#C11A00" stroke-width="0.01" x1="1.3146" x2="1.7646" y1="-0.2202" y2="-0.5959"/>
<polygon points="1.3615911 -0.2594085 1.4042553 -0.2668093 1.376514 -0.30005714" stroke="black" stroke-width="0.005"/>
<text class="fleet" text-anchor="middle" x="1.3807868" y="-0.262925">
216
</text>
<line stroke="#C11A00" stroke-width="0.01" x1="1.9735858" x2="1.9398768" y1="-0.74773055" y2="-0.7232395"/>
<line stroke="#C11A00" stroke-width="0.01" x1="1.9398768" x2="1.7646" y1="-0.7232395" y2="-0.5959"/>
<line stroke="#C11A00" stroke-width="0.01" x1="1.7646" x2="2.0073" y1="-0.5959" y2="-0.7722"/>
<polygon points="1.919651 -0.7085453 1.9627151 -0.7130705 1.9372642 -0.7481026" stroke="black" stroke-width="0.005"/>
<text class="fleet" text-anchor="middle" x="1.9398768" y="-0.7107395">
126
</text>
<line stroke="#C11A00" stroke-width="0.01" x1="2.0477457" x2="2.007295" y1="-0.8016108" y2="-0.77222157"/>
<line stroke="#C11A00" stroke-width="0.01" x1="2.007295" x2="2.25" y1="-0.77222157" y2="-0.9486"/>
<line stroke="#C11A00" stroke-width="0.01" x1="2.25" x2="2.0073" y1="-0.9486" y2="-0.7722"/>
<polygon points="2.0275185 -0.7869185 1.9844551 -0.7823873 2.009911 -0.7473588" stroke="black" stroke-width="0.005"/>
<text class="fleet" text-anchor="middle" x="2.007295" y="-0.7597216">
1
</text>
<line stroke="#C11A00" stroke-width="0.01" x1="1.6664093" x2="1.6983927" y1="-0.5139089" y2="-0.540614"/>
<line stroke="#C11A00" stroke-width="0.01" x1="1.6983927" x2="1.7646" y1="-0.540614" y2="-0.5959"/>
<line stroke="#C11A00" stroke-width="0.01" x1="1.7646" x2="1.3146" y1="-0.5959" y2="-0.2202"/>
<polygon points="1.7175821 -0.556638 1.6749209 -0.5492205 1.7026752 -0.5159835" stroke="black" stroke-width="0.005"/>
<text class="fleet" text-anchor="middle" x="1.6983927" y="-0.528114">
1
</text>
<line stroke="#C11A00" stroke-width="0.01" x1="0.1359009" x2="0.17552826" y1="0.20884816" y2="0.19597244"/>
<line stroke="#C11A00" stroke-width="0.01" x1="0.17552826" x2="0.2427" y1="0.19597244" y2="0.1741"/>
<line stroke="#C11A00" stroke-width="0.01" x1="0.2427" x2="0.0927" y1="0.1741" y2="0.0652"/>
<line stroke="#C11A00" stroke-width="0.01" x1="0.0927" x2="-0.0927" y1="0.0652" y2="0.0652"/>
<line stroke="#C11A00" stroke-width="0.01" x1="-0.0927" x2="-0.2427" y1="0.0652" y2="0.1741"/>
<polygon points="0.19929978 0.18823196 0.15693904 0.17925595 0.17034595 0.22042942" stroke="black" stroke-width="0.005"/>
<text class="fleet" text-anchor="middle" x="0.17552826" y="0.20847245">
1
</text>
<line stroke="#C11A00" stroke-width="0.01" x1="0.37079945" x2="0.4045085" y1="0.6810794" y2="0.6565883"/>
<line stroke="#C11A00" stroke-width="0.01" x1="0.4045085" x2="0.5706" y1="0.6565883" y2="0.5359"/>
<line stroke="#C11A00" stroke-width="0.01" x1="0.5706" x2="0.4854" y1="0.5359" y2="0.7032"/>
<polygon points="0.424733 0.64189243 0.38166922 0.6464213 0.40712327 0.6814512" stroke="black" stroke-width="0.005"/>
<text class="fleet" text-anchor="middle" x="0.4045085" y="0.6690883">
1
</text>
<line stroke="#C11A00" stroke-width="0.01" x1="0.00674181" x2="0" y1="0.34558275" y2="0.35048094"/>
<polygon points="-0.020225454 0.36517555 0.022838619 0.3606494 -0.0026131694 0.32561788" stroke="black" stroke-width="0.005"/>
<text class="fleet" text-anchor="middle" x="0" y="0.36298093">
250
</text>
<line stroke="#C11A00" stroke-width="0.01" x1="-0.4788921" x2="-0.472374" y1="0.03896348" y2="0.08011716"/>
<line stroke="#C11A00" stroke-width="0.01" x1="-0.472374" x2="-0.3527" y1="0.08011716" y2="0.8359"/>
<polygon points="-0.4684641 0.10480952 -0.45294473 0.06438491 -0.49571314 0.07115705" stroke="black" stroke-width="0.005"/>
<text class="fleet" text-anchor="middle" x="-0.472374" y="0.09261716">
150
</text>
<line stroke="#C11A00" stroke-width="0.01" x1="0.6752033" x2="0.6388944" y1="0.30814672" y2="0.32858613"/>
<line stroke="#C11A00" stroke-width="0.01" x1="0.6388944" x2="0.6" y1="0.32858613" y2="0.3505"/>
<polygon points="0.61711353 0.3408579 0.66041243 0.341313 0.6391571 0.30358753" stroke="black" stroke-width="0.005"/>
<text class="fleet" text-anchor="middle" x="0.6388944" y="0.34108612">
215
</text>
<line stroke="#C11A00" stroke-width="0.01" x1="-0.07396157" x2="-0.0927051" y1="0.6357979" y2="0.6357979"/>
<polygon points="-0.1177051 0.6357979 -0.0802051 0.65744853 -0.080205105 0.6141473" stroke="black" stroke-width="0.005"/>
<text class="fleet" text-anchor="middle" x="-0.0927051" y="0.6482979">
56
</text>
<line stroke="#C11A00" stroke-width="0.01" x1="0.37460244" x2="0.36808434" y1="0.6974224" y2="0.73857605"/>
<line stroke="#C11A00" stroke-width="0.01" x1="0.36808434" x2="0.3527" y1="0.73857605" y2="0.8359"/>
<polygon points="0.36418098 0.7632694 0.39142114 0.7296098 0.34865093 0.72284895" stroke="black" stroke-width="0.005"/>
<text class="fleet" text-anchor="middle" x="0.36808434" y="0.75107604">
100
</text>
<line stroke="#C11A00" stroke-width="0.01" x1="1.6725345" x2="1.6596588" y1="-0.18052562" y2="-0.14089824"/>
<line stroke="#C11A00" stroke-width="0.01" x1="1.6596588" x2="1.5" y1="-0.14089824" y2="0.3505"/>
<line stroke="#C11A00" stroke-width="0.01" x1="1.5" x2="1.2" y1="0.3505" y2="0.3505"/>
<line stroke="#C11A00" stroke-width="0.01" x1="1.2" x2="0.6" y1="0.3505" y2="0.3505"/>
<line stroke="#C11A00" stroke-width="0.01" x1="0.6" x2="0" y1="0.3505" y2="0.3505"/>
<polygon points="1.6519337 -0.11712174 1.6841124 -0.14609632 1.6429303 -0.15947667" stroke="black" stroke-width="0.005"/>
<text class="fleet" text-anchor="middle" x="1.6596588" y="-0.12839824">
93
</text>
<line stroke="#C11A00" stroke-width="0.01" x1="1.481974" x2="1.4948497" y1="0.29500264" y2="0.33463"/>
<line stroke="#C11A00" stroke-width="0.01" x1="1.4948497" x2="1.5" y1="0.33463" y2="0.3505"/>
<line stroke="#C11A00" stroke-width="0.01" x1="1.5" x2="1.2" y1="0.3505" y2="0.3505"/>
<polygon points="1.5025668 0.35840914 1.5115844 0.31605726 1.4703978 0.32942367" stroke="black" stroke-width="0.005"/>
<text class="fleet" text-anchor="middle" x="1.4948497" y="0.34713">
261
</text>
<line stroke="#C11A00" stroke-width="0.01" x1="1.1699814" x2="1.2" y1="0.32991531" y2="0.35048094"/>
<polygon points="1.2206242 0.36461046 1.2019244 0.32555512 1.1774515 0.36127725" stroke="black" stroke-width="0.005"/>
<text class="fleet" text-anchor="middle" x="1.2" y="0.36298093">
1
</text>
</g>
<g class="star">
<text text-anchor="middle" x="2.25" y="-0.42360002">
Jerry
</text>
<text text-anchor="middle" x="-1.0146" y="2.5209">
Yay
</text>
<text text-anchor="middle" x="-1.6854" y="2.3028998">
Alcor
</text>
<text text-anchor="middle" x="0.5706" y="0.4609">
Clarkson
</text>
<text text-anchor="middle" x="-2.4927" y="1.3981999">
Propus
</text>
<text text-anchor="middle" x="-1.5" y="3.4736">
Alniyat
</text>
<text text-anchor="middle" x="-1.8" y="2.8736">
Rukbat
</text>
<text text-anchor="middle" x="-2.0073" y="1.3981999">
Denebola
</text>
<text text-anchor="middle" x="-0.6" y="0.2755">
Ale
</text>
<text text-anchor="middle" x="1.1473" y="-0.2099">
Merope
</text>
<text text-anchor="middle" x="-0.5706" y="0.09009999">
Elm
</text>
<text text-anchor="middle" x="2.25" y="-1.0236">
Alonso
</text>
<text text-anchor="middle" x="-2.0646" y="2.1452">
Tab
</text>
<text text-anchor="middle" x="-0.75" y="2.1745">
Arkab
</text>
<text text-anchor="middle" x="0.2427" y="0.4518">
Tegmen
</text>
<text text-anchor="middle" x="-0.3527" y="0.7609">
Polaris
</text>
<text text-anchor="middle" x="-1.2" y="2.8736">
Mintaka
</text>
<text text-anchor="middle" x="-1.2354" y="1.2218">
Dschubba
</text>
<text text-anchor="middle" x="0.3527" y="0.7609">
May
</text>
<text text-anchor="middle" x="-1.8527" y="2.3881">
Tejat
</text>
<text text-anchor="middle" x="0.9" y="0.2755">
Ras
</text>
<text text-anchor="middle" x="-0.0927" y="-0.009800002">
Shaw
</text>
<text text-anchor="middle" x="-2.1573" y="1.2892">
Sky
</text>
<text text-anchor="middle" x="-1.2354" y="1.9271998">
Cheleb
</text>
<text text-anchor="middle" x="-2.8206" y="1.3891">
Zoo
</text>
<text text-anchor="middle" x="2.6027" y="-1.5090001">
Toretto
</text>
<text text-anchor="middle" x="-0.5073" y="1.7508999">
Zit
</text>
<text text-anchor="middle" x="1.6854" y="-0.2952">
Jaw
</text>
<text text-anchor="middle" x="1.3146" y="0.84610003">
Mimosa
</text>
<text text-anchor="middle" x="-0.3527" y="-0.2099">
Racer X
</text>
<text text-anchor="middle" x="-1.8527" y="3.359">
Minkar
</text>
<text text-anchor="middle" x="-1.65" y="1.5745">
Biham
</text>
<text text-anchor="middle" x="1.9854" y="0.6282">
Fin
</text>
<text text-anchor="middle" x="2.1573" y="-0.7382">
Senna
</text>
<text text-anchor="middle" x="2.25" y="-1.6236">
De Vries
</text>
<text text-anchor="middle" x="-0.6573" y="1.2892">
Menkib
</text>
<text text-anchor="middle" x="1.7646" y="-0.6709">
Adam Driver
</text>
<text text-anchor="middle" x="-1.35" y="1.5745">
Sadalmelik
</text>
<text text-anchor="middle" x="-1.7427" y="2.6972">
Mud
</text>
<text text-anchor="middle" x="1.9854" y="-0.0772">
Aludra
</text>
<text text-anchor="middle" x="-0.9294" y="2.6880999">
Diphda
</text>
<text text-anchor="middle" x="1.8973" y="-1.5090001">
Ocon
</text>
<text text-anchor="middle" x="-0.3973" y="2.0599">
Merak
</text>
<text text-anchor="middle" x="-2.6027" y="2.0599">
Mizar
</text>
<text text-anchor="middle" x="2.8206" y="-1.209">
Tsunoda
</text>
<text text-anchor="middle" x="0.4854" y="-0.0772">
Pile
</text>
<text text-anchor="middle" x="-1.8973" y="2.0599">
Asellus
</text>
<text text-anchor="middle" x="-1.7646" y="1.2218">
Alkalurops
</text>
<text text-anchor="middle" x="1.5" y="0.2755">
Acamar
</text>
<text text-anchor="middle" x="-2.25" y="0.9745">
Chi
</text>
<text text-anchor="middle" x="-0.9354" y="1.0038999">
Mac
</text>
<text text-anchor="middle" x="2.6027" y="-0.5381">
Ricciardo
</text>
<text text-anchor="middle" x="2.4927" y="-1.1999">
Stewart
</text>
<text text-anchor="middle" x="0.3527" y="-0.2099">
Roman
</text>
<text text-anchor="middle" x="0.0927" y="0.5608">
Tenuerit
</text>
<text text-anchor="middle" x="-1.2573" y="2.6972">
Talitha
</text>
<text text-anchor="middle" x="-0.1794" y="1.7599">
Sulafat
</text>
<text text-anchor="middle" x="1.8973" y="-0.5381">
Vettel
</text>
<text text-anchor="middle" x="2.4354" y="-0.4529">
Mansell
</text>
<text text-anchor="middle" x="-0.9927" y="1.3981999">
Altais
</text>
<text text-anchor="middle" x="-2.25" y="2.1745">
Garnet
</text>
<text text-anchor="middle" x="-0.9927" y="1.7508999">
Asp
</text>
<text text-anchor="middle" x="0.1854" y="-0.2952">
Baby
</text>
<text text-anchor="middle" x="-0.5646" y="2.1452">
TienKuan
</text>
<text text-anchor="middle" x="-1.7427" y="3.0499">
Caph
</text>
<text text-anchor="middle" x="-0.9354" y="2.1452">
Gatria
</text>
<text text-anchor="middle" x="-0.2646" y="1.2218">
Lanx
</text>
<text text-anchor="middle" x="-1.6794" y="1.3891">
Errai
</text>
<text text-anchor="middle" x="-0.5646" y="1.0038999">
Regulus
</text>
<text text-anchor="middle" x="-2.3427" y="1.2892">
Schedir
</text>
<text text-anchor="middle" x="0" y="0.8755">
Mia
</text>
<text text-anchor="middle" x="-0.4854" y="0.6282">
Misam
</text>
<text text-anchor="middle" x="-2.0706" y="3.059">
Albali
</text>
<text text-anchor="middle" x="-2.3427" y="1.8598">
Askella
</text>
<text text-anchor="middle" x="1.3146" y="-0.2952">
Grosjean
</text>
<text text-anchor="middle" x="-0.1854" y="-0.2952">
Jason Momoa
</text>
<text text-anchor="middle" x="1.8527" y="-0.2099">
Andretti
</text>
<text text-anchor="middle" x="-1.5" y="2.2735999">
Aldhanab
</text>
<text text-anchor="middle" x="1.7427" y="0.4518">
Kajam
</text>
<text text-anchor="middle" x="-2.7354" y="1.9271998">
Marfik
</text>
<text text-anchor="middle" x="0.2427" y="0.09909999">
Han SeoulO
</text>
<text text-anchor="middle" x="-0.4854" y="-0.0772">
Speed Racer
</text>
<text text-anchor="middle" x="-2.0646" y="1.0038999">
Rotanev
</text>
<text text-anchor="middle" x="1.2" y="0.2755">
Alcyone
</text>
<text text-anchor="middle" x="-0.0927" y="0.5608">
Elons Mistakes Mistake
</text>
<text text-anchor="middle" x="-1.1473" y="3.359">
Sheliak
</text>
<text text-anchor="middle" x="-1.9854" y="2.5209">
Arc
</text>
<text text-anchor="middle" x="-1.7646" y="1.9271998">
Syrma
</text>
<text text-anchor="middle" x="-0.3" y="0.2755">
Tej
</text>
<text text-anchor="middle" x="-1.6794" y="1.7599">
Wasat
</text>
<text text-anchor="middle" x="1.5" y="-0.32450002">
Theemin
</text>
<text text-anchor="middle" x="2.0073" y="-0.8472">
Schumacher
</text>
<text text-anchor="middle" x="-0.1854" y="0.84610003">
TseenKee
</text>
<text text-anchor="middle" x="2.4354" y="-1.5942">
Johnson
</text>
<text text-anchor="middle" x="-0.2427" y="0.09909999">
Hobbs
</text>
<text text-anchor="middle" x="0.0927" y="-0.009800002">
Gisele
</text>
<text text-anchor="middle" x="-2.25" y="1.5745">
Castor
</text>
<text text-anchor="middle" x="-0.9" y="2.8736">
Sun
</text>
<text text-anchor="middle" x="2.8206" y="-0.8381">
Jolyon
</text>
<text text-anchor="middle" x="2.0706" y="0.4609">
Adhara
</text>
<text text-anchor="middle" x="1.1473" y="0.7609">
Rukh
</text>
<text text-anchor="middle" x="-0.8427" y="1.2892">
Rub
</text>
<text text-anchor="middle" x="-1.3146" y="3.4442">
Media
</text>
<text text-anchor="middle" x="-1.1027" y="1.0891">
Pure Pax
</text>
<text text-anchor="middle" x="2.4927" y="-0.8472">
Villeneuve
</text>
<text text-anchor="middle" x="-1.3206" y="1.7599">
Becrux
</text>
<text text-anchor="middle" x="-1.4073" y="2.5881999">
Neshmet
</text>
<text text-anchor="middle" x="1.0146" y="-0.0772">
Eltanin
</text>
<text text-anchor="middle" x="0" y="-0.32450002">
Ramsey
</text>
<text text-anchor="middle" x="-2.6027" y="1.0891">
Sarin
</text>
<text text-anchor="middle" x="-1.8973" y="1.0891">
Segin
</text>
<text text-anchor="middle" x="1.2573" y="0.09909999">
Elnath
</text>
<text text-anchor="middle" x="1.6794" y="-0.8381">
Danica Patrick
</text>
<text text-anchor="middle" x="2.0706" y="0.09009999">
Sadira
</text>
<text text-anchor="middle" x="-2.4927" y="1.7508999">
Tic
</text>
<text text-anchor="middle" x="-2.8206" y="1.7599">
Sabik
</text>
<text text-anchor="middle" x="-2.1573" y="1.8598">
Algieba
</text>
<text text-anchor="middle" x="-1.6854" y="3.4442">
Dnoces
</text>
<text text-anchor="middle" x="-0.5073" y="1.3981999">
Murzim
</text>
<text text-anchor="middle" x="1.8" y="0.2755">
Enif
</text>
<text text-anchor="middle" x="-1.1473" y="2.3881">
Yed
</text>
<text text-anchor="middle" x="-1.0146" y="3.2261999">
Ick
</text>
<text text-anchor="middle" x="-2.0706" y="2.6880999">
Kaus
</text>
<text text-anchor="middle" x="-1.9854" y="3.2261999">
SteropeII
</text>
<text text-anchor="middle" x="-1.5927" y="2.5881999">
Menchib
</text>
<text text-anchor="middle" x="2.55" y="-1.0236">
Hamilton
</text>
<text text-anchor="middle" x="0.1854" y="0.84610003">
Letty Ortiz
</text>
<text text-anchor="middle" x="1.5927" y="-0.009800002">
Alya
</text>
<text text-anchor="middle" x="1.2573" y="0.4518">
Aladfar
</text>
<text text-anchor="middle" x="2.7354" y="-1.3762001">
Latifi
</text>
<text text-anchor="middle" x="1.7427" y="0.09909999">
Vindemiatrix
</text>
<text text-anchor="middle" x="2.3427" y="-0.7382">
Gordon
</text>
<text text-anchor="middle" x="1.4073" y="0.5608">
Decrux
</text>
<text text-anchor="middle" x="1.95" y="-1.0236">
Labonte
</text>
<text text-anchor="middle" x="0" y="0.2755">
Arided
</text>
<text text-anchor="middle" x="1.6854" y="0.84610003">
Keid
</text>
<text text-anchor="middle" x="2.0073" y="-1.1999">
Sainz
</text>
<text text-anchor="middle" x="0.9294" y="0.09009999">
RIP Paul Walker
</text>
<text text-anchor="middle" x="-1.4073" y="3.1589">
Haldus
</text>
<text text-anchor="middle" x="-2.85" y="1.5745">
Azimech
</text>
<text text-anchor="middle" x="-2.4354" y="1.0038999">
AlGiedi
</text>
<text text-anchor="middle" x="-2.1" y="2.8736">
Pug
</text>
<text text-anchor="middle" x="-2.0073" y="1.7508999">
Sham
</text>
<text text-anchor="middle" x="1.5927" y="0.5608">
Alphecca
</text>
<text text-anchor="middle" x="1.4073" y="-0.009800002">
Mebsuta
</text>
<text text-anchor="middle" x="-0.5706" y="0.4609">
Pax
</text>
<text text-anchor="middle" x="0.4854" y="0.6282">
Hammond
</text>
<text text-anchor="middle" x="1.5" y="0.8755">
Kit
</text>
<text text-anchor="middle" x="2.85" y="-1.0236">
Prost
</text>
<text text-anchor="middle" x="-0.6573" y="1.8598">
Imp
</text>
<text text-anchor="middle" x="-1.05" y="1.5745">
Sasin
</text>
<text text-anchor="middle" x="-2.4354" y="2.1452">
Spy
</text>
<text text-anchor="middle" x="-0.2646" y="1.9271998">
Wazn
</text>
<text text-anchor="middle" x="-0.9294" y="3.059">
Bam
</text>
<text text-anchor="middle" x="1.0146" y="0.6282">
Sargas
</text>
<text text-anchor="middle" x="2.0646" y="-0.4529">
Leclerc
</text>
<text text-anchor="middle" x="0.3" y="0.2755">
Qui
</text>
<text text-anchor="middle" x="-1.5927" y="3.1589">
Mekbuda
</text>
<text text-anchor="middle" x="-1.5" y="2.8736">
Almach
</text>
<text text-anchor="middle" x="2.3427" y="-1.3089">
Petty
</text>
<text text-anchor="middle" x="2.0646" y="-1.5942">
Norris
</text>
<text text-anchor="middle" x="1.7646" y="-1.3762001">
Earnhardt
</text>
<text text-anchor="middle" x="-0.3973" y="1.0891">
Dux
</text>
<text text-anchor="middle" x="0.9294" y="0.4609">
Salm
</text>
<text text-anchor="middle" x="-0.1794" y="1.3891">
Alfecca
</text>
<text text-anchor="middle" x="-0.75" y="1.5745">
Hassaleh
</text>
<text text-anchor="middle" x="2.1" y="0.2755">
Alamak
</text>
<text text-anchor="middle" x="2.7354" y="-0.6709">
Perez
</text>
<text text-anchor="middle" x="-0.8427" y="1.8598">
Marfark
</text>
<text text-anchor="middle" x="-0.45" y="1.5745">
Alnasl
</text>
<text text-anchor="middle" x="-1.1027" y="2.0599">
Cox
</text>
<text text-anchor="middle" x="-0.2427" y="0.4518">
Terram
</text>
<text text-anchor="middle" x="2.1573" y="-1.3089">
Verstappen
</text>
<text text-anchor="middle" x="-1.3146" y="2.3028998">
Proxima
</text>
<text text-anchor="middle" x="0.5706" y="0.09009999">
Diesel
</text>
<text text-anchor="middle" x="0.6" y="0.2755">
Alzir
</text>
<text text-anchor="middle" x="-2.55" y="1.5745">
Dabih
</text>
<text text-anchor="middle" x="-0.75" y="0.9745">
Menkent
</text>
<text text-anchor="middle" x="-0.15" y="1.5745">
Alpheratz
</text>
<text text-anchor="middle" x="1.6794" y="-1.209">
Earnhardt Jr
</text>
<text text-anchor="middle" x="1.65" y="-1.0236">
Earnhardt Jr Jr
</text>
<text text-anchor="middle" x="-1.3206" y="1.3891">
Mirzam
</text>
<text text-anchor="middle" x="-1.2573" y="3.0499">
Mira
</text>
<text text-anchor="middle" x="1.8527" y="0.7609">
Alwaid
</text>
<text text-anchor="middle" x="-2.7354" y="1.2218">
Tag
</text>
<text text-anchor="middle" x="-1.95" y="1.5745">
Ksora
</text>
</g>
</svg>