<svg viewBox="-3.4199998 -2.05832 6.84 6.11664" xmlns="http://www.w3.org/2000/svg">
<style>
.star { font: 0.05px sans-serif; fill: red; }
.fleet { font: 0.03px sans-serif; fill: white; }
</style>
<g fill="none" stroke="black" stroke-width="0.01">
<circle cx="-2.4354" cy="1.0789" fill="#37BB00" r="0.05"/>
<circle cx="1.8" cy="0.3505" fill="#0433FF" r="0.05"/>
<circle cx="-2.0706" cy="2.7631" fill="#00A0DF" r="0.05"/>
<circle cx="1.7427" cy="0.1741" fill="#0433FF" r="0.05"/>
<circle cx="-1.8" cy="2.9486" fill="#00A0DF" r="0.05"/>
<circle cx="-0.8427" cy="1.9348" fill="#FFBE0E" r="0.05"/>
<circle cx="-2.85" cy="1.6495" fill="#37BB00" r="0.05"/>
<circle cx="-2.25" cy="1.0495" fill="#37BB00" r="0.05"/>
<circle cx="-0.5073" cy="1.8259" fill="#FFBE0E" r="0.05"/>
<circle cx="-1.1473" cy="3.434" fill="#00A0DF" r="0.05"/>
<circle cx="2.0646" cy="-1.5192" fill="#C11A00" r="0.05"/>
<circle cx="2.1" cy="0.3505" fill="#0433FF" r="0.05"/>
<circle cx="0.2427" cy="0.5268" fill="#0433FF" r="0.05"/>
<circle cx="-0.3" cy="0.3505" fill="#C11A00" r="0.05"/>
<circle cx="2.4927" cy="-1.1249" fill="#C11A00" r="0.05"/>
<circle cx="-0.3527" cy="-0.1349" fill="#C11A00" r="0.05"/>
<circle cx="-0.5706" cy="0.5359" fill="#37BB00" r="0.05"/>
<circle cx="-1.6854" cy="3.5192" fill="#00A0DF" r="0.05"/>
<circle cx="-1.05" cy="1.6495" fill="#FFBE0E" r="0.05"/>
<circle cx="1.4073" cy="0.0652" fill="#0433FF" r="0.05"/>
<circle cx="-0.4854" cy="0.7032" fill="#37BB00" r="0.05"/>
<circle cx="0.4854" cy="0.7032" fill="#C11A00" r="0.05"/>
<circle cx="1.6794" cy="-1.134" fill="#C11A00" r="0.05"/>
<circle cx="1.3146" cy="-0.2202" fill="#C11A00" r="0.05"/>
<circle cx="-0.75" cy="1.0495" fill="#37BB00" r="0.05"/>
<circle cx="1.1473" cy="-0.1349" fill="#0433FF" r="0.05"/>
<circle cx="-0.3973" cy="2.1349" fill="#FFBE0E" r="0.05"/>
<circle cx="-0.9354" cy="1.0789" fill="#FFBE0E" r="0.05"/>
<circle cx="-2.0706" cy="3.134" fill="#00A0DF" r="0.05"/>
<circle cx="-0.3973" cy="1.1641" fill="#FFBE0E" r="0.05"/>
<circle cx="0.0927" cy="0.0652" fill="#C11A00" r="0.05"/>
<circle cx="-0.6" cy="0.3505" fill="#FFBE0E" r="0.05"/>
<circle cx="-0.9927" cy="1.8259" fill="#FFBE0E" r="0.05"/>
<circle cx="-0.75" cy="2.2495" fill="#FFBE0E" r="0.05"/>
<circle cx="-1.0146" cy="2.5959" fill="#00A0DF" r="0.05"/>
<circle cx="-0.1854" cy="-0.2202" fill="#C11A00" r="0.05"/>
<circle cx="-1.9854" cy="2.5959" fill="#00A0DF" r="0.05"/>
<circle cx="-1.7646" cy="1.2968" fill="#37BB00" r="0.05"/>
<circle cx="1.8527" cy="0.8359" fill="#0433FF" r="0.05"/>
<circle cx="1.8527" cy="-0.1349" fill="#0433FF" r="0.05"/>
<circle cx="2.25" cy="-1.5486" fill="#C11A00" r="0.05"/>
<circle cx="1.8973" cy="-0.4631" fill="#C11A00" r="0.05"/>
<circle cx="2.0073" cy="-0.7722" fill="#C11A00" r="0.05"/>
<circle cx="1.2573" cy="0.1741" fill="#0433FF" r="0.05"/>
<circle cx="-2.0646" cy="1.0789" fill="#37BB00" r="0.05"/>
<circle cx="-2.0646" cy="2.2202" fill="#37BB00" r="0.05"/>
<circle cx="1.0146" cy="0.7032" fill="#FFBE0E" r="0.05"/>
<circle cx="0" cy="0.9505" fill="#C11A00" r="0.05"/>
<circle cx="-0.3527" cy="0.8359" fill="#FFBE0E" r="0.05"/>
<circle cx="-0.4854" cy="-0.0022" fill="#C11A00" r="0.05"/>
<circle cx="-0.45" cy="1.6495" fill="#FFBE0E" r="0.05"/>
<circle cx="-2.0073" cy="1.4732" fill="#37BB00" r="0.05"/>
<circle cx="2.25" cy="-0.9486" fill="#C11A00" r="0.05"/>
<circle cx="2.4354" cy="-1.5192" fill="#C11A00" r="0.05"/>
<circle cx="0.5706" cy="0.1651" fill="#C11A00" r="0.05"/>
<circle cx="-1.2354" cy="2.0022" fill="#FFBE0E" r="0.05"/>
<circle cx="-1.8973" cy="1.1641" fill="#37BB00" r="0.05"/>
<circle cx="-2.3427" cy="1.3642" fill="#37BB00" r="0.05"/>
<circle cx="-2.1573" cy="1.3642" fill="#37BB00" r="0.05"/>
<circle cx="2.8206" cy="-1.134" fill="#C11A00" r="0.05"/>
<circle cx="0.2427" cy="0.1741" fill="#C11A00" r="0.05"/>
<circle cx="1.8973" cy="-1.434" fill="#C11A00" r="0.05"/>
<circle cx="-0.5706" cy="0.1651" fill="#FFBE0E" r="0.05"/>
<circle cx="0.3527" cy="-0.1349" fill="#C11A00" r="0.05"/>
<circle cx="2.85" cy="-0.9486" fill="#C11A00" r="0.05"/>
<circle cx="-0.0927" cy="0.6358" fill="#0433FF" r="0.05"/>
<circle cx="-0.2646" cy="1.2968" fill="#FFBE0E" r="0.05"/>
<circle cx="1.5" cy="0.3505" fill="#0433FF" r="0.05"/>
<circle cx="2.7354" cy="-1.3012" fill="#C11A00" r="0.05"/>
<circle cx="-0.0927" cy="0.0652" fill="#C11A00" r="0.05"/>
<circle cx="1.7646" cy="-0.5959" fill="#C11A00" r="0.05"/>
<circle cx="-2.4354" cy="2.2202" fill="#37BB00" r="0.05"/>
<circle cx="0.4854" cy="-0.0022" fill="#C11A00" r="0.05"/>
<circle cx="-1.7427" cy="3.1249" fill="#00A0DF" r="0.05"/>
<circle cx="-1.3146" cy="2.3779" fill="#00A0DF" r="0.05"/>
<circle cx="2.25" cy="-0.3486" fill="#C11A00" r="0.05"/>
<circle cx="-1.5" cy="2.3486" fill="#00A0DF" r="0.05"/>
<circle cx="1.2" cy="0.3505" fill="#0433FF" r="0.05"/>
<circle cx="-0.9294" cy="2.7631" fill="#00A0DF" r="0.05"/>
<circle cx="-1.35" cy="1.6495" fill="#37BB00" r="0.05"/>
<circle cx="-1.6794" cy="1.8349" fill="#37BB00" r="0.05"/>
<circle cx="-1.1027" cy="2.1349" fill="#00A0DF" r="0.05"/>
<circle cx="2.4927" cy="-0.7722" fill="#C11A00" r="0.05"/>
<circle cx="-1.2573" cy="3.1249" fill="#00A0DF" r="0.05"/>
<circle cx="-0.5646" cy="1.0789" fill="#FFBE0E" r="0.05"/>
<circle cx="0.9" cy="0.3505" fill="#FFBE0E" r="0.05"/>
<circle cx="-1.5927" cy="3.2339" fill="#00A0DF" r="0.05"/>
<circle cx="-0.5073" cy="1.4732" fill="#FFBE0E" r="0.05"/>
<circle cx="1.6794" cy="-0.7631" fill="#0433FF" r="0.05"/>
<circle cx="0.9294" cy="0.1651" fill="#C11A00" r="0.05"/>
<circle cx="0.6" cy="0.3505" fill="#0433FF" r="0.05"/>
<circle cx="-1.5" cy="2.9486" fill="#00A0DF" r="0.05"/>
<circle cx="0.5706" cy="0.5359" fill="#C11A00" r="0.05"/>
<circle cx="1.7646" cy="-1.3012" fill="#0433FF" r="0.05"/>
<circle cx="2.7354" cy="-0.5959" fill="#C11A00" r="0.05"/>
<circle cx="-1.1027" cy="1.1641" fill="#37BB00" r="0.05"/>
<circle cx="1.5927" cy="0.6358" fill="#0433FF" r="0.05"/>
<circle cx="-1.5927" cy="2.6632" fill="#00A0DF" r="0.05"/>
<circle cx="2.0706" cy="0.1651" fill="#0433FF" r="0.05"/>
<circle cx="-0.2646" cy="2.0022" fill="#FFBE0E" r="0.05"/>
<circle cx="1.1473" cy="0.8359" fill="#0433FF" r="0.05"/>
<circle cx="2.1573" cy="-0.6632" fill="#C11A00" r="0.05"/>
<circle cx="-2.25" cy="2.2495" fill="#37BB00" r="0.05"/>
<circle cx="2.6027" cy="-0.4631" fill="#C11A00" r="0.05"/>
<circle cx="2.0706" cy="0.5359" fill="#0433FF" r="0.05"/>
<circle cx="-1.65" cy="1.6495" fill="#37BB00" r="0.05"/>
<circle cx="-2.1573" cy="1.9348" fill="#37BB00" r="0.05"/>
<circle cx="-1.7427" cy="2.7722" fill="#00A0DF" r="0.05"/>
<circle cx="-2.4927" cy="1.4732" fill="#37BB00" r="0.05"/>
<circle cx="-0.8427" cy="1.3642" fill="#FFBE0E" r="0.05"/>
<circle cx="-0.6573" cy="1.9348" fill="#FFBE0E" r="0.05"/>
<circle cx="-1.8527" cy="2.4631" fill="#00A0DF" r="0.05"/>
<circle cx="-1.95" cy="1.6495" fill="#37BB00" r="0.05"/>
<circle cx="1.95" cy="-0.9486" fill="#C11A00" r="0.05"/>
<circle cx="-0.75" cy="1.6495" fill="#FFBE0E" r="0.05"/>
<circle cx="1.4073" cy="0.6358" fill="#0433FF" r="0.05"/>
<circle cx="2.0646" cy="-0.3779" fill="#C11A00" r="0.05"/>
<circle cx="2.3427" cy="-0.6632" fill="#C11A00" r="0.05"/>
<circle cx="1.0146" cy="-0.0022" fill="#0433FF" r="0.05"/>
<circle cx="2.55" cy="-0.9486" fill="#C11A00" r="0.05"/>
<circle cx="2.4354" cy="-0.3779" fill="#C11A00" r="0.05"/>
<circle cx="-0.9927" cy="1.4732" fill="#FFBE0E" r="0.05"/>
<circle cx="-2.25" cy="1.6495" fill="#37BB00" r="0.05"/>
<circle cx="-1.4073" cy="3.2339" fill="#00A0DF" r="0.05"/>
<circle cx="-1.2354" cy="1.2968" fill="#FFBE0E" r="0.05"/>
<circle cx="-0.9294" cy="3.134" fill="#00A0DF" r="0.05"/>
<circle cx="1.7427" cy="0.5268" fill="#0433FF" r="0.05"/>
<circle cx="1.9854" cy="-0.0022" fill="#0433FF" r="0.05"/>
<circle cx="1.5927" cy="0.0652" fill="#0433FF" r="0.05"/>
<circle cx="-2.3427" cy="1.9348" fill="#37BB00" r="0.05"/>
<circle cx="-0.1854" cy="0.9211" fill="#FFBE0E" r="0.05"/>
<circle cx="-0.2427" cy="0.5268" fill="#0433FF" r="0.05"/>
<circle cx="-2.6027" cy="2.1349" fill="#37BB00" r="0.05"/>
<circle cx="1.2573" cy="0.5268" fill="#0433FF" r="0.05"/>
<circle cx="1.9854" cy="0.7032" fill="#0433FF" r="0.05"/>
<circle cx="-1.3206" cy="1.4641" fill="#FFBE0E" r="0.05"/>
<circle cx="1.5" cy="0.9505" fill="#0433FF" r="0.05"/>
<circle cx="-0.1794" cy="1.4641" fill="#FFBE0E" r="0.05"/>
<circle cx="-1.7646" cy="2.0022" fill="#37BB00" r="0.05"/>
<circle cx="-0.1794" cy="1.8349" fill="#FFBE0E" r="0.05"/>
<circle cx="-0.5646" cy="2.2202" fill="#FFBE0E" r="0.05"/>
<circle cx="2.6027" cy="-1.434" fill="#C11A00" r="0.05"/>
<circle cx="1.6854" cy="0.9211" fill="#0433FF" r="0.05"/>
<circle cx="1.6854" cy="-0.2202" fill="#0433FF" r="0.05"/>
<circle cx="0.1854" cy="0.9211" fill="#C11A00" r="0.05"/>
<circle cx="2.3427" cy="-1.2339" fill="#C11A00" r="0.05"/>
<circle cx="-1.2" cy="2.9486" fill="#00A0DF" r="0.05"/>
<circle cx="-2.7354" cy="2.0022" fill="#37BB00" r="0.05"/>
<circle cx="0.3527" cy="0.8359" fill="#C11A00" r="0.05"/>
<circle cx="-1.4073" cy="2.6632" fill="#00A0DF" r="0.05"/>
<circle cx="-1.3146" cy="3.5192" fill="#00A0DF" r="0.05"/>
<circle cx="-1.2573" cy="2.7722" fill="#00A0DF" r="0.05"/>
<circle cx="-2.0073" cy="1.8259" fill="#37BB00" r="0.05"/>
<circle cx="-0.9" cy="2.9486" fill="#00A0DF" r="0.05"/>
<circle cx="0.1854" cy="-0.2202" fill="#C11A00" r="0.05"/>
<circle cx="1.3146" cy="0.9211" fill="#0433FF" r="0.05"/>
<circle cx="-2.55" cy="1.6495" fill="#37BB00" r="0.05"/>
<circle cx="2.8206" cy="-0.7631" fill="#C11A00" r="0.05"/>
<circle cx="0.3" cy="0.3505" fill="#0433FF" r="0.05"/>
<circle cx="-0.2427" cy="0.1741" fill="#C11A00" r="0.05"/>
<circle cx="2.1573" cy="-1.2339" fill="#C11A00" r="0.05"/>
<circle cx="-2.8206" cy="1.8349" fill="#37BB00" r="0.05"/>
<circle cx="-1.9854" cy="3.3012" fill="#00A0DF" r="0.05"/>
<circle cx="-0.15" cy="1.6495" fill="#FFBE0E" r="0.05"/>
<circle cx="-2.1" cy="2.9486" fill="#00A0DF" r="0.05"/>
<circle cx="-0.9354" cy="2.2202" fill="#FFBE0E" r="0.05"/>
<circle cx="1.5" cy="-0.2495" fill="#0433FF" r="0.05"/>
<circle cx="-2.8206" cy="1.4641" fill="#37BB00" r="0.05"/>
<circle cx="-1.6794" cy="1.4641" fill="#37BB00" r="0.05"/>
<circle cx="-1.0146" cy="3.3012" fill="#00A0DF" r="0.05"/>
<circle cx="-2.4927" cy="1.8259" fill="#37BB00" r="0.05"/>
<circle cx="0.0927" cy="0.6358" fill="#0433FF" r="0.05"/>
<circle cx="-1.6854" cy="2.3779" fill="#00A0DF" r="0.05"/>
<circle cx="-1.8973" cy="2.1349" fill="#37BB00" r="0.05"/>
<circle cx="-2.6027" cy="1.1641" fill="#37BB00" r="0.05"/>
<circle cx="0" cy="-0.2495" fill="#C11A00" r="0.05"/>
<circle cx="0" cy="0.3505" fill="#0433FF" r="0.05"/>
<circle cx="1.65" cy="-0.9486" fill="#C11A00" r="0.05"/>
<circle cx="2.0073" cy="-1.1249" fill="#C11A00" r="0.05"/>
<circle cx="0.9294" cy="0.5359" fill="#FFBE0E" r="0.05"/>
<circle cx="-1.5" cy="3.5486" fill="#00A0DF" r="0.05"/>
<circle cx="-2.7354" cy="1.2968" fill="#37BB00" r="0.05"/>
<circle cx="-1.8527" cy="3.434" fill="#00A0DF" r="0.05"/>
<circle cx="-0.6573" cy="1.3642" fill="#FFBE0E" r="0.05"/>
<circle cx="-1.1473" cy="2.4631" fill="#00A0DF" r="0.05"/>
<circle cx="-1.3206" cy="1.8349" fill="#FFBE0E" r="0.05"/>
</g>
<g fill="#37BB00">
<line stroke="#37BB00" stroke-width="0.01" x1="-1.1040884" x2="-1.1026711" y1="1.1668905" y2="1.1641089"/>
<polygon points="-1.0913216 1.1418337 -1.1276369 1.1654176 -1.089055 1.1850755" stroke="black" stroke-width="0.005"/>
<text class="fleet" text-anchor="middle" x="-1.1026711" y="1.1766089">
149
</text>
<line stroke="#37BB00" stroke-width="0.01" x1="-0.49706414" x2="-0.4854102" y1="0.7184079" y2="0.7031521"/>
<polygon points="-0.47023404 0.6832855 -0.5102033 0.6999425 -0.47579327 0.7262284" stroke="black" stroke-width="0.005"/>
<text class="fleet" text-anchor="middle" x="-0.4854102" y="0.7156521">
1
</text>
<line stroke="#37BB00" stroke-width="0.01" x1="-1.7586209" x2="-1.7982482" y1="1.4898603" y2="1.502736"/>
<line stroke="#37BB00" stroke-width="0.01" x1="-1.7982482" x2="-2.25" y1="1.502736" y2="1.6495"/>
<polygon points="-1.8220248 1.5104605 -1.7796702 1.519465 -1.7930495 1.4782825" stroke="black" stroke-width="0.005"/>
<text class="fleet" text-anchor="middle" x="-1.7982482" y="1.515236">
1
</text>
<line stroke="#37BB00" stroke-width="0.01" x1="-0.49706414" x2="-0.4854102" y1="0.7184079" y2="0.7031521"/>
<polygon points="-0.47023404 0.6832855 -0.5102033 0.6999425 -0.47579327 0.7262284" stroke="black" stroke-width="0.005"/>
<text class="fleet" text-anchor="middle" x="-0.4854102" y="0.7156521">
510
</text>
<line stroke="#37BB00" stroke-width="0.01" x1="-2.1701705" x2="-2.1830463" y1="1.4038295" y2="1.4434568"/>
<line stroke="#37BB00" stroke-width="0.01" x1="-2.1830463" x2="-2.25" y1="1.4434568" y2="1.6495"/>
<polygon points="-2.1907723 1.467233 -2.1585925 1.4382596 -2.199774 1.4248776" stroke="black" stroke-width="0.005"/>
<text class="fleet" text-anchor="middle" x="-2.1830463" y="1.4559568">
27
</text>
<line stroke="#37BB00" stroke-width="0.01" x1="-0.8526441" x2="-0.88602895" y1="0.97739416" y2="1.0023253"/>
<line stroke="#37BB00" stroke-width="0.01" x1="-0.88602895" x2="-1.1027" y1="1.0023253" y2="1.1641"/>
<polygon points="-0.90606123 1.0172821 -0.86305976 1.0121953 -0.88896585 0.9774984" stroke="black" stroke-width="0.005"/>
<text class="fleet" text-anchor="middle" x="-0.88602895" y="1.0148253">
1
</text>
</g>
<g fill="#E16200"/>
<g fill="#C11A00">
<line stroke="#C11A00" stroke-width="0.01" x1="2.0477457" x2="2.007295" y1="-0.8016108" y2="-0.77222157"/>
<line stroke="#C11A00" stroke-width="0.01" x1="2.007295" x2="2.25" y1="-0.77222157" y2="-0.9486"/>
<line stroke="#C11A00" stroke-width="0.01" x1="2.25" x2="2.0073" y1="-0.9486" y2="-0.7722"/>
<polygon points="2.0275185 -0.7869185 1.9844551 -0.7823873 2.009911 -0.7473588" stroke="black" stroke-width="0.005"/>
<text class="fleet" text-anchor="middle" x="2.007295" y="-0.7597216">
1
</text>
<line stroke="#C11A00" stroke-width="0.01" x1="2.0342622" x2="2.0679712" y1="-0.79181445" y2="-0.81630546"/>
<line stroke="#C11A00" stroke-width="0.01" x1="2.0679712" x2="2.25" y1="-0.81630546" y2="-0.9486"/>
<line stroke="#C11A00" stroke-width="0.01" x1="2.25" x2="2.0073" y1="-0.9486" y2="-0.7722"/>
<polygon points="2.0881944 -0.8310032 2.045131 -0.8264704 2.0705884 -0.7914428" stroke="black" stroke-width="0.005"/>
<text class="fleet" text-anchor="middle" x="2.0679712" y="-0.8038055">
1
</text>
<line stroke="#C11A00" stroke-width="0.01" x1="1.07668" x2="1.1061428" y1="0.01775684" y2="-0.01170594"/>
<line stroke="#C11A00" stroke-width="0.01" x1="1.1061428" x2="1.3146" y1="-0.01170594" y2="-0.2202"/>
<polygon points="1.1238189 -0.029385176 1.081994 -0.018174272 1.1126153 0.012441632" stroke="black" stroke-width="0.005"/>
<text class="fleet" text-anchor="middle" x="1.1061428" y="0.0007940605">
1
</text>
<line stroke="#C11A00" stroke-width="0.01" x1="1.6046718" x2="1.5726883" y1="-0.4623606" y2="-0.4356555"/>
<line stroke="#C11A00" stroke-width="0.01" x1="1.5726883" x2="1.3146" y1="-0.4356555" y2="-0.2202"/>
<line stroke="#C11A00" stroke-width="0.01" x1="1.3146" x2="1.7646" y1="-0.2202" y2="-0.5959"/>
<polygon points="1.5534968 -0.41963413 1.596159 -0.42704582 1.5684092 -0.46028656" stroke="black" stroke-width="0.005"/>
<text class="fleet" text-anchor="middle" x="1.5726883" y="-0.42315552">
261
</text>
<line stroke="#C11A00" stroke-width="0.01" x1="-0.29420793" x2="-0.3" y1="0.3326548" y2="0.35048094"/>
<polygon points="-0.30772546 0.37425736 -0.2755463 0.34528318 -0.31672826 0.33190233" stroke="black" stroke-width="0.005"/>
<text class="fleet" text-anchor="middle" x="-0.3" y="0.36298093">
46
</text>
<line stroke="#C11A00" stroke-width="0.01" x1="0.18757778" x2="0.15455912" y1="-0.00785856" y2="0.01755558"/>
<line stroke="#C11A00" stroke-width="0.01" x1="0.15455912" x2="0.0927" y1="0.01755558" y2="0.0652"/>
<polygon points="0.13475288 0.03281051 0.1776734 0.027080815 0.15125108 -0.0072245914" stroke="black" stroke-width="0.005"/>
<text class="fleet" text-anchor="middle" x="0.15455912" y="0.030055579">
84
</text>
<line stroke="#C11A00" stroke-width="0.01" x1="0.09528024" x2="0.0927051" y1="0.64372337" y2="0.6357979"/>
<polygon points="0.08497967 0.6120215 0.07597685 0.65437657 0.11715879 0.6409957" stroke="black" stroke-width="0.005"/>
<text class="fleet" text-anchor="middle" x="0.0927051" y="0.6482979">
56
</text>
<line stroke="#C11A00" stroke-width="0.01" x1="0.02079547" x2="0" y1="0.94718724" y2="0.95048094"/>
<polygon points="-0.024692206 0.95439184 0.015733028 0.96990955 0.008959177 0.9271414" stroke="black" stroke-width="0.005"/>
<text class="fleet" text-anchor="middle" x="0" y="0.9629809">
40
</text>
<line stroke="#C11A00" stroke-width="0.01" x1="0.07415989" x2="0.04045085" y1="0.29660064" y2="0.32109168"/>
<line stroke="#C11A00" stroke-width="0.01" x1="0.04045085" x2="0" y1="0.32109168" y2="0.3505"/>
<polygon points="0.02022995 0.33579254 0.06329262 0.33125305 0.037829973 0.29622945" stroke="black" stroke-width="0.005"/>
<text class="fleet" text-anchor="middle" x="0.04045085" y="0.33359167">
400
</text>
<line stroke="#C11A00" stroke-width="0.01" x1="1.4745077" x2="1.5064913" y1="-0.35367838" y2="-0.3803835"/>
<line stroke="#C11A00" stroke-width="0.01" x1="1.5064913" x2="1.7646" y1="-0.3803835" y2="-0.5959"/>
<line stroke="#C11A00" stroke-width="0.01" x1="1.7646" x2="1.3146" y1="-0.5959" y2="-0.2202"/>
<polygon points="1.5256813 -0.39640677 1.4830197 -0.38899082 1.510773 -0.35575286" stroke="black" stroke-width="0.005"/>
<text class="fleet" text-anchor="middle" x="1.5064913" y="-0.3678835">
1
</text>
<line stroke="#C11A00" stroke-width="0.01" x1="1.933135" x2="1.9668441" y1="-0.7183413" y2="-0.7428323"/>
<line stroke="#C11A00" stroke-width="0.01" x1="1.9668441" x2="2.0073" y1="-0.7428323" y2="-0.7722"/>
<line stroke="#C11A00" stroke-width="0.01" x1="2.0073" x2="1.7646" y1="-0.7722" y2="-0.5959"/>
<polygon points="1.9870754 -0.7575187 1.9440095 -0.75301003 1.9694471 -0.71796817" stroke="black" stroke-width="0.005"/>
<text class="fleet" text-anchor="middle" x="1.9668441" y="-0.7303323">
1
</text>
<line stroke="#C11A00" stroke-width="0.01" x1="0.721051" x2="0.6793879" y1="0.16782376" y2="0.16837436"/>
<line stroke="#C11A00" stroke-width="0.01" x1="0.6793879" x2="0.2427" y1="0.16837436" y2="0.1741"/>
<polygon points="0.6543901 0.16870213 0.6921707 0.18985926 0.691603 0.1465617" stroke="black" stroke-width="0.005"/>
<text class="fleet" text-anchor="middle" x="0.6793879" y="0.18087436">
157
</text>
<line stroke="#C11A00" stroke-width="0.01" x1="1.1083503" x2="1.0788876" y1="-0.01391348" y2="0.0155493"/>
<line stroke="#C11A00" stroke-width="0.01" x1="1.0788876" x2="0.9294" y1="0.0155493" y2="0.1651"/>
<polygon points="1.0612136 0.033230703 1.1030371 0.02201467 1.072412 -0.008597476" stroke="black" stroke-width="0.005"/>
<text class="fleet" text-anchor="middle" x="1.0788876" y="0.028049301">
1
</text>
<line stroke="#C11A00" stroke-width="0.01" x1="0.4786684" x2="0.4854102" y1="0.00270801" y2="-0.0021902"/>
<polygon points="0.5056357 -0.016884811 0.4625716 -0.0123586375 0.4880234 0.022672849" stroke="black" stroke-width="0.005"/>
<text class="fleet" text-anchor="middle" x="0.4854102" y="0.0103098005">
100
</text>
</g>
<g fill="#0433FF">
<line stroke="#0433FF" stroke-width="0.01" x1="-0.29420793" x2="-0.3" y1="0.3683071" y2="0.35048094"/>
<polygon points="-0.30772546 0.32670453 -0.31672826 0.36905956 -0.2755463 0.35567874" stroke="black" stroke-width="0.005"/>
<text class="fleet" text-anchor="middle" x="-0.3" y="0.36298093">
36
</text>
<line stroke="#0433FF" stroke-width="0.01" x1="1.0887496" x2="1.0550406" y1="0.6492718" y2="0.67376286"/>
<line stroke="#0433FF" stroke-width="0.01" x1="1.0550406" x2="1.0146" y1="0.67376286" y2="0.7032"/>
<polygon points="1.0348283 0.6884756 1.0778884 0.68391085 1.0524051 0.6489022" stroke="black" stroke-width="0.005"/>
<text class="fleet" text-anchor="middle" x="1.0550406" y="0.68626285">
34
</text>
<line stroke="#0433FF" stroke-width="0.01" x1="1.5927051" x2="1.5798293" y1="0.06516399" y2="0.10479135"/>
<line stroke="#0433FF" stroke-width="0.01" x1="1.5798293" x2="1.5" y1="0.10479135" y2="0.3505"/>
<polygon points="1.5721045 0.12856793 1.6042829 0.09959299 1.5631006 0.08621312" stroke="black" stroke-width="0.005"/>
<text class="fleet" text-anchor="middle" x="1.5798293" y="0.11729135">
56
</text>
<line stroke="#0433FF" stroke-width="0.01" x1="0.6" x2="0.725" y1="0.35048094" y2="0.35048094"/>
<line stroke="#0433FF" stroke-width="0.01" x1="0.725" x2="1.2" y1="0.35048094" y2="0.3505"/>
<polygon points="0.75 0.35048196 0.7125009 0.32882982 0.71249914 0.37213108" stroke="black" stroke-width="0.005"/>
<text class="fleet" text-anchor="middle" x="0.725" y="0.36298093">
1
</text>
<line stroke="#0433FF" stroke-width="0.01" x1="1.291004" x2="1.324713" y1="0.55130756" y2="0.57579863"/>
<line stroke="#0433FF" stroke-width="0.01" x1="1.324713" x2="1.4073" y1="0.57579863" y2="0.6358"/>
<polygon points="1.3449386 0.590493 1.3273259 0.55093557 1.3018745 0.58596736" stroke="black" stroke-width="0.005"/>
<text class="fleet" text-anchor="middle" x="1.324713" y="0.5882986">
21
</text>
<line stroke="#0433FF" stroke-width="0.01" x1="1.325" x2="1.45" y1="0.35048094" y2="0.35048094"/>
<line stroke="#0433FF" stroke-width="0.01" x1="1.45" x2="1.5" y1="0.35048094" y2="0.3505"/>
<polygon points="1.475 0.35049045 1.4375083 0.32882556 1.4374918 0.37212682" stroke="black" stroke-width="0.005"/>
<text class="fleet" text-anchor="middle" x="1.45" y="0.36298093">
3
</text>
<line stroke="#0433FF" stroke-width="0.01" x1="-0.00257514" x2="0" y1="0.35840642" y2="0.35048094"/>
<polygon points="0.0077254088 0.32670453 -0.024453687 0.35567877 0.01672828 0.36905956" stroke="black" stroke-width="0.005"/>
<text class="fleet" text-anchor="middle" x="0" y="0.36298093">
288
</text>
<line stroke="#0433FF" stroke-width="0.01" x1="0.475" x2="0.35" y1="0.35048094" y2="0.35048094"/>
<line stroke="#0433FF" stroke-width="0.01" x1="0.35" x2="0" y1="0.35048094" y2="0.3505"/>
<polygon points="0.325 0.3504823 0.36250117 0.3721309 0.36249882 0.32882962" stroke="black" stroke-width="0.005"/>
<text class="fleet" text-anchor="middle" x="0.35" y="0.36298093">
146
</text>
</g>
<g fill="#FFBE0E">
<line stroke="#FFBE0E" stroke-width="0.01" x1="-0.20417006" x2="-0.1854102" y1="0.91155624" y2="0.92111486"/>
<polygon points="-0.16313504 0.9324646 -0.18671861 0.8961491 -0.20637695 0.9347308" stroke="black" stroke-width="0.005"/>
<text class="fleet" text-anchor="middle" x="-0.1854102" y="0.93361485">
125
</text>
<line stroke="#FFBE0E" stroke-width="0.01" x1="-0.40952626" x2="-0.39732885" y1="1.1983913" y2="1.1641089"/>
<polygon points="-0.38894868 1.1405553 -0.42191696 1.1686282 -0.38112092 1.1831431" stroke="black" stroke-width="0.005"/>
<text class="fleet" text-anchor="middle" x="-0.39732885" y="1.1766089">
1
</text>
<line stroke="#FFBE0E" stroke-width="0.01" x1="0.85833335" x2="0.81666666" y1="0.35048094" y2="0.35048094"/>
<line stroke="#FFBE0E" stroke-width="0.01" x1="0.81666666" x2="0.6" y1="0.35048094" y2="0.3505"/>
<polygon points="0.7916667 0.35048315 0.82916856 0.37213048 0.82916474 0.3288292" stroke="black" stroke-width="0.005"/>
<text class="fleet" text-anchor="middle" x="0.81666666" y="0.36298093">
20
</text>
<line stroke="#FFBE0E" stroke-width="0.01" x1="-1.2245029" x2="-1.2354102" y1="1.9814433" y2="2.00219"/>
<polygon points="-1.2470437 2.0243185 -1.2104298 2.001201 -1.2487571 1.981051" stroke="black" stroke-width="0.005"/>
<text class="fleet" text-anchor="middle" x="-1.2354102" y="2.0146902">
1
</text>
<line stroke="#FFBE0E" stroke-width="0.01" x1="-0.8979231" x2="-0.9354102" y1="2.2201529" y2="2.2201529"/>
<polygon points="-0.9604102 2.2201529 -0.9229102 2.2418034 -0.9229102 2.1985023" stroke="black" stroke-width="0.005"/>
<text class="fleet" text-anchor="middle" x="-0.9354102" y="2.232653">
1
</text>
<line stroke="#FFBE0E" stroke-width="0.01" x1="-0.3771146" x2="-0.39732885" y1="1.1409304" y2="1.1641089"/>
<polygon points="-0.41376066 1.1829503 -0.37279588 1.1689186 -0.40543005 1.1404579" stroke="black" stroke-width="0.005"/>
<text class="fleet" text-anchor="middle" x="-0.39732885" y="1.1766089">
148
</text>
<line stroke="#FFBE0E" stroke-width="0.01" x1="-1.0442079" x2="-1.05" y1="1.6316929" y2="1.6495191"/>
<polygon points="-1.0577253 1.6732955 -1.0255463 1.6443212 -1.0667282 1.6309406" stroke="black" stroke-width="0.005"/>
<text class="fleet" text-anchor="middle" x="-1.05" y="1.6620191">
13
</text>
<line stroke="#FFBE0E" stroke-width="0.01" x1="-1.0995877" x2="-1.1026711" y1="1.1636205" y2="1.1641089"/>
<polygon points="-1.1273633 1.1680199 -1.086938 1.1835374 -1.0937122 1.1407692" stroke="black" stroke-width="0.005"/>
<text class="fleet" text-anchor="middle" x="-1.1026711" y="1.1766089">
1
</text>
<line stroke="#FFBE0E" stroke-width="0.01" x1="-1.0442079" x2="-1.05" y1="1.6673452" y2="1.6495191"/>
<polygon points="-1.0577253 1.6257427 -1.0667282 1.6680977 -1.0255463 1.6547168" stroke="black" stroke-width="0.005"/>
<text class="fleet" text-anchor="middle" x="-1.05" y="1.6620191">
13
</text>
<line stroke="#FFBE0E" stroke-width="0.01" x1="-0.82396156" x2="-0.8427051" y1="1.3642021" y2="1.3642021"/>
<polygon points="-0.86770505 1.3642021 -0.8302051 1.3858528 -0.8302051 1.3425515" stroke="black" stroke-width="0.005"/>
<text class="fleet" text-anchor="middle" x="-0.8427051" y="1.3767022">
27
</text>
<line stroke="#FFBE0E" stroke-width="0.01" x1="-0.69738275" x2="-0.6572949" y1="1.9395065" y2="1.934836"/>
<polygon points="-0.6324629 1.9319429 -0.6722165 1.9147774 -0.66720545 1.9577878" stroke="black" stroke-width="0.005"/>
<text class="fleet" text-anchor="middle" x="-0.6572949" y="1.9473361">
86
</text>
</g>
<g fill="#00A0DF">
<line stroke="#00A0DF" stroke-width="0.01" x1="-1.2199779" x2="-1.1991649" y1="2.338375" y2="2.302279"/>
<line stroke="#00A0DF" stroke-width="0.01" x1="-1.1991649" x2="-1.1027" y1="2.302279" y2="2.1349"/>
<polygon points="-1.1866815 2.2806187 -1.2241648 2.3022983 -1.1866482 2.32392" stroke="black" stroke-width="0.005"/>
<text class="fleet" text-anchor="middle" x="-1.1991649" y="2.314779">
759
</text>
<line stroke="#00A0DF" stroke-width="0.01" x1="-1.4227457" x2="-1.40987" y1="2.710793" y2="2.6711657"/>
<line stroke="#00A0DF" stroke-width="0.01" x1="-1.40987" x2="-1.4073" y1="2.6711657" y2="2.6632"/>
<polygon points="-1.4021938 2.6473734 -1.4343129 2.676414 -1.3931034 2.6897097" stroke="black" stroke-width="0.005"/>
<text class="fleet" text-anchor="middle" x="-1.40987" y="2.6836658">
210
</text>
<line stroke="#00A0DF" stroke-width="0.01" x1="-1.4356215" x2="-1.4227457" y1="3.146694" y2="3.1863213"/>
<line stroke="#00A0DF" stroke-width="0.01" x1="-1.4227457" x2="-1.4073" y1="3.1863213" y2="3.2339"/>
<polygon points="-1.4150264 3.2100997 -1.4060127 3.167747 -1.447198 3.181117" stroke="black" stroke-width="0.005"/>
<text class="fleet" text-anchor="middle" x="-1.4227457" y="3.1988213">
1
</text>
<line stroke="#00A0DF" stroke-width="0.01" x1="-1.2257514" x2="-1.2386271" y1="2.8693025" y2="2.8296752"/>
<line stroke="#00A0DF" stroke-width="0.01" x1="-1.2386271" x2="-1.2573" y1="2.8296752" y2="2.7722"/>
<polygon points="-1.2463518 2.8058987 -1.2553558 2.8482533 -1.2141736 2.8348737" stroke="black" stroke-width="0.005"/>
<text class="fleet" text-anchor="middle" x="-1.2386271" y="2.8421752">
15
</text>
<line stroke="#00A0DF" stroke-width="0.01" x1="-1.7742486" x2="-1.7613729" y1="2.8693025" y2="2.8296752"/>
<line stroke="#00A0DF" stroke-width="0.01" x1="-1.7613729" x2="-1.7427" y1="2.8296752" y2="2.7722"/>
<polygon points="-1.7536482 2.8058987 -1.7858264 2.8348737 -1.7446442 2.8482533" stroke="black" stroke-width="0.005"/>
<text class="fleet" text-anchor="middle" x="-1.7613729" y="2.8421752">
8
</text>
</g>
<g class="star">
<text text-anchor="middle" x="-2.4354" y="1.0038999">
AlGiedi
</text>
<text text-anchor="middle" x="1.8" y="0.2755">
Enif
</text>
<text text-anchor="middle" x="-2.0706" y="2.6880999">
Kaus
</text>
<text text-anchor="middle" x="1.7427" y="0.09909999">
Vindemiatrix
</text>
<text text-anchor="middle" x="-1.8" y="2.8736">
Rukbat
</text>
<text text-anchor="middle" x="-0.8427" y="1.8598">
Marfark
</text>
<text text-anchor="middle" x="-2.85" y="1.5745">
Azimech
</text>
<text text-anchor="middle" x="-2.25" y="0.9745">
Chi
</text>
<text text-anchor="middle" x="-0.5073" y="1.7508999">
Zit
</text>
<text text-anchor="middle" x="-1.1473" y="3.359">
Sheliak
</text>
<text text-anchor="middle" x="2.0646" y="-1.5942">
Norris
</text>
<text text-anchor="middle" x="2.1" y="0.2755">
Alamak
</text>
<text text-anchor="middle" x="0.2427" y="0.4518">
Tegmen
</text>
<text text-anchor="middle" x="-0.3" y="0.2755">
Tej
</text>
<text text-anchor="middle" x="2.4927" y="-1.1999">
Stewart
</text>
<text text-anchor="middle" x="-0.3527" y="-0.2099">
Racer X
</text>
<text text-anchor="middle" x="-0.5706" y="0.4609">
Pax
</text>
<text text-anchor="middle" x="-1.6854" y="3.4442">
Dnoces
</text>
<text text-anchor="middle" x="-1.05" y="1.5745">
Sasin
</text>
<text text-anchor="middle" x="1.4073" y="-0.009800002">
Mebsuta
</text>
<text text-anchor="middle" x="-0.4854" y="0.6282">
Misam
</text>
<text text-anchor="middle" x="0.4854" y="0.6282">
Hammond
</text>
<text text-anchor="middle" x="1.6794" y="-1.209">
Earnhardt Jr
</text>
<text text-anchor="middle" x="1.3146" y="-0.2952">
Grosjean
</text>
<text text-anchor="middle" x="-0.75" y="0.9745">
Menkent
</text>
<text text-anchor="middle" x="1.1473" y="-0.2099">
Merope
</text>
<text text-anchor="middle" x="-0.3973" y="2.0599">
Merak
</text>
<text text-anchor="middle" x="-0.9354" y="1.0038999">
Mac
</text>
<text text-anchor="middle" x="-2.0706" y="3.059">
Albali
</text>
<text text-anchor="middle" x="-0.3973" y="1.0891">
Dux
</text>
<text text-anchor="middle" x="0.0927" y="-0.009800002">
Gisele
</text>
<text text-anchor="middle" x="-0.6" y="0.2755">
Ale
</text>
<text text-anchor="middle" x="-0.9927" y="1.7508999">
Asp
</text>
<text text-anchor="middle" x="-0.75" y="2.1745">
Arkab
</text>
<text text-anchor="middle" x="-1.0146" y="2.5209">
Yay
</text>
<text text-anchor="middle" x="-0.1854" y="-0.2952">
Jason Momoa
</text>
<text text-anchor="middle" x="-1.9854" y="2.5209">
Arc
</text>
<text text-anchor="middle" x="-1.7646" y="1.2218">
Alkalurops
</text>
<text text-anchor="middle" x="1.8527" y="0.7609">
Alwaid
</text>
<text text-anchor="middle" x="1.8527" y="-0.2099">
Andretti
</text>
<text text-anchor="middle" x="2.25" y="-1.6236">
De Vries
</text>
<text text-anchor="middle" x="1.8973" y="-0.5381">
Vettel
</text>
<text text-anchor="middle" x="2.0073" y="-0.8472">
Schumacher
</text>
<text text-anchor="middle" x="1.2573" y="0.09909999">
Elnath
</text>
<text text-anchor="middle" x="-2.0646" y="1.0038999">
Rotanev
</text>
<text text-anchor="middle" x="-2.0646" y="2.1452">
Tab
</text>
<text text-anchor="middle" x="1.0146" y="0.6282">
Sargas
</text>
<text text-anchor="middle" x="0" y="0.8755">
Mia
</text>
<text text-anchor="middle" x="-0.3527" y="0.7609">
Polaris
</text>
<text text-anchor="middle" x="-0.4854" y="-0.0772">
Speed Racer
</text>
<text text-anchor="middle" x="-0.45" y="1.5745">
Alnasl
</text>
<text text-anchor="middle" x="-2.0073" y="1.3981999">
Denebola
</text>
<text text-anchor="middle" x="2.25" y="-1.0236">
Alonso
</text>
<text text-anchor="middle" x="2.4354" y="-1.5942">
Johnson
</text>
<text text-anchor="middle" x="0.5706" y="0.09009999">
Diesel
</text>
<text text-anchor="middle" x="-1.2354" y="1.9271998">
Cheleb
</text>
<text text-anchor="middle" x="-1.8973" y="1.0891">
Segin
</text>
<text text-anchor="middle" x="-2.3427" y="1.2892">
Schedir
</text>
<text text-anchor="middle" x="-2.1573" y="1.2892">
Sky
</text>
<text text-anchor="middle" x="2.8206" y="-1.209">
Tsunoda
</text>
<text text-anchor="middle" x="0.2427" y="0.09909999">
Han SeoulO
</text>
<text text-anchor="middle" x="1.8973" y="-1.5090001">
Ocon
</text>
<text text-anchor="middle" x="-0.5706" y="0.09009999">
Elm
</text>
<text text-anchor="middle" x="0.3527" y="-0.2099">
Roman
</text>
<text text-anchor="middle" x="2.85" y="-1.0236">
Prost
</text>
<text text-anchor="middle" x="-0.0927" y="0.5608">
Elons Mistakes Mistake
</text>
<text text-anchor="middle" x="-0.2646" y="1.2218">
Lanx
</text>
<text text-anchor="middle" x="1.5" y="0.2755">
Acamar
</text>
<text text-anchor="middle" x="2.7354" y="-1.3762001">
Latifi
</text>
<text text-anchor="middle" x="-0.0927" y="-0.009800002">
Shaw
</text>
<text text-anchor="middle" x="1.7646" y="-0.6709">
Adam Driver
</text>
<text text-anchor="middle" x="-2.4354" y="2.1452">
Spy
</text>
<text text-anchor="middle" x="0.4854" y="-0.0772">
Pile
</text>
<text text-anchor="middle" x="-1.7427" y="3.0499">
Caph
</text>
<text text-anchor="middle" x="-1.3146" y="2.3028998">
Proxima
</text>
<text text-anchor="middle" x="2.25" y="-0.42360002">
Jerry
</text>
<text text-anchor="middle" x="-1.5" y="2.2735999">
Aldhanab
</text>
<text text-anchor="middle" x="1.2" y="0.2755">
Alcyone
</text>
<text text-anchor="middle" x="-0.9294" y="2.6880999">
Diphda
</text>
<text text-anchor="middle" x="-1.35" y="1.5745">
Sadalmelik
</text>
<text text-anchor="middle" x="-1.6794" y="1.7599">
Wasat
</text>
<text text-anchor="middle" x="-1.1027" y="2.0599">
Cox
</text>
<text text-anchor="middle" x="2.4927" y="-0.8472">
Villeneuve
</text>
<text text-anchor="middle" x="-1.2573" y="3.0499">
Mira
</text>
<text text-anchor="middle" x="-0.5646" y="1.0038999">
Regulus
</text>
<text text-anchor="middle" x="0.9" y="0.2755">
Ras
</text>
<text text-anchor="middle" x="-1.5927" y="3.1589">
Mekbuda
</text>
<text text-anchor="middle" x="-0.5073" y="1.3981999">
Murzim
</text>
<text text-anchor="middle" x="1.6794" y="-0.8381">
Danica Patrick
</text>
<text text-anchor="middle" x="0.9294" y="0.09009999">
RIP Paul Walker
</text>
<text text-anchor="middle" x="0.6" y="0.2755">
Alzir
</text>
<text text-anchor="middle" x="-1.5" y="2.8736">
Almach
</text>
<text text-anchor="middle" x="0.5706" y="0.4609">
Clarkson
</text>
<text text-anchor="middle" x="1.7646" y="-1.3762001">
Earnhardt
</text>
<text text-anchor="middle" x="2.7354" y="-0.6709">
Perez
</text>
<text text-anchor="middle" x="-1.1027" y="1.0891">
Pure Pax
</text>
<text text-anchor="middle" x="1.5927" y="0.5608">
Alphecca
</text>
<text text-anchor="middle" x="-1.5927" y="2.5881999">
Menchib
</text>
<text text-anchor="middle" x="2.0706" y="0.09009999">
Sadira
</text>
<text text-anchor="middle" x="-0.2646" y="1.9271998">
Wazn
</text>
<text text-anchor="middle" x="1.1473" y="0.7609">
Rukh
</text>
<text text-anchor="middle" x="2.1573" y="-0.7382">
Senna
</text>
<text text-anchor="middle" x="-2.25" y="2.1745">
Garnet
</text>
<text text-anchor="middle" x="2.6027" y="-0.5381">
Ricciardo
</text>
<text text-anchor="middle" x="2.0706" y="0.4609">
Adhara
</text>
<text text-anchor="middle" x="-1.65" y="1.5745">
Biham
</text>
<text text-anchor="middle" x="-2.1573" y="1.8598">
Algieba
</text>
<text text-anchor="middle" x="-1.7427" y="2.6972">
Mud
</text>
<text text-anchor="middle" x="-2.4927" y="1.3981999">
Propus
</text>
<text text-anchor="middle" x="-0.8427" y="1.2892">
Rub
</text>
<text text-anchor="middle" x="-0.6573" y="1.8598">
Imp
</text>
<text text-anchor="middle" x="-1.8527" y="2.3881">
Tejat
</text>
<text text-anchor="middle" x="-1.95" y="1.5745">
Ksora
</text>
<text text-anchor="middle" x="1.95" y="-1.0236">
Labonte
</text>
<text text-anchor="middle" x="-0.75" y="1.5745">
Hassaleh
</text>
<text text-anchor="middle" x="1.4073" y="0.5608">
Decrux
</text>
<text text-anchor="middle" x="2.0646" y="-0.4529">
Leclerc
</text>
<text text-anchor="middle" x="2.3427" y="-0.7382">
Gordon
</text>
<text text-anchor="middle" x="1.0146" y="-0.0772">
Eltanin
</text>
<text text-anchor="middle" x="2.55" y="-1.0236">
Hamilton
</text>
<text text-anchor="middle" x="2.4354" y="-0.4529">
Mansell
</text>
<text text-anchor="middle" x="-0.9927" y="1.3981999">
Altais
</text>
<text text-anchor="middle" x="-2.25" y="1.5745">
Castor
</text>
<text text-anchor="middle" x="-1.4073" y="3.1589">
Haldus
</text>
<text text-anchor="middle" x="-1.2354" y="1.2218">
Dschubba
</text>
<text text-anchor="middle" x="-0.9294" y="3.059">
Bam
</text>
<text text-anchor="middle" x="1.7427" y="0.4518">
Kajam
</text>
<text text-anchor="middle" x="1.9854" y="-0.0772">
Aludra
</text>
<text text-anchor="middle" x="1.5927" y="-0.009800002">
Alya
</text>
<text text-anchor="middle" x="-2.3427" y="1.8598">
Askella
</text>
<text text-anchor="middle" x="-0.1854" y="0.84610003">
TseenKee
</text>
<text text-anchor="middle" x="-0.2427" y="0.4518">
Terram
</text>
<text text-anchor="middle" x="-2.6027" y="2.0599">
Mizar
</text>
<text text-anchor="middle" x="1.2573" y="0.4518">
Aladfar
</text>
<text text-anchor="middle" x="1.9854" y="0.6282">
Fin
</text>
<text text-anchor="middle" x="-1.3206" y="1.3891">
Mirzam
</text>
<text text-anchor="middle" x="1.5" y="0.8755">
Kit
</text>
<text text-anchor="middle" x="-0.1794" y="1.3891">
Alfecca
</text>
<text text-anchor="middle" x="-1.7646" y="1.9271998">
Syrma
</text>
<text text-anchor="middle" x="-0.1794" y="1.7599">
Sulafat
</text>
<text text-anchor="middle" x="-0.5646" y="2.1452">
TienKuan
</text>
<text text-anchor="middle" x="2.6027" y="-1.5090001">
Toretto
</text>
<text text-anchor="middle" x="1.6854" y="0.84610003">
Keid
</text>
<text text-anchor="middle" x="1.6854" y="-0.2952">
Jaw
</text>
<text text-anchor="middle" x="0.1854" y="0.84610003">
Letty Ortiz
</text>
<text text-anchor="middle" x="2.3427" y="-1.3089">
Petty
</text>
<text text-anchor="middle" x="-1.2" y="2.8736">
Mintaka
</text>
<text text-anchor="middle" x="-2.7354" y="1.9271998">
Marfik
</text>
<text text-anchor="middle" x="0.3527" y="0.7609">
May
</text>
<text text-anchor="middle" x="-1.4073" y="2.5881999">
Neshmet
</text>
<text text-anchor="middle" x="-1.3146" y="3.4442">
Media
</text>
<text text-anchor="middle" x="-1.2573" y="2.6972">
Talitha
</text>
<text text-anchor="middle" x="-2.0073" y="1.7508999">
Sham
</text>
<text text-anchor="middle" x="-0.9" y="2.8736">
Sun
</text>
<text text-anchor="middle" x="0.1854" y="-0.2952">
Baby
</text>
<text text-anchor="middle" x="1.3146" y="0.84610003">
Mimosa
</text>
<text text-anchor="middle" x="-2.55" y="1.5745">
Dabih
</text>
<text text-anchor="middle" x="2.8206" y="-0.8381">
Jolyon
</text>
<text text-anchor="middle" x="0.3" y="0.2755">
Qui
</text>
<text text-anchor="middle" x="-0.2427" y="0.09909999">
Hobbs
</text>
<text text-anchor="middle" x="2.1573" y="-1.3089">
Verstappen
</text>
<text text-anchor="middle" x="-2.8206" y="1.7599">
Sabik
</text>
<text text-anchor="middle" x="-1.9854" y="3.2261999">
SteropeII
</text>
<text text-anchor="middle" x="-0.15" y="1.5745">
Alpheratz
</text>
<text text-anchor="middle" x="-2.1" y="2.8736">
Pug
</text>
<text text-anchor="middle" x="-0.9354" y="2.1452">
Gatria
</text>
<text text-anchor="middle" x="1.5" y="-0.32450002">
Theemin
</text>
<text text-anchor="middle" x="-2.8206" y="1.3891">
Zoo
</text>
<text text-anchor="middle" x="-1.6794" y="1.3891">
Errai
</text>
<text text-anchor="middle" x="-1.0146" y="3.2261999">
Ick
</text>
<text text-anchor="middle" x="-2.4927" y="1.7508999">
Tic
</text>
<text text-anchor="middle" x="0.0927" y="0.5608">
Tenuerit
</text>
<text text-anchor="middle" x="-1.6854" y="2.3028998">
Alcor
</text>
<text text-anchor="middle" x="-1.8973" y="2.0599">
Asellus
</text>
<text text-anchor="middle" x="-2.6027" y="1.0891">
Sarin
</text>
<text text-anchor="middle" x="0" y="-0.32450002">
Ramsey
</text>
<text text-anchor="middle" x="0" y="0.2755">
Arided
</text>
<text text-anchor="middle" x="1.65" y="-1.0236">
Earnhardt Jr Jr
</text>
<text text-anchor="middle" x="2.0073" y="-1.1999">
Sainz
</text>
<text text-anchor="middle" x="0.9294" y="0.4609">
Salm
</text>
<text text-anchor="middle" x="-1.5" y="3.4736">
Alniyat
</text>
<text text-anchor="middle" x="-2.7354" y="1.2218">
Tag
</text>
<text text-anchor="middle" x="-1.8527" y="3.359">
Minkar
</text>
<text text-anchor="middle" x="-0.6573" y="1.2892">
Menkib
</text>
<text text-anchor="middle" x="-1.1473" y="2.3881">
Yed
</text>
<text text-anchor="middle" x="-1.3206" y="1.7599">
Becrux
</text>
</g>
</svg>