<svg viewBox="-3.4199998 -2.05832 6.84 6.11664" xmlns="http://www.w3.org/2000/svg">
<style>
.star { font: 0.05px sans-serif; fill: red; }
.fleet { font: 0.03px sans-serif; fill: white; }
</style>
<g fill="none" stroke="black" stroke-width="0.01">
<circle cx="-1.5927" cy="3.2339" fill="#00A0DF" r="0.05"/>
<circle cx="-0.0927" cy="0.6358" fill="#0433FF" r="0.05"/>
<circle cx="1.5" cy="0.3505" fill="#0433FF" r="0.05"/>
<circle cx="-2.85" cy="1.6495" fill="#37BB00" r="0.05"/>
<circle cx="1.8973" cy="-1.434" fill="#C11A00" r="0.05"/>
<circle cx="-0.9927" cy="1.4732" fill="#FFBE0E" r="0.05"/>
<circle cx="1.7427" cy="0.5268" fill="#0433FF" r="0.05"/>
<circle cx="2.7354" cy="-1.3012" fill="#C11A00" r="0.05"/>
<circle cx="-2.0706" cy="3.134" fill="#00A0DF" r="0.05"/>
<circle cx="-2.7354" cy="1.2968" fill="#37BB00" r="0.05"/>
<circle cx="-1.0146" cy="2.5959" fill="#00A0DF" r="0.05"/>
<circle cx="-1.6854" cy="2.3779" fill="#00A0DF" r="0.05"/>
<circle cx="2.85" cy="-0.9486" fill="#C11A00" r="0.05"/>
<circle cx="1.7646" cy="-1.3012" fill="#0433FF" r="0.05"/>
<circle cx="1.4073" cy="0.6358" fill="#0433FF" r="0.05"/>
<circle cx="-2.4927" cy="1.4732" fill="#37BB00" r="0.05"/>
<circle cx="-2.0646" cy="1.0789" fill="#37BB00" r="0.05"/>
<circle cx="1.1473" cy="0.8359" fill="#0433FF" r="0.05"/>
<circle cx="0.1854" cy="0.9211" fill="#C11A00" r="0.05"/>
<circle cx="-1.2354" cy="2.0022" fill="#FFBE0E" r="0.05"/>
<circle cx="-1.3146" cy="3.5192" fill="#00A0DF" r="0.05"/>
<circle cx="-2.3427" cy="1.9348" fill="#37BB00" r="0.05"/>
<circle cx="2.8206" cy="-0.7631" fill="#C11A00" r="0.05"/>
<circle cx="2.0073" cy="-1.1249" fill="#C11A00" r="0.05"/>
<circle cx="-0.4854" cy="-0.0022" fill="#C11A00" r="0.05"/>
<circle cx="-0.5073" cy="1.4732" fill="#FFBE0E" r="0.05"/>
<circle cx="-1.8973" cy="1.1641" fill="#37BB00" r="0.05"/>
<circle cx="-2.0646" cy="2.2202" fill="#37BB00" r="0.05"/>
<circle cx="0.5706" cy="0.1651" fill="#C11A00" r="0.05"/>
<circle cx="2.0706" cy="0.5359" fill="#0433FF" r="0.05"/>
<circle cx="-1.05" cy="1.6495" fill="#FFBE0E" r="0.05"/>
<circle cx="-2.3427" cy="1.3642" fill="#37BB00" r="0.05"/>
<circle cx="1.8527" cy="-0.1349" fill="#0433FF" r="0.05"/>
<circle cx="-2.25" cy="1.6495" fill="#37BB00" r="0.05"/>
<circle cx="0.2427" cy="0.1741" fill="#C11A00" r="0.05"/>
<circle cx="-2.55" cy="1.6495" fill="#37BB00" r="0.05"/>
<circle cx="-0.2427" cy="0.1741" fill="#C11A00" r="0.05"/>
<circle cx="-0.5706" cy="0.1651" fill="#FFBE0E" r="0.05"/>
<circle cx="0.0927" cy="0.6358" fill="#0433FF" r="0.05"/>
<circle cx="0.3527" cy="-0.1349" fill="#C11A00" r="0.05"/>
<circle cx="-0.2646" cy="1.2968" fill="#FFBE0E" r="0.05"/>
<circle cx="-2.0706" cy="2.7631" fill="#00A0DF" r="0.05"/>
<circle cx="-1.2573" cy="3.1249" fill="#00A0DF" r="0.05"/>
<circle cx="2.25" cy="-0.9486" fill="#C11A00" r="0.05"/>
<circle cx="2.55" cy="-0.9486" fill="#C11A00" r="0.05"/>
<circle cx="-2.1573" cy="1.9348" fill="#37BB00" r="0.05"/>
<circle cx="-2.8206" cy="1.8349" fill="#37BB00" r="0.05"/>
<circle cx="2.1" cy="0.3505" fill="#0433FF" r="0.05"/>
<circle cx="-1.3206" cy="1.4641" fill="#FFBE0E" r="0.05"/>
<circle cx="-0.75" cy="2.2495" fill="#FFBE0E" r="0.05"/>
<circle cx="1.5" cy="-0.2495" fill="#0433FF" r="0.05"/>
<circle cx="-1.2573" cy="2.7722" fill="#00A0DF" r="0.05"/>
<circle cx="-1.5" cy="2.3486" fill="#00A0DF" r="0.05"/>
<circle cx="-1.5" cy="3.5486" fill="#00A0DF" r="0.05"/>
<circle cx="-2.4354" cy="1.0789" fill="#37BB00" r="0.05"/>
<circle cx="-1.1027" cy="2.1349" fill="#00A0DF" r="0.05"/>
<circle cx="-1.2" cy="2.9486" fill="#00A0DF" r="0.05"/>
<circle cx="-2.25" cy="2.2495" fill="#37BB00" r="0.05"/>
<circle cx="-1.7427" cy="2.7722" fill="#00A0DF" r="0.05"/>
<circle cx="-2.1573" cy="1.3642" fill="#37BB00" r="0.05"/>
<circle cx="-0.9294" cy="3.134" fill="#00A0DF" r="0.05"/>
<circle cx="0.1854" cy="-0.2202" fill="#C11A00" r="0.05"/>
<circle cx="-1.35" cy="1.6495" fill="#37BB00" r="0.05"/>
<circle cx="-1.8" cy="2.9486" fill="#00A0DF" r="0.05"/>
<circle cx="-0.4854" cy="0.7032" fill="#37BB00" r="0.05"/>
<circle cx="2.4927" cy="-1.1249" fill="#C11A00" r="0.05"/>
<circle cx="-0.45" cy="1.6495" fill="#FFBE0E" r="0.05"/>
<circle cx="-2.6027" cy="2.1349" fill="#37BB00" r="0.05"/>
<circle cx="1.7427" cy="0.1741" fill="#0433FF" r="0.05"/>
<circle cx="1.8527" cy="0.8359" fill="#0433FF" r="0.05"/>
<circle cx="1.3146" cy="-0.2202" fill="#C11A00" r="0.05"/>
<circle cx="0.4854" cy="0.7032" fill="#C11A00" r="0.05"/>
<circle cx="-1.3146" cy="2.3779" fill="#00A0DF" r="0.05"/>
<circle cx="1.5927" cy="0.6358" fill="#0433FF" r="0.05"/>
<circle cx="0.0927" cy="0.0652" fill="#C11A00" r="0.05"/>
<circle cx="0.9294" cy="0.5359" fill="#0433FF" r="0.05"/>
<circle cx="2.7354" cy="-0.5959" fill="#C11A00" r="0.05"/>
<circle cx="1.0146" cy="0.7032" fill="#0433FF" r="0.05"/>
<circle cx="1.6794" cy="-1.134" fill="#C11A00" r="0.05"/>
<circle cx="-0.9" cy="2.9486" fill="#00A0DF" r="0.05"/>
<circle cx="-1.1027" cy="1.1641" fill="#37BB00" r="0.05"/>
<circle cx="0.6" cy="0.3505" fill="#0433FF" r="0.05"/>
<circle cx="1.8" cy="0.3505" fill="#0433FF" r="0.05"/>
<circle cx="0.5706" cy="0.5359" fill="#C11A00" r="0.05"/>
<circle cx="-0.9354" cy="2.2202" fill="#FFBE0E" r="0.05"/>
<circle cx="2.4354" cy="-0.3779" fill="#C11A00" r="0.05"/>
<circle cx="-0.9354" cy="1.0789" fill="#FFBE0E" r="0.05"/>
<circle cx="-1.1473" cy="2.4631" fill="#00A0DF" r="0.05"/>
<circle cx="-1.6794" cy="1.4641" fill="#37BB00" r="0.05"/>
<circle cx="1.8973" cy="-0.4631" fill="#C11A00" r="0.05"/>
<circle cx="1.2573" cy="0.5268" fill="#0433FF" r="0.05"/>
<circle cx="0.9" cy="0.3505" fill="#0433FF" r="0.05"/>
<circle cx="-0.5706" cy="0.5359" fill="#37BB00" r="0.05"/>
<circle cx="0.2427" cy="0.5268" fill="#0433FF" r="0.05"/>
<circle cx="1.3146" cy="0.9211" fill="#0433FF" r="0.05"/>
<circle cx="1.65" cy="-0.9486" fill="#C11A00" r="0.05"/>
<circle cx="-0.75" cy="1.6495" fill="#FFBE0E" r="0.05"/>
<circle cx="-0.6" cy="0.3505" fill="#FFBE0E" r="0.05"/>
<circle cx="-0.8427" cy="1.3642" fill="#FFBE0E" r="0.05"/>
<circle cx="-2.4927" cy="1.8259" fill="#37BB00" r="0.05"/>
<circle cx="-1.8527" cy="2.4631" fill="#00A0DF" r="0.05"/>
<circle cx="-2.25" cy="1.0495" fill="#37BB00" r="0.05"/>
<circle cx="-1.7646" cy="2.0022" fill="#37BB00" r="0.05"/>
<circle cx="-1.5927" cy="2.6632" fill="#00A0DF" r="0.05"/>
<circle cx="-0.1794" cy="1.8349" fill="#FFBE0E" r="0.05"/>
<circle cx="1.4073" cy="0.0652" fill="#0433FF" r="0.05"/>
<circle cx="1.9854" cy="-0.0022" fill="#0433FF" r="0.05"/>
<circle cx="-1.2354" cy="1.2968" fill="#FFBE0E" r="0.05"/>
<circle cx="-1.6854" cy="3.5192" fill="#00A0DF" r="0.05"/>
<circle cx="2.6027" cy="-1.434" fill="#C11A00" r="0.05"/>
<circle cx="1.7646" cy="-0.5959" fill="#C11A00" r="0.05"/>
<circle cx="1.1473" cy="-0.1349" fill="#0433FF" r="0.05"/>
<circle cx="1.5927" cy="0.0652" fill="#0433FF" r="0.05"/>
<circle cx="1.2" cy="0.3505" fill="#0433FF" r="0.05"/>
<circle cx="-1.8973" cy="2.1349" fill="#37BB00" r="0.05"/>
<circle cx="-0.5073" cy="1.8259" fill="#FFBE0E" r="0.05"/>
<circle cx="-0.15" cy="1.6495" fill="#FFBE0E" r="0.05"/>
<circle cx="-2.0073" cy="1.8259" fill="#37BB00" r="0.05"/>
<circle cx="-2.8206" cy="1.4641" fill="#37BB00" r="0.05"/>
<circle cx="-0.8427" cy="1.9348" fill="#FFBE0E" r="0.05"/>
<circle cx="0" cy="0.9505" fill="#C11A00" r="0.05"/>
<circle cx="2.1573" cy="-0.6632" fill="#C11A00" r="0.05"/>
<circle cx="0.4854" cy="-0.0022" fill="#C11A00" r="0.05"/>
<circle cx="-0.2427" cy="0.5268" fill="#0433FF" r="0.05"/>
<circle cx="-0.3527" cy="0.8359" fill="#FFBE0E" r="0.05"/>
<circle cx="-0.1854" cy="-0.2202" fill="#C11A00" r="0.05"/>
<circle cx="2.0073" cy="-0.7722" fill="#C11A00" r="0.05"/>
<circle cx="-0.5646" cy="1.0789" fill="#FFBE0E" r="0.05"/>
<circle cx="-0.3973" cy="1.1641" fill="#FFBE0E" r="0.05"/>
<circle cx="0.9294" cy="0.1651" fill="#C11A00" r="0.05"/>
<circle cx="-0.0927" cy="0.0652" fill="#C11A00" r="0.05"/>
<circle cx="0.3" cy="0.3505" fill="#0433FF" r="0.05"/>
<circle cx="2.1573" cy="-1.2339" fill="#C11A00" r="0.05"/>
<circle cx="-2.7354" cy="2.0022" fill="#37BB00" r="0.05"/>
<circle cx="2.3427" cy="-1.2339" fill="#C11A00" r="0.05"/>
<circle cx="-0.5646" cy="2.2202" fill="#FFBE0E" r="0.05"/>
<circle cx="-1.7646" cy="1.2968" fill="#37BB00" r="0.05"/>
<circle cx="-2.4354" cy="2.2202" fill="#37BB00" r="0.05"/>
<circle cx="1.2573" cy="0.1741" fill="#0433FF" r="0.05"/>
<circle cx="-1.7427" cy="3.1249" fill="#00A0DF" r="0.05"/>
<circle cx="-1.6794" cy="1.8349" fill="#37BB00" r="0.05"/>
<circle cx="1.6854" cy="0.9211" fill="#0433FF" r="0.05"/>
<circle cx="-0.6573" cy="1.3642" fill="#FFBE0E" r="0.05"/>
<circle cx="-0.6573" cy="1.9348" fill="#FFBE0E" r="0.05"/>
<circle cx="-0.9294" cy="2.7631" fill="#00A0DF" r="0.05"/>
<circle cx="-1.8527" cy="3.434" fill="#00A0DF" r="0.05"/>
<circle cx="-0.75" cy="1.0495" fill="#37BB00" r="0.05"/>
<circle cx="-1.5" cy="2.9486" fill="#00A0DF" r="0.05"/>
<circle cx="-2.0073" cy="1.4732" fill="#37BB00" r="0.05"/>
<circle cx="-1.1473" cy="3.434" fill="#00A0DF" r="0.05"/>
<circle cx="2.25" cy="-1.5486" fill="#C11A00" r="0.05"/>
<circle cx="2.3427" cy="-0.6632" fill="#C11A00" r="0.05"/>
<circle cx="-0.1794" cy="1.4641" fill="#FFBE0E" r="0.05"/>
<circle cx="-1.0146" cy="3.3012" fill="#00A0DF" r="0.05"/>
<circle cx="2.4354" cy="-1.5192" fill="#C11A00" r="0.05"/>
<circle cx="-1.95" cy="1.6495" fill="#37BB00" r="0.05"/>
<circle cx="-2.6027" cy="1.1641" fill="#37BB00" r="0.05"/>
<circle cx="2.0646" cy="-1.5192" fill="#C11A00" r="0.05"/>
<circle cx="-1.3206" cy="1.8349" fill="#FFBE0E" r="0.05"/>
<circle cx="-0.9927" cy="1.8259" fill="#FFBE0E" r="0.05"/>
<circle cx="-1.9854" cy="2.5959" fill="#00A0DF" r="0.05"/>
<circle cx="-1.9854" cy="3.3012" fill="#00A0DF" r="0.05"/>
<circle cx="1.6854" cy="-0.2202" fill="#0433FF" r="0.05"/>
<circle cx="0" cy="-0.2495" fill="#C11A00" r="0.05"/>
<circle cx="2.8206" cy="-1.134" fill="#C11A00" r="0.05"/>
<circle cx="2.6027" cy="-0.4631" fill="#C11A00" r="0.05"/>
<circle cx="-2.1" cy="2.9486" fill="#00A0DF" r="0.05"/>
<circle cx="-1.4073" cy="2.6632" fill="#00A0DF" r="0.05"/>
<circle cx="-0.1854" cy="0.9211" fill="#FFBE0E" r="0.05"/>
<circle cx="1.9854" cy="0.7032" fill="#0433FF" r="0.05"/>
<circle cx="-1.4073" cy="3.2339" fill="#00A0DF" r="0.05"/>
<circle cx="2.0646" cy="-0.3779" fill="#C11A00" r="0.05"/>
<circle cx="-0.2646" cy="2.0022" fill="#FFBE0E" r="0.05"/>
<circle cx="-0.3" cy="0.3505" fill="#C11A00" r="0.05"/>
<circle cx="-0.3527" cy="-0.1349" fill="#C11A00" r="0.05"/>
<circle cx="2.25" cy="-0.3486" fill="#C11A00" r="0.05"/>
<circle cx="-0.3973" cy="2.1349" fill="#FFBE0E" r="0.05"/>
<circle cx="-1.65" cy="1.6495" fill="#37BB00" r="0.05"/>
<circle cx="0.3527" cy="0.8359" fill="#C11A00" r="0.05"/>
<circle cx="1.0146" cy="-0.0022" fill="#0433FF" r="0.05"/>
<circle cx="1.95" cy="-0.9486" fill="#C11A00" r="0.05"/>
<circle cx="1.5" cy="0.9505" fill="#0433FF" r="0.05"/>
<circle cx="2.4927" cy="-0.7722" fill="#C11A00" r="0.05"/>
<circle cx="0" cy="0.3505" fill="#0433FF" r="0.05"/>
<circle cx="1.6794" cy="-0.7631" fill="#0433FF" r="0.05"/>
<circle cx="2.0706" cy="0.1651" fill="#0433FF" r="0.05"/>
</g>
<g fill="#C11A00">
<line stroke="#C11A00" stroke-width="0.01" x1="0.02079547" x2="0" y1="0.94718724" y2="0.95048094"/>
<polygon points="-0.024692206 0.95439184 0.015733028 0.96990955 0.008959177 0.9271414" stroke="black" stroke-width="0.005"/>
<text class="fleet" text-anchor="middle" x="0" y="0.9629809">
40
</text>
<line stroke="#C11A00" stroke-width="0.01" x1="2.0477457" x2="2.007295" y1="-0.8016108" y2="-0.77222157"/>
<line stroke="#C11A00" stroke-width="0.01" x1="2.007295" x2="1.6854" y1="-0.77222157" y2="-0.2202"/>
<line stroke="#C11A00" stroke-width="0.01" x1="1.6854" x2="1.5" y1="-0.2202" y2="0.3505"/>
<line stroke="#C11A00" stroke-width="0.01" x1="1.5" x2="1.2" y1="0.3505" y2="0.3505"/>
<line stroke="#C11A00" stroke-width="0.01" x1="1.2" x2="0.6" y1="0.3505" y2="0.3505"/>
<line stroke="#C11A00" stroke-width="0.01" x1="0.6" x2="0" y1="0.3505" y2="0.3505"/>
<polygon points="1.9947015 -0.7506251 2.0322948 -0.7721137 1.9948884 -0.79392594" stroke="black" stroke-width="0.005"/>
<text class="fleet" text-anchor="middle" x="2.007295" y="-0.7597216">
93
</text>
<line stroke="#C11A00" stroke-width="0.01" x1="0.12154045" x2="0.0927051" y1="0.04296972" y2="0.06516399"/>
<line stroke="#C11A00" stroke-width="0.01" x1="0.0927051" x2="-0.2427" y1="0.06516399" y2="0.5268"/>
<polygon points="0.07801027 0.08538927 0.11756812 0.06777745 0.082536906 0.04232526" stroke="black" stroke-width="0.005"/>
<text class="fleet" text-anchor="middle" x="0.0927051" y="0.077663995">
99
</text>
<line stroke="#C11A00" stroke-width="0.01" x1="-0.29420793" x2="-0.3" y1="0.3326548" y2="0.35048094"/>
<polygon points="-0.30772546 0.37425736 -0.2755463 0.34528318 -0.31672826 0.33190233" stroke="black" stroke-width="0.005"/>
<text class="fleet" text-anchor="middle" x="-0.3" y="0.36298093">
46
</text>
<line stroke="#C11A00" stroke-width="0.01" x1="2.0477457" x2="2.007295" y1="-0.8016108" y2="-0.77222157"/>
<line stroke="#C11A00" stroke-width="0.01" x1="2.007295" x2="2.25" y1="-0.77222157" y2="-0.9486"/>
<line stroke="#C11A00" stroke-width="0.01" x1="2.25" x2="2.0073" y1="-0.9486" y2="-0.7722"/>
<polygon points="2.0275185 -0.7869185 1.9844551 -0.7823873 2.009911 -0.7473588" stroke="black" stroke-width="0.005"/>
<text class="fleet" text-anchor="middle" x="2.007295" y="-0.7597216">
1
</text>
<line stroke="#C11A00" stroke-width="0.01" x1="0.4786684" x2="0.4854102" y1="0.00270801" y2="-0.0021902"/>
<line stroke="#C11A00" stroke-width="0.01" x1="0.4854102" x2="0.3527" y1="-0.0021902" y2="0.8359"/>
<polygon points="0.4815002 0.022502147 0.5087494 -0.011150225 0.465981 -0.017922524" stroke="black" stroke-width="0.005"/>
<text class="fleet" text-anchor="middle" x="0.4854102" y="0.0103098005">
100
</text>
<line stroke="#C11A00" stroke-width="0.01" x1="0.09528024" x2="0.0927051" y1="0.64372337" y2="0.6357979"/>
<polygon points="0.08497967 0.6120215 0.07597685 0.65437657 0.11715879 0.6409957" stroke="black" stroke-width="0.005"/>
<text class="fleet" text-anchor="middle" x="0.0927051" y="0.6482979">
56
</text>
<line stroke="#C11A00" stroke-width="0.01" x1="1.5704584" x2="1.602442" y1="-0.43379366" y2="-0.46049872"/>
<line stroke="#C11A00" stroke-width="0.01" x1="1.602442" x2="1.7646" y1="-0.46049872" y2="-0.5959"/>
<line stroke="#C11A00" stroke-width="0.01" x1="1.7646" x2="1.3146" y1="-0.5959" y2="-0.2202"/>
<polygon points="1.6216319 -0.47652215 1.5789704 -0.46910587 1.6067238 -0.4358681" stroke="black" stroke-width="0.005"/>
<text class="fleet" text-anchor="middle" x="1.602442" y="-0.44799873">
1
</text>
<line stroke="#C11A00" stroke-width="0.01" x1="0.00674181" x2="0" y1="0.34558275" y2="0.35048094"/>
<polygon points="-0.020225454 0.36517555 0.022838619 0.3606494 -0.0026131694 0.32561788" stroke="black" stroke-width="0.005"/>
<text class="fleet" text-anchor="middle" x="0" y="0.36298093">
250
</text>
<line stroke="#C11A00" stroke-width="0.01" x1="0.49268326" x2="0.5343463" y1="0.17084177" y2="0.17029116"/>
<line stroke="#C11A00" stroke-width="0.01" x1="0.5343463" x2="0.9294" y1="0.17029116" y2="0.1651"/>
<line stroke="#C11A00" stroke-width="0.01" x1="0.9294" x2="0.6" y1="0.1651" y2="0.3505"/>
<polygon points="0.5593441 0.16996267 0.5215629 0.14880663 0.52213186 0.19210416" stroke="black" stroke-width="0.005"/>
<text class="fleet" text-anchor="middle" x="0.5343463" y="0.18279116">
1
</text>
<line stroke="#C11A00" stroke-width="0.01" x1="1.1945311" x2="1.2239939" y1="-0.10009429" y2="-0.12955707"/>
<line stroke="#C11A00" stroke-width="0.01" x1="1.2239939" x2="1.3146" y1="-0.12955707" y2="-0.2202"/>
<line stroke="#C11A00" stroke-width="0.01" x1="1.3146" x2="1.5" y1="-0.2202" y2="0.3505"/>
<polygon points="1.241668 -0.14723833 1.1998445 -0.13602263 1.2304692 -0.10541024" stroke="black" stroke-width="0.005"/>
<text class="fleet" text-anchor="middle" x="1.2239939" y="-0.11705707">
1
</text>
<line stroke="#C11A00" stroke-width="0.01" x1="1.0494248" x2="1.019962" y1="0.04501208" y2="0.07447486"/>
<line stroke="#C11A00" stroke-width="0.01" x1="1.019962" x2="0.9294" y1="0.07447486" y2="0.1651"/>
<line stroke="#C11A00" stroke-width="0.01" x1="0.9294" x2="1.2" y1="0.1651" y2="0.3505"/>
<polygon points="1.0022905 0.0921587 1.0441123 0.08093691 1.013483 0.050328977" stroke="black" stroke-width="0.005"/>
<text class="fleet" text-anchor="middle" x="1.019962" y="0.08697487">
215
</text>
<line stroke="#C11A00" stroke-width="0.01" x1="1.5087211" x2="1.4767376" y1="-0.38224533" y2="-0.35554025"/>
<line stroke="#C11A00" stroke-width="0.01" x1="1.4767376" x2="1.3146" y1="-0.35554025" y2="-0.2202"/>
<line stroke="#C11A00" stroke-width="0.01" x1="1.3146" x2="1.7646" y1="-0.2202" y2="-0.5959"/>
<polygon points="1.4575453 -0.3395199 1.5002079 -0.34692934 1.4724598 -0.38017154" stroke="black" stroke-width="0.005"/>
<text class="fleet" text-anchor="middle" x="1.4767376" y="-0.34304026">
1
</text>
<line stroke="#C11A00" stroke-width="0.01" x1="2.0005531" x2="2.007295" y1="-0.7673234" y2="-0.77222157"/>
<line stroke="#C11A00" stroke-width="0.01" x1="2.007295" x2="1.7646" y1="-0.77222157" y2="-0.5959"/>
<line stroke="#C11A00" stroke-width="0.01" x1="1.7646" x2="2.0073" y1="-0.5959" y2="-0.7722"/>
<polygon points="1.9870692 -0.7575273 2.0301332 -0.7620528 2.004682 -0.7970846" stroke="black" stroke-width="0.005"/>
<text class="fleet" text-anchor="middle" x="2.007295" y="-0.7597216">
94
</text>
</g>
<g fill="#00A0DF">
<line stroke="#00A0DF" stroke-width="0.01" x1="-1.4742485" x2="-1.4613729" y1="2.8693025" y2="2.8296752"/>
<line stroke="#00A0DF" stroke-width="0.01" x1="-1.4613729" x2="-1.4073" y1="2.8296752" y2="2.6632"/>
<polygon points="-1.4536498 2.805898 -1.485826 2.8348753 -1.4446428 2.848252" stroke="black" stroke-width="0.005"/>
<text class="fleet" text-anchor="middle" x="-1.4613729" y="2.8421752">
259
</text>
<line stroke="#00A0DF" stroke-width="0.01" x1="-0.7014667" x2="-0.66803294" y1="1.836542" y2="1.8116764"/>
<line stroke="#00A0DF" stroke-width="0.01" x1="-0.66803294" x2="-0.45" y1="1.8116764" y2="1.6495"/>
<polygon points="-0.64797354 1.7967559 -0.6909842 1.8017647 -0.6651411 1.8365085" stroke="black" stroke-width="0.005"/>
<text class="fleet" text-anchor="middle" x="-0.66803294" y="1.8241764">
759
</text>
<line stroke="#00A0DF" stroke-width="0.01" x1="-1.7916666" x2="-1.8" y1="2.9485571" y2="2.9485571"/>
<polygon points="-1.8249999 2.9485571 -1.7874999 2.9702077 -1.7874999 2.9269066" stroke="black" stroke-width="0.005"/>
<text class="fleet" text-anchor="middle" x="-1.8" y="2.9610572">
14
</text>
<line stroke="#00A0DF" stroke-width="0.01" x1="-1.2640367" x2="-1.2572949" y1="3.1199944" y2="3.1248927"/>
<polygon points="-1.2370696 3.1395876 -1.2546813 3.1000297 -1.2801336 3.1350608" stroke="black" stroke-width="0.005"/>
<text class="fleet" text-anchor="middle" x="-1.2572949" y="3.1373928">
16
</text>
<line stroke="#00A0DF" stroke-width="0.01" x1="-1.5741599" x2="-1.5404508" y1="3.0024374" y2="2.9779465"/>
<line stroke="#00A0DF" stroke-width="0.01" x1="-1.5404508" x2="-1.5" y1="2.9779465" y2="2.9486"/>
<polygon points="-1.5202153 2.963266 -1.5632824 2.9677622 -1.5378548 3.0028114" stroke="black" stroke-width="0.005"/>
<text class="fleet" text-anchor="middle" x="-1.5404508" y="2.9904466">
24
</text>
</g>
<g fill="#FFBE0E">
<line stroke="#FFBE0E" stroke-width="0.01" x1="-0.69738275" x2="-0.6572949" y1="1.9395065" y2="1.934836"/>
<line stroke="#FFBE0E" stroke-width="0.01" x1="-0.6572949" x2="-0.5073" y1="1.934836" y2="1.8259"/>
<line stroke="#FFBE0E" stroke-width="0.01" x1="-0.5073" x2="-0.45" y1="1.8259" y2="1.6495"/>
<line stroke="#FFBE0E" stroke-width="0.01" x1="-0.45" x2="-0.5073" y1="1.6495" y2="1.8259"/>
<line stroke="#FFBE0E" stroke-width="0.01" x1="-0.5073" x2="-0.6573" y1="1.8259" y2="1.9348"/>
<polygon points="-0.63706684 1.920145 -0.68013173 1.9246634 -0.6546862 1.9596995" stroke="black" stroke-width="0.005"/>
<text class="fleet" text-anchor="middle" x="-0.6572949" y="1.9473361">
1
</text>
<line stroke="#FFBE0E" stroke-width="0.01" x1="-0.3771146" x2="-0.39732885" y1="1.1409304" y2="1.1641089"/>
<polygon points="-0.41376066 1.1829503 -0.37279588 1.1689186 -0.40543005 1.1404579" stroke="black" stroke-width="0.005"/>
<text class="fleet" text-anchor="middle" x="-0.39732885" y="1.1766089">
148
</text>
<line stroke="#FFBE0E" stroke-width="0.01" x1="-0.82396156" x2="-0.8427051" y1="1.3642021" y2="1.3642021"/>
<line stroke="#FFBE0E" stroke-width="0.01" x1="-0.8427051" x2="-0.6573" y1="1.3642021" y2="1.3642"/>
<line stroke="#FFBE0E" stroke-width="0.01" x1="-0.6573" x2="-0.5073" y1="1.3642" y2="1.4732"/>
<line stroke="#FFBE0E" stroke-width="0.01" x1="-0.5073" x2="-0.6573" y1="1.4732" y2="1.3642"/>
<line stroke="#FFBE0E" stroke-width="0.01" x1="-0.6573" x2="-0.8427" y1="1.3642" y2="1.3642"/>
<polygon points="-0.8177051 1.3642019 -0.85520536 1.3425517 -0.8552048 1.3858529" stroke="black" stroke-width="0.005"/>
<text class="fleet" text-anchor="middle" x="-0.8427051" y="1.3767022">
52
</text>
<line stroke="#FFBE0E" stroke-width="0.01" x1="-1.0442079" x2="-1.05" y1="1.6673452" y2="1.6495191"/>
<line stroke="#FFBE0E" stroke-width="0.01" x1="-1.05" x2="-0.9927" y1="1.6495191" y2="1.4732"/>
<line stroke="#FFBE0E" stroke-width="0.01" x1="-0.9927" x2="-0.9927" y1="1.4732" y2="1.8259"/>
<line stroke="#FFBE0E" stroke-width="0.01" x1="-0.9927" x2="-1.05" y1="1.8259" y2="1.6495"/>
<polygon points="-1.0422733 1.625743 -1.074454 1.6547155 -1.0332726 1.6680986" stroke="black" stroke-width="0.005"/>
<text class="fleet" text-anchor="middle" x="-1.05" y="1.6620191">
1
</text>
<line stroke="#FFBE0E" stroke-width="0.01" x1="-0.1793661" x2="-0.1793661" y1="1.8349292" y2="1.8349292"/>
<line stroke="#FFBE0E" stroke-width="0.01" x1="-0.1793661" x2="-0.2646" y1="1.8349292" y2="2.0022"/>
<line stroke="#FFBE0E" stroke-width="0.01" x1="-0.2646" x2="-0.3973" y1="2.0022" y2="2.1349"/>
<line stroke="#FFBE0E" stroke-width="0.01" x1="-0.3973" x2="-0.5646" y1="2.1349" y2="2.2202"/>
<line stroke="#FFBE0E" stroke-width="0.01" x1="-0.5646" x2="-0.1794" y1="2.2202" y2="1.8349"/>
<polygon points="-0.19071642 1.8572041 -0.15440032 1.8336215 -0.19298156 1.8139621" stroke="black" stroke-width="0.005"/>
<text class="fleet" text-anchor="middle" x="-0.1793661" y="1.8474293">
21
</text>
<line stroke="#FFBE0E" stroke-width="0.01" x1="-1.0442079" x2="-1.05" y1="1.6316929" y2="1.6495191"/>
<line stroke="#FFBE0E" stroke-width="0.01" x1="-1.05" x2="-1.3206" y1="1.6495191" y2="1.4641"/>
<polygon points="-1.0706229 1.6353879 -1.0519264 1.6744448 -1.0274504 1.6387246" stroke="black" stroke-width="0.005"/>
<text class="fleet" text-anchor="middle" x="-1.05" y="1.6620191">
1
</text>
<line stroke="#FFBE0E" stroke-width="0.01" x1="-0.40952626" x2="-0.39732885" y1="1.1983913" y2="1.1641089"/>
<polygon points="-0.38894868 1.1405553 -0.42191696 1.1686282 -0.38112092 1.1831431" stroke="black" stroke-width="0.005"/>
<text class="fleet" text-anchor="middle" x="-0.39732885" y="1.1766089">
1
</text>
<line stroke="#FFBE0E" stroke-width="0.01" x1="-1.0995877" x2="-1.1026711" y1="1.1636205" y2="1.1641089"/>
<polygon points="-1.1273633 1.1680199 -1.086938 1.1835374 -1.0937122 1.1407692" stroke="black" stroke-width="0.005"/>
<text class="fleet" text-anchor="middle" x="-1.1026711" y="1.1766089">
1
</text>
<line stroke="#FFBE0E" stroke-width="0.01" x1="-0.20417006" x2="-0.1854102" y1="0.91155624" y2="0.92111486"/>
<polygon points="-0.16313504 0.9324646 -0.18671861 0.8961491 -0.20637695 0.9347308" stroke="black" stroke-width="0.005"/>
<text class="fleet" text-anchor="middle" x="-0.1854102" y="0.93361485">
125
</text>
<line stroke="#FFBE0E" stroke-width="0.01" x1="-1.2245029" x2="-1.2354102" y1="1.9814433" y2="2.00219"/>
<polygon points="-1.2470437 2.0243185 -1.2104298 2.001201 -1.2487571 1.981051" stroke="black" stroke-width="0.005"/>
<text class="fleet" text-anchor="middle" x="-1.2354102" y="2.0146902">
1
</text>
<line stroke="#FFBE0E" stroke-width="0.01" x1="-0.8979231" x2="-0.9354102" y1="2.2201529" y2="2.2201529"/>
<polygon points="-0.9604102 2.2201529 -0.9229102 2.2418034 -0.9229102 2.1985023" stroke="black" stroke-width="0.005"/>
<text class="fleet" text-anchor="middle" x="-0.9354102" y="2.232653">
1
</text>
</g>
<g fill="#37BB00">
<line stroke="#37BB00" stroke-width="0.01" x1="-2.0518632" x2="-2.0122359" y1="1.5851405" y2="1.5722648"/>
<line stroke="#37BB00" stroke-width="0.01" x1="-2.0122359" x2="-1.6794" y1="1.5722648" y2="1.4641"/>
<polygon points="-1.9884598 1.5645381 -2.0308154 1.5555376 -2.0174325 1.5967188" stroke="black" stroke-width="0.005"/>
<text class="fleet" text-anchor="middle" x="-2.0122359" y="1.5847648">
359
</text>
<line stroke="#37BB00" stroke-width="0.01" x1="-1.6424018" x2="-1.6054376" y1="1.4448799" y2="1.4256508"/>
<line stroke="#37BB00" stroke-width="0.01" x1="-1.6054376" x2="-1.1027" y1="1.4256508" y2="1.1641"/>
<polygon points="-1.5832595 1.4141126 -1.6265191 1.4122131 -1.6065342 1.4506267" stroke="black" stroke-width="0.005"/>
<text class="fleet" text-anchor="middle" x="-1.6054376" y="1.4381509">
1
</text>
<line stroke="#37BB00" stroke-width="0.01" x1="-1.2723598" x2="-1.2353593" y1="1.2533592" y2="1.2342001"/>
<line stroke="#37BB00" stroke-width="0.01" x1="-1.2353593" x2="-0.9354" y1="1.2342001" y2="1.0789"/>
<polygon points="-1.2131584 1.2227058 -1.256414 1.2207206 -1.2365055 1.2591739" stroke="black" stroke-width="0.005"/>
<text class="fleet" text-anchor="middle" x="-1.2353593" y="1.2467002">
671
</text>
<line stroke="#37BB00" stroke-width="0.01" x1="-0.49706414" x2="-0.4854102" y1="0.7184079" y2="0.7031521"/>
<polygon points="-0.47023404 0.6832855 -0.5102033 0.6999425 -0.47579327 0.7262284" stroke="black" stroke-width="0.005"/>
<text class="fleet" text-anchor="middle" x="-0.4854102" y="0.7156521">
1
</text>
<line stroke="#37BB00" stroke-width="0.01" x1="-0.7688222" x2="-0.7354373" y1="0.91479784" y2="0.88986677"/>
<line stroke="#37BB00" stroke-width="0.01" x1="-0.7354373" x2="-0.4854" y1="0.88986677" y2="0.7032"/>
<polygon points="-0.7154042 0.87491095 -0.7584059 0.8799955 -0.7325017 0.91469383" stroke="black" stroke-width="0.005"/>
<text class="fleet" text-anchor="middle" x="-0.7354373" y="0.90236676">
149
</text>
<line stroke="#37BB00" stroke-width="0.01" x1="-2.391578" x2="-2.357869" y1="1.7523814" y2="1.7278904"/>
<line stroke="#37BB00" stroke-width="0.01" x1="-2.357869" x2="-2.25" y1="1.7278904" y2="1.6495"/>
<polygon points="-2.3376453 1.7131934 -2.3807087 1.7177246 -2.3552527 1.7527531" stroke="black" stroke-width="0.005"/>
<text class="fleet" text-anchor="middle" x="-2.357869" y="1.7403904">
12
</text>
</g>
<g fill="#E16200"/>
<g fill="#0433FF">
<line stroke="#0433FF" stroke-width="0.01" x1="-0.35664618" x2="-0.39627355" y1="0.23459958" y2="0.22172387"/>
<line stroke="#0433FF" stroke-width="0.01" x1="-0.39627355" x2="-0.5706" y1="0.22172387" y2="0.1651"/>
<polygon points="-0.4200507 0.2140007 -0.39107344 0.24617706 -0.3776965 0.20499384" stroke="black" stroke-width="0.005"/>
<text class="fleet" text-anchor="middle" x="-0.39627355" y="0.23422387">
36
</text>
<line stroke="#0433FF" stroke-width="0.01" x1="0.375" x2="0.5" y1="0.35048094" y2="0.35048094"/>
<line stroke="#0433FF" stroke-width="0.01" x1="0.5" x2="0.6" y1="0.35048094" y2="0.3505"/>
<polygon points="0.525 0.3504857 0.48750412 0.32882792 0.4874959 0.3721292" stroke="black" stroke-width="0.005"/>
<text class="fleet" text-anchor="middle" x="0.5" y="0.36298093">
1
</text>
<line stroke="#0433FF" stroke-width="0.01" x1="1.4227457" x2="1.40987" y1="0.11271682" y2="0.07308946"/>
<line stroke="#0433FF" stroke-width="0.01" x1="1.40987" x2="1.4073" y1="0.07308946" y2="0.0652"/>
<polygon points="1.4021267 0.049318887 1.3931558 0.09168072 1.4343276 0.07826877" stroke="black" stroke-width="0.005"/>
<text class="fleet" text-anchor="middle" x="1.40987" y="0.08558946">
1
</text>
<line stroke="#0433FF" stroke-width="0.01" x1="1.2" x2="1.075" y1="0.35048094" y2="0.35048094"/>
<line stroke="#0433FF" stroke-width="0.01" x1="1.075" x2="0.6" y1="0.35048094" y2="0.3505"/>
<polygon points="1.0500001 0.35048196 1.0875009 0.37213108 1.0874991 0.3288298" stroke="black" stroke-width="0.005"/>
<text class="fleet" text-anchor="middle" x="1.075" y="0.36298093">
51
</text>
<line stroke="#0433FF" stroke-width="0.01" x1="0.95" x2="0.825" y1="0.35048094" y2="0.35048094"/>
<line stroke="#0433FF" stroke-width="0.01" x1="0.825" x2="0.6" y1="0.35048094" y2="0.3505"/>
<polygon points="0.8 0.35048306 0.8375018 0.3721305 0.8374981 0.32882926" stroke="black" stroke-width="0.005"/>
<text class="fleet" text-anchor="middle" x="0.825" y="0.36298093">
198
</text>
<line stroke="#0433FF" stroke-width="0.01" x1="0.69166666" x2="0.65" y1="0.35048094" y2="0.35048094"/>
<line stroke="#0433FF" stroke-width="0.01" x1="0.65" x2="0.6" y1="0.35048094" y2="0.3505"/>
<polygon points="0.625 0.35049048 0.66250825 0.37212682 0.66249174 0.32882553" stroke="black" stroke-width="0.005"/>
<text class="fleet" text-anchor="middle" x="0.65" y="0.36298093">
34
</text>
<line stroke="#0433FF" stroke-width="0.01" x1="1.6601232" x2="1.6938323" y1="0.5868158" y2="0.56232476"/>
<line stroke="#0433FF" stroke-width="0.01" x1="1.6938323" x2="1.7427" y1="0.56232476" y2="0.5268"/>
<polygon points="1.7140538 0.54762465 1.6709908 0.5521626 1.6964523 0.5871871" stroke="black" stroke-width="0.005"/>
<text class="fleet" text-anchor="middle" x="1.6938323" y="0.57482475">
13
</text>
<line stroke="#0433FF" stroke-width="0.01" x1="0.2613729" x2="0.24849717" y1="0.469363" y2="0.50899035"/>
<line stroke="#0433FF" stroke-width="0.01" x1="0.24849717" x2="0.2427" y1="0.50899035" y2="0.5268"/>
<polygon points="0.2407591 0.53276265 0.27295363 0.5038056 0.23177879 0.49040285" stroke="black" stroke-width="0.005"/>
<text class="fleet" text-anchor="middle" x="0.24849717" y="0.52149034">
25
</text>
</g>
<g class="star">
<text text-anchor="middle" x="-1.5927" y="3.1589">
Mekbuda
</text>
<text text-anchor="middle" x="-0.0927" y="0.5608">
Elons Mistakes Mistake
</text>
<text text-anchor="middle" x="1.5" y="0.2755">
Acamar
</text>
<text text-anchor="middle" x="-2.85" y="1.5745">
Azimech
</text>
<text text-anchor="middle" x="1.8973" y="-1.5090001">
Ocon
</text>
<text text-anchor="middle" x="-0.9927" y="1.3981999">
Altais
</text>
<text text-anchor="middle" x="1.7427" y="0.4518">
Kajam
</text>
<text text-anchor="middle" x="2.7354" y="-1.3762001">
Latifi
</text>
<text text-anchor="middle" x="-2.0706" y="3.059">
Albali
</text>
<text text-anchor="middle" x="-2.7354" y="1.2218">
Tag
</text>
<text text-anchor="middle" x="-1.0146" y="2.5209">
Yay
</text>
<text text-anchor="middle" x="-1.6854" y="2.3028998">
Alcor
</text>
<text text-anchor="middle" x="2.85" y="-1.0236">
Prost
</text>
<text text-anchor="middle" x="1.7646" y="-1.3762001">
Earnhardt
</text>
<text text-anchor="middle" x="1.4073" y="0.5608">
Decrux
</text>
<text text-anchor="middle" x="-2.4927" y="1.3981999">
Propus
</text>
<text text-anchor="middle" x="-2.0646" y="1.0038999">
Rotanev
</text>
<text text-anchor="middle" x="1.1473" y="0.7609">
Rukh
</text>
<text text-anchor="middle" x="0.1854" y="0.84610003">
Letty Ortiz
</text>
<text text-anchor="middle" x="-1.2354" y="1.9271998">
Cheleb
</text>
<text text-anchor="middle" x="-1.3146" y="3.4442">
Media
</text>
<text text-anchor="middle" x="-2.3427" y="1.8598">
Askella
</text>
<text text-anchor="middle" x="2.8206" y="-0.8381">
Jolyon
</text>
<text text-anchor="middle" x="2.0073" y="-1.1999">
Sainz
</text>
<text text-anchor="middle" x="-0.4854" y="-0.0772">
Speed Racer
</text>
<text text-anchor="middle" x="-0.5073" y="1.3981999">
Murzim
</text>
<text text-anchor="middle" x="-1.8973" y="1.0891">
Segin
</text>
<text text-anchor="middle" x="-2.0646" y="2.1452">
Tab
</text>
<text text-anchor="middle" x="0.5706" y="0.09009999">
Diesel
</text>
<text text-anchor="middle" x="2.0706" y="0.4609">
Adhara
</text>
<text text-anchor="middle" x="-1.05" y="1.5745">
Sasin
</text>
<text text-anchor="middle" x="-2.3427" y="1.2892">
Schedir
</text>
<text text-anchor="middle" x="1.8527" y="-0.2099">
Andretti
</text>
<text text-anchor="middle" x="-2.25" y="1.5745">
Castor
</text>
<text text-anchor="middle" x="0.2427" y="0.09909999">
Han SeoulO
</text>
<text text-anchor="middle" x="-2.55" y="1.5745">
Dabih
</text>
<text text-anchor="middle" x="-0.2427" y="0.09909999">
Hobbs
</text>
<text text-anchor="middle" x="-0.5706" y="0.09009999">
Elm
</text>
<text text-anchor="middle" x="0.0927" y="0.5608">
Tenuerit
</text>
<text text-anchor="middle" x="0.3527" y="-0.2099">
Roman
</text>
<text text-anchor="middle" x="-0.2646" y="1.2218">
Lanx
</text>
<text text-anchor="middle" x="-2.0706" y="2.6880999">
Kaus
</text>
<text text-anchor="middle" x="-1.2573" y="3.0499">
Mira
</text>
<text text-anchor="middle" x="2.25" y="-1.0236">
Alonso
</text>
<text text-anchor="middle" x="2.55" y="-1.0236">
Hamilton
</text>
<text text-anchor="middle" x="-2.1573" y="1.8598">
Algieba
</text>
<text text-anchor="middle" x="-2.8206" y="1.7599">
Sabik
</text>
<text text-anchor="middle" x="2.1" y="0.2755">
Alamak
</text>
<text text-anchor="middle" x="-1.3206" y="1.3891">
Mirzam
</text>
<text text-anchor="middle" x="-0.75" y="2.1745">
Arkab
</text>
<text text-anchor="middle" x="1.5" y="-0.32450002">
Theemin
</text>
<text text-anchor="middle" x="-1.2573" y="2.6972">
Talitha
</text>
<text text-anchor="middle" x="-1.5" y="2.2735999">
Aldhanab
</text>
<text text-anchor="middle" x="-1.5" y="3.4736">
Alniyat
</text>
<text text-anchor="middle" x="-2.4354" y="1.0038999">
AlGiedi
</text>
<text text-anchor="middle" x="-1.1027" y="2.0599">
Cox
</text>
<text text-anchor="middle" x="-1.2" y="2.8736">
Mintaka
</text>
<text text-anchor="middle" x="-2.25" y="2.1745">
Garnet
</text>
<text text-anchor="middle" x="-1.7427" y="2.6972">
Mud
</text>
<text text-anchor="middle" x="-2.1573" y="1.2892">
Sky
</text>
<text text-anchor="middle" x="-0.9294" y="3.059">
Bam
</text>
<text text-anchor="middle" x="0.1854" y="-0.2952">
Baby
</text>
<text text-anchor="middle" x="-1.35" y="1.5745">
Sadalmelik
</text>
<text text-anchor="middle" x="-1.8" y="2.8736">
Rukbat
</text>
<text text-anchor="middle" x="-0.4854" y="0.6282">
Misam
</text>
<text text-anchor="middle" x="2.4927" y="-1.1999">
Stewart
</text>
<text text-anchor="middle" x="-0.45" y="1.5745">
Alnasl
</text>
<text text-anchor="middle" x="-2.6027" y="2.0599">
Mizar
</text>
<text text-anchor="middle" x="1.7427" y="0.09909999">
Vindemiatrix
</text>
<text text-anchor="middle" x="1.8527" y="0.7609">
Alwaid
</text>
<text text-anchor="middle" x="1.3146" y="-0.2952">
Grosjean
</text>
<text text-anchor="middle" x="0.4854" y="0.6282">
Hammond
</text>
<text text-anchor="middle" x="-1.3146" y="2.3028998">
Proxima
</text>
<text text-anchor="middle" x="1.5927" y="0.5608">
Alphecca
</text>
<text text-anchor="middle" x="0.0927" y="-0.009800002">
Gisele
</text>
<text text-anchor="middle" x="0.9294" y="0.4609">
Salm
</text>
<text text-anchor="middle" x="2.7354" y="-0.6709">
Perez
</text>
<text text-anchor="middle" x="1.0146" y="0.6282">
Sargas
</text>
<text text-anchor="middle" x="1.6794" y="-1.209">
Earnhardt Jr
</text>
<text text-anchor="middle" x="-0.9" y="2.8736">
Sun
</text>
<text text-anchor="middle" x="-1.1027" y="1.0891">
Pure Pax
</text>
<text text-anchor="middle" x="0.6" y="0.2755">
Alzir
</text>
<text text-anchor="middle" x="1.8" y="0.2755">
Enif
</text>
<text text-anchor="middle" x="0.5706" y="0.4609">
Clarkson
</text>
<text text-anchor="middle" x="-0.9354" y="2.1452">
Gatria
</text>
<text text-anchor="middle" x="2.4354" y="-0.4529">
Mansell
</text>
<text text-anchor="middle" x="-0.9354" y="1.0038999">
Mac
</text>
<text text-anchor="middle" x="-1.1473" y="2.3881">
Yed
</text>
<text text-anchor="middle" x="-1.6794" y="1.3891">
Errai
</text>
<text text-anchor="middle" x="1.8973" y="-0.5381">
Vettel
</text>
<text text-anchor="middle" x="1.2573" y="0.4518">
Aladfar
</text>
<text text-anchor="middle" x="0.9" y="0.2755">
Ras
</text>
<text text-anchor="middle" x="-0.5706" y="0.4609">
Pax
</text>
<text text-anchor="middle" x="0.2427" y="0.4518">
Tegmen
</text>
<text text-anchor="middle" x="1.3146" y="0.84610003">
Mimosa
</text>
<text text-anchor="middle" x="1.65" y="-1.0236">
Earnhardt Jr Jr
</text>
<text text-anchor="middle" x="-0.75" y="1.5745">
Hassaleh
</text>
<text text-anchor="middle" x="-0.6" y="0.2755">
Ale
</text>
<text text-anchor="middle" x="-0.8427" y="1.2892">
Rub
</text>
<text text-anchor="middle" x="-2.4927" y="1.7508999">
Tic
</text>
<text text-anchor="middle" x="-1.8527" y="2.3881">
Tejat
</text>
<text text-anchor="middle" x="-2.25" y="0.9745">
Chi
</text>
<text text-anchor="middle" x="-1.7646" y="1.9271998">
Syrma
</text>
<text text-anchor="middle" x="-1.5927" y="2.5881999">
Menchib
</text>
<text text-anchor="middle" x="-0.1794" y="1.7599">
Sulafat
</text>
<text text-anchor="middle" x="1.4073" y="-0.009800002">
Mebsuta
</text>
<text text-anchor="middle" x="1.9854" y="-0.0772">
Aludra
</text>
<text text-anchor="middle" x="-1.2354" y="1.2218">
Dschubba
</text>
<text text-anchor="middle" x="-1.6854" y="3.4442">
Dnoces
</text>
<text text-anchor="middle" x="2.6027" y="-1.5090001">
Toretto
</text>
<text text-anchor="middle" x="1.7646" y="-0.6709">
Adam Driver
</text>
<text text-anchor="middle" x="1.1473" y="-0.2099">
Merope
</text>
<text text-anchor="middle" x="1.5927" y="-0.009800002">
Alya
</text>
<text text-anchor="middle" x="1.2" y="0.2755">
Alcyone
</text>
<text text-anchor="middle" x="-1.8973" y="2.0599">
Asellus
</text>
<text text-anchor="middle" x="-0.5073" y="1.7508999">
Zit
</text>
<text text-anchor="middle" x="-0.15" y="1.5745">
Alpheratz
</text>
<text text-anchor="middle" x="-2.0073" y="1.7508999">
Sham
</text>
<text text-anchor="middle" x="-2.8206" y="1.3891">
Zoo
</text>
<text text-anchor="middle" x="-0.8427" y="1.8598">
Marfark
</text>
<text text-anchor="middle" x="0" y="0.8755">
Mia
</text>
<text text-anchor="middle" x="2.1573" y="-0.7382">
Senna
</text>
<text text-anchor="middle" x="0.4854" y="-0.0772">
Pile
</text>
<text text-anchor="middle" x="-0.2427" y="0.4518">
Terram
</text>
<text text-anchor="middle" x="-0.3527" y="0.7609">
Polaris
</text>
<text text-anchor="middle" x="-0.1854" y="-0.2952">
Jason Momoa
</text>
<text text-anchor="middle" x="2.0073" y="-0.8472">
Schumacher
</text>
<text text-anchor="middle" x="-0.5646" y="1.0038999">
Regulus
</text>
<text text-anchor="middle" x="-0.3973" y="1.0891">
Dux
</text>
<text text-anchor="middle" x="0.9294" y="0.09009999">
RIP Paul Walker
</text>
<text text-anchor="middle" x="-0.0927" y="-0.009800002">
Shaw
</text>
<text text-anchor="middle" x="0.3" y="0.2755">
Qui
</text>
<text text-anchor="middle" x="2.1573" y="-1.3089">
Verstappen
</text>
<text text-anchor="middle" x="-2.7354" y="1.9271998">
Marfik
</text>
<text text-anchor="middle" x="2.3427" y="-1.3089">
Petty
</text>
<text text-anchor="middle" x="-0.5646" y="2.1452">
TienKuan
</text>
<text text-anchor="middle" x="-1.7646" y="1.2218">
Alkalurops
</text>
<text text-anchor="middle" x="-2.4354" y="2.1452">
Spy
</text>
<text text-anchor="middle" x="1.2573" y="0.09909999">
Elnath
</text>
<text text-anchor="middle" x="-1.7427" y="3.0499">
Caph
</text>
<text text-anchor="middle" x="-1.6794" y="1.7599">
Wasat
</text>
<text text-anchor="middle" x="1.6854" y="0.84610003">
Keid
</text>
<text text-anchor="middle" x="-0.6573" y="1.2892">
Menkib
</text>
<text text-anchor="middle" x="-0.6573" y="1.8598">
Imp
</text>
<text text-anchor="middle" x="-0.9294" y="2.6880999">
Diphda
</text>
<text text-anchor="middle" x="-1.8527" y="3.359">
Minkar
</text>
<text text-anchor="middle" x="-0.75" y="0.9745">
Menkent
</text>
<text text-anchor="middle" x="-1.5" y="2.8736">
Almach
</text>
<text text-anchor="middle" x="-2.0073" y="1.3981999">
Denebola
</text>
<text text-anchor="middle" x="-1.1473" y="3.359">
Sheliak
</text>
<text text-anchor="middle" x="2.25" y="-1.6236">
De Vries
</text>
<text text-anchor="middle" x="2.3427" y="-0.7382">
Gordon
</text>
<text text-anchor="middle" x="-0.1794" y="1.3891">
Alfecca
</text>
<text text-anchor="middle" x="-1.0146" y="3.2261999">
Ick
</text>
<text text-anchor="middle" x="2.4354" y="-1.5942">
Johnson
</text>
<text text-anchor="middle" x="-1.95" y="1.5745">
Ksora
</text>
<text text-anchor="middle" x="-2.6027" y="1.0891">
Sarin
</text>
<text text-anchor="middle" x="2.0646" y="-1.5942">
Norris
</text>
<text text-anchor="middle" x="-1.3206" y="1.7599">
Becrux
</text>
<text text-anchor="middle" x="-0.9927" y="1.7508999">
Asp
</text>
<text text-anchor="middle" x="-1.9854" y="2.5209">
Arc
</text>
<text text-anchor="middle" x="-1.9854" y="3.2261999">
SteropeII
</text>
<text text-anchor="middle" x="1.6854" y="-0.2952">
Jaw
</text>
<text text-anchor="middle" x="0" y="-0.32450002">
Ramsey
</text>
<text text-anchor="middle" x="2.8206" y="-1.209">
Tsunoda
</text>
<text text-anchor="middle" x="2.6027" y="-0.5381">
Ricciardo
</text>
<text text-anchor="middle" x="-2.1" y="2.8736">
Pug
</text>
<text text-anchor="middle" x="-1.4073" y="2.5881999">
Neshmet
</text>
<text text-anchor="middle" x="-0.1854" y="0.84610003">
TseenKee
</text>
<text text-anchor="middle" x="1.9854" y="0.6282">
Fin
</text>
<text text-anchor="middle" x="-1.4073" y="3.1589">
Haldus
</text>
<text text-anchor="middle" x="2.0646" y="-0.4529">
Leclerc
</text>
<text text-anchor="middle" x="-0.2646" y="1.9271998">
Wazn
</text>
<text text-anchor="middle" x="-0.3" y="0.2755">
Tej
</text>
<text text-anchor="middle" x="-0.3527" y="-0.2099">
Racer X
</text>
<text text-anchor="middle" x="2.25" y="-0.42360002">
Jerry
</text>
<text text-anchor="middle" x="-0.3973" y="2.0599">
Merak
</text>
<text text-anchor="middle" x="-1.65" y="1.5745">
Biham
</text>
<text text-anchor="middle" x="0.3527" y="0.7609">
May
</text>
<text text-anchor="middle" x="1.0146" y="-0.0772">
Eltanin
</text>
<text text-anchor="middle" x="1.95" y="-1.0236">
Labonte
</text>
<text text-anchor="middle" x="1.5" y="0.8755">
Kit
</text>
<text text-anchor="middle" x="2.4927" y="-0.8472">
Villeneuve
</text>
<text text-anchor="middle" x="0" y="0.2755">
Arided
</text>
<text text-anchor="middle" x="1.6794" y="-0.8381">
Danica Patrick
</text>
<text text-anchor="middle" x="2.0706" y="0.09009999">
Sadira
</text>
</g>
</svg>