<svg viewBox="-3.4199998 -2.05832 6.84 6.11664" xmlns="http://www.w3.org/2000/svg">
<style>
.star { font: 0.05px sans-serif; fill: red; }
.fleet { font: 0.03px sans-serif; fill: white; }
</style>
<g fill="none" stroke="black" stroke-width="0.01">
<circle cx="-0.9" cy="2.9486" fill="#00A0DF" r="0.05"/>
<circle cx="1.4073" cy="0.0652" fill="#0433FF" r="0.05"/>
<circle cx="2.25" cy="-1.5486" fill="#C11A00" r="0.05"/>
<circle cx="-1.6854" cy="2.3779" fill="#00A0DF" r="0.05"/>
<circle cx="-0.5646" cy="2.2202" fill="#FFBE0E" r="0.05"/>
<circle cx="0.1854" cy="-0.2202" fill="#C11A00" r="0.05"/>
<circle cx="2.0706" cy="0.1651" fill="#0433FF" r="0.05"/>
<circle cx="-0.5706" cy="0.5359" fill="#37BB00" r="0.05"/>
<circle cx="-0.6573" cy="1.9348" fill="#FFBE0E" r="0.05"/>
<circle cx="2.85" cy="-0.9486" fill="#C11A00" r="0.05"/>
<circle cx="-1.2" cy="2.9486" fill="#00A0DF" r="0.05"/>
<circle cx="1.2573" cy="0.5268" fill="#0433FF" r="0.05"/>
<circle cx="-1.6794" cy="1.8349" fill="#37BB00" r="0.05"/>
<circle cx="-2.0073" cy="1.4732" fill="#37BB00" r="0.05"/>
<circle cx="-2.4354" cy="1.0789" fill="#37BB00" r="0.05"/>
<circle cx="0.4854" cy="0.7032" fill="#C11A00" r="0.05"/>
<circle cx="-0.4854" cy="0.7032" fill="#37BB00" r="0.05"/>
<circle cx="-2.6027" cy="2.1349" fill="#37BB00" r="0.05"/>
<circle cx="1.8527" cy="0.8359" fill="#0433FF" r="0.05"/>
<circle cx="-1.35" cy="1.6495" fill="#37BB00" r="0.05"/>
<circle cx="-0.4854" cy="-0.0022" fill="#C11A00" r="0.05"/>
<circle cx="1.6794" cy="-0.7631" fill="#0433FF" r="0.05"/>
<circle cx="-0.6" cy="0.3505" fill="#FFBE0E" r="0.05"/>
<circle cx="1.65" cy="-0.9486" fill="#C11A00" r="0.05"/>
<circle cx="1.7646" cy="-1.3012" fill="#0433FF" r="0.05"/>
<circle cx="-2.7354" cy="1.2968" fill="#37BB00" r="0.05"/>
<circle cx="-1.8973" cy="2.1349" fill="#37BB00" r="0.05"/>
<circle cx="-1.3206" cy="1.8349" fill="#FFBE0E" r="0.05"/>
<circle cx="2.8206" cy="-0.7631" fill="#C11A00" r="0.05"/>
<circle cx="1.6854" cy="-0.2202" fill="#0433FF" r="0.05"/>
<circle cx="-1.9854" cy="3.3012" fill="#00A0DF" r="0.05"/>
<circle cx="1.1473" cy="-0.1349" fill="#0433FF" r="0.05"/>
<circle cx="2.25" cy="-0.9486" fill="#C11A00" r="0.05"/>
<circle cx="1.6794" cy="-1.134" fill="#C11A00" r="0.05"/>
<circle cx="-2.4354" cy="2.2202" fill="#37BB00" r="0.05"/>
<circle cx="1.5927" cy="0.0652" fill="#0433FF" r="0.05"/>
<circle cx="-0.5646" cy="1.0789" fill="#FFBE0E" r="0.05"/>
<circle cx="2.3427" cy="-1.2339" fill="#C11A00" r="0.05"/>
<circle cx="-2.8206" cy="1.4641" fill="#37BB00" r="0.05"/>
<circle cx="1.9854" cy="0.7032" fill="#0433FF" r="0.05"/>
<circle cx="2.1573" cy="-1.2339" fill="#C11A00" r="0.05"/>
<circle cx="0.0927" cy="0.0652" fill="#C11A00" r="0.05"/>
<circle cx="2.4354" cy="-1.5192" fill="#C11A00" r="0.05"/>
<circle cx="-1.1473" cy="3.434" fill="#00A0DF" r="0.05"/>
<circle cx="2.55" cy="-0.9486" fill="#C11A00" r="0.05"/>
<circle cx="0.9" cy="0.3505" fill="#0433FF" r="0.05"/>
<circle cx="-2.0073" cy="1.8259" fill="#37BB00" r="0.05"/>
<circle cx="-2.0706" cy="2.7631" fill="#00A0DF" r="0.05"/>
<circle cx="-1.5927" cy="3.2339" fill="#00A0DF" r="0.05"/>
<circle cx="-1.3146" cy="2.3779" fill="#00A0DF" r="0.05"/>
<circle cx="-1.7646" cy="2.0022" fill="#37BB00" r="0.05"/>
<circle cx="-0.8427" cy="1.3642" fill="#FFBE0E" r="0.05"/>
<circle cx="2.1573" cy="-0.6632" fill="#C11A00" r="0.05"/>
<circle cx="1.8973" cy="-0.4631" fill="#C11A00" r="0.05"/>
<circle cx="2.7354" cy="-1.3012" fill="#C11A00" r="0.05"/>
<circle cx="-0.9354" cy="1.0789" fill="#FFBE0E" r="0.05"/>
<circle cx="1.7646" cy="-0.5959" fill="#C11A00" r="0.05"/>
<circle cx="0.6" cy="0.3505" fill="#0433FF" r="0.05"/>
<circle cx="1.6854" cy="0.9211" fill="#0433FF" r="0.05"/>
<circle cx="2.6027" cy="-1.434" fill="#C11A00" r="0.05"/>
<circle cx="0.3" cy="0.3505" fill="#0433FF" r="0.05"/>
<circle cx="0.4854" cy="-0.0022" fill="#C11A00" r="0.05"/>
<circle cx="2.0073" cy="-0.7722" fill="#C11A00" r="0.05"/>
<circle cx="-1.2573" cy="3.1249" fill="#00A0DF" r="0.05"/>
<circle cx="-2.1573" cy="1.3642" fill="#37BB00" r="0.05"/>
<circle cx="1.3146" cy="0.9211" fill="#0433FF" r="0.05"/>
<circle cx="0.1854" cy="0.9211" fill="#C11A00" r="0.05"/>
<circle cx="1.0146" cy="-0.0022" fill="#0433FF" r="0.05"/>
<circle cx="-0.5073" cy="1.8259" fill="#FFBE0E" r="0.05"/>
<circle cx="-0.45" cy="1.6495" fill="#FFBE0E" r="0.05"/>
<circle cx="-1.1473" cy="2.4631" fill="#00A0DF" r="0.05"/>
<circle cx="2.4927" cy="-1.1249" fill="#C11A00" r="0.05"/>
<circle cx="0.3527" cy="-0.1349" fill="#C11A00" r="0.05"/>
<circle cx="-0.9294" cy="2.7631" fill="#00A0DF" r="0.05"/>
<circle cx="2.8206" cy="-1.134" fill="#C11A00" r="0.05"/>
<circle cx="-0.5073" cy="1.4732" fill="#FFBE0E" r="0.05"/>
<circle cx="1.2573" cy="0.1741" fill="#0433FF" r="0.05"/>
<circle cx="1.3146" cy="-0.2202" fill="#C11A00" r="0.05"/>
<circle cx="-0.2646" cy="2.0022" fill="#FFBE0E" r="0.05"/>
<circle cx="-1.7646" cy="1.2968" fill="#37BB00" r="0.05"/>
<circle cx="-1.7427" cy="2.7722" fill="#00A0DF" r="0.05"/>
<circle cx="2.4927" cy="-0.7722" fill="#C11A00" r="0.05"/>
<circle cx="-1.0146" cy="2.5959" fill="#00A0DF" r="0.05"/>
<circle cx="-0.75" cy="1.6495" fill="#FFBE0E" r="0.05"/>
<circle cx="-1.8527" cy="3.434" fill="#00A0DF" r="0.05"/>
<circle cx="-2.55" cy="1.6495" fill="#37BB00" r="0.05"/>
<circle cx="-2.0646" cy="2.2202" fill="#37BB00" r="0.05"/>
<circle cx="-0.75" cy="2.2495" fill="#FFBE0E" r="0.05"/>
<circle cx="-2.85" cy="1.6495" fill="#37BB00" r="0.05"/>
<circle cx="1.7427" cy="0.1741" fill="#0433FF" r="0.05"/>
<circle cx="-0.6573" cy="1.3642" fill="#FFBE0E" r="0.05"/>
<circle cx="-2.25" cy="2.2495" fill="#37BB00" r="0.05"/>
<circle cx="1.9854" cy="-0.0022" fill="#0433FF" r="0.05"/>
<circle cx="0.2427" cy="0.1741" fill="#C11A00" r="0.05"/>
<circle cx="-0.9927" cy="1.8259" fill="#FFBE0E" r="0.05"/>
<circle cx="-1.9854" cy="2.5959" fill="#00A0DF" r="0.05"/>
<circle cx="-1.4073" cy="3.2339" fill="#00A0DF" r="0.05"/>
<circle cx="-0.1854" cy="-0.2202" fill="#C11A00" r="0.05"/>
<circle cx="2.6027" cy="-0.4631" fill="#C11A00" r="0.05"/>
<circle cx="-1.2354" cy="2.0022" fill="#FFBE0E" r="0.05"/>
<circle cx="-1.5927" cy="2.6632" fill="#00A0DF" r="0.05"/>
<circle cx="-1.8" cy="2.9486" fill="#00A0DF" r="0.05"/>
<circle cx="-2.25" cy="1.6495" fill="#37BB00" r="0.05"/>
<circle cx="-0.9354" cy="2.2202" fill="#FFBE0E" r="0.05"/>
<circle cx="-1.6794" cy="1.4641" fill="#37BB00" r="0.05"/>
<circle cx="-0.1794" cy="1.4641" fill="#FFBE0E" r="0.05"/>
<circle cx="-1.1027" cy="2.1349" fill="#00A0DF" r="0.05"/>
<circle cx="1.5" cy="0.9505" fill="#0433FF" r="0.05"/>
<circle cx="-0.2427" cy="0.5268" fill="#0433FF" r="0.05"/>
<circle cx="-0.2427" cy="0.1741" fill="#C11A00" r="0.05"/>
<circle cx="1.5" cy="-0.2495" fill="#0433FF" r="0.05"/>
<circle cx="-1.3146" cy="3.5192" fill="#00A0DF" r="0.05"/>
<circle cx="-1.7427" cy="3.1249" fill="#00A0DF" r="0.05"/>
<circle cx="2.0646" cy="-1.5192" fill="#C11A00" r="0.05"/>
<circle cx="-1.95" cy="1.6495" fill="#37BB00" r="0.05"/>
<circle cx="-2.1573" cy="1.9348" fill="#37BB00" r="0.05"/>
<circle cx="-0.5706" cy="0.1651" fill="#FFBE0E" r="0.05"/>
<circle cx="-0.15" cy="1.6495" fill="#FFBE0E" r="0.05"/>
<circle cx="-2.0706" cy="3.134" fill="#00A0DF" r="0.05"/>
<circle cx="-2.8206" cy="1.8349" fill="#37BB00" r="0.05"/>
<circle cx="-1.2354" cy="1.2968" fill="#FFBE0E" r="0.05"/>
<circle cx="0.9294" cy="0.1651" fill="#C11A00" r="0.05"/>
<circle cx="-2.3427" cy="1.9348" fill="#37BB00" r="0.05"/>
<circle cx="0.0927" cy="0.6358" fill="#0433FF" r="0.05"/>
<circle cx="1.8" cy="0.3505" fill="#0433FF" r="0.05"/>
<circle cx="0.2427" cy="0.5268" fill="#0433FF" r="0.05"/>
<circle cx="-2.25" cy="1.0495" fill="#37BB00" r="0.05"/>
<circle cx="-1.6854" cy="3.5192" fill="#00A0DF" r="0.05"/>
<circle cx="-1.5" cy="2.9486" fill="#00A0DF" r="0.05"/>
<circle cx="1.5927" cy="0.6358" fill="#0433FF" r="0.05"/>
<circle cx="-2.4927" cy="1.4732" fill="#37BB00" r="0.05"/>
<circle cx="-1.2573" cy="2.7722" fill="#00A0DF" r="0.05"/>
<circle cx="-0.3" cy="0.3505" fill="#C11A00" r="0.05"/>
<circle cx="0.5706" cy="0.1651" fill="#C11A00" r="0.05"/>
<circle cx="-0.0927" cy="0.6358" fill="#0433FF" r="0.05"/>
<circle cx="1.0146" cy="0.7032" fill="#0433FF" r="0.05"/>
<circle cx="-1.5" cy="2.3486" fill="#00A0DF" r="0.05"/>
<circle cx="-0.9294" cy="3.134" fill="#00A0DF" r="0.05"/>
<circle cx="2.3427" cy="-0.6632" fill="#C11A00" r="0.05"/>
<circle cx="1.2" cy="0.3505" fill="#0433FF" r="0.05"/>
<circle cx="1.8973" cy="-1.434" fill="#C11A00" r="0.05"/>
<circle cx="-0.2646" cy="1.2968" fill="#FFBE0E" r="0.05"/>
<circle cx="-2.0646" cy="1.0789" fill="#37BB00" r="0.05"/>
<circle cx="-0.1854" cy="0.9211" fill="#FFBE0E" r="0.05"/>
<circle cx="-1.8527" cy="2.4631" fill="#00A0DF" r="0.05"/>
<circle cx="-0.8427" cy="1.9348" fill="#FFBE0E" r="0.05"/>
<circle cx="-0.75" cy="1.0495" fill="#37BB00" r="0.05"/>
<circle cx="-2.7354" cy="2.0022" fill="#37BB00" r="0.05"/>
<circle cx="-0.3973" cy="1.1641" fill="#FFBE0E" r="0.05"/>
<circle cx="1.1473" cy="0.8359" fill="#0433FF" r="0.05"/>
<circle cx="1.5" cy="0.3505" fill="#0433FF" r="0.05"/>
<circle cx="-1.5" cy="3.5486" fill="#00A0DF" r="0.05"/>
<circle cx="2.0706" cy="0.5359" fill="#0433FF" r="0.05"/>
<circle cx="-1.3206" cy="1.4641" fill="#FFBE0E" r="0.05"/>
<circle cx="-1.8973" cy="1.1641" fill="#37BB00" r="0.05"/>
<circle cx="-2.6027" cy="1.1641" fill="#37BB00" r="0.05"/>
<circle cx="-0.9927" cy="1.4732" fill="#FFBE0E" r="0.05"/>
<circle cx="0" cy="0.9505" fill="#C11A00" r="0.05"/>
<circle cx="-1.1027" cy="1.1641" fill="#37BB00" r="0.05"/>
<circle cx="-1.65" cy="1.6495" fill="#37BB00" r="0.05"/>
<circle cx="0" cy="0.3505" fill="#0433FF" r="0.05"/>
<circle cx="2.25" cy="-0.3486" fill="#C11A00" r="0.05"/>
<circle cx="1.95" cy="-0.9486" fill="#C11A00" r="0.05"/>
<circle cx="-1.0146" cy="3.3012" fill="#00A0DF" r="0.05"/>
<circle cx="2.0646" cy="-0.3779" fill="#C11A00" r="0.05"/>
<circle cx="-0.1794" cy="1.8349" fill="#FFBE0E" r="0.05"/>
<circle cx="2.0073" cy="-1.1249" fill="#C11A00" r="0.05"/>
<circle cx="-0.3527" cy="0.8359" fill="#FFBE0E" r="0.05"/>
<circle cx="-2.3427" cy="1.3642" fill="#37BB00" r="0.05"/>
<circle cx="-2.4927" cy="1.8259" fill="#37BB00" r="0.05"/>
<circle cx="2.4354" cy="-0.3779" fill="#C11A00" r="0.05"/>
<circle cx="-0.3973" cy="2.1349" fill="#FFBE0E" r="0.05"/>
<circle cx="-1.4073" cy="2.6632" fill="#00A0DF" r="0.05"/>
<circle cx="0.5706" cy="0.5359" fill="#C11A00" r="0.05"/>
<circle cx="0.3527" cy="0.8359" fill="#C11A00" r="0.05"/>
<circle cx="1.7427" cy="0.5268" fill="#0433FF" r="0.05"/>
<circle cx="0.9294" cy="0.5359" fill="#0433FF" r="0.05"/>
<circle cx="-0.3527" cy="-0.1349" fill="#C11A00" r="0.05"/>
<circle cx="2.7354" cy="-0.5959" fill="#C11A00" r="0.05"/>
<circle cx="-0.0927" cy="0.0652" fill="#C11A00" r="0.05"/>
<circle cx="0" cy="-0.2495" fill="#C11A00" r="0.05"/>
<circle cx="2.1" cy="0.3505" fill="#0433FF" r="0.05"/>
<circle cx="1.8527" cy="-0.1349" fill="#0433FF" r="0.05"/>
<circle cx="1.4073" cy="0.6358" fill="#0433FF" r="0.05"/>
<circle cx="-1.05" cy="1.6495" fill="#FFBE0E" r="0.05"/>
<circle cx="-2.1" cy="2.9486" fill="#00A0DF" r="0.05"/>
</g>
<g fill="#E16200"/>
<g fill="#FFBE0E">
<line stroke="#FFBE0E" stroke-width="0.01" x1="-0.82396156" x2="-0.8427051" y1="1.3642021" y2="1.3642021"/>
<polygon points="-0.86770505 1.3642021 -0.8302051 1.3858528 -0.8302051 1.3425515" stroke="black" stroke-width="0.005"/>
<text class="fleet" text-anchor="middle" x="-0.8427051" y="1.3767022">
27
</text>
<line stroke="#FFBE0E" stroke-width="0.01" x1="-1.0442079" x2="-1.05" y1="1.6673452" y2="1.6495191"/>
<polygon points="-1.0577253 1.6257427 -1.0667282 1.6680977 -1.0255463 1.6547168" stroke="black" stroke-width="0.005"/>
<text class="fleet" text-anchor="middle" x="-1.05" y="1.6620191">
13
</text>
<line stroke="#FFBE0E" stroke-width="0.01" x1="-1.0995877" x2="-1.1026711" y1="1.1636205" y2="1.1641089"/>
<polygon points="-1.1273633 1.1680199 -1.086938 1.1835374 -1.0937122 1.1407692" stroke="black" stroke-width="0.005"/>
<text class="fleet" text-anchor="middle" x="-1.1026711" y="1.1766089">
1
</text>
<line stroke="#FFBE0E" stroke-width="0.01" x1="-0.3771146" x2="-0.39732885" y1="1.1409304" y2="1.1641089"/>
<polygon points="-0.41376066 1.1829503 -0.37279588 1.1689186 -0.40543005 1.1404579" stroke="black" stroke-width="0.005"/>
<text class="fleet" text-anchor="middle" x="-0.39732885" y="1.1766089">
148
</text>
<line stroke="#FFBE0E" stroke-width="0.01" x1="-0.20417006" x2="-0.1854102" y1="0.91155624" y2="0.92111486"/>
<polygon points="-0.16313504 0.9324646 -0.18671861 0.8961491 -0.20637695 0.9347308" stroke="black" stroke-width="0.005"/>
<text class="fleet" text-anchor="middle" x="-0.1854102" y="0.93361485">
125
</text>
<line stroke="#FFBE0E" stroke-width="0.01" x1="-1.2245029" x2="-1.2354102" y1="1.9814433" y2="2.00219"/>
<polygon points="-1.2470437 2.0243185 -1.2104298 2.001201 -1.2487571 1.981051" stroke="black" stroke-width="0.005"/>
<text class="fleet" text-anchor="middle" x="-1.2354102" y="2.0146902">
1
</text>
<line stroke="#FFBE0E" stroke-width="0.01" x1="-0.8979231" x2="-0.9354102" y1="2.2201529" y2="2.2201529"/>
<polygon points="-0.9604102 2.2201529 -0.9229102 2.2418034 -0.9229102 2.1985023" stroke="black" stroke-width="0.005"/>
<text class="fleet" text-anchor="middle" x="-0.9354102" y="2.232653">
1
</text>
<line stroke="#FFBE0E" stroke-width="0.01" x1="-0.40952626" x2="-0.39732885" y1="1.1983913" y2="1.1641089"/>
<polygon points="-0.38894868 1.1405553 -0.42191696 1.1686282 -0.38112092 1.1831431" stroke="black" stroke-width="0.005"/>
<text class="fleet" text-anchor="middle" x="-0.39732885" y="1.1766089">
1
</text>
<line stroke="#FFBE0E" stroke-width="0.01" x1="-0.69738275" x2="-0.6572949" y1="1.9395065" y2="1.934836"/>
<polygon points="-0.6324629 1.9319429 -0.6722165 1.9147774 -0.66720545 1.9577878" stroke="black" stroke-width="0.005"/>
<text class="fleet" text-anchor="middle" x="-0.6572949" y="1.9473361">
86
</text>
<line stroke="#FFBE0E" stroke-width="0.01" x1="-1.0442079" x2="-1.05" y1="1.6316929" y2="1.6495191"/>
<polygon points="-1.0577253 1.6732955 -1.0255463 1.6443212 -1.0667282 1.6309406" stroke="black" stroke-width="0.005"/>
<text class="fleet" text-anchor="middle" x="-1.05" y="1.6620191">
13
</text>
</g>
<g fill="#0433FF">
<line stroke="#0433FF" stroke-width="0.01" x1="-0.11888206" x2="-0.15850942" y1="0.31185383" y2="0.29897812"/>
<line stroke="#0433FF" stroke-width="0.01" x1="-0.15850942" x2="-0.5706" y1="0.29897812" y2="0.1651"/>
<polygon points="-0.18228614 0.29125366 -0.15331064 0.3234316 -0.13993147 0.28224912" stroke="black" stroke-width="0.005"/>
<text class="fleet" text-anchor="middle" x="-0.15850942" y="0.3114781">
36
</text>
<line stroke="#0433FF" stroke-width="0.01" x1="1.5515028" x2="1.5643785" y1="0.50899035" y2="0.5486177"/>
<line stroke="#0433FF" stroke-width="0.01" x1="1.5643785" x2="1.5927" y1="0.5486177" y2="0.6358"/>
<polygon points="1.5721025 0.5723946 1.5811079 0.5300401 1.5399251 0.54341847" stroke="black" stroke-width="0.005"/>
<text class="fleet" text-anchor="middle" x="1.5643785" y="0.5611177">
1
</text>
<line stroke="#0433FF" stroke-width="0.01" x1="1.5" x2="1.4871243" y1="0.35048094" y2="0.3108536"/>
<line stroke="#0433FF" stroke-width="0.01" x1="1.4871243" x2="1.4073" y1="0.3108536" y2="0.0652"/>
<polygon points="1.4793984 0.28707737 1.4703965 0.32943264 1.5115781 0.3160508" stroke="black" stroke-width="0.005"/>
<text class="fleet" text-anchor="middle" x="1.4871243" y="0.3233536">
1
</text>
<line stroke="#0433FF" stroke-width="0.01" x1="0.35" x2="0.225" y1="0.35048094" y2="0.35048094"/>
<line stroke="#0433FF" stroke-width="0.01" x1="0.225" x2="0" y1="0.35048094" y2="0.3505"/>
<polygon points="0.19999999 0.35048306 0.23750183 0.3721305 0.23749816 0.32882926" stroke="black" stroke-width="0.005"/>
<text class="fleet" text-anchor="middle" x="0.225" y="0.36298093">
125
</text>
<line stroke="#0433FF" stroke-width="0.01" x1="0.20833333" x2="0.25" y1="0.35048094" y2="0.35048094"/>
<line stroke="#0433FF" stroke-width="0.01" x1="0.25" x2="0.3" y1="0.35048094" y2="0.3505"/>
<polygon points="0.275 0.35049045 0.23750824 0.32882556 0.23749176 0.37212682" stroke="black" stroke-width="0.005"/>
<text class="fleet" text-anchor="middle" x="0.25" y="0.36298093">
1
</text>
<line stroke="#0433FF" stroke-width="0.01" x1="0.90329367" x2="0.9" y1="0.3712764" y2="0.35048094"/>
<polygon points="0.8960891 0.32578874 0.88057137 0.36621398 0.9233395 0.35944012" stroke="black" stroke-width="0.005"/>
<text class="fleet" text-anchor="middle" x="0.9" y="0.36298093">
34
</text>
<line stroke="#0433FF" stroke-width="0.01" x1="1.2" x2="1.325" y1="0.35048094" y2="0.35048094"/>
<line stroke="#0433FF" stroke-width="0.01" x1="1.325" x2="1.5" y1="0.35048094" y2="0.3505"/>
<polygon points="1.35 0.35048366 1.3125024 0.32882896 1.3124977 0.37213022" stroke="black" stroke-width="0.005"/>
<text class="fleet" text-anchor="middle" x="1.325" y="0.36298093">
30
</text>
<line stroke="#0433FF" stroke-width="0.01" x1="1.45" x2="1.5" y1="0.35048094" y2="0.35048094"/>
<polygon points="1.525 0.35048094 1.4875 0.3288303 1.4875 0.3721316" stroke="black" stroke-width="0.005"/>
<text class="fleet" text-anchor="middle" x="1.5" y="0.36298093">
116
</text>
</g>
<g fill="#37BB00">
<line stroke="#37BB00" stroke-width="0.01" x1="-0.49706414" x2="-0.4854102" y1="0.7184079" y2="0.7031521"/>
<polygon points="-0.47023404 0.6832855 -0.5102033 0.6999425 -0.47579327 0.7262284" stroke="black" stroke-width="0.005"/>
<text class="fleet" text-anchor="middle" x="-0.4854102" y="0.7156521">
1
</text>
<line stroke="#37BB00" stroke-width="0.01" x1="-2.4185452" x2="-2.4522543" y1="1.7719743" y2="1.7964654"/>
<line stroke="#37BB00" stroke-width="0.01" x1="-2.4522543" x2="-2.4927" y1="1.7964654" y2="1.8259"/>
<polygon points="-2.4724681 1.8111761 -2.4294076 1.8066157 -2.4548872 1.7716044" stroke="black" stroke-width="0.005"/>
<text class="fleet" text-anchor="middle" x="-2.4522543" y="1.8089654">
1
</text>
<line stroke="#37BB00" stroke-width="0.01" x1="-1.5092779" x2="-1.5462422" y1="1.375628" y2="1.394857"/>
<line stroke="#37BB00" stroke-width="0.01" x1="-1.5462422" x2="-1.6794" y1="1.394857" y2="1.4641"/>
<polygon points="-1.5684226 1.406391 -1.5251634 1.4082989 -1.5451407 1.3698813" stroke="black" stroke-width="0.005"/>
<text class="fleet" text-anchor="middle" x="-1.5462422" y="1.4073571">
1
</text>
<line stroke="#37BB00" stroke-width="0.01" x1="-0.11461074" x2="-0.0809017" y1="0.4337505" y2="0.40925947"/>
<line stroke="#37BB00" stroke-width="0.01" x1="-0.0809017" x2="0" y1="0.40925947" y2="0.3505"/>
<polygon points="-0.060674008 0.39456797 -0.10373877 0.39908755 -0.07829231 0.43412292" stroke="black" stroke-width="0.005"/>
<text class="fleet" text-anchor="middle" x="-0.0809017" y="0.42175946">
500
</text>
<line stroke="#37BB00" stroke-width="0.01" x1="-0.9691316" x2="-0.93574667" y1="1.0643845" y2="1.0394534"/>
<line stroke="#37BB00" stroke-width="0.01" x1="-0.93574667" x2="-0.4854" y1="1.0394534" y2="0.7032"/>
<polygon points="-0.91571456 1.0244963 -0.9587159 1.0295836 -0.93280953 1.0642803" stroke="black" stroke-width="0.005"/>
<text class="fleet" text-anchor="middle" x="-0.93574667" y="1.0519534">
149
</text>
<line stroke="#37BB00" stroke-width="0.01" x1="-1.4943633" x2="-1.4573628" y1="1.3683136" y2="1.3491545"/>
<line stroke="#37BB00" stroke-width="0.01" x1="-1.4573628" x2="-0.9354" y1="1.3491545" y2="1.0789"/>
<polygon points="-1.4351621 1.3376597 -1.4784179 1.3356755 -1.4585084 1.3741282" stroke="black" stroke-width="0.005"/>
<text class="fleet" text-anchor="middle" x="-1.4573628" y="1.3616545">
671
</text>
<line stroke="#37BB00" stroke-width="0.01" x1="-2.234149" x2="-2.25" y1="1.6443688" y2="1.6495191"/>
<polygon points="-2.2737763 1.6572446 -2.2314215 1.6662474 -2.2448022 1.6250654" stroke="black" stroke-width="0.005"/>
<text class="fleet" text-anchor="middle" x="-2.25" y="1.6620191">
359
</text>
</g>
<g fill="#00A0DF">
<line stroke="#00A0DF" stroke-width="0.01" x1="-1.7275412" x2="-1.7427051" y1="3.1359098" y2="3.1248927"/>
<polygon points="-1.7629306 3.1101983 -1.7453182 3.1497557 -1.7198665 3.1147242" stroke="black" stroke-width="0.005"/>
<text class="fleet" text-anchor="middle" x="-1.7427051" y="3.1373928">
24
</text>
<line stroke="#00A0DF" stroke-width="0.01" x1="-1.5416666" x2="-1.5833334" y1="2.9485571" y2="2.9485571"/>
<line stroke="#00A0DF" stroke-width="0.01" x1="-1.5833334" x2="-1.8" y1="2.9485571" y2="2.9486"/>
<polygon points="-1.6083333 2.9485621 -1.570829 2.9702053 -1.5708376 2.926904" stroke="black" stroke-width="0.005"/>
<text class="fleet" text-anchor="middle" x="-1.5833334" y="2.9610572">
1
</text>
<line stroke="#00A0DF" stroke-width="0.01" x1="-1.466291" x2="-1.4325819" y1="2.9730482" y2="2.9975393"/>
<line stroke="#00A0DF" stroke-width="0.01" x1="-1.4325819" x2="-1.2573" y1="2.9975393" y2="3.1249"/>
<polygon points="-1.4123571 3.0122347 -1.4299676 2.9726763 -1.455421 3.0077069" stroke="black" stroke-width="0.005"/>
<text class="fleet" text-anchor="middle" x="-1.4325819" y="3.0100393">
1
</text>
<line stroke="#00A0DF" stroke-width="0.01" x1="-0.9020689" x2="-0.8686352" y1="1.9857357" y2="1.96087"/>
<line stroke="#00A0DF" stroke-width="0.01" x1="-0.8686352" x2="-0.45" y1="1.96087" y2="1.6495"/>
<polygon points="-0.8485754 1.94595 -0.8915861 1.9509578 -0.865744 1.9857023" stroke="black" stroke-width="0.005"/>
<text class="fleet" text-anchor="middle" x="-0.8686352" y="1.9733701">
759
</text>
<line stroke="#00A0DF" stroke-width="0.01" x1="-1.5412023" x2="-1.5283265" y1="2.8217497" y2="2.861377"/>
<line stroke="#00A0DF" stroke-width="0.01" x1="-1.5283265" x2="-1.5" y1="2.861377" y2="2.9486"/>
<polygon points="-1.5206045 2.8851545 -1.5115956 2.8428009 -1.5527794 2.8561757" stroke="black" stroke-width="0.005"/>
<text class="fleet" text-anchor="middle" x="-1.5283265" y="2.873877">
11
</text>
</g>
<g fill="#C11A00">
<line stroke="#C11A00" stroke-width="0.01" x1="0.2427051" x2="0.28436813" y1="0.17414537" y2="0.17359477"/>
<line stroke="#C11A00" stroke-width="0.01" x1="0.28436813" x2="0.9294" y1="0.17359477" y2="0.1651"/>
<line stroke="#C11A00" stroke-width="0.01" x1="0.9294" x2="0.6" y1="0.1651" y2="0.3505"/>
<polygon points="0.30936596 0.17326556 0.2715841 0.15211062 0.27215433 0.19540814" stroke="black" stroke-width="0.005"/>
<text class="fleet" text-anchor="middle" x="0.28436813" y="0.18609478">
1
</text>
<line stroke="#C11A00" stroke-width="0.01" x1="1.7982988" x2="1.8320079" y1="-0.62037706" y2="-0.64486814"/>
<line stroke="#C11A00" stroke-width="0.01" x1="1.8320079" x2="2.0073" y1="-0.64486814" y2="-0.7722"/>
<line stroke="#C11A00" stroke-width="0.01" x1="2.0073" x2="1.7646" y1="-0.7722" y2="-0.5959"/>
<polygon points="1.8522347 -0.65956086 1.8091702 -0.6550387 1.8346188 -0.62000483" stroke="black" stroke-width="0.005"/>
<text class="fleet" text-anchor="middle" x="1.8320079" y="-0.63236815">
1
</text>
<line stroke="#C11A00" stroke-width="0.01" x1="1.2262014" x2="1.1967387" y1="-0.1317646" y2="-0.10230183"/>
<line stroke="#C11A00" stroke-width="0.01" x1="1.1967387" x2="0.9294" y1="-0.10230183" y2="0.1651"/>
<line stroke="#C11A00" stroke-width="0.01" x1="0.9294" x2="1.2" y1="0.1651" y2="0.3505"/>
<polygon points="1.1790631 -0.08462207 1.2208877 -0.09583421 1.1902654 -0.12644921" stroke="black" stroke-width="0.005"/>
<text class="fleet" text-anchor="middle" x="1.1967387" y="-0.089801826">
215
</text>
<line stroke="#C11A00" stroke-width="0.01" x1="1.378557" x2="1.4105406" y1="-0.27356312" y2="-0.30026823"/>
<line stroke="#C11A00" stroke-width="0.01" x1="1.4105406" x2="1.7646" y1="-0.30026823" y2="-0.5959"/>
<line stroke="#C11A00" stroke-width="0.01" x1="1.7646" x2="1.3146" y1="-0.5959" y2="-0.2202"/>
<polygon points="1.4297305 -0.31629145 1.3870691 -0.30887565 1.4148221 -0.2756376" stroke="black" stroke-width="0.005"/>
<text class="fleet" text-anchor="middle" x="1.4105406" y="-0.28776824">
1
</text>
<line stroke="#C11A00" stroke-width="0.01" x1="-0.29420793" x2="-0.3" y1="0.3326548" y2="0.35048094"/>
<polygon points="-0.30772546 0.37425736 -0.2755463 0.34528318 -0.31672826 0.33190233" stroke="black" stroke-width="0.005"/>
<text class="fleet" text-anchor="middle" x="-0.3" y="0.36298093">
46
</text>
<line stroke="#C11A00" stroke-width="0.01" x1="1.7006227" x2="1.6686391" y1="-0.5424758" y2="-0.51577073"/>
<line stroke="#C11A00" stroke-width="0.01" x1="1.6686391" x2="1.3146" y1="-0.51577073" y2="-0.2202"/>
<line stroke="#C11A00" stroke-width="0.01" x1="1.3146" x2="1.7646" y1="-0.2202" y2="-0.5959"/>
<polygon points="1.6494479 -0.49974892 1.69211 -0.5071616 1.6643593 -0.5404017" stroke="black" stroke-width="0.005"/>
<text class="fleet" text-anchor="middle" x="1.6686391" y="-0.50327075">
1
</text>
<line stroke="#C11A00" stroke-width="0.01" x1="0.00674181" x2="0" y1="0.34558275" y2="0.35048094"/>
<polygon points="-0.020225454 0.36517555 0.022838619 0.3606494 -0.0026131694 0.32561788" stroke="black" stroke-width="0.005"/>
<text class="fleet" text-anchor="middle" x="0" y="0.36298093">
400
</text>
<line stroke="#C11A00" stroke-width="0.01" x1="0.02079547" x2="0" y1="0.94718724" y2="0.95048094"/>
<polygon points="-0.024692206 0.95439184 0.015733028 0.96990955 0.008959177 0.9271414" stroke="black" stroke-width="0.005"/>
<text class="fleet" text-anchor="middle" x="0" y="0.9629809">
40
</text>
<line stroke="#C11A00" stroke-width="0.01" x1="2.0477457" x2="2.007295" y1="-0.8016108" y2="-0.77222157"/>
<polygon points="1.9870695 -0.75752693 2.0301335 -0.7620532 2.0046816 -0.7970846" stroke="black" stroke-width="0.005"/>
<text class="fleet" text-anchor="middle" x="2.007295" y="-0.7597216">
93
</text>
<line stroke="#C11A00" stroke-width="0.01" x1="2.0477457" x2="2.007295" y1="-0.8016108" y2="-0.77222157"/>
<line stroke="#C11A00" stroke-width="0.01" x1="2.007295" x2="2.25" y1="-0.77222157" y2="-0.9486"/>
<line stroke="#C11A00" stroke-width="0.01" x1="2.25" x2="2.0073" y1="-0.9486" y2="-0.7722"/>
<polygon points="2.0275185 -0.7869185 1.9844551 -0.7823873 2.009911 -0.7473588" stroke="black" stroke-width="0.005"/>
<text class="fleet" text-anchor="middle" x="2.007295" y="-0.7597216">
1
</text>
<line stroke="#C11A00" stroke-width="0.01" x1="0.09528024" x2="0.0927051" y1="0.64372337" y2="0.6357979"/>
<polygon points="0.08497967 0.6120215 0.07597685 0.65437657 0.11715879 0.6409957" stroke="black" stroke-width="0.005"/>
<text class="fleet" text-anchor="middle" x="0.0927051" y="0.6482979">
56
</text>
<line stroke="#C11A00" stroke-width="0.01" x1="1.0177544" x2="1.0472172" y1="0.0766824" y2="0.04721962"/>
<line stroke="#C11A00" stroke-width="0.01" x1="1.0472172" x2="1.3146" y1="0.04721962" y2="-0.2202"/>
<line stroke="#C11A00" stroke-width="0.01" x1="1.3146" x2="1.5" y1="-0.2202" y2="0.3505"/>
<polygon points="1.0648937 0.029540727 1.0230687 0.040750813 1.0536894 0.071367316" stroke="black" stroke-width="0.005"/>
<text class="fleet" text-anchor="middle" x="1.0472172" y="0.05971962">
1
</text>
<line stroke="#C11A00" stroke-width="0.01" x1="0.12154045" x2="0.0927051" y1="0.04296972" y2="0.06516399"/>
<polygon points="0.072893895 0.08041247 0.11581628 0.07469676 0.08940513 0.040382743" stroke="black" stroke-width="0.005"/>
<text class="fleet" text-anchor="middle" x="0.0927051" y="0.077663995">
193
</text>
<line stroke="#C11A00" stroke-width="0.01" x1="0.4786684" x2="0.4854102" y1="0.00270801" y2="-0.0021902"/>
<polygon points="0.5056357 -0.016884811 0.4625716 -0.0123586375 0.4880234 0.022672849" stroke="black" stroke-width="0.005"/>
<text class="fleet" text-anchor="middle" x="0.4854102" y="0.0103098005">
100
</text>
</g>
<g class="star">
<text text-anchor="middle" x="-0.9" y="2.8736">
Sun
</text>
<text text-anchor="middle" x="1.4073" y="-0.009800002">
Mebsuta
</text>
<text text-anchor="middle" x="2.25" y="-1.6236">
De Vries
</text>
<text text-anchor="middle" x="-1.6854" y="2.3028998">
Alcor
</text>
<text text-anchor="middle" x="-0.5646" y="2.1452">
TienKuan
</text>
<text text-anchor="middle" x="0.1854" y="-0.2952">
Baby
</text>
<text text-anchor="middle" x="2.0706" y="0.09009999">
Sadira
</text>
<text text-anchor="middle" x="-0.5706" y="0.4609">
Pax
</text>
<text text-anchor="middle" x="-0.6573" y="1.8598">
Imp
</text>
<text text-anchor="middle" x="2.85" y="-1.0236">
Prost
</text>
<text text-anchor="middle" x="-1.2" y="2.8736">
Mintaka
</text>
<text text-anchor="middle" x="1.2573" y="0.4518">
Aladfar
</text>
<text text-anchor="middle" x="-1.6794" y="1.7599">
Wasat
</text>
<text text-anchor="middle" x="-2.0073" y="1.3981999">
Denebola
</text>
<text text-anchor="middle" x="-2.4354" y="1.0038999">
AlGiedi
</text>
<text text-anchor="middle" x="0.4854" y="0.6282">
Hammond
</text>
<text text-anchor="middle" x="-0.4854" y="0.6282">
Misam
</text>
<text text-anchor="middle" x="-2.6027" y="2.0599">
Mizar
</text>
<text text-anchor="middle" x="1.8527" y="0.7609">
Alwaid
</text>
<text text-anchor="middle" x="-1.35" y="1.5745">
Sadalmelik
</text>
<text text-anchor="middle" x="-0.4854" y="-0.0772">
Speed Racer
</text>
<text text-anchor="middle" x="1.6794" y="-0.8381">
Danica Patrick
</text>
<text text-anchor="middle" x="-0.6" y="0.2755">
Ale
</text>
<text text-anchor="middle" x="1.65" y="-1.0236">
Earnhardt Jr Jr
</text>
<text text-anchor="middle" x="1.7646" y="-1.3762001">
Earnhardt
</text>
<text text-anchor="middle" x="-2.7354" y="1.2218">
Tag
</text>
<text text-anchor="middle" x="-1.8973" y="2.0599">
Asellus
</text>
<text text-anchor="middle" x="-1.3206" y="1.7599">
Becrux
</text>
<text text-anchor="middle" x="2.8206" y="-0.8381">
Jolyon
</text>
<text text-anchor="middle" x="1.6854" y="-0.2952">
Jaw
</text>
<text text-anchor="middle" x="-1.9854" y="3.2261999">
SteropeII
</text>
<text text-anchor="middle" x="1.1473" y="-0.2099">
Merope
</text>
<text text-anchor="middle" x="2.25" y="-1.0236">
Alonso
</text>
<text text-anchor="middle" x="1.6794" y="-1.209">
Earnhardt Jr
</text>
<text text-anchor="middle" x="-2.4354" y="2.1452">
Spy
</text>
<text text-anchor="middle" x="1.5927" y="-0.009800002">
Alya
</text>
<text text-anchor="middle" x="-0.5646" y="1.0038999">
Regulus
</text>
<text text-anchor="middle" x="2.3427" y="-1.3089">
Petty
</text>
<text text-anchor="middle" x="-2.8206" y="1.3891">
Zoo
</text>
<text text-anchor="middle" x="1.9854" y="0.6282">
Fin
</text>
<text text-anchor="middle" x="2.1573" y="-1.3089">
Verstappen
</text>
<text text-anchor="middle" x="0.0927" y="-0.009800002">
Gisele
</text>
<text text-anchor="middle" x="2.4354" y="-1.5942">
Johnson
</text>
<text text-anchor="middle" x="-1.1473" y="3.359">
Sheliak
</text>
<text text-anchor="middle" x="2.55" y="-1.0236">
Hamilton
</text>
<text text-anchor="middle" x="0.9" y="0.2755">
Ras
</text>
<text text-anchor="middle" x="-2.0073" y="1.7508999">
Sham
</text>
<text text-anchor="middle" x="-2.0706" y="2.6880999">
Kaus
</text>
<text text-anchor="middle" x="-1.5927" y="3.1589">
Mekbuda
</text>
<text text-anchor="middle" x="-1.3146" y="2.3028998">
Proxima
</text>
<text text-anchor="middle" x="-1.7646" y="1.9271998">
Syrma
</text>
<text text-anchor="middle" x="-0.8427" y="1.2892">
Rub
</text>
<text text-anchor="middle" x="2.1573" y="-0.7382">
Senna
</text>
<text text-anchor="middle" x="1.8973" y="-0.5381">
Vettel
</text>
<text text-anchor="middle" x="2.7354" y="-1.3762001">
Latifi
</text>
<text text-anchor="middle" x="-0.9354" y="1.0038999">
Mac
</text>
<text text-anchor="middle" x="1.7646" y="-0.6709">
Adam Driver
</text>
<text text-anchor="middle" x="0.6" y="0.2755">
Alzir
</text>
<text text-anchor="middle" x="1.6854" y="0.84610003">
Keid
</text>
<text text-anchor="middle" x="2.6027" y="-1.5090001">
Toretto
</text>
<text text-anchor="middle" x="0.3" y="0.2755">
Qui
</text>
<text text-anchor="middle" x="0.4854" y="-0.0772">
Pile
</text>
<text text-anchor="middle" x="2.0073" y="-0.8472">
Schumacher
</text>
<text text-anchor="middle" x="-1.2573" y="3.0499">
Mira
</text>
<text text-anchor="middle" x="-2.1573" y="1.2892">
Sky
</text>
<text text-anchor="middle" x="1.3146" y="0.84610003">
Mimosa
</text>
<text text-anchor="middle" x="0.1854" y="0.84610003">
Letty Ortiz
</text>
<text text-anchor="middle" x="1.0146" y="-0.0772">
Eltanin
</text>
<text text-anchor="middle" x="-0.5073" y="1.7508999">
Zit
</text>
<text text-anchor="middle" x="-0.45" y="1.5745">
Alnasl
</text>
<text text-anchor="middle" x="-1.1473" y="2.3881">
Yed
</text>
<text text-anchor="middle" x="2.4927" y="-1.1999">
Stewart
</text>
<text text-anchor="middle" x="0.3527" y="-0.2099">
Roman
</text>
<text text-anchor="middle" x="-0.9294" y="2.6880999">
Diphda
</text>
<text text-anchor="middle" x="2.8206" y="-1.209">
Tsunoda
</text>
<text text-anchor="middle" x="-0.5073" y="1.3981999">
Murzim
</text>
<text text-anchor="middle" x="1.2573" y="0.09909999">
Elnath
</text>
<text text-anchor="middle" x="1.3146" y="-0.2952">
Grosjean
</text>
<text text-anchor="middle" x="-0.2646" y="1.9271998">
Wazn
</text>
<text text-anchor="middle" x="-1.7646" y="1.2218">
Alkalurops
</text>
<text text-anchor="middle" x="-1.7427" y="2.6972">
Mud
</text>
<text text-anchor="middle" x="2.4927" y="-0.8472">
Villeneuve
</text>
<text text-anchor="middle" x="-1.0146" y="2.5209">
Yay
</text>
<text text-anchor="middle" x="-0.75" y="1.5745">
Hassaleh
</text>
<text text-anchor="middle" x="-1.8527" y="3.359">
Minkar
</text>
<text text-anchor="middle" x="-2.55" y="1.5745">
Dabih
</text>
<text text-anchor="middle" x="-2.0646" y="2.1452">
Tab
</text>
<text text-anchor="middle" x="-0.75" y="2.1745">
Arkab
</text>
<text text-anchor="middle" x="-2.85" y="1.5745">
Azimech
</text>
<text text-anchor="middle" x="1.7427" y="0.09909999">
Vindemiatrix
</text>
<text text-anchor="middle" x="-0.6573" y="1.2892">
Menkib
</text>
<text text-anchor="middle" x="-2.25" y="2.1745">
Garnet
</text>
<text text-anchor="middle" x="1.9854" y="-0.0772">
Aludra
</text>
<text text-anchor="middle" x="0.2427" y="0.09909999">
Han SeoulO
</text>
<text text-anchor="middle" x="-0.9927" y="1.7508999">
Asp
</text>
<text text-anchor="middle" x="-1.9854" y="2.5209">
Arc
</text>
<text text-anchor="middle" x="-1.4073" y="3.1589">
Haldus
</text>
<text text-anchor="middle" x="-0.1854" y="-0.2952">
Jason Momoa
</text>
<text text-anchor="middle" x="2.6027" y="-0.5381">
Ricciardo
</text>
<text text-anchor="middle" x="-1.2354" y="1.9271998">
Cheleb
</text>
<text text-anchor="middle" x="-1.5927" y="2.5881999">
Menchib
</text>
<text text-anchor="middle" x="-1.8" y="2.8736">
Rukbat
</text>
<text text-anchor="middle" x="-2.25" y="1.5745">
Castor
</text>
<text text-anchor="middle" x="-0.9354" y="2.1452">
Gatria
</text>
<text text-anchor="middle" x="-1.6794" y="1.3891">
Errai
</text>
<text text-anchor="middle" x="-0.1794" y="1.3891">
Alfecca
</text>
<text text-anchor="middle" x="-1.1027" y="2.0599">
Cox
</text>
<text text-anchor="middle" x="1.5" y="0.8755">
Kit
</text>
<text text-anchor="middle" x="-0.2427" y="0.4518">
Terram
</text>
<text text-anchor="middle" x="-0.2427" y="0.09909999">
Hobbs
</text>
<text text-anchor="middle" x="1.5" y="-0.32450002">
Theemin
</text>
<text text-anchor="middle" x="-1.3146" y="3.4442">
Media
</text>
<text text-anchor="middle" x="-1.7427" y="3.0499">
Caph
</text>
<text text-anchor="middle" x="2.0646" y="-1.5942">
Norris
</text>
<text text-anchor="middle" x="-1.95" y="1.5745">
Ksora
</text>
<text text-anchor="middle" x="-2.1573" y="1.8598">
Algieba
</text>
<text text-anchor="middle" x="-0.5706" y="0.09009999">
Elm
</text>
<text text-anchor="middle" x="-0.15" y="1.5745">
Alpheratz
</text>
<text text-anchor="middle" x="-2.0706" y="3.059">
Albali
</text>
<text text-anchor="middle" x="-2.8206" y="1.7599">
Sabik
</text>
<text text-anchor="middle" x="-1.2354" y="1.2218">
Dschubba
</text>
<text text-anchor="middle" x="0.9294" y="0.09009999">
RIP Paul Walker
</text>
<text text-anchor="middle" x="-2.3427" y="1.8598">
Askella
</text>
<text text-anchor="middle" x="0.0927" y="0.5608">
Tenuerit
</text>
<text text-anchor="middle" x="1.8" y="0.2755">
Enif
</text>
<text text-anchor="middle" x="0.2427" y="0.4518">
Tegmen
</text>
<text text-anchor="middle" x="-2.25" y="0.9745">
Chi
</text>
<text text-anchor="middle" x="-1.6854" y="3.4442">
Dnoces
</text>
<text text-anchor="middle" x="-1.5" y="2.8736">
Almach
</text>
<text text-anchor="middle" x="1.5927" y="0.5608">
Alphecca
</text>
<text text-anchor="middle" x="-2.4927" y="1.3981999">
Propus
</text>
<text text-anchor="middle" x="-1.2573" y="2.6972">
Talitha
</text>
<text text-anchor="middle" x="-0.3" y="0.2755">
Tej
</text>
<text text-anchor="middle" x="0.5706" y="0.09009999">
Diesel
</text>
<text text-anchor="middle" x="-0.0927" y="0.5608">
Elons Mistakes Mistake
</text>
<text text-anchor="middle" x="1.0146" y="0.6282">
Sargas
</text>
<text text-anchor="middle" x="-1.5" y="2.2735999">
Aldhanab
</text>
<text text-anchor="middle" x="-0.9294" y="3.059">
Bam
</text>
<text text-anchor="middle" x="2.3427" y="-0.7382">
Gordon
</text>
<text text-anchor="middle" x="1.2" y="0.2755">
Alcyone
</text>
<text text-anchor="middle" x="1.8973" y="-1.5090001">
Ocon
</text>
<text text-anchor="middle" x="-0.2646" y="1.2218">
Lanx
</text>
<text text-anchor="middle" x="-2.0646" y="1.0038999">
Rotanev
</text>
<text text-anchor="middle" x="-0.1854" y="0.84610003">
TseenKee
</text>
<text text-anchor="middle" x="-1.8527" y="2.3881">
Tejat
</text>
<text text-anchor="middle" x="-0.8427" y="1.8598">
Marfark
</text>
<text text-anchor="middle" x="-0.75" y="0.9745">
Menkent
</text>
<text text-anchor="middle" x="-2.7354" y="1.9271998">
Marfik
</text>
<text text-anchor="middle" x="-0.3973" y="1.0891">
Dux
</text>
<text text-anchor="middle" x="1.1473" y="0.7609">
Rukh
</text>
<text text-anchor="middle" x="1.5" y="0.2755">
Acamar
</text>
<text text-anchor="middle" x="-1.5" y="3.4736">
Alniyat
</text>
<text text-anchor="middle" x="2.0706" y="0.4609">
Adhara
</text>
<text text-anchor="middle" x="-1.3206" y="1.3891">
Mirzam
</text>
<text text-anchor="middle" x="-1.8973" y="1.0891">
Segin
</text>
<text text-anchor="middle" x="-2.6027" y="1.0891">
Sarin
</text>
<text text-anchor="middle" x="-0.9927" y="1.3981999">
Altais
</text>
<text text-anchor="middle" x="0" y="0.8755">
Mia
</text>
<text text-anchor="middle" x="-1.1027" y="1.0891">
Pure Pax
</text>
<text text-anchor="middle" x="-1.65" y="1.5745">
Biham
</text>
<text text-anchor="middle" x="0" y="0.2755">
Arided
</text>
<text text-anchor="middle" x="2.25" y="-0.42360002">
Jerry
</text>
<text text-anchor="middle" x="1.95" y="-1.0236">
Labonte
</text>
<text text-anchor="middle" x="-1.0146" y="3.2261999">
Ick
</text>
<text text-anchor="middle" x="2.0646" y="-0.4529">
Leclerc
</text>
<text text-anchor="middle" x="-0.1794" y="1.7599">
Sulafat
</text>
<text text-anchor="middle" x="2.0073" y="-1.1999">
Sainz
</text>
<text text-anchor="middle" x="-0.3527" y="0.7609">
Polaris
</text>
<text text-anchor="middle" x="-2.3427" y="1.2892">
Schedir
</text>
<text text-anchor="middle" x="-2.4927" y="1.7508999">
Tic
</text>
<text text-anchor="middle" x="2.4354" y="-0.4529">
Mansell
</text>
<text text-anchor="middle" x="-0.3973" y="2.0599">
Merak
</text>
<text text-anchor="middle" x="-1.4073" y="2.5881999">
Neshmet
</text>
<text text-anchor="middle" x="0.5706" y="0.4609">
Clarkson
</text>
<text text-anchor="middle" x="0.3527" y="0.7609">
May
</text>
<text text-anchor="middle" x="1.7427" y="0.4518">
Kajam
</text>
<text text-anchor="middle" x="0.9294" y="0.4609">
Salm
</text>
<text text-anchor="middle" x="-0.3527" y="-0.2099">
Racer X
</text>
<text text-anchor="middle" x="2.7354" y="-0.6709">
Perez
</text>
<text text-anchor="middle" x="-0.0927" y="-0.009800002">
Shaw
</text>
<text text-anchor="middle" x="0" y="-0.32450002">
Ramsey
</text>
<text text-anchor="middle" x="2.1" y="0.2755">
Alamak
</text>
<text text-anchor="middle" x="1.8527" y="-0.2099">
Andretti
</text>
<text text-anchor="middle" x="1.4073" y="0.5608">
Decrux
</text>
<text text-anchor="middle" x="-1.05" y="1.5745">
Sasin
</text>
<text text-anchor="middle" x="-2.1" y="2.8736">
Pug
</text>
</g>
</svg>